<?xml version="1.0" encoding="us-ascii" standalone="no"?><svg xmlns="http://www.w3.org/2000/svg" xmlns:xlink="http://www.w3.org/1999/xlink" contentStyleType="text/css" height="3067px" preserveAspectRatio="none" style="width:928px;height:3067px;background:#FFFFFF;" version="1.1" viewBox="0 0 928 3067" width="928px" zoomAndPan="magnify"><defs/><g><text fill="#000000" font-family="Verdana" font-size="22" font-weight="bold" lengthAdjust="spacing" textLength="895" x="15" y="37.1182">Sistema di Creazione Mappe Personalizzate - Diagramma dei Casi d'Uso</text><!--cluster Sistema Creazione Mappe Personalizzate--><g id="cluster_Sistema Creazione Mappe Personalizzate"><path d="M539,428.2373 L854,428.2373 A3.75,3.75 0 0 1 856.5,430.7373 L863.5,451.252 L871,451.252 A2.5,2.5 0 0 1 873.5,453.752 L873.5,2921.7373 A2.5,2.5 0 0 1 871,2924.2373 L539,2924.2373 A2.5,2.5 0 0 1 536.5,2921.7373 L536.5,430.7373 A2.5,2.5 0 0 1 539,428.2373 " fill="#FFFFFF" style="stroke:#000000;stroke-width:1.0;"/><line style="stroke:#000000;stroke-width:1.0;" x1="536.5" x2="863.5" y1="451.252" y2="451.252"/><text fill="#000000" font-family="Verdana" font-size="14" font-weight="bold" lengthAdjust="spacing" textLength="314" x="540.5" y="444.3125">Sistema Creazione Mappe Personalizzate</text></g><!--cluster Strumenti Progettazione Mappe--><g id="cluster_Strumenti Progettazione Mappe"><path d="M577,1948.2373 L823,1948.2373 A3.75,3.75 0 0 1 825.5,1950.7373 L832.5,1971.252 L833,1971.252 A2.5,2.5 0 0 1 835.5,1973.752 L835.5,2513.7373 A2.5,2.5 0 0 1 833,2516.2373 L577,2516.2373 A2.5,2.5 0 0 1 574.5,2513.7373 L574.5,1950.7373 A2.5,2.5 0 0 1 577,1948.2373 " fill="#FFFFFF" style="stroke:#000000;stroke-width:1.0;"/><line style="stroke:#000000;stroke-width:1.0;" x1="574.5" x2="832.5" y1="1971.252" y2="1971.252"/><text fill="#000000" font-family="Verdana" font-size="14" font-weight="bold" lengthAdjust="spacing" textLength="245" x="578.5" y="1964.3125">Strumenti Progettazione Mappe</text></g><!--cluster Gestione Mappe--><g id="cluster_Gestione Mappe"><path d="M583.5,1420.2373 L707.5,1420.2373 A3.75,3.75 0 0 1 710,1422.7373 L717,1443.252 L826.5,1443.252 A2.5,2.5 0 0 1 829,1445.752 L829,1921.7373 A2.5,2.5 0 0 1 826.5,1924.2373 L583.5,1924.2373 A2.5,2.5 0 0 1 581,1921.7373 L581,1422.7373 A2.5,2.5 0 0 1 583.5,1420.2373 " fill="#FFFFFF" style="stroke:#000000;stroke-width:1.0;"/><line style="stroke:#000000;stroke-width:1.0;" x1="581" x2="717" y1="1443.252" y2="1443.252"/><text fill="#000000" font-family="Verdana" font-size="14" font-weight="bold" lengthAdjust="spacing" textLength="123" x="585" y="1436.3125">Gestione Mappe</text></g><!--cluster Funzionalit? Community--><g id="cluster_Funzionalit&#224; Community"><path d="M575.5,845.2373 L762.5,845.2373 A3.75,3.75 0 0 1 765,847.7373 L772,868.252 L834.5,868.252 A2.5,2.5 0 0 1 837,870.752 L837,1262.7373 A2.5,2.5 0 0 1 834.5,1265.2373 L575.5,1265.2373 A2.5,2.5 0 0 1 573,1262.7373 L573,847.7373 A2.5,2.5 0 0 1 575.5,845.2373 " fill="#FFFFFF" style="stroke:#000000;stroke-width:1.0;"/><line style="stroke:#000000;stroke-width:1.0;" x1="573" x2="772" y1="868.252" y2="868.252"/><text fill="#000000" font-family="Verdana" font-size="14" font-weight="bold" lengthAdjust="spacing" textLength="186" x="577" y="861.3125">Funzionalit&#224; Community</text></g><!--cluster Amministrazione--><g id="cluster_Amministrazione"><path d="M563,472.2373 L692,472.2373 A3.75,3.75 0 0 1 694.5,474.7373 L701.5,495.252 L847,495.252 A2.5,2.5 0 0 1 849.5,497.752 L849.5,818.7373 A2.5,2.5 0 0 1 847,821.2373 L563,821.2373 A2.5,2.5 0 0 1 560.5,818.7373 L560.5,474.7373 A2.5,2.5 0 0 1 563,472.2373 " fill="#FFFFFF" style="stroke:#000000;stroke-width:1.0;"/><line style="stroke:#000000;stroke-width:1.0;" x1="560.5" x2="701.5" y1="495.252" y2="495.252"/><text fill="#000000" font-family="Verdana" font-size="14" font-weight="bold" lengthAdjust="spacing" textLength="128" x="564.5" y="488.3125">Amministrazione</text></g><g id="elem_UC1"><ellipse cx="705.0306" cy="1305.2434" fill="#FFFFFF" rx="90.5306" ry="20.5061" style="stroke:#000000;stroke-width:1.0;"/><text fill="#000000" font-family="Verdana" font-size="14" lengthAdjust="spacing" textLength="141" x="634.5306" y="1308.8113">Accedi Editor Mappe</text></g><g id="elem_UC2"><ellipse cx="705.1962" cy="2555.3766" fill="#FFFFFF" rx="86.1962" ry="19.6392" style="stroke:#000000;stroke-width:1.0;"/><text fill="#000000" font-family="Verdana" font-size="14" lengthAdjust="spacing" textLength="131" x="639.6962" y="2558.9444">Crea Nuova Mappa</text></g><g id="elem_UC3"><ellipse cx="705.2211" cy="2717.2815" fill="#FFFFFF" rx="105.7211" ry="23.5442" style="stroke:#000000;stroke-width:1.0;"/><text fill="#000000" font-family="Verdana" font-size="14" lengthAdjust="spacing" textLength="175" x="617.7211" y="2720.8494">Modifica Mappa Esistente</text></g><g id="elem_UC4"><ellipse cx="705.0035" cy="2642.338" fill="#FFFFFF" rx="68.5035" ry="16.1007" style="stroke:#000000;stroke-width:1.0;"/><text fill="#000000" font-family="Verdana" font-size="14" lengthAdjust="spacing" textLength="87" x="658.5035" y="2646.6256">Salva Mappa</text></g><g id="elem_UC5"><ellipse cx="705.2349" cy="2793.2843" fill="#FFFFFF" rx="75.7349" ry="17.547" style="stroke:#000000;stroke-width:1.0;"/><text fill="#000000" font-family="Verdana" font-size="14" lengthAdjust="spacing" textLength="106" x="652.2349" y="2796.8522">Pubblica Mappa</text></g><g id="elem_UC6"><ellipse cx="704.893" cy="2885.0159" fill="#FFFFFF" rx="99.393" ry="22.2786" style="stroke:#000000;stroke-width:1.0;"/><text fill="#000000" font-family="Verdana" font-size="14" lengthAdjust="spacing" textLength="161" x="624.393" y="2888.5838">Imposta Privacy Mappa</text></g><g id="elem_UC7"><ellipse cx="704.8762" cy="1382.2125" fill="#FFFFFF" rx="95.3762" ry="21.4752" style="stroke:#000000;stroke-width:1.0;"/><text fill="#000000" font-family="Verdana" font-size="14" lengthAdjust="spacing" textLength="152" x="628.8762" y="1385.7804">Elimina Propria Mappa</text></g><g id="elem_UC8"><ellipse cx="705.0156" cy="2083.4404" fill="#FFFFFF" rx="79.0156" ry="18.2031" style="stroke:#000000;stroke-width:1.0;"/><text fill="#000000" font-family="Verdana" font-size="14" lengthAdjust="spacing" textLength="114" x="648.0156" y="2087.0083">Seleziona Bioma</text></g><g id="elem_UC9"><ellipse cx="704.9212" cy="2156.2215" fill="#FFFFFF" rx="87.9212" ry="19.9842" style="stroke:#000000;stroke-width:1.0;"/><text fill="#000000" font-family="Verdana" font-size="14" lengthAdjust="spacing" textLength="135" x="637.4212" y="2159.7894">Scegli Tipo Terreno</text></g><g id="elem_UC10"><ellipse cx="705.1411" cy="2229.3655" fill="#FFFFFF" rx="76.1411" ry="17.6282" style="stroke:#000000;stroke-width:1.0;"/><text fill="#000000" font-family="Verdana" font-size="14" lengthAdjust="spacing" textLength="107" x="651.6411" y="2232.9334">Dipingi Terreno</text></g><g id="elem_UC11"><ellipse cx="705.0156" cy="2409.4404" fill="#FFFFFF" rx="79.0156" ry="18.2031" style="stroke:#000000;stroke-width:1.0;"/><text fill="#000000" font-family="Verdana" font-size="14" lengthAdjust="spacing" textLength="114" x="648.0156" y="2413.0083">Posiziona Nemici</text></g><g id="elem_UC12"><ellipse cx="705.1326" cy="2481.3638" fill="#FFFFFF" rx="83.6326" ry="19.1265" style="stroke:#000000;stroke-width:1.0;"/><text fill="#000000" font-family="Verdana" font-size="14" lengthAdjust="spacing" textLength="125" x="642.6326" y="2484.9317">Posiziona Ostacoli</text></g><g id="elem_UC13"><ellipse cx="704.9508" cy="2007.3275" fill="#FFFFFF" rx="103.4508" ry="23.0902" style="stroke:#000000;stroke-width:1.0;"/><text fill="#000000" font-family="Verdana" font-size="14" lengthAdjust="spacing" textLength="170" x="619.9508" y="2010.8953">Cancella Elementi Mappa</text></g><g id="elem_UC14"><ellipse cx="705.094" cy="2319.1561" fill="#FFFFFF" rx="90.094" ry="20.4188" style="stroke:#000000;stroke-width:1.0;"/><text fill="#000000" font-family="Verdana" font-size="14" lengthAdjust="spacing" textLength="140" x="635.094" y="2322.724">Zoom e Pan Canvas</text></g><g id="elem_UC16"><ellipse cx="705.1426" cy="1810.4658" fill="#FFFFFF" rx="101.6426" ry="22.7285" style="stroke:#000000;stroke-width:1.0;"/><text fill="#000000" font-family="Verdana" font-size="14" lengthAdjust="spacing" textLength="166" x="622.1426" y="1814.0337">Visualizza Le Mie Mappe</text></g><g id="elem_UC17"><ellipse cx="705.094" cy="1479.0561" fill="#FFFFFF" rx="102.094" ry="22.8188" style="stroke:#000000;stroke-width:1.0;"/><text fill="#000000" font-family="Verdana" font-size="14" lengthAdjust="spacing" textLength="167" x="621.594" y="1482.624">Sfoglia Mappe Pubbliche</text></g><g id="elem_UC18"><ellipse cx="705.2413" cy="1560.2856" fill="#FFFFFF" rx="100.7413" ry="22.5483" style="stroke:#000000;stroke-width:1.0;"/><text fill="#000000" font-family="Verdana" font-size="14" lengthAdjust="spacing" textLength="164" x="623.2413" y="1563.8534">Cerca Mappe per Criteri</text></g><g id="elem_UC19"><ellipse cx="705.0017" cy="1642.2377" fill="#FFFFFF" rx="108.0017" ry="24.0003" style="stroke:#000000;stroke-width:1.0;"/><text fill="#000000" font-family="Verdana" font-size="14" lengthAdjust="spacing" textLength="180" x="615.0017" y="1645.8055">Carica Mappa per Modifica</text></g><g id="elem_UC20"><ellipse cx="704.8393" cy="1735.3052" fill="#FFFFFF" rx="73.3393" ry="17.0679" style="stroke:#000000;stroke-width:1.0;"/><text fill="#000000" font-family="Verdana" font-size="14" lengthAdjust="spacing" textLength="100" x="653.9315" y="1739.112">Duplica Mappa</text></g><g id="elem_UC21"><ellipse cx="705.2228" cy="1888.4819" fill="#FFFFFF" rx="89.2228" ry="20.2446" style="stroke:#000000;stroke-width:1.0;"/><text fill="#000000" font-family="Verdana" font-size="14" lengthAdjust="spacing" textLength="138" x="636.2228" y="1892.0497">Esporta Dati Mappa</text></g><g id="elem_UC22"><ellipse cx="705.0446" cy="1061.3462" fill="#FFFFFF" rx="71.0446" ry="16.6089" style="stroke:#000000;stroke-width:1.0;"/><text fill="#000000" font-family="Verdana" font-size="14" lengthAdjust="spacing" textLength="94" x="655.9035" y="1065.4477">Valuta Mappe</text></g><g id="elem_UC23"><ellipse cx="705.0484" cy="992.447" fill="#FFFFFF" rx="76.5484" ry="17.7097" style="stroke:#000000;stroke-width:1.0;"/><text fill="#000000" font-family="Verdana" font-size="14" lengthAdjust="spacing" textLength="108" x="651.0484" y="996.0149">Mappe Preferite</text></g><g id="elem_UC24"><ellipse cx="704.8256" cy="1138.3024" fill="#FFFFFF" rx="115.8256" ry="25.5651" style="stroke:#000000;stroke-width:1.0;"/><text fill="#000000" font-family="Verdana" font-size="14" lengthAdjust="spacing" textLength="197" x="606.3256" y="1141.8703">Visualizza Statistiche Mappa</text></g><g id="elem_UC25"><ellipse cx="704.9757" cy="1224.4325" fill="#FFFFFF" rx="113.9757" ry="25.1951" style="stroke:#000000;stroke-width:1.0;"/><text fill="#000000" font-family="Verdana" font-size="14" lengthAdjust="spacing" textLength="193" x="608.4757" y="1228.0003">Gioca Mappa Personalizzata</text></g><g id="elem_UC26"><ellipse cx="705.2238" cy="902.1821" fill="#FFFFFF" rx="92.7238" ry="20.9448" style="stroke:#000000;stroke-width:1.0;"/><text fill="#000000" font-family="Verdana" font-size="14" lengthAdjust="spacing" textLength="146" x="632.2238" y="905.7499">Condividi Link Mappa</text></g><g id="elem_UC27"><ellipse cx="705.2319" cy="608.3837" fill="#FFFFFF" rx="73.7319" ry="17.1464" style="stroke:#000000;stroke-width:1.0;"/><text fill="#000000" font-family="Verdana" font-size="14" lengthAdjust="spacing" textLength="101" x="654.0219" y="612.1402">Modera Mappe</text></g><g id="elem_UC28"><ellipse cx="704.9327" cy="688.3238" fill="#FFFFFF" rx="128.4327" ry="28.0865" style="stroke:#000000;stroke-width:1.0;"/><text fill="#000000" font-family="Verdana" font-size="14" lengthAdjust="spacing" textLength="224" x="592.9327" y="691.8917">Rimuovi Contenuti Inappropriati</text></g><g id="elem_UC29"><ellipse cx="704.938" cy="778.3249" fill="#FFFFFF" rx="120.938" ry="26.5876" style="stroke:#000000;stroke-width:1.0;"/><text fill="#000000" font-family="Verdana" font-size="14" lengthAdjust="spacing" textLength="208" x="600.938" y="781.8928">Visualizza Statistiche Sistema</text></g><g id="elem_UC30"><ellipse cx="705.2211" cy="532.2815" fill="#FFFFFF" rx="105.7211" ry="23.5442" style="stroke:#000000;stroke-width:1.0;"/><text fill="#000000" font-family="Verdana" font-size="14" lengthAdjust="spacing" textLength="175" x="617.7211" y="535.8494">Gestisci Database Mappe</text></g><!--entity Player--><g id="elem_Player"><ellipse cx="149" cy="1362.2373" fill="#FFFFFF" rx="8" ry="8" style="stroke:#000000;stroke-width:1.0;"/><path d="M149,1370.2373 L149,1397.2373 M136,1378.2373 L162,1378.2373 M149,1397.2373 L136,1412.2373 M149,1397.2373 L162,1412.2373 " fill="none" style="stroke:#000000;stroke-width:1.0;"/><text fill="#000000" font-family="Verdana" font-size="14" lengthAdjust="spacing" textLength="67" x="115.5" y="1428.3125">Giocatore</text></g><!--entity Creator--><g id="elem_Creator"><ellipse cx="149" cy="2500.2373" fill="#ADD8E6" rx="8" ry="8" style="stroke:#000000;stroke-width:1.0;"/><path d="M149,2508.2373 L149,2535.2373 M136,2516.2373 L162,2516.2373 M149,2535.2373 L136,2550.2373 M149,2535.2373 L162,2550.2373 " fill="none" style="stroke:#000000;stroke-width:1.0;"/><text fill="#000000" font-family="Verdana" font-size="14" lengthAdjust="spacing" textLength="111" x="93.5" y="2566.3125">Creatore Mappe</text></g><!--entity Community--><g id="elem_Community"><ellipse cx="149" cy="962.2373" fill="#FFFFFF" rx="8" ry="8" style="stroke:#000000;stroke-width:1.0;"/><path d="M149,970.2373 L149,997.2373 M136,978.2373 L162,978.2373 M149,997.2373 L136,1012.2373 M149,997.2373 L162,1012.2373 " fill="none" style="stroke:#000000;stroke-width:1.0;"/><text fill="#000000" font-family="Verdana" font-size="14" lengthAdjust="spacing" textLength="141" x="78.5" y="1028.3125">Membro Community</text></g><!--entity Admin--><g id="elem_Admin"><ellipse cx="149" cy="573.2373" fill="#FF0000" rx="8" ry="8" style="stroke:#000000;stroke-width:1.0;"/><path d="M149,581.2373 L149,608.2373 M136,589.2373 L162,589.2373 M149,608.2373 L136,623.2373 M149,608.2373 L162,623.2373 " fill="none" style="stroke:#000000;stroke-width:1.0;"/><text fill="#000000" font-family="Verdana" font-size="14" lengthAdjust="spacing" textLength="169" x="64.5" y="639.3125">Amministratore Sistema</text></g><g id="elem_GMN80"><path d="M566.5,2971.7373 L566.5,3060.7339 L843.5,3060.7339 L843.5,2981.7373 L833.5,2971.7373 L566.5,2971.7373 " fill="#FFFFFF" style="stroke:#000000;stroke-width:1.0;"/><path d="M833.5,2971.7373 L833.5,2981.7373 L843.5,2981.7373 L833.5,2971.7373 " fill="#FFFFFF" style="stroke:#000000;stroke-width:1.0;"/><text fill="#000000" font-family="Verdana" font-size="13" font-weight="bold" lengthAdjust="spacing" textLength="160" x="572.5" y="2989.8071">Ruolo Creatore Mappe</text><text fill="#000000" font-family="Verdana" font-size="13" lengthAdjust="spacing" textLength="139" x="572.5" y="3005.6064">- Utente autenticato</text><text fill="#000000" font-family="Verdana" font-size="13" lengthAdjust="spacing" textLength="190" x="572.5" y="3021.4058">- Accesso a strumenti editor</text><text fill="#000000" font-family="Verdana" font-size="13" lengthAdjust="spacing" textLength="190" x="572.5" y="3037.2051">- Pu&#242; creare mappe illimitate</text><text fill="#000000" font-family="Verdana" font-size="13" lengthAdjust="spacing" textLength="256" x="572.5" y="3053.0044">- Controlla impostazioni privacy mappa</text></g><g id="elem_GMN83"><path d="M589.5,182.7373 L589.5,271.7339 L820.5,271.7339 L820.5,192.7373 L810.5,182.7373 L589.5,182.7373 " fill="#FFFFFF" style="stroke:#000000;stroke-width:1.0;"/><path d="M810.5,182.7373 L810.5,192.7373 L820.5,192.7373 L810.5,182.7373 " fill="#FFFFFF" style="stroke:#000000;stroke-width:1.0;"/><text fill="#000000" font-family="Verdana" font-size="13" font-weight="bold" lengthAdjust="spacing" textLength="147" x="595.5" y="200.8071">Membro Community</text><text fill="#000000" font-family="Verdana" font-size="13" lengthAdjust="spacing" textLength="168" x="595.5" y="216.6064">- Pu&#242; valutare e preferire</text><text fill="#000000" font-family="Verdana" font-size="13" lengthAdjust="spacing" textLength="132" x="595.5" y="232.4058">- Fornisce feedback</text><text fill="#000000" font-family="Verdana" font-size="13" lengthAdjust="spacing" textLength="210" x="595.5" y="248.2051">- Gioca contenuti personalizzati</text><text fill="#000000" font-family="Verdana" font-size="13" lengthAdjust="spacing" textLength="138" x="595.5" y="264.0044">- Condivide scoperte</text></g><g id="elem_GMN86"><path d="M606,58.7373 L606,147.7339 L804,147.7339 L804,68.7373 L794,58.7373 L606,58.7373 " fill="#FFFFFF" style="stroke:#000000;stroke-width:1.0;"/><path d="M794,58.7373 L794,68.7373 L804,68.7373 L794,58.7373 " fill="#FFFFFF" style="stroke:#000000;stroke-width:1.0;"/><text fill="#000000" font-family="Verdana" font-size="13" font-weight="bold" lengthAdjust="spacing" textLength="177" x="612" y="76.8071">Amministratore Sistema</text><text fill="#000000" font-family="Verdana" font-size="13" lengthAdjust="spacing" textLength="162" x="612" y="92.6064">- Moderazione contenuti</text><text fill="#000000" font-family="Verdana" font-size="13" lengthAdjust="spacing" textLength="158" x="612" y="108.4058">- Manutenzione sistema</text><text fill="#000000" font-family="Verdana" font-size="13" lengthAdjust="spacing" textLength="172" x="612" y="124.2051">- Monitoraggio prestazioni</text><text fill="#000000" font-family="Verdana" font-size="13" lengthAdjust="spacing" textLength="99" x="612" y="140.0044">- Gestione dati</text></g><g id="elem_GMN89"><path d="M579,306.7373 L579,411.5332 L831,411.5332 L831,316.7373 L821,306.7373 L579,306.7373 " fill="#FFFFFF" style="stroke:#000000;stroke-width:1.0;"/><path d="M821,306.7373 L821,316.7373 L831,316.7373 L821,306.7373 " fill="#FFFFFF" style="stroke:#000000;stroke-width:1.0;"/><text fill="#000000" font-family="Verdana" font-size="13" font-weight="bold" lengthAdjust="spacing" textLength="181" x="585" y="324.8071">Processo Creazione Core</text><text fill="#000000" font-family="Verdana" font-size="13" lengthAdjust="spacing" textLength="171" x="585" y="340.6064">1. Inizializza mappa vuota</text><text fill="#000000" font-family="Verdana" font-size="13" lengthAdjust="spacing" textLength="189" x="585" y="356.4058">2. Seleziona bioma e terreno</text><text fill="#000000" font-family="Verdana" font-size="13" lengthAdjust="spacing" textLength="231" x="585" y="372.2051">3. Progetta usando strumenti visivi</text><text fill="#000000" font-family="Verdana" font-size="13" lengthAdjust="spacing" textLength="112" x="585" y="388.0044">4. Testa e valida</text><text fill="#000000" font-family="Verdana" font-size="13" lengthAdjust="spacing" textLength="151" x="585" y="403.8037">5. Salva con metadata</text></g><!--link Player to UC1--><g id="link_Player_UC1"><path d="M182.75,1386.2573 C205.4,1382.1673 236.25,1376.7073 263.5,1372.2373 C391.36,1351.2473 534.5432,1329.9159 622.3732,1317.0659 " fill="none" id="Player-to-UC1" style="stroke:#000000;stroke-width:1.0;"/><polygon fill="#000000" points="628.31,1316.1973,618.8257,1313.5423,623.3627,1316.9211,619.9839,1321.458,628.31,1316.1973" style="stroke:#000000;stroke-width:1.0;"/><text fill="#000000" font-family="Verdana" font-size="13" lengthAdjust="spacing" textLength="162" x="311" y="1330.3071">Accedi editor dalla lobby</text></g><!--link Creator to UC2--><g id="link_Creator_UC2"><path d="M159.06,2569.2673 C172.6,2617.6173 203.25,2697.8973 263.5,2733.2373 C312.76,2762.1373 478.85,2772.3073 520.5,2733.2373 C540.8,2714.1973 511.2,2630.0473 528.5,2608.2373 C550.76,2580.1873 581.4456,2567.678 615.4756,2561.208 " fill="none" id="Creator-to-UC2" style="stroke:#000000;stroke-width:1.0;"/><polygon fill="#000000" points="621.37,2560.0873,611.7813,2557.8387,616.458,2561.0212,613.2755,2565.6979,621.37,2560.0873" style="stroke:#000000;stroke-width:1.0;"/><text fill="#000000" font-family="Verdana" font-size="13" lengthAdjust="spacing" textLength="222" x="281" y="2730.3071">Crea nuova mappa personalizzata</text></g><!--link Creator to UC3--><g id="link_Creator_UC3"><path d="M151.17,2569.3073 C155.57,2637.0773 175.47,2774.9973 263.5,2836.2373 C310.38,2868.8473 478.11,2874.5073 520.5,2836.2373 C533.43,2824.5573 516.99,2771.3173 528.5,2758.2373 C546.69,2737.5673 567.2516,2727.5633 594.1016,2721.6233 " fill="none" id="Creator-to-UC3" style="stroke:#000000;stroke-width:1.0;"/><polygon fill="#000000" points="599.96,2720.3273,590.3084,2718.3658,595.078,2721.4073,592.0365,2726.1769,599.96,2720.3273" style="stroke:#000000;stroke-width:1.0;"/><text fill="#000000" font-family="Verdana" font-size="13" lengthAdjust="spacing" textLength="168" x="308" y="2833.3071">Modifica mappa esistente</text></g><!--link Creator to UC4--><g id="link_Creator_UC4"><path d="M154.48,2569.6473 C163.49,2628.2073 189.74,2736.4073 263.5,2784.2373 C311.42,2815.3073 478.65,2823.0973 520.5,2784.2373 C538.13,2767.8573 512.51,2694.2273 528.5,2676.2373 C555.92,2645.3873 596.2206,2637.5022 634.3806,2636.9622 " fill="none" id="Creator-to-UC4" style="stroke:#000000;stroke-width:1.0;"/><polygon fill="#000000" points="640.38,2636.8773,631.3243,2633.0051,635.3805,2636.9481,631.4375,2641.0042,640.38,2636.8773" style="stroke:#000000;stroke-width:1.0;"/><text fill="#000000" font-family="Verdana" font-size="13" lengthAdjust="spacing" textLength="150" x="317" y="2781.3071">Salva progresso lavoro</text></g><!--link Creator to UC5--><g id="link_Creator_UC5"><path d="M156.48,2569.2373 C171.41,2653.8673 211.02,2849.8173 263.5,2888.2373 C309.58,2921.9673 476.58,2924.7373 520.5,2888.2373 C535.45,2875.8173 515.49,2859.6773 528.5,2845.2373 C554.45,2816.4373 589.5992,2804.249 625.4892,2798.359 " fill="none" id="Creator-to-UC5" style="stroke:#000000;stroke-width:1.0;"/><polygon fill="#000000" points="631.41,2797.3873,621.881,2794.8976,626.476,2798.197,623.1766,2802.792,631.41,2797.3873" style="stroke:#000000;stroke-width:1.0;"/><text fill="#000000" font-family="Verdana" font-size="13" lengthAdjust="spacing" textLength="255" x="264.5" y="2885.3071">Rendi mappa disponibile pubblicamente</text></g><!--link Creator to UC6--><g id="link_Creator_UC6"><path d="M154.86,2569.4973 C167.34,2663.0673 203.76,2894.7873 263.5,2940.2373 C354.41,3009.3973 407.49,2956.8073 520.5,2940.2373 C566.73,2933.4573 611.8387,2919.5731 648.2287,2906.5931 " fill="none" id="Creator-to-UC6" style="stroke:#000000;stroke-width:1.0;"/><polygon fill="#000000" points="653.88,2904.5773,644.0593,2903.8334,649.1706,2906.2571,646.7469,2911.3684,653.88,2904.5773" style="stroke:#000000;stroke-width:1.0;"/><text fill="#000000" font-family="Verdana" font-size="13" lengthAdjust="spacing" textLength="163" x="310.5" y="2937.3071">Controlla visibilit&#224; mappa</text></g><!--link Creator to UC7--><g id="link_Creator_UC7"><path d="M149.49,2491.1273 C148.3,2337.1673 151.79,1775.0373 263.5,1646.2373 C341.14,1556.7173 445.97,1667.3673 520.5,1575.2373 C539.4,1551.8773 510.18,1464.0673 528.5,1440.2373 C549.52,1412.8873 578.001,1399.6581 610.731,1391.9181 " fill="none" id="Creator-to-UC7" style="stroke:#000000;stroke-width:1.0;"/><polygon fill="#000000" points="616.57,1390.5373,606.891,1388.7159,611.7042,1391.688,608.7321,1396.5011,616.57,1390.5373" style="stroke:#000000;stroke-width:1.0;"/><text fill="#000000" font-family="Verdana" font-size="13" lengthAdjust="spacing" textLength="182" x="301" y="1572.3071">Rimuovi mappe indesiderate</text></g><!--link Creator to UC8--><g id="link_Creator_UC8"><path d="M166.74,2491.1173 C186.05,2448.7873 220.72,2380.7373 263.5,2331.2373 C358.32,2221.5273 421.92,2236.5773 520.5,2130.2373 C524.86,2125.5373 523.17,2121.8073 528.5,2118.2373 C557.16,2099.0573 588.0093,2090.6947 620.4993,2086.5047 " fill="none" id="Creator-to-UC8" style="stroke:#000000;stroke-width:1.0;"/><polygon fill="#000000" points="626.45,2085.7373,617.0123,2082.9213,621.4911,2086.3768,618.0355,2090.8556,626.45,2085.7373" style="stroke:#000000;stroke-width:1.0;"/><text fill="#000000" font-family="Verdana" font-size="13" lengthAdjust="spacing" textLength="142" x="321" y="2127.3071">Scegli tema ambiente</text></g><!--link Creator to UC9--><g id="link_Creator_UC9"><path d="M204.79,2504.9173 C223.13,2497.2873 243.9,2489.5373 263.5,2484.2373 C319.2,2469.1773 482.03,2490.2473 520.5,2447.2373 C539.25,2426.2773 510.5,2215.8473 528.5,2194.2373 C550.05,2168.3673 578.6909,2158.2666 611.5009,2154.4166 " fill="none" id="Creator-to-UC9" style="stroke:#000000;stroke-width:1.0;"/><polygon fill="#000000" points="617.46,2153.7173,608.0552,2150.7934,612.4941,2154.3,608.9875,2158.7389,617.46,2153.7173" style="stroke:#000000;stroke-width:1.0;"/><text fill="#000000" font-family="Verdana" font-size="13" lengthAdjust="spacing" textLength="168" x="308" y="2444.3071">Imposta difficolt&#224; terreno</text></g><!--link Creator to UC10--><g id="link_Creator_UC10"><path d="M204.51,2535.0173 C296.85,2541.7873 478.16,2548.9373 520.5,2505.2373 C537.83,2487.3473 513.25,2300.9273 528.5,2281.2373 C552.25,2250.5873 587.2867,2238.2394 623.6667,2232.7694 " fill="none" id="Creator-to-UC10" style="stroke:#000000;stroke-width:1.0;"/><polygon fill="#000000" points="629.6,2231.8773,620.1053,2229.2599,624.6556,2232.6207,621.2948,2237.171,629.6,2231.8773" style="stroke:#000000;stroke-width:1.0;"/><text fill="#000000" font-family="Verdana" font-size="13" lengthAdjust="spacing" textLength="157" x="313.5" y="2502.3071">Disegna texture terreno</text></g><!--link Creator to UC11--><g id="link_Creator_UC11"><path d="M186.75,2569.4373 C207.27,2588.4173 234.51,2609.2273 263.5,2619.2373 C317.48,2637.8773 479.2,2658.6873 520.5,2619.2373 C534.57,2605.7873 515.81,2458.9973 528.5,2444.2373 C552.8,2415.9573 586.8899,2406.8427 622.6199,2404.7827 " fill="none" id="Creator-to-UC11" style="stroke:#000000;stroke-width:1.0;"/><polygon fill="#000000" points="628.61,2404.4373,619.3947,2400.962,623.6183,2404.7251,619.8552,2408.9487,628.61,2404.4373" style="stroke:#000000;stroke-width:1.0;"/><text fill="#000000" font-family="Verdana" font-size="13" lengthAdjust="spacing" textLength="152" x="316" y="2616.3071">Aggiungi unit&#224; nemiche</text></g><!--link Creator to UC12--><g id="link_Creator_UC12"><path d="M167.66,2569.2573 C186,2604.5073 218.37,2654.1573 263.5,2676.2373 C314.8,2701.3373 479.19,2715.6673 520.5,2676.2373 C534.34,2663.0273 515.55,2518.3173 528.5,2504.2373 C554.71,2475.7373 591.6334,2469.5155 628.4734,2470.7555 " fill="none" id="Creator-to-UC12" style="stroke:#000000;stroke-width:1.0;"/><polygon fill="#000000" points="634.47,2470.9573,625.6097,2466.6568,629.4728,2470.7891,625.3405,2474.6523,634.47,2470.9573" style="stroke:#000000;stroke-width:1.0;"/><text fill="#000000" font-family="Verdana" font-size="13" lengthAdjust="spacing" textLength="184" x="300" y="2673.3071">Aggiungi elementi copertura</text></g><!--link Creator to UC13--><g id="link_Creator_UC13"><path d="M155.38,2491.1373 C169.07,2397.2273 208.13,2162.7773 263.5,2109.2373 C312.52,2061.8273 491.9673,2032.5393 606.0373,2018.1293 " fill="none" id="Creator-to-UC13" style="stroke:#000000;stroke-width:1.0;"/><polygon fill="#000000" points="611.99,2017.3773,602.5596,2014.5368,607.0294,2018.004,603.5623,2022.4737,611.99,2017.3773" style="stroke:#000000;stroke-width:1.0;"/><text fill="#000000" font-family="Verdana" font-size="13" lengthAdjust="spacing" textLength="183" x="300.5" y="2029.3071">Rimuovi elementi posizionati</text></g><!--link Creator to UC14--><g id="link_Creator_UC14"><path d="M204.77,2548.9573 C223.2,2554.3673 244.03,2559.5473 263.5,2562.2373 C320.07,2570.0573 479.27,2601.7573 520.5,2562.2373 C535.67,2547.6973 515.66,2389.8773 528.5,2373.2373 C549.83,2345.6073 579.1424,2332.9332 612.4324,2326.1032 " fill="none" id="Creator-to-UC14" style="stroke:#000000;stroke-width:1.0;"/><polygon fill="#000000" points="618.31,2324.8973,608.6897,2322.7877,613.412,2325.9022,610.2976,2330.6245,618.31,2324.8973" style="stroke:#000000;stroke-width:1.0;"/><text fill="#000000" font-family="Verdana" font-size="13" lengthAdjust="spacing" textLength="137" x="323.5" y="2559.3071">Naviga mappe grandi</text></g><!--link Creator to UC16--><g id="link_Creator_UC16"><path d="M151.39,2491.0173 C156.63,2366.0573 179.45,1980.4473 263.5,1895.2373 C310.43,1847.6573 486.4397,1826.1526 601.2997,1816.8326 " fill="none" id="Creator-to-UC16" style="stroke:#000000;stroke-width:1.0;"/><polygon fill="#000000" points="607.28,1816.3473,597.986,1813.0883,602.2964,1816.7517,598.633,1821.0621,607.28,1816.3473" style="stroke:#000000;stroke-width:1.0;"/><text fill="#000000" font-family="Verdana" font-size="13" lengthAdjust="spacing" textLength="188" x="298" y="1823.3071">Gestisci collezione personale</text></g><!--link Player to UC17--><g id="link_Player_UC17"><path d="M182.52,1402.0373 C205.07,1408.5373 235.9,1416.8273 263.5,1422.2373 C382.12,1445.4873 514.6602,1461.0361 604.2302,1470.0561 " fill="none" id="Player-to-UC17" style="stroke:#000000;stroke-width:1.0;"/><polygon fill="#000000" points="610.2,1470.6573,601.6461,1465.7757,605.2252,1470.1563,600.8445,1473.7354,610.2,1470.6573" style="stroke:#000000;stroke-width:1.0;"/><text fill="#000000" font-family="Verdana" font-size="13" lengthAdjust="spacing" textLength="185" x="299.5" y="1419.3071">Scopri contenuti community</text></g><!--link Player to UC18--><g id="link_Player_UC18"><path d="M182.55,1426.7473 C203.68,1447.0073 232.9,1471.2973 263.5,1485.2373 C373.45,1535.3373 506.6708,1551.8767 598.8408,1557.4267 " fill="none" id="Player-to-UC18" style="stroke:#000000;stroke-width:1.0;"/><polygon fill="#000000" points="604.83,1557.7873,596.0867,1553.2536,599.839,1557.4868,595.6058,1561.2391,604.83,1557.7873" style="stroke:#000000;stroke-width:1.0;"/><text fill="#000000" font-family="Verdana" font-size="13" lengthAdjust="spacing" textLength="169" x="307.5" y="1482.3071">Trova tipi mappa specifici</text></g><!--link Creator to UC19--><g id="link_Creator_UC19"><path d="M149.65,2491.0773 C149.17,2344.5173 155.37,1831.1073 263.5,1719.2373 C275.65,1706.6673 482.8441,1674.542 608.1141,1656.082 " fill="none" id="Creator-to-UC19" style="stroke:#000000;stroke-width:1.0;"/><polygon fill="#000000" points="614.05,1655.2073,604.563,1652.5621,609.1034,1655.9362,605.7293,1660.4767,614.05,1655.2073" style="stroke:#000000;stroke-width:1.0;"/><text fill="#000000" font-family="Verdana" font-size="13" lengthAdjust="spacing" textLength="162" x="311" y="1667.3071">Continua lavoro modifica</text></g><!--link Creator to UC20--><g id="link_Creator_UC20"><path d="M150.28,2491.1073 C152.09,2354.3873 165.52,1901.0473 263.5,1803.2373 C313.95,1752.8773 513.9628,1739.9591 625.4828,1736.5791 " fill="none" id="Creator-to-UC20" style="stroke:#000000;stroke-width:1.0;"/><polygon fill="#000000" points="631.48,1736.3973,622.363,1732.6718,626.4823,1736.5488,622.6053,1740.6681,631.48,1736.3973" style="stroke:#000000;stroke-width:1.0;"/><text fill="#000000" font-family="Verdana" font-size="13" lengthAdjust="spacing" textLength="132" x="326" y="1740.3071">Crea varianti mappa</text></g><!--link Creator to UC21--><g id="link_Creator_UC21"><path d="M153.31,2490.9373 C163.28,2381.6573 196.59,2077.5873 263.5,2007.2373 C313.45,1954.7173 511.1521,1917.405 623.2321,1899.865 " fill="none" id="Creator-to-UC21" style="stroke:#000000;stroke-width:1.0;"/><polygon fill="#000000" points="629.16,1898.9373,619.6498,1896.3769,624.2201,1899.7104,620.8867,1904.2807,629.16,1898.9373" style="stroke:#000000;stroke-width:1.0;"/><text fill="#000000" font-family="Verdana" font-size="13" lengthAdjust="spacing" textLength="125" x="329.5" y="1917.3071">Backup dati mappa</text></g><!--link Community to UC22--><g id="link_Community_UC22"><path d="M219.68,1008.9373 C234.11,1012.0073 249.25,1014.9673 263.5,1017.2373 C394.61,1038.1473 543.3746,1050.4593 630.1546,1056.5193 " fill="none" id="Community-to-UC22" style="stroke:#000000;stroke-width:1.0;"/><polygon fill="#000000" points="636.14,1056.9373,627.4405,1052.3201,631.1521,1056.589,626.8832,1060.3006,636.14,1056.9373" style="stroke:#000000;stroke-width:1.0;"/><text fill="#000000" font-family="Verdana" font-size="13" lengthAdjust="spacing" textLength="139" x="322.5" y="1014.3071">Valuta qualit&#224; mappa</text></g><!--link Community to UC23--><g id="link_Community_UC23"><path d="M219.6,992.2373 C324.08,992.2373 514.65,992.2373 622.48,992.2373 " fill="none" id="Community-to-UC23" style="stroke:#000000;stroke-width:1.0;"/><polygon fill="#000000" points="628.48,992.2373,619.48,988.2373,623.48,992.2373,619.48,996.2373,628.48,992.2373" style="stroke:#000000;stroke-width:1.0;"/><text fill="#000000" font-family="Verdana" font-size="13" lengthAdjust="spacing" textLength="145" x="319.5" y="989.3071">Salva mappe preferite</text></g><!--link Community to UC24--><g id="link_Community_UC24"><path d="M195.17,1031.4073 C214.91,1046.5073 239.11,1062.4573 263.5,1072.2373 C368.83,1114.4673 492.161,1129.6142 583.361,1135.1442 " fill="none" id="Community-to-UC24" style="stroke:#000000;stroke-width:1.0;"/><polygon fill="#000000" points="589.35,1135.5073,580.6086,1130.9699,584.3592,1135.2047,580.1244,1138.9552,589.35,1135.5073" style="stroke:#000000;stroke-width:1.0;"/><text fill="#000000" font-family="Verdana" font-size="13" lengthAdjust="spacing" textLength="195" x="294.5" y="1069.3071">Visualizza metriche popolarit&#224;</text></g><!--link Player to UC25--><g id="link_Player_UC25"><path d="M182.82,1361.9273 C204.27,1343.7073 233.74,1321.5573 263.5,1308.2373 C370.09,1260.5273 497.0281,1240.4669 588.8281,1231.5569 " fill="none" id="Player-to-UC25" style="stroke:#000000;stroke-width:1.0;"/><polygon fill="#000000" points="594.8,1230.9773,585.4557,1227.8655,589.8234,1231.4603,586.2285,1235.828,594.8,1230.9773" style="stroke:#000000;stroke-width:1.0;"/><text fill="#000000" font-family="Verdana" font-size="13" lengthAdjust="spacing" textLength="182" x="301" y="1237.3071">Gioca scenari personalizzati</text></g><!--link Community to UC26--><g id="link_Community_UC26"><path d="M219.77,976.0573 C234.19,972.9473 249.31,969.8473 263.5,967.2373 C388.76,944.2273 529.2905,924.6944 617.7905,913.1344 " fill="none" id="Community-to-UC26" style="stroke:#000000;stroke-width:1.0;"/><polygon fill="#000000" points="623.74,912.3573,614.2977,909.5567,618.7821,913.0049,615.3339,917.4893,623.74,912.3573" style="stroke:#000000;stroke-width:1.0;"/><text fill="#000000" font-family="Verdana" font-size="13" lengthAdjust="spacing" textLength="148" x="318" y="925.3071">Raccomanda agli amici</text></g><!--link Admin to UC27--><g id="link_Admin_UC27"><path d="M233.54,603.9873 C341.75,604.9673 522.6502,606.6035 625.2902,607.5235 " fill="none" id="Admin-to-UC27" style="stroke:#000000;stroke-width:1.0;"/><polygon fill="#000000" points="631.29,607.5773,622.3262,603.4968,626.2902,607.5325,622.2545,611.4965,631.29,607.5773" style="stroke:#000000;stroke-width:1.0;"/><text fill="#000000" font-family="Verdana" font-size="13" lengthAdjust="spacing" textLength="170" x="307" y="602.3071">Rivedi contenuti segnalati</text></g><!--link Admin to UC28--><g id="link_Admin_UC28"><path d="M233.72,625.8673 C243.72,628.2073 253.81,630.3873 263.5,632.2373 C372.17,652.9473 491.4521,667.4171 580.5521,676.6771 " fill="none" id="Admin-to-UC28" style="stroke:#000000;stroke-width:1.0;"/><polygon fill="#000000" points="586.52,677.2973,577.9817,672.3884,581.5468,676.7804,577.1547,680.3455,586.52,677.2973" style="stroke:#000000;stroke-width:1.0;"/><text fill="#000000" font-family="Verdana" font-size="13" lengthAdjust="spacing" textLength="198" x="293" y="629.3071">Applica linee guida community</text></g><!--link Admin to UC29--><g id="link_Admin_UC29"><path d="M188.76,642.2473 C209.32,660.7573 235.98,681.5473 263.5,694.2373 C366.89,741.9173 489.9482,761.9565 581.5682,770.8665 " fill="none" id="Admin-to-UC29" style="stroke:#000000;stroke-width:1.0;"/><polygon fill="#000000" points="587.54,771.4473,578.9694,766.595,582.5635,770.9633,578.1951,774.5574,587.54,771.4473" style="stroke:#000000;stroke-width:1.0;"/><text fill="#000000" font-family="Verdana" font-size="13" lengthAdjust="spacing" textLength="162" x="311" y="691.3071">Monitora utilizzo sistema</text></g><!--link Admin to UC30--><g id="link_Admin_UC30"><path d="M233.52,585.4073 C243.6,583.5273 253.77,581.7473 263.5,580.2373 C380.56,562.0373 510.2139,548.9022 599.7139,540.8922 " fill="none" id="Admin-to-UC30" style="stroke:#000000;stroke-width:1.0;"/><polygon fill="#000000" points="605.69,540.3573,596.3693,537.1755,600.7099,540.803,597.0824,545.1436,605.69,540.3573" style="stroke:#000000;stroke-width:1.0;"/><text fill="#000000" font-family="Verdana" font-size="13" lengthAdjust="spacing" textLength="145" x="319.5" y="546.3071">Mantieni integrit&#224; dati</text></g><!--link UC2 to UC8--><g id="link_UC2_UC8"><path d="M624.01,2548.5273 C592.47,2543.1473 557.12,2533.4973 528.5,2516.2373 C459.91,2474.8773 439.57,2453.9373 412,2378.7373 C393.52,2328.3273 314.31,2284.5273 528.5,2118.2373 C555.89,2096.9773 586.7502,2088.2607 619.6702,2084.4307 " fill="none" id="UC2-to-UC8" style="stroke:#000000;stroke-width:1.0;stroke-dasharray:7.0,7.0;"/><polygon fill="#000000" points="625.63,2083.7373,616.228,2080.8042,620.6635,2084.3151,617.1526,2088.7506,625.63,2083.7373" style="stroke:#000000;stroke-width:1.0;"/><text fill="#000000" font-family="Verdana" font-size="13" lengthAdjust="spacing" textLength="62" x="361" y="2375.8071">&#171;include&#187;</text></g><!--link UC2 to UC9--><g id="link_UC2_UC9"><path d="M626.07,2547.4773 C594.32,2541.9373 558.25,2532.4673 528.5,2516.2373 C464.49,2481.3273 440.05,2468.0373 412,2400.7373 C394.24,2358.1273 375.8,2302.2873 528.5,2194.2373 C554.73,2175.6773 582.3296,2166.8612 613.0896,2161.8012 " fill="none" id="UC2-to-UC9" style="stroke:#000000;stroke-width:1.0;stroke-dasharray:7.0,7.0;"/><polygon fill="#000000" points="619.01,2160.8273,609.4801,2158.3412,614.0763,2161.6389,610.7786,2166.2351,619.01,2160.8273" style="stroke:#000000;stroke-width:1.0;"/><text fill="#000000" font-family="Verdana" font-size="13" lengthAdjust="spacing" textLength="62" x="361" y="2397.8071">&#171;include&#187;</text></g><!--link UC2 to UC4--><g id="link_UC2_UC4"><path d="M705,2574.8773 C705,2590.2573 705,2605.3973 705,2619.8773 " fill="none" id="UC2-to-UC4" style="stroke:#000000;stroke-width:1.0;stroke-dasharray:7.0,7.0;"/><polygon fill="#000000" points="705,2625.8773,709,2616.8773,705,2620.8773,701,2616.8773,705,2625.8773" style="stroke:#000000;stroke-width:1.0;"/><text fill="#000000" font-family="Verdana" font-size="13" lengthAdjust="spacing" textLength="62" x="662.5" y="2606.0571">&#171;include&#187;</text></g><!--link UC3 to UC19--><g id="link_UC3_UC19"><path d="M604.9,2709.5073 C577.82,2703.3673 550.07,2692.8973 528.5,2675.2373 C432.87,2596.9473 438.51,2543.4573 412,2422.7373 C342.24,2105.0473 316.86,1947.2273 528.5,1700.2373 C549.07,1676.2373 573.9661,1663.7029 604.0161,1655.4129 " fill="none" id="UC3-to-UC19" style="stroke:#000000;stroke-width:1.0;stroke-dasharray:7.0,7.0;"/><polygon fill="#000000" points="609.8,1653.8173,600.0603,1652.3548,604.9801,1655.147,602.1878,1660.0667,609.8,1653.8173" style="stroke:#000000;stroke-width:1.0;"/><text fill="#000000" font-family="Verdana" font-size="13" lengthAdjust="spacing" textLength="62" x="361" y="2419.8071">&#171;include&#187;</text></g><!--link UC5 to UC6--><g id="link_UC5_UC6"><path d="M705,2810.8173 C705,2825.4973 705,2840.5373 705,2856.4973 " fill="none" id="UC5-to-UC6" style="stroke:#000000;stroke-width:1.0;stroke-dasharray:7.0,7.0;"/><polygon fill="#000000" points="705,2862.4973,709,2853.4973,705,2857.4973,701,2853.4973,705,2862.4973" style="stroke:#000000;stroke-width:1.0;"/><text fill="#000000" font-family="Verdana" font-size="13" lengthAdjust="spacing" textLength="62" x="662.5" y="2842.3071">&#171;include&#187;</text></g><!--link UC25 to UC17--><g id="link_UC25_UC17"><path d="M594.83,1230.7373 C571.96,1235.2173 548.69,1242.2673 528.5,1253.2373 C391.71,1327.5673 391.13,1364.0873 412.5,1397.7373 C452.13,1460.1473 530.1402,1478.2878 598.0002,1482.2478 " fill="none" id="UC25-to-UC17" style="stroke:#000000;stroke-width:1.0;stroke-dasharray:7.0,7.0;"/><polygon fill="#000000" points="603.99,1482.5973,595.2383,1478.0798,598.9985,1482.306,594.7723,1486.0662,603.99,1482.5973" style="stroke:#000000;stroke-width:1.0;"/><text fill="#000000" font-family="Verdana" font-size="13" lengthAdjust="spacing" textLength="61" x="361.5" y="1394.8071">&#171;extend&#187;</text></g><!--link UC10 to UC14--><g id="link_UC10_UC14"><path d="M705,2246.9673 C705,2261.7273 705,2276.7873 705,2292.3673 " fill="none" id="UC10-to-UC14" style="stroke:#000000;stroke-width:1.0;stroke-dasharray:7.0,7.0;"/><polygon fill="#000000" points="705,2298.3673,709,2289.3673,705,2293.3673,701,2289.3673,705,2298.3673" style="stroke:#000000;stroke-width:1.0;"/><text fill="#000000" font-family="Verdana" font-size="13" lengthAdjust="spacing" textLength="61" x="663" y="2278.3071">&#171;extend&#187;</text></g><!--link UC11 to UC14--><g id="link_UC11_UC14"><path d="M705,2391.0273 C705,2376.2273 705,2361.3673 705,2345.9373 " fill="none" id="UC11-to-UC14" style="stroke:#000000;stroke-width:1.0;stroke-dasharray:7.0,7.0;"/><polygon fill="#000000" points="705,2339.9373,701,2348.9373,705,2344.9373,709,2348.9373,705,2339.9373" style="stroke:#000000;stroke-width:1.0;"/><text fill="#000000" font-family="Verdana" font-size="13" lengthAdjust="spacing" textLength="61" x="663" y="2371.0571">&#171;extend&#187;</text></g><!--link UC12 to UC14--><g id="link_UC12_UC14"><path d="M631.81,2471.9673 C523.79,2455.5373 341.72,2415.6573 412.5,2339.7373 C471.6,2276.3473 575.606,2286.8916 642.566,2301.9416 " fill="none" id="UC12-to-UC14" style="stroke:#000000;stroke-width:1.0;stroke-dasharray:7.0,7.0;"/><polygon fill="#000000" points="648.42,2303.2573,640.5162,2297.3811,643.5417,2302.1609,638.7619,2305.1863,648.42,2303.2573" style="stroke:#000000;stroke-width:1.0;"/><text fill="#000000" font-family="Verdana" font-size="13" lengthAdjust="spacing" textLength="61" x="361.5" y="2353.8071">&#171;extend&#187;</text></g><!--link UC20 to UC19--><g id="link_UC20_UC19"><path d="M705,1718.1773 C705,1703.7073 705,1688.7673 705,1672.5473 " fill="none" id="UC20-to-UC19" style="stroke:#000000;stroke-width:1.0;stroke-dasharray:7.0,7.0;"/><polygon fill="#000000" points="705,1666.5473,701,1675.5473,705,1671.5473,709,1675.5473,705,1666.5473" style="stroke:#000000;stroke-width:1.0;"/><text fill="#000000" font-family="Verdana" font-size="13" lengthAdjust="spacing" textLength="61" x="663" y="1697.8071">&#171;extend&#187;</text></g><!--link UC26 to UC23--><g id="link_UC26_UC23"><path d="M705,923.4673 C705,938.9873 705,953.8073 705,968.4573 " fill="none" id="UC26-to-UC23" style="stroke:#000000;stroke-width:1.0;stroke-dasharray:7.0,7.0;"/><polygon fill="#000000" points="705,974.4573,709,965.4573,705,969.4573,701,965.4573,705,974.4573" style="stroke:#000000;stroke-width:1.0;"/><text fill="#000000" font-family="Verdana" font-size="13" lengthAdjust="spacing" textLength="61" x="663" y="954.5571">&#171;extend&#187;</text></g><!--link Creator to GMN80--><g id="link_Creator_GMN80"><path d="M154.05,2569.4373 C165.21,2669.1973 199.89,2928.5573 263.5,2982.2373 C345.94,3051.7973 470.73,3055.1973 566.46,3044.1273 " fill="none" id="Creator-GMN80" style="stroke:#000000;stroke-width:1.0;stroke-dasharray:7.0,7.0;"/></g><!--link Community to GMN83--><g id="link_Community_GMN83"><path d="M196.96,953.0673 C216.99,936.9873 240.92,918.5773 263.5,903.2373 C372.9,828.9273 453.66,867.3573 520.5,753.2373 C533.53,730.9873 513.43,310.1573 528.5,289.2373 C543.33,268.6573 565.56,254.8673 589.27,245.6373 " fill="none" id="Community-GMN83" style="stroke:#000000;stroke-width:1.0;stroke-dasharray:7.0,7.0;"/></g><!--link Admin to GMN86--><g id="link_Admin_GMN86"><path d="M173.57,564.2173 C226.57,479.5973 363.52,277.8373 528.5,165.2373 C551.72,149.3873 579.43,137.1573 605.89,127.9073 " fill="none" id="Admin-GMN86" style="stroke:#000000;stroke-width:1.0;stroke-dasharray:7.0,7.0;"/></g><!--link UC2 to GMN89--><g id="link_UC2_GMN89"><path d="M633.92,2566.2673 C558.34,2573.4673 441.54,2570.7473 381,2498.7373 C238.78,2329.5773 262.12,696.0373 381,509.7373 C424.46,441.6373 507.56,403.8773 578.73,383.2073 " fill="none" id="UC2-GMN89" style="stroke:#000000;stroke-width:1.0;stroke-dasharray:7.0,7.0;"/></g><!--SRC=[ZLVRRXit47tVhs2TXm06B5YIhuKHmB6T842S6axSXxvHgx4y29VSShb2dI3_qc_eB-J7EiFBIjnTkSr3ekmS3eTdPiwGlxWdg43KIg8k2eTEWVYCZODAYYMAAmlo6neDubRMDOWxi8tHKk6tRzA1E13NA5TMLem6Wii6nVBrGsEAGi6Z4yu8YwidHxuib8uy5OKidR5YxpsQKj8ls1Eo4NTAFeDDDjwMJM5N3uYVn2l5_XQgXGI-XMfXZRWoLTLgTCy1dlwNK9TLXPeEPeFZU4QFlLoIIRooi2oAMfPVvGh4NYBXPGRsnFT2q9-sWL8sjEooB85ukraYxxe9_-5gcWFPh_ZKchNqA1bHinnrQvRuY6N4Y9k6ez8k-PpdwCzIzTmTvO2xTh5GdRk8ESun7whQD4wAEujhMJvdq9CSUgEGc6EegItcNayzrF-ruTJPjgBmaLUimBbjPXEL-Ob00MEaU8kcIhxFHe0bh1IABrWRyGMi1MqY-7m8liOQzGfxmEdX47bd6WpxVu8AIqpGwKlGtuY-qgWEF1k2hwGkGIdAg8B0o3Ptq_bmnH_6L8BAJshgChsMJSA65FyOeVizDEu_-FqTcpRKilX8E8IyP4z6Y7uqHBHCtH0AwgbRSJfoLh1bmjTWgQFGWUtOEHjZnsvgdfUaDaXhndBQreFAderazAQfZQNolfOzqcVJdKI-QxNFh4Bty-zjeHbZLAhMoOp6sKW1HFeiF0BJaP3p5rFqsL7Gb5FYEm_zQBZCoskaCDEiRj7n2F56Bt6D960VKN_DzpZPISz6MdqxZz926GJResMaLkwn8acaGM98v7HBAVgWQKdG5vTgPdRslsdQrdbQE58ulakQ4haYv88_RGSvFup7_b4KhyKzA7z659VEZn4IoOgArHHXVec3WpTSd-9N4GS1X46mbDpioYmMpqMQP04x8woV1ThFWYhL_5R2UYlcjAAR2m4FQIxqe4S43KE1A5nPQ1eZb5mRQth0OmBU0oK_EbmYjOd61T9re8v3enhPu8IZfrnPm-TROyDBV9TuFptqAUyICrpv1a2zfDYvDCXrHl2EMT7pUCO73DBlfxMi5ZWIvZd1qbmZueWvepX85mP03pqz9FWrDh0YCNVmbsifqpkWFjMh5ROyJrWLoAlcKV7KZs4wsuP2qltIKB9fXpvNq_aMMHswJaF6OH_FkVuarxYIaLkwbr52SrRpaT1tmTdise4e2hCNkdA4NfcVUlQvDmcT6hRiRbuvc5FrnNADEng_iSwQ6aekvC5fpcDXeMvbB5bHnQBlTz1XQg4rjQ9aciQARyQfUakQrTRKZXqeesU7q1VTh-IBSncL_izMPXNVXywx7WnfgPFc3w6SmYqTgy1PBsArgOsYiz4kEQapxjkWz4q9cY2vTE1m3yxnlImfIrGTr33SEfAlDZrzopMz27Vaw2FqyPhrRPDttowAzyomdFRBEincXHgeBbkaZJTbai7FlRXf5aqfo2sVmuWcg7W6dNFQRpdTGF4YXR7o3Fdayc4-w5ArI_27ug9ldh1k2bRSIPAEYmiCe3TlDeRpNOQZWM4U3DFXakDWEHdwYXRVF1SNf2uaksIXW6_yxq6y94UJhiEtLdZrsMMPxRBC3hEOjoqdmU8hTZioRUYf5vvnvZ4zn6Wixk_VjqOPaR_MzlV9T20U_3mIikL_aLzw_ZEFHPv2LB2Tm8SPwSrtxSz_H4d-o5kS48eV6Oxd0mCsmmQ3deTohUDZ9VGWiyX13qBlQew3xxyRO-0-XBNlRGgYwrSRzdzdBBL52U8HOBaWDV5VGmjkUg7NX35mVxK2wbGl-R0pJ5_bFiJnHsiCD5ofWa9tMmUBr4nxCANU2Kj2Pz4KCdomn5yuH9eDle5wmIqCNNWgZYwyKVVtQIo7L6vUo5SKf0zkEg7keq6LXCnh_RerZiEOJSJcMRVWPvtOZ5SXvfDkujCbZKJAR9KAtp3M7ExHX5vlFCw1SqM2Gj-E9r5eYGqMJxdaorDta7y1]--></g></svg>