<?xml version="1.0" encoding="us-ascii" standalone="no"?><svg xmlns="http://www.w3.org/2000/svg" xmlns:xlink="http://www.w3.org/1999/xlink" contentStyleType="text/css" height="2552px" preserveAspectRatio="none" style="width:2203px;height:2552px;background:#FFFFFF;" version="1.1" viewBox="0 0 2203 2552" width="2203px" zoomAndPan="magnify"><defs/><g><text fill="#000000" font-family="Verdana" font-size="22" font-weight="bold" lengthAdjust="spacing" textLength="547" x="823.5" y="37.1182">Motore di Gioco - Diagramma dei Casi d'Uso</text><!--cluster Gestione Sessione Gioco--><g id="cluster_Gestione Sessione Gioco"><path d="M416.5,116.7373 L605.5,116.7373 A3.75,3.75 0 0 1 608,119.2373 L615,139.752 L1169,139.752 A2.5,2.5 0 0 1 1171.5,142.252 L1171.5,455.2373 A2.5,2.5 0 0 1 1169,457.7373 L416.5,457.7373 A2.5,2.5 0 0 1 414,455.2373 L414,119.2373 A2.5,2.5 0 0 1 416.5,116.7373 " fill="#FFFFFF" style="stroke:#000000;stroke-width:1.0;"/><line style="stroke:#000000;stroke-width:1.0;" x1="414" x2="615" y1="139.752" y2="139.752"/><text fill="#000000" font-family="Verdana" font-size="14" font-weight="bold" lengthAdjust="spacing" textLength="188" x="418" y="132.8125">Gestione Sessione Gioco</text></g><!--cluster Sistema Controllo Giocatore--><g id="cluster_Sistema Controllo Giocatore"><path d="M422,1389.7373 L639,1389.7373 A3.75,3.75 0 0 1 641.5,1392.2373 L648.5,1412.752 L668,1412.752 A2.5,2.5 0 0 1 670.5,1415.252 L670.5,1842.2373 A2.5,2.5 0 0 1 668,1844.7373 L422,1844.7373 A2.5,2.5 0 0 1 419.5,1842.2373 L419.5,1392.2373 A2.5,2.5 0 0 1 422,1389.7373 " fill="#FFFFFF" style="stroke:#000000;stroke-width:1.0;"/><line style="stroke:#000000;stroke-width:1.0;" x1="419.5" x2="648.5" y1="1412.752" y2="1412.752"/><text fill="#000000" font-family="Verdana" font-size="14" font-weight="bold" lengthAdjust="spacing" textLength="216" x="423.5" y="1405.8125">Sistema Controllo Giocatore</text></g><!--cluster Sistema Mondo di Gioco--><g id="cluster_Sistema Mondo di Gioco"><path d="M932.5,567.7373 L1118.5,567.7373 A3.75,3.75 0 0 1 1121,570.2373 L1128,590.752 L1184.5,590.752 A2.5,2.5 0 0 1 1187,593.252 L1187,967.2373 A2.5,2.5 0 0 1 1184.5,969.7373 L932.5,969.7373 A2.5,2.5 0 0 1 930,967.2373 L930,570.2373 A2.5,2.5 0 0 1 932.5,567.7373 " fill="#FFFFFF" style="stroke:#000000;stroke-width:1.0;"/><line style="stroke:#000000;stroke-width:1.0;" x1="930" x2="1128" y1="590.752" y2="590.752"/><text fill="#000000" font-family="Verdana" font-size="14" font-weight="bold" lengthAdjust="spacing" textLength="185" x="934" y="583.8125">Sistema Mondo di Gioco</text></g><!--cluster Sistema Combattimento--><g id="cluster_Sistema Combattimento"><path d="M908.5,1686.7373 L1093.5,1686.7373 A3.75,3.75 0 0 1 1096,1689.2373 L1103,1709.752 L2193.5,1709.752 A2.5,2.5 0 0 1 2196,1712.252 L2196,1952.2373 A2.5,2.5 0 0 1 2193.5,1954.7373 L908.5,1954.7373 A2.5,2.5 0 0 1 906,1952.2373 L906,1689.2373 A2.5,2.5 0 0 1 908.5,1686.7373 " fill="#FFFFFF" style="stroke:#000000;stroke-width:1.0;"/><line style="stroke:#000000;stroke-width:1.0;" x1="906" x2="1103" y1="1709.752" y2="1709.752"/><text fill="#000000" font-family="Verdana" font-size="14" font-weight="bold" lengthAdjust="spacing" textLength="184" x="910" y="1702.8125">Sistema Combattimento</text></g><!--cluster Sistema Nemici AI--><g id="cluster_Sistema Nemici AI"><path d="M399.5,1978.7373 L539.5,1978.7373 A3.75,3.75 0 0 1 542,1981.2373 L549,2001.752 L1191.5,2001.752 A2.5,2.5 0 0 1 1194,2004.252 L1194,2252.2373 A2.5,2.5 0 0 1 1191.5,2254.7373 L399.5,2254.7373 A2.5,2.5 0 0 1 397,2252.2373 L397,1981.2373 A2.5,2.5 0 0 1 399.5,1978.7373 " fill="#FFFFFF" style="stroke:#000000;stroke-width:1.0;"/><line style="stroke:#000000;stroke-width:1.0;" x1="397" x2="549" y1="2001.752" y2="2001.752"/><text fill="#000000" font-family="Verdana" font-size="14" font-weight="bold" lengthAdjust="spacing" textLength="139" x="401" y="1994.8125">Sistema Nemici AI</text></g><!--cluster Sincronizzazione Tempo Reale--><g id="cluster_Sincronizzazione Tempo Reale"><path d="M395.5,918.7373 L630.5,918.7373 A3.75,3.75 0 0 1 633,921.2373 L640,941.752 L694.5,941.752 A2.5,2.5 0 0 1 697,944.252 L697,1363.2373 A2.5,2.5 0 0 1 694.5,1365.7373 L395.5,1365.7373 A2.5,2.5 0 0 1 393,1363.2373 L393,921.2373 A2.5,2.5 0 0 1 395.5,918.7373 " fill="#FFFFFF" style="stroke:#000000;stroke-width:1.0;"/><line style="stroke:#000000;stroke-width:1.0;" x1="393" x2="640" y1="941.752" y2="941.752"/><text fill="#000000" font-family="Verdana" font-size="14" font-weight="bold" lengthAdjust="spacing" textLength="234" x="397" y="934.8125">Sincronizzazione Tempo Reale</text></g><g id="elem_UC1"><ellipse cx="544.9" cy="178.6173" fill="#FFFFFF" rx="114.9" ry="25.38" style="stroke:#000000;stroke-width:1.0;"/><text fill="#000000" font-family="Verdana" font-size="14" lengthAdjust="spacing" textLength="195" x="447.4" y="182.1852">Inizializza Sessione di Gioco</text></g><g id="elem_UC2"><ellipse cx="1058.3203" cy="238.8014" fill="#FFFFFF" rx="95.8203" ry="21.5641" style="stroke:#000000;stroke-width:1.0;"/><text fill="#000000" font-family="Verdana" font-size="14" lengthAdjust="spacing" textLength="153" x="981.8203" y="242.3692">Carica Mappa di Gioco</text></g><g id="elem_UC3"><ellipse cx="1058.6561" cy="398.5685" fill="#FFFFFF" rx="97.1561" ry="21.8312" style="stroke:#000000;stroke-width:1.0;"/><text fill="#000000" font-family="Verdana" font-size="14" lengthAdjust="spacing" textLength="156" x="980.6561" y="402.1364">Genera Tank Giocatori</text></g><g id="elem_UC4"><ellipse cx="544.7882" cy="259.8949" fill="#FFFFFF" rx="88.7882" ry="20.1576" style="stroke:#000000;stroke-width:1.0;"/><text fill="#000000" font-family="Verdana" font-size="14" lengthAdjust="spacing" textLength="137" x="476.2882" y="263.4628">Inizia Loop di Gioco</text></g><g id="elem_UC5"><ellipse cx="544.7922" cy="339.6957" fill="#FFFFFF" rx="110.2922" ry="24.4584" style="stroke:#000000;stroke-width:1.0;"/><text fill="#000000" font-family="Verdana" font-size="14" lengthAdjust="spacing" textLength="185" x="452.2922" y="343.2636">Termina Sessione di Gioco</text></g><g id="elem_UC6"><ellipse cx="545.1055" cy="420.8584" fill="#FFFFFF" rx="93.6055" ry="21.1211" style="stroke:#000000;stroke-width:1.0;"/><text fill="#000000" font-family="Verdana" font-size="14" lengthAdjust="spacing" textLength="148" x="471.1055" y="424.4263">Salva Risultati Partita</text></g><g id="elem_UC7"><ellipse cx="544.8749" cy="1602.5123" fill="#FFFFFF" rx="109.3749" ry="24.275" style="stroke:#000000;stroke-width:1.0;"/><text fill="#000000" font-family="Verdana" font-size="14" lengthAdjust="spacing" textLength="183" x="453.3749" y="1606.0802">Controlla Movimento Tank</text></g><g id="elem_UC8"><ellipse cx="544.9932" cy="1677.8744" fill="#FFFFFF" rx="61.4932" ry="15.1371" style="stroke:#000000;stroke-width:1.0;"/><text fill="#000000" font-family="Verdana" font-size="14" lengthAdjust="spacing" textLength="70" x="506.9932" y="1682.162">Mira Arma</text></g><g id="elem_UC9"><ellipse cx="545.0992" cy="1743.5572" fill="#FFFFFF" rx="67.0992" ry="15.8198" style="stroke:#000000;stroke-width:1.0;"/><text fill="#000000" font-family="Verdana" font-size="14" lengthAdjust="spacing" textLength="83" x="500.5992" y="1747.8447">Spara Arma</text></g><g id="elem_UC10"><ellipse cx="545.1728" cy="1811.7719" fill="#FFFFFF" rx="70.6728" ry="16.5346" style="stroke:#000000;stroke-width:1.0;"/><text fill="#000000" font-family="Verdana" font-size="14" lengthAdjust="spacing" textLength="93" x="496.3179" y="1815.921">Cambia Arma</text></g><g id="elem_UC11"><ellipse cx="544.8384" cy="1445.705" fill="#FFFFFF" rx="85.3384" ry="19.4677" style="stroke:#000000;stroke-width:1.0;"/><text fill="#000000" font-family="Verdana" font-size="14" lengthAdjust="spacing" textLength="129" x="480.3384" y="1449.2729">Usa Abilit&#224; Speciali</text></g><g id="elem_UC12"><ellipse cx="545.2238" cy="1521.6821" fill="#FFFFFF" rx="92.7238" ry="20.9448" style="stroke:#000000;stroke-width:1.0;"/><text fill="#000000" font-family="Verdana" font-size="14" lengthAdjust="spacing" textLength="146" x="472.2238" y="1525.2499">Visualizza Minimappa</text></g><g id="elem_UC13"><ellipse cx="1058.5918" cy="628.6557" fill="#FFFFFF" rx="112.5918" ry="24.9184" style="stroke:#000000;stroke-width:1.0;"/><text fill="#000000" font-family="Verdana" font-size="14" lengthAdjust="spacing" textLength="190" x="963.5918" y="632.2235">Renderizza Mondo di Gioco</text></g><g id="elem_UC14"><ellipse cx="1058.4591" cy="712.8291" fill="#FFFFFF" rx="108.4591" ry="24.0918" style="stroke:#000000;stroke-width:1.0;"/><text fill="#000000" font-family="Verdana" font-size="14" lengthAdjust="spacing" textLength="181" x="967.9591" y="716.397">Aggiorna Oggetti di Gioco</text></g><g id="elem_UC15"><ellipse cx="1058.6" cy="863.8573" fill="#FFFFFF" rx="81.1" ry="18.62" style="stroke:#000000;stroke-width:1.0;"/><text fill="#000000" font-family="Verdana" font-size="14" lengthAdjust="spacing" textLength="119" x="999.1" y="867.4252">Gestisci Collisioni</text></g><g id="elem_UC16"><ellipse cx="1058.5156" cy="935.9404" fill="#FFFFFF" rx="79.0156" ry="18.2031" style="stroke:#000000;stroke-width:1.0;"/><text fill="#000000" font-family="Verdana" font-size="14" lengthAdjust="spacing" textLength="114" x="1001.5156" y="939.5083">Gestisci Proiettili</text></g><g id="elem_UC17"><ellipse cx="1058.7083" cy="790.779" fill="#FFFFFF" rx="83.2083" ry="19.0417" style="stroke:#000000;stroke-width:1.0;"/><text fill="#000000" font-family="Verdana" font-size="14" lengthAdjust="spacing" textLength="124" x="996.7083" y="794.3468">Distruggi Ostacoli</text></g><g id="elem_UC19"><ellipse cx="1058.594" cy="1743.6561" fill="#FFFFFF" rx="90.094" ry="20.4188" style="stroke:#000000;stroke-width:1.0;"/><text fill="#000000" font-family="Verdana" font-size="14" lengthAdjust="spacing" textLength="140" x="988.594" y="1747.224">Elabora Danno Armi</text></g><g id="elem_UC20"><ellipse cx="1416.1764" cy="1746.8726" fill="#FFFFFF" rx="106.1764" ry="23.6353" style="stroke:#000000;stroke-width:1.0;"/><text fill="#000000" font-family="Verdana" font-size="14" lengthAdjust="spacing" textLength="176" x="1328.1764" y="1750.4405">Applica Danno ai Bersagli</text></g><g id="elem_UC21"><ellipse cx="1762.0883" cy="1746.555" fill="#FFFFFF" rx="107.0883" ry="23.8177" style="stroke:#000000;stroke-width:1.0;"/><text fill="#000000" font-family="Verdana" font-size="14" lengthAdjust="spacing" textLength="178" x="1673.0883" y="1750.1228">Gestisci Distruzione Tank</text></g><g id="elem_UC22"><ellipse cx="2093.0572" cy="1746.5487" fill="#FFFFFF" rx="87.0572" ry="19.8114" style="stroke:#000000;stroke-width:1.0;"/><text fill="#000000" font-family="Verdana" font-size="14" lengthAdjust="spacing" textLength="133" x="2026.5572" y="1750.1166">Rigenera Giocatore</text></g><g id="elem_UC23"><ellipse cx="1058.4602" cy="1828.9293" fill="#FFFFFF" rx="136.4602" ry="29.692" style="stroke:#000000;stroke-width:1.0;"/><text fill="#000000" font-family="Verdana" font-size="14" lengthAdjust="spacing" textLength="241" x="937.9602" y="1832.4972">Traccia Statistiche Combattimento</text></g><g id="elem_UC24"><ellipse cx="1058.7413" cy="1915.7856" fill="#FFFFFF" rx="100.7413" ry="22.5483" style="stroke:#000000;stroke-width:1.0;"/><text fill="#000000" font-family="Verdana" font-size="14" lengthAdjust="spacing" textLength="164" x="976.7413" y="1919.3534">Gestisci Sistema Salute</text></g><g id="elem_UC25"><ellipse cx="545.2028" cy="2043.5779" fill="#FFFFFF" rx="132.2028" ry="28.8406" style="stroke:#000000;stroke-width:1.0;"/><text fill="#000000" font-family="Verdana" font-size="14" lengthAdjust="spacing" textLength="232" x="429.2028" y="2047.1457">Controlla Comportamento Nemici</text></g><g id="elem_UC26"><ellipse cx="1058.4838" cy="2044.5341" fill="#FFFFFF" rx="84.4838" ry="19.2968" style="stroke:#000000;stroke-width:1.0;"/><text fill="#000000" font-family="Verdana" font-size="14" lengthAdjust="spacing" textLength="127" x="994.9838" y="2048.1019">Pathfinding Nemici</text></g><g id="elem_UC27"><ellipse cx="1058.3333" cy="2123.604" fill="#FFFFFF" rx="109.8333" ry="24.3667" style="stroke:#000000;stroke-width:1.0;"/><text fill="#000000" font-family="Verdana" font-size="14" lengthAdjust="spacing" textLength="184" x="966.3333" y="2127.1718">Selezione Bersaglio Nemici</text></g><g id="elem_UC28"><ellipse cx="1058.5402" cy="2210.5453" fill="#FFFFFF" rx="119.5402" ry="26.308" style="stroke:#000000;stroke-width:1.0;"/><text fill="#000000" font-family="Verdana" font-size="14" lengthAdjust="spacing" textLength="205" x="956.0402" y="2214.1132">Azioni Combattimento Nemici</text></g><g id="elem_UC29"><ellipse cx="544.7524" cy="2133.4878" fill="#FFFFFF" rx="116.7524" ry="25.7505" style="stroke:#000000;stroke-width:1.0;"/><text fill="#000000" font-family="Verdana" font-size="14" lengthAdjust="spacing" textLength="199" x="445.2524" y="2137.0557">Controllo Formazione Nemici</text></g><g id="elem_UC30"><ellipse cx="545.2103" cy="2216.9794" fill="#FFFFFF" rx="96.7103" ry="21.7421" style="stroke:#000000;stroke-width:1.0;"/><text fill="#000000" font-family="Verdana" font-size="14" lengthAdjust="spacing" textLength="155" x="467.7103" y="2220.5472">Genera Ondate Nemici</text></g><g id="elem_UC31"><ellipse cx="544.8055" cy="1322.6984" fill="#FFFFFF" rx="122.8055" ry="26.9611" style="stroke:#000000;stroke-width:1.0;"/><text fill="#000000" font-family="Verdana" font-size="14" lengthAdjust="spacing" textLength="212" x="438.8055" y="1326.2663">Sincronizza Posizioni Giocatori</text></g><g id="elem_UC32"><ellipse cx="544.7922" cy="979.6957" fill="#FFFFFF" rx="110.2922" ry="24.4584" style="stroke:#000000;stroke-width:1.0;"/><text fill="#000000" font-family="Verdana" font-size="14" lengthAdjust="spacing" textLength="185" x="452.2922" y="983.2636">Sincronizza Stato di Gioco</text></g><g id="elem_UC33"><ellipse cx="544.9863" cy="1068.8346" fill="#FFFFFF" rx="135.9863" ry="29.5973" style="stroke:#000000;stroke-width:1.0;"/><text fill="#000000" font-family="Verdana" font-size="14" lengthAdjust="spacing" textLength="240" x="424.9863" y="1072.4024">Gestisci Disconnessione Giocatore</text></g><g id="elem_UC34"><ellipse cx="545.2413" cy="1155.7856" fill="#FFFFFF" rx="100.7413" ry="22.5483" style="stroke:#000000;stroke-width:1.0;"/><text fill="#000000" font-family="Verdana" font-size="14" lengthAdjust="spacing" textLength="164" x="463.2413" y="1159.3534">Risolvi Conflitti di Stato</text></g><g id="elem_UC35"><ellipse cx="545.1764" cy="1236.8726" fill="#FFFFFF" rx="106.1764" ry="23.6353" style="stroke:#000000;stroke-width:1.0;"/><text fill="#000000" font-family="Verdana" font-size="14" lengthAdjust="spacing" textLength="176" x="457.1764" y="1240.4405">Trasmetti Eventi di Gioco</text></g><!--entity player--><g id="elem_player"><ellipse cx="61" cy="1605.7373" fill="#FFFFFF" rx="8" ry="8" style="stroke:#000000;stroke-width:1.0;"/><path d="M61,1613.7373 L61,1640.7373 M48,1621.7373 L74,1621.7373 M61,1640.7373 L48,1655.7373 M61,1640.7373 L74,1655.7373 " fill="none" style="stroke:#000000;stroke-width:1.0;"/><text fill="#000000" font-family="Verdana" font-size="14" lengthAdjust="spacing" textLength="67" x="27.5" y="1671.8125">Giocatore</text></g><!--entity system--><g id="elem_system"><ellipse cx="61" cy="637.7373" fill="#FFFFFF" rx="8" ry="8" style="stroke:#000000;stroke-width:1.0;"/><path d="M61,645.7373 L61,672.7373 M48,653.7373 L74,653.7373 M61,672.7373 L48,687.7373 M61,672.7373 L74,687.7373 " fill="none" style="stroke:#000000;stroke-width:1.0;"/><text fill="#000000" font-family="Verdana" font-size="14" lengthAdjust="spacing" textLength="100" x="11" y="703.8125">Sistema Gioco</text></g><!--entity physics--><g id="elem_physics"><ellipse cx="545" cy="833.7373" fill="#FFFFFF" rx="8" ry="8" style="stroke:#000000;stroke-width:1.0;"/><path d="M545,841.7373 L545,868.7373 M532,849.7373 L558,849.7373 M545,868.7373 L532,883.7373 M545,868.7373 L558,883.7373 " fill="none" style="stroke:#000000;stroke-width:1.0;"/><text fill="#000000" font-family="Verdana" font-size="14" lengthAdjust="spacing" textLength="92" x="499" y="899.8125">Motore Fisico</text></g><!--entity ai--><g id="elem_ai"><ellipse cx="61" cy="2231.7373" fill="#FFFFFF" rx="8" ry="8" style="stroke:#000000;stroke-width:1.0;"/><path d="M61,2239.7373 L61,2266.7373 M48,2247.7373 L74,2247.7373 M61,2266.7373 L48,2281.7373 M61,2266.7373 L74,2281.7373 " fill="none" style="stroke:#000000;stroke-width:1.0;"/><text fill="#000000" font-family="Verdana" font-size="14" lengthAdjust="spacing" textLength="76" x="23" y="2297.8125">Sistema AI</text></g><g id="elem_GMN85"><path d="M970,58.7373 L970,100.3359 L1147,100.3359 L1147,68.7373 L1137,58.7373 L970,58.7373 " fill="#FFFFFF" style="stroke:#000000;stroke-width:1.0;"/><path d="M1137,58.7373 L1137,68.7373 L1147,68.7373 L1137,58.7373 " fill="#FFFFFF" style="stroke:#000000;stroke-width:1.0;"/><text fill="#000000" font-family="Verdana" font-size="13" lengthAdjust="spacing" textLength="156" x="976" y="76.8071">"Loop di gioco a 60 FPS</text><text fill="#000000" font-family="Verdana" font-size="13" lengthAdjust="spacing" textLength="126" x="976" y="92.6064">con timestep fisso"</text></g><g id="elem_GMN88"><path d="M950,1301.7373 L950,1318.7373 L668.19,1322.7373 L950,1326.7373 L950,1343.3359 A0,0 0 0 0 950,1343.3359 L1167,1343.3359 A0,0 0 0 0 1167,1343.3359 L1167,1311.7373 L1157,1301.7373 L950,1301.7373 A0,0 0 0 0 950,1301.7373 " fill="#FFFFFF" style="stroke:#000000;stroke-width:1.0;"/><path d="M1157,1301.7373 L1157,1311.7373 L1167,1311.7373 L1157,1301.7373 " fill="#FFFFFF" style="stroke:#000000;stroke-width:1.0;"/><text fill="#000000" font-family="Verdana" font-size="13" lengthAdjust="spacing" textLength="196" x="956" y="1319.8071">"Sincronizzazione tempo reale</text><text fill="#000000" font-family="Verdana" font-size="13" lengthAdjust="spacing" textLength="158" x="956" y="1335.6064">per sessioni multiplayer"</text></g><g id="elem_GMN91"><path d="M419.5,1920.7373 L419.5,1962.3359 A0,0 0 0 0 419.5,1962.3359 L541,1962.3359 L545,2014.6473 L549,1962.3359 L670.5,1962.3359 A0,0 0 0 0 670.5,1962.3359 L670.5,1930.7373 L660.5,1920.7373 L419.5,1920.7373 A0,0 0 0 0 419.5,1920.7373 " fill="#FFFFFF" style="stroke:#000000;stroke-width:1.0;"/><path d="M660.5,1920.7373 L660.5,1930.7373 L670.5,1930.7373 L660.5,1920.7373 " fill="#FFFFFF" style="stroke:#000000;stroke-width:1.0;"/><text fill="#000000" font-family="Verdana" font-size="13" lengthAdjust="spacing" textLength="142" x="425.5" y="1938.8071">"Nemici AI con diversi</text><text fill="#000000" font-family="Verdana" font-size="13" lengthAdjust="spacing" textLength="230" x="425.5" y="1954.6064">livelli di difficolt&#224; e comportamenti"</text></g><!--link player to UC7--><g id="link_player_UC7"><path d="M94.75,1633.4973 C164.57,1628.7173 324.594,1617.7568 434.084,1610.2668 " fill="none" id="player-to-UC7" style="stroke:#000000;stroke-width:1.0;"/><polygon fill="#000000" points="440.07,1609.8573,430.818,1606.4809,435.0817,1610.1985,431.364,1614.4622,440.07,1609.8573" style="stroke:#000000;stroke-width:1.0;"/><text fill="#000000" font-family="Verdana" font-size="13" lengthAdjust="spacing" textLength="199" x="159.5" y="1611.8071">muove tank con WASD/frecce</text></g><!--link player to UC8--><g id="link_player_UC8"><path d="M94.76,1645.5473 C108.87,1649.3673 125.61,1653.3973 141,1655.7373 C261.36,1674.0773 397.9801,1677.6263 477.2001,1678.0363 " fill="none" id="player-to-UC8" style="stroke:#000000;stroke-width:1.0;"/><polygon fill="#000000" points="483.2,1678.0673,474.2208,1674.0208,478.2001,1678.0414,474.1794,1682.0207,483.2,1678.0673" style="stroke:#000000;stroke-width:1.0;"/><text fill="#000000" font-family="Verdana" font-size="13" lengthAdjust="spacing" textLength="103" x="207.5" y="1652.8071">mira con mouse</text></g><!--link player to UC9--><g id="link_player_UC9"><path d="M94.85,1670.0473 C108.05,1681.7473 124.13,1693.6573 141,1700.7373 C253.4,1747.9173 392.244,1751.1455 474.134,1748.1655 " fill="none" id="player-to-UC9" style="stroke:#000000;stroke-width:1.0;"/><polygon fill="#000000" points="480.13,1747.9473,470.9905,1744.2772,475.1333,1748.1291,471.2814,1752.272,480.13,1747.9473" style="stroke:#000000;stroke-width:1.0;"/><text fill="#000000" font-family="Verdana" font-size="13" lengthAdjust="spacing" textLength="146" x="186" y="1697.8071">spara con click/spazio</text></g><!--link player to UC10--><g id="link_player_UC10"><path d="M73.49,1674.9673 C85.06,1706.9473 106.26,1750.3673 141,1772.7373 C247.82,1841.5273 398.7537,1833.4183 481.7537,1822.2383 " fill="none" id="player-to-UC10" style="stroke:#000000;stroke-width:1.0;"/><polygon fill="#000000" points="487.7,1821.4373,478.2466,1818.6745,482.7448,1822.1048,479.3145,1826.6029,487.7,1821.4373" style="stroke:#000000;stroke-width:1.0;"/><text fill="#000000" font-family="Verdana" font-size="13" lengthAdjust="spacing" textLength="136" x="191" y="1769.8071">cicla attraverso armi</text></g><!--link player to UC11--><g id="link_player_UC11"><path d="M76.87,1596.6673 C89.59,1568.7373 110.69,1532.6973 141,1512.7373 C237.85,1448.9673 369.3807,1439.2232 456.1107,1440.5832 " fill="none" id="player-to-UC11" style="stroke:#000000;stroke-width:1.0;"/><polygon fill="#000000" points="462.11,1440.6773,453.1738,1436.5367,457.1106,1440.5989,453.0484,1444.5357,462.11,1440.6773" style="stroke:#000000;stroke-width:1.0;"/><text fill="#000000" font-family="Verdana" font-size="13" lengthAdjust="spacing" textLength="117" x="200.5" y="1441.8071">attiva abilit&#224; tank</text></g><!--link player to UC12--><g id="link_player_UC12"><path d="M94.52,1613.2373 C108.3,1604.6673 124.88,1595.5673 141,1589.7373 C245.25,1552.0073 366.3944,1535.5479 449.6344,1528.0179 " fill="none" id="player-to-UC12" style="stroke:#000000;stroke-width:1.0;"/><polygon fill="#000000" points="455.61,1527.4773,446.2862,1524.3044,450.6303,1527.9278,447.007,1532.2719,455.61,1527.4773" style="stroke:#000000;stroke-width:1.0;"/><text fill="#000000" font-family="Verdana" font-size="13" lengthAdjust="spacing" textLength="184" x="167" y="1534.8071">monitora campo di battaglia</text></g><!--link system to UC1--><g id="link_system_UC1"><path d="M63.71,628.6173 C68.67,534.0673 86.41,297.0173 141,243.7373 C220.88,165.7773 349.0248,158.7155 440.4148,165.1555 " fill="none" id="system-to-UC1" style="stroke:#000000;stroke-width:1.0;"/><polygon fill="#000000" points="446.4,165.5773,437.7034,160.9546,441.4124,165.2258,437.1411,168.9348,446.4,165.5773" style="stroke:#000000;stroke-width:1.0;"/><text fill="#000000" font-family="Verdana" font-size="13" lengthAdjust="spacing" textLength="126" x="196" y="161.8071">inizia nuova partita</text></g><!--link system to UC2--><g id="link_system_UC2"><path d="M97.8,628.4073 C110.36,616.8173 125.29,605.2473 141,597.7373 C141.59,597.4573 889.56,472.2273 890,471.7373 C906.93,453.1073 885.97,380.8473 898,358.7373 C923.67,311.5573 971.3865,280.2657 1009.2665,260.7457 " fill="none" id="system-to-UC2" style="stroke:#000000;stroke-width:1.0;"/><polygon fill="#000000" points="1014.6,257.9973,1004.7675,258.5643,1010.1554,260.2876,1008.432,265.6756,1014.6,257.9973" style="stroke:#000000;stroke-width:1.0;"/><text fill="#000000" font-family="Verdana" font-size="13" lengthAdjust="spacing" textLength="167" x="461.5" y="501.8071">carica mappa selezionata</text></g><!--link system to UC3--><g id="link_system_UC3"><path d="M111.33,649.3873 C121.07,646.1873 131.29,643.1273 141,640.7373 C468.44,560.1973 579.9,652.1873 890,519.7373 C947.57,495.1473 1000.0384,451.8912 1030.4384,424.2812 " fill="none" id="system-to-UC3" style="stroke:#000000;stroke-width:1.0;"/><polygon fill="#000000" points="1034.88,420.2473,1025.5284,423.3372,1031.1787,423.6089,1030.9069,429.2592,1034.88,420.2473" style="stroke:#000000;stroke-width:1.0;"/><text fill="#000000" font-family="Verdana" font-size="13" lengthAdjust="spacing" textLength="195" x="447.5" y="578.8071">posiziona tank ai punti spawn</text></g><!--link system to UC4--><g id="link_system_UC4"><path d="M65.51,628.7173 C73.64,547.4473 96.56,364.1673 141,322.7373 C185.48,281.2673 345.6764,267.3653 450.2464,262.5153 " fill="none" id="system-to-UC4" style="stroke:#000000;stroke-width:1.0;"/><polygon fill="#000000" points="456.24,262.2373,447.0643,258.6586,451.2454,262.469,447.435,266.65,456.24,262.2373" style="stroke:#000000;stroke-width:1.0;"/><text fill="#000000" font-family="Verdana" font-size="13" lengthAdjust="spacing" textLength="171" x="173.5" y="265.8071">inizia loop principale gioco</text></g><!--link system to UC5--><g id="link_system_UC5"><path d="M61.21,628.3573 C62.34,568.8973 73.94,456.9973 141,398.7373 C183.77,361.5773 324.9172,348.121 428.9972,343.021 " fill="none" id="system-to-UC5" style="stroke:#000000;stroke-width:1.0;"/><polygon fill="#000000" points="434.99,342.7273,425.805,339.1726,429.996,342.972,426.1966,347.163,434.99,342.7273" style="stroke:#000000;stroke-width:1.0;"/><text fill="#000000" font-family="Verdana" font-size="13" lengthAdjust="spacing" textLength="224" x="147" y="344.8071">attiva quando obiettivi completati</text></g><!--link system to UC6--><g id="link_system_UC6"><path d="M65.66,628.6973 C72.25,582.3673 90.53,506.5273 141,467.7373 C188.05,431.5673 341.761,422.7555 445.431,420.8855 " fill="none" id="system-to-UC6" style="stroke:#000000;stroke-width:1.0;"/><polygon fill="#000000" points="451.43,420.7773,442.3593,416.9403,446.4308,420.8675,442.5036,424.939,451.43,420.7773" style="stroke:#000000;stroke-width:1.0;"/><text fill="#000000" font-family="Verdana" font-size="13" lengthAdjust="spacing" textLength="153" x="182.5" y="420.8071">registra risultati partita</text></g><!--link system to UC13--><g id="link_system_UC13"><path d="M111.05,667.7073 C239.24,667.3573 594.73,664.6173 890,645.7373 C912.02,644.3273 929.6489,642.8653 951.9889,640.6653 " fill="none" id="system-to-UC13" style="stroke:#000000;stroke-width:1.0;"/><polygon fill="#000000" points="957.96,640.0773,948.6113,636.9786,952.9841,640.5673,949.3953,644.9401,957.96,640.0773" style="stroke:#000000;stroke-width:1.0;"/><text fill="#000000" font-family="Verdana" font-size="13" lengthAdjust="spacing" textLength="177" x="456.5" y="652.8071">renderizza frame per frame</text></g><!--link system to UC14--><g id="link_system_UC14"><path d="M111.28,673.0573 C121.11,674.0273 131.38,674.9773 141,675.7373 C249.28,684.3173 276.49,684.7673 385,689.7373 C584.7,698.8773 811.9224,705.9069 944.6124,709.6769 " fill="none" id="system-to-UC14" style="stroke:#000000;stroke-width:1.0;"/><polygon fill="#000000" points="950.61,709.8473,941.7272,705.5933,945.612,709.7053,941.5,713.5901,950.61,709.8473" style="stroke:#000000;stroke-width:1.0;"/><text fill="#000000" font-family="Verdana" font-size="13" lengthAdjust="spacing" textLength="211" x="439.5" y="686.8071">aggiorna tutte le entit&#224; di gioco</text></g><!--link system to UC31--><g id="link_system_UC31"><path d="M61.69,706.8673 C61.6,823.5973 67.72,1166.1273 141,1243.7373 C214.43,1321.4973 334.1613,1335.3738 425.7013,1333.4438 " fill="none" id="system-to-UC31" style="stroke:#000000;stroke-width:1.0;"/><polygon fill="#000000" points="431.7,1333.3173,422.6177,1329.5079,426.7011,1333.4227,422.7863,1337.5061,431.7,1333.3173" style="stroke:#000000;stroke-width:1.0;"/><text fill="#000000" font-family="Verdana" font-size="13" lengthAdjust="spacing" textLength="208" x="155" y="1240.8071">mantiene giocatori sincronizzati</text></g><!--link system to UC32--><g id="link_system_UC32"><path d="M78.63,707.0073 C92.12,735.1173 113.41,772.3373 141,797.7373 C236.72,885.8773 376.5831,935.4663 464.0731,960.0163 " fill="none" id="system-to-UC32" style="stroke:#000000;stroke-width:1.0;"/><polygon fill="#000000" points="469.85,961.6373,462.2654,955.3545,465.0359,960.2865,460.104,963.057,469.85,961.6373" style="stroke:#000000;stroke-width:1.0;"/><text fill="#000000" font-family="Verdana" font-size="13" lengthAdjust="spacing" textLength="164" x="177" y="794.8071">mantiene stato coerente</text></g><!--link system to UC33--><g id="link_system_UC33"><path d="M61.2,706.8573 C62.14,768.6373 73.29,888.7373 141,956.7373 C182.25,998.1573 325.1089,1030.6926 429.8389,1049.9426 " fill="none" id="system-to-UC33" style="stroke:#000000;stroke-width:1.0;"/><polygon fill="#000000" points="435.74,1051.0273,427.6114,1045.4662,430.8224,1050.1234,426.1652,1053.3344,435.74,1051.0273" style="stroke:#000000;stroke-width:1.0;"/><text fill="#000000" font-family="Verdana" font-size="13" lengthAdjust="spacing" textLength="162" x="178" y="953.8071">gestisce problemi di rete</text></g><!--link system to UC34--><g id="link_system_UC34"><path d="M64.54,706.9473 C71.16,796.4973 91.92,1012.1873 141,1062.7373 C163.51,1085.9173 347.6922,1121.4294 458.5822,1141.0994 " fill="none" id="system-to-UC34" style="stroke:#000000;stroke-width:1.0;"/><polygon fill="#000000" points="464.49,1142.1473,456.327,1136.6369,459.5669,1141.274,454.9297,1144.5139,464.49,1142.1473" style="stroke:#000000;stroke-width:1.0;"/><text fill="#000000" font-family="Verdana" font-size="13" lengthAdjust="spacing" textLength="143" x="187.5" y="1059.8071">risolve conflitti di dati</text></g><!--link system to UC35--><g id="link_system_UC35"><path d="M62.93,706.9673 C66.19,810.2473 80.52,1086.1373 141,1149.7373 C182.13,1192.9773 334.6945,1216.1552 440.2345,1227.5152 " fill="none" id="system-to-UC35" style="stroke:#000000;stroke-width:1.0;"/><polygon fill="#000000" points="446.2,1228.1573,437.6798,1223.2171,441.2287,1227.6222,436.8236,1231.1712,446.2,1228.1573" style="stroke:#000000;stroke-width:1.0;"/><text fill="#000000" font-family="Verdana" font-size="13" lengthAdjust="spacing" textLength="234" x="142" y="1146.8071">notifica tutti i giocatori degli eventi</text></g><!--link physics to UC15--><g id="link_physics_UC15"><path d="M591.39,863.7373 C678.19,863.7373 862.7,863.7373 971.38,863.7373 " fill="none" id="physics-to-UC15" style="stroke:#000000;stroke-width:1.0;"/><polygon fill="#000000" points="977.38,863.7373,968.38,859.7373,972.38,863.7373,968.38,867.7373,977.38,863.7373" style="stroke:#000000;stroke-width:1.0;"/><text fill="#000000" font-family="Verdana" font-size="13" lengthAdjust="spacing" textLength="146" x="728.5" y="860.8071">rileva collisioni oggetti</text></g><!--link physics to UC16--><g id="link_physics_UC16"><path d="M591.34,870.6873 C624.92,875.7973 671.79,882.8373 713,888.7373 C809.06,902.4773 914.3627,916.704 983.8627,925.974 " fill="none" id="physics-to-UC16" style="stroke:#000000;stroke-width:1.0;"/><polygon fill="#000000" points="989.81,926.7673,981.4178,921.6125,984.8539,926.1063,980.3602,929.5423,989.81,926.7673" style="stroke:#000000;stroke-width:1.0;"/><text fill="#000000" font-family="Verdana" font-size="13" lengthAdjust="spacing" textLength="175" x="714" y="885.8071">calcola traiettorie proiettili</text></g><!--link physics to UC17--><g id="link_physics_UC17"><path d="M591.01,857.2473 C624.62,852.4073 671.68,845.6473 713,839.7373 C808.09,826.1473 912.0095,811.3805 981.6195,801.5005 " fill="none" id="physics-to-UC17" style="stroke:#000000;stroke-width:1.0;"/><polygon fill="#000000" points="987.56,800.6573,978.0872,797.9617,982.6096,801.3599,979.2114,805.8823,987.56,800.6573" style="stroke:#000000;stroke-width:1.0;"/><text fill="#000000" font-family="Verdana" font-size="13" lengthAdjust="spacing" textLength="124" x="739.5" y="812.8071">elabora distruzione</text></g><!--link ai to UC25--><g id="link_ai_UC25"><path d="M74.24,2222.4673 C86.18,2190.8473 107.49,2147.8273 141,2123.7373 C219.62,2067.2073 322.1924,2048.5228 406.8324,2043.0728 " fill="none" id="ai-to-UC25" style="stroke:#000000;stroke-width:1.0;"/><polygon fill="#000000" points="412.82,2042.6873,403.5816,2039.2739,407.8303,2043.0086,404.0956,2047.2574,412.82,2042.6873" style="stroke:#000000;stroke-width:1.0;"/><text fill="#000000" font-family="Verdana" font-size="13" lengthAdjust="spacing" textLength="154" x="182" y="2044.8071">controlla unit&#224; nemiche</text></g><!--link ai to UC26--><g id="link_ai_UC26"><path d="M99.31,2267.0373 C198.66,2280.1473 477.54,2310.4073 705,2272.7373 C790.69,2258.5473 837.26,2278.7573 890,2209.7373 C907.3,2187.0873 879.58,2103.4873 898,2081.7373 C916.65,2059.7173 939.6557,2050.2971 967.7857,2045.7871 " fill="none" id="ai-to-UC26" style="stroke:#000000;stroke-width:1.0;"/><polygon fill="#000000" points="973.71,2044.8373,964.1903,2042.3125,968.773,2045.6288,965.4567,2050.2116,973.71,2044.8373" style="stroke:#000000;stroke-width:1.0;"/><text fill="#000000" font-family="Verdana" font-size="13" lengthAdjust="spacing" textLength="188" x="451" y="2269.8071">trova percorsi verso bersagli</text></g><!--link ai to UC27--><g id="link_ai_UC27"><path d="M99.3,2293.0573 C111.84,2302.0673 126.37,2311.0073 141,2316.7373 C374.83,2408.3173 454.91,2373.5273 705,2350.7373 C788.25,2343.1473 834.8,2379.5273 890,2316.7373 C912.04,2291.6673 877,2192.6873 898,2166.7373 C912.16,2149.2373 926.9009,2140.1772 948.4809,2133.5972 " fill="none" id="ai-to-UC27" style="stroke:#000000;stroke-width:1.0;"/><polygon fill="#000000" points="954.22,2131.8473,944.4447,2130.6461,949.4374,2133.3056,946.7779,2138.2983,954.22,2131.8473" style="stroke:#000000;stroke-width:1.0;"/><text fill="#000000" font-family="Verdana" font-size="13" lengthAdjust="spacing" textLength="168" x="461" y="2347.8071">seleziona bersagli ottimali</text></g><!--link ai to UC28--><g id="link_ai_UC28"><path d="M73.01,2300.9973 C84.41,2333.9773 105.63,2379.4973 141,2403.7373 C348.15,2545.6873 454.91,2460.5273 705,2437.7373 C788.25,2430.1473 817.4,2445.1973 890,2403.7373 C961.47,2362.9273 1014.2437,2285.0746 1039.5837,2242.4546 " fill="none" id="ai-to-UC28" style="stroke:#000000;stroke-width:1.0;"/><polygon fill="#000000" points="1042.65,2237.2973,1034.6123,2242.9891,1040.0947,2241.5951,1041.4887,2247.0775,1042.65,2237.2973" style="stroke:#000000;stroke-width:1.0;"/><text fill="#000000" font-family="Verdana" font-size="13" lengthAdjust="spacing" textLength="228" x="431" y="2434.8071">esegue manovre di combattimento</text></g><!--link ai to UC29--><g id="link_ai_UC29"><path d="M99.12,2231.6573 C111.76,2222.7273 126.41,2213.7473 141,2207.7373 C235.23,2168.9373 344.2235,2151.0208 427.2035,2142.2108 " fill="none" id="ai-to-UC29" style="stroke:#000000;stroke-width:1.0;"/><polygon fill="#000000" points="433.17,2141.5773,423.798,2138.5499,428.1979,2142.1052,424.6426,2146.5051,433.17,2141.5773" style="stroke:#000000;stroke-width:1.0;"/><text fill="#000000" font-family="Verdana" font-size="13" lengthAdjust="spacing" textLength="180" x="169" y="2145.8071">coordina tattiche di gruppo</text></g><!--link ai to UC30--><g id="link_ai_UC30"><path d="M99.02,2258.2773 C174.74,2251.2073 343.176,2235.485 449.766,2225.535 " fill="none" id="ai-to-UC30" style="stroke:#000000;stroke-width:1.0;"/><polygon fill="#000000" points="455.74,2224.9773,446.4072,2221.8311,450.7616,2225.442,447.1507,2229.7965,455.74,2224.9773" style="stroke:#000000;stroke-width:1.0;"/><text fill="#000000" font-family="Verdana" font-size="13" lengthAdjust="spacing" textLength="189" x="164.5" y="2229.8071">gestisce tempi spawn nemici</text></g><!--link UC1 to UC2--><g id="link_UC1_UC2"><path d="M647.06,190.5873 C742.41,201.7773 877.7509,217.6478 967.2009,228.1478 " fill="none" id="UC1-to-UC2" style="stroke:#000000;stroke-width:1.0;stroke-dasharray:7.0,7.0;"/><polygon fill="#000000" points="973.16,228.8473,964.6877,223.8253,968.1941,228.2644,963.755,231.7708,973.16,228.8473" style="stroke:#000000;stroke-width:1.0;"/><text fill="#000000" font-family="Verdana" font-size="13" lengthAdjust="spacing" textLength="53" x="775" y="197.8071">includes</text></g><!--link UC1 to UC3--><g id="link_UC1_UC3"><path d="M646.55,190.7373 C667.78,197.1873 688.67,206.9673 705,221.7373 C712.41,228.4373 706.16,235.4573 713,242.7373 C754.95,287.3373 912.9588,347.7314 998.7388,378.3314 " fill="none" id="UC1-to-UC3" style="stroke:#000000;stroke-width:1.0;stroke-dasharray:7.0,7.0;"/><polygon fill="#000000" points="1004.39,380.3473,997.2572,373.5559,999.6807,378.6674,994.5693,381.0909,1004.39,380.3473" style="stroke:#000000;stroke-width:1.0;"/><text fill="#000000" font-family="Verdana" font-size="13" lengthAdjust="spacing" textLength="53" x="775" y="239.8071">includes</text></g><!--link UC4 to UC13--><g id="link_UC4_UC13"><path d="M633.81,262.0073 C660.2,267.1273 686.92,277.5473 705,297.7373 C724.12,319.0973 698.81,336.8273 713,361.7373 C782.12,483.0373 925.1652,565.5308 1002.6852,603.6308 " fill="none" id="UC4-to-UC13" style="stroke:#000000;stroke-width:1.0;stroke-dasharray:7.0,7.0;"/><polygon fill="#000000" points="1008.07,606.2773,1001.7572,598.7176,1003.5827,604.0719,998.2285,605.8973,1008.07,606.2773" style="stroke:#000000;stroke-width:1.0;"/><text fill="#000000" font-family="Verdana" font-size="13" lengthAdjust="spacing" textLength="53" x="775" y="358.8071">includes</text></g><!--link UC4 to UC14--><g id="link_UC4_UC14"><path d="M634.12,260.8773 C660.86,265.8673 687.71,276.4973 705,297.7373 C723.46,320.4073 698.16,535.5473 713,560.7373 C764.43,648.0373 873.9763,684.223 957.0663,700.073 " fill="none" id="UC4-to-UC14" style="stroke:#000000;stroke-width:1.0;stroke-dasharray:7.0,7.0;"/><polygon fill="#000000" points="962.96,701.1973,954.8689,695.5817,958.0486,700.2604,953.3699,703.4401,962.96,701.1973" style="stroke:#000000;stroke-width:1.0;"/><text fill="#000000" font-family="Verdana" font-size="13" lengthAdjust="spacing" textLength="53" x="775" y="557.8071">includes</text></g><!--link UC9 to UC19--><g id="link_UC9_UC19"><path d="M612.08,1743.7373 C702.96,1743.7373 860.78,1743.7373 962.41,1743.7373 " fill="none" id="UC9-to-UC19" style="stroke:#000000;stroke-width:1.0;stroke-dasharray:7.0,7.0;"/><polygon fill="#000000" points="968.41,1743.7373,959.41,1739.7373,963.41,1743.7373,959.41,1747.7373,968.41,1743.7373" style="stroke:#000000;stroke-width:1.0;"/><text fill="#000000" font-family="Verdana" font-size="13" lengthAdjust="spacing" textLength="50" x="776.5" y="1740.8071">triggers</text></g><!--link UC19 to UC20--><g id="link_UC19_UC20"><path d="M1148.75,1744.4873 C1197.7,1744.9073 1252.6702,1745.367 1303.9102,1745.797 " fill="none" id="UC19-to-UC20" style="stroke:#000000;stroke-width:1.0;stroke-dasharray:7.0,7.0;"/><polygon fill="#000000" points="1309.91,1745.8473,1300.9439,1741.7719,1304.9102,1745.8053,1300.8768,1749.7716,1309.91,1745.8473" style="stroke:#000000;stroke-width:1.0;"/><text fill="#000000" font-family="Verdana" font-size="13" lengthAdjust="spacing" textLength="53" x="1226" y="1742.8071">includes</text></g><!--link UC20 to UC21--><g id="link_UC20_UC21"><path d="M1522.08,1746.7373 C1564.17,1746.7373 1606.59,1746.7373 1648.78,1746.7373 " fill="none" id="UC20-to-UC21" style="stroke:#000000;stroke-width:1.0;stroke-dasharray:7.0,7.0;"/><polygon fill="#000000" points="1654.78,1746.7373,1645.78,1742.7373,1649.78,1746.7373,1645.78,1750.7373,1654.78,1746.7373" style="stroke:#000000;stroke-width:1.0;"/><text fill="#000000" font-family="Verdana" font-size="13" lengthAdjust="spacing" textLength="71" x="1553" y="1743.8071">may cause</text></g><!--link UC21 to UC22--><g id="link_UC21_UC22"><path d="M1869.36,1746.7373 C1913.48,1746.7373 1958,1746.7373 1999.75,1746.7373 " fill="none" id="UC21-to-UC22" style="stroke:#000000;stroke-width:1.0;stroke-dasharray:7.0,7.0;"/><polygon fill="#000000" points="2005.75,1746.7373,1996.75,1742.7373,2000.75,1746.7373,1996.75,1750.7373,2005.75,1746.7373" style="stroke:#000000;stroke-width:1.0;"/><text fill="#000000" font-family="Verdana" font-size="13" lengthAdjust="spacing" textLength="75" x="1900" y="1743.8071">may trigger</text></g><!--link UC25 to UC26--><g id="link_UC25_UC26"><path d="M677.06,2043.9973 C770.45,2044.1773 887.2,2044.4054 967.67,2044.5654 " fill="none" id="UC25-to-UC26" style="stroke:#000000;stroke-width:1.0;stroke-dasharray:7.0,7.0;"/><polygon fill="#000000" points="973.67,2044.5773,964.678,2040.5594,968.67,2044.5674,964.6621,2048.5594,973.67,2044.5773" style="stroke:#000000;stroke-width:1.0;"/><text fill="#000000" font-family="Verdana" font-size="13" lengthAdjust="spacing" textLength="53" x="775" y="2041.8071">includes</text></g><!--link UC25 to UC27--><g id="link_UC25_UC27"><path d="M652.92,2060.4573 C746.19,2075.0473 874.052,2095.0504 961.862,2108.7804 " fill="none" id="UC25-to-UC27" style="stroke:#000000;stroke-width:1.0;stroke-dasharray:7.0,7.0;"/><polygon fill="#000000" points="967.79,2109.7073,959.516,2104.365,962.85,2108.9349,958.2801,2112.2689,967.79,2109.7073" style="stroke:#000000;stroke-width:1.0;"/><text fill="#000000" font-family="Verdana" font-size="13" lengthAdjust="spacing" textLength="53" x="775" y="2069.8071">includes</text></g><!--link UC25 to UC28--><g id="link_UC25_UC28"><path d="M656.5,2059.5073 C674.56,2066.3373 691.69,2076.0273 705,2089.7373 C714.91,2099.9473 702.95,2110.6573 713,2120.7373 C771.92,2179.8373 858.5296,2201.0323 932.8896,2208.4423 " fill="none" id="UC25-to-UC28" style="stroke:#000000;stroke-width:1.0;stroke-dasharray:7.0,7.0;"/><polygon fill="#000000" points="938.86,2209.0373,930.301,2204.1646,933.8846,2208.5415,929.5077,2212.1252,938.86,2209.0373" style="stroke:#000000;stroke-width:1.0;"/><text fill="#000000" font-family="Verdana" font-size="13" lengthAdjust="spacing" textLength="53" x="775" y="2117.8071">includes</text></g><!--link UC4 to GMN85--><g id="link_UC4_GMN85"><path d="M633.24,256.9473 C659.6,251.7973 686.44,241.4873 705,221.7373 C719.21,206.6173 699.08,191.1273 713,175.7373 C777.79,104.1573 890.97,84.1173 969.86,79.4073 " fill="none" id="UC4-GMN85" style="stroke:#000000;stroke-width:1.0;stroke-dasharray:7.0,7.0;"/></g><!--SRC=[TLV1RkCs4BthAzXSzfHTstASf8S2Rh9PBD0qGPoqbrp64YqF8f4gIRj85lsN_aj_h3CaPKkqdPCZFWw7RzwRaNvoQzb8qTQ0AiiSkbgAU-sqaQ94yGrreSMvk4Me33GDY5AYk06BelpqOdMMrNBbXDF2OBLsjCN8mg6cK51G47764O33dGcmVCoxDDtQ0gsJ5DEVujVjEp_frcCUTsWnhhVhT_fjqm3pxtuLCCjQADwWadImj9o850jfhVyHZ_cH2VhRM5c09TntXHy8DNvym1xQNTs7VRaP3xVSWC42n3sqBQJGoH3wJIffG3o3UXCT5HYX-R54n6zQjsdGwH3vB4s3wdIw5qFu0kejY2Uqczg1G_48XkeC4JpB_kcnrZ5wevKpkgwrw1KmOQx341DwYurK90E-Q0nyEKJV8_4mDqrtxbMIP0l3zUkKysQ90y1uD4IyM5fUOetklt_5efK5LxN39XNyWyY8DRz7XGrNieDEZX9ohrMfUqGdN3n9LKeJ0YR843KfzhogK1kguKDLIKT5IV7JL4UaPbkGzuXmvAhlhdPn0lbeD7BeFGcp8VAMhcOsb8Xui0uAlGTUdj14imGAw2jzmC3N6fQQIdWBIcckqovQKibvszPidm045BzAOw7QdJuPdRXGoFV3AxwdiqbIsoUiWkc6hOU0YJUV3HGa4h5WLz0PnLgcTmpxyXC9TSIGmJPkTyhqA7c_omPf2tUgapQYmrjj70GhXHrTrAJAZ-3MArGbgYe19aLUo5e6oZgQqyY9J-UCnY4HoOwhunVGuawJFSDfmntNHxlYWoh19T1ybD2d2aFvaB5YuILn99uar8SDgGSMZzfYkCb1snsVtiLIEF1kFZajo48hrPylVRtbUIfCg-ijKwjMrAM2wVs9tORfWK1juxl3rosLuQ19v1VCrIVnNJcYStXRcOLPAyxFV-5cB7uMpKPlfN0yYYXjyUTySVjbHVEwIB1NZELkpQX6Kph3zMjQjxvTCw0WCxzzeV_f_25kF29WWGKfcvHaO4i29CDJPqXmOyAnrcXAGTV0ESq4Dk6yw8wEsqm1h0CYX5NAieQKYUYyBBnJT44e1eP1guWE46qOXaCKdrI48Uz7Wx3HHP0YSqAsKMeGkAMErcwuMiJ9tse8d-wFhtdEjuR4Xos9MLHSs27wOi_BNnlWgQANlgMJY0hg5RNapZNSCwCzHbRSAe5UohgPV_IQuzo3TvDhHQzuz2f8ZFjV2PXpXsvikOqZvrBQh4kk5rNYo0rovhi1mf3ZFS0xKTYzvz8Bv9F-5kiDMMX9QReaevpJhu8PAMsZbpLr4ix4o0CiPs-y0INBTc_0yZ03vbrfXoiM0DyK1VQIBoN9JKXloLHqWrVMBBwkTWnU-1ngkMNdT6DSwF06a89dNeCr0Ia70rntEjpVCuxrT0TxNCOfNEvdvGbVq2ZAIAfHy9nQiHj46-LhghWnhsKFnaaHXdqZJQ4DVGS4Lo_ZSEbXEPsTRtO0eNcem0393KTQMMqa5rvlmxT7qPz0FVIrJrMR4htZN1ZSh3-pQTiUCX_rzK5tRgCdmyLyxPw8CFvCi6jiRSRzuVFdhWEGHkjDAVkFy-7ZQNmyFlLyEdn-tJs_zZmYLTxuyDt2P3JSGF_7XM2aTv84zsF_8AvCuagCb_bgnhLP4cwtS7bguQg_a94BPFoqqwlOlywwBnJlTm5YDX9tZujNnTE0oqNoQiKAhTLd1m5yGpYSwivFTSDJ_LLn0x9Xg28DhTfXc0Cnsf8Kf9iGpklsRFTkvGTIYIn9V5Kr_I2NUPFZYioiQrQrzBspUy_2i-n_]--></g></svg>