<?xml version="1.0" encoding="us-ascii" standalone="no"?><svg xmlns="http://www.w3.org/2000/svg" xmlns:xlink="http://www.w3.org/1999/xlink" contentStyleType="text/css" height="2359px" preserveAspectRatio="none" style="width:918px;height:2359px;background:#FFFFFF;" version="1.1" viewBox="0 0 918 2359" width="918px" zoomAndPan="magnify"><defs/><g><text fill="#000000" font-family="Verdana" font-size="22" font-weight="bold" lengthAdjust="spacing" textLength="885" x="15" y="37.1182">Motore di Gioco - Diagramma delle Attivit&#224; (Flusso Esecuzione Partita)</text><ellipse cx="450" cy="62.7373" fill="#FFFFFF" rx="10" ry="10" style="stroke:#000000;stroke-width:1.0;"/><rect fill="#FFFFFF" height="34.584" rx="12.5" ry="12.5" style="stroke:#000000;stroke-width:1.0;" width="241" x="329.5" y="92.7373"/><text fill="#000000" font-family="Verdana" font-size="12" lengthAdjust="spacing" textLength="221" x="339.5" y="114.8018">Richiesta creazione partita ricevuta</text><rect fill="#FFFFFF" height="34.584" rx="12.5" ry="12.5" style="stroke:#000000;stroke-width:1.0;" width="169" x="365.5" y="147.3213"/><text fill="#000000" font-family="Verdana" font-size="12" lengthAdjust="spacing" textLength="149" x="375.5" y="169.3857">Valida parametri partita</text><rect fill="#FFFFFF" height="34.584" rx="12.5" ry="12.5" style="stroke:#000000;stroke-width:1.0;" width="181" x="359.5" y="201.9053"/><text fill="#000000" font-family="Verdana" font-size="12" lengthAdjust="spacing" textLength="161" x="369.5" y="223.9697">Inizializza mondo di gioco</text><rect fill="#000000" height="6" rx="2.5" ry="2.5" style="stroke:#000000;stroke-width:1.0;" width="736" x="82" y="256.4893"/><rect fill="#FFFFFF" height="34.584" rx="12.5" ry="12.5" style="stroke:#000000;stroke-width:1.0;" width="211" x="96" y="282.4893"/><text fill="#000000" font-family="Verdana" font-size="12" lengthAdjust="spacing" textLength="191" x="106" y="304.5537">Carica dati mappa selezionata</text><rect fill="#FFFFFF" height="34.584" rx="12.5" ry="12.5" style="stroke:#000000;stroke-width:1.0;" width="207" x="335" y="282.4893"/><text fill="#000000" font-family="Verdana" font-size="12" lengthAdjust="spacing" textLength="187" x="345" y="304.5537">Valida configurazioni giocatori</text><rect fill="#FFFFFF" height="34.584" rx="12.5" ry="12.5" style="stroke:#000000;stroke-width:1.0;" width="234" x="570" y="282.4893"/><text fill="#000000" font-family="Verdana" font-size="12" lengthAdjust="spacing" textLength="214" x="580" y="304.5537">Configura connessioni WebSocket</text><rect fill="#000000" height="6" rx="2.5" ry="2.5" style="stroke:#000000;stroke-width:1.0;" width="736" x="82" y="337.0732"/><rect fill="#FFFFFF" height="34.584" rx="12.5" ry="12.5" style="stroke:#000000;stroke-width:1.0;" width="146" x="377" y="363.0732"/><text fill="#000000" font-family="Verdana" font-size="12" lengthAdjust="spacing" textLength="126" x="387" y="385.1377">Crea istanza partita</text><rect fill="#FFFFFF" height="34.584" rx="12.5" ry="12.5" style="stroke:#000000;stroke-width:1.0;" width="164" x="368" y="417.6572"/><text fill="#000000" font-family="Verdana" font-size="12" lengthAdjust="spacing" textLength="144" x="378" y="439.7217">Genera terreno mondo</text><rect fill="#FFFFFF" height="34.584" rx="12.5" ry="12.5" style="stroke:#000000;stroke-width:1.0;" width="187" x="356.5" y="472.2412"/><text fill="#000000" font-family="Verdana" font-size="12" lengthAdjust="spacing" textLength="167" x="366.5" y="494.3057">Posiziona ostacoli e nemici</text><rect fill="#FFFFFF" height="34.584" rx="12.5" ry="12.5" style="stroke:#000000;stroke-width:1.0;" width="222" x="339" y="526.8252"/><text fill="#000000" font-family="Verdana" font-size="12" lengthAdjust="spacing" textLength="202" x="349" y="548.8896">Inizializza punti spawn giocatori</text><rect fill="#FFFFFF" height="365.9346" style="stroke:#000000;stroke-width:1.0;" width="470" x="205.5" y="571.4092"/><path d="M320.5,571.4092 L320.5,581.4238 L310.5,591.4238 L205.5,591.4238 " fill="none" style="stroke:#000000;stroke-width:1.0;"/><text fill="#000000" font-family="Verdana" font-size="14" lengthAdjust="spacing" textLength="105" x="208.5" y="586.4844">Fase Pre-Gioco</text><rect fill="#FFFFFF" height="34.584" rx="12.5" ry="12.5" style="stroke:#000000;stroke-width:1.0;" width="258" x="321" y="608.4238"/><text fill="#000000" font-family="Verdana" font-size="12" lengthAdjust="spacing" textLength="238" x="331" y="630.4883">Attendi connessione di tutti i giocatori</text><rect fill="#FFFFFF" height="34.584" rx="12.5" ry="12.5" style="stroke:#000000;stroke-width:1.0;" width="182" x="359" y="663.0078"/><text fill="#000000" font-family="Verdana" font-size="12" lengthAdjust="spacing" textLength="162" x="369" y="685.0723">Invia stato mondo iniziale</text><rect fill="#FFFFFF" height="34.584" rx="12.5" ry="12.5" style="stroke:#000000;stroke-width:1.0;" width="207" x="346.5" y="717.5918"/><text fill="#000000" font-family="Verdana" font-size="12" lengthAdjust="spacing" textLength="187" x="356.5" y="739.6563">Conferma prontezza giocatori</text><polygon fill="#FFFFFF" points="386,772.1758,514,772.1758,526,784.1758,514,796.1758,386,796.1758,374,784.1758,386,772.1758" style="stroke:#000000;stroke-width:1.0;"/><text fill="#000000" font-family="Verdana" font-size="11" lengthAdjust="spacing" textLength="128" x="386" y="788.5505">Tutti i giocatori pronti?</text><text fill="#000000" font-family="Verdana" font-size="11" lengthAdjust="spacing" textLength="9" x="365" y="781.8662">s&#236;</text><text fill="#000000" font-family="Verdana" font-size="11" lengthAdjust="spacing" textLength="14" x="526" y="781.8662">no</text><rect fill="#FFFFFF" height="34.584" rx="12.5" ry="12.5" style="stroke:#000000;stroke-width:1.0;" width="210" x="232.5" y="806.1758"/><text fill="#000000" font-family="Verdana" font-size="12" lengthAdjust="spacing" textLength="190" x="242.5" y="828.2402">Avvia timer conto alla rovescia</text><rect fill="#FFFFFF" height="34.584" rx="12.5" ry="12.5" style="stroke:#000000;stroke-width:1.0;" width="224" x="225.5" y="860.7598"/><text fill="#000000" font-family="Verdana" font-size="12" lengthAdjust="spacing" textLength="204" x="235.5" y="882.8242">Invia conto alla rovescia ai client</text><rect fill="#FFFFFF" height="34.584" rx="12.5" ry="12.5" style="stroke:#000000;stroke-width:1.0;" width="186" x="469.5" y="806.1758"/><text fill="#000000" font-family="Verdana" font-size="12" lengthAdjust="spacing" textLength="166" x="479.5" y="828.2402">Attendi giocatori rimanenti</text><polygon fill="#FFFFFF" points="450,901.3438,462,913.3438,450,925.3438,438,913.3438,450,901.3438" style="stroke:#000000;stroke-width:1.0;"/><rect fill="#FFFFFF" height="748.4785" style="stroke:#000000;stroke-width:1.0;" width="811" x="53.5" y="947.3438"/><path d="M156.5,947.3438 L156.5,957.3584 L146.5,967.3584 L53.5,967.3584 " fill="none" style="stroke:#000000;stroke-width:1.0;"/><text fill="#000000" font-family="Verdana" font-size="14" lengthAdjust="spacing" textLength="93" x="56.5" y="962.4189">Ciclo di Gioco</text><rect fill="#FFFFFF" height="34.584" rx="12.5" ry="12.5" style="stroke:#000000;stroke-width:1.0;" width="199" x="350.5" y="984.3584"/><text fill="#000000" font-family="Verdana" font-size="12" lengthAdjust="spacing" textLength="179" x="360.5" y="1006.4229">Avvia ciclo di gioco principale</text><rect fill="#FFFFFF" height="34.584" rx="12.5" ry="12.5" style="stroke:#000000;stroke-width:1.0;" width="171" x="364.5" y="1082.9424"/><text fill="#000000" font-family="Verdana" font-size="12" lengthAdjust="spacing" textLength="151" x="374.5" y="1105.0068">Processa input giocatori</text><rect fill="#000000" height="6" rx="2.5" ry="2.5" style="stroke:#000000;stroke-width:1.0;" width="771" x="65.5" y="1137.5264"/><rect fill="#FFFFFF" height="34.584" rx="12.5" ry="12.5" style="stroke:#000000;stroke-width:1.0;" width="166" x="77.5" y="1163.5264"/><text fill="#000000" font-family="Verdana" font-size="12" lengthAdjust="spacing" textLength="146" x="87.5" y="1185.5908">Aggiorna posizioni carri</text><rect fill="#FFFFFF" height="34.584" rx="12.5" ry="12.5" style="stroke:#000000;stroke-width:1.0;" width="148" x="271.5" y="1163.5264"/><text fill="#000000" font-family="Verdana" font-size="12" lengthAdjust="spacing" textLength="128" x="281.5" y="1185.5908">Processa sparo armi</text><rect fill="#FFFFFF" height="34.584" rx="12.5" ry="12.5" style="stroke:#000000;stroke-width:1.0;" width="136" x="447.5" y="1163.5264"/><text fill="#000000" font-family="Verdana" font-size="12" lengthAdjust="spacing" textLength="116" x="457.5" y="1185.5908">Aggiorna IA nemici</text><rect fill="#FFFFFF" height="34.584" rx="12.5" ry="12.5" style="stroke:#000000;stroke-width:1.0;" width="211" x="611.5" y="1163.5264"/><text fill="#000000" font-family="Verdana" font-size="12" lengthAdjust="spacing" textLength="191" x="621.5" y="1185.5908">Controlla rilevamento collisioni</text><rect fill="#000000" height="6" rx="2.5" ry="2.5" style="stroke:#000000;stroke-width:1.0;" width="771" x="65.5" y="1218.1104"/><rect fill="#FFFFFF" height="34.584" rx="12.5" ry="12.5" style="stroke:#000000;stroke-width:1.0;" width="151" x="374.5" y="1244.1104"/><text fill="#000000" font-family="Verdana" font-size="12" lengthAdjust="spacing" textLength="131" x="384.5" y="1266.1748">Applica fisica di gioco</text><rect fill="#FFFFFF" height="34.584" rx="12.5" ry="12.5" style="stroke:#000000;stroke-width:1.0;" width="160" x="370" y="1298.6943"/><text fill="#000000" font-family="Verdana" font-size="12" lengthAdjust="spacing" textLength="140" x="380" y="1320.7588">Aggiorna stato mondo</text><rect fill="#FFFFFF" height="34.584" rx="12.5" ry="12.5" style="stroke:#000000;stroke-width:1.0;" width="250" x="325" y="1364.386"/><text fill="#000000" font-family="Verdana" font-size="12" lengthAdjust="spacing" textLength="230" x="335" y="1386.4504">Controlla condizioni vittoria/sconfitta</text><polygon fill="#FFFFFF" points="399,1418.97,501,1418.97,513,1430.97,501,1442.97,399,1442.97,387,1430.97,399,1418.97" style="stroke:#000000;stroke-width:1.0;"/><text fill="#000000" font-family="Verdana" font-size="11" lengthAdjust="spacing" textLength="9" x="454" y="1454.0291">s&#236;</text><text fill="#000000" font-family="Verdana" font-size="11" lengthAdjust="spacing" textLength="102" x="399" y="1435.3447">Partita terminata?</text><rect fill="#FFFFFF" height="34.584" rx="12.5" ry="12.5" style="stroke:#000000;stroke-width:1.0;" width="189" x="355.5" y="1506.6543"/><text fill="#000000" font-family="Verdana" font-size="12" lengthAdjust="spacing" textLength="169" x="365.5" y="1528.7188">Trasmetti stato ai giocatori</text><rect fill="#FFFFFF" height="34.584" rx="12.5" ry="12.5" style="stroke:#000000;stroke-width:1.0;" width="139" x="380.5" y="1561.2383"/><text fill="#000000" font-family="Verdana" font-size="12" lengthAdjust="spacing" textLength="119" x="390.5" y="1583.3027">Limita a FPS target</text><polygon fill="#FFFFFF" points="450,1038.9424,462,1050.9424,450,1062.9424,438,1050.9424,450,1038.9424" style="stroke:#000000;stroke-width:1.0;"/><polygon fill="#FFFFFF" points="410.5,1615.8223,489.5,1615.8223,501.5,1627.8223,489.5,1639.8223,410.5,1639.8223,398.5,1627.8223,410.5,1615.8223" style="stroke:#000000;stroke-width:1.0;"/><text fill="#000000" font-family="Verdana" font-size="11" lengthAdjust="spacing" textLength="79" x="410.5" y="1632.197">Partita attiva?</text><polygon fill="#FFFFFF" points="450,1659.8223,462,1671.8223,450,1683.8223,438,1671.8223,450,1659.8223" style="stroke:#000000;stroke-width:1.0;"/><rect fill="#FFFFFF" height="463.1025" style="stroke:#000000;stroke-width:1.0;" width="622" x="139" y="1705.8223"/><path d="M263,1705.8223 L263,1715.8369 L253,1725.8369 L139,1725.8369 " fill="none" style="stroke:#000000;stroke-width:1.0;"/><text fill="#000000" font-family="Verdana" font-size="14" lengthAdjust="spacing" textLength="114" x="142" y="1720.8975">Fase Post-Gioco</text><rect fill="#FFFFFF" height="34.584" rx="12.5" ry="12.5" style="stroke:#000000;stroke-width:1.0;" width="158" x="371" y="1742.8369"/><text fill="#000000" font-family="Verdana" font-size="12" lengthAdjust="spacing" textLength="138" x="381" y="1764.9014">Calcola punteggi finali</text><rect fill="#FFFFFF" height="34.584" rx="12.5" ry="12.5" style="stroke:#000000;stroke-width:1.0;" width="182" x="359" y="1797.4209"/><text fill="#000000" font-family="Verdana" font-size="12" lengthAdjust="spacing" textLength="162" x="369" y="1819.4854">Determina risultati partita</text><rect fill="#FFFFFF" height="34.584" rx="12.5" ry="12.5" style="stroke:#000000;stroke-width:1.0;" width="208" x="346" y="1852.0049"/><text fill="#000000" font-family="Verdana" font-size="12" lengthAdjust="spacing" textLength="188" x="356" y="1874.0693">Aggiorna statistiche giocatore</text><rect fill="#FFFFFF" height="34.584" rx="12.5" ry="12.5" style="stroke:#000000;stroke-width:1.0;" width="144" x="378" y="1906.5889"/><text fill="#000000" font-family="Verdana" font-size="12" lengthAdjust="spacing" textLength="124" x="388" y="1928.6533">Salva record partita</text><rect fill="#000000" height="6" rx="2.5" ry="2.5" style="stroke:#000000;stroke-width:1.0;" width="602" x="149" y="1961.1729"/><rect fill="#FFFFFF" height="34.584" rx="12.5" ry="12.5" style="stroke:#000000;stroke-width:1.0;" width="175" x="163" y="1987.1729"/><text fill="#000000" font-family="Verdana" font-size="12" lengthAdjust="spacing" textLength="155" x="173" y="2009.2373">Invia risultati ai giocatori</text><rect fill="#FFFFFF" height="34.584" rx="12.5" ry="12.5" style="stroke:#000000;stroke-width:1.0;" width="143" x="366" y="1987.1729"/><text fill="#000000" font-family="Verdana" font-size="12" lengthAdjust="spacing" textLength="123" x="376" y="2009.2373">Aggiorna classifiche</text><rect fill="#FFFFFF" height="34.584" rx="12.5" ry="12.5" style="stroke:#000000;stroke-width:1.0;" width="200" x="537" y="1987.1729"/><text fill="#000000" font-family="Verdana" font-size="12" lengthAdjust="spacing" textLength="180" x="547" y="2009.2373">Elabora ricompense/penalit&#224;</text><rect fill="#000000" height="6" rx="2.5" ry="2.5" style="stroke:#000000;stroke-width:1.0;" width="602" x="149" y="2041.7568"/><rect fill="#FFFFFF" height="34.584" rx="12.5" ry="12.5" style="stroke:#000000;stroke-width:1.0;" width="212" x="344" y="2067.7568"/><text fill="#000000" font-family="Verdana" font-size="12" lengthAdjust="spacing" textLength="192" x="354" y="2089.8213">Chiudi connessioni WebSocket</text><rect fill="#FFFFFF" height="34.584" rx="12.5" ry="12.5" style="stroke:#000000;stroke-width:1.0;" width="151" x="374.5" y="2122.3408"/><text fill="#000000" font-family="Verdana" font-size="12" lengthAdjust="spacing" textLength="131" x="384.5" y="2144.4053">Pulisci risorse partita</text><path d="M557,2178.9248 L557,2236.3228 L841,2236.3228 L841,2188.9248 L831,2178.9248 L557,2178.9248 " fill="#FFFFFF" style="stroke:#000000;stroke-width:1.0;"/><path d="M831,2178.9248 L831,2188.9248 L841,2188.9248 L831,2178.9248 " fill="#FFFFFF" style="stroke:#000000;stroke-width:1.0;"/><text fill="#000000" font-family="Verdana" font-size="13" lengthAdjust="spacing" textLength="223" x="563" y="2196.9946">Il ciclo di gioco funziona a 60 FPS</text><text fill="#000000" font-family="Verdana" font-size="13" lengthAdjust="spacing" textLength="263" x="563" y="2212.7939">con aggiornamenti di stato sincronizzati</text><text fill="#000000" font-family="Verdana" font-size="13" lengthAdjust="spacing" textLength="148" x="563" y="2228.5933">e rilevamento collisioni</text><polygon fill="#FFFFFF" points="355,2236.3228,545,2236.3228,557,2248.3228,545,2260.3228,355,2260.3228,343,2248.3228,355,2236.3228" style="stroke:#000000;stroke-width:1.0;"/><text fill="#000000" font-family="Verdana" font-size="11" lengthAdjust="spacing" textLength="190" x="355" y="2252.6975">I giocatori vogliono una rivincita?</text><text fill="#000000" font-family="Verdana" font-size="11" lengthAdjust="spacing" textLength="9" x="334" y="2246.0132">s&#236;</text><text fill="#000000" font-family="Verdana" font-size="11" lengthAdjust="spacing" textLength="14" x="557" y="2246.0132">no</text><rect fill="#FFFFFF" height="34.584" rx="12.5" ry="12.5" style="stroke:#000000;stroke-width:1.0;" width="161" x="252.5" y="2270.3228"/><text fill="#000000" font-family="Verdana" font-size="12" lengthAdjust="spacing" textLength="141" x="262.5" y="2292.3872">Ripristina stato partita</text><rect fill="#FFFFFF" height="34.584" rx="12.5" ry="12.5" style="stroke:#000000;stroke-width:1.0;" width="187" x="473.5" y="2270.3228"/><text fill="#000000" font-family="Verdana" font-size="12" lengthAdjust="spacing" textLength="167" x="483.5" y="2292.3872">Riporta giocatori alla lobby</text><ellipse cx="567" cy="2335.9067" fill="none" rx="11" ry="11" style="stroke:#000000;stroke-width:1.0;"/><ellipse cx="567" cy="2335.9067" fill="#FFFFFF" rx="6" ry="6" style="stroke:#000000;stroke-width:1.0;"/><line style="stroke:#000000;stroke-width:1.0;" x1="450" x2="450" y1="72.7373" y2="92.7373"/><polygon fill="#000000" points="446,82.7373,450,92.7373,454,82.7373,450,86.7373" style="stroke:#000000;stroke-width:1.0;"/><line style="stroke:#000000;stroke-width:1.0;" x1="450" x2="450" y1="127.3213" y2="147.3213"/><polygon fill="#000000" points="446,137.3213,450,147.3213,454,137.3213,450,141.3213" style="stroke:#000000;stroke-width:1.0;"/><line style="stroke:#000000;stroke-width:1.0;" x1="450" x2="450" y1="181.9053" y2="201.9053"/><polygon fill="#000000" points="446,191.9053,450,201.9053,454,191.9053,450,195.9053" style="stroke:#000000;stroke-width:1.0;"/><line style="stroke:#000000;stroke-width:1.0;" x1="201.5" x2="201.5" y1="262.4893" y2="282.4893"/><polygon fill="#000000" points="197.5,272.4893,201.5,282.4893,205.5,272.4893,201.5,276.4893" style="stroke:#000000;stroke-width:1.0;"/><line style="stroke:#000000;stroke-width:1.0;" x1="438.5" x2="438.5" y1="262.4893" y2="282.4893"/><polygon fill="#000000" points="434.5,272.4893,438.5,282.4893,442.5,272.4893,438.5,276.4893" style="stroke:#000000;stroke-width:1.0;"/><line style="stroke:#000000;stroke-width:1.0;" x1="687" x2="687" y1="262.4893" y2="282.4893"/><polygon fill="#000000" points="683,272.4893,687,282.4893,691,272.4893,687,276.4893" style="stroke:#000000;stroke-width:1.0;"/><line style="stroke:#000000;stroke-width:1.0;" x1="201.5" x2="201.5" y1="317.0732" y2="337.0732"/><polygon fill="#000000" points="197.5,327.0732,201.5,337.0732,205.5,327.0732,201.5,331.0732" style="stroke:#000000;stroke-width:1.0;"/><line style="stroke:#000000;stroke-width:1.0;" x1="438.5" x2="438.5" y1="317.0732" y2="337.0732"/><polygon fill="#000000" points="434.5,327.0732,438.5,337.0732,442.5,327.0732,438.5,331.0732" style="stroke:#000000;stroke-width:1.0;"/><line style="stroke:#000000;stroke-width:1.0;" x1="687" x2="687" y1="317.0732" y2="337.0732"/><polygon fill="#000000" points="683,327.0732,687,337.0732,691,327.0732,687,331.0732" style="stroke:#000000;stroke-width:1.0;"/><line style="stroke:#000000;stroke-width:1.0;" x1="450" x2="450" y1="236.4893" y2="256.4893"/><polygon fill="#000000" points="446,246.4893,450,256.4893,454,246.4893,450,250.4893" style="stroke:#000000;stroke-width:1.0;"/><line style="stroke:#000000;stroke-width:1.0;" x1="450" x2="450" y1="343.0732" y2="363.0732"/><polygon fill="#000000" points="446,353.0732,450,363.0732,454,353.0732,450,357.0732" style="stroke:#000000;stroke-width:1.0;"/><line style="stroke:#000000;stroke-width:1.0;" x1="450" x2="450" y1="397.6572" y2="417.6572"/><polygon fill="#000000" points="446,407.6572,450,417.6572,454,407.6572,450,411.6572" style="stroke:#000000;stroke-width:1.0;"/><line style="stroke:#000000;stroke-width:1.0;" x1="450" x2="450" y1="452.2412" y2="472.2412"/><polygon fill="#000000" points="446,462.2412,450,472.2412,454,462.2412,450,466.2412" style="stroke:#000000;stroke-width:1.0;"/><line style="stroke:#000000;stroke-width:1.0;" x1="450" x2="450" y1="506.8252" y2="526.8252"/><polygon fill="#000000" points="446,516.8252,450,526.8252,454,516.8252,450,520.8252" style="stroke:#000000;stroke-width:1.0;"/><line style="stroke:#000000;stroke-width:1.0;" x1="450" x2="450" y1="643.0078" y2="663.0078"/><polygon fill="#000000" points="446,653.0078,450,663.0078,454,653.0078,450,657.0078" style="stroke:#000000;stroke-width:1.0;"/><line style="stroke:#000000;stroke-width:1.0;" x1="450" x2="450" y1="697.5918" y2="717.5918"/><polygon fill="#000000" points="446,707.5918,450,717.5918,454,707.5918,450,711.5918" style="stroke:#000000;stroke-width:1.0;"/><line style="stroke:#000000;stroke-width:1.0;" x1="337.5" x2="337.5" y1="840.7598" y2="860.7598"/><polygon fill="#000000" points="333.5,850.7598,337.5,860.7598,341.5,850.7598,337.5,854.7598" style="stroke:#000000;stroke-width:1.0;"/><line style="stroke:#000000;stroke-width:1.0;" x1="374" x2="337.5" y1="784.1758" y2="784.1758"/><line style="stroke:#000000;stroke-width:1.0;" x1="337.5" x2="337.5" y1="784.1758" y2="806.1758"/><polygon fill="#000000" points="333.5,796.1758,337.5,806.1758,341.5,796.1758,337.5,800.1758" style="stroke:#000000;stroke-width:1.0;"/><line style="stroke:#000000;stroke-width:1.0;" x1="526" x2="562.5" y1="784.1758" y2="784.1758"/><line style="stroke:#000000;stroke-width:1.0;" x1="562.5" x2="562.5" y1="784.1758" y2="806.1758"/><polygon fill="#000000" points="558.5,796.1758,562.5,806.1758,566.5,796.1758,562.5,800.1758" style="stroke:#000000;stroke-width:1.0;"/><line style="stroke:#000000;stroke-width:1.0;" x1="337.5" x2="337.5" y1="895.3438" y2="913.3438"/><line style="stroke:#000000;stroke-width:1.0;" x1="337.5" x2="438" y1="913.3438" y2="913.3438"/><polygon fill="#000000" points="428,909.3438,438,913.3438,428,917.3438,432,913.3438" style="stroke:#000000;stroke-width:1.0;"/><line style="stroke:#000000;stroke-width:1.0;" x1="562.5" x2="562.5" y1="840.7598" y2="913.3438"/><line style="stroke:#000000;stroke-width:1.0;" x1="562.5" x2="462" y1="913.3438" y2="913.3438"/><polygon fill="#000000" points="472,909.3438,462,913.3438,472,917.3438,468,913.3438" style="stroke:#000000;stroke-width:1.0;"/><line style="stroke:#000000;stroke-width:1.0;" x1="450" x2="450" y1="752.1758" y2="772.1758"/><polygon fill="#000000" points="446,762.1758,450,772.1758,454,762.1758,450,766.1758" style="stroke:#000000;stroke-width:1.0;"/><line style="stroke:#000000;stroke-width:1.0;" x1="450" x2="450" y1="561.4092" y2="608.4238"/><polygon fill="#000000" points="446,598.4238,450,608.4238,454,598.4238,450,602.4238" style="stroke:#000000;stroke-width:1.0;"/><line style="stroke:#000000;stroke-width:1.0;" x1="160.5" x2="160.5" y1="1143.5264" y2="1163.5264"/><polygon fill="#000000" points="156.5,1153.5264,160.5,1163.5264,164.5,1153.5264,160.5,1157.5264" style="stroke:#000000;stroke-width:1.0;"/><line style="stroke:#000000;stroke-width:1.0;" x1="345.5" x2="345.5" y1="1143.5264" y2="1163.5264"/><polygon fill="#000000" points="341.5,1153.5264,345.5,1163.5264,349.5,1153.5264,345.5,1157.5264" style="stroke:#000000;stroke-width:1.0;"/><line style="stroke:#000000;stroke-width:1.0;" x1="515.5" x2="515.5" y1="1143.5264" y2="1163.5264"/><polygon fill="#000000" points="511.5,1153.5264,515.5,1163.5264,519.5,1153.5264,515.5,1157.5264" style="stroke:#000000;stroke-width:1.0;"/><line style="stroke:#000000;stroke-width:1.0;" x1="717" x2="717" y1="1143.5264" y2="1163.5264"/><polygon fill="#000000" points="713,1153.5264,717,1163.5264,721,1153.5264,717,1157.5264" style="stroke:#000000;stroke-width:1.0;"/><line style="stroke:#000000;stroke-width:1.0;" x1="160.5" x2="160.5" y1="1198.1104" y2="1218.1104"/><polygon fill="#000000" points="156.5,1208.1104,160.5,1218.1104,164.5,1208.1104,160.5,1212.1104" style="stroke:#000000;stroke-width:1.0;"/><line style="stroke:#000000;stroke-width:1.0;" x1="345.5" x2="345.5" y1="1198.1104" y2="1218.1104"/><polygon fill="#000000" points="341.5,1208.1104,345.5,1218.1104,349.5,1208.1104,345.5,1212.1104" style="stroke:#000000;stroke-width:1.0;"/><line style="stroke:#000000;stroke-width:1.0;" x1="515.5" x2="515.5" y1="1198.1104" y2="1218.1104"/><polygon fill="#000000" points="511.5,1208.1104,515.5,1218.1104,519.5,1208.1104,515.5,1212.1104" style="stroke:#000000;stroke-width:1.0;"/><line style="stroke:#000000;stroke-width:1.0;" x1="717" x2="717" y1="1198.1104" y2="1218.1104"/><polygon fill="#000000" points="713,1208.1104,717,1218.1104,721,1208.1104,717,1212.1104" style="stroke:#000000;stroke-width:1.0;"/><line style="stroke:#000000;stroke-width:1.0;" x1="450" x2="450" y1="1117.5264" y2="1137.5264"/><polygon fill="#000000" points="446,1127.5264,450,1137.5264,454,1127.5264,450,1131.5264" style="stroke:#000000;stroke-width:1.0;"/><line style="stroke:#000000;stroke-width:1.0;" x1="450" x2="450" y1="1224.1104" y2="1244.1104"/><polygon fill="#000000" points="446,1234.1104,450,1244.1104,454,1234.1104,450,1238.1104" style="stroke:#000000;stroke-width:1.0;"/><line style="stroke:#000000;stroke-width:1.0;" x1="450" x2="450" y1="1278.6943" y2="1298.6943"/><polygon fill="#000000" points="446,1288.6943,450,1298.6943,454,1288.6943,450,1292.6943" style="stroke:#000000;stroke-width:1.0;"/><line style="stroke:#000000;stroke-width:1.0;" x1="450" x2="450" y1="1333.2783" y2="1364.386"/><polygon fill="#000000" points="446,1354.386,450,1364.386,454,1354.386,450,1358.386" style="stroke:#000000;stroke-width:1.0;"/><line style="stroke:#000000;stroke-width:1.0;" x1="450" x2="450" y1="1442.97" y2="1467.6543"/><line style="stroke:#000000;stroke-width:1.0;" x1="450" x2="60.5" y1="1467.6543" y2="1467.6543"/><line style="stroke:#000000;stroke-width:1.0;" x1="60.5" x2="60.5" y1="1467.6543" y2="1671.8223"/><line style="stroke:#000000;stroke-width:1.0;" x1="60.5" x2="438" y1="1671.8223" y2="1671.8223"/><polygon fill="#000000" points="428,1667.8223,438,1671.8223,428,1675.8223,432,1671.8223" style="stroke:#000000;stroke-width:1.0;"/><line style="stroke:#000000;stroke-width:1.0;" x1="513" x2="525" y1="1430.97" y2="1430.97"/><polygon fill="#000000" points="521,1454.6543,525,1464.6543,529,1454.6543,525,1458.6543" style="stroke:#000000;stroke-width:1.0;"/><line style="stroke:#000000;stroke-width:1.0;" x1="525" x2="525" y1="1430.97" y2="1486.6543"/><line style="stroke:#000000;stroke-width:1.0;" x1="525" x2="450" y1="1486.6543" y2="1486.6543"/><line style="stroke:#000000;stroke-width:1.0;" x1="450" x2="450" y1="1486.6543" y2="1506.6543"/><polygon fill="#000000" points="446,1496.6543,450,1506.6543,454,1496.6543,450,1500.6543" style="stroke:#000000;stroke-width:1.0;"/><line style="stroke:#000000;stroke-width:1.0;" x1="450" x2="450" y1="1398.97" y2="1418.97"/><polygon fill="#000000" points="446,1408.97,450,1418.97,454,1408.97,450,1412.97" style="stroke:#000000;stroke-width:1.0;"/><line style="stroke:#000000;stroke-width:1.0;" x1="450" x2="450" y1="1541.2383" y2="1561.2383"/><polygon fill="#000000" points="446,1551.2383,450,1561.2383,454,1551.2383,450,1555.2383" style="stroke:#000000;stroke-width:1.0;"/><line style="stroke:#000000;stroke-width:1.0;" x1="450" x2="450" y1="1062.9424" y2="1082.9424"/><polygon fill="#000000" points="446,1072.9424,450,1082.9424,454,1072.9424,450,1076.9424" style="stroke:#000000;stroke-width:1.0;"/><line style="stroke:#000000;stroke-width:1.0;" x1="501.5" x2="848.5" y1="1627.8223" y2="1627.8223"/><polygon fill="#000000" points="844.5,1353.2783,848.5,1343.2783,852.5,1353.2783,848.5,1349.2783" style="stroke:#000000;stroke-width:1.0;"/><line style="stroke:#000000;stroke-width:1.0;" x1="848.5" x2="848.5" y1="1050.9424" y2="1627.8223"/><line style="stroke:#000000;stroke-width:1.0;" x1="848.5" x2="462" y1="1050.9424" y2="1050.9424"/><polygon fill="#000000" points="472,1046.9424,462,1050.9424,472,1054.9424,468,1050.9424" style="stroke:#000000;stroke-width:1.0;"/><line style="stroke:#000000;stroke-width:1.0;" x1="450" x2="450" y1="1595.8223" y2="1615.8223"/><polygon fill="#000000" points="446,1605.8223,450,1615.8223,454,1605.8223,450,1609.8223" style="stroke:#000000;stroke-width:1.0;"/><line style="stroke:#000000;stroke-width:1.0;" x1="450" x2="450" y1="1639.8223" y2="1659.8223"/><polygon fill="#000000" points="446,1649.8223,450,1659.8223,454,1649.8223,450,1653.8223" style="stroke:#000000;stroke-width:1.0;"/><line style="stroke:#000000;stroke-width:1.0;" x1="450" x2="450" y1="1018.9424" y2="1038.9424"/><polygon fill="#000000" points="446,1028.9424,450,1038.9424,454,1028.9424,450,1032.9424" style="stroke:#000000;stroke-width:1.0;"/><line style="stroke:#000000;stroke-width:1.0;" x1="450" x2="450" y1="925.3438" y2="984.3584"/><polygon fill="#000000" points="446,974.3584,450,984.3584,454,974.3584,450,978.3584" style="stroke:#000000;stroke-width:1.0;"/><line style="stroke:#000000;stroke-width:1.0;" x1="450" x2="450" y1="1777.4209" y2="1797.4209"/><polygon fill="#000000" points="446,1787.4209,450,1797.4209,454,1787.4209,450,1791.4209" style="stroke:#000000;stroke-width:1.0;"/><line style="stroke:#000000;stroke-width:1.0;" x1="450" x2="450" y1="1832.0049" y2="1852.0049"/><polygon fill="#000000" points="446,1842.0049,450,1852.0049,454,1842.0049,450,1846.0049" style="stroke:#000000;stroke-width:1.0;"/><line style="stroke:#000000;stroke-width:1.0;" x1="450" x2="450" y1="1886.5889" y2="1906.5889"/><polygon fill="#000000" points="446,1896.5889,450,1906.5889,454,1896.5889,450,1900.5889" style="stroke:#000000;stroke-width:1.0;"/><line style="stroke:#000000;stroke-width:1.0;" x1="250.5" x2="250.5" y1="1967.1729" y2="1987.1729"/><polygon fill="#000000" points="246.5,1977.1729,250.5,1987.1729,254.5,1977.1729,250.5,1981.1729" style="stroke:#000000;stroke-width:1.0;"/><line style="stroke:#000000;stroke-width:1.0;" x1="437.5" x2="437.5" y1="1967.1729" y2="1987.1729"/><polygon fill="#000000" points="433.5,1977.1729,437.5,1987.1729,441.5,1977.1729,437.5,1981.1729" style="stroke:#000000;stroke-width:1.0;"/><line style="stroke:#000000;stroke-width:1.0;" x1="637" x2="637" y1="1967.1729" y2="1987.1729"/><polygon fill="#000000" points="633,1977.1729,637,1987.1729,641,1977.1729,637,1981.1729" style="stroke:#000000;stroke-width:1.0;"/><line style="stroke:#000000;stroke-width:1.0;" x1="250.5" x2="250.5" y1="2021.7568" y2="2041.7568"/><polygon fill="#000000" points="246.5,2031.7568,250.5,2041.7568,254.5,2031.7568,250.5,2035.7568" style="stroke:#000000;stroke-width:1.0;"/><line style="stroke:#000000;stroke-width:1.0;" x1="437.5" x2="437.5" y1="2021.7568" y2="2041.7568"/><polygon fill="#000000" points="433.5,2031.7568,437.5,2041.7568,441.5,2031.7568,437.5,2035.7568" style="stroke:#000000;stroke-width:1.0;"/><line style="stroke:#000000;stroke-width:1.0;" x1="637" x2="637" y1="2021.7568" y2="2041.7568"/><polygon fill="#000000" points="633,2031.7568,637,2041.7568,641,2031.7568,637,2035.7568" style="stroke:#000000;stroke-width:1.0;"/><line style="stroke:#000000;stroke-width:1.0;" x1="450" x2="450" y1="1941.1729" y2="1961.1729"/><polygon fill="#000000" points="446,1951.1729,450,1961.1729,454,1951.1729,450,1955.1729" style="stroke:#000000;stroke-width:1.0;"/><line style="stroke:#000000;stroke-width:1.0;" x1="450" x2="450" y1="2047.7568" y2="2067.7568"/><polygon fill="#000000" points="446,2057.7568,450,2067.7568,454,2057.7568,450,2061.7568" style="stroke:#000000;stroke-width:1.0;"/><line style="stroke:#000000;stroke-width:1.0;" x1="450" x2="450" y1="2102.3408" y2="2122.3408"/><polygon fill="#000000" points="446,2112.3408,450,2122.3408,454,2112.3408,450,2116.3408" style="stroke:#000000;stroke-width:1.0;"/><line style="stroke:#000000;stroke-width:1.0;" x1="450" x2="450" y1="1683.8223" y2="1742.8369"/><polygon fill="#000000" points="446,1732.8369,450,1742.8369,454,1732.8369,450,1736.8369" style="stroke:#000000;stroke-width:1.0;"/><line style="stroke:#000000;stroke-width:1.0;" x1="567" x2="567" y1="2304.9067" y2="2324.9067"/><polygon fill="#000000" points="563,2314.9067,567,2324.9067,571,2314.9067,567,2318.9067" style="stroke:#000000;stroke-width:1.0;"/><line style="stroke:#000000;stroke-width:1.0;" x1="343" x2="333" y1="2248.3228" y2="2248.3228"/><line style="stroke:#000000;stroke-width:1.0;" x1="333" x2="333" y1="2248.3228" y2="2270.3228"/><polygon fill="#000000" points="329,2260.3228,333,2270.3228,337,2260.3228,333,2264.3228" style="stroke:#000000;stroke-width:1.0;"/><line style="stroke:#000000;stroke-width:1.0;" x1="557" x2="567" y1="2248.3228" y2="2248.3228"/><line style="stroke:#000000;stroke-width:1.0;" x1="567" x2="567" y1="2248.3228" y2="2270.3228"/><polygon fill="#000000" points="563,2260.3228,567,2270.3228,571,2260.3228,567,2264.3228" style="stroke:#000000;stroke-width:1.0;"/><line style="stroke:#000000;stroke-width:1.0;" x1="333" x2="333" y1="2304.9067" y2="2352.9067"/><line style="stroke:#000000;stroke-width:1.0;" x1="333" x2="450" y1="2352.9067" y2="2352.9067"/><line style="stroke:#000000;stroke-width:1.0;" x1="450" x2="450" y1="2156.9248" y2="2236.3228"/><polygon fill="#000000" points="446,2226.3228,450,2236.3228,454,2226.3228,450,2230.3228" style="stroke:#000000;stroke-width:1.0;"/><!--SRC=[TLL1RXj74BplApe-IGV3FkL07WA1jWm22I14HdBnfRbiaWtDpYncPcc4GVwI1-GN_bYgTtQNkxGC28B4gUckhgbg_fHFqWYrZjLNLTRiX7uBEKIXlT8d3NMWj_H1-HYvQPZsue1uo5dFch_zItUFhaifqCSaTNVHu8MUEA8EtrTLolYpgbQ_QtrImNzKH-62QWkAejPoxZAlgzKVx7JFTiADvAWZ1aTRhnV5yUN2r0I_3yRkQEpMLNK8yQKYMcqOnK2HirB3RSkKn8crOojYCEAZ3GhmqAmE_g37BlQiIad6z7eBtumuk-4bfHx-f-oUG_qYULs9trDFf5fjC2GfnlKNditmIRpWVfOOnOSo1Zv-2abxZXHmfGvEISXBexNU3Dvs7fEbbh_wET6gj409UlF82GyGvMt_Sc_eR-EErm8xdJ7l7pTtU4LQp0pmrfyLmcLyCYYjXOAiHnqamWXj33wBqLhSnuyUwExpRUs2rr_k2ORpT9U-_NSFhB4xMyEiZKHZYBRi77mHpf9gvNL15Lgld1DZCAVYio75OVux7yRQm-HN6b4RzW3tPEtiKFspK72ZjGkJzqS5UuxrUDGR3nEfhxKTbC5Fb5OubyvFCTJG6ZxmRPUN6lLWei6sXUWHY0WFj8CRC1J74Rwmuh8yt12XI6n-29rARnycMxsEnDlc67fnrSaP8JIruKYdlTtBlSdeqo2hXxPrbhm3S1R0APfB0ZDJ3KVNZdZP_J0u5eifnUzI7ywSUIQQcMjOC9QaHYtRtxkAQ8SGleo4ySfNjfyZ9-mNYr9FYFNsULQ_QcCDc1wVdWbBx2Xvub1UcRwUeD6L2zj6194RDvKy8jYBG6xOGTKIQ84w4CuZutt0FiWm5XuXTIxRCfjsoAsQM39OhJBnBnbzPdV6TQb3tC_lLZFF3O6wzhXLuSOUrxwrO-oGW_Lz3VVHyIx4Vg-7fXMVv1r-OpfyMmoP6rdqKfoqMwocnL8rftTmNst1JI4ckSu3eSqCsrcup-7eK29Gryjtjdn-xmvy7I6wK6wov5HplZuC5cAUxRUoU5pOxVuoQYc7jYhcgdp8Wex7KrxHrjrkYaFdouPd-lczUUgBny1GhKXgELD35pO9jB4iRULd_UBb1sci_WS0]--></g></svg>