<?xml version="1.0" encoding="us-ascii" standalone="no"?><svg xmlns="http://www.w3.org/2000/svg" xmlns:xlink="http://www.w3.org/1999/xlink" contentStyleType="text/css" height="1689px" preserveAspectRatio="none" style="width:1891px;height:1689px;background:#FFFFFF;" version="1.1" viewBox="0 0 1891 1689" width="1891px" zoomAndPan="magnify"><defs/><g><text fill="#000000" font-family="Verdana" font-size="22" font-weight="bold" lengthAdjust="spacing" textLength="820" x="531" y="37.1182">Motore di Gioco - Diagramma di Stato (Match State Management)</text><ellipse cx="119" cy="68.7373" fill="#FFFFFF" rx="10" ry="10" style="stroke:#000000;stroke-width:1.0;"/><g id="Inizializzazione"><rect fill="#FFFFFF" height="80.7666" rx="12.5" ry="12.5" style="stroke:#000000;stroke-width:1.0;" width="214" x="12" y="155.7373"/><line style="stroke:#000000;stroke-width:1.0;" x1="12" x2="226" y1="182.752" y2="182.752"/><text fill="#000000" font-family="Verdana" font-size="14" lengthAdjust="spacing" textLength="103" x="67.5" y="174.8125">Inizializzazione</text><text fill="#000000" font-family="Verdana" font-size="12" lengthAdjust="spacing" textLength="194" x="17" y="199.8164">Configurazione mondo di gioco</text><text fill="#000000" font-family="Verdana" font-size="12" lengthAdjust="spacing" textLength="154" x="17" y="214.4004">Caricamento dati mappa</text><text fill="#000000" font-family="Verdana" font-size="12" lengthAdjust="spacing" textLength="132" x="17" y="228.9844">Preparazione sistemi</text></g><g id="InAttesaGiocatori"><rect fill="#FFFFFF" height="80.7666" rx="12.5" ry="12.5" style="stroke:#000000;stroke-width:1.0;" width="253" x="388.5" y="313.7373"/><line style="stroke:#000000;stroke-width:1.0;" x1="388.5" x2="641.5" y1="340.752" y2="340.752"/><text fill="#000000" font-family="Verdana" font-size="14" lengthAdjust="spacing" textLength="122" x="454" y="332.8125">InAttesaGiocatori</text><text fill="#000000" font-family="Verdana" font-size="12" lengthAdjust="spacing" textLength="194" x="393.5" y="357.8164">In attesa connessioni giocatori</text><text fill="#000000" font-family="Verdana" font-size="12" lengthAdjust="spacing" textLength="233" x="393.5" y="372.4004">Accettazione connessioni WebSocket</text><text fill="#000000" font-family="Verdana" font-size="12" lengthAdjust="spacing" textLength="163" x="393.5" y="386.9844">Validazione dati giocatore</text></g><g id="Errore"><rect fill="#FFFFFF" height="95.3506" rx="12.5" ry="12.5" style="stroke:#000000;stroke-width:1.0;" width="201" x="450.5" y="1317.7373"/><line style="stroke:#000000;stroke-width:1.0;" x1="450.5" x2="651.5" y1="1344.752" y2="1344.752"/><text fill="#000000" font-family="Verdana" font-size="14" lengthAdjust="spacing" textLength="44" x="529" y="1336.8125">Errore</text><text fill="#000000" font-family="Verdana" font-size="12" lengthAdjust="spacing" textLength="92" x="455.5" y="1361.8164">Stato di errore</text><text fill="#000000" font-family="Verdana" font-size="12" lengthAdjust="spacing" textLength="181" x="455.5" y="1376.4004">Registrazione dettagli errore</text><text fill="#000000" font-family="Verdana" font-size="12" lengthAdjust="spacing" textLength="134" x="455.5" y="1390.9844">Tentativo di recupero</text><text fill="#000000" font-family="Verdana" font-size="12" lengthAdjust="spacing" textLength="140" x="455.5" y="1405.5684">Notifica amministratori</text></g><g id="PrePartita"><rect fill="#FFFFFF" height="95.3506" rx="12.5" ry="12.5" style="stroke:#000000;stroke-width:1.0;" width="214" x="598" y="471.7373"/><line style="stroke:#000000;stroke-width:1.0;" x1="598" x2="812" y1="498.752" y2="498.752"/><text fill="#000000" font-family="Verdana" font-size="14" lengthAdjust="spacing" textLength="67" x="671.5" y="490.8125">PrePartita</text><text fill="#000000" font-family="Verdana" font-size="12" lengthAdjust="spacing" textLength="112" x="603" y="515.8164">Preparazioni finali</text><text fill="#000000" font-family="Verdana" font-size="12" lengthAdjust="spacing" textLength="162" x="603" y="530.4004">Invio stato iniziale mondo</text><text fill="#000000" font-family="Verdana" font-size="12" lengthAdjust="spacing" textLength="194" x="603" y="544.9844">Controlli disponibilit&#224; giocatore</text><text fill="#000000" font-family="Verdana" font-size="12" lengthAdjust="spacing" textLength="104" x="603" y="559.5684">Fase countdown</text></g><g id="Annullata"><rect fill="#FFFFFF" height="95.3506" rx="12.5" ry="12.5" style="stroke:#000000;stroke-width:1.0;" width="196" x="1412" y="973.7373"/><line style="stroke:#000000;stroke-width:1.0;" x1="1412" x2="1608" y1="1000.752" y2="1000.752"/><text fill="#000000" font-family="Verdana" font-size="14" lengthAdjust="spacing" textLength="65" x="1477.5" y="992.8125">Annullata</text><text fill="#000000" font-family="Verdana" font-size="12" lengthAdjust="spacing" textLength="105" x="1417" y="1017.8164">Partita annullata</text><text fill="#000000" font-family="Verdana" font-size="12" lengthAdjust="spacing" textLength="104" x="1417" y="1032.4004">Notifica giocatori</text><text fill="#000000" font-family="Verdana" font-size="12" lengthAdjust="spacing" textLength="87" x="1417" y="1046.9844">Pulizia risorse</text><text fill="#000000" font-family="Verdana" font-size="12" lengthAdjust="spacing" textLength="176" x="1417" y="1061.5684">Registrazione annullamento</text></g><g id="InEsecuzione"><rect fill="#FFFFFF" height="95.3506" rx="12.5" ry="12.5" style="stroke:#000000;stroke-width:1.0;" width="200" x="605" y="643.7373"/><line style="stroke:#000000;stroke-width:1.0;" x1="605" x2="805" y1="670.752" y2="670.752"/><text fill="#000000" font-family="Verdana" font-size="14" lengthAdjust="spacing" textLength="92" x="659" y="662.8125">InEsecuzione</text><text fill="#000000" font-family="Verdana" font-size="12" lengthAdjust="spacing" textLength="102" x="610" y="687.8164">Gameplay attivo</text><text fill="#000000" font-family="Verdana" font-size="12" lengthAdjust="spacing" textLength="176" x="610" y="702.4004">Elaborazione input giocatori</text><text fill="#000000" font-family="Verdana" font-size="12" lengthAdjust="spacing" textLength="180" x="610" y="716.9844">Aggiornamento stato mondo</text><text fill="#000000" font-family="Verdana" font-size="12" lengthAdjust="spacing" textLength="177" x="610" y="731.5684">Trasmissione aggiornamenti</text></g><g id="InPausa"><rect fill="#FFFFFF" height="80.7666" rx="12.5" ry="12.5" style="stroke:#000000;stroke-width:1.0;" width="236" x="1022" y="815.7373"/><line style="stroke:#000000;stroke-width:1.0;" x1="1022" x2="1258" y1="842.752" y2="842.752"/><text fill="#000000" font-family="Verdana" font-size="14" lengthAdjust="spacing" textLength="55" x="1112.5" y="834.8125">InPausa</text><text fill="#000000" font-family="Verdana" font-size="12" lengthAdjust="spacing" textLength="216" x="1027" y="859.8164">Partita temporaneamente fermata</text><text fill="#000000" font-family="Verdana" font-size="12" lengthAdjust="spacing" textLength="212" x="1027" y="874.4004">In attesa riconnessione giocatore</text><text fill="#000000" font-family="Verdana" font-size="12" lengthAdjust="spacing" textLength="177" x="1027" y="888.9844">Conservazione stato partita</text></g><g id="Terminata"><rect fill="#FFFFFF" height="95.3506" rx="12.5" ry="12.5" style="stroke:#000000;stroke-width:1.0;" width="185" x="741.5" y="973.7373"/><line style="stroke:#000000;stroke-width:1.0;" x1="741.5" x2="926.5" y1="1000.752" y2="1000.752"/><text fill="#000000" font-family="Verdana" font-size="14" lengthAdjust="spacing" textLength="70" x="799" y="992.8125">Terminata</text><text fill="#000000" font-family="Verdana" font-size="12" lengthAdjust="spacing" textLength="116" x="746.5" y="1017.8164">Partita completata</text><text fill="#000000" font-family="Verdana" font-size="12" lengthAdjust="spacing" textLength="96" x="746.5" y="1032.4004">Calcolo risultati</text><text fill="#000000" font-family="Verdana" font-size="12" lengthAdjust="spacing" textLength="165" x="746.5" y="1046.9844">Aggiornamento statistiche</text><text fill="#000000" font-family="Verdana" font-size="12" lengthAdjust="spacing" textLength="148" x="746.5" y="1061.5684">Salvataggio dati partita</text></g><g id="PostPartita"><rect fill="#FFFFFF" height="95.3506" rx="12.5" ry="12.5" style="stroke:#000000;stroke-width:1.0;" width="183" x="809.5" y="1145.7373"/><line style="stroke:#000000;stroke-width:1.0;" x1="809.5" x2="992.5" y1="1172.752" y2="1172.752"/><text fill="#000000" font-family="Verdana" font-size="14" lengthAdjust="spacing" textLength="76" x="863" y="1164.8125">PostPartita</text><text fill="#000000" font-family="Verdana" font-size="12" lengthAdjust="spacing" textLength="123" x="814.5" y="1189.8164">Attivit&#224; post-partita</text><text fill="#000000" font-family="Verdana" font-size="12" lengthAdjust="spacing" textLength="155" x="814.5" y="1204.4004">Invio risultati ai giocatori</text><text fill="#000000" font-family="Verdana" font-size="12" lengthAdjust="spacing" textLength="163" x="814.5" y="1218.9844">Aggiornamento classifiche</text><text fill="#000000" font-family="Verdana" font-size="12" lengthAdjust="spacing" textLength="158" x="814.5" y="1233.5684">Elaborazione ricompense</text></g><g id="Pulizia"><rect fill="#FFFFFF" height="95.3506" rx="12.5" ry="12.5" style="stroke:#000000;stroke-width:1.0;" width="176" x="529" y="1489.7373"/><line style="stroke:#000000;stroke-width:1.0;" x1="529" x2="705" y1="1516.752" y2="1516.752"/><text fill="#000000" font-family="Verdana" font-size="14" lengthAdjust="spacing" textLength="42" x="596" y="1508.8125">Pulizia</text><text fill="#000000" font-family="Verdana" font-size="12" lengthAdjust="spacing" textLength="87" x="534" y="1533.8164">Pulizia risorse</text><text fill="#000000" font-family="Verdana" font-size="12" lengthAdjust="spacing" textLength="134" x="534" y="1548.4004">Chiusura connessioni</text><text fill="#000000" font-family="Verdana" font-size="12" lengthAdjust="spacing" textLength="131" x="534" y="1562.9844">Liberazione memoria</text><text fill="#000000" font-family="Verdana" font-size="12" lengthAdjust="spacing" textLength="156" x="534" y="1577.5684">Archiviazione dati partita</text></g><ellipse cx="775" cy="1672.7373" fill="none" rx="11" ry="11" style="stroke:#000000;stroke-width:1.0;"/><ellipse cx="775" cy="1672.7373" fill="#FFFFFF" rx="6" ry="6" style="stroke:#000000;stroke-width:1.0;"/><g id="elem_GMN39"><path d="M840.5,654.7373 L840.5,687.2373 L805.45,691.2373 L840.5,695.2373 L840.5,727.9346 A0,0 0 0 0 840.5,727.9346 L1043.5,727.9346 A0,0 0 0 0 1043.5,727.9346 L1043.5,664.7373 L1033.5,654.7373 L840.5,654.7373 A0,0 0 0 0 840.5,654.7373 " fill="#FFFFFF" style="stroke:#000000;stroke-width:1.0;"/><path d="M1033.5,654.7373 L1033.5,664.7373 L1043.5,664.7373 L1033.5,654.7373 " fill="#FFFFFF" style="stroke:#000000;stroke-width:1.0;"/><text fill="#000000" font-family="Verdana" font-size="13" lengthAdjust="spacing" textLength="135" x="846.5" y="672.8071">Stato core del gioco</text><text fill="#000000" font-family="Verdana" font-size="13" lengthAdjust="spacing" textLength="179" x="846.5" y="688.6064">Ciclo aggiornamenti 60 FPS</text><text fill="#000000" font-family="Verdana" font-size="13" lengthAdjust="spacing" textLength="172" x="846.5" y="704.4058">Sincronizzazione real-time</text><text fill="#000000" font-family="Verdana" font-size="13" lengthAdjust="spacing" textLength="182" x="846.5" y="720.2051">Rilevamento collisioni attivo</text></g><g id="elem_GMN42"><path d="M1293,819.7373 L1293,852.2373 L1258.16,856.2373 L1293,860.2373 L1293,892.9346 A0,0 0 0 0 1293,892.9346 L1537,892.9346 A0,0 0 0 0 1537,892.9346 L1537,829.7373 L1527,819.7373 L1293,819.7373 A0,0 0 0 0 1293,819.7373 " fill="#FFFFFF" style="stroke:#000000;stroke-width:1.0;"/><path d="M1527,819.7373 L1527,829.7373 L1537,829.7373 L1527,819.7373 " fill="#FFFFFF" style="stroke:#000000;stroke-width:1.0;"/><text fill="#000000" font-family="Verdana" font-size="13" lengthAdjust="spacing" textLength="189" x="1299" y="837.8071">Conserva stato esatto gioco</text><text fill="#000000" font-family="Verdana" font-size="13" lengthAdjust="spacing" textLength="223" x="1299" y="853.6064">Consente riconnessione giocatore</text><text fill="#000000" font-family="Verdana" font-size="13" lengthAdjust="spacing" textLength="191" x="1299" y="869.4058">Mantiene consistenza mondo</text><text fill="#000000" font-family="Verdana" font-size="13" lengthAdjust="spacing" textLength="163" x="1299" y="885.2051">Gestisce problemi di rete</text></g><g id="elem_GMN45"><path d="M847.5,482.7373 L847.5,515.2373 L812.16,519.2373 L847.5,523.2373 L847.5,555.9346 A0,0 0 0 0 847.5,555.9346 L1138.5,555.9346 A0,0 0 0 0 1138.5,555.9346 L1138.5,492.7373 L1128.5,482.7373 L847.5,482.7373 A0,0 0 0 0 847.5,482.7373 " fill="#FFFFFF" style="stroke:#000000;stroke-width:1.0;"/><path d="M1128.5,482.7373 L1128.5,492.7373 L1138.5,492.7373 L1128.5,482.7373 " fill="#FFFFFF" style="stroke:#000000;stroke-width:1.0;"/><text fill="#000000" font-family="Verdana" font-size="13" lengthAdjust="spacing" textLength="188" x="853.5" y="500.8071">Fase sincronizzazione critica</text><text fill="#000000" font-family="Verdana" font-size="13" lengthAdjust="spacing" textLength="270" x="853.5" y="516.6064">Assicura che tutti i giocatori siano pronti</text><text fill="#000000" font-family="Verdana" font-size="13" lengthAdjust="spacing" textLength="134" x="853.5" y="532.4058">Valida configurazioni</text><text fill="#000000" font-family="Verdana" font-size="13" lengthAdjust="spacing" textLength="165" x="853.5" y="548.2051">Imposta condizioni iniziali</text></g><g id="elem_GMN48"><path d="M1028,1156.7373 L1028,1189.2373 L992.88,1193.2373 L1028,1197.2373 L1028,1229.9346 A0,0 0 0 0 1028,1229.9346 L1222,1229.9346 A0,0 0 0 0 1222,1229.9346 L1222,1166.7373 L1212,1156.7373 L1028,1156.7373 A0,0 0 0 0 1028,1156.7373 " fill="#FFFFFF" style="stroke:#000000;stroke-width:1.0;"/><path d="M1212,1156.7373 L1212,1166.7373 L1222,1166.7373 L1212,1156.7373 " fill="#FFFFFF" style="stroke:#000000;stroke-width:1.0;"/><text fill="#000000" font-family="Verdana" font-size="13" lengthAdjust="spacing" textLength="157" x="1034" y="1174.8071">Calcolo punteggio finale</text><text fill="#000000" font-family="Verdana" font-size="13" lengthAdjust="spacing" textLength="173" x="1034" y="1190.6064">Aggiornamento statistiche</text><text fill="#000000" font-family="Verdana" font-size="13" lengthAdjust="spacing" textLength="162" x="1034" y="1206.4058">Distribuzione ricompense</text><text fill="#000000" font-family="Verdana" font-size="13" lengthAdjust="spacing" textLength="166" x="1034" y="1222.2051">Aggiornamenti classifiche</text></g><!--link *start* to Inizializzazione--><g id="link_*start*_Inizializzazione"><path d="M119,78.7673 C119,94.6673 119,122.5773 119,149.7273 " fill="none" id="*start*-to-Inizializzazione" style="stroke:#000000;stroke-width:1.0;"/><polygon fill="#000000" points="119,155.7273,123,146.7273,119,150.7273,115,146.7273,119,155.7273" style="stroke:#000000;stroke-width:1.0;"/><text fill="#000000" font-family="Verdana" font-size="13" lengthAdjust="spacing" textLength="79" x="120" y="122.8071">Crea partita</text></g><!--link Inizializzazione to InAttesaGiocatori--><g id="link_Inizializzazione_InAttesaGiocatori"><path d="M219.44,236.8073 C279.24,260.3673 349.2978,287.9576 409.0878,311.5176 " fill="none" id="Inizializzazione-to-InAttesaGiocatori" style="stroke:#000000;stroke-width:1.0;"/><polygon fill="#000000" points="414.67,313.7173,407.7631,306.6963,410.0181,311.8843,404.8302,314.1393,414.67,313.7173" style="stroke:#000000;stroke-width:1.0;"/><text fill="#000000" font-family="Verdana" font-size="13" lengthAdjust="spacing" textLength="175" x="330" y="280.8071">Inizializzazione completata</text></g><!--link Inizializzazione to Errore--><g id="link_Inizializzazione_Errore"><path d="M107.46,236.9373 C99.37,268.2473 90,313.1573 90,353.2373 C90,353.2373 90,353.2373 90,1194.2373 C90,1270.4773 308.8581,1322.0465 444.4981,1346.8865 " fill="none" id="Inizializzazione-to-Errore" style="stroke:#000000;stroke-width:1.0;"/><polygon fill="#000000" points="450.4,1347.9673,442.2678,1342.4115,445.4818,1347.0666,440.8267,1350.2806,450.4,1347.9673" style="stroke:#000000;stroke-width:1.0;"/><text fill="#000000" font-family="Verdana" font-size="13" lengthAdjust="spacing" textLength="80" x="91" y="782.8071">Setup fallito</text></g><!--link InAttesaGiocatori to PrePartita--><g id="link_InAttesaGiocatori_PrePartita"><path d="M626.94,394.9173 C641.24,403.2373 654.78,413.1073 666,424.7373 C678.45,437.6473 685.1049,449.4839 691.0949,465.8239 " fill="none" id="InAttesaGiocatori-to-PrePartita" style="stroke:#000000;stroke-width:1.0;"/><polygon fill="#000000" points="693.16,471.4573,693.8179,461.6304,691.4391,466.7628,686.3067,464.3839,693.16,471.4573" style="stroke:#000000;stroke-width:1.0;"/><text fill="#000000" font-family="Verdana" font-size="13" lengthAdjust="spacing" textLength="164" x="679" y="438.8071">Tutti i giocatori connessi</text></g><!--link PrePartita to InAttesaGiocatori--><g id="link_PrePartita_InAttesaGiocatori"><path d="M597.78,501.3673 C563.32,490.3073 528.72,472.0173 508,441.7373 C498.81,428.3073 497.551,416.7213 500.401,400.9813 " fill="none" id="PrePartita-to-InAttesaGiocatori" style="stroke:#000000;stroke-width:1.0;"/><polygon fill="#000000" points="501.47,395.0773,495.9305,403.2206,500.5791,399.9973,503.8025,404.646,501.47,395.0773" style="stroke:#000000;stroke-width:1.0;"/><text fill="#000000" font-family="Verdana" font-size="13" lengthAdjust="spacing" textLength="148" x="509" y="438.8071">Giocatore disconnesso</text></g><!--link InAttesaGiocatori to Annullata--><g id="link_InAttesaGiocatori_Annullata"><path d="M641.53,359.2073 C951.56,370.6073 1724,409.8873 1724,518.2373 C1724,518.2373 1724,518.2373 1724,857.2373 C1724,920.2873 1669.9549,959.6903 1613.6949,985.1903 " fill="none" id="InAttesaGiocatori-to-Annullata" style="stroke:#000000;stroke-width:1.0;"/><polygon fill="#000000" points="1608.23,987.6673,1618.0786,987.5951,1612.784,985.6032,1614.776,980.3086,1608.23,987.6673" style="stroke:#000000;stroke-width:1.0;"/><text fill="#000000" font-family="Verdana" font-size="13" lengthAdjust="spacing" textLength="158" x="1725" y="696.8071">Timeout o annullamento</text></g><!--link InAttesaGiocatori to Errore--><g id="link_InAttesaGiocatori_Errore"><path d="M388.07,369.3273 C298.73,387.1273 195,427.3673 195,518.2373 C195,518.2373 195,518.2373 195,1194.2373 C195,1308.1073 339.1813,1345.0748 444.4513,1357.4848 " fill="none" id="InAttesaGiocatori-to-Errore" style="stroke:#000000;stroke-width:1.0;"/><polygon fill="#000000" points="450.41,1358.1873,441.9402,1353.1611,445.4444,1357.6019,441.0036,1361.1061,450.41,1358.1873" style="stroke:#000000;stroke-width:1.0;"/><text fill="#000000" font-family="Verdana" font-size="13" lengthAdjust="spacing" textLength="156" x="196" y="861.8071">Problemi di connessione</text></g><!--link PrePartita to InEsecuzione--><g id="link_PrePartita_InEsecuzione"><path d="M705,567.1373 C705,590.9273 705,613.7273 705,637.4873 " fill="none" id="PrePartita-to-InEsecuzione" style="stroke:#000000;stroke-width:1.0;"/><polygon fill="#000000" points="705,643.4873,709,634.4873,705,638.4873,701,634.4873,705,643.4873" style="stroke:#000000;stroke-width:1.0;"/><text fill="#000000" font-family="Verdana" font-size="13" lengthAdjust="spacing" textLength="145" x="706" y="610.8071">Tutti i giocatori pronti</text></g><!--link PrePartita to Annullata--><g id="link_PrePartita_Annullata"><path d="M812.31,560.4273 C818.29,562.5773 824.21,564.6973 830,566.7373 C1151.31,680.0173 1357.63,538.0273 1555,815.7373 C1588.17,862.4073 1566.3349,923.7746 1542.4349,968.1546 " fill="none" id="PrePartita-to-Annullata" style="stroke:#000000;stroke-width:1.0;"/><polygon fill="#000000" points="1539.59,973.4373,1547.3791,967.4099,1541.9607,969.0351,1540.3355,963.6167,1539.59,973.4373" style="stroke:#000000;stroke-width:1.0;"/><text fill="#000000" font-family="Verdana" font-size="13" lengthAdjust="spacing" textLength="109" x="1533" y="782.8071">Partita annullata</text></g><!--link InEsecuzione to InPausa--><g id="link_InEsecuzione_InPausa"><path d="M805.26,733.2573 C846.79,749.9573 895.56,769.1873 940,785.7373 C966.87,795.7473 990.2649,804.1308 1017.6949,813.7008 " fill="none" id="InEsecuzione-to-InPausa" style="stroke:#000000;stroke-width:1.0;"/><polygon fill="#000000" points="1023.36,815.6773,1016.18,808.9358,1018.6391,814.0302,1013.5447,816.4893,1023.36,815.6773" style="stroke:#000000;stroke-width:1.0;"/><text fill="#000000" font-family="Verdana" font-size="13" lengthAdjust="spacing" textLength="104" x="941" y="782.8071">Partita in pausa</text></g><!--link InPausa to InEsecuzione--><g id="link_InPausa_InEsecuzione"><path d="M1109.02,815.7073 C1093.26,798.4173 1072.65,779.6373 1050,768.7373 C958.3,724.6073 921.52,764.2473 823,738.7373 C817.14,737.2173 816.8957,737.2808 810.9257,735.4108 " fill="none" id="InPausa-to-InEsecuzione" style="stroke:#000000;stroke-width:1.0;"/><polygon fill="#000000" points="805.2,733.6173,812.5929,740.1246,809.9714,735.1119,814.9842,732.4904,805.2,733.6173" style="stroke:#000000;stroke-width:1.0;"/><text fill="#000000" font-family="Verdana" font-size="13" lengthAdjust="spacing" textLength="100" x="1076" y="782.8071">Riprendi partita</text></g><!--link InEsecuzione to Terminata--><g id="link_InEsecuzione_Terminata"><path d="M652.77,739.1073 C612.42,781.1973 568.37,844.2773 600,896.7373 C630.66,947.5773 684.3566,976.5575 735.6066,994.7775 " fill="none" id="InEsecuzione-to-Terminata" style="stroke:#000000;stroke-width:1.0;"/><polygon fill="#000000" points="741.26,996.7873,734.1198,990.0036,736.5489,995.1124,731.4401,997.5415,741.26,996.7873" style="stroke:#000000;stroke-width:1.0;"/><text fill="#000000" font-family="Verdana" font-size="13" lengthAdjust="spacing" textLength="189" x="601" y="861.8071">Condizione vittoria raggiunta</text></g><!--link InEsecuzione to Terminata--><g id="link_InEsecuzione_Terminata"><path d="M746.48,738.7573 C763.97,760.7073 783.02,788.1073 795,815.7373 C817.21,866.9673 826.2424,924.8752 830.3624,967.4752 " fill="none" id="InEsecuzione-to-Terminata-1" style="stroke:#000000;stroke-width:1.0;"/><polygon fill="#000000" points="830.94,973.4473,834.055,964.104,830.4587,968.4705,826.0922,964.8742,830.94,973.4473" style="stroke:#000000;stroke-width:1.0;"/><text fill="#000000" font-family="Verdana" font-size="13" lengthAdjust="spacing" textLength="151" x="820" y="861.8071">Limite tempo raggiunto</text></g><!--link InEsecuzione to Errore--><g id="link_InEsecuzione_Errore"><path d="M604.71,708.2273 C557.28,719.4173 501.8,738.0573 459,768.7373 C447.56,776.9373 314.35,960.3473 310,973.7373 C265.67,1110.1173 398.1832,1243.9716 483.5232,1313.6816 " fill="none" id="InEsecuzione-to-Errore" style="stroke:#000000;stroke-width:1.0;"/><polygon fill="#000000" points="488.17,1317.4773,483.7303,1308.6859,484.2977,1314.3142,478.6694,1314.8816,488.17,1317.4773" style="stroke:#000000;stroke-width:1.0;"/><text fill="#000000" font-family="Verdana" font-size="13" lengthAdjust="spacing" textLength="152" x="311" y="1026.8071">Errore critico verificato</text></g><!--link Errore to InEsecuzione--><g id="link_Errore_InEsecuzione"><path d="M546.36,1317.4473 C538.37,1221.1073 527.7,994.6173 582,815.7373 C591.19,785.4773 608.8729,763.3192 631.9029,742.9792 " fill="none" id="Errore-to-InEsecuzione" style="stroke:#000000;stroke-width:1.0;"/><polygon fill="#000000" points="636.4,739.0073,627.0064,741.967,632.6524,742.3172,632.3022,747.9632,636.4,739.0073" style="stroke:#000000;stroke-width:1.0;"/><text fill="#000000" font-family="Verdana" font-size="13" lengthAdjust="spacing" textLength="114" x="551" y="1026.8071">Recupero riuscito</text></g><!--link InPausa to Terminata--><g id="link_InPausa_Terminata"><path d="M1065.54,896.9073 C1022.02,920.0873 972.1655,946.6364 926.6055,970.9064 " fill="none" id="InPausa-to-Terminata" style="stroke:#000000;stroke-width:1.0;"/><polygon fill="#000000" points="921.31,973.7273,931.1339,973.0262,925.7229,971.3765,927.3726,965.9656,921.31,973.7273" style="stroke:#000000;stroke-width:1.0;"/><text fill="#000000" font-family="Verdana" font-size="13" lengthAdjust="spacing" textLength="194" x="1006" y="940.8071">Termina forzatamente partita</text></g><!--link InPausa to Annullata--><g id="link_InPausa_Annullata"><path d="M1230.04,896.9073 C1285.01,921.1173 1349.8495,949.6776 1406.2595,974.5376 " fill="none" id="InPausa-to-Annullata" style="stroke:#000000;stroke-width:1.0;"/><polygon fill="#000000" points="1411.75,976.9573,1405.1274,969.6675,1407.1746,974.9409,1401.9012,976.9881,1411.75,976.9573" style="stroke:#000000;stroke-width:1.0;"/><text fill="#000000" font-family="Verdana" font-size="13" lengthAdjust="spacing" textLength="96" x="1337" y="940.8071">Annulla partita</text></g><!--link Terminata to PostPartita--><g id="link_Terminata_PostPartita"><path d="M852.49,1069.1373 C861.86,1092.9273 871.0109,1116.1449 880.3709,1139.9049 " fill="none" id="Terminata-to-PostPartita" style="stroke:#000000;stroke-width:1.0;"/><polygon fill="#000000" points="882.57,1145.4873,882.9929,1135.6475,880.7374,1140.8353,875.5496,1138.5797,882.57,1145.4873" style="stroke:#000000;stroke-width:1.0;"/><text fill="#000000" font-family="Verdana" font-size="13" lengthAdjust="spacing" textLength="112" x="870" y="1112.8071">Risultati calcolati</text></g><!--link Terminata to Errore--><g id="link_Terminata_Errore"><path d="M741.4,1054.4873 C696.73,1074.3873 645.84,1104.1873 613,1145.7373 C573.51,1195.6973 559.8197,1263.6126 554.6197,1311.3526 " fill="none" id="Terminata-to-Errore" style="stroke:#000000;stroke-width:1.0;"/><polygon fill="#000000" points="553.97,1317.3173,558.921,1308.8034,554.5114,1312.3467,550.9681,1307.9371,553.97,1317.3173" style="stroke:#000000;stroke-width:1.0;"/><text fill="#000000" font-family="Verdana" font-size="13" lengthAdjust="spacing" textLength="177" x="614" y="1198.8071">Elaborazione risultati fallita</text></g><!--link PostPartita to Pulizia--><g id="link_PostPartita_Pulizia"><path d="M876.32,1240.9773 C867.64,1256.2673 857.44,1273.0773 847,1287.7373 C788.33,1370.1273 767.96,1386.6973 698,1459.7373 C688.5,1469.6573 682.3776,1475.8118 672.2176,1485.5218 " fill="none" id="PostPartita-to-Pulizia" style="stroke:#000000;stroke-width:1.0;"/><polygon fill="#000000" points="667.88,1489.6673,677.1501,1486.3408,671.4947,1486.2127,671.6228,1480.5573,667.88,1489.6673" style="stroke:#000000;stroke-width:1.0;"/><text fill="#000000" font-family="Verdana" font-size="13" lengthAdjust="spacing" textLength="128" x="824" y="1370.8071">Attivit&#224; completate</text></g><!--link PostPartita to Errore--><g id="link_PostPartita_Errore"><path d="M809.35,1230.9073 C800.15,1234.3273 790.91,1237.6673 782,1240.7373 C738.13,1255.8573 723.67,1250.3173 682,1270.7373 C656.16,1283.4073 634.7086,1297.4188 612.5586,1313.9488 " fill="none" id="PostPartita-to-Errore" style="stroke:#000000;stroke-width:1.0;"/><polygon fill="#000000" points="607.75,1317.5373,617.3552,1315.3602,611.7572,1314.5469,612.5705,1308.9488,607.75,1317.5373" style="stroke:#000000;stroke-width:1.0;"/><text fill="#000000" font-family="Verdana" font-size="13" lengthAdjust="spacing" textLength="159" x="683" y="1284.8071">Post-elaborazione fallita</text></g><!--link Pulizia to *end*--><g id="link_Pulizia_*end*"><path d="M612.32,1584.8373 C613.09,1601.3573 617.01,1618.9873 628,1631.7373 C646.13,1652.7773 727.4838,1665.4158 758.2738,1669.5658 " fill="none" id="Pulizia-to-*end*" style="stroke:#000000;stroke-width:1.0;"/><polygon fill="#000000" points="764.22,1670.3673,755.835,1665.201,759.2648,1669.6994,754.7663,1673.1293,764.22,1670.3673" style="stroke:#000000;stroke-width:1.0;"/><text fill="#000000" font-family="Verdana" font-size="13" lengthAdjust="spacing" textLength="119" x="629" y="1628.8071">Pulizia completata</text></g><!--link Annullata to *end*--><g id="link_Annullata_*end*"><path d="M1477.33,1068.9873 C1457.5,1101.8873 1436,1147.8173 1436,1192.2373 C1436,1192.2373 1436,1192.2373 1436,1538.2373 C1436,1676.5273 879.0593,1673.3585 792.1993,1672.0385 " fill="none" id="Annullata-to-*end*" style="stroke:#000000;stroke-width:1.0;"/><polygon fill="#000000" points="786.2,1671.9473,795.1382,1676.0836,791.1994,1672.0233,795.2597,1668.0845,786.2,1671.9473" style="stroke:#000000;stroke-width:1.0;"/><text fill="#000000" font-family="Verdana" font-size="13" lengthAdjust="spacing" textLength="167" x="1437" y="1370.8071">Annullamento completato</text></g><!--link Errore to Pulizia--><g id="link_Errore_Pulizia"><path d="M569.21,1413.1373 C578.44,1436.9273 587.4474,1460.1345 596.6774,1483.8945 " fill="none" id="Errore-to-Pulizia" style="stroke:#000000;stroke-width:1.0;"/><polygon fill="#000000" points="598.85,1489.4873,599.3196,1479.6496,597.0395,1484.8266,591.8625,1482.5465,598.85,1489.4873" style="stroke:#000000;stroke-width:1.0;"/><text fill="#000000" font-family="Verdana" font-size="13" lengthAdjust="spacing" textLength="102" x="587" y="1456.8071">Recupero fallito</text></g><!--link Errore to *end*--><g id="link_Errore_*end*"><path d="M651.62,1407.8273 C668.38,1417.6473 684.63,1429.2573 698,1442.7373 C761.82,1507.0473 772.4465,1619.8755 774.3065,1655.4255 " fill="none" id="Errore-to-*end*" style="stroke:#000000;stroke-width:1.0;"/><polygon fill="#000000" points="774.62,1661.4173,778.1443,1652.2206,774.3588,1656.4241,770.1552,1652.6386,774.62,1661.4173" style="stroke:#000000;stroke-width:1.0;"/><text fill="#000000" font-family="Verdana" font-size="13" lengthAdjust="spacing" textLength="85" x="766" y="1542.8071">Errore critico</text></g><!--SRC=[XLTBZkCs4Dth5Cmk2M0WgrdC8e3HwMaqC1COxKQo2BAWwR9T68eKACf1V9hS9HTB5JyYQScJdSpwlVhmiVoTlq0FOj0IJTTvz1h45-kj0t54yO9MMR4Hlw0yEzdtaW_tNdehllyYlRg47sGXZJoJ7-D_wBe_VlnJR3O_YrU3DvGQRpTvGsj0V1HF3gGOfACuiklM5AmvuNbowQ2tvcWvvfc1h1f8XqfoPDAJ7aKlXq6kQUuSKEJqSyJHGuzBlGXywpsCahEdL1sIzK9HsNxGGDdBTIVFpd4HFuez-6aG9warUij9hpaNCXoILsDW7CbBp3behDfibGBlPp35x7SuxAtw2dxLx3V2UKnMeLuv2goeSnvKjbri65c_JvvCAcXpv0VMMsCchMKqnXxiv8KLCfw6hZqmdCktS_QWgLKy1ILDwBe6MDLS52Sqb6Mhy6gkQCKOHXTZlz9ujNeqWDvPwXN56mVoTa3gsx__L7Lgz3_9aSi_6N-qVvbQ5YVfUGGrvH5Sbczm50-NPil6vM- -bsCgXBqthCkTpsK-uzbhuBnG1-ZY_yt3XrTxBtxMyc3pXK4pKElgaMnqjsSIEPCkOYnphEvz2PmSUumz5BAokdCPox2JqrZdWeROWuwMkk_WUcfxxk4He-YAdk5AuJWMTUb_J3zZZyHdn0s3dMtiqcOUp_IX77eagho2mnDoZRZQz_23MoSDX8n1d2Xo992iMPY0QArCUtDBiowbEOAxPaOBDS_SchLMXl0D1mTKe5NTkXRfMvoikz59XBncL4zT-YuaNtlCTQYui-cRrCfggZkEaoOfDjBbY167exf0exMN-afVh1lvBGCfIe7LxEZB9NxB0OKA4DhGRR_hIp43JVHEwRQEjton0dqCTBx9M5gbI4t5bwof_yvVKmEb9Ot7ATIWrRj3oVK66fP6AvHXqao53TAvEKlrGigS3TH1IW5cb_cBChEEWy-IfmjE8ptozRjLYJ_Z0UOD07g-lvLqwzI5eDPls5pNfCHOUGif6Ag9wxvDahNqL-l3RQxwqHZV9LZBtk1CuvcpQ1wyebPmRYk50fP8fAmHuNxJjOLmKWHjf2Cl1MUzL7idrv9fddquueC1d2tYELNQykXzP8SXtwImnYF91wK_ZOftcqgtj6jMonjGfHLpRocqwuprFBJd2wqAfoPg9r8PL7W7GQUzK8WdL4GSpNiYFlmaFktsR8D6qJjRzZFQGlN6qpf2mZVKS9qBJn3Z5fMUH29AmNYMg0BzSUJ4mec0YRhfnIcuM6eyFAHpmRkpHuXBN5XBpKscjrE85o2E6nNmeZ2lGGu8q2DaPICWyx2TZFVfnqgpV4juLBY85thq5jl9YDBOlAE8j3iophAZy_bhp-mM1F7TnRnYuMEOXLguJ8dv1tfj8N1tsE6uF8zfNz3V4ffJF4mBdclDi67A6T5_]--></g></svg>