<?xml version="1.0" encoding="us-ascii" standalone="no"?><svg xmlns="http://www.w3.org/2000/svg" xmlns:xlink="http://www.w3.org/1999/xlink" contentStyleType="text/css" height="2446px" preserveAspectRatio="none" style="width:1440px;height:2446px;background:#FFFFFF;" version="1.1" viewBox="0 0 1440 2446" width="1440px" zoomAndPan="magnify"><defs/><g><text fill="#000000" font-family="Verdana" font-size="22" font-weight="bold" lengthAdjust="spacing" textLength="519" x="459.25" y="37.1182">Servizio Mappe - Diagramma di Sequenza</text><rect fill="#FFFFFF" height="360.9604" style="stroke:#000000;stroke-width:1.0;" width="1408.5" x="15" y="1124.9321"/><rect fill="#FFFFFF" height="45.168" style="stroke:none;stroke-width:1.0;" width="1408.5" x="15" y="1440.7246"/><rect fill="#FFFFFF" height="280.7632" style="stroke:#000000;stroke-width:1.0;" width="1408.5" x="15" y="1718.6885"/><rect fill="#FFFFFF" height="45.168" style="stroke:none;stroke-width:1.0;" width="1408.5" x="15" y="1954.2837"/><line style="stroke:#000000;stroke-width:1.0;" x1="83" x2="83" y1="84.752" y2="2410.2441"/><line style="stroke:#000000;stroke-width:1.0;" x1="557" x2="557" y1="84.752" y2="2410.2441"/><line style="stroke:#000000;stroke-width:1.0;" x1="812" x2="812" y1="84.752" y2="2410.2441"/><line style="stroke:#000000;stroke-width:1.0;" x1="1093.5" x2="1093.5" y1="84.752" y2="2410.2441"/><line style="stroke:#000000;stroke-width:1.0;" x1="1363.5" x2="1363.5" y1="84.752" y2="2410.2441"/><rect fill="#FFFFFF" height="31.0146" rx="2.5" ry="2.5" style="stroke:#000000;stroke-width:1.0;" width="97" x="35" y="52.7373"/><text fill="#000000" font-family="Verdana" font-size="14" lengthAdjust="spacing" textLength="83" x="42" y="73.8125">Client Gioco</text><rect fill="#FFFFFF" height="31.0146" rx="2.5" ry="2.5" style="stroke:#000000;stroke-width:1.0;" width="97" x="35" y="2409.2441"/><text fill="#000000" font-family="Verdana" font-size="14" lengthAdjust="spacing" textLength="83" x="42" y="2430.3193">Client Gioco</text><rect fill="#FFFFFF" height="31.0146" rx="2.5" ry="2.5" style="stroke:#000000;stroke-width:1.0;" width="87" x="514" y="52.7373"/><text fill="#000000" font-family="Verdana" font-size="14" lengthAdjust="spacing" textLength="73" x="521" y="73.8125">API Mappe</text><rect fill="#FFFFFF" height="31.0146" rx="2.5" ry="2.5" style="stroke:#000000;stroke-width:1.0;" width="87" x="514" y="2409.2441"/><text fill="#000000" font-family="Verdana" font-size="14" lengthAdjust="spacing" textLength="73" x="521" y="2430.3193">API Mappe</text><rect fill="#FFFFFF" height="31.0146" rx="2.5" ry="2.5" style="stroke:#000000;stroke-width:1.0;" width="143" x="741" y="52.7373"/><text fill="#000000" font-family="Verdana" font-size="14" lengthAdjust="spacing" textLength="129" x="748" y="73.8125">Generatore Mappe</text><rect fill="#FFFFFF" height="31.0146" rx="2.5" ry="2.5" style="stroke:#000000;stroke-width:1.0;" width="143" x="741" y="2409.2441"/><text fill="#000000" font-family="Verdana" font-size="14" lengthAdjust="spacing" textLength="129" x="748" y="2430.3193">Generatore Mappe</text><rect fill="#FFFFFF" height="31.0146" rx="2.5" ry="2.5" style="stroke:#000000;stroke-width:1.0;" width="120" x="1033.5" y="52.7373"/><text fill="#000000" font-family="Verdana" font-size="14" lengthAdjust="spacing" textLength="106" x="1040.5" y="73.8125">Storage Mappe</text><rect fill="#FFFFFF" height="31.0146" rx="2.5" ry="2.5" style="stroke:#000000;stroke-width:1.0;" width="120" x="1033.5" y="2409.2441"/><text fill="#000000" font-family="Verdana" font-size="14" lengthAdjust="spacing" textLength="106" x="1040.5" y="2430.3193">Storage Mappe</text><rect fill="#FFFFFF" height="31.0146" rx="2.5" ry="2.5" style="stroke:#000000;stroke-width:1.0;" width="80" x="1323.5" y="52.7373"/><text fill="#000000" font-family="Verdana" font-size="14" lengthAdjust="spacing" textLength="66" x="1330.5" y="73.8125">Database</text><rect fill="#FFFFFF" height="31.0146" rx="2.5" ry="2.5" style="stroke:#000000;stroke-width:1.0;" width="80" x="1323.5" y="2409.2441"/><text fill="#000000" font-family="Verdana" font-size="14" lengthAdjust="spacing" textLength="66" x="1330.5" y="2430.3193">Database</text><rect fill="#FFFFFF" height="3" style="stroke:#FFFFFF;stroke-width:1.0;" width="1428.5" x="5" y="115.6516"/><line style="stroke:#000000;stroke-width:0.5;" x1="5" x2="1433.5" y1="115.6516" y2="115.6516"/><line style="stroke:#000000;stroke-width:0.5;" x1="5" x2="1433.5" y1="118.6516" y2="118.6516"/><rect fill="#FFFFFF" height="23.7993" style="stroke:#000000;stroke-width:1.0;" width="194" x="622.25" y="104.752"/><text fill="#000000" font-family="Verdana" font-size="13" font-weight="bold" lengthAdjust="spacing" textLength="176" x="628.25" y="121.8218">Carica Mappe Disponibili</text><polygon fill="#000000" points="545.5,156.3506,555.5,160.3506,545.5,164.3506,549.5,160.3506" style="stroke:#000000;stroke-width:1.0;"/><line style="stroke:#000000;stroke-width:1.0;" x1="83.5" x2="551.5" y1="160.3506" y2="160.3506"/><text fill="#000000" font-family="Verdana" font-size="13" lengthAdjust="spacing" textLength="108" x="90.5" y="155.6211">GET /maps/slots</text><polygon fill="#000000" points="1351.5,186.1499,1361.5,190.1499,1351.5,194.1499,1355.5,190.1499" style="stroke:#000000;stroke-width:1.0;"/><line style="stroke:#000000;stroke-width:1.0;" x1="557.5" x2="1357.5" y1="190.1499" y2="190.1499"/><text fill="#000000" font-family="Verdana" font-size="13" lengthAdjust="spacing" textLength="298" x="564.5" y="185.4204">SELECT * FROM game_maps ORDER BY name</text><polygon fill="#000000" points="568.5,215.9492,558.5,219.9492,568.5,223.9492,564.5,219.9492" style="stroke:#000000;stroke-width:1.0;"/><line style="stroke:#000000;stroke-width:1.0;" x1="562.5" x2="1362.5" y1="219.9492" y2="219.9492"/><text fill="#000000" font-family="Verdana" font-size="13" lengthAdjust="spacing" textLength="78" x="574.5" y="215.2197">lista_mappe</text><polygon fill="#000000" points="94.5,245.7485,84.5,249.7485,94.5,253.7485,90.5,249.7485" style="stroke:#000000;stroke-width:1.0;"/><line style="stroke:#000000;stroke-width:1.0;" x1="88.5" x2="556.5" y1="249.7485" y2="249.7485"/><text fill="#000000" font-family="Verdana" font-size="13" lengthAdjust="spacing" textLength="448" x="100.5" y="245.019">[{id: 1, nome: "Deserto", cover_path: "/assets/covers/1.png"}, ...]</text><rect fill="#FFFFFF" height="3" style="stroke:#FFFFFF;stroke-width:1.0;" width="1428.5" x="5" y="278.6482"/><line style="stroke:#000000;stroke-width:0.5;" x1="5" x2="1433.5" y1="278.6482" y2="278.6482"/><line style="stroke:#000000;stroke-width:0.5;" x1="5" x2="1433.5" y1="281.6482" y2="281.6482"/><rect fill="#FFFFFF" height="23.7993" style="stroke:#000000;stroke-width:1.0;" width="155" x="641.75" y="267.7485"/><text fill="#000000" font-family="Verdana" font-size="13" font-weight="bold" lengthAdjust="spacing" textLength="137" x="647.75" y="284.8184">Genera Dati Mappa</text><polygon fill="#000000" points="545.5,319.3472,555.5,323.3472,545.5,327.3472,549.5,323.3472" style="stroke:#000000;stroke-width:1.0;"/><line style="stroke:#000000;stroke-width:1.0;" x1="83.5" x2="551.5" y1="323.3472" y2="323.3472"/><text fill="#000000" font-family="Verdana" font-size="13" lengthAdjust="spacing" textLength="171" x="90.5" y="318.6177">GET /maps/generate?id=1</text><polygon fill="#000000" points="1351.5,349.1465,1361.5,353.1465,1351.5,357.1465,1355.5,353.1465" style="stroke:#000000;stroke-width:1.0;"/><line style="stroke:#000000;stroke-width:1.0;" x1="557.5" x2="1357.5" y1="353.1465" y2="353.1465"/><text fill="#000000" font-family="Verdana" font-size="13" lengthAdjust="spacing" textLength="282" x="564.5" y="348.417">SELECT * FROM game_maps WHERE id = 1</text><polygon fill="#000000" points="568.5,378.9458,558.5,382.9458,568.5,386.9458,564.5,382.9458" style="stroke:#000000;stroke-width:1.0;"/><line style="stroke:#000000;stroke-width:1.0;" x1="562.5" x2="1362.5" y1="382.9458" y2="382.9458"/><text fill="#000000" font-family="Verdana" font-size="13" lengthAdjust="spacing" textLength="109" x="574.5" y="378.2163">metadati_mappa</text><polygon fill="#000000" points="800.5,408.7451,810.5,412.7451,800.5,416.7451,804.5,412.7451" style="stroke:#000000;stroke-width:1.0;"/><line style="stroke:#000000;stroke-width:1.0;" x1="557.5" x2="806.5" y1="412.7451" y2="412.7451"/><text fill="#000000" font-family="Verdana" font-size="13" lengthAdjust="spacing" textLength="209" x="564.5" y="408.0156">generaMappa(metadati_mappa)</text><line style="stroke:#000000;stroke-width:1.0;" x1="812.5" x2="854.5" y1="442.5444" y2="442.5444"/><line style="stroke:#000000;stroke-width:1.0;" x1="854.5" x2="854.5" y1="442.5444" y2="455.5444"/><line style="stroke:#000000;stroke-width:1.0;" x1="813.5" x2="854.5" y1="455.5444" y2="455.5444"/><polygon fill="#000000" points="823.5,451.5444,813.5,455.5444,823.5,459.5444,819.5,455.5444" style="stroke:#000000;stroke-width:1.0;"/><text fill="#000000" font-family="Verdana" font-size="13" lengthAdjust="spacing" textLength="175" x="819.5" y="437.8149">impostaSeed(mappa.seed)</text><line style="stroke:#000000;stroke-width:1.0;" x1="812.5" x2="854.5" y1="485.3438" y2="485.3438"/><line style="stroke:#000000;stroke-width:1.0;" x1="854.5" x2="854.5" y1="485.3438" y2="498.3438"/><line style="stroke:#000000;stroke-width:1.0;" x1="813.5" x2="854.5" y1="498.3438" y2="498.3438"/><polygon fill="#000000" points="823.5,494.3438,813.5,498.3438,823.5,502.3438,819.5,498.3438" style="stroke:#000000;stroke-width:1.0;"/><text fill="#000000" font-family="Verdana" font-size="13" lengthAdjust="spacing" textLength="176" x="819.5" y="480.6143">generaBiomi(mappa.bioma)</text><polygon fill="#000000" points="1351.5,524.1431,1361.5,528.1431,1351.5,532.1431,1355.5,528.1431" style="stroke:#000000;stroke-width:1.0;"/><line style="stroke:#000000;stroke-width:1.0;" x1="812.5" x2="1357.5" y1="528.1431" y2="528.1431"/><text fill="#000000" font-family="Verdana" font-size="13" lengthAdjust="spacing" textLength="335" x="819.5" y="523.4136">SELECT * FROM biomes WHERE game_maps_id = 1</text><polygon fill="#000000" points="823.5,553.9424,813.5,557.9424,823.5,561.9424,819.5,557.9424" style="stroke:#000000;stroke-width:1.0;"/><line style="stroke:#000000;stroke-width:1.0;" x1="817.5" x2="1362.5" y1="557.9424" y2="557.9424"/><text fill="#000000" font-family="Verdana" font-size="13" lengthAdjust="spacing" textLength="71" x="829.5" y="553.2129">dati_bioma</text><polygon fill="#000000" points="1351.5,583.7417,1361.5,587.7417,1351.5,591.7417,1355.5,587.7417" style="stroke:#000000;stroke-width:1.0;"/><line style="stroke:#000000;stroke-width:1.0;" x1="812.5" x2="1357.5" y1="587.7417" y2="587.7417"/><text fill="#000000" font-family="Verdana" font-size="13" lengthAdjust="spacing" textLength="363" x="819.5" y="583.0122">SELECT * FROM terrain_types WHERE biome_id IN (...)</text><polygon fill="#000000" points="823.5,613.541,813.5,617.541,823.5,621.541,819.5,617.541" style="stroke:#000000;stroke-width:1.0;"/><line style="stroke:#000000;stroke-width:1.0;" x1="817.5" x2="1362.5" y1="617.541" y2="617.541"/><text fill="#000000" font-family="Verdana" font-size="13" lengthAdjust="spacing" textLength="81" x="829.5" y="612.8115">dati_terreno</text><line style="stroke:#000000;stroke-width:1.0;" x1="812.5" x2="854.5" y1="647.3403" y2="647.3403"/><line style="stroke:#000000;stroke-width:1.0;" x1="854.5" x2="854.5" y1="647.3403" y2="660.3403"/><line style="stroke:#000000;stroke-width:1.0;" x1="813.5" x2="854.5" y1="660.3403" y2="660.3403"/><polygon fill="#000000" points="823.5,656.3403,813.5,660.3403,823.5,664.3403,819.5,660.3403" style="stroke:#000000;stroke-width:1.0;"/><text fill="#000000" font-family="Verdana" font-size="13" lengthAdjust="spacing" textLength="227" x="819.5" y="642.6108">generaTerreno(biomi, tipi_terreno)</text><line style="stroke:#000000;stroke-width:1.0;" x1="812.5" x2="854.5" y1="690.1396" y2="690.1396"/><line style="stroke:#000000;stroke-width:1.0;" x1="854.5" x2="854.5" y1="690.1396" y2="703.1396"/><line style="stroke:#000000;stroke-width:1.0;" x1="813.5" x2="854.5" y1="703.1396" y2="703.1396"/><polygon fill="#000000" points="823.5,699.1396,813.5,703.1396,823.5,707.1396,819.5,703.1396" style="stroke:#000000;stroke-width:1.0;"/><text fill="#000000" font-family="Verdana" font-size="13" lengthAdjust="spacing" textLength="125" x="819.5" y="685.4102">posizionaOstacoli()</text><line style="stroke:#000000;stroke-width:1.0;" x1="812.5" x2="854.5" y1="732.939" y2="732.939"/><line style="stroke:#000000;stroke-width:1.0;" x1="854.5" x2="854.5" y1="732.939" y2="745.939"/><line style="stroke:#000000;stroke-width:1.0;" x1="813.5" x2="854.5" y1="745.939" y2="745.939"/><polygon fill="#000000" points="823.5,741.939,813.5,745.939,823.5,749.939,819.5,745.939" style="stroke:#000000;stroke-width:1.0;"/><text fill="#000000" font-family="Verdana" font-size="13" lengthAdjust="spacing" textLength="142" x="819.5" y="728.2095">definisciPuntiSpawn()</text><polygon fill="#000000" points="568.5,771.7383,558.5,775.7383,568.5,779.7383,564.5,775.7383" style="stroke:#000000;stroke-width:1.0;"/><line style="stroke:#000000;stroke-width:1.0;" x1="562.5" x2="811.5" y1="775.7383" y2="775.7383"/><text fill="#000000" font-family="Verdana" font-size="13" lengthAdjust="spacing" textLength="143" x="574.5" y="771.0088">dati_mappa_generata</text><polygon fill="#000000" points="94.5,801.5376,84.5,805.5376,94.5,809.5376,90.5,805.5376" style="stroke:#000000;stroke-width:1.0;"/><line style="stroke:#000000;stroke-width:1.0;" x1="88.5" x2="556.5" y1="805.5376" y2="805.5376"/><text fill="#000000" font-family="Verdana" font-size="13" lengthAdjust="spacing" textLength="432" x="100.5" y="800.8081">{id: 1, seed: "123456", biomi: [...], terreno: [...], ostacoli: [...]}</text><rect fill="#FFFFFF" height="3" style="stroke:#FFFFFF;stroke-width:1.0;" width="1428.5" x="5" y="834.4373"/><line style="stroke:#000000;stroke-width:0.5;" x1="5" x2="1433.5" y1="834.4373" y2="834.4373"/><line style="stroke:#000000;stroke-width:0.5;" x1="5" x2="1433.5" y1="837.4373" y2="837.4373"/><rect fill="#FFFFFF" height="23.7993" style="stroke:#000000;stroke-width:1.0;" width="215" x="611.75" y="823.5376"/><text fill="#000000" font-family="Verdana" font-size="13" font-weight="bold" lengthAdjust="spacing" textLength="197" x="617.75" y="840.6074">Crea Mappa Personalizzata</text><polygon fill="#000000" points="545.5,875.1362,555.5,879.1362,545.5,883.1362,549.5,879.1362" style="stroke:#000000;stroke-width:1.0;"/><line style="stroke:#000000;stroke-width:1.0;" x1="83.5" x2="551.5" y1="879.1362" y2="879.1362"/><text fill="#000000" font-family="Verdana" font-size="13" lengthAdjust="spacing" textLength="450" x="90.5" y="874.4067">POST /maps/create {token, nome, descrizione, bioma, dati_mappa}</text><line style="stroke:#000000;stroke-width:1.0;" x1="557.5" x2="599.5" y1="908.9355" y2="908.9355"/><line style="stroke:#000000;stroke-width:1.0;" x1="599.5" x2="599.5" y1="908.9355" y2="921.9355"/><line style="stroke:#000000;stroke-width:1.0;" x1="558.5" x2="599.5" y1="921.9355" y2="921.9355"/><polygon fill="#000000" points="568.5,917.9355,558.5,921.9355,568.5,925.9355,564.5,921.9355" style="stroke:#000000;stroke-width:1.0;"/><text fill="#000000" font-family="Verdana" font-size="13" lengthAdjust="spacing" textLength="95" x="564.5" y="904.2061">valida_token()</text><polygon fill="#000000" points="800.5,947.7349,810.5,951.7349,800.5,955.7349,804.5,951.7349" style="stroke:#000000;stroke-width:1.0;"/><line style="stroke:#000000;stroke-width:1.0;" x1="557.5" x2="806.5" y1="951.7349" y2="951.7349"/><text fill="#000000" font-family="Verdana" font-size="13" lengthAdjust="spacing" textLength="195" x="564.5" y="947.0054">validaDatiMappa(dati_mappa)</text><line style="stroke:#000000;stroke-width:1.0;" x1="812.5" x2="854.5" y1="981.5342" y2="981.5342"/><line style="stroke:#000000;stroke-width:1.0;" x1="854.5" x2="854.5" y1="981.5342" y2="994.5342"/><line style="stroke:#000000;stroke-width:1.0;" x1="813.5" x2="854.5" y1="994.5342" y2="994.5342"/><polygon fill="#000000" points="823.5,990.5342,813.5,994.5342,823.5,998.5342,819.5,994.5342" style="stroke:#000000;stroke-width:1.0;"/><text fill="#000000" font-family="Verdana" font-size="13" lengthAdjust="spacing" textLength="267" x="819.5" y="976.8047">controllaDimensioniMappa(10000x10000)</text><line style="stroke:#000000;stroke-width:1.0;" x1="812.5" x2="854.5" y1="1024.3335" y2="1024.3335"/><line style="stroke:#000000;stroke-width:1.0;" x1="854.5" x2="854.5" y1="1024.3335" y2="1037.3335"/><line style="stroke:#000000;stroke-width:1.0;" x1="813.5" x2="854.5" y1="1037.3335" y2="1037.3335"/><polygon fill="#000000" points="823.5,1033.3335,813.5,1037.3335,823.5,1041.3335,819.5,1037.3335" style="stroke:#000000;stroke-width:1.0;"/><text fill="#000000" font-family="Verdana" font-size="13" lengthAdjust="spacing" textLength="127" x="819.5" y="1019.604">validaPuntiSpawn()</text><line style="stroke:#000000;stroke-width:1.0;" x1="812.5" x2="854.5" y1="1067.1328" y2="1067.1328"/><line style="stroke:#000000;stroke-width:1.0;" x1="854.5" x2="854.5" y1="1067.1328" y2="1080.1328"/><line style="stroke:#000000;stroke-width:1.0;" x1="813.5" x2="854.5" y1="1080.1328" y2="1080.1328"/><polygon fill="#000000" points="823.5,1076.1328,813.5,1080.1328,823.5,1084.1328,819.5,1080.1328" style="stroke:#000000;stroke-width:1.0;"/><text fill="#000000" font-family="Verdana" font-size="13" lengthAdjust="spacing" textLength="204" x="819.5" y="1062.4033">validaPosizionamentoOstacoli()</text><polygon fill="#000000" points="568.5,1105.9321,558.5,1109.9321,568.5,1113.9321,564.5,1109.9321" style="stroke:#000000;stroke-width:1.0;"/><line style="stroke:#000000;stroke-width:1.0;" x1="562.5" x2="811.5" y1="1109.9321" y2="1109.9321"/><text fill="#000000" font-family="Verdana" font-size="13" lengthAdjust="spacing" textLength="134" x="574.5" y="1105.2026">risultato_validazione</text><path d="M15,1124.9321 L79,1124.9321 L79,1132.7314 L69,1142.7314 L15,1142.7314 L15,1124.9321 " fill="#FFFFFF" style="stroke:#000000;stroke-width:1.0;"/><rect fill="none" height="360.9604" style="stroke:#000000;stroke-width:1.0;" width="1408.5" x="15" y="1124.9321"/><text fill="#000000" font-family="Verdana" font-size="13" font-weight="bold" lengthAdjust="spacing" textLength="19" x="30" y="1139.002">alt</text><text fill="#000000" font-family="Verdana" font-size="11" font-weight="bold" lengthAdjust="spacing" textLength="98" x="94" y="1137.9912">[Mappa Valida]</text><polygon fill="#000000" points="1351.5,1160.5308,1361.5,1164.5308,1351.5,1168.5308,1355.5,1164.5308" style="stroke:#000000;stroke-width:1.0;"/><line style="stroke:#000000;stroke-width:1.0;" x1="557.5" x2="1357.5" y1="1164.5308" y2="1164.5308"/><text fill="#000000" font-family="Verdana" font-size="13" lengthAdjust="spacing" textLength="139" x="564.5" y="1159.8013">BEGIN TRANSACTION</text><polygon fill="#000000" points="1351.5,1190.3301,1361.5,1194.3301,1351.5,1198.3301,1355.5,1194.3301" style="stroke:#000000;stroke-width:1.0;"/><line style="stroke:#000000;stroke-width:1.0;" x1="557.5" x2="1357.5" y1="1194.3301" y2="1194.3301"/><text fill="#000000" font-family="Verdana" font-size="13" lengthAdjust="spacing" textLength="168" x="564.5" y="1189.6006">INSERT INTO game_maps</text><polygon fill="#000000" points="568.5,1220.1294,558.5,1224.1294,568.5,1228.1294,564.5,1224.1294" style="stroke:#000000;stroke-width:1.0;"/><line style="stroke:#000000;stroke-width:1.0;" x1="562.5" x2="1362.5" y1="1224.1294" y2="1224.1294"/><text fill="#000000" font-family="Verdana" font-size="13" lengthAdjust="spacing" textLength="62" x="574.5" y="1219.3999">id_mappa</text><polygon fill="#000000" points="1351.5,1249.9287,1361.5,1253.9287,1351.5,1257.9287,1355.5,1253.9287" style="stroke:#000000;stroke-width:1.0;"/><line style="stroke:#000000;stroke-width:1.0;" x1="557.5" x2="1357.5" y1="1253.9287" y2="1253.9287"/><text fill="#000000" font-family="Verdana" font-size="13" lengthAdjust="spacing" textLength="136" x="564.5" y="1249.1992">INSERT INTO biomes</text><polygon fill="#000000" points="1351.5,1279.728,1361.5,1283.728,1351.5,1287.728,1355.5,1283.728" style="stroke:#000000;stroke-width:1.0;"/><line style="stroke:#000000;stroke-width:1.0;" x1="557.5" x2="1357.5" y1="1283.728" y2="1283.728"/><text fill="#000000" font-family="Verdana" font-size="13" lengthAdjust="spacing" textLength="179" x="564.5" y="1278.9985">INSERT INTO terrain_types</text><polygon fill="#000000" points="1081.5,1309.5273,1091.5,1313.5273,1081.5,1317.5273,1085.5,1313.5273" style="stroke:#000000;stroke-width:1.0;"/><line style="stroke:#000000;stroke-width:1.0;" x1="557.5" x2="1087.5" y1="1313.5273" y2="1313.5273"/><text fill="#000000" font-family="Verdana" font-size="13" lengthAdjust="spacing" textLength="234" x="564.5" y="1308.7979">salvaAssetMappa(id_mappa, asset)</text><polygon fill="#000000" points="568.5,1339.3267,558.5,1343.3267,568.5,1347.3267,564.5,1343.3267" style="stroke:#000000;stroke-width:1.0;"/><line style="stroke:#000000;stroke-width:1.0;" x1="562.5" x2="1092.5" y1="1343.3267" y2="1343.3267"/><text fill="#000000" font-family="Verdana" font-size="13" lengthAdjust="spacing" textLength="96" x="574.5" y="1338.5972">percorsi_asset</text><polygon fill="#000000" points="1351.5,1369.126,1361.5,1373.126,1351.5,1377.126,1355.5,1373.126" style="stroke:#000000;stroke-width:1.0;"/><line style="stroke:#000000;stroke-width:1.0;" x1="557.5" x2="1357.5" y1="1373.126" y2="1373.126"/><text fill="#000000" font-family="Verdana" font-size="13" lengthAdjust="spacing" textLength="271" x="564.5" y="1368.3965">UPDATE game_maps SET cover_path = ?</text><polygon fill="#000000" points="1351.5,1398.9253,1361.5,1402.9253,1351.5,1406.9253,1355.5,1402.9253" style="stroke:#000000;stroke-width:1.0;"/><line style="stroke:#000000;stroke-width:1.0;" x1="557.5" x2="1357.5" y1="1402.9253" y2="1402.9253"/><text fill="#000000" font-family="Verdana" font-size="13" lengthAdjust="spacing" textLength="55" x="564.5" y="1398.1958">COMMIT</text><polygon fill="#000000" points="94.5,1428.7246,84.5,1432.7246,94.5,1436.7246,90.5,1432.7246" style="stroke:#000000;stroke-width:1.0;"/><line style="stroke:#000000;stroke-width:1.0;" x1="88.5" x2="556.5" y1="1432.7246" y2="1432.7246"/><text fill="#000000" font-family="Verdana" font-size="13" lengthAdjust="spacing" textLength="220" x="100.5" y="1427.9951">{success: true, map_id: new_id}</text><line style="stroke:#000000;stroke-width:1.0;stroke-dasharray:2.0,2.0;" x1="15" x2="1423.5" y1="1441.7246" y2="1441.7246"/><text fill="#000000" font-family="Verdana" font-size="11" font-weight="bold" lengthAdjust="spacing" textLength="88" x="20" y="1452.7837">[Map Invalid]</text><polygon fill="#000000" points="94.5,1473.8926,84.5,1477.8926,94.5,1481.8926,90.5,1477.8926" style="stroke:#000000;stroke-width:1.0;"/><line style="stroke:#000000;stroke-width:1.0;" x1="88.5" x2="556.5" y1="1477.8926" y2="1477.8926"/><text fill="#000000" font-family="Verdana" font-size="13" lengthAdjust="spacing" textLength="294" x="100.5" y="1473.1631">{error: "Map validation failed", details: [...]}</text><rect fill="#FFFFFF" height="3" style="stroke:#FFFFFF;stroke-width:1.0;" width="1428.5" x="5" y="1513.7922"/><line style="stroke:#000000;stroke-width:0.5;" x1="5" x2="1433.5" y1="1513.7922" y2="1513.7922"/><line style="stroke:#000000;stroke-width:0.5;" x1="5" x2="1433.5" y1="1516.7922" y2="1516.7922"/><rect fill="#FFFFFF" height="23.7993" style="stroke:#000000;stroke-width:1.0;" width="155" x="641.75" y="1502.8926"/><text fill="#000000" font-family="Verdana" font-size="13" font-weight="bold" lengthAdjust="spacing" textLength="137" x="647.75" y="1519.9624">Upload Map Assets</text><polygon fill="#000000" points="545.5,1554.4912,555.5,1558.4912,545.5,1562.4912,549.5,1558.4912" style="stroke:#000000;stroke-width:1.0;"/><line style="stroke:#000000;stroke-width:1.0;" x1="83.5" x2="551.5" y1="1558.4912" y2="1558.4912"/><text fill="#000000" font-family="Verdana" font-size="13" lengthAdjust="spacing" textLength="347" x="90.5" y="1553.7617">POST /maps/upload-assets {token, map_id, assets}</text><line style="stroke:#000000;stroke-width:1.0;" x1="557.5" x2="599.5" y1="1588.2905" y2="1588.2905"/><line style="stroke:#000000;stroke-width:1.0;" x1="599.5" x2="599.5" y1="1588.2905" y2="1601.2905"/><line style="stroke:#000000;stroke-width:1.0;" x1="558.5" x2="599.5" y1="1601.2905" y2="1601.2905"/><polygon fill="#000000" points="568.5,1597.2905,558.5,1601.2905,568.5,1605.2905,564.5,1601.2905" style="stroke:#000000;stroke-width:1.0;"/><text fill="#000000" font-family="Verdana" font-size="13" lengthAdjust="spacing" textLength="109" x="564.5" y="1583.561">validate_token()</text><line style="stroke:#000000;stroke-width:1.0;" x1="557.5" x2="599.5" y1="1631.0898" y2="1631.0898"/><line style="stroke:#000000;stroke-width:1.0;" x1="599.5" x2="599.5" y1="1631.0898" y2="1644.0898"/><line style="stroke:#000000;stroke-width:1.0;" x1="558.5" x2="599.5" y1="1644.0898" y2="1644.0898"/><polygon fill="#000000" points="568.5,1640.0898,558.5,1644.0898,568.5,1648.0898,564.5,1644.0898" style="stroke:#000000;stroke-width:1.0;"/><text fill="#000000" font-family="Verdana" font-size="13" lengthAdjust="spacing" textLength="241" x="564.5" y="1626.3604">validate_ownership(user_id, map_id)</text><polygon fill="#000000" points="1081.5,1669.8892,1091.5,1673.8892,1081.5,1677.8892,1085.5,1673.8892" style="stroke:#000000;stroke-width:1.0;"/><line style="stroke:#000000;stroke-width:1.0;" x1="557.5" x2="1087.5" y1="1673.8892" y2="1673.8892"/><text fill="#000000" font-family="Verdana" font-size="13" lengthAdjust="spacing" textLength="190" x="564.5" y="1669.1597">validateAssetFormat(assets)</text><polygon fill="#000000" points="568.5,1699.6885,558.5,1703.6885,568.5,1707.6885,564.5,1703.6885" style="stroke:#000000;stroke-width:1.0;"/><line style="stroke:#000000;stroke-width:1.0;" x1="562.5" x2="1092.5" y1="1703.6885" y2="1703.6885"/><text fill="#000000" font-family="Verdana" font-size="13" lengthAdjust="spacing" textLength="108" x="574.5" y="1698.959">validation_result</text><path d="M15,1718.6885 L79,1718.6885 L79,1726.4878 L69,1736.4878 L15,1736.4878 L15,1718.6885 " fill="#FFFFFF" style="stroke:#000000;stroke-width:1.0;"/><rect fill="none" height="280.7632" style="stroke:#000000;stroke-width:1.0;" width="1408.5" x="15" y="1718.6885"/><text fill="#000000" font-family="Verdana" font-size="13" font-weight="bold" lengthAdjust="spacing" textLength="19" x="30" y="1732.7583">alt</text><text fill="#000000" font-family="Verdana" font-size="11" font-weight="bold" lengthAdjust="spacing" textLength="91" x="94" y="1731.7476">[Assets Valid]</text><line style="stroke:#000000;stroke-width:1.0;" x1="1093.5" x2="1135.5" y1="1758.2871" y2="1758.2871"/><line style="stroke:#000000;stroke-width:1.0;" x1="1135.5" x2="1135.5" y1="1758.2871" y2="1771.2871"/><line style="stroke:#000000;stroke-width:1.0;" x1="1094.5" x2="1135.5" y1="1771.2871" y2="1771.2871"/><polygon fill="#000000" points="1104.5,1767.2871,1094.5,1771.2871,1104.5,1775.2871,1100.5,1771.2871" style="stroke:#000000;stroke-width:1.0;"/><text fill="#000000" font-family="Verdana" font-size="13" lengthAdjust="spacing" textLength="113" x="1100.5" y="1753.5576">optimizeImages()</text><line style="stroke:#000000;stroke-width:1.0;" x1="1093.5" x2="1135.5" y1="1801.0864" y2="1801.0864"/><line style="stroke:#000000;stroke-width:1.0;" x1="1135.5" x2="1135.5" y1="1801.0864" y2="1814.0864"/><line style="stroke:#000000;stroke-width:1.0;" x1="1094.5" x2="1135.5" y1="1814.0864" y2="1814.0864"/><polygon fill="#000000" points="1104.5,1810.0864,1094.5,1814.0864,1104.5,1818.0864,1100.5,1814.0864" style="stroke:#000000;stroke-width:1.0;"/><text fill="#000000" font-family="Verdana" font-size="13" lengthAdjust="spacing" textLength="144" x="1100.5" y="1796.3569">generateThumbnails()</text><line style="stroke:#000000;stroke-width:1.0;" x1="1093.5" x2="1135.5" y1="1843.8857" y2="1843.8857"/><line style="stroke:#000000;stroke-width:1.0;" x1="1135.5" x2="1135.5" y1="1843.8857" y2="1856.8857"/><line style="stroke:#000000;stroke-width:1.0;" x1="1094.5" x2="1135.5" y1="1856.8857" y2="1856.8857"/><polygon fill="#000000" points="1104.5,1852.8857,1094.5,1856.8857,1104.5,1860.8857,1100.5,1856.8857" style="stroke:#000000;stroke-width:1.0;"/><text fill="#000000" font-family="Verdana" font-size="13" lengthAdjust="spacing" textLength="256" x="1100.5" y="1839.1563">saveAssets(map_id, optimized_assets)</text><polygon fill="#000000" points="568.5,1882.6851,558.5,1886.6851,568.5,1890.6851,564.5,1886.6851" style="stroke:#000000;stroke-width:1.0;"/><line style="stroke:#000000;stroke-width:1.0;" x1="562.5" x2="1092.5" y1="1886.6851" y2="1886.6851"/><text fill="#000000" font-family="Verdana" font-size="13" lengthAdjust="spacing" textLength="67" x="574.5" y="1881.9556">asset_urls</text><polygon fill="#000000" points="1351.5,1912.4844,1361.5,1916.4844,1351.5,1920.4844,1355.5,1916.4844" style="stroke:#000000;stroke-width:1.0;"/><line style="stroke:#000000;stroke-width:1.0;" x1="557.5" x2="1357.5" y1="1916.4844" y2="1916.4844"/><text fill="#000000" font-family="Verdana" font-size="13" lengthAdjust="spacing" textLength="239" x="564.5" y="1911.7549">UPDATE game_maps SET assets = ?</text><polygon fill="#000000" points="94.5,1942.2837,84.5,1946.2837,94.5,1950.2837,90.5,1946.2837" style="stroke:#000000;stroke-width:1.0;"/><line style="stroke:#000000;stroke-width:1.0;" x1="88.5" x2="556.5" y1="1946.2837" y2="1946.2837"/><text fill="#000000" font-family="Verdana" font-size="13" lengthAdjust="spacing" textLength="222" x="100.5" y="1941.5542">{success: true, asset_urls: [...]}</text><line style="stroke:#000000;stroke-width:1.0;stroke-dasharray:2.0,2.0;" x1="15" x2="1423.5" y1="1955.2837" y2="1955.2837"/><text fill="#000000" font-family="Verdana" font-size="11" font-weight="bold" lengthAdjust="spacing" textLength="105" x="20" y="1966.3428">[Assets Invalid]</text><polygon fill="#000000" points="94.5,1987.4517,84.5,1991.4517,94.5,1995.4517,90.5,1991.4517" style="stroke:#000000;stroke-width:1.0;"/><line style="stroke:#000000;stroke-width:1.0;" x1="88.5" x2="556.5" y1="1991.4517" y2="1991.4517"/><text fill="#000000" font-family="Verdana" font-size="13" lengthAdjust="spacing" textLength="200" x="100.5" y="1986.7222">{error: "Invalid asset format"}</text><rect fill="#FFFFFF" height="3" style="stroke:#FFFFFF;stroke-width:1.0;" width="1428.5" x="5" y="2027.3513"/><line style="stroke:#000000;stroke-width:0.5;" x1="5" x2="1433.5" y1="2027.3513" y2="2027.3513"/><line style="stroke:#000000;stroke-width:0.5;" x1="5" x2="1433.5" y1="2030.3513" y2="2030.3513"/><rect fill="#FFFFFF" height="23.7993" style="stroke:#000000;stroke-width:1.0;" width="83" x="677.75" y="2016.4517"/><text fill="#000000" font-family="Verdana" font-size="13" font-weight="bold" lengthAdjust="spacing" textLength="65" x="683.75" y="2033.5215">Test Map</text><polygon fill="#000000" points="545.5,2068.0503,555.5,2072.0503,545.5,2076.0503,549.5,2072.0503" style="stroke:#000000;stroke-width:1.0;"/><line style="stroke:#000000;stroke-width:1.0;" x1="83.5" x2="551.5" y1="2072.0503" y2="2072.0503"/><text fill="#000000" font-family="Verdana" font-size="13" lengthAdjust="spacing" textLength="228" x="90.5" y="2067.3208">POST /maps/test {token, map_id}</text><line style="stroke:#000000;stroke-width:1.0;" x1="557.5" x2="599.5" y1="2101.8496" y2="2101.8496"/><line style="stroke:#000000;stroke-width:1.0;" x1="599.5" x2="599.5" y1="2101.8496" y2="2114.8496"/><line style="stroke:#000000;stroke-width:1.0;" x1="558.5" x2="599.5" y1="2114.8496" y2="2114.8496"/><polygon fill="#000000" points="568.5,2110.8496,558.5,2114.8496,568.5,2118.8496,564.5,2114.8496" style="stroke:#000000;stroke-width:1.0;"/><text fill="#000000" font-family="Verdana" font-size="13" lengthAdjust="spacing" textLength="109" x="564.5" y="2097.1201">validate_token()</text><polygon fill="#000000" points="1351.5,2140.6489,1361.5,2144.6489,1351.5,2148.6489,1355.5,2144.6489" style="stroke:#000000;stroke-width:1.0;"/><line style="stroke:#000000;stroke-width:1.0;" x1="557.5" x2="1357.5" y1="2144.6489" y2="2144.6489"/><text fill="#000000" font-family="Verdana" font-size="13" lengthAdjust="spacing" textLength="419" x="564.5" y="2139.9194">SELECT * FROM game_maps WHERE id = ? AND created_by = ?</text><polygon fill="#000000" points="568.5,2170.4482,558.5,2174.4482,568.5,2178.4482,564.5,2174.4482" style="stroke:#000000;stroke-width:1.0;"/><line style="stroke:#000000;stroke-width:1.0;" x1="562.5" x2="1362.5" y1="2174.4482" y2="2174.4482"/><text fill="#000000" font-family="Verdana" font-size="13" lengthAdjust="spacing" textLength="65" x="574.5" y="2169.7188">map_data</text><polygon fill="#000000" points="800.5,2200.2476,810.5,2204.2476,800.5,2208.2476,804.5,2204.2476" style="stroke:#000000;stroke-width:1.0;"/><line style="stroke:#000000;stroke-width:1.0;" x1="557.5" x2="806.5" y1="2204.2476" y2="2204.2476"/><text fill="#000000" font-family="Verdana" font-size="13" lengthAdjust="spacing" textLength="162" x="564.5" y="2199.5181">runMapTests(map_data)</text><line style="stroke:#000000;stroke-width:1.0;" x1="812.5" x2="854.5" y1="2234.0469" y2="2234.0469"/><line style="stroke:#000000;stroke-width:1.0;" x1="854.5" x2="854.5" y1="2234.0469" y2="2247.0469"/><line style="stroke:#000000;stroke-width:1.0;" x1="813.5" x2="854.5" y1="2247.0469" y2="2247.0469"/><polygon fill="#000000" points="823.5,2243.0469,813.5,2247.0469,823.5,2251.0469,819.5,2247.0469" style="stroke:#000000;stroke-width:1.0;"/><text fill="#000000" font-family="Verdana" font-size="13" lengthAdjust="spacing" textLength="112" x="819.5" y="2229.3174">testPathfinding()</text><line style="stroke:#000000;stroke-width:1.0;" x1="812.5" x2="854.5" y1="2276.8462" y2="2276.8462"/><line style="stroke:#000000;stroke-width:1.0;" x1="854.5" x2="854.5" y1="2276.8462" y2="2289.8462"/><line style="stroke:#000000;stroke-width:1.0;" x1="813.5" x2="854.5" y1="2289.8462" y2="2289.8462"/><polygon fill="#000000" points="823.5,2285.8462,813.5,2289.8462,823.5,2293.8462,819.5,2289.8462" style="stroke:#000000;stroke-width:1.0;"/><text fill="#000000" font-family="Verdana" font-size="13" lengthAdjust="spacing" textLength="123" x="819.5" y="2272.1167">testSpawnPoints()</text><line style="stroke:#000000;stroke-width:1.0;" x1="812.5" x2="854.5" y1="2319.6455" y2="2319.6455"/><line style="stroke:#000000;stroke-width:1.0;" x1="854.5" x2="854.5" y1="2319.6455" y2="2332.6455"/><line style="stroke:#000000;stroke-width:1.0;" x1="813.5" x2="854.5" y1="2332.6455" y2="2332.6455"/><polygon fill="#000000" points="823.5,2328.6455,813.5,2332.6455,823.5,2336.6455,819.5,2332.6455" style="stroke:#000000;stroke-width:1.0;"/><text fill="#000000" font-family="Verdana" font-size="13" lengthAdjust="spacing" textLength="121" x="819.5" y="2314.916">testPerformance()</text><polygon fill="#000000" points="568.5,2358.4448,558.5,2362.4448,568.5,2366.4448,564.5,2362.4448" style="stroke:#000000;stroke-width:1.0;"/><line style="stroke:#000000;stroke-width:1.0;" x1="562.5" x2="811.5" y1="2362.4448" y2="2362.4448"/><text fill="#000000" font-family="Verdana" font-size="13" lengthAdjust="spacing" textLength="79" x="574.5" y="2357.7153">test_results</text><polygon fill="#000000" points="94.5,2388.2441,84.5,2392.2441,94.5,2396.2441,90.5,2392.2441" style="stroke:#000000;stroke-width:1.0;"/><line style="stroke:#000000;stroke-width:1.0;" x1="88.5" x2="556.5" y1="2392.2441" y2="2392.2441"/><text fill="#000000" font-family="Verdana" font-size="13" lengthAdjust="spacing" textLength="351" x="100.5" y="2387.5146">{passed: true, performance_score: 85, issues: [...]}</text><!--SRC=[ZLRRRkCs47tNLqpzv1HEKhVTeZ3W1hwjQw2E3KkxHL4K0YDndK4bKYMff9j5_hr3Kf8bETd63vRCEJoSovcXlp7tFETGP0n541Wq6OUGgmTyGWbRLXGSBc69xAXOdZD8aQp_b5myiI0ec3AOOC64WS4YGqxFDSf43e1fM2-wWDb-umcTbNvrpMikk696Ajv2RTTTK4XsTkmWmYvYoGoxOzeRb_CWc4vXmHGch8fcYRgG0kymGvXEW_K2Bd-ntanWlOhWEcU5ljQPD3gm3fDjEPz0kFfjjOZWMtX_s6tXo78UMo3i3ilL0UP_WA2bO3blk3BKXbbCmMkUzM82Vtx1T0BZ4GYPymbvopLNHWv6aCW7hkA2cNjQlcPQSwEltQA-7byLuZXu7i7LrTLVBYAVBA1WqON5NWtbwDFARp2TZjyIqk-_hWuhm1IcC6v7b7F3KZhF1SLgfkrw0lu8vyQmYxe8jkiQXNaXAISXv-dG6QyqlROHdcUECiSASKVl3ScvqzRCQu-R2EAExvROEUIuNgKoN2dgWDXyBXf6Hs_PDhSmfDHVz2dj9YxaMGYHNnzQ0Xo1mQB1jkEbVDWk4sn7UKbaXiEsDUMVKA1ES5yAWs717aLZTmKvfJckYipQKgkLPhDCaXf__yEFxtuYeJcdI8bMIoEet6f-oygLQk7Pzu_Yh9BPdlH87cVuz4JdzLIttuMrx1BQOZXyCV9lBhpSHnIIJfGBcNi_sAWLnNFjlUDwe3DI5hlz57TBRjvYfUybzxBS4YcCabd6bfXpeUdC2Zx-ZZx_kkysthE-aEkMiQuN4HfvLZJdja9TPeR6MEptk623W6McIk17jnm0VLhDE5-jIMJHONORpXRHPdVR1snkmzKXeaUqEodTWLejYcdLd5_Px7lcQuXEAxI1st02ccKFR6QdayzcVUG8tCYwSFXjsBXKS9L8fJ5svlwn7_RBMTHgNMhAg3K9gOrl-biMk-rs4xLNdTXrcIHSwmaOLPAuY2os-XVyaPxF0S-qkpHW8rnTplPJp59HcrYChvoXoi4dXXbF1rQwXbvrqnPSfAurFXIPPAcZTbdHhxT4wQ2NVhGtdU4zhTAdN-e1m_jTq3NAHsf-VO_5iAJBn95vqbFNX2Uuy_AzL3apGtycwJViirBiiU9MobwxLMmVczpvBPPO5WPpVEARd2vcFRpecUlx9xelypjXStW6qUp1kwM7TJPgqZIkVUpfoYt7fShqcpHL9RsdfvUKSo8-rTgAfyh0_-cdidiQ-EJoF3Z99UBQ3OBNLM8ieYkEjudYZNVw3Snkb-37SnhVVNOvQL_pT6JQkahi-5Eb89-jxxv2rjuUZzRdFVKhNLWfYkEmRtC3TIzH67rceml5PKaal3j9hR7IeExSQuNDRLhNgpZjZpMD6lfNzVEx4Q3M9J-Ly3y0]--></g></svg>