<?xml version="1.0" encoding="us-ascii" standalone="no"?><svg xmlns="http://www.w3.org/2000/svg" xmlns:xlink="http://www.w3.org/1999/xlink" contentStyleType="text/css" height="1670px" preserveAspectRatio="none" style="width:1418px;height:1670px;background:#FFFFFF;" version="1.1" viewBox="0 0 1418 1670" width="1418px" zoomAndPan="magnify"><defs/><g><text fill="#000000" font-family="Verdana" font-size="22" font-weight="bold" lengthAdjust="spacing" textLength="541" x="434" y="37.1182">Servizio Mappe - Diagramma dei Casi d'Uso</text><!--cluster Sistema Gestione Mappe--><g id="cluster_Sistema Gestione Mappe"><path d="M342.5,1251.7373 L531.5,1251.7373 A3.75,3.75 0 0 1 534,1254.2373 L541,1274.752 L598.5,1274.752 A2.5,2.5 0 0 1 601,1277.252 L601,1661.2373 A2.5,2.5 0 0 1 598.5,1663.7373 L342.5,1663.7373 A2.5,2.5 0 0 1 340,1661.2373 L340,1254.2373 A2.5,2.5 0 0 1 342.5,1251.7373 " fill="#FFFFFF" style="stroke:#000000;stroke-width:1.0;"/><line style="stroke:#000000;stroke-width:1.0;" x1="340" x2="541" y1="1274.752" y2="1274.752"/><text fill="#000000" font-family="Verdana" font-size="14" font-weight="bold" lengthAdjust="spacing" textLength="188" x="344" y="1267.8125">Sistema Gestione Mappe</text></g><!--cluster Sistema Creazione Mappe--><g id="cluster_Sistema Creazione Mappe"><path d="M346,58.7373 L545,58.7373 A3.75,3.75 0 0 1 547.5,61.2373 L554.5,81.752 L1046.5,81.752 A2.5,2.5 0 0 1 1049,84.252 L1049,435.2373 A2.5,2.5 0 0 1 1046.5,437.7373 L346,437.7373 A2.5,2.5 0 0 1 343.5,435.2373 L343.5,61.2373 A2.5,2.5 0 0 1 346,58.7373 " fill="#FFFFFF" style="stroke:#000000;stroke-width:1.0;"/><line style="stroke:#000000;stroke-width:1.0;" x1="343.5" x2="554.5" y1="81.752" y2="81.752"/><text fill="#000000" font-family="Verdana" font-size="14" font-weight="bold" lengthAdjust="spacing" textLength="198" x="347.5" y="74.8125">Sistema Creazione Mappe</text></g><!--cluster Sistema Generazione Mappe--><g id="cluster_Sistema Generazione Mappe"><path d="M815,489.7373 L1033,489.7373 A3.75,3.75 0 0 1 1035.5,492.2373 L1042.5,512.752 L1387.5,512.752 A2.5,2.5 0 0 1 1390,515.252 L1390,802.2373 A2.5,2.5 0 0 1 1387.5,804.7373 L815,804.7373 A2.5,2.5 0 0 1 812.5,802.2373 L812.5,492.2373 A2.5,2.5 0 0 1 815,489.7373 " fill="#FFFFFF" style="stroke:#000000;stroke-width:1.0;"/><line style="stroke:#000000;stroke-width:1.0;" x1="812.5" x2="1042.5" y1="512.752" y2="512.752"/><text fill="#000000" font-family="Verdana" font-size="14" font-weight="bold" lengthAdjust="spacing" textLength="217" x="816.5" y="505.8125">Sistema Generazione Mappe</text></g><!--cluster Sistema Archiviazione Mappe--><g id="cluster_Sistema Archiviazione Mappe"><path d="M809.5,828.7373 L1034.5,828.7373 A3.75,3.75 0 0 1 1037,831.2373 L1044,851.752 L1044.5,851.752 A2.5,2.5 0 0 1 1047,854.252 L1047,1147.2373 A2.5,2.5 0 0 1 1044.5,1149.7373 L809.5,1149.7373 A2.5,2.5 0 0 1 807,1147.2373 L807,831.2373 A2.5,2.5 0 0 1 809.5,828.7373 " fill="#FFFFFF" style="stroke:#000000;stroke-width:1.0;"/><line style="stroke:#000000;stroke-width:1.0;" x1="807" x2="1044" y1="851.752" y2="851.752"/><text fill="#000000" font-family="Verdana" font-size="14" font-weight="bold" lengthAdjust="spacing" textLength="224" x="811" y="844.8125">Sistema Archiviazione Mappe</text></g><g id="elem_UC1"><ellipse cx="470.3576" cy="1537.5088" fill="#FFFFFF" rx="104.3576" ry="23.2715" style="stroke:#000000;stroke-width:1.0;"/><text fill="#000000" font-family="Verdana" font-size="14" lengthAdjust="spacing" textLength="172" x="384.3576" y="1541.0767">Sfoglia Mappe Disponibili</text></g><g id="elem_UC2"><ellipse cx="470.4377" cy="1621.5248" fill="#FFFFFF" rx="114.4377" ry="25.2875" style="stroke:#000000;stroke-width:1.0;"/><text fill="#000000" font-family="Verdana" font-size="14" lengthAdjust="spacing" textLength="194" x="373.4377" y="1625.0927">Seleziona Mappa per Partita</text></g><g id="elem_UC3"><ellipse cx="470.3622" cy="1306.6098" fill="#FFFFFF" rx="82.3622" ry="18.8724" style="stroke:#000000;stroke-width:1.0;"/><text fill="#000000" font-family="Verdana" font-size="14" lengthAdjust="spacing" textLength="122" x="409.3622" y="1310.1776">Anteprima Mappa</text></g><g id="elem_UC4"><ellipse cx="470.6017" cy="1378.8576" fill="#FFFFFF" rx="78.6017" ry="18.1203" style="stroke:#000000;stroke-width:1.0;"/><text fill="#000000" font-family="Verdana" font-size="14" lengthAdjust="spacing" textLength="113" x="414.1017" y="1382.4255">Condividi Mappa</text></g><g id="elem_UC6"><ellipse cx="470.2661" cy="1455.6905" fill="#FFFFFF" rx="105.2661" ry="23.4532" style="stroke:#000000;stroke-width:1.0;"/><text fill="#000000" font-family="Verdana" font-size="14" lengthAdjust="spacing" textLength="174" x="383.2661" y="1459.2584">Segnala Problema Mappa</text></g><g id="elem_UC7"><ellipse cx="470.711" cy="188.8795" fill="#FFFFFF" rx="111.211" ry="24.6422" style="stroke:#000000;stroke-width:1.0;"/><text fill="#000000" font-family="Verdana" font-size="14" lengthAdjust="spacing" textLength="187" x="377.211" y="192.4474">Crea Mappa Personalizzata</text></g><g id="elem_UC8"><ellipse cx="470.3299" cy="265.7033" fill="#FFFFFF" rx="75.3299" ry="17.466" style="stroke:#000000;stroke-width:1.0;"/><text fill="#000000" font-family="Verdana" font-size="14" lengthAdjust="spacing" textLength="105" x="417.8299" y="269.2712">Modifica Mappa</text></g><g id="elem_UC9"><ellipse cx="470.3042" cy="404.6981" fill="#FFFFFF" rx="70.3042" ry="16.4608" style="stroke:#000000;stroke-width:1.0;"/><text fill="#000000" font-family="Verdana" font-size="14" lengthAdjust="spacing" textLength="92" x="421.7331" y="408.8946">Carica Mappa</text></g><g id="elem_UC10"><ellipse cx="470.5625" cy="111.6498" fill="#FFFFFF" rx="72.5625" ry="16.9125" style="stroke:#000000;stroke-width:1.0;"/><text fill="#000000" font-family="Verdana" font-size="14" lengthAdjust="spacing" textLength="98" x="420.2528" y="115.5564">Elimina Mappa</text></g><g id="elem_UC11"><ellipse cx="927.1764" cy="367.8726" fill="#FFFFFF" rx="106.1764" ry="23.6353" style="stroke:#000000;stroke-width:1.0;"/><text fill="#000000" font-family="Verdana" font-size="14" lengthAdjust="spacing" textLength="176" x="839.1764" y="371.4405">Imposta Propriet&#224; Mappa</text></g><g id="elem_UC12"><ellipse cx="927.2172" cy="253.9807" fill="#FFFFFF" rx="69.2172" ry="16.2434" style="stroke:#000000;stroke-width:1.0;"/><text fill="#000000" font-family="Verdana" font-size="14" lengthAdjust="spacing" textLength="89" x="879.7172" y="258.2683">Testa Mappa</text></g><g id="elem_UC13"><ellipse cx="470.7349" cy="335.7843" fill="#FFFFFF" rx="75.7349" ry="17.547" style="stroke:#000000;stroke-width:1.0;"/><text fill="#000000" font-family="Verdana" font-size="14" lengthAdjust="spacing" textLength="106" x="417.7349" y="339.3522">Pubblica Mappa</text></g><g id="elem_UC14"><ellipse cx="926.9967" cy="655.8366" fill="#FFFFFF" rx="98.4967" ry="22.0993" style="stroke:#000000;stroke-width:1.0;"/><text fill="#000000" font-family="Verdana" font-size="14" lengthAdjust="spacing" textLength="159" x="847.4967" y="659.4045">Genera Mappa Casuale</text></g><g id="elem_UC15"><ellipse cx="1277.1962" cy="689.8766" fill="#FFFFFF" rx="86.1962" ry="19.6392" style="stroke:#000000;stroke-width:1.0;"/><text fill="#000000" font-family="Verdana" font-size="14" lengthAdjust="spacing" textLength="131" x="1211.6962" y="693.4444">Genera Dati Bioma</text></g><g id="elem_UC16"><ellipse cx="1277.1326" cy="544.8638" fill="#FFFFFF" rx="83.6326" ry="19.1265" style="stroke:#000000;stroke-width:1.0;"/><text fill="#000000" font-family="Verdana" font-size="14" lengthAdjust="spacing" textLength="125" x="1214.6326" y="548.4317">Posiziona Ostacoli</text></g><g id="elem_UC17"><ellipse cx="1276.8664" cy="616.6106" fill="#FFFFFF" rx="77.3664" ry="17.8733" style="stroke:#000000;stroke-width:1.0;"/><text fill="#000000" font-family="Verdana" font-size="14" lengthAdjust="spacing" textLength="110" x="1221.8664" y="620.1785">Genera Terreno</text></g><g id="elem_UC18"><ellipse cx="926.9388" cy="556.6251" fill="#FFFFFF" rx="69.9388" ry="16.3878" style="stroke:#000000;stroke-width:1.0;"/><text fill="#000000" font-family="Verdana" font-size="14" lengthAdjust="spacing" textLength="91" x="878.6491" y="560.8685">Valida Mappa</text></g><g id="elem_UC19"><ellipse cx="1277.1561" cy="766.5685" fill="#FFFFFF" rx="97.1561" ry="21.8312" style="stroke:#000000;stroke-width:1.0;"/><text fill="#000000" font-family="Verdana" font-size="14" lengthAdjust="spacing" textLength="156" x="1199.1561" y="770.1364">Salva Mappa Generata</text></g><g id="elem_UC20"><ellipse cx="927.0473" cy="962.9468" fill="#FFFFFF" rx="94.0473" ry="21.2095" style="stroke:#000000;stroke-width:1.0;"/><text fill="#000000" font-family="Verdana" font-size="14" lengthAdjust="spacing" textLength="149" x="852.5473" y="966.5146">Archivia Asset Mappa</text></g><g id="elem_UC21"><ellipse cx="927.1917" cy="1041.8756" fill="#FFFFFF" rx="101.1917" ry="22.6383" style="stroke:#000000;stroke-width:1.0;"/><text fill="#000000" font-family="Verdana" font-size="14" lengthAdjust="spacing" textLength="165" x="844.6917" y="1045.4435">Gestisci Versioni Mappa</text></g><g id="elem_UC22"><ellipse cx="927.2319" cy="1116.8837" fill="#FFFFFF" rx="73.7319" ry="17.1464" style="stroke:#000000;stroke-width:1.0;"/><text fill="#000000" font-family="Verdana" font-size="14" lengthAdjust="spacing" textLength="101" x="876.0219" y="1120.6402">Backup Mappe</text></g><g id="elem_UC23"><ellipse cx="927.0473" cy="885.9468" fill="#FFFFFF" rx="94.0473" ry="21.2095" style="stroke:#000000;stroke-width:1.0;"/><text fill="#000000" font-family="Verdana" font-size="14" lengthAdjust="spacing" textLength="149" x="852.5473" y="889.5146">Ottimizza Dati Mappa</text></g><!--entity player--><g id="elem_player"><ellipse cx="66.5" cy="1425.7373" fill="#FFFFFF" rx="8" ry="8" style="stroke:#000000;stroke-width:1.0;"/><path d="M66.5,1433.7373 L66.5,1460.7373 M53.5,1441.7373 L79.5,1441.7373 M66.5,1460.7373 L53.5,1475.7373 M66.5,1460.7373 L79.5,1475.7373 " fill="none" style="stroke:#000000;stroke-width:1.0;"/><text fill="#000000" font-family="Verdana" font-size="14" lengthAdjust="spacing" textLength="67" x="33" y="1491.8125">Giocatore</text></g><!--entity creator--><g id="elem_creator"><ellipse cx="66.5" cy="305.7373" fill="#FFFFFF" rx="8" ry="8" style="stroke:#000000;stroke-width:1.0;"/><path d="M66.5,313.7373 L66.5,340.7373 M53.5,321.7373 L79.5,321.7373 M66.5,340.7373 L53.5,355.7373 M66.5,340.7373 L79.5,355.7373 " fill="none" style="stroke:#000000;stroke-width:1.0;"/><text fill="#000000" font-family="Verdana" font-size="14" lengthAdjust="spacing" textLength="111" x="11" y="371.8125">Creatore Mappe</text></g><!--entity system--><g id="elem_system"><ellipse cx="470.5" cy="1049.7373" fill="#FFFFFF" rx="8" ry="8" style="stroke:#000000;stroke-width:1.0;"/><path d="M470.5,1057.7373 L470.5,1084.7373 M457.5,1065.7373 L483.5,1065.7373 M470.5,1084.7373 L457.5,1099.7373 M470.5,1084.7373 L483.5,1099.7373 " fill="none" style="stroke:#000000;stroke-width:1.0;"/><text fill="#000000" font-family="Verdana" font-size="14" lengthAdjust="spacing" textLength="56" x="442.5" y="1115.8125">Sistema</text></g><g id="elem_GMN63"><path d="M822,1516.7373 L822,1533.7373 L575.2,1537.7373 L822,1541.7373 L822,1558.3359 A0,0 0 0 0 822,1558.3359 L1032,1558.3359 A0,0 0 0 0 1032,1558.3359 L1032,1526.7373 L1022,1516.7373 L822,1516.7373 A0,0 0 0 0 822,1516.7373 " fill="#FFFFFF" style="stroke:#000000;stroke-width:1.0;"/><path d="M1022,1516.7373 L1022,1526.7373 L1032,1526.7373 L1022,1516.7373 " fill="#FFFFFF" style="stroke:#000000;stroke-width:1.0;"/><text fill="#000000" font-family="Verdana" font-size="13" lengthAdjust="spacing" textLength="189" x="828" y="1534.8071">Mostra 10 mappe predefinite</text><text fill="#000000" font-family="Verdana" font-size="13" lengthAdjust="spacing" textLength="180" x="828" y="1550.6064">pi&#249; mappe create da utenti</text></g><g id="elem_GMN66"><path d="M1159.5,431.7373 L1159.5,473.3359 L1394.5,473.3359 L1394.5,441.7373 L1384.5,431.7373 L1159.5,431.7373 " fill="#FFFFFF" style="stroke:#000000;stroke-width:1.0;"/><path d="M1384.5,431.7373 L1384.5,441.7373 L1394.5,441.7373 L1384.5,431.7373 " fill="#FFFFFF" style="stroke:#000000;stroke-width:1.0;"/><text fill="#000000" font-family="Verdana" font-size="13" lengthAdjust="spacing" textLength="214" x="1165.5" y="449.8071">Usa generazione basata su seed</text><text fill="#000000" font-family="Verdana" font-size="13" lengthAdjust="spacing" textLength="147" x="1165.5" y="465.6064">per mappe riproducibili</text></g><g id="elem_GMN69"><path d="M1143,354.7373 L1143,396.3359 L1411,396.3359 L1411,364.7373 L1401,354.7373 L1143,354.7373 " fill="#FFFFFF" style="stroke:#000000;stroke-width:1.0;"/><path d="M1401,354.7373 L1401,364.7373 L1411,364.7373 L1401,354.7373 " fill="#FFFFFF" style="stroke:#000000;stroke-width:1.0;"/><text fill="#000000" font-family="Verdana" font-size="13" lengthAdjust="spacing" textLength="220" x="1149" y="372.8071">Valida dimensioni (10000x10000),</text><text fill="#000000" font-family="Verdana" font-size="13" lengthAdjust="spacing" textLength="247" x="1149" y="388.6064">posizionamento ostacoli, punti spawn</text></g><!--link player to UC1--><g id="link_player_UC1"><path d="M100.18,1466.3173 C115.76,1471.1273 134.73,1476.6473 152,1480.7373 C229.52,1499.1073 312.9945,1513.715 377.1345,1523.915 " fill="none" id="player-to-UC1" style="stroke:#000000;stroke-width:1.0;"/><polygon fill="#000000" points="383.06,1524.8573,374.7999,1519.4935,378.122,1524.072,373.5435,1527.3942,383.06,1524.8573" style="stroke:#000000;stroke-width:1.0;"/><text fill="#000000" font-family="Verdana" font-size="13" lengthAdjust="spacing" textLength="159" x="158.5" y="1477.8071">sfoglia collezione mappe</text></g><!--link player to UC2--><g id="link_player_UC2"><path d="M99.41,1495.0373 C113.96,1510.6773 132.33,1527.5773 152,1538.7373 C219.39,1576.9773 298.8783,1596.9817 364.1283,1608.3017 " fill="none" id="player-to-UC2" style="stroke:#000000;stroke-width:1.0;"/><polygon fill="#000000" points="370.04,1609.3273,361.8562,1603.8478,365.1136,1608.4726,360.4887,1611.73,370.04,1609.3273" style="stroke:#000000;stroke-width:1.0;"/><text fill="#000000" font-family="Verdana" font-size="13" lengthAdjust="spacing" textLength="165" x="155.5" y="1535.8071">sceglie mappa per match</text></g><!--link player to UC3--><g id="link_player_UC3"><path d="M99.24,1416.4573 C113.76,1400.9273 132.15,1384.3073 152,1373.7373 C226.72,1333.9673 317.1288,1318.384 383.9988,1311.814 " fill="none" id="player-to-UC3" style="stroke:#000000;stroke-width:1.0;"/><polygon fill="#000000" points="389.97,1311.2273,380.622,1308.1265,384.994,1311.7162,381.4042,1316.0882,389.97,1311.2273" style="stroke:#000000;stroke-width:1.0;"/><text fill="#000000" font-family="Verdana" font-size="13" lengthAdjust="spacing" textLength="170" x="153" y="1318.8071">anteprima prima selezione</text></g><!--link player to UC4--><g id="link_player_UC4"><path d="M100.15,1445.0373 C115.73,1440.1973 134.7,1434.6973 152,1430.7373 C237.21,1411.2373 330.9548,1396.9561 395.5648,1388.1661 " fill="none" id="player-to-UC4" style="stroke:#000000;stroke-width:1.0;"/><polygon fill="#000000" points="401.51,1387.3573,392.0529,1384.6071,396.5556,1388.0313,393.1314,1392.534,401.51,1387.3573" style="stroke:#000000;stroke-width:1.0;"/><text fill="#000000" font-family="Verdana" font-size="13" lengthAdjust="spacing" textLength="110" x="183" y="1395.8071">condivide mappa</text></g><!--link player to UC6--><g id="link_player_UC6"><path d="M100.06,1455.7373 C156.97,1455.7373 270.86,1455.7373 358.69,1455.7373 " fill="none" id="player-to-UC6" style="stroke:#000000;stroke-width:1.0;"/><polygon fill="#000000" points="364.69,1455.7373,355.69,1451.7373,359.69,1455.7373,355.69,1459.7373,364.69,1455.7373" style="stroke:#000000;stroke-width:1.0;"/><text fill="#000000" font-family="Verdana" font-size="13" lengthAdjust="spacing" textLength="109" x="183.5" y="1452.8071">segnala problemi</text></g><!--link creator to UC7--><g id="link_creator_UC7"><path d="M101.6,296.4373 C115.85,282.2773 133.4,267.4073 152,257.7373 C218.56,223.1173 295.7026,206.6304 360.1926,198.0304 " fill="none" id="creator-to-UC7" style="stroke:#000000;stroke-width:1.0;"/><polygon fill="#000000" points="366.14,197.2373,356.6902,194.4621,361.1839,197.8982,357.7477,202.3919,366.14,197.2373" style="stroke:#000000;stroke-width:1.0;"/><text fill="#000000" font-family="Verdana" font-size="13" lengthAdjust="spacing" textLength="122" x="177" y="201.8071">crea nuova mappa</text></g><!--link creator to UC8--><g id="link_creator_UC8"><path d="M122.23,319.0473 C132.09,316.3773 142.31,313.8073 152,311.7373 C237.25,293.5373 330.9596,281.0855 395.5696,273.6255 " fill="none" id="creator-to-UC8" style="stroke:#000000;stroke-width:1.0;"/><polygon fill="#000000" points="401.53,272.9373,392.1306,269.996,396.563,273.5108,393.0482,277.9432,401.53,272.9373" style="stroke:#000000;stroke-width:1.0;"/><text fill="#000000" font-family="Verdana" font-size="13" lengthAdjust="spacing" textLength="168" x="154" y="279.8071">modifica mappa esistente</text></g><!--link creator to UC9--><g id="link_creator_UC9"><path d="M122.19,353.2173 C132.05,355.9973 142.28,358.6373 152,360.7373 C238.62,379.4473 334.3725,391.2838 398.8825,398.0238 " fill="none" id="creator-to-UC9" style="stroke:#000000;stroke-width:1.0;"/><polygon fill="#000000" points="404.85,398.6473,396.3144,393.7337,399.8771,398.1277,395.4831,401.6904,404.85,398.6473" style="stroke:#000000;stroke-width:1.0;"/><text fill="#000000" font-family="Verdana" font-size="13" lengthAdjust="spacing" textLength="109" x="183.5" y="357.8071">carica sul server</text></g><!--link creator to UC10--><g id="link_creator_UC10"><path d="M78.38,296.4473 C90.43,260.4973 113.41,208.6273 152,179.7373 C223.64,126.0973 322.5234,113.0396 391.8734,110.6996 " fill="none" id="creator-to-UC10" style="stroke:#000000;stroke-width:1.0;"/><polygon fill="#000000" points="397.87,110.4973,388.7402,106.8031,392.8728,110.6659,389.01,114.7985,397.87,110.4973" style="stroke:#000000;stroke-width:1.0;"/><text fill="#000000" font-family="Verdana" font-size="13" lengthAdjust="spacing" textLength="149" x="163.5" y="114.8071">rimuove proprie mappe</text></g><!--link creator to UC11--><g id="link_creator_UC11"><path d="M115.37,374.9373 C126.91,383.2173 139.52,391.3673 152,397.7373 C226.85,435.9773 248.97,442.6873 332,455.7373 C532.87,487.2973 592.53,474.7173 788,418.7373 C817.59,410.2673 844.3104,400.6483 870.2204,390.5383 " fill="none" id="creator-to-UC11" style="stroke:#000000;stroke-width:1.0;"/><polygon fill="#000000" points="875.81,388.3573,865.9717,387.9025,871.152,390.1748,868.8797,395.3552,875.81,388.3573" style="stroke:#000000;stroke-width:1.0;"/><text fill="#000000" font-family="Verdana" font-size="13" lengthAdjust="spacing" textLength="222" x="359.5" y="452.8071">imposta nome, descrizione, bioma</text></g><!--link creator to UC12--><g id="link_creator_UC12"><path d="M113.75,374.8173 C214.92,455.4273 458.82,622.5473 609,497.7373 C623.95,485.3173 603.73,468.9373 617,454.7373 C670.58,397.3973 735.98,469.4973 788,410.7373 C812.96,382.5473 778.06,358.0273 799,326.7373 C819.08,296.7273 850.3619,279.7062 879.2219,268.5762 " fill="none" id="creator-to-UC12" style="stroke:#000000;stroke-width:1.0;"/><polygon fill="#000000" points="884.82,266.4173,874.9835,265.9236,880.1549,268.2164,877.8621,273.3878,884.82,266.4173" style="stroke:#000000;stroke-width:1.0;"/><text fill="#000000" font-family="Verdana" font-size="13" lengthAdjust="spacing" textLength="115" x="413" y="494.8071">testa funzionalit&#224;</text></g><!--link creator to UC13--><g id="link_creator_UC13"><path d="M122.13,335.7373 C192.66,335.7373 309.68,335.7373 388.8,335.7373 " fill="none" id="creator-to-UC13" style="stroke:#000000;stroke-width:1.0;"/><polygon fill="#000000" points="394.8,335.7373,385.8,331.7373,389.8,335.7373,385.8,339.7373,394.8,335.7373" style="stroke:#000000;stroke-width:1.0;"/><text fill="#000000" font-family="Verdana" font-size="13" lengthAdjust="spacing" textLength="144" x="166" y="332.8071">rende mappa pubblica</text></g><!--link system to UC14--><g id="link_system_UC14"><path d="M495.91,1040.7073 C522.69,999.5773 568.39,934.1773 617,885.7373 C706.54,796.5273 827.2002,716.8545 886.8902,679.5945 " fill="none" id="system-to-UC14" style="stroke:#000000;stroke-width:1.0;"/><polygon fill="#000000" points="891.98,676.4173,882.2273,677.7899,887.7385,679.0649,886.4635,684.5762,891.98,676.4173" style="stroke:#000000;stroke-width:1.0;"/><text fill="#000000" font-family="Verdana" font-size="13" lengthAdjust="spacing" textLength="130" x="637.5" y="744.8071">auto-genera mappe</text></g><!--link system to UC15--><g id="link_system_UC15"><path d="M498.62,1110.5873 C529.28,1146.8873 578.83,1210.0473 609,1271.7373 C614.5,1282.9773 607.7,1290.3573 617,1298.7373 C762.67,1430.0773 868.12,1385.5873 1057,1332.7373 C1085.04,1324.8873 1098.06,1323.7273 1113,1298.7373 C1178.31,1189.4873 1063.37,826.0373 1143,726.7373 C1155.9,710.6573 1169.3547,702.7978 1189.2147,697.3378 " fill="none" id="system-to-UC15" style="stroke:#000000;stroke-width:1.0;"/><polygon fill="#000000" points="1195,695.7473,1185.2616,694.2762,1190.1789,697.0727,1187.3823,701.99,1195,695.7473" style="stroke:#000000;stroke-width:1.0;"/><text fill="#000000" font-family="Verdana" font-size="13" lengthAdjust="spacing" textLength="118" x="868" y="1329.8071">crea layout bioma</text></g><!--link system to UC16--><g id="link_system_UC16"><path d="M498.61,1089.0373 C602.22,1123.8073 971.66,1240.4673 1057,1166.7373 C1106.8,1123.7173 1099.31,629.9473 1143,580.7373 C1156.98,564.9973 1171.2511,557.3295 1191.5911,552.0695 " fill="none" id="system-to-UC16" style="stroke:#000000;stroke-width:1.0;"/><polygon fill="#000000" points="1197.4,550.5673,1187.6852,548.948,1192.5592,551.8191,1189.6881,556.6932,1197.4,550.5673" style="stroke:#000000;stroke-width:1.0;"/><text fill="#000000" font-family="Verdana" font-size="13" lengthAdjust="spacing" textLength="183" x="835.5" y="1163.8071">posiziona ostacoli strategici</text></g><!--link system to UC17--><g id="link_system_UC17"><path d="M498.69,1113.3073 C525.46,1143.9573 569.19,1188.0073 617,1211.7373 C792.69,1298.9373 868.12,1298.5873 1057,1245.7373 C1085.04,1237.8873 1098.05,1236.7173 1113,1211.7373 C1176.89,1104.9973 1064.77,749.4673 1143,652.7373 C1157.21,635.1573 1173.2105,626.9928 1195.1105,621.9928 " fill="none" id="system-to-UC17" style="stroke:#000000;stroke-width:1.0;"/><polygon fill="#000000" points="1200.96,620.6573,1191.2954,618.7609,1196.0854,621.7702,1193.0761,626.5602,1200.96,620.6573" style="stroke:#000000;stroke-width:1.0;"/><text fill="#000000" font-family="Verdana" font-size="13" lengthAdjust="spacing" textLength="134" x="860" y="1242.8071">genera terreno base</text></g><!--link system to UC18--><g id="link_system_UC18"><path d="M478.1,1040.5373 C491.95,969.1473 530.25,816.6273 617,722.7373 C674.73,660.2573 727.35,696.3873 788,636.7373 C795.51,629.3473 791.37,623.0073 799,615.7373 C822.14,593.6773 849.3605,580.6999 875.8605,571.3699 " fill="none" id="system-to-UC18" style="stroke:#000000;stroke-width:1.0;"/><polygon fill="#000000" points="881.52,569.3773,871.7024,568.5932,876.8038,571.0378,874.3592,576.1391,881.52,569.3773" style="stroke:#000000;stroke-width:1.0;"/><text fill="#000000" font-family="Verdana" font-size="13" lengthAdjust="spacing" textLength="157" x="624" y="633.8071">controlla validit&#224; mappa</text></g><!--link system to UC19--><g id="link_system_UC19"><path d="M498.76,1107.0573 C531.56,1141.8973 585.17,1205.5873 609,1271.7373 C617.61,1295.6273 600.1,1366.7773 617,1385.7373 C747.52,1532.1473 868.12,1472.5873 1057,1419.7373 C1085.04,1411.8873 1095.58,1409.0673 1113,1385.7373 C1258.93,1190.2773 1274.3488,880.9265 1275.7988,794.9765 " fill="none" id="system-to-UC19" style="stroke:#000000;stroke-width:1.0;"/><polygon fill="#000000" points="1275.9,788.9773,1271.7488,797.9086,1275.8157,793.9766,1279.7476,798.0435,1275.9,788.9773" style="stroke:#000000;stroke-width:1.0;"/><text fill="#000000" font-family="Verdana" font-size="13" lengthAdjust="spacing" textLength="124" x="865" y="1416.8071">salva nel database</text></g><!--link system to UC20--><g id="link_system_UC20"><path d="M498.52,1069.1073 C527.49,1057.9873 574.99,1040.5373 617,1028.7373 C696.62,1006.3773 783.722,988.569 846.732,976.799 " fill="none" id="system-to-UC20" style="stroke:#000000;stroke-width:1.0;"/><polygon fill="#000000" points="852.63,975.6973,843.0485,973.4179,847.715,976.6154,844.5175,981.2819,852.63,975.6973" style="stroke:#000000;stroke-width:1.0;"/><text fill="#000000" font-family="Verdana" font-size="13" lengthAdjust="spacing" textLength="169" x="618" y="986.8071">gestisce archiviazione file</text></g><!--link system to UC21--><g id="link_system_UC21"><path d="M498.57,1077.4773 C562.78,1072.1073 720.8109,1058.8976 825.9909,1050.0976 " fill="none" id="system-to-UC21" style="stroke:#000000;stroke-width:1.0;"/><polygon fill="#000000" points="831.97,1049.5973,822.6678,1046.3616,826.9874,1050.0142,823.3348,1054.3338,831.97,1049.5973" style="stroke:#000000;stroke-width:1.0;"/><text fill="#000000" font-family="Verdana" font-size="13" lengthAdjust="spacing" textLength="126" x="639.5" y="1050.8071">gestisce versioning</text></g><!--link system to UC22--><g id="link_system_UC22"><path d="M498.67,1086.0573 C527.76,1092.5173 575.37,1102.2273 617,1106.7373 C697.58,1115.4673 784.6,1117.3677 847.36,1117.4677 " fill="none" id="system-to-UC22" style="stroke:#000000;stroke-width:1.0;"/><polygon fill="#000000" points="853.36,1117.4773,844.3664,1113.463,848.36,1117.4693,844.3536,1121.463,853.36,1117.4773" style="stroke:#000000;stroke-width:1.0;"/><text fill="#000000" font-family="Verdana" font-size="13" lengthAdjust="spacing" textLength="99" x="653" y="1103.8071">esegue backup</text></g><!--link system to UC23--><g id="link_system_UC23"><path d="M498.58,1052.4973 C526.1,1026.3073 571.12,987.4473 617,964.7373 C690.45,928.3873 776.336,908.6796 840.716,897.6596 " fill="none" id="system-to-UC23" style="stroke:#000000;stroke-width:1.0;"/><polygon fill="#000000" points="846.63,896.6473,837.0842,894.2231,841.7017,897.4909,838.4339,902.1084,846.63,896.6473" style="stroke:#000000;stroke-width:1.0;"/><text fill="#000000" font-family="Verdana" font-size="13" lengthAdjust="spacing" textLength="146" x="629.5" y="907.8071">ottimizza performance</text></g><!--link UC7 to UC11--><g id="link_UC7_UC11"><path d="M565.1,201.7273 C581.79,208.0273 597.49,217.2573 609,230.7373 C625.61,250.1873 599.97,268.6473 617,287.7373 C645.91,320.1473 749.3438,341.9188 829.7938,354.6588 " fill="none" id="UC7-to-UC11" style="stroke:#000000;stroke-width:1.0;stroke-dasharray:7.0,7.0;"/><polygon fill="#000000" points="835.72,355.5973,827.4564,350.2388,830.7815,354.8153,826.2051,358.1404,835.72,355.5973" style="stroke:#000000;stroke-width:1.0;"/><text fill="#000000" font-family="Verdana" font-size="13" lengthAdjust="spacing" textLength="46" x="679.5" y="284.8071">include</text></g><!--link UC7 to UC12--><g id="link_UC7_UC12"><path d="M565.37,201.4673 C628.37,210.0873 713.2,221.8473 788,232.7373 C814.74,236.6273 838.4292,240.2085 863.3592,244.0285 " fill="none" id="UC7-to-UC12" style="stroke:#000000;stroke-width:1.0;stroke-dasharray:7.0,7.0;"/><polygon fill="#000000" points="869.29,244.9373,860.9997,239.6203,864.3477,244.18,859.788,247.528,869.29,244.9373" style="stroke:#000000;stroke-width:1.0;"/><text fill="#000000" font-family="Verdana" font-size="13" lengthAdjust="spacing" textLength="46" x="679.5" y="206.8071">include</text></g><!--link UC8 to UC11--><g id="link_UC8_UC11"><path d="M545.48,268.4273 C569.01,273.0673 593.04,282.4573 609,300.7373 C619.3,312.5273 605.32,360.3173 617,370.7373 C686.35,432.6173 797.6362,411.1667 866.0262,389.6667 " fill="none" id="UC8-to-UC11" style="stroke:#000000;stroke-width:1.0;stroke-dasharray:7.0,7.0;"/><polygon fill="#000000" points="871.75,387.8673,861.9647,386.7506,866.9802,389.3668,864.3639,394.3823,871.75,387.8673" style="stroke:#000000;stroke-width:1.0;"/><text fill="#000000" font-family="Verdana" font-size="13" lengthAdjust="spacing" textLength="46" x="679.5" y="367.8071">include</text></g><!--link UC8 to UC12--><g id="link_UC8_UC12"><path d="M545.53,263.7873 C632.19,261.4973 768.4821,257.8954 852.3121,255.6854 " fill="none" id="UC8-to-UC12" style="stroke:#000000;stroke-width:1.0;stroke-dasharray:7.0,7.0;"/><polygon fill="#000000" points="858.31,255.5273,849.2077,251.7659,853.3117,255.6591,849.4185,259.7631,858.31,255.5273" style="stroke:#000000;stroke-width:1.0;"/><text fill="#000000" font-family="Verdana" font-size="13" lengthAdjust="spacing" textLength="46" x="679.5" y="254.8071">include</text></g><!--link UC9 to UC18--><g id="link_UC9_UC18"><path d="M537.4,409.9873 C563.76,415.6173 591.89,426.7973 609,448.7373 C626.12,470.6873 596.7,554.6973 617,573.7373 C693.41,645.4173 827.1871,600.3954 889.2271,573.7454 " fill="none" id="UC9-to-UC18" style="stroke:#000000;stroke-width:1.0;stroke-dasharray:7.0,7.0;"/><polygon fill="#000000" points="894.74,571.3773,884.8919,571.2542,890.1459,573.3507,888.0494,578.6048,894.74,571.3773" style="stroke:#000000;stroke-width:1.0;"/><text fill="#000000" font-family="Verdana" font-size="13" lengthAdjust="spacing" textLength="46" x="679.5" y="570.8071">include</text></g><!--link UC13 to UC18--><g id="link_UC13_UC18"><path d="M545.39,338.5073 C568.91,343.1473 592.96,352.5273 609,370.7373 C628.24,392.5773 599.15,412.7473 617,435.7373 C676.08,511.8573 783.9129,539.2906 855.7029,549.7706 " fill="none" id="UC13-to-UC18" style="stroke:#000000;stroke-width:1.0;stroke-dasharray:7.0,7.0;"/><polygon fill="#000000" points="861.64,550.6373,853.3122,545.3792,856.6924,549.9151,852.1566,553.2953,861.64,550.6373" style="stroke:#000000;stroke-width:1.0;"/><text fill="#000000" font-family="Verdana" font-size="13" lengthAdjust="spacing" textLength="46" x="679.5" y="432.8071">include</text></g><!--link UC14 to UC15--><g id="link_UC14_UC15"><path d="M993.1,672.0873 C1015.71,677.0773 1041.34,681.9773 1065,684.7373 C1106.31,689.5573 1146.4601,691.0547 1185.0501,691.2647 " fill="none" id="UC14-to-UC15" style="stroke:#000000;stroke-width:1.0;stroke-dasharray:7.0,7.0;"/><polygon fill="#000000" points="1191.05,691.2973,1182.0719,687.2484,1186.0501,691.2701,1182.0284,695.2483,1191.05,691.2973" style="stroke:#000000;stroke-width:1.0;"/><text fill="#000000" font-family="Verdana" font-size="13" lengthAdjust="spacing" textLength="46" x="1066" y="681.8071">include</text></g><!--link UC14 to UC16--><g id="link_UC14_UC16"><path d="M978.49,636.9773 C1021.84,621.1473 1086.16,598.3173 1143,580.7373 C1168.25,572.9273 1190.6781,566.6765 1214.6181,560.3665 " fill="none" id="UC14-to-UC16" style="stroke:#000000;stroke-width:1.0;stroke-dasharray:7.0,7.0;"/><polygon fill="#000000" points="1220.42,558.8373,1210.6977,557.2632,1215.5851,560.1117,1212.7367,564.999,1220.42,558.8373" style="stroke:#000000;stroke-width:1.0;"/><text fill="#000000" font-family="Verdana" font-size="13" lengthAdjust="spacing" textLength="46" x="1066" y="589.8071">include</text></g><!--link UC14 to UC17--><g id="link_UC14_UC17"><path d="M1015.37,645.9473 C1074.66,639.2973 1146.0073,631.3052 1200.9973,625.1452 " fill="none" id="UC14-to-UC17" style="stroke:#000000;stroke-width:1.0;stroke-dasharray:7.0,7.0;"/><polygon fill="#000000" points="1206.96,624.4773,1197.5706,621.5041,1201.9911,625.0339,1198.4612,629.4544,1206.96,624.4773" style="stroke:#000000;stroke-width:1.0;"/><text fill="#000000" font-family="Verdana" font-size="13" lengthAdjust="spacing" textLength="46" x="1066" y="632.8071">include</text></g><!--link UC14 to UC19--><g id="link_UC14_UC19"><path d="M969.28,675.6373 C996.11,688.0373 1032.11,703.6873 1065,714.7373 C1110.42,729.9973 1156.8427,741.6166 1198.0027,750.7566 " fill="none" id="UC14-to-UC19" style="stroke:#000000;stroke-width:1.0;stroke-dasharray:7.0,7.0;"/><polygon fill="#000000" points="1203.86,752.0573,1195.9411,746.2014,1198.9789,750.9734,1194.2069,754.0112,1203.86,752.0573" style="stroke:#000000;stroke-width:1.0;"/><text fill="#000000" font-family="Verdana" font-size="13" lengthAdjust="spacing" textLength="46" x="1066" y="711.8071">include</text></g><!--link UC14 to GMN66--><g id="link_UC14_GMN66"><path d="M985.32,637.9073 C1010.28,627.6173 1038.08,612.3373 1057,590.7373 C1064.13,582.5973 1058.6,576.4673 1065,567.7373 C1090.56,532.9073 1105.56,531.2873 1143,509.7373 C1166.95,495.9573 1194.88,483.4973 1218.94,473.7573 " fill="none" id="UC14-GMN66" style="stroke:#000000;stroke-width:1.0;stroke-dasharray:7.0,7.0;"/></g><!--link UC18 to GMN69--><g id="link_UC18_GMN69"><path d="M947.47,540.8773 C973.74,519.0173 1021.35,477.7973 1057,437.7373 C1061.02,433.2173 1059.98,430.0973 1065,426.7373 C1088.18,411.2273 1115.59,400.4273 1142.85,392.9073 " fill="none" id="UC18-GMN69" style="stroke:#000000;stroke-width:1.0;stroke-dasharray:7.0,7.0;"/></g><!--SRC=[VLPDRnit4BtlhvZcaXQm0qd-adC8uDY5aOCHeuvpweNYZkH1kUI2vAgDY_wN_esUyySwi-Gg9YrR1q4QlftXp7jlf9_Y0tO8lL5acoPID0XtwBVqI0vkLDyZ7C8LgOrNNQUWHO9B5GZQj_V1DOt1TOJemDFc8K9B7dKanvcKZix3csjoMl4dV0CgI9LlwAUpIu_ZKIep0dGAJOWx2X4xDHw5R_AvQNgb_r0Rt1t2DGOfkKlpTmFy6W9g5GIsTXj3AlToHQ5tbbPaQCnwVpclu6YGMxVf0GKzUhXLdWUZyWEBye4B6x7trEK7CkYe15qwszAMMYf0ntNfZLL6mQrtAuDLmjFcdpszomWVNsbUpdCZj-W3jsNeyL7jUZahuJUkfJNfilAoIgbyZJWl4RyQwiYMaFcin7pgUXVYs2iF3-FtVqjunSeN5721g6Yu7LOhKrziVhHtQjTeqRywjuJ8asEz3yhWbFDuB_HAHOAFvBfTxPFgWYvG4jPdxaMx7m8ytPlm2tgFrasWYgclJ6HRDLiHTQVCTceXvTpHFZ_VEvSBhnzOfQzEPiB0HGWOYmiiPdKZRCoW2Rwoz3XbAVv5HV57litGFza53Aau_XmZAulrcwPTP1kPVWkVs8s9MeBDj7kQj7VWyF23D0_l8UIbm3GakoDqKhX4BWIfaP7fE6s3JaNzK0AF6AXsUo2zXxn8gfp73DLv6-Ii9U1KYkPDqATDG7LdUjgSuwK1cXp8ASwaXZZV3euba8gKa2L3kidjgJSC8WEkKa7F9LioVHWCtyrlUOUNcFcCGTmsrqEvjNWwJxG2olGfcz-w3W_u9oLeFrg3lwp4GVKpmaCSDy1wiAE73F76g6720bkctP6LLq8zlP3atgHVbEbf8KODqHrkal_IxKlCoJHO9imDCT-sn0X__SxhBdiTGcJ_uOOqLNWXAvUCoVAmOhLNg6MIJVGiM0LRSR-C87DROeMmC9hVee6MRVyyuM8sbXqDYg0Auw_9rEZvK_GsszbkAfJmXApT0Ra5SNDrBWIvdOVPIsldEsKr2aE_eKdyD2BWT-z-gCLgCxJuDBmemilzwEL-zFaKNXPXLi_- -F4KFtaXVlf2_Eo5-FcJU6DTnFpdoQtpShfn8XPWJoLxznvRN9EbYB_Rdhx_b-EZ_949Xa5yIy-JYQRlWyhwIkoo5bWHR6LsChQSS5nfaiyJExSTzFZlw7aocKl-sMcfGvjM-i_p6R_-6jz_EU1qa_GPmVyB9_qVi1lvYX1wzQTj_WS0]--></g></svg>