<?xml version="1.0" encoding="us-ascii" standalone="no"?><svg xmlns="http://www.w3.org/2000/svg" xmlns:xlink="http://www.w3.org/1999/xlink" contentStyleType="text/css" height="2703px" preserveAspectRatio="none" style="width:958px;height:2703px;background:#FFFFFF;" version="1.1" viewBox="0 0 958 2703" width="958px" zoomAndPan="magnify"><defs/><g><text fill="#000000" font-family="Verdana" font-size="22" font-weight="bold" lengthAdjust="spacing" textLength="925" x="15" y="37.1182">Servizio Mappe - Diagramma delle Attivit&#224; (Processo Generazione Mappa)</text><ellipse cx="479" cy="62.7373" fill="#FFFFFF" rx="10" ry="10" style="stroke:#000000;stroke-width:1.0;"/><rect fill="#FFFFFF" height="34.584" rx="12.5" ry="12.5" style="stroke:#000000;stroke-width:1.0;" width="242" x="358" y="92.7373"/><text fill="#000000" font-family="Verdana" font-size="12" lengthAdjust="spacing" textLength="222" x="368" y="114.8018">Ricevi richiesta generazione mappa</text><rect fill="#FFFFFF" height="34.584" rx="12.5" ry="12.5" style="stroke:#000000;stroke-width:1.0;" width="278" x="340" y="147.3213"/><text fill="#000000" font-family="Verdana" font-size="12" lengthAdjust="spacing" textLength="258" x="350" y="169.3857">Estrai parametri mappa (id, seed, bioma)</text><rect fill="#FFFFFF" height="34.584" rx="12.5" ry="12.5" style="stroke:#000000;stroke-width:1.0;" width="182" x="388" y="250.5896"/><text fill="#000000" font-family="Verdana" font-size="12" lengthAdjust="spacing" textLength="162" x="398" y="272.6541">Carica dati mappa cached</text><rect fill="#FFFFFF" height="34.584" rx="12.5" ry="12.5" style="stroke:#000000;stroke-width:1.0;" width="187" x="385.5" y="305.1736"/><text fill="#000000" font-family="Verdana" font-size="12" lengthAdjust="spacing" textLength="167" x="395.5" y="327.238">Restituisci risultato cached</text><ellipse cx="479" cy="370.7576" fill="none" rx="11" ry="11" style="stroke:#000000;stroke-width:1.0;"/><ellipse cx="479" cy="370.7576" fill="#FFFFFF" rx="6" ry="6" style="stroke:#000000;stroke-width:1.0;"/><polygon fill="#FFFFFF" points="405,201.9053,553,201.9053,565,213.9053,553,225.9053,405,225.9053,393,213.9053,405,201.9053" style="stroke:#000000;stroke-width:1.0;"/><text fill="#000000" font-family="Verdana" font-size="11" lengthAdjust="spacing" textLength="9" x="483" y="236.9644">s&#236;</text><text fill="#000000" font-family="Verdana" font-size="11" lengthAdjust="spacing" textLength="148" x="405" y="218.28">Mappa esiste nella cache?</text><rect fill="#FFFFFF" height="34.584" rx="12.5" ry="12.5" style="stroke:#000000;stroke-width:1.0;" width="265" x="346.5" y="423.7576"/><text fill="#000000" font-family="Verdana" font-size="12" lengthAdjust="spacing" textLength="245" x="356.5" y="445.822">Inizializza Generatore Mappe con seed</text><rect fill="#FFFFFF" height="247.3506" style="stroke:#000000;stroke-width:1.0;" width="311" x="323.5" y="468.3416"/><path d="M482.5,468.3416 L482.5,478.3562 L472.5,488.3562 L323.5,488.3562 " fill="none" style="stroke:#000000;stroke-width:1.0;"/><text fill="#000000" font-family="Verdana" font-size="14" lengthAdjust="spacing" textLength="149" x="326.5" y="483.4167">Genera Terreno Base</text><rect fill="#FFFFFF" height="34.584" rx="12.5" ry="12.5" style="stroke:#000000;stroke-width:1.0;" width="289" x="334.5" y="505.3562"/><text fill="#000000" font-family="Verdana" font-size="12" lengthAdjust="spacing" textLength="269" x="344.5" y="527.4207">Crea generatori di rumore (Perlin, Simplex)</text><rect fill="#FFFFFF" height="34.584" rx="12.5" ry="12.5" style="stroke:#000000;stroke-width:1.0;" width="264" x="347" y="559.9402"/><text fill="#000000" font-family="Verdana" font-size="12" lengthAdjust="spacing" textLength="244" x="357" y="582.0046">Genera mappa altezze (10000x10000)</text><rect fill="#FFFFFF" height="34.584" rx="12.5" ry="12.5" style="stroke:#000000;stroke-width:1.0;" width="291" x="333.5" y="614.5242"/><text fill="#000000" font-family="Verdana" font-size="12" lengthAdjust="spacing" textLength="271" x="343.5" y="636.5886">Applica regole terreno specifiche per bioma</text><rect fill="#FFFFFF" height="34.584" rx="12.5" ry="12.5" style="stroke:#000000;stroke-width:1.0;" width="209" x="374.5" y="669.1082"/><text fill="#000000" font-family="Verdana" font-size="12" lengthAdjust="spacing" textLength="189" x="384.5" y="691.1726">Crea distribuzione tipi terreno</text><rect fill="#FFFFFF" height="247.3506" style="stroke:#000000;stroke-width:1.0;" width="301" x="328.5" y="725.6921"/><path d="M489.5,725.6921 L489.5,735.7068 L479.5,745.7068 L328.5,745.7068 " fill="none" style="stroke:#000000;stroke-width:1.0;"/><text fill="#000000" font-family="Verdana" font-size="14" lengthAdjust="spacing" textLength="151" x="331.5" y="740.7673">Genera Layout Bioma</text><rect fill="#FFFFFF" height="34.584" rx="12.5" ry="12.5" style="stroke:#000000;stroke-width:1.0;" width="281" x="338.5" y="762.7068"/><text fill="#000000" font-family="Verdana" font-size="12" lengthAdjust="spacing" textLength="261" x="348.5" y="784.7712">Carica configurazione bioma da database</text><rect fill="#FFFFFF" height="34.584" rx="12.5" ry="12.5" style="stroke:#000000;stroke-width:1.0;" width="234" x="362" y="817.2908"/><text fill="#000000" font-family="Verdana" font-size="12" lengthAdjust="spacing" textLength="214" x="372" y="839.3552">Applica regole miscelazione bioma</text><rect fill="#FFFFFF" height="34.584" rx="12.5" ry="12.5" style="stroke:#000000;stroke-width:1.0;" width="217" x="370.5" y="871.8748"/><text fill="#000000" font-family="Verdana" font-size="12" lengthAdjust="spacing" textLength="197" x="380.5" y="893.9392">Genera zone transizione bioma</text><rect fill="#FFFFFF" height="34.584" rx="12.5" ry="12.5" style="stroke:#000000;stroke-width:1.0;" width="239" x="359.5" y="926.4587"/><text fill="#000000" font-family="Verdana" font-size="12" lengthAdjust="spacing" textLength="219" x="369.5" y="948.5232">Valida percentuali copertura bioma</text><rect fill="#FFFFFF" height="299.3506" style="stroke:#000000;stroke-width:1.0;" width="922" x="18" y="983.0427"/><path d="M273,983.0427 L273,993.0574 L263,1003.0574 L18,1003.0574 " fill="none" style="stroke:#000000;stroke-width:1.0;"/><text fill="#000000" font-family="Verdana" font-size="14" lengthAdjust="spacing" textLength="245" x="21" y="998.1179">Posiziona Ostacoli e Caratteristiche</text><rect fill="#FFFFFF" height="34.584" rx="12.5" ry="12.5" style="stroke:#000000;stroke-width:1.0;" width="235" x="361.5" y="1020.0574"/><text fill="#000000" font-family="Verdana" font-size="12" lengthAdjust="spacing" textLength="215" x="371.5" y="1042.1218">Calcola densit&#224; ostacoli per bioma</text><rect fill="#000000" height="6" rx="2.5" ry="2.5" style="stroke:#000000;stroke-width:1.0;" width="902" x="28" y="1074.6414"/><rect fill="#FFFFFF" height="34.584" rx="12.5" ry="12.5" style="stroke:#000000;stroke-width:1.0;" width="276" x="40" y="1100.6414"/><text fill="#000000" font-family="Verdana" font-size="12" lengthAdjust="spacing" textLength="256" x="50" y="1122.7058">Posiziona ostacoli strategici (muri, rocce)</text><rect fill="#FFFFFF" height="34.584" rx="12.5" ry="12.5" style="stroke:#000000;stroke-width:1.0;" width="285" x="344" y="1100.6414"/><text fill="#000000" font-family="Verdana" font-size="12" lengthAdjust="spacing" textLength="265" x="354" y="1122.7058">Posiziona oggetti distruttibili (case, alberi)</text><rect fill="#FFFFFF" height="34.584" rx="12.5" ry="12.5" style="stroke:#000000;stroke-width:1.0;" width="261" x="657" y="1100.6414"/><text fill="#000000" font-family="Verdana" font-size="12" lengthAdjust="spacing" textLength="241" x="667" y="1122.7058">Posiziona elementi copertura (bunker)</text><rect fill="#000000" height="6" rx="2.5" ry="2.5" style="stroke:#000000;stroke-width:1.0;" width="902" x="28" y="1155.2253"/><rect fill="#FFFFFF" height="34.584" rx="12.5" ry="12.5" style="stroke:#000000;stroke-width:1.0;" width="258" x="350" y="1181.2253"/><text fill="#000000" font-family="Verdana" font-size="12" lengthAdjust="spacing" textLength="238" x="360" y="1203.2898">Valida regole posizionamento ostacoli</text><rect fill="#FFFFFF" height="34.584" rx="12.5" ry="12.5" style="stroke:#000000;stroke-width:1.0;" width="283" x="337.5" y="1235.8093"/><text fill="#000000" font-family="Verdana" font-size="12" lengthAdjust="spacing" textLength="263" x="347.5" y="1257.8738">Assicura distanze minime dai punti spawn</text><rect fill="#FFFFFF" height="464.2029" style="stroke:#000000;stroke-width:1.0;" width="369" x="300.5" y="1292.3933"/><path d="M452.5,1292.3933 L452.5,1302.408 L442.5,1312.408 L300.5,1312.408 " fill="none" style="stroke:#000000;stroke-width:1.0;"/><text fill="#000000" font-family="Verdana" font-size="14" lengthAdjust="spacing" textLength="142" x="303.5" y="1307.4685">Genera Punti Spawn</text><rect fill="#FFFFFF" height="34.584" rx="12.5" ry="12.5" style="stroke:#000000;stroke-width:1.0;" width="220" x="369" y="1329.408"/><text fill="#000000" font-family="Verdana" font-size="12" lengthAdjust="spacing" textLength="200" x="379" y="1351.4724">Calcola posizioni spawn ottimali</text><rect fill="#FFFFFF" height="34.584" rx="12.5" ry="12.5" style="stroke:#000000;stroke-width:1.0;" width="296" x="331" y="1383.9919"/><text fill="#000000" font-family="Verdana" font-size="12" lengthAdjust="spacing" textLength="276" x="341" y="1406.0564">Assicura posizionamento squadre bilanciato</text><rect fill="#FFFFFF" height="34.584" rx="12.5" ry="12.5" style="stroke:#000000;stroke-width:1.0;" width="219" x="369.5" y="1438.5759"/><text fill="#000000" font-family="Verdana" font-size="12" lengthAdjust="spacing" textLength="199" x="379.5" y="1460.6404">Valida accessibilit&#224; punti spawn</text><rect fill="#FFFFFF" height="34.584" rx="12.5" ry="12.5" style="stroke:#000000;stroke-width:1.0;" width="214" x="372" y="1493.1599"/><text fill="#000000" font-family="Verdana" font-size="12" lengthAdjust="spacing" textLength="194" x="382" y="1515.2244">Verifica limitazioni linea di vista</text><rect fill="#FFFFFF" height="34.584" rx="12.5" ry="12.5" style="stroke:#000000;stroke-width:1.0;" width="201" x="378.5" y="1596.4282"/><text fill="#000000" font-family="Verdana" font-size="12" lengthAdjust="spacing" textLength="181" x="388.5" y="1618.4927">Rigenera layout punti spawn</text><rect fill="#FFFFFF" height="34.584" rx="12.5" ry="12.5" style="stroke:#000000;stroke-width:1.0;" width="317" x="320.5" y="1666.0122"/><text fill="#000000" font-family="Verdana" font-size="12" lengthAdjust="spacing" textLength="297" x="330.5" y="1688.0767">Modifica posizionamento ostacoli se necessario</text><polygon fill="#FFFFFF" points="425,1547.7439,533,1547.7439,545,1559.7439,533,1571.7439,425,1571.7439,413,1559.7439,425,1547.7439" style="stroke:#000000;stroke-width:1.0;"/><text fill="#000000" font-family="Verdana" font-size="11" lengthAdjust="spacing" textLength="14" x="483" y="1582.803">no</text><text fill="#000000" font-family="Verdana" font-size="11" lengthAdjust="spacing" textLength="108" x="425" y="1564.1187">Punti spawn validi?</text><polygon fill="#FFFFFF" points="479,1720.5962,491,1732.5962,479,1744.5962,467,1732.5962,479,1720.5962" style="stroke:#000000;stroke-width:1.0;"/><rect fill="#FFFFFF" height="616.4712" style="stroke:#000000;stroke-width:1.0;" width="269" x="356.5" y="1766.5962"/><path d="M565.5,1766.5962 L565.5,1776.6108 L555.5,1786.6108 L356.5,1786.6108 " fill="none" style="stroke:#000000;stroke-width:1.0;"/><text fill="#000000" font-family="Verdana" font-size="14" lengthAdjust="spacing" textLength="199" x="359.5" y="1781.6714">Validazione e Ottimizzazione</text><rect fill="#FFFFFF" height="34.584" rx="12.5" ry="12.5" style="stroke:#000000;stroke-width:1.0;" width="166" x="396" y="1803.6108"/><text fill="#000000" font-family="Verdana" font-size="12" lengthAdjust="spacing" textLength="146" x="406" y="1825.6753">Esegui test pathfinding</text><rect fill="#FFFFFF" height="34.584" rx="12.5" ry="12.5" style="stroke:#000000;stroke-width:1.0;" width="203" x="377.5" y="1858.1948"/><text fill="#000000" font-family="Verdana" font-size="12" lengthAdjust="spacing" textLength="183" x="387.5" y="1880.2593">Verifica bilanciamento mappa</text><rect fill="#FFFFFF" height="34.584" rx="12.5" ry="12.5" style="stroke:#000000;stroke-width:1.0;" width="186" x="386" y="1912.7788"/><text fill="#000000" font-family="Verdana" font-size="12" lengthAdjust="spacing" textLength="166" x="396" y="1934.8433">Valida requisiti prestazioni</text><rect fill="#FFFFFF" height="34.584" rx="12.5" ry="12.5" style="stroke:#000000;stroke-width:1.0;" width="185" x="386.5" y="2016.0471"/><text fill="#000000" font-family="Verdana" font-size="12" lengthAdjust="spacing" textLength="165" x="396.5" y="2038.1116">Registra errori validazione</text><rect fill="#FFFFFF" height="34.584" rx="12.5" ry="12.5" style="stroke:#000000;stroke-width:1.0;" width="203" x="377.5" y="2070.6311"/><text fill="#000000" font-family="Verdana" font-size="12" lengthAdjust="spacing" textLength="183" x="387.5" y="2092.6956">Tenta correzioni automatiche</text><rect fill="#FFFFFF" height="34.584" rx="12.5" ry="12.5" style="stroke:#000000;stroke-width:1.0;" width="147" x="405.5" y="2173.8994"/><text fill="#000000" font-family="Verdana" font-size="12" lengthAdjust="spacing" textLength="127" x="415.5" y="2195.9639">Genera report errori</text><rect fill="#FFFFFF" height="34.584" rx="12.5" ry="12.5" style="stroke:#000000;stroke-width:1.0;" width="181" x="388.5" y="2228.4834"/><text fill="#000000" font-family="Verdana" font-size="12" lengthAdjust="spacing" textLength="161" x="398.5" y="2250.5479">Restituisci mappa fallback</text><ellipse cx="479" cy="2294.0674" fill="none" rx="11" ry="11" style="stroke:#000000;stroke-width:1.0;"/><ellipse cx="479" cy="2294.0674" fill="#FFFFFF" rx="6" ry="6" style="stroke:#000000;stroke-width:1.0;"/><polygon fill="#FFFFFF" points="388.5,2125.2151,569.5,2125.2151,581.5,2137.2151,569.5,2149.2151,388.5,2149.2151,376.5,2137.2151,388.5,2125.2151" style="stroke:#000000;stroke-width:1.0;"/><text fill="#000000" font-family="Verdana" font-size="11" lengthAdjust="spacing" textLength="14" x="483" y="2160.2742">no</text><text fill="#000000" font-family="Verdana" font-size="11" lengthAdjust="spacing" textLength="181" x="388.5" y="2141.5898">Correzione automatica riuscita?</text><polygon fill="#FFFFFF" points="395,1967.3628,563,1967.3628,575,1979.3628,563,1991.3628,395,1991.3628,383,1979.3628,395,1967.3628" style="stroke:#000000;stroke-width:1.0;"/><text fill="#000000" font-family="Verdana" font-size="11" lengthAdjust="spacing" textLength="14" x="483" y="2002.4219">no</text><text fill="#000000" font-family="Verdana" font-size="11" lengthAdjust="spacing" textLength="168" x="395" y="1983.7375">Validazione mappa superata?</text><polygon fill="#FFFFFF" points="479,2347.0674,491,2359.0674,479,2371.0674,467,2359.0674,479,2347.0674" style="stroke:#000000;stroke-width:1.0;"/><rect fill="#FFFFFF" height="34.584" rx="12.5" ry="12.5" style="stroke:#000000;stroke-width:1.0;" width="176" x="391" y="2403.0674"/><text fill="#000000" font-family="Verdana" font-size="12" lengthAdjust="spacing" textLength="156" x="401" y="2425.1318">Genera miniatura mappa</text><rect fill="#FFFFFF" height="34.584" rx="12.5" ry="12.5" style="stroke:#000000;stroke-width:1.0;" width="263" x="347.5" y="2457.6514"/><text fill="#000000" font-family="Verdana" font-size="12" lengthAdjust="spacing" textLength="243" x="357.5" y="2479.7158">Ottimizza dati mappa per trasmissione</text><rect fill="#FFFFFF" height="34.584" rx="12.5" ry="12.5" style="stroke:#000000;stroke-width:1.0;" width="215" x="371.5" y="2512.2354"/><text fill="#000000" font-family="Verdana" font-size="12" lengthAdjust="spacing" textLength="195" x="381.5" y="2534.2998">Cache mappa generata (1 ora)</text><rect fill="#FFFFFF" height="34.584" rx="12.5" ry="12.5" style="stroke:#000000;stroke-width:1.0;" width="224" x="367" y="2566.8193"/><text fill="#000000" font-family="Verdana" font-size="12" lengthAdjust="spacing" textLength="204" x="377" y="2588.8838">Registra statistiche generazione</text><rect fill="#FFFFFF" height="34.584" rx="12.5" ry="12.5" style="stroke:#000000;stroke-width:1.0;" width="214" x="372" y="2621.4033"/><text fill="#000000" font-family="Verdana" font-size="12" lengthAdjust="spacing" textLength="194" x="382" y="2643.4678">Restituisci dati completi mappa</text><ellipse cx="479" cy="2686.9873" fill="none" rx="11" ry="11" style="stroke:#000000;stroke-width:1.0;"/><ellipse cx="479" cy="2686.9873" fill="#FFFFFF" rx="6" ry="6" style="stroke:#000000;stroke-width:1.0;"/><line style="stroke:#000000;stroke-width:1.0;" x1="479" x2="479" y1="72.7373" y2="92.7373"/><polygon fill="#000000" points="475,82.7373,479,92.7373,483,82.7373,479,86.7373" style="stroke:#000000;stroke-width:1.0;"/><line style="stroke:#000000;stroke-width:1.0;" x1="479" x2="479" y1="127.3213" y2="147.3213"/><polygon fill="#000000" points="475,137.3213,479,147.3213,483,137.3213,479,141.3213" style="stroke:#000000;stroke-width:1.0;"/><line style="stroke:#000000;stroke-width:1.0;" x1="479" x2="479" y1="285.1736" y2="305.1736"/><polygon fill="#000000" points="475,295.1736,479,305.1736,483,295.1736,479,299.1736" style="stroke:#000000;stroke-width:1.0;"/><line style="stroke:#000000;stroke-width:1.0;" x1="479" x2="479" y1="339.7576" y2="359.7576"/><polygon fill="#000000" points="475,349.7576,479,359.7576,483,349.7576,479,353.7576" style="stroke:#000000;stroke-width:1.0;"/><line style="stroke:#000000;stroke-width:1.0;" x1="479" x2="479" y1="225.9053" y2="250.5896"/><polygon fill="#000000" points="475,240.5896,479,250.5896,483,240.5896,479,244.5896" style="stroke:#000000;stroke-width:1.0;"/><line style="stroke:#000000;stroke-width:1.0;" x1="565" x2="582.5" y1="213.9053" y2="213.9053"/><polygon fill="#000000" points="578.5,303.1736,582.5,313.1736,586.5,303.1736,582.5,307.1736" style="stroke:#000000;stroke-width:1.0;"/><line style="stroke:#000000;stroke-width:1.0;" x1="582.5" x2="582.5" y1="213.9053" y2="403.7576"/><line style="stroke:#000000;stroke-width:1.0;" x1="582.5" x2="479" y1="403.7576" y2="403.7576"/><line style="stroke:#000000;stroke-width:1.0;" x1="479" x2="479" y1="403.7576" y2="423.7576"/><polygon fill="#000000" points="475,413.7576,479,423.7576,483,413.7576,479,417.7576" style="stroke:#000000;stroke-width:1.0;"/><line style="stroke:#000000;stroke-width:1.0;" x1="479" x2="479" y1="181.9053" y2="201.9053"/><polygon fill="#000000" points="475,191.9053,479,201.9053,483,191.9053,479,195.9053" style="stroke:#000000;stroke-width:1.0;"/><line style="stroke:#000000;stroke-width:1.0;" x1="479" x2="479" y1="539.9402" y2="559.9402"/><polygon fill="#000000" points="475,549.9402,479,559.9402,483,549.9402,479,553.9402" style="stroke:#000000;stroke-width:1.0;"/><line style="stroke:#000000;stroke-width:1.0;" x1="479" x2="479" y1="594.5242" y2="614.5242"/><polygon fill="#000000" points="475,604.5242,479,614.5242,483,604.5242,479,608.5242" style="stroke:#000000;stroke-width:1.0;"/><line style="stroke:#000000;stroke-width:1.0;" x1="479" x2="479" y1="649.1082" y2="669.1082"/><polygon fill="#000000" points="475,659.1082,479,669.1082,483,659.1082,479,663.1082" style="stroke:#000000;stroke-width:1.0;"/><line style="stroke:#000000;stroke-width:1.0;" x1="479" x2="479" y1="458.3416" y2="505.3562"/><polygon fill="#000000" points="475,495.3562,479,505.3562,483,495.3562,479,499.3562" style="stroke:#000000;stroke-width:1.0;"/><line style="stroke:#000000;stroke-width:1.0;" x1="479" x2="479" y1="797.2908" y2="817.2908"/><polygon fill="#000000" points="475,807.2908,479,817.2908,483,807.2908,479,811.2908" style="stroke:#000000;stroke-width:1.0;"/><line style="stroke:#000000;stroke-width:1.0;" x1="479" x2="479" y1="851.8748" y2="871.8748"/><polygon fill="#000000" points="475,861.8748,479,871.8748,483,861.8748,479,865.8748" style="stroke:#000000;stroke-width:1.0;"/><line style="stroke:#000000;stroke-width:1.0;" x1="479" x2="479" y1="906.4587" y2="926.4587"/><polygon fill="#000000" points="475,916.4587,479,926.4587,483,916.4587,479,920.4587" style="stroke:#000000;stroke-width:1.0;"/><line style="stroke:#000000;stroke-width:1.0;" x1="479" x2="479" y1="703.6921" y2="762.7068"/><polygon fill="#000000" points="475,752.7068,479,762.7068,483,752.7068,479,756.7068" style="stroke:#000000;stroke-width:1.0;"/><line style="stroke:#000000;stroke-width:1.0;" x1="178" x2="178" y1="1080.6414" y2="1100.6414"/><polygon fill="#000000" points="174,1090.6414,178,1100.6414,182,1090.6414,178,1094.6414" style="stroke:#000000;stroke-width:1.0;"/><line style="stroke:#000000;stroke-width:1.0;" x1="486.5" x2="486.5" y1="1080.6414" y2="1100.6414"/><polygon fill="#000000" points="482.5,1090.6414,486.5,1100.6414,490.5,1090.6414,486.5,1094.6414" style="stroke:#000000;stroke-width:1.0;"/><line style="stroke:#000000;stroke-width:1.0;" x1="787.5" x2="787.5" y1="1080.6414" y2="1100.6414"/><polygon fill="#000000" points="783.5,1090.6414,787.5,1100.6414,791.5,1090.6414,787.5,1094.6414" style="stroke:#000000;stroke-width:1.0;"/><line style="stroke:#000000;stroke-width:1.0;" x1="178" x2="178" y1="1135.2253" y2="1155.2253"/><polygon fill="#000000" points="174,1145.2253,178,1155.2253,182,1145.2253,178,1149.2253" style="stroke:#000000;stroke-width:1.0;"/><line style="stroke:#000000;stroke-width:1.0;" x1="486.5" x2="486.5" y1="1135.2253" y2="1155.2253"/><polygon fill="#000000" points="482.5,1145.2253,486.5,1155.2253,490.5,1145.2253,486.5,1149.2253" style="stroke:#000000;stroke-width:1.0;"/><line style="stroke:#000000;stroke-width:1.0;" x1="787.5" x2="787.5" y1="1135.2253" y2="1155.2253"/><polygon fill="#000000" points="783.5,1145.2253,787.5,1155.2253,791.5,1145.2253,787.5,1149.2253" style="stroke:#000000;stroke-width:1.0;"/><line style="stroke:#000000;stroke-width:1.0;" x1="479" x2="479" y1="1054.6414" y2="1074.6414"/><polygon fill="#000000" points="475,1064.6414,479,1074.6414,483,1064.6414,479,1068.6414" style="stroke:#000000;stroke-width:1.0;"/><line style="stroke:#000000;stroke-width:1.0;" x1="479" x2="479" y1="1161.2253" y2="1181.2253"/><polygon fill="#000000" points="475,1171.2253,479,1181.2253,483,1171.2253,479,1175.2253" style="stroke:#000000;stroke-width:1.0;"/><line style="stroke:#000000;stroke-width:1.0;" x1="479" x2="479" y1="1215.8093" y2="1235.8093"/><polygon fill="#000000" points="475,1225.8093,479,1235.8093,483,1225.8093,479,1229.8093" style="stroke:#000000;stroke-width:1.0;"/><line style="stroke:#000000;stroke-width:1.0;" x1="479" x2="479" y1="961.0427" y2="1020.0574"/><polygon fill="#000000" points="475,1010.0574,479,1020.0574,483,1010.0574,479,1014.0574" style="stroke:#000000;stroke-width:1.0;"/><line style="stroke:#000000;stroke-width:1.0;" x1="479" x2="479" y1="1363.9919" y2="1383.9919"/><polygon fill="#000000" points="475,1373.9919,479,1383.9919,483,1373.9919,479,1377.9919" style="stroke:#000000;stroke-width:1.0;"/><line style="stroke:#000000;stroke-width:1.0;" x1="479" x2="479" y1="1418.5759" y2="1438.5759"/><polygon fill="#000000" points="475,1428.5759,479,1438.5759,483,1428.5759,479,1432.5759" style="stroke:#000000;stroke-width:1.0;"/><line style="stroke:#000000;stroke-width:1.0;" x1="479" x2="479" y1="1473.1599" y2="1493.1599"/><polygon fill="#000000" points="475,1483.1599,479,1493.1599,483,1483.1599,479,1487.1599" style="stroke:#000000;stroke-width:1.0;"/><line style="stroke:#000000;stroke-width:1.0;" x1="479" x2="479" y1="1631.0122" y2="1666.0122"/><polygon fill="#000000" points="475,1656.0122,479,1666.0122,483,1656.0122,479,1660.0122" style="stroke:#000000;stroke-width:1.0;"/><line style="stroke:#000000;stroke-width:1.0;" x1="479" x2="479" y1="1571.7439" y2="1596.4282"/><polygon fill="#000000" points="475,1586.4282,479,1596.4282,483,1586.4282,479,1590.4282" style="stroke:#000000;stroke-width:1.0;"/><line style="stroke:#000000;stroke-width:1.0;" x1="545" x2="647.5" y1="1559.7439" y2="1559.7439"/><polygon fill="#000000" points="643.5,1638.5122,647.5,1648.5122,651.5,1638.5122,647.5,1642.5122" style="stroke:#000000;stroke-width:1.0;"/><line style="stroke:#000000;stroke-width:1.0;" x1="647.5" x2="647.5" y1="1559.7439" y2="1732.5962"/><line style="stroke:#000000;stroke-width:1.0;" x1="647.5" x2="491" y1="1732.5962" y2="1732.5962"/><polygon fill="#000000" points="501,1728.5962,491,1732.5962,501,1736.5962,497,1732.5962" style="stroke:#000000;stroke-width:1.0;"/><line style="stroke:#000000;stroke-width:1.0;" x1="479" x2="479" y1="1700.5962" y2="1720.5962"/><polygon fill="#000000" points="475,1710.5962,479,1720.5962,483,1710.5962,479,1714.5962" style="stroke:#000000;stroke-width:1.0;"/><line style="stroke:#000000;stroke-width:1.0;" x1="479" x2="479" y1="1527.7439" y2="1547.7439"/><polygon fill="#000000" points="475,1537.7439,479,1547.7439,483,1537.7439,479,1541.7439" style="stroke:#000000;stroke-width:1.0;"/><line style="stroke:#000000;stroke-width:1.0;" x1="479" x2="479" y1="1270.3933" y2="1329.408"/><polygon fill="#000000" points="475,1319.408,479,1329.408,483,1319.408,479,1323.408" style="stroke:#000000;stroke-width:1.0;"/><line style="stroke:#000000;stroke-width:1.0;" x1="479" x2="479" y1="1838.1948" y2="1858.1948"/><polygon fill="#000000" points="475,1848.1948,479,1858.1948,483,1848.1948,479,1852.1948" style="stroke:#000000;stroke-width:1.0;"/><line style="stroke:#000000;stroke-width:1.0;" x1="479" x2="479" y1="1892.7788" y2="1912.7788"/><polygon fill="#000000" points="475,1902.7788,479,1912.7788,483,1902.7788,479,1906.7788" style="stroke:#000000;stroke-width:1.0;"/><line style="stroke:#000000;stroke-width:1.0;" x1="479" x2="479" y1="2050.6311" y2="2070.6311"/><polygon fill="#000000" points="475,2060.6311,479,2070.6311,483,2060.6311,479,2064.6311" style="stroke:#000000;stroke-width:1.0;"/><line style="stroke:#000000;stroke-width:1.0;" x1="479" x2="479" y1="2208.4834" y2="2228.4834"/><polygon fill="#000000" points="475,2218.4834,479,2228.4834,483,2218.4834,479,2222.4834" style="stroke:#000000;stroke-width:1.0;"/><line style="stroke:#000000;stroke-width:1.0;" x1="479" x2="479" y1="2263.0674" y2="2283.0674"/><polygon fill="#000000" points="475,2273.0674,479,2283.0674,483,2273.0674,479,2277.0674" style="stroke:#000000;stroke-width:1.0;"/><line style="stroke:#000000;stroke-width:1.0;" x1="479" x2="479" y1="2149.2151" y2="2173.8994"/><polygon fill="#000000" points="475,2163.8994,479,2173.8994,483,2163.8994,479,2167.8994" style="stroke:#000000;stroke-width:1.0;"/><line style="stroke:#000000;stroke-width:1.0;" x1="581.5" x2="593.5" y1="2137.2151" y2="2137.2151"/><polygon fill="#000000" points="589.5,2226.4834,593.5,2236.4834,597.5,2226.4834,593.5,2230.4834" style="stroke:#000000;stroke-width:1.0;"/><line style="stroke:#000000;stroke-width:1.0;" x1="593.5" x2="593.5" y1="2137.2151" y2="2327.0674"/><line style="stroke:#000000;stroke-width:1.0;" x1="593.5" x2="479" y1="2327.0674" y2="2327.0674"/><line style="stroke:#000000;stroke-width:1.0;" x1="479" x2="479" y1="2327.0674" y2="2347.0674"/><polygon fill="#000000" points="475,2337.0674,479,2347.0674,483,2337.0674,479,2341.0674" style="stroke:#000000;stroke-width:1.0;"/><line style="stroke:#000000;stroke-width:1.0;" x1="479" x2="479" y1="2105.2151" y2="2125.2151"/><polygon fill="#000000" points="475,2115.2151,479,2125.2151,483,2115.2151,479,2119.2151" style="stroke:#000000;stroke-width:1.0;"/><line style="stroke:#000000;stroke-width:1.0;" x1="479" x2="479" y1="1991.3628" y2="2016.0471"/><polygon fill="#000000" points="475,2006.0471,479,2016.0471,483,2006.0471,479,2010.0471" style="stroke:#000000;stroke-width:1.0;"/><line style="stroke:#000000;stroke-width:1.0;" x1="575" x2="603.5" y1="1979.3628" y2="1979.3628"/><polygon fill="#000000" points="599.5,2165.8994,603.5,2175.8994,607.5,2165.8994,603.5,2169.8994" style="stroke:#000000;stroke-width:1.0;"/><line style="stroke:#000000;stroke-width:1.0;" x1="603.5" x2="603.5" y1="1979.3628" y2="2359.0674"/><line style="stroke:#000000;stroke-width:1.0;" x1="603.5" x2="491" y1="2359.0674" y2="2359.0674"/><polygon fill="#000000" points="501,2355.0674,491,2359.0674,501,2363.0674,497,2359.0674" style="stroke:#000000;stroke-width:1.0;"/><line style="stroke:#000000;stroke-width:1.0;" x1="479" x2="479" y1="1947.3628" y2="1967.3628"/><polygon fill="#000000" points="475,1957.3628,479,1967.3628,483,1957.3628,479,1961.3628" style="stroke:#000000;stroke-width:1.0;"/><line style="stroke:#000000;stroke-width:1.0;" x1="479" x2="479" y1="1744.5962" y2="1803.6108"/><polygon fill="#000000" points="475,1793.6108,479,1803.6108,483,1793.6108,479,1797.6108" style="stroke:#000000;stroke-width:1.0;"/><line style="stroke:#000000;stroke-width:1.0;" x1="479" x2="479" y1="2371.0674" y2="2403.0674"/><polygon fill="#000000" points="475,2393.0674,479,2403.0674,483,2393.0674,479,2397.0674" style="stroke:#000000;stroke-width:1.0;"/><line style="stroke:#000000;stroke-width:1.0;" x1="479" x2="479" y1="2437.6514" y2="2457.6514"/><polygon fill="#000000" points="475,2447.6514,479,2457.6514,483,2447.6514,479,2451.6514" style="stroke:#000000;stroke-width:1.0;"/><line style="stroke:#000000;stroke-width:1.0;" x1="479" x2="479" y1="2492.2354" y2="2512.2354"/><polygon fill="#000000" points="475,2502.2354,479,2512.2354,483,2502.2354,479,2506.2354" style="stroke:#000000;stroke-width:1.0;"/><line style="stroke:#000000;stroke-width:1.0;" x1="479" x2="479" y1="2546.8193" y2="2566.8193"/><polygon fill="#000000" points="475,2556.8193,479,2566.8193,483,2556.8193,479,2560.8193" style="stroke:#000000;stroke-width:1.0;"/><line style="stroke:#000000;stroke-width:1.0;" x1="479" x2="479" y1="2601.4033" y2="2621.4033"/><polygon fill="#000000" points="475,2611.4033,479,2621.4033,483,2611.4033,479,2615.4033" style="stroke:#000000;stroke-width:1.0;"/><line style="stroke:#000000;stroke-width:1.0;" x1="479" x2="479" y1="2655.9873" y2="2675.9873"/><polygon fill="#000000" points="475,2665.9873,479,2675.9873,483,2665.9873,479,2669.9873" style="stroke:#000000;stroke-width:1.0;"/><!--SRC=[ZLRBZjj83BphAxWvsS04IAxZmo8l10ji46Cco9sMQGqnKhVItV9clTX_sG_8N-J7jjWjsT8yWFXWM3QRh2esY_ujtKadrBUihggIfbReLi9HJ-hf4_Uzq4jwhzm4xZgclRG8U9EI7ZNz_8zMs-1hYT7JHt4I6AUSv7EyhggOEAIgkhxHMevAGUix5Nn9pIoui-1DTVqXfi1AFQEIfA3b1rhf_egY2DvtwZjURwfA3xJADKYYnYJa08kfvlfEVbyJA3bQnPy_rXNXTVsEKHdOEKr9S-H-Ktw-0IHDWyRQ8CQXJPpy8YGctrVYzde0cJySjE5MJoSUIISVPDIgzYw31KWGGLfGf1SbZBv82E8ylUKeB-YV4LoGIG_aKTe3nD1PnjLMGglkYcwrwrlvlXxnZjaA4swJd4u8VlqAh-_vVGfyq_Uj4G_IU7GjZULZBxKUq0kqNK9HTJC3iuUaGNT3QK_INgUZc-hVftZzoN_x8T5RItJXLKI780TjXgdPkHWwOStW7NHu6cg7PaWxFxFaVih80hkeZsE-eZce06wrk3JW2IZmb81Y2bposFgIX-apRcVjSK8813Y1EDGmhMR4MaJOAA2wpO2VpZnGCxyTVBZF7_BPIw7p8RlrIHh5vLjrGz0hmaJLClRGZXCtDfnF9MaQmIYMZWtuj5DaNDNGzGetOmVmlvH7MdY0ItETLhl1tKiOZ-FkNvWiL1uRra-vB8y_ivkw6wFMbjM0iZjPWvt2TlOsy8DLZZt_vPwvNziSSMiHZxem5Hupa8SA7J-k_01W_3RmFjYzQTdLYj5RNXwkpTModjRY1SOI1sqFTcDRxJHnWO1fpVD3H-CvkmLcMDjB3ZfQ5JrRbVFhIrjkjBW1jMMi7jNEKP_yljH_Hdcu45pHI60E_RcBSB2bn8Ll6IAXpwQUELl-uYpsXoZDO2uG0OVJtK6HoJKFfPZ4B4X6NrzUbc-mMLIcFjWUoAeza6aEg5XS77epHtv6BioEpH31eim_ZvVpCxc-09AP4Moij8g7X47Datq9Etym8E-cOBa4Wu8Es1FFW9bRL93UXpIYsYn3vXkdS3nms-wulby6vhqpFPJkBVfuNWMO9ivZEotJSoFdMy_y2Kf5k6ii-c2CR0sKdySbXDb_JJxOehs8YsQbqGZdotjZotr69XUhlQshgUh6_WQ0nly0]--></g></svg>