<?xml version="1.0" encoding="us-ascii" standalone="no"?><svg xmlns="http://www.w3.org/2000/svg" xmlns:xlink="http://www.w3.org/1999/xlink" contentStyleType="text/css" height="1573px" preserveAspectRatio="none" style="width:1885px;height:1573px;background:#FFFFFF;" version="1.1" viewBox="0 0 1885 1573" width="1885px" zoomAndPan="magnify"><defs/><g><text fill="#000000" font-family="Verdana" font-size="22" font-weight="bold" lengthAdjust="spacing" textLength="900" x="488" y="37.1182">Servizio Mappe - Diagramma di Stato (Creazione Mappe Personalizzate)</text><ellipse cx="728" cy="68.7373" fill="#FFFFFF" rx="10" ry="10" style="stroke:#000000;stroke-width:1.0;"/><g id="Bozza"><rect fill="#FFFFFF" height="80.7666" rx="12.5" ry="12.5" style="stroke:#000000;stroke-width:1.0;" width="270" x="593" y="155.7373"/><line style="stroke:#000000;stroke-width:1.0;" x1="593" x2="863" y1="182.752" y2="182.752"/><text fill="#000000" font-family="Verdana" font-size="14" lengthAdjust="spacing" textLength="43" x="706.5" y="174.8125">Bozza</text><text fill="#000000" font-family="Verdana" font-size="12" lengthAdjust="spacing" textLength="159" x="598" y="199.8164">Modifica propriet&#224; mappa</text><text fill="#000000" font-family="Verdana" font-size="12" lengthAdjust="spacing" textLength="250" x="598" y="214.4004">Impostazione nome, descrizione, bioma</text><text fill="#000000" font-family="Verdana" font-size="12" lengthAdjust="spacing" textLength="158" x="598" y="228.9844">Solo configurazione base</text></g><g id="Progettazione"><rect fill="#FFFFFF" height="80.7666" rx="12.5" ry="12.5" style="stroke:#000000;stroke-width:1.0;" width="234" x="611" y="313.7373"/><line style="stroke:#000000;stroke-width:1.0;" x1="611" x2="845" y1="340.752" y2="340.752"/><text fill="#000000" font-family="Verdana" font-size="14" lengthAdjust="spacing" textLength="97" x="679.5" y="332.8125">Progettazione</text><text fill="#000000" font-family="Verdana" font-size="12" lengthAdjust="spacing" textLength="209" x="616" y="357.8164">Posizionamento elementi terreno</text><text fill="#000000" font-family="Verdana" font-size="12" lengthAdjust="spacing" textLength="214" x="616" y="372.4004">Aggiunta ostacoli e caratteristiche</text><text fill="#000000" font-family="Verdana" font-size="12" lengthAdjust="spacing" textLength="168" x="616" y="386.9844">Impostazione punti spawn</text></g><ellipse cx="1673" cy="1556.7373" fill="none" rx="11" ry="11" style="stroke:#000000;stroke-width:1.0;"/><ellipse cx="1673" cy="1556.7373" fill="#FFFFFF" rx="6" ry="6" style="stroke:#000000;stroke-width:1.0;"/><g id="Test"><rect fill="#FFFFFF" height="80.7666" rx="12.5" ry="12.5" style="stroke:#000000;stroke-width:1.0;" width="210" x="871" y="471.7373"/><line style="stroke:#000000;stroke-width:1.0;" x1="871" x2="1081" y1="498.752" y2="498.752"/><text fill="#000000" font-family="Verdana" font-size="14" lengthAdjust="spacing" textLength="31" x="960.5" y="490.8125">Test</text><text fill="#000000" font-family="Verdana" font-size="12" lengthAdjust="spacing" textLength="190" x="876" y="515.8164">Esecuzione test automatizzati</text><text fill="#000000" font-family="Verdana" font-size="12" lengthAdjust="spacing" textLength="132" x="876" y="530.4004">Controllo pathfinding</text><text fill="#000000" font-family="Verdana" font-size="12" lengthAdjust="spacing" textLength="154" x="876" y="544.9844">Validazione punti spawn</text></g><g id="Validazione"><rect fill="#FFFFFF" height="95.3506" rx="12.5" ry="12.5" style="stroke:#000000;stroke-width:1.0;" width="296" x="578" y="629.7373"/><line style="stroke:#000000;stroke-width:1.0;" x1="578" x2="874" y1="656.752" y2="656.752"/><text fill="#000000" font-family="Verdana" font-size="14" lengthAdjust="spacing" textLength="78" x="687" y="648.8125">Validazione</text><text fill="#000000" font-family="Verdana" font-size="12" lengthAdjust="spacing" textLength="144" x="583" y="673.8164">Validazione lato server</text><text fill="#000000" font-family="Verdana" font-size="12" lengthAdjust="spacing" textLength="276" x="583" y="688.4004">Controllo dimensioni mappa (10000x10000)</text><text fill="#000000" font-family="Verdana" font-size="12" lengthAdjust="spacing" textLength="173" x="583" y="702.9844">Verifica bilanciamento gioco</text><text fill="#000000" font-family="Verdana" font-size="12" lengthAdjust="spacing" textLength="140" x="583" y="717.5684">Validazione anti-cheat</text></g><g id="TestFalliti"><rect fill="#FFFFFF" height="66.1826" rx="12.5" ry="12.5" style="stroke:#000000;stroke-width:1.0;" width="183" x="359.5" y="644.2373"/><line style="stroke:#000000;stroke-width:1.0;" x1="359.5" x2="542.5" y1="671.252" y2="671.252"/><text fill="#000000" font-family="Verdana" font-size="14" lengthAdjust="spacing" textLength="65" x="418.5" y="663.3125">TestFalliti</text><text fill="#000000" font-family="Verdana" font-size="12" lengthAdjust="spacing" textLength="163" x="364.5" y="688.3164">Visualizzazione errori test</text><text fill="#000000" font-family="Verdana" font-size="12" lengthAdjust="spacing" textLength="115" x="364.5" y="702.9004">Mostra criteri falliti</text></g><g id="ValidazioneFallita"><rect fill="#FFFFFF" height="66.1826" rx="12.5" ry="12.5" style="stroke:#000000;stroke-width:1.0;" width="176" x="186" y="801.7373"/><line style="stroke:#000000;stroke-width:1.0;" x1="186" x2="362" y1="828.752" y2="828.752"/><text fill="#000000" font-family="Verdana" font-size="14" lengthAdjust="spacing" textLength="117" x="215.5" y="820.8125">ValidazioneFallita</text><text fill="#000000" font-family="Verdana" font-size="12" lengthAdjust="spacing" textLength="156" x="191" y="845.8164">Mostra errori validazione</text><text fill="#000000" font-family="Verdana" font-size="12" lengthAdjust="spacing" textLength="151" x="191" y="860.4004">Elenca problemi specifici</text></g><g id="Approvata"><rect fill="#FFFFFF" height="66.1826" rx="12.5" ry="12.5" style="stroke:#000000;stroke-width:1.0;" width="195" x="1025.5" y="801.7373"/><line style="stroke:#000000;stroke-width:1.0;" x1="1025.5" x2="1220.5" y1="828.752" y2="828.752"/><text fill="#000000" font-family="Verdana" font-size="14" lengthAdjust="spacing" textLength="73" x="1086.5" y="820.8125">Approvata</text><text fill="#000000" font-family="Verdana" font-size="12" lengthAdjust="spacing" textLength="175" x="1030.5" y="845.8164">Mappa soddisfa tutti i criteri</text><text fill="#000000" font-family="Verdana" font-size="12" lengthAdjust="spacing" textLength="157" x="1030.5" y="860.4004">Pronta per pubblicazione</text></g><g id="Pubblicazione"><rect fill="#FFFFFF" height="80.7666" rx="12.5" ry="12.5" style="stroke:#000000;stroke-width:1.0;" width="176" x="1035" y="1087.7373"/><line style="stroke:#000000;stroke-width:1.0;" x1="1035" x2="1211" y1="1114.752" y2="1114.752"/><text fill="#000000" font-family="Verdana" font-size="14" lengthAdjust="spacing" textLength="93" x="1076.5" y="1106.8125">Pubblicazione</text><text fill="#000000" font-family="Verdana" font-size="12" lengthAdjust="spacing" textLength="142" x="1040" y="1131.8164">Caricamento su server</text><text fill="#000000" font-family="Verdana" font-size="12" lengthAdjust="spacing" textLength="143" x="1040" y="1146.4004">Generazione miniature</text><text fill="#000000" font-family="Verdana" font-size="12" lengthAdjust="spacing" textLength="156" x="1040" y="1160.9844">Creazione voci database</text></g><g id="Privata"><rect fill="#FFFFFF" height="66.1826" rx="12.5" ry="12.5" style="stroke:#000000;stroke-width:1.0;" width="200" x="1334" y="944.7373"/><line style="stroke:#000000;stroke-width:1.0;" x1="1334" x2="1534" y1="971.752" y2="971.752"/><text fill="#000000" font-family="Verdana" font-size="14" lengthAdjust="spacing" textLength="47" x="1410.5" y="963.8125">Privata</text><text fill="#000000" font-family="Verdana" font-size="12" lengthAdjust="spacing" textLength="180" x="1339" y="988.8164">Mappa salvata privatamente</text><text fill="#000000" font-family="Verdana" font-size="12" lengthAdjust="spacing" textLength="165" x="1339" y="1003.4004">Solo il creatore pu&#242; usarla</text></g><g id="PubblicazioneFallita"><rect fill="#FFFFFF" height="66.1826" rx="12.5" ry="12.5" style="stroke:#000000;stroke-width:1.0;" width="212" x="734" y="1253.2373"/><line style="stroke:#000000;stroke-width:1.0;" x1="734" x2="946" y1="1280.252" y2="1280.252"/><text fill="#000000" font-family="Verdana" font-size="14" lengthAdjust="spacing" textLength="132" x="774" y="1272.3125">PubblicazioneFallita</text><text fill="#000000" font-family="Verdana" font-size="12" lengthAdjust="spacing" textLength="192" x="739" y="1297.3164">Errore pubblicazione avvenuto</text><text fill="#000000" font-family="Verdana" font-size="12" lengthAdjust="spacing" textLength="140" x="739" y="1311.9004">Problemi rete o server</text></g><g id="Pubblicata"><rect fill="#FFFFFF" height="80.7666" rx="12.5" ry="12.5" style="stroke:#000000;stroke-width:1.0;" width="229" x="981.5" y="1245.7373"/><line style="stroke:#000000;stroke-width:1.0;" x1="981.5" x2="1210.5" y1="1272.752" y2="1272.752"/><text fill="#000000" font-family="Verdana" font-size="14" lengthAdjust="spacing" textLength="70" x="1061" y="1264.8125">Pubblicata</text><text fill="#000000" font-family="Verdana" font-size="12" lengthAdjust="spacing" textLength="209" x="986.5" y="1289.8164">Mappa disponibile pubblicamente</text><text fill="#000000" font-family="Verdana" font-size="12" lengthAdjust="spacing" textLength="171" x="986.5" y="1304.4004">Visibile nel catalogo mappe</text><text fill="#000000" font-family="Verdana" font-size="12" lengthAdjust="spacing" textLength="191" x="986.5" y="1318.9844">Pu&#242; essere usata nelle partite</text></g><g id="Aggiornamento"><rect fill="#FFFFFF" height="66.1826" rx="12.5" ry="12.5" style="stroke:#000000;stroke-width:1.0;" width="186" x="910" y="1411.2373"/><line style="stroke:#000000;stroke-width:1.0;" x1="910" x2="1096" y1="1438.252" y2="1438.252"/><text fill="#000000" font-family="Verdana" font-size="14" lengthAdjust="spacing" textLength="108" x="949" y="1430.3125">Aggiornamento</text><text fill="#000000" font-family="Verdana" font-size="12" lengthAdjust="spacing" textLength="166" x="915" y="1455.3164">Modifica mappa pubblicata</text><text fill="#000000" font-family="Verdana" font-size="12" lengthAdjust="spacing" textLength="165" x="915" y="1469.9004">Creazione nuova versione</text></g><g id="Archiviata"><rect fill="#FFFFFF" height="80.7666" rx="12.5" ry="12.5" style="stroke:#000000;stroke-width:1.0;" width="159" x="1505.5" y="1403.7373"/><line style="stroke:#000000;stroke-width:1.0;" x1="1505.5" x2="1664.5" y1="1430.752" y2="1430.752"/><text fill="#000000" font-family="Verdana" font-size="14" lengthAdjust="spacing" textLength="68" x="1551" y="1422.8125">Archiviata</text><text fill="#000000" font-family="Verdana" font-size="12" lengthAdjust="spacing" textLength="133" x="1510.5" y="1447.8164">Mappa non pi&#249; attiva</text><text fill="#000000" font-family="Verdana" font-size="12" lengthAdjust="spacing" textLength="139" x="1510.5" y="1462.4004">Nascosta dal catalogo</text><text fill="#000000" font-family="Verdana" font-size="12" lengthAdjust="spacing" textLength="134" x="1510.5" y="1476.9844">Dati storici preservati</text></g><g id="elem_GMN46"><path d="M898,167.7373 L898,192.2373 L863.17,196.2373 L898,200.2373 L898,225.1353 A0,0 0 0 0 898,225.1353 L1104,225.1353 A0,0 0 0 0 1104,225.1353 L1104,177.7373 L1094,167.7373 L898,167.7373 A0,0 0 0 0 898,167.7373 " fill="#FFFFFF" style="stroke:#000000;stroke-width:1.0;"/><path d="M1094,167.7373 L1094,177.7373 L1104,177.7373 L1094,167.7373 " fill="#FFFFFF" style="stroke:#000000;stroke-width:1.0;"/><text fill="#000000" font-family="Verdana" font-size="13" lengthAdjust="spacing" textLength="147" x="904" y="185.8071">Fase creazione iniziale</text><text fill="#000000" font-family="Verdana" font-size="13" lengthAdjust="spacing" textLength="127" x="904" y="201.6064">Solo metadati base</text><text fill="#000000" font-family="Verdana" font-size="13" lengthAdjust="spacing" textLength="185" x="904" y="217.4058">Nessun dato terreno ancora</text></g><g id="elem_GMN49"><path d="M880,325.7373 L880,350.2373 L845.21,354.2373 L880,358.2373 L880,383.1353 A0,0 0 0 0 880,383.1353 L1074,383.1353 A0,0 0 0 0 1074,383.1353 L1074,335.7373 L1064,325.7373 L880,325.7373 A0,0 0 0 0 880,325.7373 " fill="#FFFFFF" style="stroke:#000000;stroke-width:1.0;"/><path d="M1064,325.7373 L1064,335.7373 L1074,335.7373 L1064,325.7373 " fill="#FFFFFF" style="stroke:#000000;stroke-width:1.0;"/><text fill="#000000" font-family="Verdana" font-size="13" lengthAdjust="spacing" textLength="160" x="886" y="343.8071">Editor mappe interattivo</text><text fill="#000000" font-family="Verdana" font-size="13" lengthAdjust="spacing" textLength="149" x="886" y="359.6064">Anteprima tempo reale</text><text fill="#000000" font-family="Verdana" font-size="13" lengthAdjust="spacing" textLength="173" x="886" y="375.4058">Interfaccia drag-and-drop</text></g><g id="elem_GMN52"><path d="M1116.5,483.7373 L1116.5,508.2373 L1081.08,512.2373 L1116.5,516.2373 L1116.5,541.1353 A0,0 0 0 0 1116.5,541.1353 L1309.5,541.1353 A0,0 0 0 0 1309.5,541.1353 L1309.5,493.7373 L1299.5,483.7373 L1116.5,483.7373 A0,0 0 0 0 1116.5,483.7373 " fill="#FFFFFF" style="stroke:#000000;stroke-width:1.0;"/><path d="M1299.5,483.7373 L1299.5,493.7373 L1309.5,493.7373 L1299.5,483.7373 " fill="#FFFFFF" style="stroke:#000000;stroke-width:1.0;"/><text fill="#000000" font-family="Verdana" font-size="13" lengthAdjust="spacing" textLength="172" x="1122.5" y="501.8071">Validazione automatizzata</text><text fill="#000000" font-family="Verdana" font-size="13" lengthAdjust="spacing" textLength="106" x="1122.5" y="517.6064">Test prestazioni</text><text fill="#000000" font-family="Verdana" font-size="13" lengthAdjust="spacing" textLength="144" x="1122.5" y="533.4058">Verifica bilanciamento</text></g><g id="elem_GMN55"><path d="M1246,1257.7373 L1246,1282.2373 L1210.6,1286.2373 L1246,1290.2373 L1246,1315.1353 A0,0 0 0 0 1246,1315.1353 L1454,1315.1353 A0,0 0 0 0 1454,1315.1353 L1454,1267.7373 L1444,1257.7373 L1246,1257.7373 A0,0 0 0 0 1246,1257.7373 " fill="#FFFFFF" style="stroke:#000000;stroke-width:1.0;"/><path d="M1444,1257.7373 L1444,1267.7373 L1454,1267.7373 L1444,1257.7373 " fill="#FFFFFF" style="stroke:#000000;stroke-width:1.0;"/><text fill="#000000" font-family="Verdana" font-size="13" lengthAdjust="spacing" textLength="136" x="1252" y="1275.8071">Disponibilit&#224; pubblica</text><text fill="#000000" font-family="Verdana" font-size="13" lengthAdjust="spacing" textLength="156" x="1252" y="1291.6064">Ricercabile nel catalogo</text><text fill="#000000" font-family="Verdana" font-size="13" lengthAdjust="spacing" textLength="187" x="1252" y="1307.4058">Statistiche utilizzo tracciate</text></g><!--link *start* to Bozza--><g id="link_*start*_Bozza"><path d="M728,78.7673 C728,94.6673 728,122.5773 728,149.7273 " fill="none" id="*start*-to-Bozza" style="stroke:#000000;stroke-width:1.0;"/><polygon fill="#000000" points="728,155.7273,732,146.7273,728,150.7273,724,146.7273,728,155.7273" style="stroke:#000000;stroke-width:1.0;"/><text fill="#000000" font-family="Verdana" font-size="13" lengthAdjust="spacing" textLength="198" x="729" y="122.8071">Utente inizia creazione mappa</text></g><!--link Bozza to Progettazione--><g id="link_Bozza_Progettazione"><path d="M611.77,236.9473 C594.45,249.4073 585.69,264.9373 597,283.7373 C604.1,295.5373 609.1329,301.8702 620.2829,310.1502 " fill="none" id="Bozza-to-Progettazione" style="stroke:#000000;stroke-width:1.0;"/><polygon fill="#000000" points="625.1,313.7273,620.2592,305.1502,621.0858,310.7463,615.4897,311.573,625.1,313.7273" style="stroke:#000000;stroke-width:1.0;"/><text fill="#000000" font-family="Verdana" font-size="13" lengthAdjust="spacing" textLength="214" x="598" y="280.8071">Continua alla fase progettazione</text></g><!--link Progettazione to Bozza--><g id="link_Progettazione_Bozza"><path d="M793.81,313.6273 C803.19,304.9973 811.5,295.0173 817,283.7373 C825.6,266.1173 821.3077,254.0923 806.4377,240.7623 " fill="none" id="Progettazione-to-Bozza" style="stroke:#000000;stroke-width:1.0;"/><polygon fill="#000000" points="801.97,236.7573,806.0015,245.7432,805.6931,240.0948,811.3415,239.7863,801.97,236.7573" style="stroke:#000000;stroke-width:1.0;"/><text fill="#000000" font-family="Verdana" font-size="13" lengthAdjust="spacing" textLength="194" x="822" y="280.8071">Ritorna alle impostazioni base</text></g><!--link Bozza to *end*--><g id="link_Bozza_*end*"><path d="M863.3,233.2973 C868.93,234.5173 874.51,235.6673 880,236.7373 C976.91,255.6673 1761,254.4973 1761,353.2373 C1761,353.2373 1761,353.2373 1761,1445.2373 C1761,1495.5073 1709.6437,1532.9246 1687.1637,1547.1146 " fill="none" id="Bozza-to-*end*" style="stroke:#000000;stroke-width:1.0;"/><polygon fill="#000000" points="1682.09,1550.3173,1691.8357,1548.8958,1686.3181,1547.6484,1687.5655,1542.1308,1682.09,1550.3173" style="stroke:#000000;stroke-width:1.0;"/><text fill="#000000" font-family="Verdana" font-size="13" lengthAdjust="spacing" textLength="115" x="1762" y="911.8071">Annulla creazione</text></g><!--link Progettazione to Test--><g id="link_Progettazione_Test"><path d="M845.24,389.9973 C850.9,391.6173 856.51,393.1973 862,394.7373 C912.04,408.7473 943.08,383.7373 975,424.7373 C985.15,437.7773 987.3029,449.6019 985.8429,465.6719 " fill="none" id="Progettazione-to-Test" style="stroke:#000000;stroke-width:1.0;"/><polygon fill="#000000" points="985.3,471.6473,990.0979,463.0461,985.7524,466.6678,982.1307,462.3223,985.3,471.6473" style="stroke:#000000;stroke-width:1.0;"/><text fill="#000000" font-family="Verdana" font-size="13" lengthAdjust="spacing" textLength="166" x="984" y="438.8071">Testa funzionalit&#224; mappa</text></g><!--link Test to Progettazione--><g id="link_Test_Progettazione"><path d="M870.76,479.4773 C812.36,461.7573 751.18,442.9773 750,441.7373 C738.14,429.2773 733.3969,417.2789 730.7369,400.9889 " fill="none" id="Test-to-Progettazione" style="stroke:#000000;stroke-width:1.0;"/><polygon fill="#000000" points="729.77,395.0673,727.2727,404.5943,730.5758,400.0019,735.1681,403.305,729.77,395.0673" style="stroke:#000000;stroke-width:1.0;"/><text fill="#000000" font-family="Verdana" font-size="13" lengthAdjust="spacing" textLength="215" x="751" y="438.8071">Ritorna a modalit&#224; progettazione</text></g><!--link Progettazione to Validazione--><g id="link_Progettazione_Validazione"><path d="M722.91,394.7873 C720.27,417.3073 717.32,446.0473 716,471.7373 C713.22,525.8773 716.7595,582.1017 720.5095,623.5617 " fill="none" id="Progettazione-to-Validazione" style="stroke:#000000;stroke-width:1.0;"/><polygon fill="#000000" points="721.05,629.5373,724.223,620.2136,720.5996,624.5576,716.2555,620.9342,721.05,629.5373" style="stroke:#000000;stroke-width:1.0;"/><text fill="#000000" font-family="Verdana" font-size="13" lengthAdjust="spacing" textLength="135" x="717" y="517.8071">Invia per validazione</text></g><!--link Test to TestFalliti--><g id="link_Test_TestFalliti"><path d="M870.88,544.9673 C861.8,547.6173 852.74,550.2473 844,552.7373 C718.23,588.5973 683.55,586.8673 560,629.7373 C547.66,634.0173 540.2782,636.753 527.8182,641.883 " fill="none" id="Test-to-TestFalliti" style="stroke:#000000;stroke-width:1.0;"/><polygon fill="#000000" points="522.27,644.1673,532.1151,644.4397,526.8935,642.2637,529.0694,637.0421,522.27,644.1673" style="stroke:#000000;stroke-width:1.0;"/><text fill="#000000" font-family="Verdana" font-size="13" lengthAdjust="spacing" textLength="66" x="727" y="596.8071">Test falliti</text></g><!--link Test to Validazione--><g id="link_Test_Validazione"><path d="M926.35,552.7973 C906.45,568.0573 883.04,585.2873 861,599.7373 C845.45,609.9273 833.6729,617.1717 817.1729,626.7217 " fill="none" id="Test-to-Validazione" style="stroke:#000000;stroke-width:1.0;"/><polygon fill="#000000" points="811.98,629.7273,821.7731,628.6809,816.3074,627.2226,817.7656,621.757,811.98,629.7273" style="stroke:#000000;stroke-width:1.0;"/><text fill="#000000" font-family="Verdana" font-size="13" lengthAdjust="spacing" textLength="88" x="885" y="596.8071">Test superati</text></g><!--link TestFalliti to Progettazione--><g id="link_TestFalliti_Progettazione"><path d="M456.55,644.1373 C465.45,600.7573 486.53,522.9473 530,471.7373 C557.55,439.2773 591.232,416.4056 627.352,397.5356 " fill="none" id="TestFalliti-to-Progettazione" style="stroke:#000000;stroke-width:1.0;"/><polygon fill="#000000" points="632.67,394.7573,622.8408,395.3794,628.2383,397.0725,626.5452,402.47,632.67,394.7573" style="stroke:#000000;stroke-width:1.0;"/><text fill="#000000" font-family="Verdana" font-size="13" lengthAdjust="spacing" textLength="176" x="531" y="517.8071">Correggi problemi e riprova</text></g><!--link Validazione to ValidazioneFallita--><g id="link_Validazione_ValidazioneFallita"><path d="M590.69,724.7873 C516.7,750.2473 432.8236,779.0953 367.8636,801.4453 " fill="none" id="Validazione-to-ValidazioneFallita" style="stroke:#000000;stroke-width:1.0;"/><polygon fill="#000000" points="362.19,803.3973,372.0017,804.2516,366.918,801.7706,369.399,796.6869,362.19,803.3973" style="stroke:#000000;stroke-width:1.0;"/><text fill="#000000" font-family="Verdana" font-size="13" lengthAdjust="spacing" textLength="111" x="501" y="768.8071">Errori validazione</text></g><!--link Validazione to Approvata--><g id="link_Validazione_Approvata"><path d="M844.84,724.7873 C908.24,749.6173 979.0334,777.3488 1035.7034,799.5488 " fill="none" id="Validazione-to-Approvata" style="stroke:#000000;stroke-width:1.0;"/><polygon fill="#000000" points="1041.29,801.7373,1034.3691,794.7301,1036.6345,799.9135,1031.451,802.179,1041.29,801.7373" style="stroke:#000000;stroke-width:1.0;"/><text fill="#000000" font-family="Verdana" font-size="13" lengthAdjust="spacing" textLength="126" x="961" y="768.8071">Validazione riuscita</text></g><!--link ValidazioneFallita to Progettazione--><g id="link_ValidazioneFallita_Progettazione"><path d="M269.99,801.5973 C265.33,750.9373 263.09,651.2373 306,582.7373 C373.6,474.8173 505.3998,416.4162 605.1298,385.4562 " fill="none" id="ValidazioneFallita-to-Progettazione" style="stroke:#000000;stroke-width:1.0;"/><polygon fill="#000000" points="610.86,383.6773,601.0787,382.5255,606.0848,385.1597,603.4506,390.1658,610.86,383.6773" style="stroke:#000000;stroke-width:1.0;"/><text fill="#000000" font-family="Verdana" font-size="13" lengthAdjust="spacing" textLength="152" x="307" y="596.8071">Correggi e rivalidazione</text></g><!--link ValidazioneFallita to Bozza--><g id="link_ValidazioneFallita_Bozza"><path d="M185.69,819.1473 C109.29,800.8773 11,761.2473 11,678.2373 C11,353.2373 11,353.2373 11,353.2373 C11,235.4773 378.9335,206.6508 586.7235,199.6008 " fill="none" id="ValidazioneFallita-to-Bozza" style="stroke:#000000;stroke-width:1.0;"/><polygon fill="#000000" points="592.72,199.3973,583.5895,195.7048,587.7229,199.5668,583.8608,203.7002,592.72,199.3973" style="stroke:#000000;stroke-width:1.0;"/><text fill="#000000" font-family="Verdana" font-size="13" lengthAdjust="spacing" textLength="208" x="12" y="517.8071">Modifiche importanti necessarie</text></g><!--link Approvata to Pubblicazione--><g id="link_Approvata_Pubblicazione"><path d="M1123,867.7673 C1123,921.3073 1123,1022.8473 1123,1081.2573 " fill="none" id="Approvata-to-Pubblicazione" style="stroke:#000000;stroke-width:1.0;"/><polygon fill="#000000" points="1123,1087.2573,1127,1078.2573,1123,1082.2573,1119,1078.2573,1123,1087.2573" style="stroke:#000000;stroke-width:1.0;"/><text fill="#000000" font-family="Verdana" font-size="13" lengthAdjust="spacing" textLength="152" x="1124" y="983.3071">Utente pubblica mappa</text></g><!--link Approvata to Privata--><g id="link_Approvata_Privata"><path d="M1193.96,867.9073 C1244.69,890.9073 1307.2155,919.2596 1357.8755,942.2296 " fill="none" id="Approvata-to-Privata" style="stroke:#000000;stroke-width:1.0;"/><polygon fill="#000000" points="1363.34,944.7073,1356.795,937.3477,1358.7862,942.6426,1353.4914,944.6338,1363.34,944.7073" style="stroke:#000000;stroke-width:1.0;"/><text fill="#000000" font-family="Verdana" font-size="13" lengthAdjust="spacing" textLength="154" x="1298" y="911.8071">Mantieni mappa privata</text></g><!--link Approvata to Progettazione--><g id="link_Approvata_Progettazione"><path d="M1165.76,801.7173 C1247.9,736.3473 1412.35,584.2373 1327,471.7373 C1263.7,388.2873 964.78,414.8973 862,394.7373 C856.53,393.6673 856.7946,393.8241 851.1946,392.5241 " fill="none" id="Approvata-to-Progettazione" style="stroke:#000000;stroke-width:1.0;"/><polygon fill="#000000" points="845.35,391.1673,853.2124,397.0989,850.2205,392.298,855.0214,389.3061,845.35,391.1673" style="stroke:#000000;stroke-width:1.0;"/><text fill="#000000" font-family="Verdana" font-size="13" lengthAdjust="spacing" textLength="151" x="1345" y="596.8071">Fai aggiustamenti finali</text></g><!--link Pubblicazione to PubblicazioneFallita--><g id="link_Pubblicazione_PubblicazioneFallita"><path d="M1034.98,1145.2473 C993.8,1155.7273 945.66,1172.4973 908,1198.7373 C887.78,1212.8273 873.9702,1229.6665 861.9702,1247.8865 " fill="none" id="Pubblicazione-to-PubblicazioneFallita" style="stroke:#000000;stroke-width:1.0;"/><polygon fill="#000000" points="858.67,1252.8973,866.9609,1247.5812,861.4202,1248.7216,860.2798,1243.1809,858.67,1252.8973" style="stroke:#000000;stroke-width:1.0;"/><text fill="#000000" font-family="Verdana" font-size="13" lengthAdjust="spacing" textLength="125" x="909" y="1212.8071">Errore caricamento</text></g><!--link PubblicazioneFallita to Pubblicazione--><g id="link_PubblicazioneFallita_Pubblicazione"><path d="M938.2,1253.1673 C983.58,1237.9373 1029.55,1221.7673 1039,1215.7373 C1058.59,1203.2373 1072.9845,1189.7934 1087.5345,1173.4934 " fill="none" id="PubblicazioneFallita-to-Pubblicazione" style="stroke:#000000;stroke-width:1.0;"/><polygon fill="#000000" points="1091.53,1169.0173,1082.5526,1173.0678,1088.2004,1172.7474,1088.5208,1178.3952,1091.53,1169.0173" style="stroke:#000000;stroke-width:1.0;"/><text fill="#000000" font-family="Verdana" font-size="13" lengthAdjust="spacing" textLength="141" x="1061" y="1212.8071">Riprova pubblicazione</text></g><!--link Pubblicazione to Pubblicata--><g id="link_Pubblicazione_Pubblicata"><path d="M1207.07,1168.8673 C1223.31,1182.1073 1232.44,1198.0473 1222,1215.7373 C1215.08,1227.4573 1210.1753,1233.7278 1199.2153,1242.0178 " fill="none" id="Pubblicazione-to-Pubblicata" style="stroke:#000000;stroke-width:1.0;"/><polygon fill="#000000" points="1194.43,1245.6373,1204.021,1243.3982,1198.4177,1242.621,1199.1949,1237.0178,1194.43,1245.6373" style="stroke:#000000;stroke-width:1.0;"/><text fill="#000000" font-family="Verdana" font-size="13" lengthAdjust="spacing" textLength="141" x="1227" y="1212.8071">Pubblicazione riuscita</text></g><!--link PubblicazioneFallita to Approvata--><g id="link_PubblicazioneFallita_Approvata"><path d="M855.02,1252.9273 C862.81,1236.5473 872.62,1216.4373 882,1198.7373 C919.94,1127.1373 928.79,1108.6473 973,1040.7373 C1014.03,977.7273 1063.2667,912.4614 1094.0367,872.7214 " fill="none" id="PubblicazioneFallita-to-Approvata" style="stroke:#000000;stroke-width:1.0;"/><polygon fill="#000000" points="1097.71,867.9773,1089.0373,872.6446,1094.6489,871.9308,1095.3628,877.5424,1097.71,867.9773" style="stroke:#000000;stroke-width:1.0;"/><text fill="#000000" font-family="Verdana" font-size="13" lengthAdjust="spacing" textLength="140" x="974" y="1054.8071">Annulla pubblicazione</text></g><!--link Pubblicata to Aggiornamento--><g id="link_Pubblicata_Aggiornamento"><path d="M981.48,1322.3273 C942.63,1335.3573 907.53,1348.8773 902,1356.7373 C887.38,1377.5073 898.881,1393.2189 922.561,1408.0089 " fill="none" id="Pubblicata-to-Aggiornamento" style="stroke:#000000;stroke-width:1.0;"/><polygon fill="#000000" points="927.65,1411.1873,922.1355,1403.027,923.4092,1408.5386,917.8976,1409.8123,927.65,1411.1873" style="stroke:#000000;stroke-width:1.0;"/><text fill="#000000" font-family="Verdana" font-size="13" lengthAdjust="spacing" textLength="154" x="903" y="1370.8071">Utente aggiorna mappa</text></g><!--link Aggiornamento to Pubblicata--><g id="link_Aggiornamento_Pubblicata"><path d="M1034.19,1411.0073 C1043.95,1399.8073 1054.2,1386.7773 1062,1373.7373 C1070.7,1359.1973 1075.9144,1347.6705 1081.4844,1332.4805 " fill="none" id="Aggiornamento-to-Pubblicata" style="stroke:#000000;stroke-width:1.0;"/><polygon fill="#000000" points="1083.55,1326.8473,1076.6961,1333.92,1081.8286,1331.5417,1084.207,1336.6742,1083.55,1326.8473" style="stroke:#000000;stroke-width:1.0;"/><text fill="#000000" font-family="Verdana" font-size="13" lengthAdjust="spacing" textLength="177" x="1071" y="1370.8071">Aggiornamento completato</text></g><!--link Pubblicata to Archiviata--><g id="link_Pubblicata_Archiviata"><path d="M1210.65,1323.8173 C1301.26,1352.7173 1419.6837,1390.504 1499.6937,1416.024 " fill="none" id="Pubblicata-to-Archiviata" style="stroke:#000000;stroke-width:1.0;"/><polygon fill="#000000" points="1505.41,1417.8473,1498.0511,1411.3016,1500.6464,1416.3279,1495.6201,1418.9233,1505.41,1417.8473" style="stroke:#000000;stroke-width:1.0;"/><text fill="#000000" font-family="Verdana" font-size="13" lengthAdjust="spacing" textLength="149" x="1356" y="1370.8071">Utente archivia mappa</text></g><!--link Privata to Pubblicazione--><g id="link_Privata_Pubblicazione"><path d="M1361.96,1010.7473 C1340.94,1020.2473 1317.99,1030.7773 1297,1040.7373 C1265.46,1055.7073 1236.3469,1070.0347 1206.4569,1084.9747 " fill="none" id="Privata-to-Pubblicazione" style="stroke:#000000;stroke-width:1.0;"/><polygon fill="#000000" points="1201.09,1087.6573,1210.9288,1087.2114,1205.5624,1085.4218,1207.352,1080.0555,1201.09,1087.6573" style="stroke:#000000;stroke-width:1.0;"/><text fill="#000000" font-family="Verdana" font-size="13" lengthAdjust="spacing" textLength="132" x="1298" y="1054.8071">Decide di pubblicare</text></g><!--link Privata to Aggiornamento--><g id="link_Privata_Aggiornamento"><path d="M1435.17,1010.8673 C1437.52,1071.1873 1443.16,1196.9973 1450,1215.7373 C1455.67,1231.2673 1465.95,1230.3473 1472,1245.7373 C1492.93,1298.9473 1522.44,1330.5173 1485,1373.7373 C1435.74,1430.6173 1227.9495,1441.9181 1102.2495,1443.5781 " fill="none" id="Privata-to-Aggiornamento" style="stroke:#000000;stroke-width:1.0;"/><polygon fill="#000000" points="1096.25,1443.6573,1105.302,1447.5381,1101.2496,1443.5913,1105.1964,1439.5388,1096.25,1443.6573" style="stroke:#000000;stroke-width:1.0;"/><text fill="#000000" font-family="Verdana" font-size="13" lengthAdjust="spacing" textLength="86" x="1451" y="1212.8071">Fai modifiche</text></g><!--link Privata to Archiviata--><g id="link_Privata_Archiviata"><path d="M1462.31,1010.9373 C1469.63,1020.1773 1477.1,1030.5173 1483,1040.7373 C1520.83,1106.1873 1525.92,1125.8573 1546,1198.7373 C1565.52,1269.5973 1575.7426,1348.9191 1580.7926,1397.7391 " fill="none" id="Privata-to-Archiviata" style="stroke:#000000;stroke-width:1.0;"/><polygon fill="#000000" points="1581.41,1403.7073,1584.4627,1394.3435,1580.8955,1398.7338,1576.5052,1395.1666,1581.41,1403.7073" style="stroke:#000000;stroke-width:1.0;"/><text fill="#000000" font-family="Verdana" font-size="13" lengthAdjust="spacing" textLength="151" x="1550" y="1212.8071">Archivia mappa privata</text></g><!--link Aggiornamento to Validazione--><g id="link_Aggiornamento_Validazione"><path d="M910,1439.5173 C808.73,1429.8973 661,1397.0373 661,1287.2373 C661,833.7373 661,833.7373 661,833.7373 C661,794.9673 675.4679,759.9065 692.2679,730.0465 " fill="none" id="Aggiornamento-to-Validazione" style="stroke:#000000;stroke-width:1.0;"/><polygon fill="#000000" points="695.21,724.8173,687.3108,730.6997,692.7583,729.1749,694.283,734.6224,695.21,724.8173" style="stroke:#000000;stroke-width:1.0;"/><text fill="#000000" font-family="Verdana" font-size="13" lengthAdjust="spacing" textLength="150" x="662" y="1054.8071">Rivalidazione modifiche</text></g><!--link Archiviata to *end*--><g id="link_Archiviata_*end*"><path d="M1616.52,1484.8173 C1634.67,1507.6073 1652.1709,1529.5848 1662.6809,1542.7748 " fill="none" id="Archiviata-to-*end*" style="stroke:#000000;stroke-width:1.0;"/><polygon fill="#000000" points="1666.42,1547.4673,1663.9398,1537.9359,1663.3041,1543.5569,1657.6831,1542.9213,1666.42,1547.4673" style="stroke:#000000;stroke-width:1.0;"/></g><!--SRC=[XLSzRoGt3EtdLp3TNN0B9AsB08xj2wxmmR2JQu8KsXdkBe4PQI1fDe5_JNv3kjJ-OtcKvakpjkFYV2CzIkJZ8qL_5q_SCVMj4LjLKMBBzCJ-BC_YwDxqFTEERiKSlUawGutGKpJHqOSRpmOOooFgWNrmrhJo_6mYVwogtx__WtQxd-XdXnMwejyYsyWa5aSRgcVp3kQcgYROlMla8BMXthlU2yUNlqV8XFZIzIx4qTgwZZzHmw7sabO-qLvSjw2VNEkeTlOWny6FHdiJU0IeXm_U7JbE9rxHZRDHx638jAsX0y3gp09PcMgGLtHjxQ3GEQYgsfxvu4BoptHWmH6thFyHYkmzMtU1lpuUPR3Ha8PQkrQ8gJRUH1X8Y5AV-CAc8AOVzFZGcp_j1hXEogD4vssA5AbPx2LpT6duAuS8E_q5QWQROcfboTAboJViDukJzepqz-pflAnNrNZkNU1woD2eAsQ8I6PCef89fFdnhaLUUnDF1x6DsEEqkRvjpK7QdYBuZ7W5MpaGf3XzBfWjipDDrBbc3BUKn6nQHfkMmu1mrV-glFkRX24NJ8P32ivB2do3l4TUlEfBDFs5lnFeTI53N12I-hg7ubH4Nl1nHi6LZgw_MYtmW2R0VeDQc6y4-Wr9AIdlzE777_3pL_htu_PmE9rgUY-jiRMCHN0KLxjt_338tWv2Dx40RLZE1AYOxp9_QrrjxQxx57s2h_Uy3A76AGKjoyaZ__pk1Ij7MhQvWsNMGy-r4Y2lmTzDd7hsFzUjotbidgTSopugWsIvvX0CUcbLhUE_JtaBhcaa70p58G8iayWAAFpJNgHLsm_xVOjSPdyMK0fZlRUq_Cbax10R6mrmz0VUyYoeFczSm4kcFXiXexqI_IXtLFG3a8GEl77c1WpKe_B2CEbxY_g5BK_FH8UtoiJ1y-LPy-jrThLG0-zolonm5vHif9ew-kJJExOv1SNsejVtBoYoHUPyPZjixrgC7YR1UaRQtAiS5RBTqFAOUyj68s-QhnKsFQ6bQLLGa0KBjVPeEsWbItZA89TWDDUCiToIhhNkw9AqDi27uUKVGe4mw1g2hi52ppOUur01Jav3RFeMP27D6ZVZylGARenyVHAyUt4r29bnRHg0reMG2jEqwNkiWp746PJc6cdJp15pgX470l2jcM6l9UaMlQXXdUGczZmN1ji8jSIwgR6Ko7LOrqKyS_bMs-Fc0M_4pKnT89SgiuFA2beCkUiKmCjNzt7TCrU-NzeLIYYtQzVrBUkmYnZMWURqM6UfbvT_2ICPhYiXNqseTPH2PrZ4Lq9kZOuco1oU1P35Mciw8wn0uu1PLTP5BVdZAP8xv6PV4VA2mNIPe_DWtJ9saZOw-Dxe9Qap4Ns5nWUhlSfDKoTUsDfvKx5jIE_OtbGqMnnnr-WSb8i8zqMTQX2ymzOrlf1o_8aG6KyFEaXsvOkY3gR6eq-DDyUTiSskmMZ_vgKwrC2m60HMKw16dgOgvMmSLXN-weZnTcIBwWX_tamT9Gzsunvs7gLcNvkBFg8SGndZ84v351tZmAjFaUA- -UB_0000]--></g></svg>