<?xml version="1.0" encoding="us-ascii" standalone="no"?><svg xmlns="http://www.w3.org/2000/svg" xmlns:xlink="http://www.w3.org/1999/xlink" contentStyleType="text/css" height="2527px" preserveAspectRatio="none" style="width:1917px;height:2527px;background:#FFFFFF;" version="1.1" viewBox="0 0 1917 2527" width="1917px" zoomAndPan="magnify"><defs/><g><text fill="#000000" font-family="Verdana" font-size="22" font-weight="bold" lengthAdjust="spacing" textLength="579" x="667.5" y="37.1182">Servizio Multiplayer - Diagramma di Sequenza</text><rect fill="#FFFFFF" height="241.7632" style="stroke:#000000;stroke-width:1.0;" width="1885" x="15" y="1046.9321"/><rect fill="#FFFFFF" height="45.168" style="stroke:none;stroke-width:1.0;" width="1885" x="15" y="1243.5273"/><rect fill="#FFFFFF" height="182.1646" style="stroke:#000000;stroke-width:1.0;" width="1885" x="15" y="1773.8857"/><rect fill="#FFFFFF" height="45.168" style="stroke:none;stroke-width:1.0;" width="1885" x="15" y="1910.8823"/><rect fill="#FFFFFF" height="165.3652" style="stroke:#000000;stroke-width:1.0;" width="1885" x="15" y="2116.2476"/><rect fill="#FFFFFF" height="74.9673" style="stroke:none;stroke-width:1.0;" width="1885" x="15" y="2206.6455"/><line style="stroke:#000000;stroke-width:1.0;" x1="80" x2="80" y1="84.752" y2="2491.4087"/><line style="stroke:#000000;stroke-width:1.0;" x1="209" x2="209" y1="84.752" y2="2491.4087"/><line style="stroke:#000000;stroke-width:1.0;" x1="342" x2="342" y1="84.752" y2="2491.4087"/><line style="stroke:#000000;stroke-width:1.0;" x1="893" x2="893" y1="84.752" y2="2491.4087"/><line style="stroke:#000000;stroke-width:1.0;" x1="1318" x2="1318" y1="84.752" y2="2491.4087"/><line style="stroke:#000000;stroke-width:1.0;" x1="1703" x2="1703" y1="84.752" y2="2491.4087"/><line style="stroke:#000000;stroke-width:1.0;" x1="1840" x2="1840" y1="84.752" y2="2491.4087"/><rect fill="#FFFFFF" height="31.0146" rx="2.5" ry="2.5" style="stroke:#000000;stroke-width:1.0;" width="91" x="35" y="52.7373"/><text fill="#000000" font-family="Verdana" font-size="14" lengthAdjust="spacing" textLength="77" x="42" y="73.8125">Client Host</text><rect fill="#FFFFFF" height="31.0146" rx="2.5" ry="2.5" style="stroke:#000000;stroke-width:1.0;" width="91" x="35" y="2490.4087"/><text fill="#000000" font-family="Verdana" font-size="14" lengthAdjust="spacing" textLength="77" x="42" y="2511.4839">Client Host</text><rect fill="#FFFFFF" height="31.0146" rx="2.5" ry="2.5" style="stroke:#000000;stroke-width:1.0;" width="106" x="156" y="52.7373"/><text fill="#000000" font-family="Verdana" font-size="14" lengthAdjust="spacing" textLength="92" x="163" y="73.8125">Joining Client</text><rect fill="#FFFFFF" height="31.0146" rx="2.5" ry="2.5" style="stroke:#000000;stroke-width:1.0;" width="106" x="156" y="2490.4087"/><text fill="#000000" font-family="Verdana" font-size="14" lengthAdjust="spacing" textLength="92" x="163" y="2511.4839">Joining Client</text><rect fill="#FFFFFF" height="31.0146" rx="2.5" ry="2.5" style="stroke:#000000;stroke-width:1.0;" width="100" x="292" y="52.7373"/><text fill="#000000" font-family="Verdana" font-size="14" lengthAdjust="spacing" textLength="86" x="299" y="73.8125">Client Amico</text><rect fill="#FFFFFF" height="31.0146" rx="2.5" ry="2.5" style="stroke:#000000;stroke-width:1.0;" width="100" x="292" y="2490.4087"/><text fill="#000000" font-family="Verdana" font-size="14" lengthAdjust="spacing" textLength="86" x="299" y="2511.4839">Client Amico</text><rect fill="#FFFFFF" height="31.0146" rx="2.5" ry="2.5" style="stroke:#000000;stroke-width:1.0;" width="116" x="835" y="52.7373"/><text fill="#000000" font-family="Verdana" font-size="14" lengthAdjust="spacing" textLength="102" x="842" y="73.8125">API Multiplayer</text><rect fill="#FFFFFF" height="31.0146" rx="2.5" ry="2.5" style="stroke:#000000;stroke-width:1.0;" width="116" x="835" y="2490.4087"/><text fill="#000000" font-family="Verdana" font-size="14" lengthAdjust="spacing" textLength="102" x="842" y="2511.4839">API Multiplayer</text><rect fill="#FFFFFF" height="31.0146" rx="2.5" ry="2.5" style="stroke:#000000;stroke-width:1.0;" width="120" x="1258" y="52.7373"/><text fill="#000000" font-family="Verdana" font-size="14" lengthAdjust="spacing" textLength="106" x="1265" y="73.8125">Gestore Partite</text><rect fill="#FFFFFF" height="31.0146" rx="2.5" ry="2.5" style="stroke:#000000;stroke-width:1.0;" width="120" x="1258" y="2490.4087"/><text fill="#000000" font-family="Verdana" font-size="14" lengthAdjust="spacing" textLength="106" x="1265" y="2511.4839">Gestore Partite</text><rect fill="#FFFFFF" height="31.0146" rx="2.5" ry="2.5" style="stroke:#000000;stroke-width:1.0;" width="134" x="1636" y="52.7373"/><text fill="#000000" font-family="Verdana" font-size="14" lengthAdjust="spacing" textLength="120" x="1643" y="73.8125">Servizio Notifiche</text><rect fill="#FFFFFF" height="31.0146" rx="2.5" ry="2.5" style="stroke:#000000;stroke-width:1.0;" width="134" x="1636" y="2490.4087"/><text fill="#000000" font-family="Verdana" font-size="14" lengthAdjust="spacing" textLength="120" x="1643" y="2511.4839">Servizio Notifiche</text><rect fill="#FFFFFF" height="31.0146" rx="2.5" ry="2.5" style="stroke:#000000;stroke-width:1.0;" width="80" x="1800" y="52.7373"/><text fill="#000000" font-family="Verdana" font-size="14" lengthAdjust="spacing" textLength="66" x="1807" y="73.8125">Database</text><rect fill="#FFFFFF" height="31.0146" rx="2.5" ry="2.5" style="stroke:#000000;stroke-width:1.0;" width="80" x="1800" y="2490.4087"/><text fill="#000000" font-family="Verdana" font-size="14" lengthAdjust="spacing" textLength="66" x="1807" y="2511.4839">Database</text><rect fill="#FFFFFF" height="3" style="stroke:#FFFFFF;stroke-width:1.0;" width="1905" x="5" y="115.6516"/><line style="stroke:#000000;stroke-width:0.5;" x1="5" x2="1910" y1="115.6516" y2="115.6516"/><line style="stroke:#000000;stroke-width:0.5;" x1="5" x2="1910" y1="118.6516" y2="118.6516"/><rect fill="#FFFFFF" height="23.7993" style="stroke:#000000;stroke-width:1.0;" width="105" x="905" y="104.752"/><text fill="#000000" font-family="Verdana" font-size="13" font-weight="bold" lengthAdjust="spacing" textLength="87" x="911" y="121.8218">Crea Partita</text><polygon fill="#000000" points="881,156.3506,891,160.3506,881,164.3506,885,160.3506" style="stroke:#000000;stroke-width:1.0;"/><line style="stroke:#000000;stroke-width:1.0;" x1="80.5" x2="887" y1="160.3506" y2="160.3506"/><text fill="#000000" font-family="Verdana" font-size="13" lengthAdjust="spacing" textLength="410" x="87.5" y="155.6211">POST /multiplayer/create {token, map_id: 1, max_players: 4}</text><line style="stroke:#000000;stroke-width:1.0;" x1="893" x2="935" y1="190.1499" y2="190.1499"/><line style="stroke:#000000;stroke-width:1.0;" x1="935" x2="935" y1="190.1499" y2="203.1499"/><line style="stroke:#000000;stroke-width:1.0;" x1="894" x2="935" y1="203.1499" y2="203.1499"/><polygon fill="#000000" points="904,199.1499,894,203.1499,904,207.1499,900,203.1499" style="stroke:#000000;stroke-width:1.0;"/><text fill="#000000" font-family="Verdana" font-size="13" lengthAdjust="spacing" textLength="95" x="900" y="185.4204">valida_token()</text><polygon fill="#000000" points="1828,228.9492,1838,232.9492,1828,236.9492,1832,232.9492" style="stroke:#000000;stroke-width:1.0;"/><line style="stroke:#000000;stroke-width:1.0;" x1="893" x2="1834" y1="232.9492" y2="232.9492"/><text fill="#000000" font-family="Verdana" font-size="13" lengthAdjust="spacing" textLength="183" x="900" y="228.2197">INSERT INTO GameMatches</text><polygon fill="#000000" points="904,258.7485,894,262.7485,904,266.7485,900,262.7485" style="stroke:#000000;stroke-width:1.0;"/><line style="stroke:#000000;stroke-width:1.0;" x1="898" x2="1839" y1="262.7485" y2="262.7485"/><text fill="#000000" font-family="Verdana" font-size="13" lengthAdjust="spacing" textLength="60" x="910" y="258.019">match_id</text><polygon fill="#000000" points="1828,288.5479,1838,292.5479,1828,296.5479,1832,292.5479" style="stroke:#000000;stroke-width:1.0;"/><line style="stroke:#000000;stroke-width:1.0;" x1="893" x2="1834" y1="292.5479" y2="292.5479"/><text fill="#000000" font-family="Verdana" font-size="13" lengthAdjust="spacing" textLength="261" x="900" y="287.8184">INSERT INTO GameMatchPlayers (host)</text><polygon fill="#000000" points="1306,318.3472,1316,322.3472,1306,326.3472,1310,322.3472" style="stroke:#000000;stroke-width:1.0;"/><line style="stroke:#000000;stroke-width:1.0;" x1="893" x2="1312" y1="322.3472" y2="322.3472"/><text fill="#000000" font-family="Verdana" font-size="13" lengthAdjust="spacing" textLength="166" x="900" y="317.6177">registraPartita(match_id)</text><polygon fill="#000000" points="904,348.1465,894,352.1465,904,356.1465,900,352.1465" style="stroke:#000000;stroke-width:1.0;"/><line style="stroke:#000000;stroke-width:1.0;" x1="898" x2="1317" y1="352.1465" y2="352.1465"/><text fill="#000000" font-family="Verdana" font-size="13" lengthAdjust="spacing" textLength="116" x="910" y="347.417">partita_registrata</text><polygon fill="#000000" points="91.5,377.9458,81.5,381.9458,91.5,385.9458,87.5,381.9458" style="stroke:#000000;stroke-width:1.0;"/><line style="stroke:#000000;stroke-width:1.0;" x1="85.5" x2="892" y1="381.9458" y2="381.9458"/><text fill="#000000" font-family="Verdana" font-size="13" lengthAdjust="spacing" textLength="434" x="97.5" y="377.2163">{successo: true, match_id: 123, join_url: "/multiplayer/join/123"}</text><rect fill="#FFFFFF" height="3" style="stroke:#FFFFFF;stroke-width:1.0;" width="1905" x="5" y="410.8455"/><line style="stroke:#000000;stroke-width:0.5;" x1="5" x2="1910" y1="410.8455" y2="410.8455"/><line style="stroke:#000000;stroke-width:0.5;" x1="5" x2="1910" y1="413.8455" y2="413.8455"/><rect fill="#FFFFFF" height="23.7993" style="stroke:#000000;stroke-width:1.0;" width="151" x="882" y="399.9458"/><text fill="#000000" font-family="Verdana" font-size="13" font-weight="bold" lengthAdjust="spacing" textLength="133" x="888" y="417.0156">Invia Invito Amico</text><polygon fill="#000000" points="881,451.5444,891,455.5444,881,459.5444,885,455.5444" style="stroke:#000000;stroke-width:1.0;"/><line style="stroke:#000000;stroke-width:1.0;" x1="80.5" x2="887" y1="455.5444" y2="455.5444"/><text fill="#000000" font-family="Verdana" font-size="13" lengthAdjust="spacing" textLength="492" x="87.5" y="450.8149">POST /multiplayer/invite {token, friend_username: "alice", match_id: 123}</text><line style="stroke:#000000;stroke-width:1.0;" x1="893" x2="935" y1="485.3438" y2="485.3438"/><line style="stroke:#000000;stroke-width:1.0;" x1="935" x2="935" y1="485.3438" y2="498.3438"/><line style="stroke:#000000;stroke-width:1.0;" x1="894" x2="935" y1="498.3438" y2="498.3438"/><polygon fill="#000000" points="904,494.3438,894,498.3438,904,502.3438,900,498.3438" style="stroke:#000000;stroke-width:1.0;"/><text fill="#000000" font-family="Verdana" font-size="13" lengthAdjust="spacing" textLength="95" x="900" y="480.6143">valida_token()</text><polygon fill="#000000" points="1828,524.1431,1838,528.1431,1828,532.1431,1832,528.1431" style="stroke:#000000;stroke-width:1.0;"/><line style="stroke:#000000;stroke-width:1.0;" x1="893" x2="1834" y1="528.1431" y2="528.1431"/><text fill="#000000" font-family="Verdana" font-size="13" lengthAdjust="spacing" textLength="327" x="900" y="523.4136">SELECT id FROM Users WHERE username = "alice"</text><polygon fill="#000000" points="904,553.9424,894,557.9424,904,561.9424,900,557.9424" style="stroke:#000000;stroke-width:1.0;"/><line style="stroke:#000000;stroke-width:1.0;" x1="898" x2="1839" y1="557.9424" y2="557.9424"/><text fill="#000000" font-family="Verdana" font-size="13" lengthAdjust="spacing" textLength="56" x="910" y="553.2129">friend_id</text><polygon fill="#000000" points="1828,583.7417,1838,587.7417,1828,591.7417,1832,587.7417" style="stroke:#000000;stroke-width:1.0;"/><line style="stroke:#000000;stroke-width:1.0;" x1="893" x2="1834" y1="587.7417" y2="587.7417"/><text fill="#000000" font-family="Verdana" font-size="13" lengthAdjust="spacing" textLength="176" x="900" y="583.0122">INSERT INTO FriendInvites</text><polygon fill="#000000" points="1691,613.541,1701,617.541,1691,621.541,1695,617.541" style="stroke:#000000;stroke-width:1.0;"/><line style="stroke:#000000;stroke-width:1.0;" x1="893" x2="1697" y1="617.541" y2="617.541"/><text fill="#000000" font-family="Verdana" font-size="13" lengthAdjust="spacing" textLength="227" x="900" y="612.8115">inviaNotifica(friend_id, dati_invito)</text><polygon fill="#000000" points="353,643.3403,343,647.3403,353,651.3403,349,647.3403" style="stroke:#000000;stroke-width:1.0;"/><line style="stroke:#000000;stroke-width:1.0;" x1="347" x2="1702" y1="647.3403" y2="647.3403"/><text fill="#000000" font-family="Verdana" font-size="13" lengthAdjust="spacing" textLength="290" x="359" y="642.6108">Notifica PUSH "Bob ti ha invitato a giocare!"</text><polygon fill="#000000" points="91.5,673.1396,81.5,677.1396,91.5,681.1396,87.5,677.1396" style="stroke:#000000;stroke-width:1.0;"/><line style="stroke:#000000;stroke-width:1.0;" x1="85.5" x2="892" y1="677.1396" y2="677.1396"/><text fill="#000000" font-family="Verdana" font-size="13" lengthAdjust="spacing" textLength="301" x="97.5" y="672.4102">{successo: true, messaggio: "Invito inviato"}</text><rect fill="#FFFFFF" height="3" style="stroke:#FFFFFF;stroke-width:1.0;" width="1905" x="5" y="706.0393"/><line style="stroke:#000000;stroke-width:0.5;" x1="5" x2="1910" y1="706.0393" y2="706.0393"/><line style="stroke:#000000;stroke-width:0.5;" x1="5" x2="1910" y1="709.0393" y2="709.0393"/><rect fill="#FFFFFF" height="23.7993" style="stroke:#000000;stroke-width:1.0;" width="170" x="872.5" y="695.1396"/><text fill="#000000" font-family="Verdana" font-size="13" font-weight="bold" lengthAdjust="spacing" textLength="152" x="878.5" y="712.2095">Amico Accetta Invito</text><polygon fill="#000000" points="881,746.7383,891,750.7383,881,754.7383,885,750.7383" style="stroke:#000000;stroke-width:1.0;"/><line style="stroke:#000000;stroke-width:1.0;" x1="342" x2="887" y1="750.7383" y2="750.7383"/><text fill="#000000" font-family="Verdana" font-size="13" lengthAdjust="spacing" textLength="292" x="349" y="746.0088">GET /multiplayer/invites?token=friend_token</text><polygon fill="#000000" points="1828,776.5376,1838,780.5376,1828,784.5376,1832,780.5376" style="stroke:#000000;stroke-width:1.0;"/><line style="stroke:#000000;stroke-width:1.0;" x1="893" x2="1834" y1="780.5376" y2="780.5376"/><text fill="#000000" font-family="Verdana" font-size="13" lengthAdjust="spacing" textLength="453" x="900" y="775.8081">SELECT invites WHERE to_user_id = friend_id AND status = 'pending'</text><polygon fill="#000000" points="904,806.3369,894,810.3369,904,814.3369,900,810.3369" style="stroke:#000000;stroke-width:1.0;"/><line style="stroke:#000000;stroke-width:1.0;" x1="898" x2="1839" y1="810.3369" y2="810.3369"/><text fill="#000000" font-family="Verdana" font-size="13" lengthAdjust="spacing" textLength="96" x="910" y="805.6074">inviti_pendenti</text><polygon fill="#000000" points="353,836.1362,343,840.1362,353,844.1362,349,840.1362" style="stroke:#000000;stroke-width:1.0;"/><line style="stroke:#000000;stroke-width:1.0;" x1="347" x2="892" y1="840.1362" y2="840.1362"/><text fill="#000000" font-family="Verdana" font-size="13" lengthAdjust="spacing" textLength="455" x="359" y="835.4067">[{match_id: 123, from_username: "Bob", map_name: "Deserto"}, ...]</text><polygon fill="#000000" points="881,865.9355,891,869.9355,881,873.9355,885,869.9355" style="stroke:#000000;stroke-width:1.0;"/><line style="stroke:#000000;stroke-width:1.0;" x1="342" x2="887" y1="869.9355" y2="869.9355"/><text fill="#000000" font-family="Verdana" font-size="13" lengthAdjust="spacing" textLength="387" x="349" y="865.2061">POST /multiplayer/join {token, match_id: 123, tank_id: 2}</text><line style="stroke:#000000;stroke-width:1.0;" x1="893" x2="935" y1="899.7349" y2="899.7349"/><line style="stroke:#000000;stroke-width:1.0;" x1="935" x2="935" y1="899.7349" y2="912.7349"/><line style="stroke:#000000;stroke-width:1.0;" x1="894" x2="935" y1="912.7349" y2="912.7349"/><polygon fill="#000000" points="904,908.7349,894,912.7349,904,916.7349,900,912.7349" style="stroke:#000000;stroke-width:1.0;"/><text fill="#000000" font-family="Verdana" font-size="13" lengthAdjust="spacing" textLength="95" x="900" y="895.0054">valida_token()</text><polygon fill="#000000" points="1828,938.5342,1838,942.5342,1828,946.5342,1832,942.5342" style="stroke:#000000;stroke-width:1.0;"/><line style="stroke:#000000;stroke-width:1.0;" x1="893" x2="1834" y1="942.5342" y2="942.5342"/><text fill="#000000" font-family="Verdana" font-size="13" lengthAdjust="spacing" textLength="464" x="900" y="937.8047">SELECT * FROM GameMatches WHERE id = 123 AND status = 'waiting'</text><polygon fill="#000000" points="904,968.3335,894,972.3335,904,976.3335,900,972.3335" style="stroke:#000000;stroke-width:1.0;"/><line style="stroke:#000000;stroke-width:1.0;" x1="898" x2="1839" y1="972.3335" y2="972.3335"/><text fill="#000000" font-family="Verdana" font-size="13" lengthAdjust="spacing" textLength="77" x="910" y="967.604">dati_partita</text><polygon fill="#000000" points="1828,998.1328,1838,1002.1328,1828,1006.1328,1832,1002.1328" style="stroke:#000000;stroke-width:1.0;"/><line style="stroke:#000000;stroke-width:1.0;" x1="893" x2="1834" y1="1002.1328" y2="1002.1328"/><text fill="#000000" font-family="Verdana" font-size="13" lengthAdjust="spacing" textLength="452" x="900" y="997.4033">SELECT COUNT(*) FROM GameMatchPlayers WHERE match_id = 123</text><polygon fill="#000000" points="904,1027.9321,894,1031.9321,904,1035.9321,900,1031.9321" style="stroke:#000000;stroke-width:1.0;"/><line style="stroke:#000000;stroke-width:1.0;" x1="898" x2="1839" y1="1031.9321" y2="1031.9321"/><text fill="#000000" font-family="Verdana" font-size="13" lengthAdjust="spacing" textLength="180" x="910" y="1027.2026">conteggio_giocatori_attuali</text><path d="M15,1046.9321 L79,1046.9321 L79,1054.7314 L69,1064.7314 L15,1064.7314 L15,1046.9321 " fill="#FFFFFF" style="stroke:#000000;stroke-width:1.0;"/><rect fill="none" height="241.7632" style="stroke:#000000;stroke-width:1.0;" width="1885" x="15" y="1046.9321"/><text fill="#000000" font-family="Verdana" font-size="13" font-weight="bold" lengthAdjust="spacing" textLength="19" x="30" y="1061.002">alt</text><text fill="#000000" font-family="Verdana" font-size="11" font-weight="bold" lengthAdjust="spacing" textLength="213" x="94" y="1059.9912">[Partita Disponibile e Non Piena]</text><polygon fill="#000000" points="1828,1082.5308,1838,1086.5308,1828,1090.5308,1832,1086.5308" style="stroke:#000000;stroke-width:1.0;"/><line style="stroke:#000000;stroke-width:1.0;" x1="893" x2="1834" y1="1086.5308" y2="1086.5308"/><text fill="#000000" font-family="Verdana" font-size="13" lengthAdjust="spacing" textLength="215" x="900" y="1081.8013">INSERT INTO GameMatchPlayers</text><polygon fill="#000000" points="1306,1112.3301,1316,1116.3301,1306,1120.3301,1310,1116.3301" style="stroke:#000000;stroke-width:1.0;"/><line style="stroke:#000000;stroke-width:1.0;" x1="893" x2="1312" y1="1116.3301" y2="1116.3301"/><text fill="#000000" font-family="Verdana" font-size="13" lengthAdjust="spacing" textLength="240" x="900" y="1111.6006">giocatoreEntrato(match_id, user_id)</text><polygon fill="#000000" points="91.5,1142.1294,81.5,1146.1294,91.5,1150.1294,87.5,1146.1294" style="stroke:#000000;stroke-width:1.0;"/><line style="stroke:#000000;stroke-width:1.0;" x1="85.5" x2="1317" y1="1146.1294" y2="1146.1294"/><text fill="#000000" font-family="Verdana" font-size="13" lengthAdjust="spacing" textLength="540" x="97.5" y="1141.3999">WEBSOCKET {event: "giocatore_entrato", giocatore: "alice", giocatori_attuali: 2}</text><polygon fill="#000000" points="353,1171.9287,343,1175.9287,353,1179.9287,349,1175.9287" style="stroke:#000000;stroke-width:1.0;"/><line style="stroke:#000000;stroke-width:1.0;" x1="347" x2="1317" y1="1175.9287" y2="1175.9287"/><text fill="#000000" font-family="Verdana" font-size="13" lengthAdjust="spacing" textLength="415" x="359" y="1171.1992">WEBSOCKET {event: "unione_riuscita", dettagli_partita: {...}}</text><polygon fill="#000000" points="1828,1201.728,1838,1205.728,1828,1209.728,1832,1205.728" style="stroke:#000000;stroke-width:1.0;"/><line style="stroke:#000000;stroke-width:1.0;" x1="893" x2="1834" y1="1205.728" y2="1205.728"/><text fill="#000000" font-family="Verdana" font-size="13" lengthAdjust="spacing" textLength="307" x="900" y="1200.9985">UPDATE FriendInvites SET status = 'accepted'</text><polygon fill="#000000" points="353,1231.5273,343,1235.5273,353,1239.5273,349,1235.5273" style="stroke:#000000;stroke-width:1.0;"/><line style="stroke:#000000;stroke-width:1.0;" x1="347" x2="892" y1="1235.5273" y2="1235.5273"/><text fill="#000000" font-family="Verdana" font-size="13" lengthAdjust="spacing" textLength="527" x="359" y="1230.7979">{successo: true, giocatori_attuali: 2, max_giocatori: 4, possibile_iniziare: true}</text><line style="stroke:#000000;stroke-width:1.0;stroke-dasharray:2.0,2.0;" x1="15" x2="1900" y1="1244.5273" y2="1244.5273"/><text fill="#000000" font-family="Verdana" font-size="11" font-weight="bold" lengthAdjust="spacing" textLength="213" x="20" y="1255.5864">[Partita Piena o Non Disponibile]</text><polygon fill="#000000" points="353,1276.6953,343,1280.6953,353,1284.6953,349,1280.6953" style="stroke:#000000;stroke-width:1.0;"/><line style="stroke:#000000;stroke-width:1.0;" x1="347" x2="892" y1="1280.6953" y2="1280.6953"/><text fill="#000000" font-family="Verdana" font-size="13" lengthAdjust="spacing" textLength="331" x="359" y="1275.9658">{errore: "La partita &#232; piena o non pi&#249; disponibile"}</text><rect fill="#FFFFFF" height="3" style="stroke:#FFFFFF;stroke-width:1.0;" width="1905" x="5" y="1316.595"/><line style="stroke:#000000;stroke-width:0.5;" x1="5" x2="1910" y1="1316.595" y2="1316.595"/><line style="stroke:#000000;stroke-width:0.5;" x1="5" x2="1910" y1="1319.595" y2="1319.595"/><rect fill="#FFFFFF" height="23.7993" style="stroke:#000000;stroke-width:1.0;" width="256" x="829.5" y="1305.6953"/><text fill="#000000" font-family="Verdana" font-size="13" font-weight="bold" lengthAdjust="spacing" textLength="238" x="835.5" y="1322.7651">Naviga e Unisciti Partita Pubblica</text><polygon fill="#000000" points="881,1357.2939,891,1361.2939,881,1365.2939,885,1361.2939" style="stroke:#000000;stroke-width:1.0;"/><line style="stroke:#000000;stroke-width:1.0;" x1="209" x2="887" y1="1361.2939" y2="1361.2939"/><text fill="#000000" font-family="Verdana" font-size="13" lengthAdjust="spacing" textLength="133" x="216" y="1356.5645">GET /multiplayer/list</text><polygon fill="#000000" points="1828,1387.0933,1838,1391.0933,1828,1395.0933,1832,1391.0933" style="stroke:#000000;stroke-width:1.0;"/><line style="stroke:#000000;stroke-width:1.0;" x1="893" x2="1834" y1="1391.0933" y2="1391.0933"/><text fill="#000000" font-family="Verdana" font-size="13" lengthAdjust="spacing" textLength="486" x="900" y="1386.3638">SELECT matches with status = 'waiting' AND player_count &lt; max_players</text><polygon fill="#000000" points="904,1416.8926,894,1420.8926,904,1424.8926,900,1420.8926" style="stroke:#000000;stroke-width:1.0;"/><line style="stroke:#000000;stroke-width:1.0;" x1="898" x2="1839" y1="1420.8926" y2="1420.8926"/><text fill="#000000" font-family="Verdana" font-size="13" lengthAdjust="spacing" textLength="114" x="910" y="1416.1631">partite_disponibili</text><polygon fill="#000000" points="220,1446.6919,210,1450.6919,220,1454.6919,216,1450.6919" style="stroke:#000000;stroke-width:1.0;"/><line style="stroke:#000000;stroke-width:1.0;" x1="214" x2="892" y1="1450.6919" y2="1450.6919"/><text fill="#000000" font-family="Verdana" font-size="13" lengthAdjust="spacing" textLength="621" x="226" y="1445.9624">[{match_id: 124, creata_da: "Charlie", map_id: 2, giocatori_attuali: 1, max_giocatori: 3}, ...]</text><polygon fill="#000000" points="881,1476.4912,891,1480.4912,881,1484.4912,885,1480.4912" style="stroke:#000000;stroke-width:1.0;"/><line style="stroke:#000000;stroke-width:1.0;" x1="209" x2="887" y1="1480.4912" y2="1480.4912"/><text fill="#000000" font-family="Verdana" font-size="13" lengthAdjust="spacing" textLength="387" x="216" y="1475.7617">POST /multiplayer/join {token, match_id: 124, tank_id: 1}</text><line style="stroke:#000000;stroke-width:1.0;" x1="893" x2="935" y1="1510.2905" y2="1510.2905"/><line style="stroke:#000000;stroke-width:1.0;" x1="935" x2="935" y1="1510.2905" y2="1523.2905"/><line style="stroke:#000000;stroke-width:1.0;" x1="894" x2="935" y1="1523.2905" y2="1523.2905"/><polygon fill="#000000" points="904,1519.2905,894,1523.2905,904,1527.2905,900,1523.2905" style="stroke:#000000;stroke-width:1.0;"/><text fill="#000000" font-family="Verdana" font-size="13" lengthAdjust="spacing" textLength="95" x="900" y="1505.561">valida_token()</text><polygon fill="#000000" points="1828,1549.0898,1838,1553.0898,1828,1557.0898,1832,1553.0898" style="stroke:#000000;stroke-width:1.0;"/><line style="stroke:#000000;stroke-width:1.0;" x1="893" x2="1834" y1="1553.0898" y2="1553.0898"/><text fill="#000000" font-family="Verdana" font-size="13" lengthAdjust="spacing" textLength="317" x="900" y="1548.3604">verifica disponibilit&#224; partita e aggiungi giocatore</text><polygon fill="#000000" points="1306,1578.8892,1316,1582.8892,1306,1586.8892,1310,1582.8892" style="stroke:#000000;stroke-width:1.0;"/><line style="stroke:#000000;stroke-width:1.0;" x1="893" x2="1312" y1="1582.8892" y2="1582.8892"/><text fill="#000000" font-family="Verdana" font-size="13" lengthAdjust="spacing" textLength="248" x="900" y="1578.1597">giocatoreEntrato(124, joiner_user_id)</text><polygon fill="#000000" points="904,1608.6885,894,1612.6885,904,1616.6885,900,1612.6885" style="stroke:#000000;stroke-width:1.0;"/><line style="stroke:#000000;stroke-width:1.0;" x1="898" x2="1317" y1="1612.6885" y2="1612.6885"/><text fill="#000000" font-family="Verdana" font-size="13" lengthAdjust="spacing" textLength="105" x="910" y="1607.959">risultato_unione</text><polygon fill="#000000" points="220,1638.4878,210,1642.4878,220,1646.4878,216,1642.4878" style="stroke:#000000;stroke-width:1.0;"/><line style="stroke:#000000;stroke-width:1.0;" x1="214" x2="892" y1="1642.4878" y2="1642.4878"/><text fill="#000000" font-family="Verdana" font-size="13" lengthAdjust="spacing" textLength="527" x="226" y="1637.7583">{successo: true, giocatori_attuali: 2, max_giocatori: 3, possibile_iniziare: true}</text><rect fill="#FFFFFF" height="3" style="stroke:#FFFFFF;stroke-width:1.0;" width="1905" x="5" y="1671.3875"/><line style="stroke:#000000;stroke-width:0.5;" x1="5" x2="1910" y1="1671.3875" y2="1671.3875"/><line style="stroke:#000000;stroke-width:0.5;" x1="5" x2="1910" y1="1674.3875" y2="1674.3875"/><rect fill="#FFFFFF" height="23.7993" style="stroke:#000000;stroke-width:1.0;" width="111" x="902" y="1660.4878"/><text fill="#000000" font-family="Verdana" font-size="13" font-weight="bold" lengthAdjust="spacing" textLength="93" x="908" y="1677.5576">Inizia Partita</text><polygon fill="#000000" points="1306,1712.0864,1316,1716.0864,1306,1720.0864,1310,1716.0864" style="stroke:#000000;stroke-width:1.0;"/><line style="stroke:#000000;stroke-width:1.0;" x1="80.5" x2="1312" y1="1716.0864" y2="1716.0864"/><text fill="#000000" font-family="Verdana" font-size="13" lengthAdjust="spacing" textLength="351" x="87.5" y="1711.3569">WEBSOCKET {event: "inizia_partita", match_id: 123}</text><line style="stroke:#000000;stroke-width:1.0;" x1="1318" x2="1360" y1="1745.8857" y2="1745.8857"/><line style="stroke:#000000;stroke-width:1.0;" x1="1360" x2="1360" y1="1745.8857" y2="1758.8857"/><line style="stroke:#000000;stroke-width:1.0;" x1="1319" x2="1360" y1="1758.8857" y2="1758.8857"/><polygon fill="#000000" points="1329,1754.8857,1319,1758.8857,1329,1762.8857,1325,1758.8857" style="stroke:#000000;stroke-width:1.0;"/><text fill="#000000" font-family="Verdana" font-size="13" lengthAdjust="spacing" textLength="202" x="1325" y="1741.1563">validaTuttiGiocatoriPronti(123)</text><path d="M15,1773.8857 L79,1773.8857 L79,1781.6851 L69,1791.6851 L15,1791.6851 L15,1773.8857 " fill="#FFFFFF" style="stroke:#000000;stroke-width:1.0;"/><rect fill="none" height="182.1646" style="stroke:#000000;stroke-width:1.0;" width="1885" x="15" y="1773.8857"/><text fill="#000000" font-family="Verdana" font-size="13" font-weight="bold" lengthAdjust="spacing" textLength="19" x="30" y="1787.9556">alt</text><text fill="#000000" font-family="Verdana" font-size="11" font-weight="bold" lengthAdjust="spacing" textLength="148" x="94" y="1786.9448">[Tutti Giocatori Pronti]</text><polygon fill="#000000" points="1828,1809.4844,1838,1813.4844,1828,1817.4844,1832,1813.4844" style="stroke:#000000;stroke-width:1.0;"/><line style="stroke:#000000;stroke-width:1.0;" x1="1318" x2="1834" y1="1813.4844" y2="1813.4844"/><text fill="#000000" font-family="Verdana" font-size="13" lengthAdjust="spacing" textLength="470" x="1325" y="1808.7549">UPDATE GameMatches SET status = 'in_progress', started_at = NOW()</text><polygon fill="#000000" points="91.5,1839.2837,81.5,1843.2837,91.5,1847.2837,87.5,1843.2837" style="stroke:#000000;stroke-width:1.0;"/><line style="stroke:#000000;stroke-width:1.0;" x1="85.5" x2="1317" y1="1843.2837" y2="1843.2837"/><text fill="#000000" font-family="Verdana" font-size="13" lengthAdjust="spacing" textLength="468" x="97.5" y="1838.5542">WEBSOCKET {event: "partita_iniziata", game_session_id: "game_123"}</text><polygon fill="#000000" points="353,1869.083,343,1873.083,353,1877.083,349,1873.083" style="stroke:#000000;stroke-width:1.0;"/><line style="stroke:#000000;stroke-width:1.0;" x1="347" x2="1317" y1="1873.083" y2="1873.083"/><text fill="#000000" font-family="Verdana" font-size="13" lengthAdjust="spacing" textLength="468" x="359" y="1868.3535">WEBSOCKET {event: "partita_iniziata", game_session_id: "game_123"}</text><polygon fill="#000000" points="904,1898.8823,894,1902.8823,904,1906.8823,900,1902.8823" style="stroke:#000000;stroke-width:1.0;"/><line style="stroke:#000000;stroke-width:1.0;" x1="898" x2="1317" y1="1902.8823" y2="1902.8823"/><text fill="#000000" font-family="Verdana" font-size="13" lengthAdjust="spacing" textLength="128" x="910" y="1898.1528">partitaIniziata(123)</text><line style="stroke:#000000;stroke-width:1.0;stroke-dasharray:2.0,2.0;" x1="15" x2="1900" y1="1911.8823" y2="1911.8823"/><text fill="#000000" font-family="Verdana" font-size="11" font-weight="bold" lengthAdjust="spacing" textLength="143" x="20" y="1922.9414">[Giocatori Non Pronti]</text><polygon fill="#000000" points="91.5,1944.0503,81.5,1948.0503,91.5,1952.0503,87.5,1948.0503" style="stroke:#000000;stroke-width:1.0;"/><line style="stroke:#000000;stroke-width:1.0;" x1="85.5" x2="1317" y1="1948.0503" y2="1948.0503"/><text fill="#000000" font-family="Verdana" font-size="13" lengthAdjust="spacing" textLength="521" x="97.5" y="1943.3208">WEBSOCKET {event: "inizio_fallito", motivo: "Non tutti i giocatori sono pronti"}</text><rect fill="#FFFFFF" height="3" style="stroke:#FFFFFF;stroke-width:1.0;" width="1905" x="5" y="1983.95"/><line style="stroke:#000000;stroke-width:0.5;" x1="5" x2="1910" y1="1983.95" y2="1983.95"/><line style="stroke:#000000;stroke-width:0.5;" x1="5" x2="1910" y1="1986.95" y2="1986.95"/><rect fill="#FFFFFF" height="23.7993" style="stroke:#000000;stroke-width:1.0;" width="266" x="824.5" y="1973.0503"/><text fill="#000000" font-family="Verdana" font-size="13" font-weight="bold" lengthAdjust="spacing" textLength="248" x="830.5" y="1990.1201">Gestisci Disconnessione Giocatore</text><polygon fill="#000000" points="1306,2024.6489,1316,2028.6489,1306,2032.6489,1310,2028.6489" style="stroke:#000000;stroke-width:1.0;"/><line style="stroke:#000000;stroke-width:1.0;" x1="342" x2="1312" y1="2028.6489" y2="2028.6489"/><text fill="#000000" font-family="Verdana" font-size="13" lengthAdjust="spacing" textLength="159" x="349" y="2023.9194">WEBSOCKET disconnect</text><line style="stroke:#000000;stroke-width:1.0;" x1="1318" x2="1360" y1="2058.4482" y2="2058.4482"/><line style="stroke:#000000;stroke-width:1.0;" x1="1360" x2="1360" y1="2058.4482" y2="2071.4482"/><line style="stroke:#000000;stroke-width:1.0;" x1="1319" x2="1360" y1="2071.4482" y2="2071.4482"/><polygon fill="#000000" points="1329,2067.4482,1319,2071.4482,1329,2075.4482,1325,2071.4482" style="stroke:#000000;stroke-width:1.0;"/><text fill="#000000" font-family="Verdana" font-size="13" lengthAdjust="spacing" textLength="309" x="1325" y="2053.7188">rilevaDisconnessione(friend_user_id, match_id)</text><polygon fill="#000000" points="1828,2097.2476,1838,2101.2476,1828,2105.2476,1832,2101.2476" style="stroke:#000000;stroke-width:1.0;"/><line style="stroke:#000000;stroke-width:1.0;" x1="1318" x2="1834" y1="2101.2476" y2="2101.2476"/><text fill="#000000" font-family="Verdana" font-size="13" lengthAdjust="spacing" textLength="306" x="1325" y="2096.5181">UPDATE GameMatchPlayers SET status = 'left'</text><path d="M15,2116.2476 L79,2116.2476 L79,2124.0469 L69,2134.0469 L15,2134.0469 L15,2116.2476 " fill="#FFFFFF" style="stroke:#000000;stroke-width:1.0;"/><rect fill="none" height="165.3652" style="stroke:#000000;stroke-width:1.0;" width="1885" x="15" y="2116.2476"/><text fill="#000000" font-family="Verdana" font-size="13" font-weight="bold" lengthAdjust="spacing" textLength="19" x="30" y="2130.3174">alt</text><text fill="#000000" font-family="Verdana" font-size="11" font-weight="bold" lengthAdjust="spacing" textLength="115" x="94" y="2129.3066">[Partita In Corso]</text><polygon fill="#000000" points="91.5,2151.8462,81.5,2155.8462,91.5,2159.8462,87.5,2155.8462" style="stroke:#000000;stroke-width:1.0;"/><line style="stroke:#000000;stroke-width:1.0;" x1="85.5" x2="1317" y1="2155.8462" y2="2155.8462"/><text fill="#000000" font-family="Verdana" font-size="13" lengthAdjust="spacing" textLength="628" x="97.5" y="2151.1167">WEBSOCKET {event: "giocatore_disconnesso", giocatore: "alice", azione: "pausa_o_continua"}</text><line style="stroke:#000000;stroke-width:1.0;" x1="1318" x2="1360" y1="2185.6455" y2="2185.6455"/><line style="stroke:#000000;stroke-width:1.0;" x1="1360" x2="1360" y1="2185.6455" y2="2198.6455"/><line style="stroke:#000000;stroke-width:1.0;" x1="1319" x2="1360" y1="2198.6455" y2="2198.6455"/><polygon fill="#000000" points="1329,2194.6455,1319,2198.6455,1329,2202.6455,1325,2198.6455" style="stroke:#000000;stroke-width:1.0;"/><text fill="#000000" font-family="Verdana" font-size="13" lengthAdjust="spacing" textLength="371" x="1325" y="2180.916">pausaPartita(match_id, 30) // Periodo grazia 30 secondi</text><line style="stroke:#000000;stroke-width:1.0;stroke-dasharray:2.0,2.0;" x1="15" x2="1900" y1="2207.6455" y2="2207.6455"/><text fill="#000000" font-family="Verdana" font-size="11" font-weight="bold" lengthAdjust="spacing" textLength="117" x="20" y="2218.7046">[Partita In Lobby]</text><polygon fill="#000000" points="91.5,2239.8135,81.5,2243.8135,91.5,2247.8135,87.5,2243.8135" style="stroke:#000000;stroke-width:1.0;"/><line style="stroke:#000000;stroke-width:1.0;" x1="85.5" x2="1317" y1="2243.8135" y2="2243.8135"/><text fill="#000000" font-family="Verdana" font-size="13" lengthAdjust="spacing" textLength="454" x="97.5" y="2239.084">WEBSOCKET {event: "giocatore_abbandonato", giocatori_attuali: 1}</text><polygon fill="#000000" points="1828,2269.6128,1838,2273.6128,1828,2277.6128,1832,2273.6128" style="stroke:#000000;stroke-width:1.0;"/><line style="stroke:#000000;stroke-width:1.0;" x1="1318" x2="1834" y1="2273.6128" y2="2273.6128"/><text fill="#000000" font-family="Verdana" font-size="13" lengthAdjust="spacing" textLength="299" x="1325" y="2268.8833">UPDATE GameMatches SET status = 'waiting'</text><rect fill="#FFFFFF" height="3" style="stroke:#FFFFFF;stroke-width:1.0;" width="1905" x="5" y="2309.5125"/><line style="stroke:#000000;stroke-width:0.5;" x1="5" x2="1910" y1="2309.5125" y2="2309.5125"/><line style="stroke:#000000;stroke-width:0.5;" x1="5" x2="1910" y1="2312.5125" y2="2312.5125"/><rect fill="#FFFFFF" height="23.7993" style="stroke:#000000;stroke-width:1.0;" width="141" x="887" y="2298.6128"/><text fill="#000000" font-family="Verdana" font-size="13" font-weight="bold" lengthAdjust="spacing" textLength="123" x="893" y="2315.6826">Completa Partita</text><polygon fill="#000000" points="904,2350.2114,894,2354.2114,904,2358.2114,900,2354.2114" style="stroke:#000000;stroke-width:1.0;"/><line style="stroke:#000000;stroke-width:1.0;" x1="898" x2="1317" y1="2354.2114" y2="2354.2114"/><text fill="#000000" font-family="Verdana" font-size="13" lengthAdjust="spacing" textLength="401" x="910" y="2349.4819">POST /multiplayer/complete {match_id: 123, risultati: {...}}</text><polygon fill="#000000" points="1828,2380.0107,1838,2384.0107,1828,2388.0107,1832,2384.0107" style="stroke:#000000;stroke-width:1.0;"/><line style="stroke:#000000;stroke-width:1.0;" x1="893" x2="1834" y1="2384.0107" y2="2384.0107"/><text fill="#000000" font-family="Verdana" font-size="13" lengthAdjust="spacing" textLength="455" x="900" y="2379.2813">UPDATE GameMatches SET status = 'completed', ended_at = NOW()</text><polygon fill="#000000" points="1828,2409.8101,1838,2413.8101,1828,2417.8101,1832,2413.8101" style="stroke:#000000;stroke-width:1.0;"/><line style="stroke:#000000;stroke-width:1.0;" x1="893" x2="1834" y1="2413.8101" y2="2413.8101"/><text fill="#000000" font-family="Verdana" font-size="13" lengthAdjust="spacing" textLength="284" x="900" y="2409.0806">INSERT INTO GameRecords for each player</text><polygon fill="#000000" points="91.5,2439.6094,81.5,2443.6094,91.5,2447.6094,87.5,2443.6094" style="stroke:#000000;stroke-width:1.0;"/><line style="stroke:#000000;stroke-width:1.0;" x1="85.5" x2="1317" y1="2443.6094" y2="2443.6094"/><text fill="#000000" font-family="Verdana" font-size="13" lengthAdjust="spacing" textLength="427" x="97.5" y="2438.8799">WEBSOCKET {event: "partita_completata", risultati_finali: {...}}</text><polygon fill="#000000" points="353,2469.4087,343,2473.4087,353,2477.4087,349,2473.4087" style="stroke:#000000;stroke-width:1.0;"/><line style="stroke:#000000;stroke-width:1.0;" x1="347" x2="1317" y1="2473.4087" y2="2473.4087"/><text fill="#000000" font-family="Verdana" font-size="13" lengthAdjust="spacing" textLength="427" x="359" y="2468.6792">WEBSOCKET {event: "partita_completata", risultati_finali: {...}}</text><!--SRC=[dLVDSjis4BxpAJQwMCeeSHpdfAdRiVNZdrYonf8dXqw70v6GX8OYM01K6dlyBZts5NhEYtK1a10eqOvi7smBMEpFjxlVhjwe9LrHo1B2qY1GJ2KK9bIisJtZCCmJnV3gEnNm3dgCB0HPhGZ436N-ocbwJu8W8qAnY6KaLT3e9epYtmikLGE8X8jkzVwAivIb2x1oHkIgMwlYTCKYRWG6MmAduqlVCoE3PrMXSoeL5nJ6-b1H8pGSLcLSd2Eks9n5IoiscbJ5UaIH6P7sidSM12Sdq1MK5Be9d9m45rruzwlseWFZcyaK3bSR1myZ55OK7XJ_IjCsh4WMihW3H_hVlqCh93lmwJ7GePLwrYHXCGdDesQhlEgTTU1oDEdVJl7Fz0REoOeEYKBVPT0xSuzN-WYj_FJPs5g7vX9JvgmCXnqGTC6a4gI8ibcgR0N3eREJsSkm55QaL77HxS23pAE8Iiaxe4HEsyuj3FxZSHl-n6e8Sv5qe541J9yVeaJZqO1zcQuPCRyLjtNnKyYP5jv0FXTOKt6OIofIZ1pj8RWHRMnvj6y29lthVdSAB8R1xSqGxgH6yCj5_xOFfGauAMtuQIdyU3el0oDWGiM45aAZIGTqGAIeKz9qUjeG4yL24ovl1QE9bXyWzAKeZEyc5z0uupDG39R4A584WIImO3mYWhvfF9yp_40MA8ke5JampYXUfCTcv1HVAUNIX0aQR19qtg_DZ_pDW7jIX6C-rE5iXGk45JTvnE0HOmS4d8vw836mNEBnGOQdo3C7FlX63Glr5H8CAmrfj7v_sAhCkU0hlrmGluRjtEAWH_5IGz26z-_V_n7uqUwMeoveh_yhfXH9lvfF7rzOVczjzNaCK21aa47TMvXy8nZ-5YQcUeechZ7HlRaRJPjlMrkMIjAmvifuh55VUyHJHNNfXARKa91PI9JACR8W88bo3DfZCkCfcp6SFXHhDuKnvfK4W3zxCfWlg-chj4ZxgUObxlYh3KNvjCmJIsQwyh_qpoOttSzOgWzqZHM2MNPAGcgrO16uCuz5Ti8psToe7zIhprF6KneAbii8OK15iUwXHU9oWls8vVNuk8t4tRXtEkrNwGAJDlNIJR0XCqNZ0__jeAx3wxotiydTu7HgGyQbD3b2li6vIJG4MiDZG1D9NJ9Dwe2RD7g9tN632c5Hl2Rb784V_q9MF4_nUSP-_8VRXjE1Z8Fn6jOPaJLR4AoMkvHfzDZ6VZwR9Phwa8Ekdk6W12TMJSslYbxwnjIofdjCKraDOSHpN11-ySUuN_usA1fk0d2aSxL3EeYlsHD866FM6zqb4RW8DJRhmiVQH1tj9EhOKTBLgoZfaqT9H_jIqfeAEswyMDMFVrnUAUWHagSBjkcVuBbkDNve7n5crw_UuY6On6287WQcYNnWNrVWnyyLk5r3zDdkrgVzhsbkgw9ivDrLmmQZ7rjOfxbIxBpqPooGEnd2SDooL6ckmTs35V0ungC5VoHKIG7thKpmXK1q3jhwN21382fuDxhvqjo34ikDpuPd0bkWkL2YIao4YQzXJkm2zrCIVBr2VmEzB5vRn0mVRR0o0sKRhoVYCsxmS4uIh63DzolSfDPw-T5QbCd2feWPI9voo8noZvtqrmzDIve0SGgcDfQDJtIp85NB9oxa8-KLYC2IN9EgggQtqvgfjhsVrzL3ERYhHP7GkJge3kJB5BfSIFwI4Hax_vuQa-HUUsvodaiIyb0l22pDIIMjEc8ZiFtDemt77rfmU0XZP1iUSy2lexeZZp-0fAWgPjL1X45Syzdi-qk28BCPIMEULcUzJxYFB-qvjtULnT7bgooXga8bNaNNV86q3_3xpDRkMB8WStl2xexmj6EbsXYfG2_55I9uPkswHR15B67E1L0IBOjn6Ep56uLHs-ZE_t3EKWDl4SPUZB6Vgly1]--></g></svg>