<?xml version="1.0" encoding="us-ascii" standalone="no"?><svg xmlns="http://www.w3.org/2000/svg" xmlns:xlink="http://www.w3.org/1999/xlink" contentStyleType="text/css" height="1979px" preserveAspectRatio="none" style="width:1032px;height:1979px;background:#FFFFFF;" version="1.1" viewBox="0 0 1032 1979" width="1032px" zoomAndPan="magnify"><defs/><g><text fill="#000000" font-family="Verdana" font-size="22" font-weight="bold" lengthAdjust="spacing" textLength="601" x="211" y="37.1182">Servizio Multiplayer - Diagramma dei Casi d'Uso</text><!--cluster Sistema Gestione Partite--><g id="cluster_Sistema Gestione Partite"><path d="M398.5,1026.7373 L587.5,1026.7373 A3.75,3.75 0 0 1 590,1029.2373 L597,1049.752 L1010,1049.752 A2.5,2.5 0 0 1 1012.5,1052.252 L1012.5,1472.2373 A2.5,2.5 0 0 1 1010,1474.7373 L398.5,1474.7373 A2.5,2.5 0 0 1 396,1472.2373 L396,1029.2373 A2.5,2.5 0 0 1 398.5,1026.7373 " fill="#FFFFFF" style="stroke:#000000;stroke-width:1.0;"/><line style="stroke:#000000;stroke-width:1.0;" x1="396" x2="597" y1="1049.752" y2="1049.752"/><text fill="#000000" font-family="Verdana" font-size="14" font-weight="bold" lengthAdjust="spacing" textLength="188" x="400" y="1042.8125">Sistema Gestione Partite</text></g><!--cluster Sistema Inviti Amici--><g id="cluster_Sistema Inviti Amici"><path d="M405,627.7373 L558,627.7373 A3.75,3.75 0 0 1 560.5,630.2373 L567.5,650.752 L999,650.752 A2.5,2.5 0 0 1 1001.5,653.252 L1001.5,946.2373 A2.5,2.5 0 0 1 999,948.7373 L405,948.7373 A2.5,2.5 0 0 1 402.5,946.2373 L402.5,630.2373 A2.5,2.5 0 0 1 405,627.7373 " fill="#FFFFFF" style="stroke:#000000;stroke-width:1.0;"/><line style="stroke:#000000;stroke-width:1.0;" x1="402.5" x2="567.5" y1="650.752" y2="650.752"/><text fill="#000000" font-family="Verdana" font-size="14" font-weight="bold" lengthAdjust="spacing" textLength="152" x="406.5" y="643.8125">Sistema Inviti Amici</text></g><!--cluster Sistema Lobby Partita--><g id="cluster_Sistema Lobby Partita"><path d="M735.5,1625.7373 L905.5,1625.7373 A3.75,3.75 0 0 1 908,1628.2373 L915,1648.752 L1010.5,1648.752 A2.5,2.5 0 0 1 1013,1651.252 L1013,1970.2373 A2.5,2.5 0 0 1 1010.5,1972.7373 L735.5,1972.7373 A2.5,2.5 0 0 1 733,1970.2373 L733,1628.2373 A2.5,2.5 0 0 1 735.5,1625.7373 " fill="#FFFFFF" style="stroke:#000000;stroke-width:1.0;"/><line style="stroke:#000000;stroke-width:1.0;" x1="733" x2="915" y1="1648.752" y2="1648.752"/><text fill="#000000" font-family="Verdana" font-size="14" font-weight="bold" lengthAdjust="spacing" textLength="169" x="737" y="1641.8125">Sistema Lobby Partita</text></g><!--cluster Sistema Coordinamento Partite--><g id="cluster_Sistema Coordinamento Partite"><path d="M723.5,116.7373 L965.5,116.7373 A3.75,3.75 0 0 1 968,119.2373 L975,139.752 L1022.5,139.752 A2.5,2.5 0 0 1 1025,142.252 L1025,476.2373 A2.5,2.5 0 0 1 1022.5,478.7373 L723.5,478.7373 A2.5,2.5 0 0 1 721,476.2373 L721,119.2373 A2.5,2.5 0 0 1 723.5,116.7373 " fill="#FFFFFF" style="stroke:#000000;stroke-width:1.0;"/><line style="stroke:#000000;stroke-width:1.0;" x1="721" x2="975" y1="139.752" y2="139.752"/><text fill="#000000" font-family="Verdana" font-size="14" font-weight="bold" lengthAdjust="spacing" textLength="241" x="725" y="132.8125">Sistema Coordinamento Partite</text></g><g id="elem_UC1"><ellipse cx="514.7531" cy="1078.4879" fill="#FFFFFF" rx="66.7531" ry="15.7506" style="stroke:#000000;stroke-width:1.0;"/><text fill="#000000" font-family="Verdana" font-size="14" lengthAdjust="spacing" textLength="82" x="470.7531" y="1082.7755">Crea Partita</text></g><g id="elem_UC2"><ellipse cx="515.1889" cy="1359.7751" fill="#FFFFFF" rx="78.1889" ry="18.0378" style="stroke:#000000;stroke-width:1.0;"/><text fill="#000000" font-family="Verdana" font-size="14" lengthAdjust="spacing" textLength="112" x="459.1889" y="1363.3429">Unisciti a Partita</text></g><g id="elem_UC3"><ellipse cx="514.7669" cy="1286.7907" fill="#FFFFFF" rx="85.7669" ry="19.5534" style="stroke:#000000;stroke-width:1.0;"/><text fill="#000000" font-family="Verdana" font-size="14" lengthAdjust="spacing" textLength="130" x="449.7669" y="1290.3586">Abbandona Partita</text></g><g id="elem_UC4"><ellipse cx="515.1495" cy="1145.7672" fill="#FFFFFF" rx="68.1495" ry="16.0299" style="stroke:#000000;stroke-width:1.0;"/><text fill="#000000" font-family="Verdana" font-size="14" lengthAdjust="spacing" textLength="86" x="469.1495" y="1150.0548">Inizia Partita</text></g><g id="elem_UC5"><ellipse cx="515.2349" cy="1214.7843" fill="#FFFFFF" rx="75.7349" ry="17.547" style="stroke:#000000;stroke-width:1.0;"/><text fill="#000000" font-family="Verdana" font-size="14" lengthAdjust="spacing" textLength="106" x="462.2349" y="1218.3522">Cancella Partita</text></g><g id="elem_UC6"><ellipse cx="514.9981" cy="1435.7369" fill="#FFFFFF" rx="102.9981" ry="22.9996" style="stroke:#000000;stroke-width:1.0;"/><text fill="#000000" font-family="Verdana" font-size="14" lengthAdjust="spacing" textLength="169" x="430.4981" y="1439.3048">Elenca Partite Disponibili</text></g><g id="elem_UC7"><ellipse cx="872.7731" cy="1089.7919" fill="#FFFFFF" rx="123.2731" ry="27.0546" style="stroke:#000000;stroke-width:1.0;"/><text fill="#000000" font-family="Verdana" font-size="14" lengthAdjust="spacing" textLength="213" x="766.2731" y="1093.3598">Configura Impostazioni Partita</text></g><g id="elem_UC8"><ellipse cx="515.1326" cy="913.8638" fill="#FFFFFF" rx="83.6326" ry="19.1265" style="stroke:#000000;stroke-width:1.0;"/><text fill="#000000" font-family="Verdana" font-size="14" lengthAdjust="spacing" textLength="125" x="452.6326" y="917.4317">Invia Invito Amico</text></g><g id="elem_UC9"><ellipse cx="514.8446" cy="838.5062" fill="#FFFFFF" rx="91.8446" ry="20.7689" style="stroke:#000000;stroke-width:1.0;"/><text fill="#000000" font-family="Verdana" font-size="14" lengthAdjust="spacing" textLength="144" x="442.8446" y="842.0741">Accetta Invito Amico</text></g><g id="elem_UC10"><ellipse cx="514.8543" cy="762.8082" fill="#FFFFFF" rx="88.3543" ry="20.0709" style="stroke:#000000;stroke-width:1.0;"/><text fill="#000000" font-family="Verdana" font-size="14" lengthAdjust="spacing" textLength="136" x="446.8543" y="766.376">Rifiuta Invito Amico</text></g><g id="elem_UC11"><ellipse cx="873.0918" cy="740.6557" fill="#FFFFFF" rx="112.5918" ry="24.9184" style="stroke:#000000;stroke-width:1.0;"/><text fill="#000000" font-family="Verdana" font-size="14" lengthAdjust="spacing" textLength="190" x="778.0918" y="744.2235">Visualizza Inviti in Sospeso</text></g><g id="elem_UC12"><ellipse cx="514.765" cy="685.8903" fill="#FFFFFF" rx="96.265" ry="21.653" style="stroke:#000000;stroke-width:1.0;"/><text fill="#000000" font-family="Verdana" font-size="14" lengthAdjust="spacing" textLength="154" x="437.765" y="689.4582">Cancella Invito Inviato</text></g><g id="elem_UC13"><ellipse cx="873.1321" cy="1685.9637" fill="#FFFFFF" rx="106.6321" ry="23.7264" style="stroke:#000000;stroke-width:1.0;"/><text fill="#000000" font-family="Verdana" font-size="14" lengthAdjust="spacing" textLength="177" x="784.6321" y="1689.5316">Visualizza Dettagli Partita</text></g><g id="elem_UC15"><ellipse cx="873.209" cy="1929.9791" fill="#FFFFFF" rx="124.209" ry="27.2418" style="stroke:#000000;stroke-width:1.0;"/><text fill="#000000" font-family="Verdana" font-size="14" lengthAdjust="spacing" textLength="215" x="765.709" y="1933.547">Seleziona Configurazione Tank</text></g><g id="elem_UC16"><ellipse cx="873.094" cy="1764.6561" fill="#FFFFFF" rx="90.094" ry="20.4188" style="stroke:#000000;stroke-width:1.0;"/><text fill="#000000" font-family="Verdana" font-size="14" lengthAdjust="spacing" textLength="140" x="803.094" y="1768.224">Segna Stato Pronto</text></g><g id="elem_UC18"><ellipse cx="872.8117" cy="1843.5996" fill="#FFFFFF" rx="104.8117" ry="23.3623" style="stroke:#000000;stroke-width:1.0;"/><text fill="#000000" font-family="Verdana" font-size="14" lengthAdjust="spacing" textLength="173" x="786.3117" y="1847.1675">Visualizza Lista Giocatori</text></g><g id="elem_UC19"><ellipse cx="872.7922" cy="177.6957" fill="#FFFFFF" rx="110.2922" ry="24.4584" style="stroke:#000000;stroke-width:1.0;"/><text fill="#000000" font-family="Verdana" font-size="14" lengthAdjust="spacing" textLength="185" x="780.2922" y="181.2636">Sincronizza Stato di Gioco</text></g><g id="elem_UC20"><ellipse cx="872.9863" cy="266.8346" fill="#FFFFFF" rx="135.9863" ry="29.5973" style="stroke:#000000;stroke-width:1.0;"/><text fill="#000000" font-family="Verdana" font-size="14" lengthAdjust="spacing" textLength="240" x="752.9863" y="270.4024">Gestisci Disconnessione Giocatore</text></g><g id="elem_UC21"><ellipse cx="873.1055" cy="352.8584" fill="#FFFFFF" rx="93.6055" ry="21.1211" style="stroke:#000000;stroke-width:1.0;"/><text fill="#000000" font-family="Verdana" font-size="14" lengthAdjust="spacing" textLength="148" x="799.1055" y="356.4263">Gestisci Stato Partita</text></g><g id="elem_UC22"><ellipse cx="872.9718" cy="435.7317" fill="#FFFFFF" rx="120.4718" ry="26.4944" style="stroke:#000000;stroke-width:1.0;"/><text fill="#000000" font-family="Verdana" font-size="14" lengthAdjust="spacing" textLength="207" x="769.4718" y="439.2995">Valida Completamento Partita</text></g><!--entity host--><g id="elem_host"><ellipse cx="80.5" cy="1131.7373" fill="#FFFFFF" rx="8" ry="8" style="stroke:#000000;stroke-width:1.0;"/><path d="M80.5,1139.7373 L80.5,1166.7373 M67.5,1147.7373 L93.5,1147.7373 M80.5,1166.7373 L67.5,1181.7373 M80.5,1166.7373 L93.5,1181.7373 " fill="none" style="stroke:#000000;stroke-width:1.0;"/><text fill="#000000" font-family="Verdana" font-size="14" lengthAdjust="spacing" textLength="105" x="28" y="1197.8125">Giocatore Host</text></g><!--entity joiner--><g id="elem_joiner"><ellipse cx="80.5" cy="1655.7373" fill="#FFFFFF" rx="8" ry="8" style="stroke:#000000;stroke-width:1.0;"/><path d="M80.5,1663.7373 L80.5,1690.7373 M67.5,1671.7373 L93.5,1671.7373 M80.5,1690.7373 L67.5,1705.7373 M80.5,1690.7373 L93.5,1705.7373 " fill="none" style="stroke:#000000;stroke-width:1.0;"/><text fill="#000000" font-family="Verdana" font-size="14" lengthAdjust="spacing" textLength="139" x="11" y="1721.8125">Giocatore che Entra</text></g><!--entity friend--><g id="elem_friend"><ellipse cx="80.5" cy="770.7373" fill="#FFFFFF" rx="8" ry="8" style="stroke:#000000;stroke-width:1.0;"/><path d="M80.5,778.7373 L80.5,805.7373 M67.5,786.7373 L93.5,786.7373 M80.5,805.7373 L67.5,820.7373 M80.5,805.7373 L93.5,820.7373 " fill="none" style="stroke:#000000;stroke-width:1.0;"/><text fill="#000000" font-family="Verdana" font-size="14" lengthAdjust="spacing" textLength="42" x="59.5" y="836.8125">Amico</text></g><!--entity system--><g id="elem_system"><ellipse cx="80.5" cy="321.7373" fill="#FFFFFF" rx="8" ry="8" style="stroke:#000000;stroke-width:1.0;"/><path d="M80.5,329.7373 L80.5,356.7373 M67.5,337.7373 L93.5,337.7373 M80.5,356.7373 L67.5,371.7373 M80.5,356.7373 L93.5,371.7373 " fill="none" style="stroke:#000000;stroke-width:1.0;"/><text fill="#000000" font-family="Verdana" font-size="14" lengthAdjust="spacing" textLength="56" x="52.5" y="387.8125">Sistema</text></g><g id="elem_GMN61"><path d="M795,1490.7373 L795,1532.3359 L951,1532.3359 L951,1500.7373 L941,1490.7373 L795,1490.7373 " fill="#FFFFFF" style="stroke:#000000;stroke-width:1.0;"/><path d="M941,1490.7373 L941,1500.7373 L951,1500.7373 L941,1490.7373 " fill="#FFFFFF" style="stroke:#000000;stroke-width:1.0;"/><text fill="#000000" font-family="Verdana" font-size="13" lengthAdjust="spacing" textLength="124" x="801" y="1508.8071">"Minimo 2 giocatori</text><text fill="#000000" font-family="Verdana" font-size="13" lengthAdjust="spacing" textLength="135" x="801" y="1524.6064">Massimo 4 giocatori"</text></g><g id="elem_GMN64"><path d="M766.5,1567.7373 L766.5,1609.3359 L979.5,1609.3359 L979.5,1577.7373 L969.5,1567.7373 L766.5,1567.7373 " fill="#FFFFFF" style="stroke:#000000;stroke-width:1.0;"/><path d="M969.5,1567.7373 L969.5,1577.7373 L979.5,1577.7373 L969.5,1567.7373 " fill="#FFFFFF" style="stroke:#000000;stroke-width:1.0;"/><text fill="#000000" font-family="Verdana" font-size="13" lengthAdjust="spacing" textLength="192" x="772.5" y="1585.8071">"Richiede che tutti i giocatori</text><text fill="#000000" font-family="Verdana" font-size="13" lengthAdjust="spacing" textLength="82" x="772.5" y="1601.6064">siano pronti"</text></g><g id="elem_GMN67"><path d="M793.5,964.7373 L793.5,965.8173 L578.01,926.2773 L793.5,973.8173 L793.5,1006.3359 A0,0 0 0 0 793.5,1006.3359 L952.5,1006.3359 A0,0 0 0 0 952.5,1006.3359 L952.5,974.7373 L942.5,964.7373 L793.5,964.7373 A0,0 0 0 0 793.5,964.7373 " fill="#FFFFFF" style="stroke:#000000;stroke-width:1.0;"/><path d="M942.5,964.7373 L942.5,974.7373 L952.5,974.7373 L942.5,964.7373 " fill="#FFFFFF" style="stroke:#000000;stroke-width:1.0;"/><text fill="#000000" font-family="Verdana" font-size="13" lengthAdjust="spacing" textLength="118" x="799.5" y="982.8071">"Crea link di invito</text><text fill="#000000" font-family="Verdana" font-size="13" lengthAdjust="spacing" textLength="138" x="799.5" y="998.6064">per partita specifica"</text></g><g id="elem_GMN70"><path d="M758,58.7373 L758,100.3359 A0,0 0 0 0 758,100.3359 L869,100.3359 L873,153.2373 L877,100.3359 L988,100.3359 A0,0 0 0 0 988,100.3359 L988,68.7373 L978,58.7373 L758,58.7373 A0,0 0 0 0 758,58.7373 " fill="#FFFFFF" style="stroke:#000000;stroke-width:1.0;"/><path d="M978,58.7373 L978,68.7373 L988,68.7373 L978,58.7373 " fill="#FFFFFF" style="stroke:#000000;stroke-width:1.0;"/><text fill="#000000" font-family="Verdana" font-size="13" lengthAdjust="spacing" textLength="209" x="764" y="76.8071">"Sincronizzazione stato di gioco</text><text fill="#000000" font-family="Verdana" font-size="13" lengthAdjust="spacing" textLength="99" x="764" y="92.6064">in tempo reale"</text></g><!--link host to UC1--><g id="link_host_UC1"><path d="M133.13,1152.2773 C148.23,1149.5173 164.78,1146.4973 180,1143.7373 C268.87,1127.6173 291.41,1125.2873 380,1107.7373 C408.49,1102.0973 434.391,1096.5306 459.851,1090.9106 " fill="none" id="host-to-UC1" style="stroke:#000000;stroke-width:1.0;"/><polygon fill="#000000" points="465.71,1089.6173,456.0594,1087.6513,460.8275,1090.6951,457.7838,1095.4632,465.71,1089.6173" style="stroke:#000000;stroke-width:1.0;"/><text fill="#000000" font-family="Verdana" font-size="13" lengthAdjust="spacing" textLength="123" x="218.5" y="1104.8071">crea nuova partita</text></g><!--link host to UC4--><g id="link_host_UC4"><path d="M133.13,1163.6073 C148.23,1164.0673 164.78,1164.5073 180,1164.7373 C268.88,1166.0873 291.33,1170.9873 380,1164.7373 C406.37,1162.8773 429.5116,1159.9116 453.8216,1156.1216 " fill="none" id="host-to-UC4" style="stroke:#000000;stroke-width:1.0;"/><polygon fill="#000000" points="459.75,1155.1973,450.2413,1152.6314,454.8097,1155.9675,451.4736,1160.5359,459.75,1155.1973" style="stroke:#000000;stroke-width:1.0;"/><text fill="#000000" font-family="Verdana" font-size="13" lengthAdjust="spacing" textLength="128" x="216" y="1161.8071">inizia quando pronti</text></g><!--link host to UC5--><g id="link_host_UC5"><path d="M133.05,1180.5073 C148.01,1185.2573 164.49,1189.8273 180,1192.7373 C268.1,1209.2573 365.2907,1213.7657 433.4107,1214.8057 " fill="none" id="host-to-UC5" style="stroke:#000000;stroke-width:1.0;"/><polygon fill="#000000" points="439.41,1214.8973,430.4721,1210.7604,434.4106,1214.821,430.35,1218.7595,439.41,1214.8973" style="stroke:#000000;stroke-width:1.0;"/><text fill="#000000" font-family="Verdana" font-size="13" lengthAdjust="spacing" textLength="149" x="205.5" y="1189.8071">cancella se necessario</text></g><!--link host to UC7--><g id="link_host_UC7"><path d="M98.46,1122.4773 C114.43,1090.9773 141.66,1048.9673 180,1029.7373 C283.75,977.7073 616.8713,1036.6468 778.6613,1069.6868 " fill="none" id="host-to-UC7" style="stroke:#000000;stroke-width:1.0;"/><polygon fill="#000000" points="784.54,1070.8873,776.5223,1065.1674,779.6411,1069.8869,774.9217,1073.0056,784.54,1070.8873" style="stroke:#000000;stroke-width:1.0;"/><text fill="#000000" font-family="Verdana" font-size="13" lengthAdjust="spacing" textLength="197" x="416.5" y="1008.8071">imposta mappa, max giocatori</text></g><!--link host to UC8--><g id="link_host_UC8"><path d="M87.05,1122.7173 C96.49,1072.2573 120.76,985.8473 180,943.7373 C259.36,887.3173 371.6452,891.0056 444.0752,900.8956 " fill="none" id="host-to-UC8" style="stroke:#000000;stroke-width:1.0;"/><polygon fill="#000000" points="450.02,901.7073,441.6439,896.5265,445.066,901.0309,440.5616,904.4529,450.02,901.7073" style="stroke:#000000;stroke-width:1.0;"/><text fill="#000000" font-family="Verdana" font-size="13" lengthAdjust="spacing" textLength="74" x="243" y="891.8071">invita amici</text></g><!--link host to UC13--><g id="link_host_UC13"><path d="M80.84,1200.9673 C81.98,1270.4173 95.12,1414.6673 180,1488.7373 C357.99,1644.0573 539.21,1403.4573 705,1571.7373 C722.64,1589.6473 697.16,1608.2073 713,1627.7373 C731.05,1649.9873 752.6844,1661.9134 779.6544,1670.3634 " fill="none" id="host-to-UC13" style="stroke:#000000;stroke-width:1.0;"/><polygon fill="#000000" points="785.38,1672.1573,777.9876,1665.6494,780.6087,1670.6624,775.5957,1673.2835,785.38,1672.1573" style="stroke:#000000;stroke-width:1.0;"/><text fill="#000000" font-family="Verdana" font-size="13" lengthAdjust="spacing" textLength="146" x="442" y="1505.8071">monitora stato partita</text></g><!--link host to UC16--><g id="link_host_UC16"><path d="M86.26,1200.8173 C97.82,1289.5073 130.2,1502.1573 180,1551.7373 C215.7,1587.2673 574.22,1639.7373 620,1660.7373 C666.07,1681.8673 666.84,1705.7973 713,1726.7373 C739.62,1738.8173 764.692,1746.0755 792.162,1751.9355 " fill="none" id="host-to-UC16" style="stroke:#000000;stroke-width:1.0;"/><polygon fill="#000000" points="798.03,1753.1873,790.0626,1747.3977,793.14,1752.1442,788.3935,1755.2216,798.03,1753.1873" style="stroke:#000000;stroke-width:1.0;"/><text fill="#000000" font-family="Verdana" font-size="13" lengthAdjust="spacing" textLength="108" x="461" y="1606.8071">indica prontezza</text></g><!--link joiner to UC6--><g id="link_joiner_UC6"><path d="M124.23,1646.7173 C141.05,1632.1773 160.89,1615.9873 180,1602.7373 C267.16,1542.2973 292.27,1531.3973 388,1485.7373 C411.15,1474.6973 431.828,1466.1362 454.378,1457.4862 " fill="none" id="joiner-to-UC6" style="stroke:#000000;stroke-width:1.0;"/><polygon fill="#000000" points="459.98,1455.3373,450.1444,1454.826,455.3117,1457.128,453.0096,1462.2953,459.98,1455.3373" style="stroke:#000000;stroke-width:1.0;"/><text fill="#000000" font-family="Verdana" font-size="13" lengthAdjust="spacing" textLength="158" x="201" y="1487.8071">sfoglia partite disponibili</text></g><!--link joiner to UC2--><g id="link_joiner_UC2"><path d="M150.29,1672.4373 C238.36,1655.3973 379.76,1628.0173 380,1627.7373 C396.75,1608.1173 372.11,1416.0573 388,1395.7373 C400.75,1379.4273 414.5515,1371.6711 434.5215,1366.5011 " fill="none" id="joiner-to-UC2" style="stroke:#000000;stroke-width:1.0;"/><polygon fill="#000000" points="440.33,1364.9973,430.6147,1363.3806,435.4896,1366.2504,432.6197,1371.1253,440.33,1364.9973" style="stroke:#000000;stroke-width:1.0;"/><text fill="#000000" font-family="Verdana" font-size="13" lengthAdjust="spacing" textLength="198" x="181" y="1624.8071">entra nella partita selezionata</text></g><!--link joiner to UC3--><g id="link_joiner_UC3"><path d="M91.9,1646.3873 C105.84,1599.3673 134.28,1520.2373 180,1465.7373 C251.78,1380.1773 287.16,1372.7473 388,1324.7373 C408.94,1314.7673 427.3053,1308.3561 448.8253,1302.2861 " fill="none" id="joiner-to-UC3" style="stroke:#000000;stroke-width:1.0;"/><polygon fill="#000000" points="454.6,1300.6573,444.8521,1299.2508,449.7878,1302.0147,447.0239,1306.9503,454.6,1300.6573" style="stroke:#000000;stroke-width:1.0;"/><text fill="#000000" font-family="Verdana" font-size="13" lengthAdjust="spacing" textLength="126" x="217" y="1326.8071">esce se necessario</text></g><!--link joiner to UC13--><g id="link_joiner_UC13"><path d="M150.27,1685.7373 C288.69,1685.7373 595.72,1685.7373 760.32,1685.7373 " fill="none" id="joiner-to-UC13" style="stroke:#000000;stroke-width:1.0;"/><polygon fill="#000000" points="766.32,1685.7373,757.32,1681.7373,761.32,1685.7373,757.32,1689.7373,766.32,1685.7373" style="stroke:#000000;stroke-width:1.0;"/><text fill="#000000" font-family="Verdana" font-size="13" lengthAdjust="spacing" textLength="140" x="445" y="1682.8071">visualizza info partita</text></g><!--link joiner to UC15--><g id="link_joiner_UC15"><path d="M150.12,1692.1773 C255.62,1704.1473 462.04,1735.8873 620,1811.7373 C667.37,1834.4873 666.17,1860.9073 713,1884.7373 C734.73,1895.7973 753.7877,1902.83 777.2677,1909.49 " fill="none" id="joiner-to-UC15" style="stroke:#000000;stroke-width:1.0;"/><polygon fill="#000000" points="783.04,1911.1273,775.4731,1904.8232,778.2298,1909.7629,773.29,1912.5196,783.04,1911.1273" style="stroke:#000000;stroke-width:1.0;"/><text fill="#000000" font-family="Verdana" font-size="13" lengthAdjust="spacing" textLength="95" x="467.5" y="1729.8071">configura tank</text></g><!--link joiner to UC16--><g id="link_joiner_UC16"><path d="M105.18,1724.7673 C122.64,1750.0273 148.73,1781.3373 180,1798.7373 C261.85,1844.2973 294.64,1825.1573 388,1832.7373 C490.77,1841.0773 518.14,1848.7573 620,1832.7373 C662.9,1825.9873 671.18,1814.4573 713,1802.7373 C743.88,1794.0773 772.6338,1787.0071 801.6538,1780.3071 " fill="none" id="joiner-to-UC16" style="stroke:#000000;stroke-width:1.0;"/><polygon fill="#000000" points="807.5,1778.9573,797.8309,1777.0844,802.6282,1780.0821,799.6305,1784.8794,807.5,1778.9573" style="stroke:#000000;stroke-width:1.0;"/><text fill="#000000" font-family="Verdana" font-size="13" lengthAdjust="spacing" textLength="87" x="471.5" y="1829.8071">segna pronto</text></g><!--link joiner to UC18--><g id="link_joiner_UC18"><path d="M95.42,1725.0373 C110.41,1761.1673 137.93,1813.0373 180,1839.7373 C277.07,1901.3273 609.7662,1873.7256 774.5662,1855.5356 " fill="none" id="joiner-to-UC18" style="stroke:#000000;stroke-width:1.0;"/><polygon fill="#000000" points="780.53,1854.8773,771.1455,1851.8888,775.5602,1855.4259,772.0232,1859.8405,780.53,1854.8773" style="stroke:#000000;stroke-width:1.0;"/><text fill="#000000" font-family="Verdana" font-size="13" lengthAdjust="spacing" textLength="124" x="453" y="1866.8071">vede altri giocatori</text></g><!--link friend to UC9--><g id="link_friend_UC9"><path d="M101.84,809.0073 C121.47,816.5473 152.23,827.1673 180,831.7373 C262.41,845.2873 351.793,845.9969 419.473,843.8569 " fill="none" id="friend-to-UC9" style="stroke:#000000;stroke-width:1.0;"/><polygon fill="#000000" points="425.47,843.6673,416.3481,839.9537,420.4725,843.8253,416.6009,847.9497,425.47,843.6673" style="stroke:#000000;stroke-width:1.0;"/><text fill="#000000" font-family="Verdana" font-size="13" lengthAdjust="spacing" textLength="149" x="205.5" y="828.8071">accetta invito di gioco</text></g><!--link friend to UC10--><g id="link_friend_UC10"><path d="M101.78,798.9573 C159.9,793.8473 323.473,779.4825 426.123,770.4625 " fill="none" id="friend-to-UC10" style="stroke:#000000;stroke-width:1.0;"/><polygon fill="#000000" points="432.1,769.9373,422.7844,766.7405,427.1192,770.375,423.4847,774.7098,432.1,769.9373" style="stroke:#000000;stroke-width:1.0;"/><text fill="#000000" font-family="Verdana" font-size="13" lengthAdjust="spacing" textLength="79" x="240.5" y="771.8071">rifiuta invito</text></g><!--link friend to UC11--><g id="link_friend_UC11"><path d="M101.56,787.9073 C172.67,743.3773 420.81,596.1973 650,558.7373 C674.12,554.7973 682.62,548.8973 705,558.7373 C778.8,591.1773 831.2571,668.9386 855.5171,710.7186 " fill="none" id="friend-to-UC11" style="stroke:#000000;stroke-width:1.0;"/><polygon fill="#000000" points="858.53,715.9073,857.4698,706.1157,856.0193,711.5834,850.5516,710.1328,858.53,715.9073" style="stroke:#000000;stroke-width:1.0;"/><text fill="#000000" font-family="Verdana" font-size="13" lengthAdjust="spacing" textLength="167" x="431.5" y="561.8071">controlla inviti in sospeso</text></g><!--link friend to UC2--><g id="link_friend_UC2"><path d="M90.47,839.9273 C103.01,886.3773 130.06,963.3073 180,1009.7373 C249.76,1074.5873 324.77,1009.1373 380,1086.7373 C395.28,1108.2073 371.78,1302.9773 388,1323.7373 C400.74,1340.0573 414.5413,1347.8143 434.5213,1352.9843 " fill="none" id="friend-to-UC2" style="stroke:#000000;stroke-width:1.0;"/><polygon fill="#000000" points="440.33,1354.4873,432.619,1348.3603,435.4894,1353.2348,430.6149,1356.1052,440.33,1354.4873" style="stroke:#000000;stroke-width:1.0;"/><text fill="#000000" font-family="Verdana" font-size="13" lengthAdjust="spacing" textLength="154" x="203" y="1006.8071">entra tramite link invito</text></g><!--link system to UC19--><g id="link_system_UC19"><path d="M108.66,329.6073 C127.54,315.3873 153.92,297.7573 180,287.7373 C376.73,212.1273 618.1284,188.795 757.5084,181.405 " fill="none" id="system-to-UC19" style="stroke:#000000;stroke-width:1.0;"/><polygon fill="#000000" points="763.5,181.0873,754.3008,177.5694,758.507,181.352,754.7244,185.5582,763.5,181.0873" style="stroke:#000000;stroke-width:1.0;"/><text fill="#000000" font-family="Verdana" font-size="13" lengthAdjust="spacing" textLength="208" x="411" y="189.8071">mantiene giocatori sincronizzati</text></g><!--link system to UC20--><g id="link_system_UC20"><path d="M108.84,343.5273 C128.47,337.9473 155.65,330.8573 180,326.7373 C372.77,294.1373 592.9273,279.0624 732.8573,272.1724 " fill="none" id="system-to-UC20" style="stroke:#000000;stroke-width:1.0;"/><polygon fill="#000000" points="738.85,271.8773,729.6642,268.3248,733.8561,272.1232,730.0576,276.3151,738.85,271.8773" style="stroke:#000000;stroke-width:1.0;"/><text fill="#000000" font-family="Verdana" font-size="13" lengthAdjust="spacing" textLength="154" x="438" y="276.8071">gestisce disconnessioni</text></g><!--link system to UC21--><g id="link_system_UC21"><path d="M108.71,351.7673 C214.32,351.9073 594.06,352.3899 773.3,352.6099 " fill="none" id="system-to-UC21" style="stroke:#000000;stroke-width:1.0;"/><polygon fill="#000000" points="779.3,352.6173,770.3049,348.6063,774.3,352.6112,770.2951,356.6063,779.3,352.6173" style="stroke:#000000;stroke-width:1.0;"/><text fill="#000000" font-family="Verdana" font-size="13" lengthAdjust="spacing" textLength="145" x="442.5" y="349.8071">aggiorna stato partita</text></g><!--link system to UC22--><g id="link_system_UC22"><path d="M108.71,354.6273 C211.4,365.5373 572.9836,403.9633 758.0036,423.6233 " fill="none" id="system-to-UC22" style="stroke:#000000;stroke-width:1.0;"/><polygon fill="#000000" points="763.97,424.2573,755.443,419.3287,758.998,423.729,754.5977,427.2839,763.97,424.2573" style="stroke:#000000;stroke-width:1.0;"/><text fill="#000000" font-family="Verdana" font-size="13" lengthAdjust="spacing" textLength="184" x="423" y="382.8071">valida completamento gioco</text></g><!--link system to UC12--><g id="link_system_UC12"><path d="M105.54,390.9473 C123.71,418.4973 150.5,455.0473 180,481.7373 C272.84,565.7173 399.647,631.8991 466.467,663.8491 " fill="none" id="system-to-UC12" style="stroke:#000000;stroke-width:1.0;"/><polygon fill="#000000" points="471.88,666.4373,465.4859,658.9462,467.3691,664.2804,462.0349,666.1636,471.88,666.4373" style="stroke:#000000;stroke-width:1.0;"/><text fill="#000000" font-family="Verdana" font-size="13" lengthAdjust="spacing" textLength="154" x="203" y="478.8071">fa scadere vecchi inviti</text></g><!--link UC1 to UC7--><g id="link_UC1_UC7"><path d="M581.71,1080.7673 C628.92,1082.2273 687.9529,1084.0517 744.4929,1085.8017 " fill="none" id="UC1-to-UC7" style="stroke:#000000;stroke-width:1.0;stroke-dasharray:7.0,7.0;"/><polygon fill="#000000" points="750.49,1085.9873,741.6181,1081.7108,745.4924,1085.8326,741.3706,1089.707,750.49,1085.9873" style="stroke:#000000;stroke-width:1.0;"/><text fill="#000000" font-family="Verdana" font-size="13" lengthAdjust="spacing" textLength="53" x="651" y="1079.8071">includes</text></g><!--link UC1 to UC8--><g id="link_UC1_UC8"><path d="M455.62,1071.1373 C375.17,1058.3973 246.77,1027.9373 294.5,967.2373 C326.64,926.3673 378.2712,913.7832 426.5512,910.8332 " fill="none" id="UC1-to-UC8" style="stroke:#000000;stroke-width:1.0;stroke-dasharray:7.0,7.0;"/><polygon fill="#000000" points="432.54,910.4673,423.3128,907.0236,427.5493,910.7722,423.8007,915.0088,432.54,910.4673" style="stroke:#000000;stroke-width:1.0;"/><text fill="#000000" font-family="Verdana" font-size="13" lengthAdjust="spacing" textLength="53" x="253.5" y="981.3071">includes</text></g><!--link UC2 to UC13--><g id="link_UC2_UC13"><path d="M567.76,1373.1773 C618.05,1387.4173 689.12,1411.0673 705,1434.7373 C716.96,1452.5573 700.33,1610.4073 713,1627.7373 C729.73,1650.6273 750.7148,1662.7122 777.5048,1671.1122 " fill="none" id="UC2-to-UC13" style="stroke:#000000;stroke-width:1.0;stroke-dasharray:7.0,7.0;"/><polygon fill="#000000" points="783.23,1672.9073,775.839,1666.3978,778.459,1671.4114,773.4455,1674.0314,783.23,1672.9073" style="stroke:#000000;stroke-width:1.0;"/><text fill="#000000" font-family="Verdana" font-size="13" lengthAdjust="spacing" textLength="53" x="651" y="1398.8071">includes</text></g><!--link UC2 to UC18--><g id="link_UC2_UC18"><path d="M578.33,1370.2873 C593.77,1375.6173 609.01,1383.6473 620,1395.7373 C646.99,1425.4373 697.43,1707.3273 705,1746.7373 C707.37,1759.0873 704.62,1793.3673 713,1802.7373 C728.5,1820.0473 744.4567,1828.8894 766.8967,1835.0894 " fill="none" id="UC2-to-UC18" style="stroke:#000000;stroke-width:1.0;stroke-dasharray:7.0,7.0;"/><polygon fill="#000000" points="772.68,1836.6873,765.0703,1830.4349,767.8606,1835.3557,762.9398,1838.146,772.68,1836.6873" style="stroke:#000000;stroke-width:1.0;"/><text fill="#000000" font-family="Verdana" font-size="13" lengthAdjust="spacing" textLength="53" x="651" y="1481.8071">includes</text></g><!--link UC4 to UC16--><g id="link_UC4_UC16"><path d="M574.95,1153.4173 C591.68,1158.3773 608.46,1166.4873 620,1179.7373 C669.26,1236.2573 606.97,1284.3473 650,1345.7373 C666.23,1368.8973 690.62,1353.3873 705,1377.7373 C714.86,1394.4373 700.81,1711.6473 713,1726.7373 C730.03,1747.8173 750.5967,1757.3307 777.0667,1762.3907 " fill="none" id="UC4-to-UC16" style="stroke:#000000;stroke-width:1.0;stroke-dasharray:7.0,7.0;"/><polygon fill="#000000" points="782.96,1763.5173,774.8711,1757.8986,778.0489,1762.5785,773.369,1765.7563,782.96,1763.5173" style="stroke:#000000;stroke-width:1.0;"/><text fill="#000000" font-family="Verdana" font-size="13" lengthAdjust="spacing" textLength="52" x="651.5" y="1342.8071">requires</text></g><!--link UC4 to UC19--><g id="link_UC4_UC19"><path d="M576.95,1139.1173 C593.34,1134.3173 609.44,1126.2373 620,1112.7373 C651.91,1071.9673 644.56,699.2273 650,647.7373 C670.21,456.5273 584.87,363.0973 713,219.7373 C727.75,203.2373 742.3859,194.6111 763.6559,188.1911 " fill="none" id="UC4-to-UC19" style="stroke:#000000;stroke-width:1.0;stroke-dasharray:7.0,7.0;"/><polygon fill="#000000" points="769.4,186.4573,759.6281,185.2286,764.6133,187.9021,761.9398,192.8873,769.4,186.4573" style="stroke:#000000;stroke-width:1.0;"/><text fill="#000000" font-family="Verdana" font-size="13" lengthAdjust="spacing" textLength="53" x="651" y="233.8071">includes</text></g><!--link UC8 to UC11--><g id="link_UC8_UC11"><path d="M565.32,898.5173 C582.83,892.6273 602.52,885.4473 620,877.7373 C698.13,843.2573 779.5312,796.5679 828.1512,767.4779 " fill="none" id="UC8-to-UC11" style="stroke:#000000;stroke-width:1.0;stroke-dasharray:7.0,7.0;"/><polygon fill="#000000" points="833.3,764.3973,823.5231,765.5857,829.0093,766.9645,827.6305,772.4507,833.3,764.3973" style="stroke:#000000;stroke-width:1.0;"/><text fill="#000000" font-family="Verdana" font-size="13" lengthAdjust="spacing" textLength="50" x="652.5" y="836.8071">creates</text></g><!--link UC9 to UC2--><g id="link_UC9_UC2"><path d="M439.26,850.7673 C386.07,863.8273 319.51,890.6573 291,945.2373 C210.59,1099.1573 266.07,1200.0773 388,1323.7373 C402.64,1338.5873 417.1141,1345.9136 437.1741,1351.1436 " fill="none" id="UC9-to-UC2" style="stroke:#000000;stroke-width:1.0;stroke-dasharray:7.0,7.0;"/><polygon fill="#000000" points="442.98,1352.6573,435.2803,1346.5161,438.1417,1351.3959,433.262,1354.2574,442.98,1352.6573" style="stroke:#000000;stroke-width:1.0;"/><text fill="#000000" font-family="Verdana" font-size="13" lengthAdjust="spacing" textLength="60" x="250" y="959.3071">results in</text></g><!--link UC1 to GMN61--><g id="link_UC1_GMN61"><path d="M570.32,1087.9273 C587.68,1092.9673 606,1100.7573 620,1112.7373 C683.27,1166.8973 683.92,1199.1673 705,1279.7373 C710.49,1300.7173 699.17,1458.0373 713,1474.7373 C732.79,1498.6373 764.74,1508.8673 794.83,1512.7373 " fill="none" id="UC1-GMN61" style="stroke:#000000;stroke-width:1.0;stroke-dasharray:7.0,7.0;"/></g><!--link UC4 to GMN64--><g id="link_UC4_GMN64"><path d="M573.18,1154.0573 C590.13,1159.0473 607.48,1167.0073 620,1179.7373 C651.65,1211.8973 624.59,1239.4473 650,1276.7373 C667.62,1302.6073 690.95,1292.7673 705,1320.7373 C716.48,1343.5873 696.81,1530.9473 713,1550.7373 C726.48,1567.2173 745.7,1577.2973 766.15,1583.3273 " fill="none" id="UC4-GMN64" style="stroke:#000000;stroke-width:1.0;stroke-dasharray:7.0,7.0;"/></g><!--SRC=[TLR1RXiv3BtFLsXzwMLJn6wIEZqKADoY6w01YdhJKowoXhQvcP6caiROfDX_NrBIp5YA7S38W7gYo4S-Id_uFRGWkaQYhYgFlW6n1dl05pJYlcyyqj8pM74XFgFSMTcsKjI0OYKTYlhDWpDLrS3M2s-4nTtUYnejA8-6_4dbZHMphsYKf2yGVnddPq8wiQUFryjg3-ABzbO6p3y6DTW1zQb5PO9zQn5qFTZNw3oqSOTxvk-gwgHwaZiO5yLNS1mHYE_IKf8m4xyhGN-z0oKT0LSMP5gChXvMynpneD4fz2XAt2B7VTfifAwDBc7lSjYT9efBp5KHbDGAcgP4NUUeBmreDM20okGwet633IRyJU7Lw2tkUYl5NTjH6IILMcDnnllglnCqtka3Cy2bm5SKycA2635Lws6rB0XI2hm_YRpDaJzmY_rfvFmoX_v4ryi6Nrx6856BjN4Tk77B_0oxoNs8tu_enKa6lfdDvddYwlVPA3vpZhkcv7LUjC4Q6c3-fHZByX8QzM-fduOzr-MU7U7Nde8LtwtHKymtPyFvHl6J39BIXiwOBqyckJB6rgXb2vgFE2EPDMf5fmVtCPWQmmbZE4KvWmX9GzoYocWDpeLKH_qFWheyio-bdAklgEfFIhZc5Dgk0P-bC6u9fNr31VTWK_Vd8whYyIGkBZvo5kA3K3mTT6yEKdJHrJ7YYX0OvVohP-sBZgk2nvXhzZ8q7CMfGL7wqg8vHhrdJr6KefLT9_-aV_-AtL2sO-mod4gTAuLaFMOnlwF5blAYJNHSeEr4uFERuAD66XyXPA1QdcTcdCvLdCp92pjnMqEzFh03r0dZ4Ch12m83-o06c8eK5L6ITE0Bxvm9E0K5QHacf7kOcXtrTietHuOwZ0FGayWAGCWc22mmKfx4h1-W1Y4RR_6eCWLhOLPLyQPAUszfgqop3-F8gQE70ZY_9AHDioyY2y0yPk6jOGvn77Wk3hmSFL5ElvQhqw1-6XmNSQSHKCMRT3YFGsybjJIGNCUSXPic07LxjcN1EUoYS4CxJ88laPoCt95NgyjUpO6So27AMsNoZXpc8JDuI_wKh85wzm1AxJ5HnKd_W4Roay3jiNCLo_pjsr62MZLz3SVcPMvU97Fel5Fs0dyrsBczBFpgwOsKsMzp_7Am3zF71_DjCY-25qVFCoVutQODLJM-limspQpPFSsareZ5LB17VI-f16IyceopLxjvdj7TItnnexFgVU-vmOuzEPHw67IlNN3wyKqLUgrEp9j7tP6MHj5teAZDbKmEDiPxqwOKc97ZEoPUYswuQ4BD7pKrFHMzexSdo0PcrVy0]--></g></svg>