<?xml version="1.0" encoding="us-ascii" standalone="no"?><svg xmlns="http://www.w3.org/2000/svg" xmlns:xlink="http://www.w3.org/1999/xlink" contentStyleType="text/css" height="2206px" preserveAspectRatio="none" style="width:8379px;height:2206px;background:#FFFFFF;" version="1.1" viewBox="0 0 8379 2206" width="8379px" zoomAndPan="magnify"><defs/><g><text fill="#000000" font-family="Verdana" font-size="22" font-weight="bold" lengthAdjust="spacing" textLength="979" x="3695.5" y="37.1182">Servizio Multiplayer - Diagramma di Comunicazione (Processo Unione Partita)</text><!--class client--><g id="elem_client"><rect codeLine="12" fill="#ADD8E6" height="44" id="client" rx="2.5" ry="2.5" style="stroke:#000000;stroke-width:1.0;" width="200" x="12" y="934.9973"/><ellipse cx="68.25" cy="948.9973" fill="#FFFFFF" rx="9" ry="9" style="stroke:#000000;stroke-width:1.0;"/><path d="M71.0156,944.8723 Q71.1719,944.6536 71.3594,944.5442 Q71.5469,944.4348 71.7656,944.4348 Q72.1406,944.4348 72.375,944.7004 Q72.6094,944.9504 72.6094,945.5598 L72.6094,947.0129 Q72.6094,947.6223 72.375,947.8879 Q72.1406,948.1536 71.7656,948.1536 Q71.4219,948.1536 71.2188,947.9504 Q71.0156,947.7629 70.9063,947.2473 Q70.8594,946.8879 70.6719,946.7004 Q70.3438,946.3254 69.7344,946.1067 Q69.125,945.8879 68.5,945.8879 Q67.7344,945.8879 67.0938,946.2161 Q66.4688,946.5442 65.9688,947.2942 Q65.4844,948.0442 65.4844,949.0754 L65.4844,950.1692 Q65.4844,951.4036 66.375,952.2317 Q67.2656,953.0442 68.8594,953.0442 Q69.7969,953.0442 70.4531,952.7942 Q70.8438,952.6379 71.2656,952.2004 Q71.5313,951.9348 71.6719,951.8567 Q71.8281,951.7786 72.0313,951.7786 Q72.3594,951.7786 72.6094,952.0442 Q72.875,952.2942 72.875,952.6379 Q72.875,952.9817 72.5313,953.3879 Q72.0313,953.9661 71.2344,954.2942 Q70.1563,954.7473 68.8594,954.7473 Q67.3438,954.7473 66.1406,954.1223 Q65.1563,953.6223 64.4688,952.5598 Q63.7813,951.4817 63.7813,950.2004 L63.7813,949.0442 Q63.7813,947.7161 64.3906,946.5754 Q65.0156,945.4192 66.1094,944.8098 Q67.2031,944.1848 68.4375,944.1848 Q69.1719,944.1848 69.8125,944.3567 Q70.4688,944.5129 71.0156,944.8723 Z " fill="#000000"/><text fill="#000000" font-family="Verdana" font-size="12" lengthAdjust="spacing" textLength="80" x="85.75" y="953.7698">:PlayerClient</text><line style="stroke:#000000;stroke-width:1.0;" x1="13" x2="211" y1="962.9973" y2="962.9973"/><line style="stroke:#000000;stroke-width:1.0;" x1="13" x2="211" y1="970.9973" y2="970.9973"/></g><!--class controller--><g id="elem_controller"><rect codeLine="13" fill="#D3D3D3" height="44" id="controller" rx="2.5" ry="2.5" style="stroke:#000000;stroke-width:1.0;" width="200" x="1319" y="934.9973"/><ellipse cx="1348.65" cy="948.9973" fill="#FFFFFF" rx="9" ry="9" style="stroke:#000000;stroke-width:1.0;"/><path d="M1351.4156,944.8723 Q1351.5719,944.6536 1351.7594,944.5442 Q1351.9469,944.4348 1352.1656,944.4348 Q1352.5406,944.4348 1352.775,944.7004 Q1353.0094,944.9504 1353.0094,945.5598 L1353.0094,947.0129 Q1353.0094,947.6223 1352.775,947.8879 Q1352.5406,948.1536 1352.1656,948.1536 Q1351.8219,948.1536 1351.6188,947.9504 Q1351.4156,947.7629 1351.3063,947.2473 Q1351.2594,946.8879 1351.0719,946.7004 Q1350.7438,946.3254 1350.1344,946.1067 Q1349.525,945.8879 1348.9,945.8879 Q1348.1344,945.8879 1347.4938,946.2161 Q1346.8688,946.5442 1346.3688,947.2942 Q1345.8844,948.0442 1345.8844,949.0754 L1345.8844,950.1692 Q1345.8844,951.4036 1346.775,952.2317 Q1347.6656,953.0442 1349.2594,953.0442 Q1350.1969,953.0442 1350.8531,952.7942 Q1351.2438,952.6379 1351.6656,952.2004 Q1351.9313,951.9348 1352.0719,951.8567 Q1352.2281,951.7786 1352.4313,951.7786 Q1352.7594,951.7786 1353.0094,952.0442 Q1353.275,952.2942 1353.275,952.6379 Q1353.275,952.9817 1352.9313,953.3879 Q1352.4313,953.9661 1351.6344,954.2942 Q1350.5563,954.7473 1349.2594,954.7473 Q1347.7438,954.7473 1346.5406,954.1223 Q1345.5563,953.6223 1344.8688,952.5598 Q1344.1813,951.4817 1344.1813,950.2004 L1344.1813,949.0442 Q1344.1813,947.7161 1344.7906,946.5754 Q1345.4156,945.4192 1346.5094,944.8098 Q1347.6031,944.1848 1348.8375,944.1848 Q1349.5719,944.1848 1350.2125,944.3567 Q1350.8688,944.5129 1351.4156,944.8723 Z " fill="#000000"/><text fill="#000000" font-family="Verdana" font-size="12" lengthAdjust="spacing" textLength="135" x="1364.35" y="953.7698">:MultiplayerController</text><line style="stroke:#000000;stroke-width:1.0;" x1="1320" x2="1518" y1="962.9973" y2="962.9973"/><line style="stroke:#000000;stroke-width:1.0;" x1="1320" x2="1518" y1="970.9973" y2="970.9973"/></g><!--class multiService--><g id="elem_multiService"><rect codeLine="14" fill="#90EE90" height="44" id="multiService" rx="2.5" ry="2.5" style="stroke:#000000;stroke-width:1.0;" width="200" x="2029" y="934.9973"/><ellipse cx="2066.3" cy="948.9973" fill="#FFFFFF" rx="9" ry="9" style="stroke:#000000;stroke-width:1.0;"/><path d="M2069.0656,944.8723 Q2069.2219,944.6536 2069.4094,944.5442 Q2069.5969,944.4348 2069.8156,944.4348 Q2070.1906,944.4348 2070.425,944.7004 Q2070.6594,944.9504 2070.6594,945.5598 L2070.6594,947.0129 Q2070.6594,947.6223 2070.425,947.8879 Q2070.1906,948.1536 2069.8156,948.1536 Q2069.4719,948.1536 2069.2688,947.9504 Q2069.0656,947.7629 2068.9563,947.2473 Q2068.9094,946.8879 2068.7219,946.7004 Q2068.3938,946.3254 2067.7844,946.1067 Q2067.175,945.8879 2066.55,945.8879 Q2065.7844,945.8879 2065.1438,946.2161 Q2064.5188,946.5442 2064.0188,947.2942 Q2063.5344,948.0442 2063.5344,949.0754 L2063.5344,950.1692 Q2063.5344,951.4036 2064.425,952.2317 Q2065.3156,953.0442 2066.9094,953.0442 Q2067.8469,953.0442 2068.5031,952.7942 Q2068.8938,952.6379 2069.3156,952.2004 Q2069.5813,951.9348 2069.7219,951.8567 Q2069.8781,951.7786 2070.0813,951.7786 Q2070.4094,951.7786 2070.6594,952.0442 Q2070.925,952.2942 2070.925,952.6379 Q2070.925,952.9817 2070.5813,953.3879 Q2070.0813,953.9661 2069.2844,954.2942 Q2068.2063,954.7473 2066.9094,954.7473 Q2065.3938,954.7473 2064.1906,954.1223 Q2063.2063,953.6223 2062.5188,952.5598 Q2061.8313,951.4817 2061.8313,950.2004 L2061.8313,949.0442 Q2061.8313,947.7161 2062.4406,946.5754 Q2063.0656,945.4192 2064.1594,944.8098 Q2065.2531,944.1848 2066.4875,944.1848 Q2067.2219,944.1848 2067.8625,944.3567 Q2068.5188,944.5129 2069.0656,944.8723 Z " fill="#000000"/><text fill="#000000" font-family="Verdana" font-size="12" lengthAdjust="spacing" textLength="118" x="2083.7" y="953.7698">:MultiplayerService</text><line style="stroke:#000000;stroke-width:1.0;" x1="2030" x2="2228" y1="962.9973" y2="962.9973"/><line style="stroke:#000000;stroke-width:1.0;" x1="2030" x2="2228" y1="970.9973" y2="970.9973"/></g><!--class matchManager--><g id="elem_matchManager"><rect codeLine="15" fill="#FFFF00" height="44" id="matchManager" rx="2.5" ry="2.5" style="stroke:#000000;stroke-width:1.0;" width="200" x="4112" y="934.9973"/><ellipse cx="4138.5" cy="948.9973" fill="#FFFFFF" rx="9" ry="9" style="stroke:#000000;stroke-width:1.0;"/><path d="M4141.2656,944.8723 Q4141.4219,944.6536 4141.6094,944.5442 Q4141.7969,944.4348 4142.0156,944.4348 Q4142.3906,944.4348 4142.625,944.7004 Q4142.8594,944.9504 4142.8594,945.5598 L4142.8594,947.0129 Q4142.8594,947.6223 4142.625,947.8879 Q4142.3906,948.1536 4142.0156,948.1536 Q4141.6719,948.1536 4141.4688,947.9504 Q4141.2656,947.7629 4141.1563,947.2473 Q4141.1094,946.8879 4140.9219,946.7004 Q4140.5938,946.3254 4139.9844,946.1067 Q4139.375,945.8879 4138.75,945.8879 Q4137.9844,945.8879 4137.3438,946.2161 Q4136.7188,946.5442 4136.2188,947.2942 Q4135.7344,948.0442 4135.7344,949.0754 L4135.7344,950.1692 Q4135.7344,951.4036 4136.625,952.2317 Q4137.5156,953.0442 4139.1094,953.0442 Q4140.0469,953.0442 4140.7031,952.7942 Q4141.0938,952.6379 4141.5156,952.2004 Q4141.7813,951.9348 4141.9219,951.8567 Q4142.0781,951.7786 4142.2813,951.7786 Q4142.6094,951.7786 4142.8594,952.0442 Q4143.125,952.2942 4143.125,952.6379 Q4143.125,952.9817 4142.7813,953.3879 Q4142.2813,953.9661 4141.4844,954.2942 Q4140.4063,954.7473 4139.1094,954.7473 Q4137.5938,954.7473 4136.3906,954.1223 Q4135.4063,953.6223 4134.7188,952.5598 Q4134.0313,951.4817 4134.0313,950.2004 L4134.0313,949.0442 Q4134.0313,947.7161 4134.6406,946.5754 Q4135.2656,945.4192 4136.3594,944.8098 Q4137.4531,944.1848 4138.6875,944.1848 Q4139.4219,944.1848 4140.0625,944.3567 Q4140.7188,944.5129 4141.2656,944.8723 Z " fill="#000000"/><text fill="#000000" font-family="Verdana" font-size="12" lengthAdjust="spacing" textLength="142" x="4153.5" y="953.7698">:MatchManagerService</text><line style="stroke:#000000;stroke-width:1.0;" x1="4113" x2="4311" y1="962.9973" y2="962.9973"/><line style="stroke:#000000;stroke-width:1.0;" x1="4113" x2="4311" y1="970.9973" y2="970.9973"/></g><!--class wsManager--><g id="elem_wsManager"><rect codeLine="16" fill="#FFA500" height="44" id="wsManager" rx="2.5" ry="2.5" style="stroke:#000000;stroke-width:1.0;" width="200" x="5030" y="934.9973"/><ellipse cx="5061.45" cy="948.9973" fill="#FFFFFF" rx="9" ry="9" style="stroke:#000000;stroke-width:1.0;"/><path d="M5064.2156,944.8723 Q5064.3719,944.6536 5064.5594,944.5442 Q5064.7469,944.4348 5064.9656,944.4348 Q5065.3406,944.4348 5065.575,944.7004 Q5065.8094,944.9504 5065.8094,945.5598 L5065.8094,947.0129 Q5065.8094,947.6223 5065.575,947.8879 Q5065.3406,948.1536 5064.9656,948.1536 Q5064.6219,948.1536 5064.4188,947.9504 Q5064.2156,947.7629 5064.1063,947.2473 Q5064.0594,946.8879 5063.8719,946.7004 Q5063.5438,946.3254 5062.9344,946.1067 Q5062.325,945.8879 5061.7,945.8879 Q5060.9344,945.8879 5060.2938,946.2161 Q5059.6688,946.5442 5059.1688,947.2942 Q5058.6844,948.0442 5058.6844,949.0754 L5058.6844,950.1692 Q5058.6844,951.4036 5059.575,952.2317 Q5060.4656,953.0442 5062.0594,953.0442 Q5062.9969,953.0442 5063.6531,952.7942 Q5064.0438,952.6379 5064.4656,952.2004 Q5064.7313,951.9348 5064.8719,951.8567 Q5065.0281,951.7786 5065.2313,951.7786 Q5065.5594,951.7786 5065.8094,952.0442 Q5066.075,952.2942 5066.075,952.6379 Q5066.075,952.9817 5065.7313,953.3879 Q5065.2313,953.9661 5064.4344,954.2942 Q5063.3563,954.7473 5062.0594,954.7473 Q5060.5438,954.7473 5059.3406,954.1223 Q5058.3563,953.6223 5057.6688,952.5598 Q5056.9813,951.4817 5056.9813,950.2004 L5056.9813,949.0442 Q5056.9813,947.7161 5057.5906,946.5754 Q5058.2156,945.4192 5059.3094,944.8098 Q5060.4031,944.1848 5061.6375,944.1848 Q5062.3719,944.1848 5063.0125,944.3567 Q5063.6688,944.5129 5064.2156,944.8723 Z " fill="#000000"/><text fill="#000000" font-family="Verdana" font-size="12" lengthAdjust="spacing" textLength="131" x="5077.55" y="953.7698">:WebSocketManager</text><line style="stroke:#000000;stroke-width:1.0;" x1="5031" x2="5229" y1="962.9973" y2="962.9973"/><line style="stroke:#000000;stroke-width:1.0;" x1="5031" x2="5229" y1="970.9973" y2="970.9973"/></g><!--class notificationService--><g id="elem_notificationService"><rect codeLine="17" fill="#FFC0CB" height="44" id="notificationService" rx="2.5" ry="2.5" style="stroke:#000000;stroke-width:1.0;" width="200" x="2964" y="934.9973"/><ellipse cx="3000.4" cy="948.9973" fill="#FFFFFF" rx="9" ry="9" style="stroke:#000000;stroke-width:1.0;"/><path d="M3003.1656,944.8723 Q3003.3219,944.6536 3003.5094,944.5442 Q3003.6969,944.4348 3003.9156,944.4348 Q3004.2906,944.4348 3004.525,944.7004 Q3004.7594,944.9504 3004.7594,945.5598 L3004.7594,947.0129 Q3004.7594,947.6223 3004.525,947.8879 Q3004.2906,948.1536 3003.9156,948.1536 Q3003.5719,948.1536 3003.3688,947.9504 Q3003.1656,947.7629 3003.0563,947.2473 Q3003.0094,946.8879 3002.8219,946.7004 Q3002.4938,946.3254 3001.8844,946.1067 Q3001.275,945.8879 3000.65,945.8879 Q2999.8844,945.8879 2999.2438,946.2161 Q2998.6188,946.5442 2998.1188,947.2942 Q2997.6344,948.0442 2997.6344,949.0754 L2997.6344,950.1692 Q2997.6344,951.4036 2998.525,952.2317 Q2999.4156,953.0442 3001.0094,953.0442 Q3001.9469,953.0442 3002.6031,952.7942 Q3002.9938,952.6379 3003.4156,952.2004 Q3003.6813,951.9348 3003.8219,951.8567 Q3003.9781,951.7786 3004.1813,951.7786 Q3004.5094,951.7786 3004.7594,952.0442 Q3005.025,952.2942 3005.025,952.6379 Q3005.025,952.9817 3004.6813,953.3879 Q3004.1813,953.9661 3003.3844,954.2942 Q3002.3063,954.7473 3001.0094,954.7473 Q2999.4938,954.7473 2998.2906,954.1223 Q2997.3063,953.6223 2996.6188,952.5598 Q2995.9313,951.4817 2995.9313,950.2004 L2995.9313,949.0442 Q2995.9313,947.7161 2996.5406,946.5754 Q2997.1656,945.4192 2998.2594,944.8098 Q2999.3531,944.1848 3000.5875,944.1848 Q3001.3219,944.1848 3001.9625,944.3567 Q3002.6188,944.5129 3003.1656,944.8723 Z " fill="#000000"/><text fill="#000000" font-family="Verdana" font-size="12" lengthAdjust="spacing" textLength="120" x="3017.6" y="953.7698">:NotificationService</text><line style="stroke:#000000;stroke-width:1.0;" x1="2965" x2="3163" y1="962.9973" y2="962.9973"/><line style="stroke:#000000;stroke-width:1.0;" x1="2965" x2="3163" y1="970.9973" y2="970.9973"/></g><!--class matchRepo--><g id="elem_matchRepo"><rect codeLine="18" fill="#E0FFFF" height="44" id="matchRepo" rx="2.5" ry="2.5" style="stroke:#000000;stroke-width:1.0;" width="200" x="6831" y="934.9973"/><ellipse cx="6856.15" cy="948.9973" fill="#FFFFFF" rx="9" ry="9" style="stroke:#000000;stroke-width:1.0;"/><path d="M6858.9156,944.8723 Q6859.0719,944.6536 6859.2594,944.5442 Q6859.4469,944.4348 6859.6656,944.4348 Q6860.0406,944.4348 6860.275,944.7004 Q6860.5094,944.9504 6860.5094,945.5598 L6860.5094,947.0129 Q6860.5094,947.6223 6860.275,947.8879 Q6860.0406,948.1536 6859.6656,948.1536 Q6859.3219,948.1536 6859.1188,947.9504 Q6858.9156,947.7629 6858.8063,947.2473 Q6858.7594,946.8879 6858.5719,946.7004 Q6858.2438,946.3254 6857.6344,946.1067 Q6857.025,945.8879 6856.4,945.8879 Q6855.6344,945.8879 6854.9938,946.2161 Q6854.3688,946.5442 6853.8688,947.2942 Q6853.3844,948.0442 6853.3844,949.0754 L6853.3844,950.1692 Q6853.3844,951.4036 6854.275,952.2317 Q6855.1656,953.0442 6856.7594,953.0442 Q6857.6969,953.0442 6858.3531,952.7942 Q6858.7438,952.6379 6859.1656,952.2004 Q6859.4313,951.9348 6859.5719,951.8567 Q6859.7281,951.7786 6859.9313,951.7786 Q6860.2594,951.7786 6860.5094,952.0442 Q6860.775,952.2942 6860.775,952.6379 Q6860.775,952.9817 6860.4313,953.3879 Q6859.9313,953.9661 6859.1344,954.2942 Q6858.0563,954.7473 6856.7594,954.7473 Q6855.2438,954.7473 6854.0406,954.1223 Q6853.0563,953.6223 6852.3688,952.5598 Q6851.6813,951.4817 6851.6813,950.2004 L6851.6813,949.0442 Q6851.6813,947.7161 6852.2906,946.5754 Q6852.9156,945.4192 6854.0094,944.8098 Q6855.1031,944.1848 6856.3375,944.1848 Q6857.0719,944.1848 6857.7125,944.3567 Q6858.3688,944.5129 6858.9156,944.8723 Z " fill="#000000"/><text fill="#000000" font-family="Verdana" font-size="12" lengthAdjust="spacing" textLength="145" x="6870.85" y="953.7698">:GameMatchRepository</text><line style="stroke:#000000;stroke-width:1.0;" x1="6832" x2="7030" y1="962.9973" y2="962.9973"/><line style="stroke:#000000;stroke-width:1.0;" x1="6832" x2="7030" y1="970.9973" y2="970.9973"/></g><!--class playerRepo--><g id="elem_playerRepo"><rect codeLine="19" fill="#E6E6FA" height="44" id="playerRepo" rx="2.5" ry="2.5" style="stroke:#000000;stroke-width:1.0;" width="212" x="5676" y="934.9973"/><ellipse cx="5689" cy="948.9973" fill="#FFFFFF" rx="9" ry="9" style="stroke:#000000;stroke-width:1.0;"/><path d="M5691.7656,944.8723 Q5691.9219,944.6536 5692.1094,944.5442 Q5692.2969,944.4348 5692.5156,944.4348 Q5692.8906,944.4348 5693.125,944.7004 Q5693.3594,944.9504 5693.3594,945.5598 L5693.3594,947.0129 Q5693.3594,947.6223 5693.125,947.8879 Q5692.8906,948.1536 5692.5156,948.1536 Q5692.1719,948.1536 5691.9688,947.9504 Q5691.7656,947.7629 5691.6563,947.2473 Q5691.6094,946.8879 5691.4219,946.7004 Q5691.0938,946.3254 5690.4844,946.1067 Q5689.875,945.8879 5689.25,945.8879 Q5688.4844,945.8879 5687.8438,946.2161 Q5687.2188,946.5442 5686.7188,947.2942 Q5686.2344,948.0442 5686.2344,949.0754 L5686.2344,950.1692 Q5686.2344,951.4036 5687.125,952.2317 Q5688.0156,953.0442 5689.6094,953.0442 Q5690.5469,953.0442 5691.2031,952.7942 Q5691.5938,952.6379 5692.0156,952.2004 Q5692.2813,951.9348 5692.4219,951.8567 Q5692.5781,951.7786 5692.7813,951.7786 Q5693.1094,951.7786 5693.3594,952.0442 Q5693.625,952.2942 5693.625,952.6379 Q5693.625,952.9817 5693.2813,953.3879 Q5692.7813,953.9661 5691.9844,954.2942 Q5690.9063,954.7473 5689.6094,954.7473 Q5688.0938,954.7473 5686.8906,954.1223 Q5685.9063,953.6223 5685.2188,952.5598 Q5684.5313,951.4817 5684.5313,950.2004 L5684.5313,949.0442 Q5684.5313,947.7161 5685.1406,946.5754 Q5685.7656,945.4192 5686.8594,944.8098 Q5687.9531,944.1848 5689.1875,944.1848 Q5689.9219,944.1848 5690.5625,944.3567 Q5691.2188,944.5129 5691.7656,944.8723 Z " fill="#000000"/><text fill="#000000" font-family="Verdana" font-size="12" lengthAdjust="spacing" textLength="184" x="5701" y="953.7698">:GameMatchPlayerRepository</text><line style="stroke:#000000;stroke-width:1.0;" x1="5677" x2="5887" y1="962.9973" y2="962.9973"/><line style="stroke:#000000;stroke-width:1.0;" x1="5677" x2="5887" y1="970.9973" y2="970.9973"/></g><!--class database--><g id="elem_database"><rect codeLine="20" fill="#F08080" height="44" id="database" rx="2.5" ry="2.5" style="stroke:#000000;stroke-width:1.0;" width="200" x="7516" y="934.9973"/><ellipse cx="7579.25" cy="948.9973" fill="#FFFFFF" rx="9" ry="9" style="stroke:#000000;stroke-width:1.0;"/><path d="M7582.0156,944.8723 Q7582.1719,944.6536 7582.3594,944.5442 Q7582.5469,944.4348 7582.7656,944.4348 Q7583.1406,944.4348 7583.375,944.7004 Q7583.6094,944.9504 7583.6094,945.5598 L7583.6094,947.0129 Q7583.6094,947.6223 7583.375,947.8879 Q7583.1406,948.1536 7582.7656,948.1536 Q7582.4219,948.1536 7582.2188,947.9504 Q7582.0156,947.7629 7581.9063,947.2473 Q7581.8594,946.8879 7581.6719,946.7004 Q7581.3438,946.3254 7580.7344,946.1067 Q7580.125,945.8879 7579.5,945.8879 Q7578.7344,945.8879 7578.0938,946.2161 Q7577.4688,946.5442 7576.9688,947.2942 Q7576.4844,948.0442 7576.4844,949.0754 L7576.4844,950.1692 Q7576.4844,951.4036 7577.375,952.2317 Q7578.2656,953.0442 7579.8594,953.0442 Q7580.7969,953.0442 7581.4531,952.7942 Q7581.8438,952.6379 7582.2656,952.2004 Q7582.5313,951.9348 7582.6719,951.8567 Q7582.8281,951.7786 7583.0313,951.7786 Q7583.3594,951.7786 7583.6094,952.0442 Q7583.875,952.2942 7583.875,952.6379 Q7583.875,952.9817 7583.5313,953.3879 Q7583.0313,953.9661 7582.2344,954.2942 Q7581.1563,954.7473 7579.8594,954.7473 Q7578.3438,954.7473 7577.1406,954.1223 Q7576.1563,953.6223 7575.4688,952.5598 Q7574.7813,951.4817 7574.7813,950.2004 L7574.7813,949.0442 Q7574.7813,947.7161 7575.3906,946.5754 Q7576.0156,945.4192 7577.1094,944.8098 Q7578.2031,944.1848 7579.4375,944.1848 Q7580.1719,944.1848 7580.8125,944.3567 Q7581.4688,944.5129 7582.0156,944.8723 Z " fill="#000000"/><text fill="#000000" font-family="Verdana" font-size="12" lengthAdjust="spacing" textLength="66" x="7596.75" y="953.7698">:Database</text><line style="stroke:#000000;stroke-width:1.0;" x1="7517" x2="7715" y1="962.9973" y2="962.9973"/><line style="stroke:#000000;stroke-width:1.0;" x1="7517" x2="7715" y1="970.9973" y2="970.9973"/></g><g id="elem_GMN33"><path d="M596,896.4973 L596,952.9973 L212.04,956.9973 L596,960.9973 L596,1017.0925 A0,0 0 0 0 596,1017.0925 L866,1017.0925 A0,0 0 0 0 866,1017.0925 L866,906.4973 L856,896.4973 L596,896.4973 A0,0 0 0 0 596,896.4973 " fill="#ADD8E6" style="stroke:#000000;stroke-width:1.0;"/><path d="M856,896.4973 L856,906.4973 L866,906.4973 L856,896.4973 " fill="#ADD8E6" style="stroke:#000000;stroke-width:1.0;"/><text fill="#000000" font-family="Verdana" font-size="13" font-weight="bold" lengthAdjust="spacing" textLength="199" x="602" y="914.5671">Interfaccia Client Giocatore</text><text fill="#000000" font-family="Verdana" font-size="13" lengthAdjust="spacing" textLength="164" x="602" y="930.3664">- Interfaccia lobby gioco</text><text fill="#000000" font-family="Verdana" font-size="13" lengthAdjust="spacing" textLength="218" x="602" y="946.1658">- Connessione WebSocket attiva</text><text fill="#000000" font-family="Verdana" font-size="13" lengthAdjust="spacing" textLength="249" x="602" y="961.9651">- Gestione aggiornamenti tempo reale</text><text fill="#000000" font-family="Verdana" font-size="13" lengthAdjust="spacing" textLength="248" x="602" y="977.7644">- Visualizzazione configurazione carro</text><text fill="#000000" font-family="Verdana" font-size="13" lengthAdjust="spacing" textLength="198" x="602" y="993.5637">- Visualizzazione stato partita</text><text fill="#000000" font-family="Verdana" font-size="13" lengthAdjust="spacing" textLength="158" x="602" y="1009.363">- Gestione errori e retry</text></g><g id="elem_GMN36"><path d="M8148,896.4973 L8148,1017.0925 L8372,1017.0925 L8372,906.4973 L8362,896.4973 L8148,896.4973 " fill="#D3D3D3" style="stroke:#000000;stroke-width:1.0;"/><path d="M8362,896.4973 L8362,906.4973 L8372,906.4973 L8362,896.4973 " fill="#D3D3D3" style="stroke:#000000;stroke-width:1.0;"/><text fill="#000000" font-family="Verdana" font-size="13" font-weight="bold" lengthAdjust="spacing" textLength="157" x="8154" y="914.5671">Controller Multiplayer</text><text fill="#000000" font-family="Verdana" font-size="13" lengthAdjust="spacing" textLength="191" x="8154" y="930.3664">- Gestore endpoint API REST</text><text fill="#000000" font-family="Verdana" font-size="13" lengthAdjust="spacing" textLength="160" x="8154" y="946.1658">- Validazione token JWT</text><text fill="#000000" font-family="Verdana" font-size="13" lengthAdjust="spacing" textLength="203" x="8154" y="961.9651">- Formattazione risposta HTTP</text><text fill="#000000" font-family="Verdana" font-size="13" lengthAdjust="spacing" textLength="169" x="8154" y="977.7644">- Mappatura codici errore</text><text fill="#000000" font-family="Verdana" font-size="13" lengthAdjust="spacing" textLength="175" x="8154" y="993.5637">- Applicazione rate limiting</text><text fill="#000000" font-family="Verdana" font-size="13" lengthAdjust="spacing" textLength="123" x="8154" y="1009.363">- Logging richieste</text></g><g id="elem_GMN39"><path d="M7796.5,896.4973 L7796.5,1017.0925 L8067.5,1017.0925 L8067.5,906.4973 L8057.5,896.4973 L7796.5,896.4973 " fill="#90EE90" style="stroke:#000000;stroke-width:1.0;"/><path d="M8057.5,896.4973 L8057.5,906.4973 L8067.5,906.4973 L8057.5,896.4973 " fill="#90EE90" style="stroke:#000000;stroke-width:1.0;"/><text fill="#000000" font-family="Verdana" font-size="13" font-weight="bold" lengthAdjust="spacing" textLength="143" x="7802.5" y="914.5671">Servizio Multiplayer</text><text fill="#000000" font-family="Verdana" font-size="13" lengthAdjust="spacing" textLength="182" x="7802.5" y="930.3664">- Logica business principale</text><text fill="#000000" font-family="Verdana" font-size="13" lengthAdjust="spacing" textLength="215" x="7802.5" y="946.1658">- Validazione disponibilit&#224; partita</text><text fill="#000000" font-family="Verdana" font-size="13" lengthAdjust="spacing" textLength="250" x="7802.5" y="961.9651">- Applicazione limite giocatori (max 4)</text><text fill="#000000" font-family="Verdana" font-size="13" lengthAdjust="spacing" textLength="224" x="7802.5" y="977.7644">- Validazione configurazione carro</text><text fill="#000000" font-family="Verdana" font-size="13" lengthAdjust="spacing" textLength="180" x="7802.5" y="993.5637">- Gestione transizioni stato</text><text fill="#000000" font-family="Verdana" font-size="13" lengthAdjust="spacing" textLength="213" x="7802.5" y="1009.363">- Gestione accesso concorrente</text></g><g id="elem_GMN42"><path d="M4647.5,896.4973 L4647.5,952.9973 L4312.08,956.9973 L4647.5,960.9973 L4647.5,1017.0925 A0,0 0 0 0 4647.5,1017.0925 L4896.5,1017.0925 A0,0 0 0 0 4896.5,1017.0925 L4896.5,906.4973 L4886.5,896.4973 L4647.5,896.4973 A0,0 0 0 0 4647.5,896.4973 " fill="#FFFF00" style="stroke:#000000;stroke-width:1.0;"/><path d="M4886.5,896.4973 L4886.5,906.4973 L4896.5,906.4973 L4886.5,896.4973 " fill="#FFFF00" style="stroke:#000000;stroke-width:1.0;"/><text fill="#000000" font-family="Verdana" font-size="13" font-weight="bold" lengthAdjust="spacing" textLength="172" x="4653.5" y="914.5671">Servizio Gestore Partite</text><text fill="#000000" font-family="Verdana" font-size="13" lengthAdjust="spacing" textLength="186" x="4653.5" y="930.3664">- Coordinazione tempo reale</text><text fill="#000000" font-family="Verdana" font-size="13" lengthAdjust="spacing" textLength="158" x="4653.5" y="946.1658">- Gestione stato partita</text><text fill="#000000" font-family="Verdana" font-size="13" lengthAdjust="spacing" textLength="182" x="4653.5" y="961.9651">- Sincronizzazione giocatori</text><text fill="#000000" font-family="Verdana" font-size="13" lengthAdjust="spacing" textLength="194" x="4653.5" y="977.7644">- Valutazione condizioni inizio</text><text fill="#000000" font-family="Verdana" font-size="13" lengthAdjust="spacing" textLength="228" x="4653.5" y="993.5637">- Comunicazione basata su stanze</text><text fill="#000000" font-family="Verdana" font-size="13" lengthAdjust="spacing" textLength="157" x="4653.5" y="1009.363">- Orchestrazione eventi</text></g><g id="elem_GMN45"><path d="M5310.5,896.4973 L5310.5,952.9973 L5230.31,956.9973 L5310.5,960.9973 L5310.5,1017.0925 A0,0 0 0 0 5310.5,1017.0925 L5595.5,1017.0925 A0,0 0 0 0 5595.5,1017.0925 L5595.5,906.4973 L5585.5,896.4973 L5310.5,896.4973 A0,0 0 0 0 5310.5,896.4973 " fill="#FFA500" style="stroke:#000000;stroke-width:1.0;"/><path d="M5585.5,896.4973 L5585.5,906.4973 L5595.5,906.4973 L5585.5,896.4973 " fill="#FFA500" style="stroke:#000000;stroke-width:1.0;"/><text fill="#000000" font-family="Verdana" font-size="13" font-weight="bold" lengthAdjust="spacing" textLength="142" x="5316.5" y="914.5671">Gestore WebSocket</text><text fill="#000000" font-family="Verdana" font-size="13" lengthAdjust="spacing" textLength="264" x="5316.5" y="930.3664">- Connessioni tempo reale (WebSocket)</text><text fill="#000000" font-family="Verdana" font-size="13" lengthAdjust="spacing" textLength="223" x="5316.5" y="946.1658">- Messaggistica basata su stanze</text><text fill="#000000" font-family="Verdana" font-size="13" lengthAdjust="spacing" textLength="182" x="5316.5" y="961.9651">- Gestione pool connessioni</text><text fill="#000000" font-family="Verdana" font-size="13" lengthAdjust="spacing" textLength="162" x="5316.5" y="977.7644">- Broadcasting messaggi</text><text fill="#000000" font-family="Verdana" font-size="13" lengthAdjust="spacing" textLength="166" x="5316.5" y="993.5637">- Monitoraggio heartbeat</text><text fill="#000000" font-family="Verdana" font-size="13" lengthAdjust="spacing" textLength="158" x="5316.5" y="1009.363">- Gestione riconnessioni</text></g><g id="elem_GMN48"><path d="M3244.5,896.4973 L3244.5,952.9973 L3164.03,956.9973 L3244.5,960.9973 L3244.5,1017.0925 A0,0 0 0 0 3244.5,1017.0925 L3465.5,1017.0925 A0,0 0 0 0 3465.5,1017.0925 L3465.5,906.4973 L3455.5,896.4973 L3244.5,896.4973 A0,0 0 0 0 3244.5,896.4973 " fill="#FFC0CB" style="stroke:#000000;stroke-width:1.0;"/><path d="M3455.5,896.4973 L3455.5,906.4973 L3465.5,906.4973 L3455.5,896.4973 " fill="#FFC0CB" style="stroke:#000000;stroke-width:1.0;"/><text fill="#000000" font-family="Verdana" font-size="13" font-weight="bold" lengthAdjust="spacing" textLength="126" x="3250.5" y="914.5671">Servizio Notifiche</text><text fill="#000000" font-family="Verdana" font-size="13" lengthAdjust="spacing" textLength="192" x="3250.5" y="930.3664">- Messaggistica user-friendly</text><text fill="#000000" font-family="Verdana" font-size="13" lengthAdjust="spacing" textLength="152" x="3250.5" y="946.1658">- Formattazione eventi</text><text fill="#000000" font-family="Verdana" font-size="13" lengthAdjust="spacing" textLength="157" x="3250.5" y="961.9651">- Distribuzione notifiche</text><text fill="#000000" font-family="Verdana" font-size="13" lengthAdjust="spacing" textLength="152" x="3250.5" y="977.7644">- Persistenza messaggi</text><text fill="#000000" font-family="Verdana" font-size="13" lengthAdjust="spacing" textLength="142" x="3250.5" y="993.5637">- Conferma consegna</text><text fill="#000000" font-family="Verdana" font-size="13" lengthAdjust="spacing" textLength="166" x="3250.5" y="1009.363">- Supporto localizzazione</text></g><g id="elem_GMN51"><path d="M7463.5,2078.4973 L7463.5,2199.0925 A0,0 0 0 0 7463.5,2199.0925 L7768.5,2199.0925 A0,0 0 0 0 7768.5,2199.0925 L7768.5,2088.4973 L7758.5,2078.4973 L7620,2078.4973 L7616,979.2273 L7612,2078.4973 L7463.5,2078.4973 A0,0 0 0 0 7463.5,2078.4973 " fill="#F08080" style="stroke:#000000;stroke-width:1.0;"/><path d="M7758.5,2078.4973 L7758.5,2088.4973 L7768.5,2088.4973 L7758.5,2078.4973 " fill="#F08080" style="stroke:#000000;stroke-width:1.0;"/><text fill="#000000" font-family="Verdana" font-size="13" font-weight="bold" lengthAdjust="spacing" textLength="120" x="7469.5" y="2096.5671">Livello Database</text><text fill="#000000" font-family="Verdana" font-size="13" lengthAdjust="spacing" textLength="257" x="7469.5" y="2112.3664">- Tabella GameMatches (stato partita)</text><text fill="#000000" font-family="Verdana" font-size="13" lengthAdjust="spacing" textLength="284" x="7469.5" y="2128.1658">- Tabella GameMatchPlayers (partecipanti)</text><text fill="#000000" font-family="Verdana" font-size="13" lengthAdjust="spacing" textLength="210" x="7469.5" y="2143.9651">- Persistenza e ripristino partite</text><text fill="#000000" font-family="Verdana" font-size="13" lengthAdjust="spacing" textLength="185" x="7469.5" y="2159.7644">- Supporto transazioni ACID</text><text fill="#000000" font-family="Verdana" font-size="13" lengthAdjust="spacing" textLength="214" x="7469.5" y="2175.5637">- Controllo accesso concorrente</text><text fill="#000000" font-family="Verdana" font-size="13" lengthAdjust="spacing" textLength="183" x="7469.5" y="2191.363">- Ottimizzazione prestazioni</text></g><!--link client to controller--><g id="link_client_controller"><path codeLine="22" d="M130.64,934.6873 C249.41,795.0973 908.56,58.7373 1319.5,402.4973 C1484.16,540.2473 1440.7086,843.5306 1424.6586,928.9006 " fill="none" id="client-to-controller" style="stroke:#000000;stroke-width:1.0;"/><polygon fill="#000000" points="1423.55,934.7973,1429.144,926.6913,1424.4738,929.8834,1421.2818,925.2132,1423.55,934.7973" style="stroke:#000000;stroke-width:1.0;"/><text fill="#000000" font-family="Verdana" font-size="11" lengthAdjust="spacing" textLength="4" x="1186" y="310.5564">&#160;</text><text fill="#000000" font-family="Verdana" font-size="11" lengthAdjust="spacing" textLength="4" x="1186" y="323.925">&#160;</text><text fill="#000000" font-family="Verdana" font-size="11" lengthAdjust="spacing" textLength="4" x="1186" y="337.2937">&#160;</text><text fill="#000000" font-family="Verdana" font-size="11" lengthAdjust="spacing" textLength="4" x="1186" y="350.6623">&#160;</text><text fill="#000000" font-family="Verdana" font-size="11" font-weight="bold" lengthAdjust="spacing" textLength="12" x="1057.5" y="364.031">1:</text><text fill="#000000" font-family="Verdana" font-size="11" lengthAdjust="spacing" textLength="245" x="1073.5" y="364.031">unisciPartita(token, match_id, tank_config)</text></g><!--link controller to client--><g id="link_controller_client"><path codeLine="43" d="M1423.55,934.7973 C1439.6,849.4273 1484.16,540.2473 1319.5,402.4973 C908.56,58.7373 253.2981,790.5276 134.5281,930.1176 " fill="none" id="controller-to-client" style="stroke:#000000;stroke-width:1.0;"/><polygon fill="#000000" points="130.64,934.6873,139.5187,930.4248,133.8801,930.8792,133.4257,925.2406,130.64,934.6873" style="stroke:#000000;stroke-width:1.0;"/><text fill="#000000" font-family="Verdana" font-size="11" font-weight="bold" lengthAdjust="spacing" textLength="20" x="949" y="337.0564">22:</text><text fill="#000000" font-family="Verdana" font-size="11" lengthAdjust="spacing" textLength="454" x="973" y="337.0564">{successo: true, giocatori_attuali: 3, max_giocatori: 4, possibile_iniziare: true}</text></g><!--link controller to controller--><g id="link_controller_controller"><path codeLine="23" d="M1428.97,934.8973 C1491.32,809.9073 1599,817.2773 1599,956.9973 C1599,1096.7173 1493.9983,1109.4564 1431.6483,984.4664 " fill="none" id="controller-to-controller" style="stroke:#000000;stroke-width:1.0;"/><polygon fill="#000000" points="1428.97,979.0973,1429.4081,988.9364,1431.2019,983.5715,1436.5668,985.3654,1428.97,979.0973" style="stroke:#000000;stroke-width:1.0;"/><text fill="#000000" font-family="Verdana" font-size="11" font-weight="bold" lengthAdjust="spacing" textLength="12" x="1605" y="961.5564">2:</text><text fill="#000000" font-family="Verdana" font-size="11" lengthAdjust="spacing" textLength="111" x="1621" y="961.5564">validaToken(token)</text></g><!--link controller to multiService--><g id="link_controller_multiService"><path codeLine="24" d="M1519.22,956.9973 C1654.35,956.9973 1887.56,956.9973 2022.72,956.9973 " fill="none" id="controller-to-multiService" style="stroke:#000000;stroke-width:1.0;"/><polygon fill="#000000" points="2028.72,956.9973,2019.72,952.9973,2023.72,956.9973,2019.72,960.9973,2028.72,956.9973" style="stroke:#000000;stroke-width:1.0;"/><text fill="#000000" font-family="Verdana" font-size="11" font-weight="bold" lengthAdjust="spacing" textLength="12" x="1638.5" y="951.0564">3:</text><text fill="#000000" font-family="Verdana" font-size="11" lengthAdjust="spacing" textLength="255" x="1654.5" y="951.0564">unisciPartita(user_id, match_id, tank_config)</text></g><!--link multiService to controller--><g id="link_multiService_controller"><path codeLine="42" d="M2028.88,964.5873 C1971.45,968.5673 1897.96,973.0073 1832.5,974.9973 C1725.48,978.2473 1608.9441,972.054 1525.2241,965.944 " fill="none" id="multiService-to-controller" style="stroke:#000000;stroke-width:1.0;"/><polygon fill="#000000" points="1519.24,965.5073,1527.925,970.1518,1524.2267,965.8712,1528.5073,962.173,1519.24,965.5073" style="stroke:#000000;stroke-width:1.0;"/><text fill="#000000" font-family="Verdana" font-size="11" font-weight="bold" lengthAdjust="spacing" textLength="20" x="1716.5" y="972.0564">21:</text><text fill="#000000" font-family="Verdana" font-size="11" lengthAdjust="spacing" textLength="91" x="1740.5" y="972.0564">risultato_unione</text></g><!--link multiService to matchRepo--><g id="link_multiService_matchRepo"><path codeLine="25" d="M2229.2,937.1773 C2877.43,810.0573 6462.91,124.0773 6831,428.9973 C6988.16,559.1873 6950.7876,846.4977 6936.2876,929.0777 " fill="none" id="multiService-to-matchRepo" style="stroke:#000000;stroke-width:1.0;"/><polygon fill="#000000" points="6935.25,934.9873,6940.7462,926.8147,6936.1147,930.0626,6932.8667,925.4311,6935.25,934.9873" style="stroke:#000000;stroke-width:1.0;"/><text fill="#000000" font-family="Verdana" font-size="11" font-weight="bold" lengthAdjust="spacing" textLength="12" x="6654" y="337.0564">4:</text><text fill="#000000" font-family="Verdana" font-size="11" lengthAdjust="spacing" textLength="160" x="6670" y="337.0564">trovaPartitaPerId(match_id)</text></g><!--link matchRepo to database--><g id="link_matchRepo_database"><path codeLine="26" d="M7031.34,956.9973 C7161.22,956.9973 7380.21,956.9973 7509.95,956.9973 " fill="none" id="matchRepo-to-database" style="stroke:#000000;stroke-width:1.0;"/><polygon fill="#000000" points="7515.95,956.9973,7506.95,952.9973,7510.95,956.9973,7506.95,960.9973,7515.95,956.9973" style="stroke:#000000;stroke-width:1.0;"/><text fill="#000000" font-family="Verdana" font-size="11" font-weight="bold" lengthAdjust="spacing" textLength="12" x="7072" y="951.0564">5:</text><text fill="#000000" font-family="Verdana" font-size="11" lengthAdjust="spacing" textLength="387" x="7088" y="951.0564">SELECT * FROM GameMatches WHERE id = ? AND status = 'waiting'</text></g><!--link multiService to playerRepo--><g id="link_multiService_playerRepo"><path codeLine="27" d="M2138.85,934.9473 C2179.01,848.2073 2339.92,529.6673 2585.5,415.4973 C2672.15,375.2173 2705.28,407.4773 2800.5,415.4973 C4074.22,522.7673 4407.71,542.7073 5636,896.4973 C5670.54,906.4473 5702.4979,919.5742 5730.8079,932.4442 " fill="none" id="multiService-to-playerRepo" style="stroke:#000000;stroke-width:1.0;"/><polygon fill="#000000" points="5736.27,934.9273,5729.7323,927.5613,5731.7183,932.858,5726.4215,934.844,5736.27,934.9273" style="stroke:#000000;stroke-width:1.0;"/><text fill="#000000" font-family="Verdana" font-size="11" lengthAdjust="spacing" textLength="4" x="2691" y="323.5564">&#160;</text><text fill="#000000" font-family="Verdana" font-size="11" lengthAdjust="spacing" textLength="4" x="2691" y="336.925">&#160;</text><text fill="#000000" font-family="Verdana" font-size="11" lengthAdjust="spacing" textLength="4" x="2586.5" y="350.2937">&#160;</text><text fill="#000000" font-family="Verdana" font-size="11" font-weight="bold" lengthAdjust="spacing" textLength="12" x="2590.5" y="350.2937">6:</text><text fill="#000000" font-family="Verdana" font-size="11" lengthAdjust="spacing" textLength="193" x="2606.5" y="350.2937">contaGiocatoriInPartita(match_id)</text></g><!--link multiService to playerRepo--><g id="link_multiService_playerRepo"><path codeLine="30" d="M2138.85,934.9473 C2179.01,848.2073 2339.92,529.6673 2585.5,415.4973 C2672.15,375.2173 2705.28,407.4773 2800.5,415.4973 C4074.22,522.7673 4407.71,542.7073 5636,896.4973 C5670.54,906.4473 5702.4979,919.5742 5730.8079,932.4442 " fill="none" id="multiService-to-playerRepo-1" style="stroke:#000000;stroke-width:1.0;"/><polygon fill="#000000" points="5736.27,934.9273,5729.7323,927.5613,5731.7183,932.858,5726.4215,934.844,5736.27,934.9273" style="stroke:#000000;stroke-width:1.0;"/><text fill="#000000" font-family="Verdana" font-size="11" font-weight="bold" lengthAdjust="spacing" textLength="12" x="2511.5" y="337.0564">9:</text><text fill="#000000" font-family="Verdana" font-size="11" lengthAdjust="spacing" textLength="347" x="2527.5" y="337.0564">aggiungiGiocatoreAllaPartita(match_id, user_id, tank_config)</text></g><!--link playerRepo to database--><g id="link_playerRepo_database"><path codeLine="28" d="M5777.88,934.9773 C5763.59,851.0273 5725.44,549.0373 5887.5,415.4973 C6167.05,185.1573 7337.9833,805.0329 7570.6433,932.0129 " fill="none" id="playerRepo-to-database" style="stroke:#000000;stroke-width:1.0;"/><polygon fill="#000000" points="7575.91,934.8873,7569.9263,927.0646,7571.5211,932.492,7566.0937,934.0868,7575.91,934.8873" style="stroke:#000000;stroke-width:1.0;"/><text fill="#000000" font-family="Verdana" font-size="11" lengthAdjust="spacing" textLength="4" x="6084" y="323.5564">&#160;</text><text fill="#000000" font-family="Verdana" font-size="11" lengthAdjust="spacing" textLength="4" x="6084" y="336.925">&#160;</text><text fill="#000000" font-family="Verdana" font-size="11" font-weight="bold" lengthAdjust="spacing" textLength="12" x="5888.5" y="350.2937">7:</text><text fill="#000000" font-family="Verdana" font-size="11" lengthAdjust="spacing" textLength="379" x="5904.5" y="350.2937">SELECT COUNT(*) FROM GameMatchPlayers WHERE match_id = ?</text></g><!--link playerRepo to database--><g id="link_playerRepo_database"><path codeLine="31" d="M5777.88,934.9773 C5763.59,851.0273 5725.44,549.0373 5887.5,415.4973 C6167.05,185.1573 7337.9833,805.0329 7570.6433,932.0129 " fill="none" id="playerRepo-to-database-1" style="stroke:#000000;stroke-width:1.0;"/><polygon fill="#000000" points="7575.91,934.8873,7569.9263,927.0646,7571.5211,932.492,7566.0937,934.0868,7575.91,934.8873" style="stroke:#000000;stroke-width:1.0;"/><text fill="#000000" font-family="Verdana" font-size="11" font-weight="bold" lengthAdjust="spacing" textLength="20" x="5908" y="337.0564">10:</text><text fill="#000000" font-family="Verdana" font-size="11" lengthAdjust="spacing" textLength="332" x="5932" y="337.0564">INSERT INTO GameMatchPlayers VALUES (?, ?, ?, NOW())</text></g><!--link multiService to multiService--><g id="link_multiService_multiService"><path codeLine="29" d="M2138.97,934.8973 C2201.32,809.9073 2309,817.2773 2309,956.9973 C2309,1096.7173 2203.9983,1109.4564 2141.6483,984.4664 " fill="none" id="multiService-to-multiService" style="stroke:#000000;stroke-width:1.0;"/><polygon fill="#000000" points="2138.97,979.0973,2139.4081,988.9364,2141.2019,983.5715,2146.5668,985.3654,2138.97,979.0973" style="stroke:#000000;stroke-width:1.0;"/><text fill="#000000" font-family="Verdana" font-size="11" font-weight="bold" lengthAdjust="spacing" textLength="12" x="2315" y="961.5564">8:</text><text fill="#000000" font-family="Verdana" font-size="11" lengthAdjust="spacing" textLength="297" x="2331" y="961.5564">validaPartitaDisponibile(match, conteggio_giocatori)</text></g><!--link multiService to matchManager--><g id="link_multiService_matchManager"><path codeLine="32" d="M2173.83,934.9473 C2438.44,806.2473 3795.46,166.7773 4112,428.9973 C4269.16,559.1873 4231.7876,846.4977 4217.2876,929.0777 " fill="none" id="multiService-to-matchManager" style="stroke:#000000;stroke-width:1.0;"/><polygon fill="#000000" points="4216.25,934.9873,4221.7462,926.8147,4217.1147,930.0626,4213.8667,925.4311,4216.25,934.9873" style="stroke:#000000;stroke-width:1.0;"/><text fill="#000000" font-family="Verdana" font-size="11" font-weight="bold" lengthAdjust="spacing" textLength="20" x="3807" y="337.0564">11:</text><text fill="#000000" font-family="Verdana" font-size="11" lengthAdjust="spacing" textLength="280" x="3831" y="337.0564">giocatoreEntrato(match_id, user_id, tank_config)</text></g><!--link matchManager to wsManager--><g id="link_matchManager_wsManager"><path codeLine="33" d="M4225.81,934.9173 C4307.16,807.4873 4730.45,180.2073 5030.5,428.9973 C5187.58,559.2373 5149.9041,846.5189 5135.3141,929.0789 " fill="none" id="matchManager-to-wsManager" style="stroke:#000000;stroke-width:1.0;"/><polygon fill="#000000" points="5134.27,934.9873,5139.7752,926.8207,5135.1401,930.0636,5131.8972,925.4285,5134.27,934.9873" style="stroke:#000000;stroke-width:1.0;"/><text fill="#000000" font-family="Verdana" font-size="11" font-weight="bold" lengthAdjust="spacing" textLength="20" x="4706.5" y="337.0564">12:</text><text fill="#000000" font-family="Verdana" font-size="11" lengthAdjust="spacing" textLength="299" x="4730.5" y="337.0564">broadcastSalaPartita(match_id, "giocatore_entrato")</text></g><!--link matchManager to wsManager--><g id="link_matchManager_wsManager"><path codeLine="37" d="M4225.81,934.9173 C4307.16,807.4873 4730.45,180.2073 5030.5,428.9973 C5187.58,559.2373 5149.9041,846.5189 5135.3141,929.0789 " fill="none" id="matchManager-to-wsManager-1" style="stroke:#000000;stroke-width:1.0;"/><polygon fill="#000000" points="5134.27,934.9873,5139.7752,926.8207,5135.1401,930.0636,5131.8972,925.4285,5134.27,934.9873" style="stroke:#000000;stroke-width:1.0;"/><text fill="#000000" font-family="Verdana" font-size="11" lengthAdjust="spacing" textLength="4" x="4866" y="323.5564">&#160;</text><text fill="#000000" font-family="Verdana" font-size="11" lengthAdjust="spacing" textLength="4" x="4866" y="336.925">&#160;</text><text fill="#000000" font-family="Verdana" font-size="11" font-weight="bold" lengthAdjust="spacing" textLength="20" x="4674.5" y="350.2937">16:</text><text fill="#000000" font-family="Verdana" font-size="11" lengthAdjust="spacing" textLength="363" x="4698.5" y="350.2937">broadcastSalaPartita(match_id, "possibile_iniziare_aggiornato")</text></g><!--link wsManager to client--><g id="link_wsManager_client"><path codeLine="34" d="M5070.39,934.9573 C5032.65,921.8473 4982.55,905.9773 4937,896.4973 C3024.23,498.4773 2516.97,533.0373 566,428.9973 C408.89,420.6173 333.16,328.6273 212,428.9973 C54.84,559.1873 92.2124,846.4977 106.7124,929.0777 " fill="none" id="wsManager-to-client" style="stroke:#000000;stroke-width:1.0;"/><polygon fill="#000000" points="107.75,934.9873,110.1333,925.4311,106.8853,930.0626,102.2538,926.8147,107.75,934.9873" style="stroke:#000000;stroke-width:1.0;"/><text fill="#000000" font-family="Verdana" font-size="11" font-weight="bold" lengthAdjust="spacing" textLength="20" x="213" y="337.0564">13:</text><text fill="#000000" font-family="Verdana" font-size="11" lengthAdjust="spacing" textLength="328" x="237" y="337.0564">WebSocket: {event: "giocatore_entrato", info_giocatore}</text></g><!--link wsManager to client--><g id="link_wsManager_client"><path codeLine="38" d="M5070.39,934.9573 C5032.65,921.8473 4982.55,905.9773 4937,896.4973 C3024.23,498.4773 2516.97,533.0373 566,428.9973 C408.89,420.6173 333.16,328.6273 212,428.9973 C54.84,559.1873 92.2124,846.4977 106.7124,929.0777 " fill="none" id="wsManager-to-client-1" style="stroke:#000000;stroke-width:1.0;"/><polygon fill="#000000" points="107.75,934.9873,110.1333,925.4311,106.8853,930.0626,102.2538,926.8147,107.75,934.9873" style="stroke:#000000;stroke-width:1.0;"/><text fill="#000000" font-family="Verdana" font-size="11" lengthAdjust="spacing" textLength="4" x="387" y="310.5564">&#160;</text><text fill="#000000" font-family="Verdana" font-size="11" lengthAdjust="spacing" textLength="4" x="387" y="323.925">&#160;</text><text fill="#000000" font-family="Verdana" font-size="11" lengthAdjust="spacing" textLength="4" x="387" y="337.2937">&#160;</text><text fill="#000000" font-family="Verdana" font-size="11" lengthAdjust="spacing" textLength="4" x="387" y="350.6623">&#160;</text><text fill="#000000" font-family="Verdana" font-size="11" lengthAdjust="spacing" textLength="4" x="222" y="364.031">&#160;</text><text fill="#000000" font-family="Verdana" font-size="11" font-weight="bold" lengthAdjust="spacing" textLength="20" x="226" y="364.031">17:</text><text fill="#000000" font-family="Verdana" font-size="11" lengthAdjust="spacing" textLength="306" x="250" y="364.031">WebSocket: {event: "possibile_iniziare", value: true}</text></g><!--link wsManager to client--><g id="link_wsManager_client"><path codeLine="41" d="M5070.39,934.9573 C5032.65,921.8473 4982.55,905.9773 4937,896.4973 C3024.23,498.4773 2516.97,533.0373 566,428.9973 C408.89,420.6173 333.16,328.6273 212,428.9973 C54.84,559.1873 92.2124,846.4977 106.7124,929.0777 " fill="none" id="wsManager-to-client-2" style="stroke:#000000;stroke-width:1.0;"/><polygon fill="#000000" points="107.75,934.9873,110.1333,925.4311,106.8853,930.0626,102.2538,926.8147,107.75,934.9873" style="stroke:#000000;stroke-width:1.0;"/><text fill="#000000" font-family="Verdana" font-size="11" lengthAdjust="spacing" textLength="4" x="387" y="323.5564">&#160;</text><text fill="#000000" font-family="Verdana" font-size="11" lengthAdjust="spacing" textLength="4" x="387" y="336.925">&#160;</text><text fill="#000000" font-family="Verdana" font-size="11" font-weight="bold" lengthAdjust="spacing" textLength="20" x="172.5" y="350.2937">20:</text><text fill="#000000" font-family="Verdana" font-size="11" lengthAdjust="spacing" textLength="409" x="196.5" y="350.2937">WebSocket: {event: "notifica", message: "Il giocatore Alice &#232; entrato"}</text></g><!--link client to client--><g id="link_client_client"><path codeLine="35" d="M121.97,934.8973 C184.32,809.9073 292,817.2773 292,956.9973 C292,1096.7173 186.9983,1109.4564 124.6483,984.4664 " fill="none" id="client-to-client" style="stroke:#000000;stroke-width:1.0;"/><polygon fill="#000000" points="121.97,979.0973,122.4081,988.9364,124.2019,983.5715,129.5668,985.3654,121.97,979.0973" style="stroke:#000000;stroke-width:1.0;"/><text fill="#000000" font-family="Verdana" font-size="11" font-weight="bold" lengthAdjust="spacing" textLength="20" x="298" y="961.5564">14:</text><text fill="#000000" font-family="Verdana" font-size="11" lengthAdjust="spacing" textLength="250" x="322" y="961.5564">aggiornaInterfacciaLobby(nuovo_giocatore)</text></g><!--link matchManager to matchManager--><g id="link_matchManager_matchManager"><path codeLine="36" d="M4221.97,934.8973 C4284.32,809.9073 4392,817.2773 4392,956.9973 C4392,1096.7173 4286.9983,1109.4564 4224.6483,984.4664 " fill="none" id="matchManager-to-matchManager" style="stroke:#000000;stroke-width:1.0;"/><polygon fill="#000000" points="4221.97,979.0973,4222.4081,988.9364,4224.2019,983.5715,4229.5668,985.3654,4221.97,979.0973" style="stroke:#000000;stroke-width:1.0;"/><text fill="#000000" font-family="Verdana" font-size="11" font-weight="bold" lengthAdjust="spacing" textLength="20" x="4398" y="961.5564">15:</text><text fill="#000000" font-family="Verdana" font-size="11" lengthAdjust="spacing" textLength="201" x="4422" y="961.5564">controllaCondizioniInizio(match_id)</text></g><!--link multiService to notificationService--><g id="link_multiService_notificationService"><path codeLine="39" d="M2229.06,956.9973 C2408.79,956.9973 2778.24,956.9973 2957.95,956.9973 " fill="none" id="multiService-to-notificationService" style="stroke:#000000;stroke-width:1.0;"/><polygon fill="#000000" points="2963.95,956.9973,2954.95,952.9973,2958.95,956.9973,2954.95,960.9973,2963.95,956.9973" style="stroke:#000000;stroke-width:1.0;"/><text fill="#000000" font-family="Verdana" font-size="11" font-weight="bold" lengthAdjust="spacing" textLength="20" x="2441.5" y="951.0564">18:</text><text fill="#000000" font-family="Verdana" font-size="11" lengthAdjust="spacing" textLength="286" x="2465.5" y="951.0564">inviaNotificaUnione(match_id, giocatore_entrante)</text></g><!--link notificationService to wsManager--><g id="link_notificationService_wsManager"><path codeLine="40" d="M3059.75,934.9873 C3045.25,852.4073 3006.84,559.1873 3164,428.9973 C3477.84,169.0173 4816.4003,803.3408 5079.7403,932.1608 " fill="none" id="notificationService-to-wsManager" style="stroke:#000000;stroke-width:1.0;"/><polygon fill="#000000" points="5085.13,934.7973,5078.8031,927.2494,5080.6386,932.6002,5075.2878,934.4357,5085.13,934.7973" style="stroke:#000000;stroke-width:1.0;"/><text fill="#000000" font-family="Verdana" font-size="11" font-weight="bold" lengthAdjust="spacing" textLength="20" x="3165" y="337.0564">19:</text><text fill="#000000" font-family="Verdana" font-size="11" lengthAdjust="spacing" textLength="240" x="3189" y="337.0564">notificaGiocatoriPartita(match_id, notifica)</text></g><!--link controller to GMN36--><g id="link_controller_GMN36"><path d="M1447.62,934.9473 C1531.24,872.0873 1784.75,692.5873 2029,631.4973 C2679.95,468.6873 7485.34,298.7173 8068,631.4973 C8167.42,688.2773 8220.51,818.8873 8244.24,896.2973 " fill="none" id="controller-GMN36" style="stroke:#000000;stroke-width:1.0;stroke-dasharray:7.0,7.0;"/></g><!--link multiService to GMN39--><g id="link_multiService_GMN39"><path d="M2169.51,934.8673 C2287.57,871.7973 2643.27,691.7973 2964,631.4973 C3482.91,533.9373 7250.74,381.8573 7716,631.4973 C7820.43,687.5273 7882.94,818.7373 7912.1,896.3773 " fill="none" id="multiService-GMN39" style="stroke:#000000;stroke-width:1.0;stroke-dasharray:7.0,7.0;"/></g><!--SRC=[ZLVRRXit47tNLqoSXqY23DYESwc0Db1bnL7X6ombVYaWKBkKDF2AN72vSkIW_zB7_aT-h4DokNUv1GH8Md8EPywS6Sw-qXk-vH1734NdLSXNA3ZSJyRpqStbrGI2Y2L9fvCyeeYPOblOeXYRPmyOwWsSdPoKrkpcprBe6JvpE3qhBJ6bv5EnT5fQ4ZBa2O_XOnbACV5e7fwUl3_fT3JgYCECgnq-euJhDD987k-vWcEuGBOcaos3464ijwd0WD4sYgDxfsJ0aqJ2Ls4Vt355MApNwHGX7WtlBDGuGYxq4R240Z4_uNM4wurUHYclR2yTFwQ8b8mYhfnT_ZUp9SVsXsnjE06tXblpE7kGct8kghPC1vjh9jYwPbnw3g_tF8haKyNmWIzdCdZaEjjahPwIt4GIs-jgZ3TIuufur4HR-IpHV0wlOnIF5UjBjkNMstiUomIrLFl2K_CiYp7OCz5kw59ICu_pXsJFTbo4N5NCBvXcIvOuLyFiZp-BeemwdIornx-LapM4FqN-wVTFX_q-a8oI03F1TBLyv6BW0bXWE01D0bqGn0hNlKu9gWxSxvyPj1sBC6HpW-AmwaOL1HYpjqqdqeGhU_W1DoeO1ZEdsm2U6q0wSSSol3kkfc7NOv5vlfriS_QCwJjZEfjS4TNGXy_tjzUGPuedyF1bSZy13E5N-0IZcmj8DDDfGd_VF37KADPl6hwLSkdPx_VVctCCB-mI9ObCAfmA7ttXQCcswccMlmybTyUtNs_ctNwlvhNJbtVTGvi0cYpMC_EnI6ZcsmKciHIun8WxDmSs2hvUeroiVIYzbqdeztynm8oCKh56pm0VHH6hSp20N0iL1HnaXaHzOj2dDxF9_Po-vhTDChwDhhvEPj3zD03tkRbzwFOEwCft3ujjAyO7oYSaRFhndzvMS0YtQ4aMr1REKaaM1YpHCzP6mr5-w8AxKuzwdGB7LAChU8jeQohlXaFumQc9q7SBoW1Gh8hayR_AdQC4UUvp9fLWKygvMh4WG7ObbyjzLwHoLm9fXjoayfsl0TCR65qmeRdp11M2-QwNwm7sV2Dx_tyef1wRMEqkq9p1Y0KVq0jqbZgcSVl38MgRwCGjLK_AXzIDKYAsBg-sEyPIOmiFnGwPlvxSjLuAffP8oaUlquRNL9ijFhyrRpzDkloM5tcXhdzoY10FG3HiQJOX07euZGhNOHGP5t_-0rwCJOxgTumjG8K9RIE3HMfvgTzBXMpFR6tzIDB0ZaSk4mLxk61QfzJXXl3Mt3RVYoOsXFC1D7FgSsd8vkG8NRWWLos35D3ffJ81DtL1tktwVTfo3EKjaIabwvkqQrGJWhos0rrEC937k6DsmoLFj5trCjxI4GYQRwalAiuYRhTz8xeenkVdR5fqRIbL_g-PMLitckjDGkoaKJsHaur280guLliEZIX6CBp1I-kWQBWf9ihoc9knOeun0Y7OM2BHDhgRqh0-cpitxPNaNBGp1lpnu5O-IqK2rjcQChSLnG1VvlCxktxDufXkRCN8iH03T64ubaPn7EK3DQcHGuHRUwdRvIj978irWGOR9FVumPWFphWcxBRPFWkQJg3pOPacQD8EiK8HO9ndiHHrcD_3g7_-NSbG9GmR0I_a3bJVt-6yrm0yA8ayuQR99Av3ErtK5EWAp03H0Af8XoyGr3R7LyZn-NTToTVAM4eLel2PhwayTwMfsXaHgSZnNDWv8Pw8L1T4PFSGs9BtbLX-sw9HWmOEI59pb7XsnzygCo9gpw1jWdYGWkPBYOdVXvqNUnwuRmILuePklj5bzDgssJKI4KP8RMxcBCLIHYPQ3snNV_Stg57wDaDpqBI5VBED1ZQSo5rofgkGL1ebl4EX7twpgaWWk_asFldLsCoSTRnIr5B3QDzI-XdzO5-RAIkuJDs2yB1sZTuC4bhcufbLmoN6Lvm03KC9NujCHsaSIqNYYaW-HP-iXxgKMikjYRNrrSo4UOKx8tlmBt9Pa7EsfCUiyjBHhUYvrxxFJxPTiusRha7XznencZHGMp7vzOYy6fajS-OAO3IUNdWsRA-MhMLkrK-NqhQehrYH9XnAGSw_]--></g></svg>