<?xml version="1.0" encoding="us-ascii" standalone="no"?><svg xmlns="http://www.w3.org/2000/svg" xmlns:xlink="http://www.w3.org/1999/xlink" contentStyleType="text/css" height="1274px" preserveAspectRatio="none" style="width:1961px;height:1274px;background:#FFFFFF;" version="1.1" viewBox="0 0 1961 1274" width="1961px" zoomAndPan="magnify"><defs/><g><text fill="#000000" font-family="Verdana" font-size="22" font-weight="bold" lengthAdjust="spacing" textLength="834" x="559.25" y="37.1182">Servizio Multiplayer - Diagramma di Stato (Stato Sessione Partita)</text><ellipse cx="1635.5" cy="68.7373" fill="#FFFFFF" rx="10" ry="10" style="stroke:#000000;stroke-width:1.0;"/><g id="Creazione"><rect fill="#FFFFFF" height="80.7666" rx="12.5" ry="12.5" style="stroke:#000000;stroke-width:1.0;" width="244" x="1513.5" y="155.7373"/><line style="stroke:#000000;stroke-width:1.0;" x1="1513.5" x2="1757.5" y1="182.752" y2="182.752"/><text fill="#000000" font-family="Verdana" font-size="14" lengthAdjust="spacing" textLength="69" x="1601" y="174.8125">Creazione</text><text fill="#000000" font-family="Verdana" font-size="12" lengthAdjust="spacing" textLength="197" x="1518.5" y="199.8164">Impostazione parametri partita</text><text fill="#000000" font-family="Verdana" font-size="12" lengthAdjust="spacing" textLength="164" x="1518.5" y="214.4004">Selezione mappa e regole</text><text fill="#000000" font-family="Verdana" font-size="12" lengthAdjust="spacing" textLength="224" x="1518.5" y="228.9844">Configurazione impostazioni partita</text></g><g id="AttesaGiocatori"><rect fill="#FFFFFF" height="80.7666" rx="12.5" ry="12.5" style="stroke:#000000;stroke-width:1.0;" width="228" x="1333.5" y="313.7373"/><line style="stroke:#000000;stroke-width:1.0;" x1="1333.5" x2="1561.5" y1="340.752" y2="340.752"/><text fill="#000000" font-family="Verdana" font-size="14" lengthAdjust="spacing" textLength="108" x="1393.5" y="332.8125">AttesaGiocatori</text><text fill="#000000" font-family="Verdana" font-size="12" lengthAdjust="spacing" textLength="160" x="1338.5" y="357.8164">Partita visibile nella lobby</text><text fill="#000000" font-family="Verdana" font-size="12" lengthAdjust="spacing" textLength="180" x="1338.5" y="372.4004">Accettazione unioni giocatori</text><text fill="#000000" font-family="Verdana" font-size="12" lengthAdjust="spacing" textLength="208" x="1338.5" y="386.9844">Giocatori configurano carri armati</text></g><ellipse cx="1492.5" cy="1257.7373" fill="none" rx="11" ry="11" style="stroke:#000000;stroke-width:1.0;"/><ellipse cx="1492.5" cy="1257.7373" fill="#FFFFFF" rx="6" ry="6" style="stroke:#000000;stroke-width:1.0;"/><g id="FasePreparazione"><rect fill="#FFFFFF" height="80.7666" rx="12.5" ry="12.5" style="stroke:#000000;stroke-width:1.0;" width="198" x="1130.5" y="471.7373"/><line style="stroke:#000000;stroke-width:1.0;" x1="1130.5" x2="1328.5" y1="498.752" y2="498.752"/><text fill="#000000" font-family="Verdana" font-size="14" lengthAdjust="spacing" textLength="122" x="1168.5" y="490.8125">FasePreparazione</text><text fill="#000000" font-family="Verdana" font-size="12" lengthAdjust="spacing" textLength="178" x="1135.5" y="515.8164">Giocatori finalizzano loadout</text><text fill="#000000" font-family="Verdana" font-size="12" lengthAdjust="spacing" textLength="162" x="1135.5" y="530.4004">Controllo stato prontezza</text><text fill="#000000" font-family="Verdana" font-size="12" lengthAdjust="spacing" textLength="161" x="1135.5" y="544.9844">Attesa segnali tutti pronti</text></g><g id="Annullata"><rect fill="#FFFFFF" height="80.7666" rx="12.5" ry="12.5" style="stroke:#000000;stroke-width:1.0;" width="182" x="1390.5" y="629.7373"/><line style="stroke:#000000;stroke-width:1.0;" x1="1390.5" x2="1572.5" y1="656.752" y2="656.752"/><text fill="#000000" font-family="Verdana" font-size="14" lengthAdjust="spacing" textLength="65" x="1449" y="648.8125">Annullata</text><text fill="#000000" font-family="Verdana" font-size="12" lengthAdjust="spacing" textLength="162" x="1395.5" y="673.8164">Partita annullata dall'host</text><text fill="#000000" font-family="Verdana" font-size="12" lengthAdjust="spacing" textLength="87" x="1395.5" y="688.4004">Pulizia risorse</text><text fill="#000000" font-family="Verdana" font-size="12" lengthAdjust="spacing" textLength="153" x="1395.5" y="702.9844">Notifica a tutti i giocatori</text></g><g id="Avvio"><rect fill="#FFFFFF" height="80.7666" rx="12.5" ry="12.5" style="stroke:#000000;stroke-width:1.0;" width="213" x="1082" y="629.7373"/><line style="stroke:#000000;stroke-width:1.0;" x1="1082" x2="1295" y1="656.752" y2="656.752"/><text fill="#000000" font-family="Verdana" font-size="14" lengthAdjust="spacing" textLength="38" x="1169.5" y="648.8125">Avvio</text><text fill="#000000" font-family="Verdana" font-size="12" lengthAdjust="spacing" textLength="193" x="1087" y="673.8164">Inizializzazione sessione gioco</text><text fill="#000000" font-family="Verdana" font-size="12" lengthAdjust="spacing" textLength="154" x="1087" y="688.4004">Caricamento dati mappa</text><text fill="#000000" font-family="Verdana" font-size="12" lengthAdjust="spacing" textLength="101" x="1087" y="702.9844">Spawn giocatori</text></g><g id="InCorso"><rect fill="#FFFFFF" height="80.7666" rx="12.5" ry="12.5" style="stroke:#000000;stroke-width:1.0;" width="216" x="596.5" y="787.7373"/><line style="stroke:#000000;stroke-width:1.0;" x1="596.5" x2="812.5" y1="814.752" y2="814.752"/><text fill="#000000" font-family="Verdana" font-size="14" lengthAdjust="spacing" textLength="56" x="676.5" y="806.8125">InCorso</text><text fill="#000000" font-family="Verdana" font-size="12" lengthAdjust="spacing" textLength="134" x="601.5" y="831.8164">Sessione gioco attiva</text><text fill="#000000" font-family="Verdana" font-size="12" lengthAdjust="spacing" textLength="196" x="601.5" y="846.4004">Processamento azioni giocatori</text><text fill="#000000" font-family="Verdana" font-size="12" lengthAdjust="spacing" textLength="185" x="601.5" y="860.9844">Sincronizzazione tempo reale</text></g><g id="Fallita"><rect fill="#FFFFFF" height="66.1826" rx="12.5" ry="12.5" style="stroke:#000000;stroke-width:1.0;" width="191" x="918" y="1103.7373"/><line style="stroke:#000000;stroke-width:1.0;" x1="918" x2="1109" y1="1130.752" y2="1130.752"/><text fill="#000000" font-family="Verdana" font-size="14" lengthAdjust="spacing" textLength="39" x="994" y="1122.8125">Fallita</text><text fill="#000000" font-family="Verdana" font-size="12" lengthAdjust="spacing" textLength="171" x="923" y="1147.8164">Partita terminata con errori</text><text fill="#000000" font-family="Verdana" font-size="12" lengthAdjust="spacing" textLength="147" x="923" y="1162.4004">Tentativo recupero dati</text></g><g id="Pausa"><rect fill="#FFFFFF" height="80.7666" rx="12.5" ry="12.5" style="stroke:#000000;stroke-width:1.0;" width="234" x="746.5" y="945.7373"/><line style="stroke:#000000;stroke-width:1.0;" x1="746.5" x2="980.5" y1="972.752" y2="972.752"/><text fill="#000000" font-family="Verdana" font-size="14" lengthAdjust="spacing" textLength="41" x="843" y="964.8125">Pausa</text><text fill="#000000" font-family="Verdana" font-size="12" lengthAdjust="spacing" textLength="212" x="751.5" y="989.8164">Gioco temporaneamente sospeso</text><text fill="#000000" font-family="Verdana" font-size="12" lengthAdjust="spacing" textLength="186" x="751.5" y="1004.4004">Attesa giocatore disconnesso</text><text fill="#000000" font-family="Verdana" font-size="12" lengthAdjust="spacing" textLength="214" x="751.5" y="1018.9844">Finestra riconnessione 30 secondi</text></g><g id="Completata"><rect fill="#FFFFFF" height="80.7666" rx="12.5" ry="12.5" style="stroke:#000000;stroke-width:1.0;" width="243" x="12" y="945.7373"/><line style="stroke:#000000;stroke-width:1.0;" x1="12" x2="255" y1="972.752" y2="972.752"/><text fill="#000000" font-family="Verdana" font-size="14" lengthAdjust="spacing" textLength="80" x="93.5" y="964.8125">Completata</text><text fill="#000000" font-family="Verdana" font-size="12" lengthAdjust="spacing" textLength="164" x="17" y="989.8164">Partita finita con successo</text><text fill="#000000" font-family="Verdana" font-size="12" lengthAdjust="spacing" textLength="181" x="17" y="1004.4004">Processamento risultati finali</text><text fill="#000000" font-family="Verdana" font-size="12" lengthAdjust="spacing" textLength="223" x="17" y="1018.9844">Aggiornamento statistiche giocatori</text></g><g id="elem_GMN33"><path d="M1597,325.7373 L1597,350.2373 L1561.81,354.2373 L1597,358.2373 L1597,383.1353 A0,0 0 0 0 1597,383.1353 L1770,383.1353 A0,0 0 0 0 1770,383.1353 L1770,335.7373 L1760,325.7373 L1597,325.7373 A0,0 0 0 0 1597,325.7373 " fill="#FFFFFF" style="stroke:#000000;stroke-width:1.0;"/><path d="M1760,325.7373 L1760,335.7373 L1770,335.7373 L1760,325.7373 " fill="#FFFFFF" style="stroke:#000000;stroke-width:1.0;"/><text fill="#000000" font-family="Verdana" font-size="13" lengthAdjust="spacing" textLength="152" x="1603" y="343.8071">Visibilit&#224; lobby pubblica</text><text fill="#000000" font-family="Verdana" font-size="13" lengthAdjust="spacing" textLength="137" x="1603" y="359.6064">Inviti agli amici attivi</text><text fill="#000000" font-family="Verdana" font-size="13" lengthAdjust="spacing" textLength="148" x="1603" y="375.4058">Capacit&#224; 2-4 giocatori</text></g><g id="elem_GMN36"><path d="M847.5,799.7373 L847.5,824.2373 L812.95,828.2373 L847.5,832.2373 L847.5,857.1353 A0,0 0 0 0 847.5,857.1353 L1059.5,857.1353 A0,0 0 0 0 1059.5,857.1353 L1059.5,809.7373 L1049.5,799.7373 L847.5,799.7373 A0,0 0 0 0 847.5,799.7373 " fill="#FFFFFF" style="stroke:#000000;stroke-width:1.0;"/><path d="M1049.5,799.7373 L1049.5,809.7373 L1059.5,809.7373 L1049.5,799.7373 " fill="#FFFFFF" style="stroke:#000000;stroke-width:1.0;"/><text fill="#000000" font-family="Verdana" font-size="13" lengthAdjust="spacing" textLength="122" x="853.5" y="817.8071">Ciclo gioco 60 FPS</text><text fill="#000000" font-family="Verdana" font-size="13" lengthAdjust="spacing" textLength="191" x="853.5" y="833.6064">Sincronizzazione tempo reale</text><text fill="#000000" font-family="Verdana" font-size="13" lengthAdjust="spacing" textLength="159" x="853.5" y="849.4058">Monitoraggio anti-cheat</text></g><g id="elem_GMN39"><path d="M1016,957.7373 L1016,982.2373 L980.66,986.2373 L1016,990.2373 L1016,1015.1353 A0,0 0 0 0 1016,1015.1353 L1249,1015.1353 A0,0 0 0 0 1249,1015.1353 L1249,967.7373 L1239,957.7373 L1016,957.7373 A0,0 0 0 0 1016,957.7373 " fill="#FFFFFF" style="stroke:#000000;stroke-width:1.0;"/><path d="M1239,957.7373 L1239,967.7373 L1249,967.7373 L1239,957.7373 " fill="#FFFFFF" style="stroke:#000000;stroke-width:1.0;"/><text fill="#000000" font-family="Verdana" font-size="13" lengthAdjust="spacing" textLength="212" x="1022" y="975.8071">Periodo grazia per riconnessione</text><text fill="#000000" font-family="Verdana" font-size="13" lengthAdjust="spacing" textLength="153" x="1022" y="991.6064">Stato gioco preservato</text><text fill="#000000" font-family="Verdana" font-size="13" lengthAdjust="spacing" textLength="151" x="1022" y="1007.4058">Altri giocatori notificati</text></g><g id="elem_GMN42"><path d="M290.5,957.7373 L290.5,982.2373 L255.02,986.2373 L290.5,990.2373 L290.5,1015.1353 A0,0 0 0 0 290.5,1015.1353 L486.5,1015.1353 A0,0 0 0 0 486.5,1015.1353 L486.5,967.7373 L476.5,957.7373 L290.5,957.7373 A0,0 0 0 0 290.5,957.7373 " fill="#FFFFFF" style="stroke:#000000;stroke-width:1.0;"/><path d="M476.5,957.7373 L476.5,967.7373 L486.5,967.7373 L476.5,957.7373 " fill="#FFFFFF" style="stroke:#000000;stroke-width:1.0;"/><text fill="#000000" font-family="Verdana" font-size="13" lengthAdjust="spacing" textLength="175" x="296.5" y="975.8071">Processamento statistiche</text><text fill="#000000" font-family="Verdana" font-size="13" lengthAdjust="spacing" textLength="158" x="296.5" y="991.6064">Aggiornamenti classifica</text><text fill="#000000" font-family="Verdana" font-size="13" lengthAdjust="spacing" textLength="142" x="296.5" y="1007.4058">Controlli achievement</text></g><!--link *start* to Creazione--><g id="link_*start*_Creazione"><path d="M1635.5,78.7673 C1635.5,94.6673 1635.5,122.5773 1635.5,149.7273 " fill="none" id="*start*-to-Creazione" style="stroke:#000000;stroke-width:1.0;"/><polygon fill="#000000" points="1635.5,155.7273,1639.5,146.7273,1635.5,150.7273,1631.5,146.7273,1635.5,155.7273" style="stroke:#000000;stroke-width:1.0;"/><text fill="#000000" font-family="Verdana" font-size="13" lengthAdjust="spacing" textLength="113" x="1636.5" y="122.8071">Host crea partita</text></g><!--link Creazione to AttesaGiocatori--><g id="link_Creazione_AttesaGiocatori"><path d="M1587.57,237.0073 C1559.29,260.4773 1528.228,286.2567 1499.958,309.7067 " fill="none" id="Creazione-to-AttesaGiocatori" style="stroke:#000000;stroke-width:1.0;"/><polygon fill="#000000" points="1495.34,313.5373,1504.8208,310.87,1499.1883,310.3451,1499.7133,304.7126,1495.34,313.5373" style="stroke:#000000;stroke-width:1.0;"/><text fill="#000000" font-family="Verdana" font-size="13" lengthAdjust="spacing" textLength="187" x="1548.5" y="280.8071">Partita creata con successo</text></g><!--link Creazione to *end*--><g id="link_Creazione_*end*"><path d="M1733.63,236.7873 C1779.21,262.2473 1823.5,300.5373 1823.5,353.2373 C1823.5,353.2373 1823.5,353.2373 1823.5,1137.7373 C1823.5,1207.3573 1566.8938,1246.5378 1509.4538,1254.4578 " fill="none" id="Creazione-to-*end*" style="stroke:#000000;stroke-width:1.0;"/><polygon fill="#000000" points="1503.51,1255.2773,1512.972,1258.0105,1508.4631,1254.5944,1511.8793,1250.0855,1503.51,1255.2773" style="stroke:#000000;stroke-width:1.0;"/><text fill="#000000" font-family="Verdana" font-size="13" lengthAdjust="spacing" textLength="129" x="1824.5" y="754.8071">Creazione annullata</text></g><!--link AttesaGiocatori to FasePreparazione--><g id="link_AttesaGiocatori_FasePreparazione"><path d="M1333.26,384.3373 C1309.83,394.2673 1286.76,407.4173 1268.5,424.7373 C1255.23,437.3173 1248.2301,449.6231 1242.1801,465.9031 " fill="none" id="AttesaGiocatori-to-FasePreparazione" style="stroke:#000000;stroke-width:1.0;"/><polygon fill="#000000" points="1240.09,471.5273,1246.9746,464.4844,1241.8317,466.8405,1239.4756,461.6976,1240.09,471.5273" style="stroke:#000000;stroke-width:1.0;"/><text fill="#000000" font-family="Verdana" font-size="13" lengthAdjust="spacing" textLength="185" x="1269.5" y="438.8071">Giocatori minimi entrati (2+)</text></g><!--link FasePreparazione to AttesaGiocatori--><g id="link_FasePreparazione_AttesaGiocatori"><path d="M1130.47,504.2673 C1052.25,494.9973 962.68,473.6373 1004.5,424.7373 C1046.03,376.1873 1210.3943,361.5539 1327.3343,357.1339 " fill="none" id="FasePreparazione-to-AttesaGiocatori" style="stroke:#000000;stroke-width:1.0;"/><polygon fill="#000000" points="1333.33,356.9073,1324.1853,353.2501,1328.3336,357.0962,1324.4875,361.2444,1333.33,356.9073" style="stroke:#000000;stroke-width:1.0;"/><text fill="#000000" font-family="Verdana" font-size="13" lengthAdjust="spacing" textLength="241" x="1005.5" y="438.8071">Giocatore abbandona (&lt; 2 giocatori)</text></g><!--link AttesaGiocatori to Annullata--><g id="link_AttesaGiocatori_Annullata"><path d="M1454.91,394.8473 C1456.58,404.5973 1458.23,415.0273 1459.5,424.7373 C1468.92,496.5773 1475.1128,574.8418 1478.4928,623.3318 " fill="none" id="AttesaGiocatori-to-Annullata" style="stroke:#000000;stroke-width:1.0;"/><polygon fill="#000000" points="1478.91,629.3173,1482.2745,620.0609,1478.5623,624.3294,1474.2939,620.6172,1478.91,629.3173" style="stroke:#000000;stroke-width:1.0;"/><text fill="#000000" font-family="Verdana" font-size="13" lengthAdjust="spacing" textLength="130" x="1474.5" y="517.8071">Host annulla partita</text></g><!--link AttesaGiocatori to *end*--><g id="link_AttesaGiocatori_*end*"><path d="M1561.81,390.5773 C1614.91,414.7873 1666.5,453.2373 1666.5,511.2373 C1666.5,511.2373 1666.5,511.2373 1666.5,1137.7373 C1666.5,1217.3373 1546.791,1246.439 1509.011,1253.739 " fill="none" id="AttesaGiocatori-to-*end*" style="stroke:#000000;stroke-width:1.0;"/><polygon fill="#000000" points="1503.12,1254.8773,1512.7154,1257.0972,1508.0292,1253.9287,1511.1977,1249.2425,1503.12,1254.8773" style="stroke:#000000;stroke-width:1.0;"/><text fill="#000000" font-family="Verdana" font-size="13" lengthAdjust="spacing" textLength="102" x="1667.5" y="833.8071">Timeout partita</text></g><!--link FasePreparazione to Avvio--><g id="link_FasePreparazione_Avvio"><path d="M1199.09,552.9073 C1193.49,562.2273 1188.48,572.4473 1185.5,582.7373 C1181.19,597.5973 1180.3803,608.5242 1181.5003,623.4242 " fill="none" id="FasePreparazione-to-Avvio" style="stroke:#000000;stroke-width:1.0;"/><polygon fill="#000000" points="1181.95,629.4073,1185.2641,620.1328,1181.5752,624.4214,1177.2866,620.7324,1181.95,629.4073" style="stroke:#000000;stroke-width:1.0;"/><text fill="#000000" font-family="Verdana" font-size="13" lengthAdjust="spacing" textLength="145" x="1186.5" y="596.8071">Tutti i giocatori pronti</text></g><!--link FasePreparazione to Annullata--><g id="link_FasePreparazione_Annullata"><path d="M1293.42,552.8073 C1331.47,576.3673 1374.5091,602.9981 1412.5491,626.5581 " fill="none" id="FasePreparazione-to-Annullata" style="stroke:#000000;stroke-width:1.0;"/><polygon fill="#000000" points="1417.65,629.7173,1412.1048,621.5778,1413.3992,627.0846,1407.8925,628.3791,1417.65,629.7173" style="stroke:#000000;stroke-width:1.0;"/><text fill="#000000" font-family="Verdana" font-size="13" lengthAdjust="spacing" textLength="81" x="1364.5" y="596.8071">Host annulla</text></g><!--link Avvio to InCorso--><g id="link_Avvio_InCorso"><path d="M1081.98,705.5673 C1002.1,731.3173 898.8807,764.5866 818.5607,790.4766 " fill="none" id="Avvio-to-InCorso" style="stroke:#000000;stroke-width:1.0;"/><polygon fill="#000000" points="812.85,792.3173,822.6432,793.3633,817.6089,790.7833,820.1888,785.7491,812.85,792.3173" style="stroke:#000000;stroke-width:1.0;"/><text fill="#000000" font-family="Verdana" font-size="13" lengthAdjust="spacing" textLength="185" x="962.5" y="754.8071">Gioco avviato con successo</text></g><!--link Avvio to Fallita--><g id="link_Avvio_Fallita"><path d="M1215.05,710.7673 C1258.15,780.3673 1332.23,926.8473 1266.5,1026.7373 C1231.67,1079.6773 1170.9302,1105.5596 1114.8302,1119.6096 " fill="none" id="Avvio-to-Fallita" style="stroke:#000000;stroke-width:1.0;"/><polygon fill="#000000" points="1109.01,1121.0673,1118.7121,1122.761,1113.8602,1119.8526,1116.7686,1115.0007,1109.01,1121.0673" style="stroke:#000000;stroke-width:1.0;"/><text fill="#000000" font-family="Verdana" font-size="13" lengthAdjust="spacing" textLength="138" x="1293.5" y="912.8071">Errore inizializzazione</text></g><!--link InCorso to Pausa--><g id="link_InCorso_Pausa"><path d="M812.62,864.5373 C818.31,866.0373 823.96,867.4473 829.5,868.7373 C872.85,878.8073 998.48,864.9973 1027.5,898.7373 C1032.43,904.4673 1031.67,909.4373 1027.5,915.7373 C1015.97,933.1373 1004.427,943.398 985.867,953.188 " fill="none" id="InCorso-to-Pausa" style="stroke:#000000;stroke-width:1.0;"/><polygon fill="#000000" points="980.56,955.9873,990.3867,955.3263,984.9825,953.6545,986.6542,948.2504,980.56,955.9873" style="stroke:#000000;stroke-width:1.0;"/><text fill="#000000" font-family="Verdana" font-size="13" lengthAdjust="spacing" textLength="221" x="1032.5" y="912.8071">Disconnessione giocatore rilevata</text></g><!--link Pausa to InCorso--><g id="link_Pausa_InCorso"><path d="M746.24,956.2173 C682.64,939.9173 616.03,921.6873 611.5,915.7373 C598.74,898.9873 603.7678,886.4617 620.9578,872.6117 " fill="none" id="Pausa-to-InCorso" style="stroke:#000000;stroke-width:1.0;"/><polygon fill="#000000" points="625.63,868.8473,616.1121,871.3791,621.7365,871.9843,621.1313,877.6087,625.63,868.8473" style="stroke:#000000;stroke-width:1.0;"/><text fill="#000000" font-family="Verdana" font-size="13" lengthAdjust="spacing" textLength="138" x="612.5" y="912.8071">Giocatore riconnesso</text></g><!--link Pausa to InCorso--><g id="link_Pausa_InCorso"><path d="M819.24,945.6573 C808.71,935.9973 797.61,925.6073 787.5,915.7373 C772.16,900.7573 759.8647,888.1852 745.7047,873.2952 " fill="none" id="Pausa-to-InCorso-1" style="stroke:#000000;stroke-width:1.0;"/><polygon fill="#000000" points="741.57,868.9473,744.8735,878.2256,745.0156,872.5705,750.6707,872.7126,741.57,868.9473" style="stroke:#000000;stroke-width:1.0;"/><text fill="#000000" font-family="Verdana" font-size="13" lengthAdjust="spacing" textLength="230" x="788.5" y="912.8071">Timeout, continua senza giocatore</text></g><!--link InCorso to Completata--><g id="link_InCorso_Completata"><path d="M596.23,834.0073 C505.78,840.8873 374.76,857.6873 267.5,898.7373 C237.89,910.0673 212.8598,925.1044 188.8198,942.0944 " fill="none" id="InCorso-to-Completata" style="stroke:#000000;stroke-width:1.0;"/><polygon fill="#000000" points="183.92,945.5573,193.5783,943.6295,188.0032,942.6716,188.9611,937.0964,183.92,945.5573" style="stroke:#000000;stroke-width:1.0;"/><text fill="#000000" font-family="Verdana" font-size="13" lengthAdjust="spacing" textLength="261" x="268.5" y="912.8071">Condizioni vittoria/sconfitta soddisfatte</text></g><!--link InCorso to Fallita--><g id="link_InCorso_Fallita"><path d="M624.01,868.8573 C613.78,877.2973 604.72,887.2173 598.5,898.7373 C582.76,927.8773 502.91,902.1973 601.5,1026.7373 C640.48,1075.9773 802.9727,1106.9724 912.0527,1122.8624 " fill="none" id="InCorso-to-Fallita" style="stroke:#000000;stroke-width:1.0;"/><polygon fill="#000000" points="917.99,1123.7273,909.6606,1118.4717,913.0422,1123.0065,908.5074,1126.3882,917.99,1123.7273" style="stroke:#000000;stroke-width:1.0;"/><text fill="#000000" font-family="Verdana" font-size="13" lengthAdjust="spacing" textLength="125" x="602.5" y="991.8071">Errore critico gioco</text></g><!--link Pausa to Fallita--><g id="link_Pausa_Fallita"><path d="M903.7,1027.0373 C927.82,1050.9173 953.8558,1076.6864 976.5158,1099.1164 " fill="none" id="Pausa-to-Fallita" style="stroke:#000000;stroke-width:1.0;"/><polygon fill="#000000" points="980.78,1103.3373,977.1976,1094.1631,977.2265,1099.8199,971.5697,1099.8487,980.78,1103.3373" style="stroke:#000000;stroke-width:1.0;"/><text fill="#000000" font-family="Verdana" font-size="13" lengthAdjust="spacing" textLength="145" x="948.5" y="1070.8071">Troppe disconnessioni</text></g><!--link Completata to *end*--><g id="link_Completata_*end*"><path d="M255.15,1021.8973 C261.01,1023.5373 266.82,1025.1573 272.5,1026.7373 C505.91,1091.6273 560.86,1122.6173 798.5,1169.7373 C961.53,1202.0573 1004.58,1196.0773 1169.5,1216.7373 C1292.01,1232.0873 1434.7346,1249.6469 1475.6646,1254.6669 " fill="none" id="Completata-to-*end*" style="stroke:#000000;stroke-width:1.0;"/><polygon fill="#000000" points="1481.62,1255.3973,1473.1739,1250.3314,1476.6572,1254.7886,1472.2,1258.2719,1481.62,1255.3973" style="stroke:#000000;stroke-width:1.0;"/><text fill="#000000" font-family="Verdana" font-size="13" lengthAdjust="spacing" textLength="100" x="799.5" y="1142.3071">Risultati salvati</text></g><!--link Fallita to *end*--><g id="link_Fallita_*end*"><path d="M1090.91,1169.8073 C1132.31,1185.8973 1184.52,1204.5173 1232.5,1216.7373 C1327.21,1240.8673 1439.2833,1252.0788 1475.4733,1255.2788 " fill="none" id="Fallita-to-*end*" style="stroke:#000000;stroke-width:1.0;"/><polygon fill="#000000" points="1481.45,1255.8073,1472.8373,1251.0301,1476.4694,1255.3669,1472.1327,1258.9991,1481.45,1255.8073" style="stroke:#000000;stroke-width:1.0;"/><text fill="#000000" font-family="Verdana" font-size="13" lengthAdjust="spacing" textLength="232" x="1233.5" y="1213.8071">Recupero completato/abbandonato</text></g><!--link Annullata to *end*--><g id="link_Annullata_*end*"><path d="M1485.85,710.9373 C1488.92,742.4273 1492.5,787.5973 1492.5,827.2373 C1492.5,827.2373 1492.5,827.2373 1492.5,1137.7373 C1492.5,1178.0273 1492.5,1219.9773 1492.5,1240.5473 " fill="none" id="Annullata-to-*end*" style="stroke:#000000;stroke-width:1.0;"/><polygon fill="#000000" points="1492.5,1246.5473,1496.5,1237.5473,1492.5,1241.5473,1488.5,1237.5473,1492.5,1246.5473" style="stroke:#000000;stroke-width:1.0;"/><text fill="#000000" font-family="Verdana" font-size="13" lengthAdjust="spacing" textLength="119" x="1493.5" y="991.8071">Pulizia completata</text></g><!--SRC=[VLRBZkis3DtxAzXLPze6zs9QT34e2WIvdNOMjmYQGJT55uoj90HaoP1a5pTVqt_fZvMqB4lEOrPnh4FoyF0XVnLEgbNGQIHJLO62Lh1JRg0pMVZSwq1yz4KvMC4dmgF3jaLe27O1WuM7-BDJtfCr2hRes0K-LjLVt_mDgzNFi74Ap-FPC_ncVO2QNq0NSLLL7h-s7GEclup0LWL7CxQ4xfHMyRd5haDGuDJHQhK0RQmvqB5tqmlAxcyv5RBh49J7NydMd1M7Vau9ZQpbnnhmVLrpllR2LX9-Bj95OtgjKPAyxtOWJtjYoOrYB6Yxtt-v0Lzpn92KwSsOmJ6Tty3dvpffO2pKwFWDkXR3jP6ay89URPqIwPE66T2IePP0cU3O7XwUldsywMITyau5duIO9Rzb5CLxerRPFkJkU9VGWGngEfybDMsnOSjR1jm5mLcjBVYnLpl7BnIRtG97Rk3LKNn3w0EdEbhGDVnsnwHdxe3z7arZ3SB3J_2K2_PunzKmyCYn2cFGei3l4xWZDtVTvE_Ly2n7fQAPJzCg4UoCsw2ZccVEi4YDb7WShVbur-4_fkowyRrGU3KRwxoTShU0V29ABuObmrzGQnhv_kASw4GN1AigUzmjk0AoD0CMvrjdnVz4UnhkJB9mHAPc6RCAGV4-uBM1l3KIJEXjiVT2xXDvJi2KyMDP7S_h87DTMcrissaLOXsuvHgAL0OAGWG_-74IUOZ1swOXV-1Kbe6lTAaT1UAaOvcgH2oAFDBdiLPZwbnKwpl5EYVKrCcPTZFdaq4lnFzvdZcdCjVlFtAFr9B4XBokSfBYmkKIECtpTz89WKmlWsNE1Qd2AcV_vcpNbNn5IBufIeNJ_kGTG5ThUG5Sz8SZppUQz7PS7ali-iZ4d9cmiYt8Sm5EgcYemY3lhJzcjnxr8Dkrokaaga4vNg7f4b5IOYfWRnoKBGTfoRhlb8j3E2EAQEcyJbpiXtdL16wKSYMawFDjn5wr_lh4csA9wxKCeIZ4nLEBizzje0El1i1f8IukdncO6IPdCq7UHiO6wPVZAO0zNAxD2k3FU1DI-E_VU0r2r-_tciFouQlXEUAhwyWx6LkgAIu2iTjWX_LezRJweU2bJ0CIypBor9rYIRMUXWj-_0Wlsns_V7TD07pc8tQFqYciQQ0LjmU6kz76_cQxhN9a6uucgvklGlwUMeoSH1vlfqYdSyhpDvXK4s2jvIietmPcAaUudsJkKecz686YhSLtqVByiQ2HwHoYvkdUPAth4wb12IP7_1y0]--></g></svg>