<?xml version="1.0" encoding="us-ascii" standalone="no"?><svg xmlns="http://www.w3.org/2000/svg" xmlns:xlink="http://www.w3.org/1999/xlink" contentStyleType="text/css" height="2188px" preserveAspectRatio="none" style="width:1143px;height:2188px;background:#FFFFFF;" version="1.1" viewBox="0 0 1143 2188" width="1143px" zoomAndPan="magnify"><defs/><g><text fill="#000000" font-family="Verdana" font-size="22" font-weight="bold" lengthAdjust="spacing" textLength="1110" x="15" y="37.1182">Servizio Records e Statistiche - Diagramma delle Attivit&#224; (Elaborazione Risultati Partita)</text><ellipse cx="571.5" cy="62.7373" fill="#FFFFFF" rx="10" ry="10" style="stroke:#000000;stroke-width:1.0;"/><rect fill="#FFFFFF" height="34.584" rx="12.5" ry="12.5" style="stroke:#000000;stroke-width:1.0;" width="181" x="481" y="92.7373"/><text fill="#000000" font-family="Verdana" font-size="12" lengthAdjust="spacing" textLength="161" x="491" y="114.8018">Sessione di gioco termina</text><rect fill="#000000" height="6" rx="2.5" ry="2.5" style="stroke:#000000;stroke-width:1.0;" width="806" x="168.5" y="147.3213"/><rect fill="#FFFFFF" height="34.584" rx="12.5" ry="12.5" style="stroke:#000000;stroke-width:1.0;" width="158" x="253.5" y="173.3213"/><text fill="#000000" font-family="Verdana" font-size="12" lengthAdjust="spacing" textLength="138" x="263.5" y="195.3857">Calcola punteggi finali</text><rect fill="#FFFFFF" height="34.584" rx="12.5" ry="12.5" style="stroke:#000000;stroke-width:1.0;" width="304" x="180.5" y="242.9053"/><text fill="#000000" font-family="Verdana" font-size="12" lengthAdjust="spacing" textLength="284" x="190.5" y="264.9697">Determina risultato partita (vittoria/sconfitta)</text><rect fill="#FFFFFF" height="34.584" rx="12.5" ry="12.5" style="stroke:#000000;stroke-width:1.0;" width="258" x="203.5" y="312.4893"/><text fill="#000000" font-family="Verdana" font-size="12" lengthAdjust="spacing" textLength="238" x="213.5" y="334.5537">Calcola statistiche individuali giocatori</text><rect fill="#FFFFFF" height="34.584" rx="12.5" ry="12.5" style="stroke:#000000;stroke-width:1.0;" width="198" x="512.5" y="242.9053"/><text fill="#000000" font-family="Verdana" font-size="12" lengthAdjust="spacing" textLength="178" x="522.5" y="264.9697">Valida dati sessione di gioco</text><rect fill="#FFFFFF" height="34.584" rx="12.5" ry="12.5" style="stroke:#000000;stroke-width:1.0;" width="224" x="738.5" y="208.1133"/><text fill="#000000" font-family="Verdana" font-size="12" lengthAdjust="spacing" textLength="204" x="748.5" y="230.1777">Prepara aggiornamenti classifica</text><rect fill="#FFFFFF" height="34.584" rx="12.5" ry="12.5" style="stroke:#000000;stroke-width:1.0;" width="212" x="744.5" y="277.6973"/><text fill="#000000" font-family="Verdana" font-size="12" lengthAdjust="spacing" textLength="192" x="754.5" y="299.7617">Identifica cambiamenti ranking</text><rect fill="#000000" height="6" rx="2.5" ry="2.5" style="stroke:#000000;stroke-width:1.0;" width="806" x="168.5" y="367.0732"/><rect fill="#FFFFFF" height="34.584" rx="12.5" ry="12.5" style="stroke:#000000;stroke-width:1.0;" width="172" x="485.5" y="393.0732"/><text fill="#000000" font-family="Verdana" font-size="12" lengthAdjust="spacing" textLength="152" x="495.5" y="415.1377">Crea voce RecordPartita</text><rect fill="#FFFFFF" height="829.8071" style="stroke:#000000;stroke-width:1.0;" width="303" x="426" y="437.6572"/><path d="M650,437.6572 L650,447.6719 L640,457.6719 L426,457.6719 " fill="none" style="stroke:#000000;stroke-width:1.0;"/><text fill="#000000" font-family="Verdana" font-size="14" lengthAdjust="spacing" textLength="214" x="429" y="452.7324">Per ogni giocatore nella partita</text><rect fill="#FFFFFF" height="34.584" rx="12.5" ry="12.5" style="stroke:#000000;stroke-width:1.0;" width="230" x="456.5" y="474.6719"/><text fill="#000000" font-family="Verdana" font-size="12" lengthAdjust="spacing" textLength="210" x="466.5" y="496.7363">Estrai dati performance giocatore</text><rect fill="#FFFFFF" height="34.584" rx="12.5" ry="12.5" style="stroke:#000000;stroke-width:1.0;" width="177" x="483" y="529.2559"/><text fill="#000000" font-family="Verdana" font-size="12" lengthAdjust="spacing" textLength="157" x="493" y="551.3203">Calcola punti guadagnati</text><rect fill="#FFFFFF" height="34.584" rx="12.5" ry="12.5" style="stroke:#000000;stroke-width:1.0;" width="223" x="460" y="583.8398"/><text fill="#000000" font-family="Verdana" font-size="12" lengthAdjust="spacing" textLength="203" x="470" y="605.9043">Aggiorna rapporti uccisioni/morti</text><rect fill="#FFFFFF" height="34.584" rx="12.5" ry="12.5" style="stroke:#000000;stroke-width:1.0;" width="220" x="461.5" y="638.4238"/><text fill="#000000" font-family="Verdana" font-size="12" lengthAdjust="spacing" textLength="200" x="471.5" y="660.4883">Calcola esperienza guadagnata</text><rect fill="#FFFFFF" height="34.584" rx="12.5" ry="12.5" style="stroke:#000000;stroke-width:1.0;" width="251" x="446" y="741.6921"/><text fill="#000000" font-family="Verdana" font-size="12" lengthAdjust="spacing" textLength="231" x="456" y="763.7566">Segna come nuovo record personale</text><rect fill="#FFFFFF" height="34.584" rx="12.5" ry="12.5" style="stroke:#000000;stroke-width:1.0;" width="203" x="470" y="811.2761"/><text fill="#000000" font-family="Verdana" font-size="12" lengthAdjust="spacing" textLength="183" x="480" y="833.3406">Prepara notifica achievement</text><polygon fill="#FFFFFF" points="496.5,693.0078,646.5,693.0078,658.5,705.0078,646.5,717.0078,496.5,717.0078,484.5,705.0078,496.5,693.0078" style="stroke:#000000;stroke-width:1.0;"/><text fill="#000000" font-family="Verdana" font-size="11" lengthAdjust="spacing" textLength="9" x="575.5" y="728.0669">s&#236;</text><text fill="#000000" font-family="Verdana" font-size="11" lengthAdjust="spacing" textLength="150" x="496.5" y="709.3826">Record personale battuto?</text><polygon fill="#FFFFFF" points="571.5,865.8601,583.5,877.8601,571.5,889.8601,559.5,877.8601,571.5,865.8601" style="stroke:#000000;stroke-width:1.0;"/><rect fill="#FFFFFF" height="34.584" rx="12.5" ry="12.5" style="stroke:#000000;stroke-width:1.0;" width="236" x="453.5" y="909.8601"/><text fill="#000000" font-family="Verdana" font-size="12" lengthAdjust="spacing" textLength="216" x="463.5" y="931.9246">Aggiorna tabella StatisticheUtente</text><rect fill="#FFFFFF" height="34.584" rx="12.5" ry="12.5" style="stroke:#000000;stroke-width:1.0;" width="261" x="441" y="964.4441"/><text fill="#000000" font-family="Verdana" font-size="12" lengthAdjust="spacing" textLength="241" x="451" y="986.5085">Aggiungi crediti basati su performance</text><rect fill="#FFFFFF" height="34.584" rx="12.5" ry="12.5" style="stroke:#000000;stroke-width:1.0;" width="147" x="498" y="1067.7124"/><text fill="#000000" font-family="Verdana" font-size="12" lengthAdjust="spacing" textLength="127" x="508" y="1089.7769">Calcola nuovo livello</text><rect fill="#FFFFFF" height="34.584" rx="12.5" ry="12.5" style="stroke:#000000;stroke-width:1.0;" width="194" x="474.5" y="1122.2964"/><text fill="#000000" font-family="Verdana" font-size="12" lengthAdjust="spacing" textLength="174" x="484.5" y="1144.3608">Assegna bonus salita livello</text><rect fill="#FFFFFF" height="34.584" rx="12.5" ry="12.5" style="stroke:#000000;stroke-width:1.0;" width="196" x="473.5" y="1176.8804"/><text fill="#000000" font-family="Verdana" font-size="12" lengthAdjust="spacing" textLength="176" x="483.5" y="1198.9448">Prepara notifica salita livello</text><polygon fill="#FFFFFF" points="498,1019.0281,645,1019.0281,657,1031.0281,645,1043.0281,498,1043.0281,486,1031.0281,498,1019.0281" style="stroke:#000000;stroke-width:1.0;"/><text fill="#000000" font-family="Verdana" font-size="11" lengthAdjust="spacing" textLength="9" x="575.5" y="1054.0872">s&#236;</text><text fill="#000000" font-family="Verdana" font-size="11" lengthAdjust="spacing" textLength="147" x="498" y="1035.4028">Salita di livello raggiunta?</text><polygon fill="#FFFFFF" points="571.5,1231.4644,583.5,1243.4644,571.5,1255.4644,559.5,1243.4644,571.5,1231.4644" style="stroke:#000000;stroke-width:1.0;"/><rect fill="#FFFFFF" height="34.584" rx="12.5" ry="12.5" style="stroke:#000000;stroke-width:1.0;" width="229" x="457" y="1287.4644"/><text fill="#000000" font-family="Verdana" font-size="12" lengthAdjust="spacing" textLength="209" x="467" y="1309.5288">Salva tutti i records nel database</text><rect fill="#FFFFFF" height="34.584" rx="12.5" ry="12.5" style="stroke:#000000;stroke-width:1.0;" width="115" x="514" y="1390.7327"/><text fill="#000000" font-family="Verdana" font-size="12" lengthAdjust="spacing" textLength="95" x="524" y="1412.7971">Registra errore</text><rect fill="#FFFFFF" height="34.584" rx="12.5" ry="12.5" style="stroke:#000000;stroke-width:1.0;" width="90" x="526.5" y="1445.3167"/><text fill="#000000" font-family="Verdana" font-size="12" lengthAdjust="spacing" textLength="70" x="536.5" y="1467.3811">Tenta retry</text><rect fill="#FFFFFF" height="34.584" rx="12.5" ry="12.5" style="stroke:#000000;stroke-width:1.0;" width="201" x="471" y="1548.585"/><text fill="#000000" font-family="Verdana" font-size="12" lengthAdjust="spacing" textLength="181" x="481" y="1570.6494">Marca per revisione manuale</text><rect fill="#FFFFFF" height="34.584" rx="12.5" ry="12.5" style="stroke:#000000;stroke-width:1.0;" width="160" x="491.5" y="1603.1689"/><text fill="#000000" font-family="Verdana" font-size="12" lengthAdjust="spacing" textLength="140" x="501.5" y="1625.2334">Notifica amministratori</text><ellipse cx="571.5" cy="1668.7529" fill="none" rx="11" ry="11" style="stroke:#000000;stroke-width:1.0;"/><ellipse cx="571.5" cy="1668.7529" fill="#FFFFFF" rx="6" ry="6" style="stroke:#000000;stroke-width:1.0;"/><polygon fill="#FFFFFF" points="530.5,1499.9006,612.5,1499.9006,624.5,1511.9006,612.5,1523.9006,530.5,1523.9006,518.5,1511.9006,530.5,1499.9006" style="stroke:#000000;stroke-width:1.0;"/><text fill="#000000" font-family="Verdana" font-size="11" lengthAdjust="spacing" textLength="14" x="575.5" y="1534.9597">no</text><text fill="#000000" font-family="Verdana" font-size="11" lengthAdjust="spacing" textLength="82" x="530.5" y="1516.2754">Retry riuscito?</text><polygon fill="#FFFFFF" points="484.5,1342.0483,658.5,1342.0483,670.5,1354.0483,658.5,1366.0483,484.5,1366.0483,472.5,1354.0483,484.5,1342.0483" style="stroke:#000000;stroke-width:1.0;"/><text fill="#000000" font-family="Verdana" font-size="11" lengthAdjust="spacing" textLength="14" x="575.5" y="1377.1074">no</text><text fill="#000000" font-family="Verdana" font-size="11" lengthAdjust="spacing" textLength="174" x="484.5" y="1358.4231">Salvataggio database riuscito?</text><polygon fill="#FFFFFF" points="571.5,1721.7529,583.5,1733.7529,571.5,1745.7529,559.5,1733.7529,571.5,1721.7529" style="stroke:#000000;stroke-width:1.0;"/><rect fill="#FFFFFF" height="34.584" rx="12.5" ry="12.5" style="stroke:#000000;stroke-width:1.0;" width="188" x="477.5" y="1765.7529"/><text fill="#000000" font-family="Verdana" font-size="12" lengthAdjust="spacing" textLength="168" x="487.5" y="1787.8174">Aggiorna classifiche globali</text><rect fill="#000000" height="6" rx="2.5" ry="2.5" style="stroke:#000000;stroke-width:1.0;" width="711" x="216" y="1820.3369"/><rect fill="#FFFFFF" height="34.584" rx="12.5" ry="12.5" style="stroke:#000000;stroke-width:1.0;" width="233" x="230" y="1846.3369"/><text fill="#000000" font-family="Verdana" font-size="12" lengthAdjust="spacing" textLength="213" x="240" y="1868.4014">Aggiorna ranking migliori giocatori</text><rect fill="#FFFFFF" height="34.584" rx="12.5" ry="12.5" style="stroke:#000000;stroke-width:1.0;" width="175" x="259" y="1915.9209"/><text fill="#000000" font-family="Verdana" font-size="12" lengthAdjust="spacing" textLength="155" x="269" y="1937.9854">Aggiorna cache classifica</text><rect fill="#FFFFFF" height="34.584" rx="12.5" ry="12.5" style="stroke:#000000;stroke-width:1.0;" width="202" x="491" y="1881.1289"/><text fill="#000000" font-family="Verdana" font-size="12" lengthAdjust="spacing" textLength="182" x="501" y="1903.1934">Genera insights performance</text><rect fill="#FFFFFF" height="34.584" rx="12.5" ry="12.5" style="stroke:#000000;stroke-width:1.0;" width="192" x="721" y="1846.3369"/><text fill="#000000" font-family="Verdana" font-size="12" lengthAdjust="spacing" textLength="172" x="731" y="1868.4014">Invia notifiche achievement</text><rect fill="#FFFFFF" height="34.584" rx="12.5" ry="12.5" style="stroke:#000000;stroke-width:1.0;" width="172" x="731" y="1915.9209"/><text fill="#000000" font-family="Verdana" font-size="12" lengthAdjust="spacing" textLength="152" x="741" y="1937.9854">Aggiorna profili giocatori</text><rect fill="#000000" height="6" rx="2.5" ry="2.5" style="stroke:#000000;stroke-width:1.0;" width="711" x="216" y="1970.5049"/><rect fill="#FFFFFF" height="34.584" rx="12.5" ry="12.5" style="stroke:#000000;stroke-width:1.0;" width="333" x="405" y="1996.5049"/><text fill="#000000" font-family="Verdana" font-size="12" lengthAdjust="spacing" textLength="313" x="415" y="2018.5693">Trasmetti aggiornamenti ranking ai giocatori attivi</text><rect fill="#FFFFFF" height="34.584" rx="12.5" ry="12.5" style="stroke:#000000;stroke-width:1.0;" width="213" x="465" y="2051.0889"/><text fill="#000000" font-family="Verdana" font-size="12" lengthAdjust="spacing" textLength="193" x="475" y="2073.1533">Genera report riepilogo partita</text><rect fill="#FFFFFF" height="34.584" rx="12.5" ry="12.5" style="stroke:#000000;stroke-width:1.0;" width="220" x="461.5" y="2105.6729"/><text fill="#000000" font-family="Verdana" font-size="12" lengthAdjust="spacing" textLength="200" x="471.5" y="2127.7373">Elaborazione record completata</text><ellipse cx="571.5" cy="2171.2568" fill="none" rx="11" ry="11" style="stroke:#000000;stroke-width:1.0;"/><ellipse cx="571.5" cy="2171.2568" fill="#FFFFFF" rx="6" ry="6" style="stroke:#000000;stroke-width:1.0;"/><line style="stroke:#000000;stroke-width:1.0;" x1="571.5" x2="571.5" y1="72.7373" y2="92.7373"/><polygon fill="#000000" points="567.5,82.7373,571.5,92.7373,575.5,82.7373,571.5,86.7373" style="stroke:#000000;stroke-width:1.0;"/><line style="stroke:#000000;stroke-width:1.0;" x1="332.5" x2="332.5" y1="207.9053" y2="242.9053"/><polygon fill="#000000" points="328.5,232.9053,332.5,242.9053,336.5,232.9053,332.5,236.9053" style="stroke:#000000;stroke-width:1.0;"/><line style="stroke:#000000;stroke-width:1.0;" x1="332.5" x2="332.5" y1="277.4893" y2="312.4893"/><polygon fill="#000000" points="328.5,302.4893,332.5,312.4893,336.5,302.4893,332.5,306.4893" style="stroke:#000000;stroke-width:1.0;"/><line style="stroke:#000000;stroke-width:1.0;" x1="850.5" x2="850.5" y1="242.6973" y2="277.6973"/><polygon fill="#000000" points="846.5,267.6973,850.5,277.6973,854.5,267.6973,850.5,271.6973" style="stroke:#000000;stroke-width:1.0;"/><line style="stroke:#000000;stroke-width:1.0;" x1="332.5" x2="332.5" y1="153.3213" y2="173.3213"/><polygon fill="#000000" points="328.5,163.3213,332.5,173.3213,336.5,163.3213,332.5,167.3213" style="stroke:#000000;stroke-width:1.0;"/><line style="stroke:#000000;stroke-width:1.0;" x1="611.5" x2="611.5" y1="153.3213" y2="242.9053"/><polygon fill="#000000" points="607.5,232.9053,611.5,242.9053,615.5,232.9053,611.5,236.9053" style="stroke:#000000;stroke-width:1.0;"/><line style="stroke:#000000;stroke-width:1.0;" x1="850.5" x2="850.5" y1="153.3213" y2="208.1133"/><polygon fill="#000000" points="846.5,198.1133,850.5,208.1133,854.5,198.1133,850.5,202.1133" style="stroke:#000000;stroke-width:1.0;"/><line style="stroke:#000000;stroke-width:1.0;" x1="332.5" x2="332.5" y1="347.0732" y2="367.0732"/><polygon fill="#000000" points="328.5,357.0732,332.5,367.0732,336.5,357.0732,332.5,361.0732" style="stroke:#000000;stroke-width:1.0;"/><line style="stroke:#000000;stroke-width:1.0;" x1="611.5" x2="611.5" y1="277.4893" y2="367.0732"/><polygon fill="#000000" points="607.5,357.0732,611.5,367.0732,615.5,357.0732,611.5,361.0732" style="stroke:#000000;stroke-width:1.0;"/><line style="stroke:#000000;stroke-width:1.0;" x1="850.5" x2="850.5" y1="312.2813" y2="367.0732"/><polygon fill="#000000" points="846.5,357.0732,850.5,367.0732,854.5,357.0732,850.5,361.0732" style="stroke:#000000;stroke-width:1.0;"/><line style="stroke:#000000;stroke-width:1.0;" x1="571.5" x2="571.5" y1="127.3213" y2="147.3213"/><polygon fill="#000000" points="567.5,137.3213,571.5,147.3213,575.5,137.3213,571.5,141.3213" style="stroke:#000000;stroke-width:1.0;"/><line style="stroke:#000000;stroke-width:1.0;" x1="571.5" x2="571.5" y1="373.0732" y2="393.0732"/><polygon fill="#000000" points="567.5,383.0732,571.5,393.0732,575.5,383.0732,571.5,387.0732" style="stroke:#000000;stroke-width:1.0;"/><line style="stroke:#000000;stroke-width:1.0;" x1="571.5" x2="571.5" y1="509.2559" y2="529.2559"/><polygon fill="#000000" points="567.5,519.2559,571.5,529.2559,575.5,519.2559,571.5,523.2559" style="stroke:#000000;stroke-width:1.0;"/><line style="stroke:#000000;stroke-width:1.0;" x1="571.5" x2="571.5" y1="563.8398" y2="583.8398"/><polygon fill="#000000" points="567.5,573.8398,571.5,583.8398,575.5,573.8398,571.5,577.8398" style="stroke:#000000;stroke-width:1.0;"/><line style="stroke:#000000;stroke-width:1.0;" x1="571.5" x2="571.5" y1="618.4238" y2="638.4238"/><polygon fill="#000000" points="567.5,628.4238,571.5,638.4238,575.5,628.4238,571.5,632.4238" style="stroke:#000000;stroke-width:1.0;"/><line style="stroke:#000000;stroke-width:1.0;" x1="571.5" x2="571.5" y1="776.2761" y2="811.2761"/><polygon fill="#000000" points="567.5,801.2761,571.5,811.2761,575.5,801.2761,571.5,805.2761" style="stroke:#000000;stroke-width:1.0;"/><line style="stroke:#000000;stroke-width:1.0;" x1="571.5" x2="571.5" y1="717.0078" y2="741.6921"/><polygon fill="#000000" points="567.5,731.6921,571.5,741.6921,575.5,731.6921,571.5,735.6921" style="stroke:#000000;stroke-width:1.0;"/><line style="stroke:#000000;stroke-width:1.0;" x1="658.5" x2="707" y1="705.0078" y2="705.0078"/><polygon fill="#000000" points="703,783.7761,707,793.7761,711,783.7761,707,787.7761" style="stroke:#000000;stroke-width:1.0;"/><line style="stroke:#000000;stroke-width:1.0;" x1="707" x2="707" y1="705.0078" y2="877.8601"/><line style="stroke:#000000;stroke-width:1.0;" x1="707" x2="583.5" y1="877.8601" y2="877.8601"/><polygon fill="#000000" points="593.5,873.8601,583.5,877.8601,593.5,881.8601,589.5,877.8601" style="stroke:#000000;stroke-width:1.0;"/><line style="stroke:#000000;stroke-width:1.0;" x1="571.5" x2="571.5" y1="845.8601" y2="865.8601"/><polygon fill="#000000" points="567.5,855.8601,571.5,865.8601,575.5,855.8601,571.5,859.8601" style="stroke:#000000;stroke-width:1.0;"/><line style="stroke:#000000;stroke-width:1.0;" x1="571.5" x2="571.5" y1="673.0078" y2="693.0078"/><polygon fill="#000000" points="567.5,683.0078,571.5,693.0078,575.5,683.0078,571.5,687.0078" style="stroke:#000000;stroke-width:1.0;"/><line style="stroke:#000000;stroke-width:1.0;" x1="571.5" x2="571.5" y1="889.8601" y2="909.8601"/><polygon fill="#000000" points="567.5,899.8601,571.5,909.8601,575.5,899.8601,571.5,903.8601" style="stroke:#000000;stroke-width:1.0;"/><line style="stroke:#000000;stroke-width:1.0;" x1="571.5" x2="571.5" y1="944.4441" y2="964.4441"/><polygon fill="#000000" points="567.5,954.4441,571.5,964.4441,575.5,954.4441,571.5,958.4441" style="stroke:#000000;stroke-width:1.0;"/><line style="stroke:#000000;stroke-width:1.0;" x1="571.5" x2="571.5" y1="1102.2964" y2="1122.2964"/><polygon fill="#000000" points="567.5,1112.2964,571.5,1122.2964,575.5,1112.2964,571.5,1116.2964" style="stroke:#000000;stroke-width:1.0;"/><line style="stroke:#000000;stroke-width:1.0;" x1="571.5" x2="571.5" y1="1156.8804" y2="1176.8804"/><polygon fill="#000000" points="567.5,1166.8804,571.5,1176.8804,575.5,1166.8804,571.5,1170.8804" style="stroke:#000000;stroke-width:1.0;"/><line style="stroke:#000000;stroke-width:1.0;" x1="571.5" x2="571.5" y1="1043.0281" y2="1067.7124"/><polygon fill="#000000" points="567.5,1057.7124,571.5,1067.7124,575.5,1057.7124,571.5,1061.7124" style="stroke:#000000;stroke-width:1.0;"/><line style="stroke:#000000;stroke-width:1.0;" x1="657" x2="679.5" y1="1031.0281" y2="1031.0281"/><polygon fill="#000000" points="675.5,1129.5884,679.5,1139.5884,683.5,1129.5884,679.5,1133.5884" style="stroke:#000000;stroke-width:1.0;"/><line style="stroke:#000000;stroke-width:1.0;" x1="679.5" x2="679.5" y1="1031.0281" y2="1243.4644"/><line style="stroke:#000000;stroke-width:1.0;" x1="679.5" x2="583.5" y1="1243.4644" y2="1243.4644"/><polygon fill="#000000" points="593.5,1239.4644,583.5,1243.4644,593.5,1247.4644,589.5,1243.4644" style="stroke:#000000;stroke-width:1.0;"/><line style="stroke:#000000;stroke-width:1.0;" x1="571.5" x2="571.5" y1="1211.4644" y2="1231.4644"/><polygon fill="#000000" points="567.5,1221.4644,571.5,1231.4644,575.5,1221.4644,571.5,1225.4644" style="stroke:#000000;stroke-width:1.0;"/><line style="stroke:#000000;stroke-width:1.0;" x1="571.5" x2="571.5" y1="999.0281" y2="1019.0281"/><polygon fill="#000000" points="567.5,1009.0281,571.5,1019.0281,575.5,1009.0281,571.5,1013.0281" style="stroke:#000000;stroke-width:1.0;"/><line style="stroke:#000000;stroke-width:1.0;" x1="571.5" x2="571.5" y1="427.6572" y2="474.6719"/><polygon fill="#000000" points="567.5,464.6719,571.5,474.6719,575.5,464.6719,571.5,468.6719" style="stroke:#000000;stroke-width:1.0;"/><line style="stroke:#000000;stroke-width:1.0;" x1="571.5" x2="571.5" y1="1255.4644" y2="1287.4644"/><polygon fill="#000000" points="567.5,1277.4644,571.5,1287.4644,575.5,1277.4644,571.5,1281.4644" style="stroke:#000000;stroke-width:1.0;"/><line style="stroke:#000000;stroke-width:1.0;" x1="571.5" x2="571.5" y1="1425.3167" y2="1445.3167"/><polygon fill="#000000" points="567.5,1435.3167,571.5,1445.3167,575.5,1435.3167,571.5,1439.3167" style="stroke:#000000;stroke-width:1.0;"/><line style="stroke:#000000;stroke-width:1.0;" x1="571.5" x2="571.5" y1="1583.1689" y2="1603.1689"/><polygon fill="#000000" points="567.5,1593.1689,571.5,1603.1689,575.5,1593.1689,571.5,1597.1689" style="stroke:#000000;stroke-width:1.0;"/><line style="stroke:#000000;stroke-width:1.0;" x1="571.5" x2="571.5" y1="1637.7529" y2="1657.7529"/><polygon fill="#000000" points="567.5,1647.7529,571.5,1657.7529,575.5,1647.7529,571.5,1651.7529" style="stroke:#000000;stroke-width:1.0;"/><line style="stroke:#000000;stroke-width:1.0;" x1="571.5" x2="571.5" y1="1523.9006" y2="1548.585"/><polygon fill="#000000" points="567.5,1538.585,571.5,1548.585,575.5,1538.585,571.5,1542.585" style="stroke:#000000;stroke-width:1.0;"/><line style="stroke:#000000;stroke-width:1.0;" x1="624.5" x2="682" y1="1511.9006" y2="1511.9006"/><polygon fill="#000000" points="678,1601.1689,682,1611.1689,686,1601.1689,682,1605.1689" style="stroke:#000000;stroke-width:1.0;"/><line style="stroke:#000000;stroke-width:1.0;" x1="682" x2="682" y1="1511.9006" y2="1701.7529"/><line style="stroke:#000000;stroke-width:1.0;" x1="682" x2="571.5" y1="1701.7529" y2="1701.7529"/><line style="stroke:#000000;stroke-width:1.0;" x1="571.5" x2="571.5" y1="1701.7529" y2="1721.7529"/><polygon fill="#000000" points="567.5,1711.7529,571.5,1721.7529,575.5,1711.7529,571.5,1715.7529" style="stroke:#000000;stroke-width:1.0;"/><line style="stroke:#000000;stroke-width:1.0;" x1="571.5" x2="571.5" y1="1479.9006" y2="1499.9006"/><polygon fill="#000000" points="567.5,1489.9006,571.5,1499.9006,575.5,1489.9006,571.5,1493.9006" style="stroke:#000000;stroke-width:1.0;"/><line style="stroke:#000000;stroke-width:1.0;" x1="571.5" x2="571.5" y1="1366.0483" y2="1390.7327"/><polygon fill="#000000" points="567.5,1380.7327,571.5,1390.7327,575.5,1380.7327,571.5,1384.7327" style="stroke:#000000;stroke-width:1.0;"/><line style="stroke:#000000;stroke-width:1.0;" x1="670.5" x2="704" y1="1354.0483" y2="1354.0483"/><polygon fill="#000000" points="700,1540.585,704,1550.585,708,1540.585,704,1544.585" style="stroke:#000000;stroke-width:1.0;"/><line style="stroke:#000000;stroke-width:1.0;" x1="704" x2="704" y1="1354.0483" y2="1733.7529"/><line style="stroke:#000000;stroke-width:1.0;" x1="704" x2="583.5" y1="1733.7529" y2="1733.7529"/><polygon fill="#000000" points="593.5,1729.7529,583.5,1733.7529,593.5,1737.7529,589.5,1733.7529" style="stroke:#000000;stroke-width:1.0;"/><line style="stroke:#000000;stroke-width:1.0;" x1="571.5" x2="571.5" y1="1322.0483" y2="1342.0483"/><polygon fill="#000000" points="567.5,1332.0483,571.5,1342.0483,575.5,1332.0483,571.5,1336.0483" style="stroke:#000000;stroke-width:1.0;"/><line style="stroke:#000000;stroke-width:1.0;" x1="571.5" x2="571.5" y1="1745.7529" y2="1765.7529"/><polygon fill="#000000" points="567.5,1755.7529,571.5,1765.7529,575.5,1755.7529,571.5,1759.7529" style="stroke:#000000;stroke-width:1.0;"/><line style="stroke:#000000;stroke-width:1.0;" x1="346.5" x2="346.5" y1="1880.9209" y2="1915.9209"/><polygon fill="#000000" points="342.5,1905.9209,346.5,1915.9209,350.5,1905.9209,346.5,1909.9209" style="stroke:#000000;stroke-width:1.0;"/><line style="stroke:#000000;stroke-width:1.0;" x1="817" x2="817" y1="1880.9209" y2="1915.9209"/><polygon fill="#000000" points="813,1905.9209,817,1915.9209,821,1905.9209,817,1909.9209" style="stroke:#000000;stroke-width:1.0;"/><line style="stroke:#000000;stroke-width:1.0;" x1="346.5" x2="346.5" y1="1826.3369" y2="1846.3369"/><polygon fill="#000000" points="342.5,1836.3369,346.5,1846.3369,350.5,1836.3369,346.5,1840.3369" style="stroke:#000000;stroke-width:1.0;"/><line style="stroke:#000000;stroke-width:1.0;" x1="592" x2="592" y1="1826.3369" y2="1881.1289"/><polygon fill="#000000" points="588,1871.1289,592,1881.1289,596,1871.1289,592,1875.1289" style="stroke:#000000;stroke-width:1.0;"/><line style="stroke:#000000;stroke-width:1.0;" x1="817" x2="817" y1="1826.3369" y2="1846.3369"/><polygon fill="#000000" points="813,1836.3369,817,1846.3369,821,1836.3369,817,1840.3369" style="stroke:#000000;stroke-width:1.0;"/><line style="stroke:#000000;stroke-width:1.0;" x1="346.5" x2="346.5" y1="1950.5049" y2="1970.5049"/><polygon fill="#000000" points="342.5,1960.5049,346.5,1970.5049,350.5,1960.5049,346.5,1964.5049" style="stroke:#000000;stroke-width:1.0;"/><line style="stroke:#000000;stroke-width:1.0;" x1="592" x2="592" y1="1915.7129" y2="1970.5049"/><polygon fill="#000000" points="588,1960.5049,592,1970.5049,596,1960.5049,592,1964.5049" style="stroke:#000000;stroke-width:1.0;"/><line style="stroke:#000000;stroke-width:1.0;" x1="817" x2="817" y1="1950.5049" y2="1970.5049"/><polygon fill="#000000" points="813,1960.5049,817,1970.5049,821,1960.5049,817,1964.5049" style="stroke:#000000;stroke-width:1.0;"/><line style="stroke:#000000;stroke-width:1.0;" x1="571.5" x2="571.5" y1="1800.3369" y2="1820.3369"/><polygon fill="#000000" points="567.5,1810.3369,571.5,1820.3369,575.5,1810.3369,571.5,1814.3369" style="stroke:#000000;stroke-width:1.0;"/><line style="stroke:#000000;stroke-width:1.0;" x1="571.5" x2="571.5" y1="1976.5049" y2="1996.5049"/><polygon fill="#000000" points="567.5,1986.5049,571.5,1996.5049,575.5,1986.5049,571.5,1990.5049" style="stroke:#000000;stroke-width:1.0;"/><line style="stroke:#000000;stroke-width:1.0;" x1="571.5" x2="571.5" y1="2031.0889" y2="2051.0889"/><polygon fill="#000000" points="567.5,2041.0889,571.5,2051.0889,575.5,2041.0889,571.5,2045.0889" style="stroke:#000000;stroke-width:1.0;"/><line style="stroke:#000000;stroke-width:1.0;" x1="571.5" x2="571.5" y1="2085.6729" y2="2105.6729"/><polygon fill="#000000" points="567.5,2095.6729,571.5,2105.6729,575.5,2095.6729,571.5,2099.6729" style="stroke:#000000;stroke-width:1.0;"/><line style="stroke:#000000;stroke-width:1.0;" x1="571.5" x2="571.5" y1="2140.2568" y2="2160.2568"/><polygon fill="#000000" points="567.5,2150.2568,571.5,2160.2568,575.5,2150.2568,571.5,2154.2568" style="stroke:#000000;stroke-width:1.0;"/><!--SRC=[TLLBRjim4Dth5DEid4MHlRKeWgGeicWHn6dtOsei3oAH0aa9Q8hUfGVeBNAnFbAoBTcD5u95pk-zUJFw4FVI2dKDgosAgB4HseWVz5KTFObnlWg4eyXHGrIp5_f8zygrvxPbggI1mssCEcXy-qEhpmrldMTuMw4d3NsJFEcHFMBpTL64YBz5iTv82DceKghL6KTHVAkMowBOEVzI47xhEswCQvYwtaQfQwKTB1ejnzjxcNp8JvaSTMCcMg6WwBpoJJ3Exl32r-KoQ9Y1Kbi1GjKZU2w7as-PAo6k4pdPzGVkAy1EcC8vWalpHo-eXt440s-v5Gj7qp0yTsfuAkYXIkVfW0otMvtiFDiNjNLPYAqeSrAixxmm3Sx8r9o9M90s0aT1TFKedbnjJqY4B1h51tAkwDUO-7E8ddM4qub7ZfOjOX_zoiis86hF5TSMJjFrxGGF5NUTGmhgZT54ZjwqwVqiZ0GaKx6lV8erSP4VkgFL22zL5HnQBhJb6FleFbqJ96jf5Tx-NcVh77eZ24B6GSksTuCZV-PVdcmFNR5k8ftDNcMGnFfe1i9rTwhd133oDXCvcuVl4MuoOwAtqAdnKg4Rg3fahVHpVi-WRY0gA1OoQdH0U1JFEKxaTz0UY1oXJbupXBSXP3wsplQ1mXZ_qko2YFzPZbpyJYFBpG0AUamxwKHmICfA0c8W1R1Y0ZJW995slCA8zi7eh87MZOZMJr9h4YA9zoVDFODMA4gY_rdEL87NzqDbnw_i0GLqmtdGSKH1UxyKmRTZyrjia9n_7Fc3HOYkcn4mFekJ58vJZErHDswRrz9iTSs68eynjLetE5dibwMbuHHilXxE5yeNiGAYr0Qjzp4iHNLk_607FJONWIzaVihSURVJvUgRBPrdpw6LrFRb8ZiWuvaZSVuOW8f3iH0PTW2Q9fqshZwkw6Io-5nC8uiXxXg9UIKKkGl_0000]--></g></svg>