<?xml version="1.0" encoding="us-ascii" standalone="no"?><svg xmlns="http://www.w3.org/2000/svg" xmlns:xlink="http://www.w3.org/1999/xlink" contentStyleType="text/css" height="1227px" preserveAspectRatio="none" style="width:1489px;height:1227px;background:#FFFFFF;" version="1.1" viewBox="0 0 1489 1227" width="1489px" zoomAndPan="magnify"><defs/><g><text fill="#000000" font-family="Verdana" font-size="22" font-weight="bold" lengthAdjust="spacing" textLength="1021" x="229.75" y="37.1182">Servizio Records e Statistiche - Diagramma di Stato (Stato Elaborazione Records)</text><ellipse cx="1245.5" cy="258.2373" fill="#FFFFFF" rx="10" ry="10" style="stroke:#000000;stroke-width:1.0;"/><g id="InAttesa"><rect fill="#FFFFFF" height="66.1826" rx="12.5" ry="12.5" style="stroke:#000000;stroke-width:1.0;" width="208" x="1141.5" y="383.2373"/><line style="stroke:#000000;stroke-width:1.0;" x1="1141.5" x2="1349.5" y1="410.252" y2="410.252"/><text fill="#000000" font-family="Verdana" font-size="14" lengthAdjust="spacing" textLength="60" x="1215.5" y="402.3125">InAttesa</text><text fill="#000000" font-family="Verdana" font-size="12" lengthAdjust="spacing" textLength="188" x="1146.5" y="427.3164">In attesa dati partita completi</text><text fill="#000000" font-family="Verdana" font-size="12" lengthAdjust="spacing" textLength="146" x="1146.5" y="441.9004">Buffer dati temporaneo</text></g><g id="Validazione"><rect fill="#FFFFFF" height="80.7666" rx="12.5" ry="12.5" style="stroke:#000000;stroke-width:1.0;" width="166" x="930.5" y="59.7373"/><line style="stroke:#000000;stroke-width:1.0;" x1="930.5" x2="1096.5" y1="86.752" y2="86.752"/><text fill="#000000" font-family="Verdana" font-size="14" lengthAdjust="spacing" textLength="78" x="974.5" y="78.8125">Validazione</text><text fill="#000000" font-family="Verdana" font-size="12" lengthAdjust="spacing" textLength="146" x="935.5" y="103.8164">Validazione dati partita</text><text fill="#000000" font-family="Verdana" font-size="12" lengthAdjust="spacing" textLength="114" x="935.5" y="118.4004">Controllo integrit&#224;</text><text fill="#000000" font-family="Verdana" font-size="12" lengthAdjust="spacing" textLength="113" x="935.5" y="132.9844">Verifica anti-cheat</text></g><g id="ErroreRicezione"><rect fill="#FFFFFF" height="66.1826" rx="12.5" ry="12.5" style="stroke:#000000;stroke-width:1.0;" width="184" x="1037.5" y="541.2373"/><line style="stroke:#000000;stroke-width:1.0;" x1="1037.5" x2="1221.5" y1="568.252" y2="568.252"/><text fill="#000000" font-family="Verdana" font-size="14" lengthAdjust="spacing" textLength="109" x="1075" y="560.3125">ErroreRicezione</text><text fill="#000000" font-family="Verdana" font-size="12" lengthAdjust="spacing" textLength="127" x="1042.5" y="585.3164">Errore ricezione dati</text><text fill="#000000" font-family="Verdana" font-size="12" lengthAdjust="spacing" textLength="164" x="1042.5" y="599.9004">Problemi di rete o formato</text></g><g id="Elaborazione"><rect fill="#FFFFFF" height="80.7666" rx="12.5" ry="12.5" style="stroke:#000000;stroke-width:1.0;" width="201" x="301" y="217.7373"/><line style="stroke:#000000;stroke-width:1.0;" x1="301" x2="502" y1="244.752" y2="244.752"/><text fill="#000000" font-family="Verdana" font-size="14" lengthAdjust="spacing" textLength="89" x="357" y="236.8125">Elaborazione</text><text fill="#000000" font-family="Verdana" font-size="12" lengthAdjust="spacing" textLength="151" x="306" y="261.8164">Elaborazione statistiche</text><text fill="#000000" font-family="Verdana" font-size="12" lengthAdjust="spacing" textLength="105" x="306" y="276.4004">Calcolo punteggi</text><text fill="#000000" font-family="Verdana" font-size="12" lengthAdjust="spacing" textLength="181" x="306" y="290.9844">Aggiornamento record utenti</text></g><g id="ErroreValidazione"><rect fill="#FFFFFF" height="66.1826" rx="12.5" ry="12.5" style="stroke:#000000;stroke-width:1.0;" width="190" x="918.5" y="225.2373"/><line style="stroke:#000000;stroke-width:1.0;" x1="918.5" x2="1108.5" y1="252.252" y2="252.252"/><text fill="#000000" font-family="Verdana" font-size="14" lengthAdjust="spacing" textLength="122" x="952.5" y="244.3125">ErroreValidazione</text><text fill="#000000" font-family="Verdana" font-size="12" lengthAdjust="spacing" textLength="170" x="923.5" y="269.3164">Errori di validazione rilevati</text><text fill="#000000" font-family="Verdana" font-size="12" lengthAdjust="spacing" textLength="130" x="923.5" y="283.9004">Log errori per analisi</text></g><g id="Rifiutato"><rect fill="#FFFFFF" height="80.7666" rx="12.5" ry="12.5" style="stroke:#000000;stroke-width:1.0;" width="194" x="1016.5" y="691.7373"/><line style="stroke:#000000;stroke-width:1.0;" x1="1016.5" x2="1210.5" y1="718.752" y2="718.752"/><text fill="#000000" font-family="Verdana" font-size="14" lengthAdjust="spacing" textLength="59" x="1084" y="710.8125">Rifiutato</text><text fill="#000000" font-family="Verdana" font-size="12" lengthAdjust="spacing" textLength="174" x="1021.5" y="735.8164">Dati rifiutati definitivamente</text><text fill="#000000" font-family="Verdana" font-size="12" lengthAdjust="spacing" textLength="170" x="1021.5" y="750.4004">Possibile tentativo di cheat</text><text fill="#000000" font-family="Verdana" font-size="12" lengthAdjust="spacing" textLength="138" x="1021.5" y="764.9844">Log per investigazioni</text></g><g id="SalvataggioDatabase"><rect fill="#FFFFFF" height="80.7666" rx="12.5" ry="12.5" style="stroke:#000000;stroke-width:1.0;" width="181" x="397" y="375.7373"/><line style="stroke:#000000;stroke-width:1.0;" x1="397" x2="578" y1="402.752" y2="402.752"/><text fill="#000000" font-family="Verdana" font-size="14" lengthAdjust="spacing" textLength="147" x="414" y="394.8125">SalvataggioDatabase</text><text fill="#000000" font-family="Verdana" font-size="12" lengthAdjust="spacing" textLength="161" x="402" y="419.8164">Salvataggio nel database</text><text fill="#000000" font-family="Verdana" font-size="12" lengthAdjust="spacing" textLength="112" x="402" y="434.4004">Transazione ACID</text><text fill="#000000" font-family="Verdana" font-size="12" lengthAdjust="spacing" textLength="108" x="402" y="448.9844">Backup dati critici</text></g><g id="ErroreElaborazione"><rect fill="#FFFFFF" height="66.1826" rx="12.5" ry="12.5" style="stroke:#000000;stroke-width:1.0;" width="199" x="37" y="383.2373"/><line style="stroke:#000000;stroke-width:1.0;" x1="37" x2="236" y1="410.252" y2="410.252"/><text fill="#000000" font-family="Verdana" font-size="14" lengthAdjust="spacing" textLength="133" x="70" y="402.3125">ErroreElaborazione</text><text fill="#000000" font-family="Verdana" font-size="12" lengthAdjust="spacing" textLength="179" x="42" y="427.3164">Errore durante elaborazione</text><text fill="#000000" font-family="Verdana" font-size="12" lengthAdjust="spacing" textLength="152" x="42" y="441.9004">Problemi calcolo o logica</text></g><g id="AggiornamentiClassifiche"><rect fill="#FFFFFF" height="80.7666" rx="12.5" ry="12.5" style="stroke:#000000;stroke-width:1.0;" width="194" x="535.5" y="533.7373"/><line style="stroke:#000000;stroke-width:1.0;" x1="535.5" x2="729.5" y1="560.752" y2="560.752"/><text fill="#000000" font-family="Verdana" font-size="14" lengthAdjust="spacing" textLength="174" x="545.5" y="552.8125">AggiornamentiClassifiche</text><text fill="#000000" font-family="Verdana" font-size="12" lengthAdjust="spacing" textLength="163" x="540.5" y="577.8164">Aggiornamento classifiche</text><text fill="#000000" font-family="Verdana" font-size="12" lengthAdjust="spacing" textLength="104" x="540.5" y="592.4004">Ricalcolo ranking</text><text fill="#000000" font-family="Verdana" font-size="12" lengthAdjust="spacing" textLength="124" x="540.5" y="606.9844">Invalidazione cache</text></g><g id="ErroreDatabase"><rect fill="#FFFFFF" height="66.1826" rx="12.5" ry="12.5" style="stroke:#000000;stroke-width:1.0;" width="187" x="262" y="541.2373"/><line style="stroke:#000000;stroke-width:1.0;" x1="262" x2="449" y1="568.252" y2="568.252"/><text fill="#000000" font-family="Verdana" font-size="14" lengthAdjust="spacing" textLength="110" x="300.5" y="560.3125">ErroreDatabase</text><text fill="#000000" font-family="Verdana" font-size="12" lengthAdjust="spacing" textLength="157" x="267" y="585.3164">Errore accesso database</text><text fill="#000000" font-family="Verdana" font-size="12" lengthAdjust="spacing" textLength="167" x="267" y="599.9004">Tentativo retry automatico</text></g><g id="FailurePermanente"><rect fill="#FFFFFF" height="80.7666" rx="12.5" ry="12.5" style="stroke:#000000;stroke-width:1.0;" width="249" x="12" y="691.7373"/><line style="stroke:#000000;stroke-width:1.0;" x1="12" x2="261" y1="718.752" y2="718.752"/><text fill="#000000" font-family="Verdana" font-size="14" lengthAdjust="spacing" textLength="128" x="72.5" y="710.8125">FailurePermanente</text><text fill="#000000" font-family="Verdana" font-size="12" lengthAdjust="spacing" textLength="229" x="17" y="735.8164">Fallimento permanente del processo</text><text fill="#000000" font-family="Verdana" font-size="12" lengthAdjust="spacing" textLength="179" x="17" y="750.4004">Richiede intervento manuale</text><text fill="#000000" font-family="Verdana" font-size="12" lengthAdjust="spacing" textLength="118" x="17" y="764.9844">Dati in quarantena</text></g><g id="NotificheUtenti"><rect fill="#FFFFFF" height="80.7666" rx="12.5" ry="12.5" style="stroke:#000000;stroke-width:1.0;" width="158" x="740.5" y="691.7373"/><line style="stroke:#000000;stroke-width:1.0;" x1="740.5" x2="898.5" y1="718.752" y2="718.752"/><text fill="#000000" font-family="Verdana" font-size="14" lengthAdjust="spacing" textLength="102" x="768.5" y="710.8125">NotificheUtenti</text><text fill="#000000" font-family="Verdana" font-size="12" lengthAdjust="spacing" textLength="129" x="745.5" y="735.8164">Invio notifiche utenti</text><text fill="#000000" font-family="Verdana" font-size="12" lengthAdjust="spacing" textLength="138" x="745.5" y="750.4004">Achievement sbloccati</text><text fill="#000000" font-family="Verdana" font-size="12" lengthAdjust="spacing" textLength="130" x="745.5" y="764.9844">Aggiornamenti livello</text></g><g id="ErroreClassifiche"><rect fill="#FFFFFF" height="66.1826" rx="12.5" ry="12.5" style="stroke:#000000;stroke-width:1.0;" width="227" x="336" y="699.2373"/><line style="stroke:#000000;stroke-width:1.0;" x1="336" x2="563" y1="726.252" y2="726.252"/><text fill="#000000" font-family="Verdana" font-size="14" lengthAdjust="spacing" textLength="116" x="391.5" y="718.3125">ErroreClassifiche</text><text fill="#000000" font-family="Verdana" font-size="12" lengthAdjust="spacing" textLength="206" x="341" y="743.3164">Errore aggiornamento classifiche</text><text fill="#000000" font-family="Verdana" font-size="12" lengthAdjust="spacing" textLength="207" x="341" y="757.9004">Cache o ranking non aggiornabili</text></g><g id="Completato"><rect fill="#FFFFFF" height="80.7666" rx="12.5" ry="12.5" style="stroke:#000000;stroke-width:1.0;" width="263" x="230" y="945.7373"/><line style="stroke:#000000;stroke-width:1.0;" x1="230" x2="493" y1="972.752" y2="972.752"/><text fill="#000000" font-family="Verdana" font-size="14" lengthAdjust="spacing" textLength="81" x="321" y="964.8125">Completato</text><text fill="#000000" font-family="Verdana" font-size="12" lengthAdjust="spacing" textLength="243" x="235" y="989.8164">Elaborazione completata con successo</text><text fill="#000000" font-family="Verdana" font-size="12" lengthAdjust="spacing" textLength="151" x="235" y="1004.4004">Tutti i sistemi aggiornati</text><text fill="#000000" font-family="Verdana" font-size="12" lengthAdjust="spacing" textLength="103" x="235" y="1018.9844">Record archiviati</text></g><g id="ErroreNotifica"><rect fill="#FFFFFF" height="66.1826" rx="12.5" ry="12.5" style="stroke:#000000;stroke-width:1.0;" width="208" x="731.5" y="849.7373"/><line style="stroke:#000000;stroke-width:1.0;" x1="731.5" x2="939.5" y1="876.752" y2="876.752"/><text fill="#000000" font-family="Verdana" font-size="14" lengthAdjust="spacing" textLength="95" x="788" y="868.8125">ErroreNotifica</text><text fill="#000000" font-family="Verdana" font-size="12" lengthAdjust="spacing" textLength="129" x="736.5" y="893.8164">Errore invio notifiche</text><text fill="#000000" font-family="Verdana" font-size="12" lengthAdjust="spacing" textLength="188" x="736.5" y="908.4004">Sistemi notifica non disponibili</text></g><ellipse cx="512.5" cy="1210.7373" fill="none" rx="11" ry="11" style="stroke:#000000;stroke-width:1.0;"/><ellipse cx="512.5" cy="1210.7373" fill="#FFFFFF" rx="6" ry="6" style="stroke:#000000;stroke-width:1.0;"/><g id="CompletamentoForzato"><rect fill="#FFFFFF" height="66.1826" rx="12.5" ry="12.5" style="stroke:#000000;stroke-width:1.0;" width="275" x="526" y="1056.7373"/><line style="stroke:#000000;stroke-width:1.0;" x1="526" x2="801" y1="1083.752" y2="1083.752"/><text fill="#000000" font-family="Verdana" font-size="14" lengthAdjust="spacing" textLength="165" x="581" y="1075.8125">CompletamentoForzato</text><text fill="#000000" font-family="Verdana" font-size="12" lengthAdjust="spacing" textLength="227" x="531" y="1100.8164">Completamento con errori non critici</text><text fill="#000000" font-family="Verdana" font-size="12" lengthAdjust="spacing" textLength="255" x="531" y="1115.4004">Record salvati, notifiche/classifiche fallite</text></g><g id="elem_GMN49"><path d="M1132,71.7373 L1132,96.2373 L1096.75,100.2373 L1132,104.2373 L1132,129.1353 A0,0 0 0 0 1132,129.1353 L1299,129.1353 A0,0 0 0 0 1299,129.1353 L1299,81.7373 L1289,71.7373 L1132,71.7373 A0,0 0 0 0 1132,71.7373 " fill="#FFFFFF" style="stroke:#000000;stroke-width:1.0;"/><path d="M1289,71.7373 L1289,81.7373 L1299,81.7373 L1289,71.7373 " fill="#FFFFFF" style="stroke:#000000;stroke-width:1.0;"/><text fill="#000000" font-family="Verdana" font-size="13" lengthAdjust="spacing" textLength="128" x="1138" y="89.8071">Controlli anti-cheat</text><text fill="#000000" font-family="Verdana" font-size="13" lengthAdjust="spacing" textLength="144" x="1138" y="105.6064">Verifica coerenza dati</text><text fill="#000000" font-family="Verdana" font-size="13" lengthAdjust="spacing" textLength="146" x="1138" y="121.4058">Validazione timestamp</text></g><g id="elem_GMN52"><path d="M537.5,229.7373 L537.5,254.2373 L502.02,258.2373 L537.5,262.2373 L537.5,287.1353 A0,0 0 0 0 537.5,287.1353 L735.5,287.1353 A0,0 0 0 0 735.5,287.1353 L735.5,239.7373 L725.5,229.7373 L537.5,229.7373 A0,0 0 0 0 537.5,229.7373 " fill="#FFFFFF" style="stroke:#000000;stroke-width:1.0;"/><path d="M725.5,229.7373 L725.5,239.7373 L735.5,239.7373 L725.5,229.7373 " fill="#FFFFFF" style="stroke:#000000;stroke-width:1.0;"/><text fill="#000000" font-family="Verdana" font-size="13" lengthAdjust="spacing" textLength="117" x="543.5" y="247.8071">Calcoli statistiche</text><text fill="#000000" font-family="Verdana" font-size="13" lengthAdjust="spacing" textLength="177" x="543.5" y="263.6064">Aggiornamenti incrementali</text><text fill="#000000" font-family="Verdana" font-size="13" lengthAdjust="spacing" textLength="143" x="543.5" y="279.4058">Gestione concorrenza</text></g><g id="elem_GMN55"><path d="M613,387.7373 L613,412.2373 L578.06,416.2373 L613,420.2373 L613,445.1353 A0,0 0 0 0 613,445.1353 L760,445.1353 A0,0 0 0 0 760,445.1353 L760,397.7373 L750,387.7373 L613,387.7373 A0,0 0 0 0 613,387.7373 " fill="#FFFFFF" style="stroke:#000000;stroke-width:1.0;"/><path d="M750,387.7373 L750,397.7373 L760,397.7373 L750,387.7373 " fill="#FFFFFF" style="stroke:#000000;stroke-width:1.0;"/><text fill="#000000" font-family="Verdana" font-size="13" lengthAdjust="spacing" textLength="111" x="619" y="405.8071">Transazioni ACID</text><text fill="#000000" font-family="Verdana" font-size="13" lengthAdjust="spacing" textLength="117" x="619" y="421.6064">Rollback su errore</text><text fill="#000000" font-family="Verdana" font-size="13" lengthAdjust="spacing" textLength="126" x="619" y="437.4058">Backup automatico</text></g><!--link *start* to InAttesa--><g id="link_*start*_InAttesa"><path d="M1244.99,268.2273 C1244.26,281.4773 1242.97,307.0073 1242.5,328.7373 C1242.11,346.7673 1242.4632,360.9042 1243.2432,377.2042 " fill="none" id="*start*-to-InAttesa" style="stroke:#000000;stroke-width:1.0;"/><polygon fill="#000000" points="1243.53,383.1973,1247.0952,374.0164,1243.291,378.203,1239.1044,374.3988,1243.53,383.1973" style="stroke:#000000;stroke-width:1.0;"/><text fill="#000000" font-family="Verdana" font-size="13" lengthAdjust="spacing" textLength="117" x="1243.5" y="342.8071">Ricevi dati partita</text></g><!--link InAttesa to Validazione--><g id="link_InAttesa_Validazione"><path d="M1337.67,383.0773 C1359.23,369.7073 1373.82,351.8073 1365.5,328.7373 C1343.77,268.4573 1324.51,256.5173 1273.5,217.7373 C1244.21,195.4773 1166.7436,161.9938 1102.3036,135.9738 " fill="none" id="InAttesa-to-Validazione" style="stroke:#000000;stroke-width:1.0;"/><polygon fill="#000000" points="1096.74,133.7273,1103.5877,140.8061,1101.3763,135.5994,1106.583,133.388,1096.74,133.7273" style="stroke:#000000;stroke-width:1.0;"/><text fill="#000000" font-family="Verdana" font-size="13" lengthAdjust="spacing" textLength="129" x="1352.5" y="263.8071">Dati partita ricevuti</text></g><!--link InAttesa to ErroreRicezione--><g id="link_InAttesa_ErroreRicezione"><path d="M1245.35,449.4073 C1243.91,466.6973 1239.85,487.6973 1229.5,503.7373 C1219.98,518.4773 1211.033,527.5089 1196.643,537.6589 " fill="none" id="InAttesa-to-ErroreRicezione" style="stroke:#000000;stroke-width:1.0;"/><polygon fill="#000000" points="1191.74,541.1173,1201.4001,539.1985,1195.8259,538.2353,1196.789,532.6611,1191.74,541.1173" style="stroke:#000000;stroke-width:1.0;"/><text fill="#000000" font-family="Verdana" font-size="13" lengthAdjust="spacing" textLength="150" x="1237.5" y="500.8071">Timeout o dati corrotti</text></g><!--link ErroreRicezione to InAttesa--><g id="link_ErroreRicezione_InAttesa"><path d="M1110.51,540.9873 C1103.09,523.8673 1098.47,503.0673 1108.5,486.7373 C1118.06,471.1673 1127.178,462.0658 1142.928,452.5258 " fill="none" id="ErroreRicezione-to-InAttesa" style="stroke:#000000;stroke-width:1.0;"/><polygon fill="#000000" points="1148.06,449.4173,1138.2897,450.6588,1143.7834,452.0077,1142.4344,457.5014,1148.06,449.4173" style="stroke:#000000;stroke-width:1.0;"/><text fill="#000000" font-family="Verdana" font-size="13" lengthAdjust="spacing" textLength="111" x="1109.5" y="500.8071">Riprova ricezione</text></g><!--link Validazione to Elaborazione--><g id="link_Validazione_Elaborazione"><path d="M930.3,118.4273 C831.64,139.3673 662.52,177.0273 519.5,217.7373 C513.79,219.3673 513.678,219.3437 507.788,221.1437 " fill="none" id="Validazione-to-Elaborazione" style="stroke:#000000;stroke-width:1.0;"/><polygon fill="#000000" points="502.05,222.8973,511.8261,224.0923,506.8317,221.436,509.488,216.4416,502.05,222.8973" style="stroke:#000000;stroke-width:1.0;"/><text fill="#000000" font-family="Verdana" font-size="13" lengthAdjust="spacing" textLength="64" x="695.5" y="184.8071">Dati validi</text></g><!--link Validazione to ErroreValidazione--><g id="link_Validazione_ErroreValidazione"><path d="M1013.5,141.0073 C1013.5,167.0973 1013.5,194.7673 1013.5,219.1473 " fill="none" id="Validazione-to-ErroreValidazione" style="stroke:#000000;stroke-width:1.0;"/><polygon fill="#000000" points="1013.5,225.1473,1017.5,216.1473,1013.5,220.1473,1009.5,216.1473,1013.5,225.1473" style="stroke:#000000;stroke-width:1.0;"/><text fill="#000000" font-family="Verdana" font-size="13" lengthAdjust="spacing" textLength="93" x="1014.5" y="184.8071">Dati non validi</text></g><!--link ErroreValidazione to InAttesa--><g id="link_ErroreValidazione_InAttesa"><path d="M1028.61,291.5873 C1038.39,309.5773 1052.64,331.2073 1070.5,345.7373 C1091.16,362.5573 1110.8544,373.4412 1135.6644,383.5612 " fill="none" id="ErroreValidazione-to-InAttesa" style="stroke:#000000;stroke-width:1.0;"/><polygon fill="#000000" points="1141.22,385.8273,1134.3974,378.7244,1136.5903,383.9389,1131.3759,386.1318,1141.22,385.8273" style="stroke:#000000;stroke-width:1.0;"/><text fill="#000000" font-family="Verdana" font-size="13" lengthAdjust="spacing" textLength="161" x="1071.5" y="342.8071">Riprova con dati corretti</text></g><!--link ErroreValidazione to Rifiutato--><g id="link_ErroreValidazione_Rifiutato"><path d="M1007.38,291.4073 C996.66,355.3473 979.29,501.9673 1020.5,614.7373 C1031.07,643.6673 1047.8354,666.463 1067.1154,687.303 " fill="none" id="ErroreValidazione-to-Rifiutato" style="stroke:#000000;stroke-width:1.0;"/><polygon fill="#000000" points="1071.19,691.7073,1068.0143,682.3845,1067.7945,688.0371,1062.1419,687.8173,1071.19,691.7073" style="stroke:#000000;stroke-width:1.0;"/><text fill="#000000" font-family="Verdana" font-size="13" lengthAdjust="spacing" textLength="75" x="997.5" y="500.8071">Errori critici</text></g><!--link Elaborazione to SalvataggioDatabase--><g id="link_Elaborazione_SalvataggioDatabase"><path d="M431.74,299.0973 C438.32,308.5673 444.96,318.8073 450.5,328.7373 C458.78,343.5673 464.1614,355.0768 470.3314,370.1068 " fill="none" id="Elaborazione-to-SalvataggioDatabase" style="stroke:#000000;stroke-width:1.0;"/><polygon fill="#000000" points="472.61,375.6573,472.8925,365.8125,470.7112,371.0319,465.4918,368.8506,472.61,375.6573" style="stroke:#000000;stroke-width:1.0;"/><text fill="#000000" font-family="Verdana" font-size="13" lengthAdjust="spacing" textLength="161" x="460.5" y="342.8071">Elaborazione completata</text></g><!--link Elaborazione to ErroreElaborazione--><g id="link_Elaborazione_ErroreElaborazione"><path d="M300.7,271.6673 C231.41,282.5273 148.13,300.9573 126.5,328.7373 C114.7,343.8873 115.3248,359.5467 120.7148,377.2767 " fill="none" id="Elaborazione-to-ErroreElaborazione" style="stroke:#000000;stroke-width:1.0;"/><polygon fill="#000000" points="122.46,383.0173,123.6693,373.243,121.0057,378.2335,116.0152,375.5699,122.46,383.0173" style="stroke:#000000;stroke-width:1.0;"/><text fill="#000000" font-family="Verdana" font-size="13" lengthAdjust="spacing" textLength="141" x="127.5" y="342.8071">Errore durante calcoli</text></g><!--link ErroreElaborazione to Elaborazione--><g id="link_ErroreElaborazione_Elaborazione"><path d="M203.94,383.1173 C226.39,371.8773 251.32,358.7873 273.5,345.7373 C297.89,331.3873 318.9697,317.5822 341.1397,302.3022 " fill="none" id="ErroreElaborazione-to-Elaborazione" style="stroke:#000000;stroke-width:1.0;"/><polygon fill="#000000" points="346.08,298.8973,336.3996,300.7112,341.9631,301.7348,340.9395,307.2982,346.08,298.8973" style="stroke:#000000;stroke-width:1.0;"/><text fill="#000000" font-family="Verdana" font-size="13" lengthAdjust="spacing" textLength="135" x="300.5" y="342.8071">Riprova elaborazione</text></g><!--link SalvataggioDatabase to AggiornamentiClassifiche--><g id="link_SalvataggioDatabase_AggiornamentiClassifiche"><path d="M540.78,456.9673 C551.79,466.1973 562.93,476.3773 572.5,486.7373 C585.65,500.9673 594.8731,513.2375 605.0631,528.5975 " fill="none" id="SalvataggioDatabase-to-AggiornamentiClassifiche" style="stroke:#000000;stroke-width:1.0;"/><polygon fill="#000000" points="608.38,533.5973,606.7378,523.8863,605.6159,529.4308,600.0714,528.3089,608.38,533.5973" style="stroke:#000000;stroke-width:1.0;"/><text fill="#000000" font-family="Verdana" font-size="13" lengthAdjust="spacing" textLength="130" x="587.5" y="500.8071">Salvataggio riuscito</text></g><!--link SalvataggioDatabase to ErroreDatabase--><g id="link_SalvataggioDatabase_ErroreDatabase"><path d="M473.37,456.9873 C466.69,472.5373 457.69,489.9173 446.5,503.7373 C435.24,517.6473 425.4476,526.7541 411.2676,537.4041 " fill="none" id="SalvataggioDatabase-to-ErroreDatabase" style="stroke:#000000;stroke-width:1.0;"/><polygon fill="#000000" points="406.47,541.0073,416.0685,538.8008,410.468,538.0046,411.2642,532.4041,406.47,541.0073" style="stroke:#000000;stroke-width:1.0;"/><text fill="#000000" font-family="Verdana" font-size="13" lengthAdjust="spacing" textLength="105" x="458.5" y="500.8071">Errore database</text></g><!--link ErroreDatabase to SalvataggioDatabase--><g id="link_ErroreDatabase_SalvataggioDatabase"><path d="M344.1,541.0473 C340.04,523.7573 338.6,502.7573 348.5,486.7373 C359.85,468.3773 372.3752,457.5107 391.5252,447.3907 " fill="none" id="ErroreDatabase-to-SalvataggioDatabase" style="stroke:#000000;stroke-width:1.0;"/><polygon fill="#000000" points="396.83,444.5873,387.0039,445.2558,392.4093,446.9235,390.7417,452.3289,396.83,444.5873" style="stroke:#000000;stroke-width:1.0;"/><text fill="#000000" font-family="Verdana" font-size="13" lengthAdjust="spacing" textLength="88" x="349.5" y="500.8071">Retry riuscito</text></g><!--link ErroreDatabase to FailurePermanente--><g id="link_ErroreDatabase_FailurePermanente"><path d="M310.39,607.3673 C276.08,631.8073 233.5769,662.0862 196.9369,688.1862 " fill="none" id="ErroreDatabase-to-FailurePermanente" style="stroke:#000000;stroke-width:1.0;"/><polygon fill="#000000" points="192.05,691.6673,201.7011,689.7036,196.1224,688.7664,197.0596,683.1877,192.05,691.6673" style="stroke:#000000;stroke-width:1.0;"/><text fill="#000000" font-family="Verdana" font-size="13" lengthAdjust="spacing" textLength="71" x="254.5" y="658.8071">Retry falliti</text></g><!--link AggiornamentiClassifiche to NotificheUtenti--><g id="link_AggiornamentiClassifiche_NotificheUtenti"><path d="M715.99,614.8473 C730.6,623.6273 745.08,633.6673 757.5,644.7373 C772.53,658.1373 782.6864,670.8053 793.2064,686.6853 " fill="none" id="AggiornamentiClassifiche-to-NotificheUtenti" style="stroke:#000000;stroke-width:1.0;"/><polygon fill="#000000" points="796.52,691.6873,794.8842,681.9752,793.7586,687.519,788.2149,686.3934,796.52,691.6873" style="stroke:#000000;stroke-width:1.0;"/><text fill="#000000" font-family="Verdana" font-size="13" lengthAdjust="spacing" textLength="144" x="774.5" y="658.8071">Classifiche aggiornate</text></g><!--link AggiornamentiClassifiche to ErroreClassifiche--><g id="link_AggiornamentiClassifiche_ErroreClassifiche"><path d="M621.25,614.8873 C615.12,630.9673 606.14,648.7573 593.5,661.7373 C578.68,676.9473 565.1989,686.5394 546.0889,696.3394 " fill="none" id="AggiornamentiClassifiche-to-ErroreClassifiche" style="stroke:#000000;stroke-width:1.0;"/><polygon fill="#000000" points="540.75,699.0773,550.5836,698.5297,545.1991,696.7957,546.9331,691.4112,540.75,699.0773" style="stroke:#000000;stroke-width:1.0;"/><text fill="#000000" font-family="Verdana" font-size="13" lengthAdjust="spacing" textLength="141" x="607.5" y="658.8071">Errore aggiornamento</text></g><!--link ErroreClassifiche to AggiornamentiClassifiche--><g id="link_ErroreClassifiche_AggiornamentiClassifiche"><path d="M432.69,699.1073 C426.06,681.6273 422.36,660.4273 433.5,644.7373 C446.29,626.7173 485.5148,611.8643 529.4948,599.4743 " fill="none" id="ErroreClassifiche-to-AggiornamentiClassifiche" style="stroke:#000000;stroke-width:1.0;"/><polygon fill="#000000" points="535.27,597.8473,525.5225,596.4376,530.4573,599.2031,527.6919,604.1379,535.27,597.8473" style="stroke:#000000;stroke-width:1.0;"/><text fill="#000000" font-family="Verdana" font-size="13" lengthAdjust="spacing" textLength="150" x="434.5" y="658.8071">Riprova aggiornamento</text></g><!--link NotificheUtenti to Completato--><g id="link_NotificheUtenti_Completato"><path d="M743.57,772.7773 C730.07,781.6273 716.76,791.7073 705.5,802.7373 C662.98,844.4273 681.73,880.8073 633.5,915.7373 C592.84,945.1873 546.7467,960.9774 499.1467,970.7774 " fill="none" id="NotificheUtenti-to-Completato" style="stroke:#000000;stroke-width:1.0;"/><polygon fill="#000000" points="493.27,971.9873,502.8917,974.0903,498.1673,970.979,501.2785,966.2546,493.27,971.9873" style="stroke:#000000;stroke-width:1.0;"/><text fill="#000000" font-family="Verdana" font-size="13" lengthAdjust="spacing" textLength="107" x="706.5" y="816.8071">Notifiche inviate</text></g><!--link NotificheUtenti to ErroreNotifica--><g id="link_NotificheUtenti_ErroreNotifica"><path d="M820.81,772.9373 C821.56,787.6673 822.71,804.4973 824.5,819.7373 C825.65,829.5073 826.2748,834.1726 828.0048,843.7626 " fill="none" id="NotificheUtenti-to-ErroreNotifica" style="stroke:#000000;stroke-width:1.0;"/><polygon fill="#000000" points="829.07,849.6673,831.4087,840.1001,828.1823,844.7467,823.5358,841.5204,829.07,849.6673" style="stroke:#000000;stroke-width:1.0;"/><text fill="#000000" font-family="Verdana" font-size="13" lengthAdjust="spacing" textLength="136" x="825.5" y="816.8071">Errore invio notifiche</text></g><!--link ErroreNotifica to NotificheUtenti--><g id="link_ErroreNotifica_NotificheUtenti"><path d="M939.52,853.7273 C964.49,841.4573 980.43,824.7273 966.5,802.7373 C951.17,778.5273 930.4635,764.819 904.3235,754.399 " fill="none" id="ErroreNotifica-to-NotificheUtenti" style="stroke:#000000;stroke-width:1.0;"/><polygon fill="#000000" points="898.75,752.1773,905.6291,759.2256,903.3946,754.0287,908.5914,751.7942,898.75,752.1773" style="stroke:#000000;stroke-width:1.0;"/><text fill="#000000" font-family="Verdana" font-size="13" lengthAdjust="spacing" textLength="83" x="972.5" y="816.8071">Riprova invio</text></g><!--link Completato to *end*--><g id="link_Completato_*end*"><path d="M358.35,1026.9473 C357.97,1055.6473 361.55,1094.2173 379.5,1122.7373 C409.63,1170.6073 471.1207,1195.6329 496.6907,1204.4929 " fill="none" id="Completato-to-*end*" style="stroke:#000000;stroke-width:1.0;"/><polygon fill="#000000" points="502.36,1206.4573,495.1656,1199.7311,497.6356,1204.8203,492.5464,1207.2902,502.36,1206.4573" style="stroke:#000000;stroke-width:1.0;"/><text fill="#000000" font-family="Verdana" font-size="13" lengthAdjust="spacing" textLength="127" x="380.5" y="1095.3071">Processo terminato</text></g><!--link ErroreRicezione to Rifiutato--><g id="link_ErroreRicezione_Rifiutato"><path d="M1126.18,607.5573 C1123.69,631.9273 1120.8627,659.4987 1118.1927,685.5087 " fill="none" id="ErroreRicezione-to-Rifiutato" style="stroke:#000000;stroke-width:1.0;"/><polygon fill="#000000" points="1117.58,691.4773,1122.4781,682.9328,1118.0906,686.5034,1114.52,682.1159,1117.58,691.4773" style="stroke:#000000;stroke-width:1.0;"/><text fill="#000000" font-family="Verdana" font-size="13" lengthAdjust="spacing" textLength="122" x="1122.5" y="658.8071">Errore permanente</text></g><!--link ErroreElaborazione to FailurePermanente--><g id="link_ErroreElaborazione_FailurePermanente"><path d="M136.5,449.3673 C136.5,507.1973 136.5,622.6473 136.5,685.5673 " fill="none" id="ErroreElaborazione-to-FailurePermanente" style="stroke:#000000;stroke-width:1.0;"/><polygon fill="#000000" points="136.5,691.5673,140.5,682.5673,136.5,686.5673,132.5,682.5673,136.5,691.5673" style="stroke:#000000;stroke-width:1.0;"/><text fill="#000000" font-family="Verdana" font-size="13" lengthAdjust="spacing" textLength="85" x="137.5" y="579.8071">Errore critico</text></g><!--link ErroreClassifiche to CompletamentoForzato--><g id="link_ErroreClassifiche_CompletamentoForzato"><path d="M463.18,765.4273 C479.42,802.5873 508.16,865.0873 538.5,915.7373 C569.35,967.2373 607.5065,1018.1167 634.0865,1051.9967 " fill="none" id="ErroreClassifiche-to-CompletamentoForzato" style="stroke:#000000;stroke-width:1.0;"/><polygon fill="#000000" points="637.79,1056.7173,635.3819,1047.1674,634.7038,1052.7835,629.0877,1052.1054,637.79,1056.7173" style="stroke:#000000;stroke-width:1.0;"/><text fill="#000000" font-family="Verdana" font-size="13" lengthAdjust="spacing" textLength="174" x="539.5" y="888.3071">Continua senza classifiche</text></g><!--link ErroreNotifica to CompletamentoForzato--><g id="link_ErroreNotifica_CompletamentoForzato"><path d="M808.62,915.7673 C776.41,954.1673 726.5865,1013.5508 694.3265,1052.0008 " fill="none" id="ErroreNotifica-to-CompletamentoForzato" style="stroke:#000000;stroke-width:1.0;"/><polygon fill="#000000" points="690.47,1056.5973,699.319,1052.2736,693.6837,1052.7669,693.1904,1047.1316,690.47,1056.5973" style="stroke:#000000;stroke-width:1.0;"/><text fill="#000000" font-family="Verdana" font-size="13" lengthAdjust="spacing" textLength="163" x="780.5" y="991.8071">Continua senza notifiche</text></g><!--link CompletamentoForzato to *end*--><g id="link_CompletamentoForzato_*end*"><path d="M622.64,1122.9373 C587.53,1150.6073 544.363,1184.6241 525.413,1199.5541 " fill="none" id="CompletamentoForzato-to-*end*" style="stroke:#000000;stroke-width:1.0;"/><polygon fill="#000000" points="520.7,1203.2673,530.2449,1200.8395,524.6275,1200.173,525.294,1194.5555,520.7,1203.2673" style="stroke:#000000;stroke-width:1.0;"/><text fill="#000000" font-family="Verdana" font-size="13" lengthAdjust="spacing" textLength="137" x="584.5" y="1166.8071">Terminato con avvisi</text></g><!--link FailurePermanente to *end*--><g id="link_FailurePermanente_*end*"><path d="M109.99,773.2173 C73.94,833.1073 19.56,947.5273 71.5,1026.7373 C175.14,1184.7873 437.9873,1206.1706 495.5573,1209.0206 " fill="none" id="FailurePermanente-to-*end*" style="stroke:#000000;stroke-width:1.0;"/><polygon fill="#000000" points="501.55,1209.3173,492.7588,1204.8772,496.5561,1209.0701,492.3632,1212.8674,501.55,1209.3173" style="stroke:#000000;stroke-width:1.0;"/><text fill="#000000" font-family="Verdana" font-size="13" lengthAdjust="spacing" textLength="139" x="72.5" y="991.8071">Terminato con errore</text></g><!--link Rifiutato to *end*--><g id="link_Rifiutato_*end*"><path d="M1098.51,772.7973 C1074.45,832.6373 1022.68,947.5973 952.5,1026.7373 C874.63,1114.5473 841.3,1131.0373 730.5,1169.7373 C654.21,1196.3773 562.3699,1205.7371 529.6799,1208.4171 " fill="none" id="Rifiutato-to-*end*" style="stroke:#000000;stroke-width:1.0;"/><polygon fill="#000000" points="523.7,1208.9073,532.9967,1212.1586,528.6833,1208.4988,532.3431,1204.1853,523.7,1208.9073" style="stroke:#000000;stroke-width:1.0;"/><text fill="#000000" font-family="Verdana" font-size="13" lengthAdjust="spacing" textLength="179" x="1011.5" y="991.8071">Rifiutato permanentemente</text></g><!--SRC=[xLZTRjis5BxNKt1txR2qZjiCM50KIvoaJPUaHkns5yCkQ8gskSYaIb5kao7lidVPY-qxb6HHbfmqRQu61qWRaTyvFFyyF3-ukLn8bYPSwIXooYMIZQHTgXjbsAKKniOPmvBZJcLEYRbaE-n8yPdbYmLdiV9RXZqf_ZjE-CHO3c8jA_AdKVJ7Zt-odPtNx5GVE2SpplRPfH9ogLWClYpb5YVpA0hsJpNZnTyXX0cpI1FfL0WzpATJQGkSauiK0cXfQWIT_94dAYxbscT78KjBakGXIo8ujjPOIL9MH6Era2Ptp1GdGJTh7CYY9k_mgw5T4pOmsbcJ98OfxUJCAlVlF-kSf5LJ9JZZsgaTc9wx1iAB6HgyL6n96DM6Ueqw3A6DhcYYBf1VK-JhPR1kLIAN8EyaEJCp9Wko5AxX6hjP5xGL5QarItAphgqidTj4UWa3vJxoLc8Ac589KgLfciPdLiVpEcx04s7WbZGdlypK-lu1repLV24rZhK-nbdkyBK69Vb6F86DE970r7p2ivOePKHZjqrUABskY5zaSOumTw3tyaBVxhE2LQPbGbRrMnlWOp3DogCE1gT76s27N5pbQUcYqk1TI58YD9WQ93pBAAhdwy9PbMT2EREHJw5tQCRI49L6qIO45q9ccQcHBU0Oia6N9JdKsMl6SsSMM11c7RlPgvUUSgL61zq9LqbkvL3Q1IeKEQ-Ycl8aKLHBxZ1MC_14lNSN4GfO6Szmx9NIixl0fpfCSC7lv4qANHXNV7tmyK_P4o1uIUhkuL9OgYbAvRbGvoXgdmUHAR2hzIeHsy03CLToAOaHooQ94O9tuq99MQAM4ZMwXIEn1rNYKl5P0L3EbufKxY8fj2ftUAscQceHHGtU6yg5Bv9PNiHsasASesGonJBKEBbGjITK4rVSq8nR68UaRcoJm7HnxxEXDKK2EKIk0XjJvLfuFvQwsDLINDyE8GxS9Wb9XGi5sIPneKuDCcALCpLum-smEgAJe7KdIBg3oeoh1B-xfifWjvjWfKILNeObPWQdTi4xBkfAbVjEsbGsIe6Bshjon_qvrAWRNKG3odgsAXU-EQWuJ5IYEeZkAVALgirSxcPJXP_7d1XxKxYHcYMbSyuogMzuGuVeQtEgXHkLoQ6h9L8rLbbgj0eqNL5q5xnAEtzS5ydNgTIH-os2ODddVjbWaTZL7Ro1jipppDzRwgVwjEU1ASjBI7OpgQl1k2e2NWY-N59d5tK5wGanBEIjCv35w4BIig9qaY6TKQjZwJjZk_JqsCrv8ZlnlebLcdtAkKzVpJjWc-JtHeJLmwhX6Tfo0NLAJfM6VPVU8h817HgO3z4YcLkr4AXhHRCU0gaZfbOOSIBHUCvyVgi0KWjOhzLMAqwEu3YgiBCvdY7JyAaHiTMBGeNl1LQ_8eIHriUQhykiyL1nS1DwuaKQIHrJUBJE2giI7LPqdOr6cgrTdaeBwmN7GTXyGteNLvZsRJrasNXSHui55dLtgehkbB5BQ3n1DugRiF8bgzhJe8khpw6VN_4PLJ-lCdUToDSWiyOuzZV-A3ZChCbrF41rj-ppd3A3TavWvc9jaW2qMhk0rcJi68yTl_Zs6kuxK_ggGkS50op9TGQqDfuhSQMH5MpNhvrpEqDKx-7Z5h-n4RdlNWe11K_9ckNNEeUUNxtr_qwX5GBlVY029lugO34cg72a_4ZTIDRltqD9lzh45Uav_w8M-U9t5RivUz7hUSIhvwKxeWpt3zxEVC4EuDVFPnJQgKb3qzMGRd_L-qToolF4jHpLGfmRRRAK2ncli0EJMoLjW3rJKvb0oP6pQFLcrz0gGpR40MH8htwXKkJYaCSnNQMxlM1_93_bKWj9hCXUXoZGqdOhDvhps7mc5YZHMQZMXqmUebAFo6JCMKHOQ3Q1SgJSjJVtfe0-vBOPZ6r1kcA-PSZRq1bq3BV5mUkqJU0NZwaijDVO7IWh4XaFvlWILGZV8Khb9nG57kCPndvfigEhxcvRVB_g_X0qh5PDy1IvJ-AD74PGLng72l8jB4xgZ7yWvTkw13oKageTSkBA4mSbBmITelGFmOpFP0DMHbwdMrhq5XUn-nvw60VX57yxXtoIAF5Dv1VcsuBY_UGlo5m4Roj8RnjbfxRk8uGpJNNb0tEcIL_5yS6ZS1ay2fVZH-5o-YXSBhw32wh_08rHmMpye6An7VLlH_tRKVzsrByTzMz7_TjH_tRKlntrRqVzsr7_TjI_7VLlH_t_mr7_C86XFfoViQMq6OtDTv_rU_sNpruy6SzpTY8dR7UFzNlxBtlxlJqsE1upsduQFNapF5lsMMPoAoHLZ6Am1mvFetSSjU0IJmSOT9-zJwL-T_HRjS2EKIIiqMIJwDt7ynhmyykTG-Nyoninyl4yAWVFe126fg38_tItlzUFphYUvNm6vieXKy7ONgCD6ly7]--></g></svg>