<?xml version="1.0" encoding="us-ascii" standalone="no"?><svg xmlns="http://www.w3.org/2000/svg" xmlns:xlink="http://www.w3.org/1999/xlink" contentStyleType="text/css" height="2144px" preserveAspectRatio="none" style="width:5430px;height:2144px;background:#FFFFFF;" version="1.1" viewBox="0 0 5430 2144" width="5430px" zoomAndPan="magnify"><defs/><g><text fill="#000000" font-family="Verdana" font-size="22" font-weight="bold" lengthAdjust="spacing" textLength="1215" x="2103.25" y="37.1182">Servizio Records e Statistiche - Diagramma di Comunicazione (Elaborazione Record Post-Partita)</text><!--class client--><g id="elem_client"><rect codeLine="12" fill="#ADD8E6" height="44" id="client" rx="2.5" ry="2.5" style="stroke:#000000;stroke-width:1.0;" width="200" x="12" y="873.7073"/><ellipse cx="70.75" cy="887.7073" fill="#FFFFFF" rx="9" ry="9" style="stroke:#000000;stroke-width:1.0;"/><path d="M73.5156,883.5823 Q73.6719,883.3636 73.8594,883.2542 Q74.0469,883.1448 74.2656,883.1448 Q74.6406,883.1448 74.875,883.4104 Q75.1094,883.6604 75.1094,884.2698 L75.1094,885.7229 Q75.1094,886.3323 74.875,886.5979 Q74.6406,886.8636 74.2656,886.8636 Q73.9219,886.8636 73.7188,886.6604 Q73.5156,886.4729 73.4063,885.9573 Q73.3594,885.5979 73.1719,885.4104 Q72.8438,885.0354 72.2344,884.8167 Q71.625,884.5979 71,884.5979 Q70.2344,884.5979 69.5938,884.9261 Q68.9688,885.2542 68.4688,886.0042 Q67.9844,886.7542 67.9844,887.7854 L67.9844,888.8792 Q67.9844,890.1136 68.875,890.9417 Q69.7656,891.7542 71.3594,891.7542 Q72.2969,891.7542 72.9531,891.5042 Q73.3438,891.3479 73.7656,890.9104 Q74.0313,890.6448 74.1719,890.5667 Q74.3281,890.4886 74.5313,890.4886 Q74.8594,890.4886 75.1094,890.7542 Q75.375,891.0042 75.375,891.3479 Q75.375,891.6917 75.0313,892.0979 Q74.5313,892.6761 73.7344,893.0042 Q72.6563,893.4573 71.3594,893.4573 Q69.8438,893.4573 68.6406,892.8323 Q67.6563,892.3323 66.9688,891.2698 Q66.2813,890.1917 66.2813,888.9104 L66.2813,887.7542 Q66.2813,886.4261 66.8906,885.2854 Q67.5156,884.1292 68.6094,883.5198 Q69.7031,882.8948 70.9375,882.8948 Q71.6719,882.8948 72.3125,883.0667 Q72.9688,883.2229 73.5156,883.5823 Z " fill="#000000"/><text fill="#000000" font-family="Verdana" font-size="12" lengthAdjust="spacing" textLength="75" x="88.25" y="892.4798">:ClientGioco</text><line style="stroke:#000000;stroke-width:1.0;" x1="13" x2="211" y1="901.7073" y2="901.7073"/><line style="stroke:#000000;stroke-width:1.0;" x1="13" x2="211" y1="909.7073" y2="909.7073"/></g><!--class controller--><g id="elem_controller"><rect codeLine="13" fill="#D3D3D3" height="44" id="controller" rx="2.5" ry="2.5" style="stroke:#000000;stroke-width:1.0;" width="200" x="758" y="873.7073"/><ellipse cx="795.75" cy="887.7073" fill="#FFFFFF" rx="9" ry="9" style="stroke:#000000;stroke-width:1.0;"/><path d="M798.5156,883.5823 Q798.6719,883.3636 798.8594,883.2542 Q799.0469,883.1448 799.2656,883.1448 Q799.6406,883.1448 799.875,883.4104 Q800.1094,883.6604 800.1094,884.2698 L800.1094,885.7229 Q800.1094,886.3323 799.875,886.5979 Q799.6406,886.8636 799.2656,886.8636 Q798.9219,886.8636 798.7188,886.6604 Q798.5156,886.4729 798.4063,885.9573 Q798.3594,885.5979 798.1719,885.4104 Q797.8438,885.0354 797.2344,884.8167 Q796.625,884.5979 796,884.5979 Q795.2344,884.5979 794.5938,884.9261 Q793.9688,885.2542 793.4688,886.0042 Q792.9844,886.7542 792.9844,887.7854 L792.9844,888.8792 Q792.9844,890.1136 793.875,890.9417 Q794.7656,891.7542 796.3594,891.7542 Q797.2969,891.7542 797.9531,891.5042 Q798.3438,891.3479 798.7656,890.9104 Q799.0313,890.6448 799.1719,890.5667 Q799.3281,890.4886 799.5313,890.4886 Q799.8594,890.4886 800.1094,890.7542 Q800.375,891.0042 800.375,891.3479 Q800.375,891.6917 800.0313,892.0979 Q799.5313,892.6761 798.7344,893.0042 Q797.6563,893.4573 796.3594,893.4573 Q794.8438,893.4573 793.6406,892.8323 Q792.6563,892.3323 791.9688,891.2698 Q791.2813,890.1917 791.2813,888.9104 L791.2813,887.7542 Q791.2813,886.4261 791.8906,885.2854 Q792.5156,884.1292 793.6094,883.5198 Q794.7031,882.8948 795.9375,882.8948 Q796.6719,882.8948 797.3125,883.0667 Q797.9688,883.2229 798.5156,883.5823 Z " fill="#000000"/><text fill="#000000" font-family="Verdana" font-size="12" lengthAdjust="spacing" textLength="117" x="813.25" y="892.4798">:ControllerRecords</text><line style="stroke:#000000;stroke-width:1.0;" x1="759" x2="957" y1="901.7073" y2="901.7073"/><line style="stroke:#000000;stroke-width:1.0;" x1="759" x2="957" y1="909.7073" y2="909.7073"/></g><!--class recordsService--><g id="elem_recordsService"><rect codeLine="14" fill="#90EE90" height="44" id="recordsService" rx="2.5" ry="2.5" style="stroke:#000000;stroke-width:1.0;" width="200" x="1469" y="873.7073"/><ellipse cx="1513.25" cy="887.7073" fill="#FFFFFF" rx="9" ry="9" style="stroke:#000000;stroke-width:1.0;"/><path d="M1516.0156,883.5823 Q1516.1719,883.3636 1516.3594,883.2542 Q1516.5469,883.1448 1516.7656,883.1448 Q1517.1406,883.1448 1517.375,883.4104 Q1517.6094,883.6604 1517.6094,884.2698 L1517.6094,885.7229 Q1517.6094,886.3323 1517.375,886.5979 Q1517.1406,886.8636 1516.7656,886.8636 Q1516.4219,886.8636 1516.2188,886.6604 Q1516.0156,886.4729 1515.9063,885.9573 Q1515.8594,885.5979 1515.6719,885.4104 Q1515.3438,885.0354 1514.7344,884.8167 Q1514.125,884.5979 1513.5,884.5979 Q1512.7344,884.5979 1512.0938,884.9261 Q1511.4688,885.2542 1510.9688,886.0042 Q1510.4844,886.7542 1510.4844,887.7854 L1510.4844,888.8792 Q1510.4844,890.1136 1511.375,890.9417 Q1512.2656,891.7542 1513.8594,891.7542 Q1514.7969,891.7542 1515.4531,891.5042 Q1515.8438,891.3479 1516.2656,890.9104 Q1516.5313,890.6448 1516.6719,890.5667 Q1516.8281,890.4886 1517.0313,890.4886 Q1517.3594,890.4886 1517.6094,890.7542 Q1517.875,891.0042 1517.875,891.3479 Q1517.875,891.6917 1517.5313,892.0979 Q1517.0313,892.6761 1516.2344,893.0042 Q1515.1563,893.4573 1513.8594,893.4573 Q1512.3438,893.4573 1511.1406,892.8323 Q1510.1563,892.3323 1509.4688,891.2698 Q1508.7813,890.1917 1508.7813,888.9104 L1508.7813,887.7542 Q1508.7813,886.4261 1509.3906,885.2854 Q1510.0156,884.1292 1511.1094,883.5198 Q1512.2031,882.8948 1513.4375,882.8948 Q1514.1719,882.8948 1514.8125,883.0667 Q1515.4688,883.2229 1516.0156,883.5823 Z " fill="#000000"/><text fill="#000000" font-family="Verdana" font-size="12" lengthAdjust="spacing" textLength="104" x="1530.75" y="892.4798">:ServizioRecords</text><line style="stroke:#000000;stroke-width:1.0;" x1="1470" x2="1668" y1="901.7073" y2="901.7073"/><line style="stroke:#000000;stroke-width:1.0;" x1="1470" x2="1668" y1="909.7073" y2="909.7073"/></g><!--class statsService--><g id="elem_statsService"><rect codeLine="15" fill="#FFFF00" height="44" id="statsService" rx="2.5" ry="2.5" style="stroke:#000000;stroke-width:1.0;" width="200" x="3372" y="873.7073"/><ellipse cx="3408.4" cy="887.7073" fill="#FFFFFF" rx="9" ry="9" style="stroke:#000000;stroke-width:1.0;"/><path d="M3411.1656,883.5823 Q3411.3219,883.3636 3411.5094,883.2542 Q3411.6969,883.1448 3411.9156,883.1448 Q3412.2906,883.1448 3412.525,883.4104 Q3412.7594,883.6604 3412.7594,884.2698 L3412.7594,885.7229 Q3412.7594,886.3323 3412.525,886.5979 Q3412.2906,886.8636 3411.9156,886.8636 Q3411.5719,886.8636 3411.3688,886.6604 Q3411.1656,886.4729 3411.0563,885.9573 Q3411.0094,885.5979 3410.8219,885.4104 Q3410.4938,885.0354 3409.8844,884.8167 Q3409.275,884.5979 3408.65,884.5979 Q3407.8844,884.5979 3407.2438,884.9261 Q3406.6188,885.2542 3406.1188,886.0042 Q3405.6344,886.7542 3405.6344,887.7854 L3405.6344,888.8792 Q3405.6344,890.1136 3406.525,890.9417 Q3407.4156,891.7542 3409.0094,891.7542 Q3409.9469,891.7542 3410.6031,891.5042 Q3410.9938,891.3479 3411.4156,890.9104 Q3411.6813,890.6448 3411.8219,890.5667 Q3411.9781,890.4886 3412.1813,890.4886 Q3412.5094,890.4886 3412.7594,890.7542 Q3413.025,891.0042 3413.025,891.3479 Q3413.025,891.6917 3412.6813,892.0979 Q3412.1813,892.6761 3411.3844,893.0042 Q3410.3063,893.4573 3409.0094,893.4573 Q3407.4938,893.4573 3406.2906,892.8323 Q3405.3063,892.3323 3404.6188,891.2698 Q3403.9313,890.1917 3403.9313,888.9104 L3403.9313,887.7542 Q3403.9313,886.4261 3404.5406,885.2854 Q3405.1656,884.1292 3406.2594,883.5198 Q3407.3531,882.8948 3408.5875,882.8948 Q3409.3219,882.8948 3409.9625,883.0667 Q3410.6188,883.2229 3411.1656,883.5823 Z " fill="#000000"/><text fill="#000000" font-family="Verdana" font-size="12" lengthAdjust="spacing" textLength="120" x="3425.6" y="892.4798">:ServizioStatistiche</text><line style="stroke:#000000;stroke-width:1.0;" x1="3373" x2="3571" y1="901.7073" y2="901.7073"/><line style="stroke:#000000;stroke-width:1.0;" x1="3373" x2="3571" y1="909.7073" y2="909.7073"/></g><!--class leaderboardService--><g id="elem_leaderboardService"><rect codeLine="16" fill="#FFA500" height="44" id="leaderboardService" rx="2.5" ry="2.5" style="stroke:#000000;stroke-width:1.0;" width="200" x="2208" y="873.7073"/><ellipse cx="2244.4" cy="887.7073" fill="#FFFFFF" rx="9" ry="9" style="stroke:#000000;stroke-width:1.0;"/><path d="M2247.1656,883.5823 Q2247.3219,883.3636 2247.5094,883.2542 Q2247.6969,883.1448 2247.9156,883.1448 Q2248.2906,883.1448 2248.525,883.4104 Q2248.7594,883.6604 2248.7594,884.2698 L2248.7594,885.7229 Q2248.7594,886.3323 2248.525,886.5979 Q2248.2906,886.8636 2247.9156,886.8636 Q2247.5719,886.8636 2247.3688,886.6604 Q2247.1656,886.4729 2247.0563,885.9573 Q2247.0094,885.5979 2246.8219,885.4104 Q2246.4938,885.0354 2245.8844,884.8167 Q2245.275,884.5979 2244.65,884.5979 Q2243.8844,884.5979 2243.2438,884.9261 Q2242.6188,885.2542 2242.1188,886.0042 Q2241.6344,886.7542 2241.6344,887.7854 L2241.6344,888.8792 Q2241.6344,890.1136 2242.525,890.9417 Q2243.4156,891.7542 2245.0094,891.7542 Q2245.9469,891.7542 2246.6031,891.5042 Q2246.9938,891.3479 2247.4156,890.9104 Q2247.6813,890.6448 2247.8219,890.5667 Q2247.9781,890.4886 2248.1813,890.4886 Q2248.5094,890.4886 2248.7594,890.7542 Q2249.025,891.0042 2249.025,891.3479 Q2249.025,891.6917 2248.6813,892.0979 Q2248.1813,892.6761 2247.3844,893.0042 Q2246.3063,893.4573 2245.0094,893.4573 Q2243.4938,893.4573 2242.2906,892.8323 Q2241.3063,892.3323 2240.6188,891.2698 Q2239.9313,890.1917 2239.9313,888.9104 L2239.9313,887.7542 Q2239.9313,886.4261 2240.5406,885.2854 Q2241.1656,884.1292 2242.2594,883.5198 Q2243.3531,882.8948 2244.5875,882.8948 Q2245.3219,882.8948 2245.9625,883.0667 Q2246.6188,883.2229 2247.1656,883.5823 Z " fill="#000000"/><text fill="#000000" font-family="Verdana" font-size="12" lengthAdjust="spacing" textLength="120" x="2261.6" y="892.4798">:ServizioClassifiche</text><line style="stroke:#000000;stroke-width:1.0;" x1="2209" x2="2407" y1="901.7073" y2="901.7073"/><line style="stroke:#000000;stroke-width:1.0;" x1="2209" x2="2407" y1="909.7073" y2="909.7073"/></g><!--class cache--><g id="elem_cache"><rect codeLine="17" fill="#FFC0CB" height="44" id="cache" rx="2.5" ry="2.5" style="stroke:#000000;stroke-width:1.0;" width="200" x="2790" y="873.7073"/><ellipse cx="2839.75" cy="887.7073" fill="#FFFFFF" rx="9" ry="9" style="stroke:#000000;stroke-width:1.0;"/><path d="M2842.5156,883.5823 Q2842.6719,883.3636 2842.8594,883.2542 Q2843.0469,883.1448 2843.2656,883.1448 Q2843.6406,883.1448 2843.875,883.4104 Q2844.1094,883.6604 2844.1094,884.2698 L2844.1094,885.7229 Q2844.1094,886.3323 2843.875,886.5979 Q2843.6406,886.8636 2843.2656,886.8636 Q2842.9219,886.8636 2842.7188,886.6604 Q2842.5156,886.4729 2842.4063,885.9573 Q2842.3594,885.5979 2842.1719,885.4104 Q2841.8438,885.0354 2841.2344,884.8167 Q2840.625,884.5979 2840,884.5979 Q2839.2344,884.5979 2838.5938,884.9261 Q2837.9688,885.2542 2837.4688,886.0042 Q2836.9844,886.7542 2836.9844,887.7854 L2836.9844,888.8792 Q2836.9844,890.1136 2837.875,890.9417 Q2838.7656,891.7542 2840.3594,891.7542 Q2841.2969,891.7542 2841.9531,891.5042 Q2842.3438,891.3479 2842.7656,890.9104 Q2843.0313,890.6448 2843.1719,890.5667 Q2843.3281,890.4886 2843.5313,890.4886 Q2843.8594,890.4886 2844.1094,890.7542 Q2844.375,891.0042 2844.375,891.3479 Q2844.375,891.6917 2844.0313,892.0979 Q2843.5313,892.6761 2842.7344,893.0042 Q2841.6563,893.4573 2840.3594,893.4573 Q2838.8438,893.4573 2837.6406,892.8323 Q2836.6563,892.3323 2835.9688,891.2698 Q2835.2813,890.1917 2835.2813,888.9104 L2835.2813,887.7542 Q2835.2813,886.4261 2835.8906,885.2854 Q2836.5156,884.1292 2837.6094,883.5198 Q2838.7031,882.8948 2839.9375,882.8948 Q2840.6719,882.8948 2841.3125,883.0667 Q2841.9688,883.2229 2842.5156,883.5823 Z " fill="#000000"/><text fill="#000000" font-family="Verdana" font-size="12" lengthAdjust="spacing" textLength="93" x="2857.25" y="892.4798">:ServizioCache</text><line style="stroke:#000000;stroke-width:1.0;" x1="2791" x2="2989" y1="901.7073" y2="901.7073"/><line style="stroke:#000000;stroke-width:1.0;" x1="2791" x2="2989" y1="909.7073" y2="909.7073"/></g><!--class database--><g id="elem_database"><rect codeLine="18" fill="#F08080" height="44" id="database" rx="2.5" ry="2.5" style="stroke:#000000;stroke-width:1.0;" width="200" x="4554" y="873.7073"/><ellipse cx="4617.25" cy="887.7073" fill="#FFFFFF" rx="9" ry="9" style="stroke:#000000;stroke-width:1.0;"/><path d="M4620.0156,883.5823 Q4620.1719,883.3636 4620.3594,883.2542 Q4620.5469,883.1448 4620.7656,883.1448 Q4621.1406,883.1448 4621.375,883.4104 Q4621.6094,883.6604 4621.6094,884.2698 L4621.6094,885.7229 Q4621.6094,886.3323 4621.375,886.5979 Q4621.1406,886.8636 4620.7656,886.8636 Q4620.4219,886.8636 4620.2188,886.6604 Q4620.0156,886.4729 4619.9063,885.9573 Q4619.8594,885.5979 4619.6719,885.4104 Q4619.3438,885.0354 4618.7344,884.8167 Q4618.125,884.5979 4617.5,884.5979 Q4616.7344,884.5979 4616.0938,884.9261 Q4615.4688,885.2542 4614.9688,886.0042 Q4614.4844,886.7542 4614.4844,887.7854 L4614.4844,888.8792 Q4614.4844,890.1136 4615.375,890.9417 Q4616.2656,891.7542 4617.8594,891.7542 Q4618.7969,891.7542 4619.4531,891.5042 Q4619.8438,891.3479 4620.2656,890.9104 Q4620.5313,890.6448 4620.6719,890.5667 Q4620.8281,890.4886 4621.0313,890.4886 Q4621.3594,890.4886 4621.6094,890.7542 Q4621.875,891.0042 4621.875,891.3479 Q4621.875,891.6917 4621.5313,892.0979 Q4621.0313,892.6761 4620.2344,893.0042 Q4619.1563,893.4573 4617.8594,893.4573 Q4616.3438,893.4573 4615.1406,892.8323 Q4614.1563,892.3323 4613.4688,891.2698 Q4612.7813,890.1917 4612.7813,888.9104 L4612.7813,887.7542 Q4612.7813,886.4261 4613.3906,885.2854 Q4614.0156,884.1292 4615.1094,883.5198 Q4616.2031,882.8948 4617.4375,882.8948 Q4618.1719,882.8948 4618.8125,883.0667 Q4619.4688,883.2229 4620.0156,883.5823 Z " fill="#000000"/><text fill="#000000" font-family="Verdana" font-size="12" lengthAdjust="spacing" textLength="66" x="4634.75" y="892.4798">:Database</text><line style="stroke:#000000;stroke-width:1.0;" x1="4555" x2="4753" y1="901.7073" y2="901.7073"/><line style="stroke:#000000;stroke-width:1.0;" x1="4555" x2="4753" y1="909.7073" y2="909.7073"/></g><g id="elem_GMN23"><path d="M292.5,835.2073 L292.5,891.7073 L212.16,895.7073 L292.5,899.7073 L292.5,955.8025 A0,0 0 0 0 292.5,955.8025 L547.5,955.8025 A0,0 0 0 0 547.5,955.8025 L547.5,845.2073 L537.5,835.2073 L292.5,835.2073 A0,0 0 0 0 292.5,835.2073 " fill="#ADD8E6" style="stroke:#000000;stroke-width:1.0;"/><path d="M537.5,835.2073 L537.5,845.2073 L547.5,845.2073 L537.5,835.2073 " fill="#ADD8E6" style="stroke:#000000;stroke-width:1.0;"/><text fill="#000000" font-family="Verdana" font-size="13" font-weight="bold" lengthAdjust="spacing" textLength="103" x="298.5" y="853.2771">Client di Gioco</text><text fill="#000000" font-family="Verdana" font-size="13" lengthAdjust="spacing" textLength="147" x="298.5" y="869.0764">- Invio risultati partita</text><text fill="#000000" font-family="Verdana" font-size="13" lengthAdjust="spacing" textLength="234" x="298.5" y="884.8758">- Ricezione aggiornamenti progressi</text><text fill="#000000" font-family="Verdana" font-size="13" lengthAdjust="spacing" textLength="195" x="298.5" y="900.6751">- Visualizzazione nuovo livello</text><text fill="#000000" font-family="Verdana" font-size="13" lengthAdjust="spacing" textLength="185" x="298.5" y="916.4744">- Display ranking aggiornato</text><text fill="#000000" font-family="Verdana" font-size="13" lengthAdjust="spacing" textLength="183" x="298.5" y="932.2737">- Gestione feedback utente</text><text fill="#000000" font-family="Verdana" font-size="13" lengthAdjust="spacing" textLength="190" x="298.5" y="948.073">- Retry automatico su errore</text></g><g id="elem_GMN26"><path d="M5170.5,835.2073 L5170.5,955.8025 L5423.5,955.8025 L5423.5,845.2073 L5413.5,835.2073 L5170.5,835.2073 " fill="#D3D3D3" style="stroke:#000000;stroke-width:1.0;"/><path d="M5413.5,835.2073 L5413.5,845.2073 L5423.5,845.2073 L5413.5,835.2073 " fill="#D3D3D3" style="stroke:#000000;stroke-width:1.0;"/><text fill="#000000" font-family="Verdana" font-size="13" font-weight="bold" lengthAdjust="spacing" textLength="134" x="5176.5" y="853.2771">Controller Records</text><text fill="#000000" font-family="Verdana" font-size="13" lengthAdjust="spacing" textLength="232" x="5176.5" y="869.0764">- Endpoint REST API (/api/records)</text><text fill="#000000" font-family="Verdana" font-size="13" lengthAdjust="spacing" textLength="160" x="5176.5" y="884.8758">- Validazione token JWT</text><text fill="#000000" font-family="Verdana" font-size="13" lengthAdjust="spacing" textLength="138" x="5176.5" y="900.6751">- Parsing dati partita</text><text fill="#000000" font-family="Verdana" font-size="13" lengthAdjust="spacing" textLength="147" x="5176.5" y="916.4744">- Response formatting</text><text fill="#000000" font-family="Verdana" font-size="13" lengthAdjust="spacing" textLength="142" x="5176.5" y="932.2737">- Error handling HTTP</text><text fill="#000000" font-family="Verdana" font-size="13" lengthAdjust="spacing" textLength="116" x="5176.5" y="948.073">- Request logging</text></g><g id="elem_GMN29"><path d="M4834,835.2073 L4834,955.8025 L5090,955.8025 L5090,845.2073 L5080,835.2073 L4834,835.2073 " fill="#90EE90" style="stroke:#000000;stroke-width:1.0;"/><path d="M5080,835.2073 L5080,845.2073 L5090,845.2073 L5080,835.2073 " fill="#90EE90" style="stroke:#000000;stroke-width:1.0;"/><text fill="#000000" font-family="Verdana" font-size="13" font-weight="bold" lengthAdjust="spacing" textLength="120" x="4840" y="853.2771">Servizio Records</text><text fill="#000000" font-family="Verdana" font-size="13" lengthAdjust="spacing" textLength="235" x="4840" y="869.0764">- Orchestratore principale processo</text><text fill="#000000" font-family="Verdana" font-size="13" lengthAdjust="spacing" textLength="210" x="4840" y="884.8758">- Gestione transazioni atomiche</text><text fill="#000000" font-family="Verdana" font-size="13" lengthAdjust="spacing" textLength="207" x="4840" y="900.6751">- Coordinamento aggiornamenti</text><text fill="#000000" font-family="Verdana" font-size="13" lengthAdjust="spacing" textLength="182" x="4840" y="916.4744">- Validazione business rules</text><text fill="#000000" font-family="Verdana" font-size="13" lengthAdjust="spacing" textLength="124" x="4840" y="932.2737">- Rollback su errori</text><text fill="#000000" font-family="Verdana" font-size="13" lengthAdjust="spacing" textLength="138" x="4840" y="948.073">- State management</text></g><g id="elem_GMN32"><path d="M3923,835.2073 L3923,891.7073 L3572.14,895.7073 L3923,899.7073 L3923,955.8025 A0,0 0 0 0 3923,955.8025 L4151,955.8025 A0,0 0 0 0 4151,955.8025 L4151,845.2073 L4141,835.2073 L3923,835.2073 A0,0 0 0 0 3923,835.2073 " fill="#FFFF00" style="stroke:#000000;stroke-width:1.0;"/><path d="M4141,835.2073 L4141,845.2073 L4151,845.2073 L4141,835.2073 " fill="#FFFF00" style="stroke:#000000;stroke-width:1.0;"/><text fill="#000000" font-family="Verdana" font-size="13" font-weight="bold" lengthAdjust="spacing" textLength="140" x="3929" y="853.2771">Servizio Statistiche</text><text fill="#000000" font-family="Verdana" font-size="13" lengthAdjust="spacing" textLength="195" x="3929" y="869.0764">- Calcoli statistiche avanzate</text><text fill="#000000" font-family="Verdana" font-size="13" lengthAdjust="spacing" textLength="188" x="3929" y="884.8758">- Sistema progressione livelli</text><text fill="#000000" font-family="Verdana" font-size="13" lengthAdjust="spacing" textLength="157" x="3929" y="900.6751">- Tracking achievement</text><text fill="#000000" font-family="Verdana" font-size="13" lengthAdjust="spacing" textLength="207" x="3929" y="916.4744">- Analisi performance giocatore</text><text fill="#000000" font-family="Verdana" font-size="13" lengthAdjust="spacing" textLength="180" x="3929" y="932.2737">- Calcolo medie e percentili</text><text fill="#000000" font-family="Verdana" font-size="13" lengthAdjust="spacing" textLength="123" x="3929" y="948.073">- Storico progressi</text></g><g id="elem_GMN35"><path d="M2488.5,835.2073 L2488.5,891.7073 L2408.03,895.7073 L2488.5,899.7073 L2488.5,955.8025 A0,0 0 0 0 2488.5,955.8025 L2709.5,955.8025 A0,0 0 0 0 2709.5,955.8025 L2709.5,845.2073 L2699.5,835.2073 L2488.5,835.2073 A0,0 0 0 0 2488.5,835.2073 " fill="#FFA500" style="stroke:#000000;stroke-width:1.0;"/><path d="M2699.5,835.2073 L2699.5,845.2073 L2709.5,845.2073 L2699.5,835.2073 " fill="#FFA500" style="stroke:#000000;stroke-width:1.0;"/><text fill="#000000" font-family="Verdana" font-size="13" font-weight="bold" lengthAdjust="spacing" textLength="140" x="2494.5" y="853.2771">Servizio Classifiche</text><text fill="#000000" font-family="Verdana" font-size="13" lengthAdjust="spacing" textLength="172" x="2494.5" y="869.0764">- Gestione ranking globale</text><text fill="#000000" font-family="Verdana" font-size="13" lengthAdjust="spacing" textLength="165" x="2494.5" y="884.8758">- Aggiornamenti posizioni</text><text fill="#000000" font-family="Verdana" font-size="13" lengthAdjust="spacing" textLength="181" x="2494.5" y="900.6751">- Cache management Redis</text><text fill="#000000" font-family="Verdana" font-size="13" lengthAdjust="spacing" textLength="174" x="2494.5" y="916.4744">- Classifiche per categoria</text><text fill="#000000" font-family="Verdana" font-size="13" lengthAdjust="spacing" textLength="160" x="2494.5" y="932.2737">- Seasonal leaderboards</text><text fill="#000000" font-family="Verdana" font-size="13" lengthAdjust="spacing" textLength="132" x="2494.5" y="948.073">- Real-time updates</text></g><g id="elem_GMN38"><path d="M3070.5,835.2073 L3070.5,891.7073 L2990.03,895.7073 L3070.5,899.7073 L3070.5,955.8025 A0,0 0 0 0 3070.5,955.8025 L3291.5,955.8025 A0,0 0 0 0 3291.5,955.8025 L3291.5,845.2073 L3281.5,835.2073 L3070.5,835.2073 A0,0 0 0 0 3070.5,835.2073 " fill="#FFC0CB" style="stroke:#000000;stroke-width:1.0;"/><path d="M3281.5,835.2073 L3281.5,845.2073 L3291.5,845.2073 L3281.5,835.2073 " fill="#FFC0CB" style="stroke:#000000;stroke-width:1.0;"/><text fill="#000000" font-family="Verdana" font-size="13" font-weight="bold" lengthAdjust="spacing" textLength="107" x="3076.5" y="853.2771">Servizio Cache</text><text fill="#000000" font-family="Verdana" font-size="13" lengthAdjust="spacing" textLength="128" x="3076.5" y="869.0764">- Redis cache layer</text><text fill="#000000" font-family="Verdana" font-size="13" lengthAdjust="spacing" textLength="159" x="3076.5" y="884.8758">- Invalidazione selettiva</text><text fill="#000000" font-family="Verdana" font-size="13" lengthAdjust="spacing" textLength="183" x="3076.5" y="900.6751">- Cache warming strategies</text><text fill="#000000" font-family="Verdana" font-size="13" lengthAdjust="spacing" textLength="126" x="3076.5" y="916.4744">- TTL management</text><text fill="#000000" font-family="Verdana" font-size="13" lengthAdjust="spacing" textLength="147" x="3076.5" y="932.2737">- Memory optimization</text><text fill="#000000" font-family="Verdana" font-size="13" lengthAdjust="spacing" textLength="144" x="3076.5" y="948.073">- Cluster coordination</text></g><g id="elem_GMN41"><path d="M4524.5,2017.2073 L4524.5,2137.8025 A0,0 0 0 0 4524.5,2137.8025 L4783.5,2137.8025 A0,0 0 0 0 4783.5,2137.8025 L4783.5,2027.2073 L4773.5,2017.2073 L4658,2017.2073 L4654,917.9373 L4650,2017.2073 L4524.5,2017.2073 A0,0 0 0 0 4524.5,2017.2073 " fill="#F08080" style="stroke:#000000;stroke-width:1.0;"/><path d="M4773.5,2017.2073 L4773.5,2027.2073 L4783.5,2027.2073 L4773.5,2017.2073 " fill="#F08080" style="stroke:#000000;stroke-width:1.0;"/><text fill="#000000" font-family="Verdana" font-size="13" font-weight="bold" lengthAdjust="spacing" textLength="114" x="4530.5" y="2035.2771">Database Layer</text><text fill="#000000" font-family="Verdana" font-size="13" lengthAdjust="spacing" textLength="231" x="4530.5" y="2051.0764">- GameRecords table (match data)</text><text fill="#000000" font-family="Verdana" font-size="13" lengthAdjust="spacing" textLength="238" x="4530.5" y="2066.8758">- UserStats table (player statistics)</text><text fill="#000000" font-family="Verdana" font-size="13" lengthAdjust="spacing" textLength="209" x="4530.5" y="2082.6751">- Leaderboards table (rankings)</text><text fill="#000000" font-family="Verdana" font-size="13" lengthAdjust="spacing" textLength="195" x="4530.5" y="2098.4744">- Transazioni ACID guarantee</text><text fill="#000000" font-family="Verdana" font-size="13" lengthAdjust="spacing" textLength="138" x="4530.5" y="2114.2737">- Backup automatico</text><text fill="#000000" font-family="Verdana" font-size="13" lengthAdjust="spacing" textLength="152" x="4530.5" y="2130.073">- Performance indexing</text></g><!--link client to controller--><g id="link_client_controller"><path codeLine="20" d="M122.63,873.4273 C184,747.5673 499.29,138.8973 758,354.2073 C918.92,488.1373 878.771,783.3037 863.491,867.5337 " fill="none" id="client-to-controller" style="stroke:#000000;stroke-width:1.0;"/><polygon fill="#000000" points="862.42,873.4373,867.9622,865.2958,863.3125,868.5176,860.0907,863.8679,862.42,873.4373" style="stroke:#000000;stroke-width:1.0;"/><text fill="#000000" font-family="Verdana" font-size="11" lengthAdjust="spacing" textLength="4" x="656" y="262.2664">&#160;</text><text fill="#000000" font-family="Verdana" font-size="11" lengthAdjust="spacing" textLength="4" x="656" y="275.635">&#160;</text><text fill="#000000" font-family="Verdana" font-size="11" lengthAdjust="spacing" textLength="4" x="559" y="289.0037">&#160;</text><text fill="#000000" font-family="Verdana" font-size="11" font-weight="bold" lengthAdjust="spacing" textLength="12" x="563" y="289.0037">1:</text><text fill="#000000" font-family="Verdana" font-size="11" lengthAdjust="spacing" textLength="178" x="579" y="289.0037">salvaRecord(token, datiPartita)</text></g><!--link controller to client--><g id="link_controller_client"><path codeLine="33" d="M862.42,873.4373 C877.7,789.2073 918.92,488.1373 758,354.2073 C499.29,138.8973 186.6297,742.1743 125.2597,868.0343 " fill="none" id="controller-to-client" style="stroke:#000000;stroke-width:1.0;"/><polygon fill="#000000" points="122.63,873.4273,130.1699,867.0909,124.8214,868.9331,122.9792,863.5846,122.63,873.4273" style="stroke:#000000;stroke-width:1.0;"/><text fill="#000000" font-family="Verdana" font-size="11" font-weight="bold" lengthAdjust="spacing" textLength="20" x="488.5" y="275.7664">14:</text><text fill="#000000" font-family="Verdana" font-size="11" lengthAdjust="spacing" textLength="315" x="512.5" y="275.7664">{successo: true, livello: 5, ranking: 127, punti: 15400}</text></g><!--link controller to recordsService--><g id="link_controller_recordsService"><path codeLine="21" d="M958.13,905.3473 C997.75,908.7073 1043.73,912.0573 1085.5,913.7073 C1199.19,918.1973 1227.81,918.1973 1341.5,913.7073 C1383.27,912.0573 1423.2715,909.2143 1462.8915,905.8543 " fill="none" id="controller-to-recordsService" style="stroke:#000000;stroke-width:1.0;"/><polygon fill="#000000" points="1468.87,905.3473,1459.5642,902.1221,1463.8879,905.7698,1460.2402,910.0935,1468.87,905.3473" style="stroke:#000000;stroke-width:1.0;"/><text fill="#000000" font-family="Verdana" font-size="11" font-weight="bold" lengthAdjust="spacing" textLength="12" x="1086.5" y="910.7664">2:</text><text fill="#000000" font-family="Verdana" font-size="11" lengthAdjust="spacing" textLength="238" x="1102.5" y="910.7664">elaboraRisultatiPartita(userId, datiPartita)</text></g><!--link recordsService to controller--><g id="link_recordsService_controller"><path codeLine="32" d="M1468.86,895.7073 C1333.57,895.7073 1099.77,895.7073 964.36,895.7073 " fill="none" id="recordsService-to-controller" style="stroke:#000000;stroke-width:1.0;"/><polygon fill="#000000" points="958.36,895.7073,967.36,899.7073,963.36,895.7073,967.36,891.7073,958.36,895.7073" style="stroke:#000000;stroke-width:1.0;"/><text fill="#000000" font-family="Verdana" font-size="11" font-weight="bold" lengthAdjust="spacing" textLength="20" x="999" y="889.7664">13:</text><text fill="#000000" font-family="Verdana" font-size="11" lengthAdjust="spacing" textLength="405" x="1023" y="889.7664">elaborazione_completata{nuovoLivello=5, ranking=127, punti=15400}</text></g><!--link recordsService to database--><g id="link_recordsService_database"><path codeLine="22" d="M1649.38,873.6873 C2102.09,750.6673 4321.48,160.6873 4554,354.2073 C4714.92,488.1373 4674.771,783.3037 4659.491,867.5337 " fill="none" id="recordsService-to-database" style="stroke:#000000;stroke-width:1.0;"/><polygon fill="#000000" points="4658.42,873.4373,4663.9622,865.2958,4659.3125,868.5176,4656.0907,863.8679,4658.42,873.4373" style="stroke:#000000;stroke-width:1.0;"/><text fill="#000000" font-family="Verdana" font-size="11" lengthAdjust="spacing" textLength="4" x="4480" y="262.2664">&#160;</text><text fill="#000000" font-family="Verdana" font-size="11" lengthAdjust="spacing" textLength="4" x="4480" y="275.635">&#160;</text><text fill="#000000" font-family="Verdana" font-size="11" font-weight="bold" lengthAdjust="spacing" textLength="12" x="4411" y="289.0037">3:</text><text fill="#000000" font-family="Verdana" font-size="11" lengthAdjust="spacing" textLength="126" x="4427" y="289.0037">BEGIN TRANSACTION</text></g><!--link recordsService to database--><g id="link_recordsService_database"><path codeLine="24" d="M1649.38,873.6873 C2102.09,750.6673 4321.48,160.6873 4554,354.2073 C4714.92,488.1373 4674.771,783.3037 4659.491,867.5337 " fill="none" id="recordsService-to-database-1" style="stroke:#000000;stroke-width:1.0;"/><polygon fill="#000000" points="4658.42,873.4373,4663.9622,865.2958,4659.3125,868.5176,4656.0907,863.8679,4658.42,873.4373" style="stroke:#000000;stroke-width:1.0;"/><text fill="#000000" font-family="Verdana" font-size="11" lengthAdjust="spacing" textLength="4" x="4480" y="249.2664">&#160;</text><text fill="#000000" font-family="Verdana" font-size="11" lengthAdjust="spacing" textLength="4" x="4480" y="262.635">&#160;</text><text fill="#000000" font-family="Verdana" font-size="11" lengthAdjust="spacing" textLength="4" x="4480" y="276.0037">&#160;</text><text fill="#000000" font-family="Verdana" font-size="11" lengthAdjust="spacing" textLength="4" x="4480" y="289.3723">&#160;</text><text fill="#000000" font-family="Verdana" font-size="11" font-weight="bold" lengthAdjust="spacing" textLength="12" x="4315.5" y="302.741">5:</text><text fill="#000000" font-family="Verdana" font-size="11" lengthAdjust="spacing" textLength="317" x="4331.5" y="302.741">INSERT INTO GameRecords VALUES (?, ?, ?, ?, NOW())</text></g><!--link recordsService to database--><g id="link_recordsService_database"><path codeLine="28" d="M1649.38,873.6873 C2102.09,750.6673 4321.48,160.6873 4554,354.2073 C4714.92,488.1373 4674.771,783.3037 4659.491,867.5337 " fill="none" id="recordsService-to-database-2" style="stroke:#000000;stroke-width:1.0;"/><polygon fill="#000000" points="4658.42,873.4373,4663.9622,865.2958,4659.3125,868.5176,4656.0907,863.8679,4658.42,873.4373" style="stroke:#000000;stroke-width:1.0;"/><text fill="#000000" font-family="Verdana" font-size="11" font-weight="bold" lengthAdjust="spacing" textLength="12" x="4405.5" y="275.7664">9:</text><text fill="#000000" font-family="Verdana" font-size="11" lengthAdjust="spacing" textLength="137" x="4421.5" y="275.7664">COMMIT TRANSACTION</text></g><!--link recordsService to recordsService--><g id="link_recordsService_recordsService"><path codeLine="23" d="M1578.97,873.6073 C1641.32,748.6173 1749,755.9873 1749,895.7073 C1749,1035.4273 1643.9983,1048.1664 1581.6483,923.1764 " fill="none" id="recordsService-to-recordsService" style="stroke:#000000;stroke-width:1.0;"/><polygon fill="#000000" points="1578.97,917.8073,1579.4081,927.6464,1581.2019,922.2815,1586.5668,924.0754,1578.97,917.8073" style="stroke:#000000;stroke-width:1.0;"/><text fill="#000000" font-family="Verdana" font-size="11" font-weight="bold" lengthAdjust="spacing" textLength="12" x="1755" y="900.2664">4:</text><text fill="#000000" font-family="Verdana" font-size="11" lengthAdjust="spacing" textLength="162" x="1771" y="900.2664">validaDatiPartita(datiPartita)</text></g><!--link recordsService to statsService--><g id="link_recordsService_statsService"><path codeLine="25" d="M1574.14,873.6073 C1595.19,788.8073 1683.63,483.1973 1888.5,367.7073 C2009.68,299.3973 2065.05,340.6073 2201.5,367.7073 C2717.52,470.1973 3280.8639,784.14 3429.5939,870.67 " fill="none" id="recordsService-to-statsService" style="stroke:#000000;stroke-width:1.0;"/><polygon fill="#000000" points="3434.78,873.6873,3429.0123,865.704,3430.4582,871.1729,3424.9893,872.6188,3434.78,873.6873" style="stroke:#000000;stroke-width:1.0;"/><text fill="#000000" font-family="Verdana" font-size="11" font-weight="bold" lengthAdjust="spacing" textLength="12" x="1889.5" y="275.7664">6:</text><text fill="#000000" font-family="Verdana" font-size="11" lengthAdjust="spacing" textLength="295" x="1905.5" y="275.7664">aggiornaStatisticheUtente(userId, statistichePartita)</text></g><!--link statsService to database--><g id="link_statsService_database"><path codeLine="26" d="M3467.73,873.6973 C3453.14,791.1373 3414.42,497.9473 3571.5,367.7073 C3944.13,58.7373 4524.2555,735.6814 4632.6055,868.9814 " fill="none" id="statsService-to-database" style="stroke:#000000;stroke-width:1.0;"/><polygon fill="#000000" points="4636.39,873.6373,4633.8172,864.1304,4633.2363,869.7574,4627.6093,869.1764,4636.39,873.6373" style="stroke:#000000;stroke-width:1.0;"/><text fill="#000000" font-family="Verdana" font-size="11" font-weight="bold" lengthAdjust="spacing" textLength="12" x="3572.5" y="275.7664">7:</text><text fill="#000000" font-family="Verdana" font-size="11" lengthAdjust="spacing" textLength="475" x="3588.5" y="275.7664">UPDATE UserStats SET punti += ?, uccisioni += ?, partite += 1 WHERE user_id = ?</text></g><!--link statsService to statsService--><g id="link_statsService_statsService"><path codeLine="27" d="M3481.97,873.6073 C3544.32,748.6173 3652,755.9873 3652,895.7073 C3652,1035.4273 3546.9983,1048.1664 3484.6483,923.1764 " fill="none" id="statsService-to-statsService" style="stroke:#000000;stroke-width:1.0;"/><polygon fill="#000000" points="3481.97,917.8073,3482.4081,927.6464,3484.2019,922.2815,3489.5668,924.0754,3481.97,917.8073" style="stroke:#000000;stroke-width:1.0;"/><text fill="#000000" font-family="Verdana" font-size="11" font-weight="bold" lengthAdjust="spacing" textLength="12" x="3658" y="900.2664">8:</text><text fill="#000000" font-family="Verdana" font-size="11" lengthAdjust="spacing" textLength="225" x="3674" y="900.2664">calcolaNuovoLivello(userId, puntiTotali)</text></g><!--link recordsService to leaderboardService--><g id="link_recordsService_leaderboardService"><path codeLine="29" d="M1669.05,895.7073 C1810.31,895.7073 2060.71,895.7073 2201.97,895.7073 " fill="none" id="recordsService-to-leaderboardService" style="stroke:#000000;stroke-width:1.0;"/><polygon fill="#000000" points="2207.97,895.7073,2198.97,891.7073,2202.97,895.7073,2198.97,899.7073,2207.97,895.7073" style="stroke:#000000;stroke-width:1.0;"/><text fill="#000000" font-family="Verdana" font-size="11" font-weight="bold" lengthAdjust="spacing" textLength="20" x="1814" y="889.7664">10:</text><text fill="#000000" font-family="Verdana" font-size="11" lengthAdjust="spacing" textLength="225" x="1838" y="889.7664">aggiornaClassifiche(userId, nuoviPunti)</text></g><!--link leaderboardService to cache--><g id="link_leaderboardService_cache"><path codeLine="30" d="M2304.63,873.5773 C2293.39,790.5873 2266.47,496.0873 2427,367.7073 C2504.06,306.0873 2566,314.3573 2649,367.7073 C2834.84,487.1673 2878.5006,783.3304 2887.3906,867.6104 " fill="none" id="leaderboardService-to-cache" style="stroke:#000000;stroke-width:1.0;"/><polygon fill="#000000" points="2888.02,873.5773,2891.0538,864.2074,2887.4955,868.6049,2883.098,865.0466,2888.02,873.5773" style="stroke:#000000;stroke-width:1.0;"/><text fill="#000000" font-family="Verdana" font-size="11" font-weight="bold" lengthAdjust="spacing" textLength="20" x="2428" y="275.7664">11:</text><text fill="#000000" font-family="Verdana" font-size="11" lengthAdjust="spacing" textLength="196" x="2452" y="275.7664">invalida_cache_classifiche(userId)</text></g><!--link leaderboardService to database--><g id="link_leaderboardService_database"><path codeLine="31" d="M2324.03,873.6973 C2388.11,787.8673 2636.45,475.1473 2928.5,367.7073 C3606.2,118.3973 4457.6453,742.4019 4621.4853,869.9319 " fill="none" id="leaderboardService-to-database" style="stroke:#000000;stroke-width:1.0;"/><polygon fill="#000000" points="4626.22,873.6173,4621.5749,864.9327,4622.2744,870.5461,4616.661,871.2457,4626.22,873.6173" style="stroke:#000000;stroke-width:1.0;"/><text fill="#000000" font-family="Verdana" font-size="11" font-weight="bold" lengthAdjust="spacing" textLength="20" x="2929.5" y="275.7664">12:</text><text fill="#000000" font-family="Verdana" font-size="11" lengthAdjust="spacing" textLength="593" x="2953.5" y="275.7664">SELECT ROW_NUMBER() OVER (ORDER BY punti DESC) as ranking FROM UserStats WHERE user_id = ?</text></g><!--link controller to GMN26--><g id="link_controller_GMN26"><path d="M886.67,873.6573 C970.45,810.7873 1224.41,631.2973 1469,570.2073 C2249.69,375.2273 4384.68,182.8873 5090,570.2073 C5192.58,626.5373 5251.57,757.6373 5278.68,835.1773 " fill="none" id="controller-GMN26" style="stroke:#000000;stroke-width:1.0;stroke-dasharray:7.0,7.0;"/></g><!--link recordsService to GMN29--><g id="link_recordsService_GMN29"><path d="M1599.17,873.6373 C1687.28,810.7373 1954.07,631.1573 2208,570.2073 C2758.15,438.1573 4257.78,298.4173 4754,570.2073 C4856.78,626.5073 4916.17,757.6173 4943.5,835.1673 " fill="none" id="recordsService-GMN29" style="stroke:#000000;stroke-width:1.0;stroke-dasharray:7.0,7.0;"/></g><!--SRC=[bLTjR-8u4FxEhvZT_KAvLWlTrqFgdIXakvmeL91kTT99bKccO3NOEJkXrwxklz_u9S4fT5SdLIA9PnxFC_FCs7rLh763a6UCYzQh5E-uG9X7mtWmlPX4a6HCwrPBttEHCyKsiE5YQBxTyBHOmsct6wnPuozI50l-XD0x3PQOKl9XjzGBbeHCKMCEdqCenSIz-TZhVkosMWKlCeG5gYr_uXBcc4YLQg1F1IkuBdYoHZY14MShSjumI3aCvQOKF67aG8pQKSQMKlat1m1NKXSdLqmHF3jgjNQiN_U76KTHN72PoDV0D54px_0cuwjriSnAR5eJCIMp39KFpVdKNxqV1VVOyAiOXLxAFTkb16jFH77GDSY0TTVqldD-n2oJ3mSTRHNvNUsO8KjHBILJQUrE2HChFEpEAiV4FC6Rd8lxXkM85Mp9j3DA_OldGnHPrchvh9xy5kQg3ty9yzVfzFgT3cYMRPbBKBkGzoYE3HYlonPu4iwpxFK9vTIWe2l_dEioAtRkxLAZ6gVF89-146mTlW-kqtbdKC-ZY_4KulbWkXWCu_5iUi3rG4JlZU-MPJnbeo2M_nb35Sa7WpQUBg9vJ3_n32xO1giM-JQON4SBQFz-3FNVT7RJFZgqGqCx9j2F1fgjLbmgmGAbNHTKDgoJftShTVmDh6RqdSudWtjzDHh44LmJY87Mi8XYo4jHSFZbpCHP9WdNrA_LUswnqRpruEPhD8_0H73BKw3rlHtts7mskoOiIsJ6fgNSoWdVclweUTZDOrbGPNvIW4xdLmCsd5rUZkEV2E10Onc0NZTCRj2DTJY2OkHN9gQZrW4GqpMszIoQxHKkdAfkxS9jiWVw4b23Mizsp2AQK3F3V7PpExs-F8_cxIEOVOlcq9xDH_Hp_gSlrYXQ38_ivAAPpSKAlindbq5PzokrdwD6-rC4xuAUjIFxDf6RF4C2PDz5KBkp3yVLlcUzqq- -XcUz3- -xtN-VpGO_RUm6jWM_Qv8OQYtxKAWIZo5pe7tOeVPX1qlF3hSb9EbGcKa6ykx0uG2qXpj2p55aZv5EXxwUm5XiwGHJrHpoecPsRKxPS0TK9OiDcWpdIj81GAMqLj_8bwhyzEGFCvkEAdHhCUAQplF7kY0LMk6MBv1wrNZU8QPBbjn3QVlPnO25UWHM5d93uIKIT0b8XxV25eeK3F4z-WVFEPk2tOeVI3uBaKXpoIaxysWHm-1g3EstBETllJAE756hPKVIJdxuuoQsApHbj26MxcKGTIu5wVXEAeg_82Etds40QoRIpFXzZUChR_ztITc0J5AAoFObYZyub0tFvpSJptAcgFDqeIZnYgvOYek4vompZzBghbaECXJQykL0BXlJjzPYA0cKEpN8fZRs4hKiAJE43QhCK3kIL05RvggKpijq9yA62RP2W_KY-ODNYWRju6Zmr8TspFBmQ02sPUA9UPqjw2lIJQtMjWdUYTY55oiAsQetMNFSkX3Dma0GNKrrHsMhB2WgoaXYinniBc63AKUw9P9bOfALLSGf1QJiNLkznFm7Tw86_s1wU_vrKQiUN6LoIQLt39hTBJMtHVUncrJjgaAIIhchOx2BeKJJly0LKN7INo3Jab8J1kthZomxAJZTyikSEePKyM8d1rUv9a6sesO3ygOqPL1LSorGeKQQrGNVie3J0rCRamdR4BZYNfrnF0b5Q3vTuaRI498v1Sr9CGJf4r2IQ8YuxmUxy8pBKXRKEeRCmIkdOLLTJ65YegyA5boQQ9cQj4q395bR63UFTaUQDyWj_Pt6_ToQ10MeJBqCl4KSTFfWE1x1ggJ_UcW4EtsSa_BBF1Z2RkW5UkSYnNyQ0-i_]--></g></svg>