<?xml version="1.0" encoding="us-ascii" standalone="no"?><svg xmlns="http://www.w3.org/2000/svg" xmlns:xlink="http://www.w3.org/1999/xlink" contentStyleType="text/css" height="1675px" preserveAspectRatio="none" style="width:1824px;height:1675px;background:#FFFFFF;" version="1.1" viewBox="0 0 1824 1675" width="1824px" zoomAndPan="magnify"><defs/><g><text fill="#000000" font-family="Verdana" font-size="22" font-weight="bold" lengthAdjust="spacing" textLength="702" x="559.75" y="37.1182">Servizio Records e Statistiche - Diagramma di Sequenza</text><rect fill="#FFFFFF" height="211.9639" style="stroke:#000000;stroke-width:1.0;" width="1792.5" x="15" y="632.541"/><rect fill="#FFFFFF" height="134.5659" style="stroke:none;stroke-width:1.0;" width="1792.5" x="15" y="709.939"/><line style="stroke:#000000;stroke-width:1.0;" x1="83" x2="83" y1="84.752" y2="1639.8892"/><line style="stroke:#000000;stroke-width:1.0;" x1="710" x2="710" y1="84.752" y2="1639.8892"/><line style="stroke:#000000;stroke-width:1.0;" x1="1168.5" x2="1168.5" y1="84.752" y2="1639.8892"/><line style="stroke:#000000;stroke-width:1.0;" x1="1661.5" x2="1661.5" y1="84.752" y2="1639.8892"/><line style="stroke:#000000;stroke-width:1.0;" x1="1759.5" x2="1759.5" y1="84.752" y2="1639.8892"/><rect fill="#FFFFFF" height="31.0146" rx="2.5" ry="2.5" style="stroke:#000000;stroke-width:1.0;" width="97" x="35" y="52.7373"/><text fill="#000000" font-family="Verdana" font-size="14" lengthAdjust="spacing" textLength="83" x="42" y="73.8125">Client Gioco</text><rect fill="#FFFFFF" height="31.0146" rx="2.5" ry="2.5" style="stroke:#000000;stroke-width:1.0;" width="97" x="35" y="1638.8892"/><text fill="#000000" font-family="Verdana" font-size="14" lengthAdjust="spacing" textLength="83" x="42" y="1659.9644">Client Gioco</text><rect fill="#FFFFFF" height="31.0146" rx="2.5" ry="2.5" style="stroke:#000000;stroke-width:1.0;" width="99" x="661" y="52.7373"/><text fill="#000000" font-family="Verdana" font-size="14" lengthAdjust="spacing" textLength="85" x="668" y="73.8125">API Records</text><rect fill="#FFFFFF" height="31.0146" rx="2.5" ry="2.5" style="stroke:#000000;stroke-width:1.0;" width="99" x="661" y="1638.8892"/><text fill="#000000" font-family="Verdana" font-size="14" lengthAdjust="spacing" textLength="85" x="668" y="1659.9644">API Records</text><rect fill="#FFFFFF" height="31.0146" rx="2.5" ry="2.5" style="stroke:#000000;stroke-width:1.0;" width="148" x="1094.5" y="52.7373"/><text fill="#000000" font-family="Verdana" font-size="14" lengthAdjust="spacing" textLength="134" x="1101.5" y="73.8125">Servizio Statistiche</text><rect fill="#FFFFFF" height="31.0146" rx="2.5" ry="2.5" style="stroke:#000000;stroke-width:1.0;" width="148" x="1094.5" y="1638.8892"/><text fill="#000000" font-family="Verdana" font-size="14" lengthAdjust="spacing" textLength="134" x="1101.5" y="1659.9644">Servizio Statistiche</text><rect fill="#FFFFFF" height="31.0146" rx="2.5" ry="2.5" style="stroke:#000000;stroke-width:1.0;" width="80" x="1621.5" y="52.7373"/><text fill="#000000" font-family="Verdana" font-size="14" lengthAdjust="spacing" textLength="66" x="1628.5" y="73.8125">Database</text><rect fill="#FFFFFF" height="31.0146" rx="2.5" ry="2.5" style="stroke:#000000;stroke-width:1.0;" width="80" x="1621.5" y="1638.8892"/><text fill="#000000" font-family="Verdana" font-size="14" lengthAdjust="spacing" textLength="66" x="1628.5" y="1659.9644">Database</text><rect fill="#FFFFFF" height="31.0146" rx="2.5" ry="2.5" style="stroke:#000000;stroke-width:1.0;" width="56" x="1731.5" y="52.7373"/><text fill="#000000" font-family="Verdana" font-size="14" lengthAdjust="spacing" textLength="42" x="1738.5" y="73.8125">Cache</text><rect fill="#FFFFFF" height="31.0146" rx="2.5" ry="2.5" style="stroke:#000000;stroke-width:1.0;" width="56" x="1731.5" y="1638.8892"/><text fill="#000000" font-family="Verdana" font-size="14" lengthAdjust="spacing" textLength="42" x="1738.5" y="1659.9644">Cache</text><rect fill="#FFFFFF" height="3" style="stroke:#FFFFFF;stroke-width:1.0;" width="1812.5" x="5" y="115.6516"/><line style="stroke:#000000;stroke-width:0.5;" x1="5" x2="1817.5" y1="115.6516" y2="115.6516"/><line style="stroke:#000000;stroke-width:0.5;" x1="5" x2="1817.5" y1="118.6516" y2="118.6516"/><rect fill="#FFFFFF" height="23.7993" style="stroke:#000000;stroke-width:1.0;" width="165" x="828.75" y="104.752"/><text fill="#000000" font-family="Verdana" font-size="13" font-weight="bold" lengthAdjust="spacing" textLength="147" x="834.75" y="121.8218">Salva Record Partita</text><polygon fill="#000000" points="698.5,156.3506,708.5,160.3506,698.5,164.3506,702.5,160.3506" style="stroke:#000000;stroke-width:1.0;"/><line style="stroke:#000000;stroke-width:1.0;" x1="83.5" x2="704.5" y1="160.3506" y2="160.3506"/><text fill="#000000" font-family="Verdana" font-size="13" lengthAdjust="spacing" textLength="500" x="90.5" y="155.6211">POST /records/save {token, punteggio, uccisioni, morti, durata, mappa_id}</text><line style="stroke:#000000;stroke-width:1.0;" x1="710.5" x2="752.5" y1="190.1499" y2="190.1499"/><line style="stroke:#000000;stroke-width:1.0;" x1="752.5" x2="752.5" y1="190.1499" y2="203.1499"/><line style="stroke:#000000;stroke-width:1.0;" x1="711.5" x2="752.5" y1="203.1499" y2="203.1499"/><polygon fill="#000000" points="721.5,199.1499,711.5,203.1499,721.5,207.1499,717.5,203.1499" style="stroke:#000000;stroke-width:1.0;"/><text fill="#000000" font-family="Verdana" font-size="13" lengthAdjust="spacing" textLength="95" x="717.5" y="185.4204">valida_token()</text><polygon fill="#000000" points="1649.5,228.9492,1659.5,232.9492,1649.5,236.9492,1653.5,232.9492" style="stroke:#000000;stroke-width:1.0;"/><line style="stroke:#000000;stroke-width:1.0;" x1="710.5" x2="1655.5" y1="232.9492" y2="232.9492"/><text fill="#000000" font-family="Verdana" font-size="13" lengthAdjust="spacing" textLength="139" x="717.5" y="228.2197">BEGIN TRANSACTION</text><polygon fill="#000000" points="1649.5,258.7485,1659.5,262.7485,1649.5,266.7485,1653.5,262.7485" style="stroke:#000000;stroke-width:1.0;"/><line style="stroke:#000000;stroke-width:1.0;" x1="710.5" x2="1655.5" y1="262.7485" y2="262.7485"/><text fill="#000000" font-family="Verdana" font-size="13" lengthAdjust="spacing" textLength="179" x="717.5" y="258.019">INSERT INTO GameRecords</text><polygon fill="#000000" points="721.5,288.5479,711.5,292.5479,721.5,296.5479,717.5,292.5479" style="stroke:#000000;stroke-width:1.0;"/><line style="stroke:#000000;stroke-width:1.0;" x1="715.5" x2="1660.5" y1="292.5479" y2="292.5479"/><text fill="#000000" font-family="Verdana" font-size="13" lengthAdjust="spacing" textLength="61" x="727.5" y="287.8184">record_id</text><polygon fill="#000000" points="1156.5,318.3472,1166.5,322.3472,1156.5,326.3472,1160.5,322.3472" style="stroke:#000000;stroke-width:1.0;"/><line style="stroke:#000000;stroke-width:1.0;" x1="710.5" x2="1162.5" y1="322.3472" y2="322.3472"/><text fill="#000000" font-family="Verdana" font-size="13" lengthAdjust="spacing" textLength="434" x="717.5" y="317.6177">aggiornaStatisticheGiocatore(user_id, punteggio, uccisioni, morti)</text><polygon fill="#000000" points="1649.5,348.1465,1659.5,352.1465,1649.5,356.1465,1653.5,352.1465" style="stroke:#000000;stroke-width:1.0;"/><line style="stroke:#000000;stroke-width:1.0;" x1="1168.5" x2="1655.5" y1="352.1465" y2="352.1465"/><text fill="#000000" font-family="Verdana" font-size="13" lengthAdjust="spacing" textLength="341" x="1175.5" y="347.417">UPDATE UserStats SET punti_totali += punteggio...</text><line style="stroke:#000000;stroke-width:1.0;" x1="1168.5" x2="1210.5" y1="381.9458" y2="381.9458"/><line style="stroke:#000000;stroke-width:1.0;" x1="1210.5" x2="1210.5" y1="381.9458" y2="394.9458"/><line style="stroke:#000000;stroke-width:1.0;" x1="1169.5" x2="1210.5" y1="394.9458" y2="394.9458"/><polygon fill="#000000" points="1179.5,390.9458,1169.5,394.9458,1179.5,398.9458,1175.5,394.9458" style="stroke:#000000;stroke-width:1.0;"/><text fill="#000000" font-family="Verdana" font-size="13" lengthAdjust="spacing" textLength="139" x="1175.5" y="377.2163">calcolaNuovoLivello()</text><polygon fill="#000000" points="721.5,420.7451,711.5,424.7451,721.5,428.7451,717.5,424.7451" style="stroke:#000000;stroke-width:1.0;"/><line style="stroke:#000000;stroke-width:1.0;" x1="715.5" x2="1167.5" y1="424.7451" y2="424.7451"/><text fill="#000000" font-family="Verdana" font-size="13" lengthAdjust="spacing" textLength="148" x="727.5" y="420.0156">statistiche_aggiornate</text><polygon fill="#000000" points="1649.5,450.5444,1659.5,454.5444,1649.5,458.5444,1653.5,454.5444" style="stroke:#000000;stroke-width:1.0;"/><line style="stroke:#000000;stroke-width:1.0;" x1="710.5" x2="1655.5" y1="454.5444" y2="454.5444"/><text fill="#000000" font-family="Verdana" font-size="13" lengthAdjust="spacing" textLength="55" x="717.5" y="449.8149">COMMIT</text><polygon fill="#000000" points="1747.5,480.3438,1757.5,484.3438,1747.5,488.3438,1751.5,484.3438" style="stroke:#000000;stroke-width:1.0;"/><line style="stroke:#000000;stroke-width:1.0;" x1="710.5" x2="1753.5" y1="484.3438" y2="484.3438"/><text fill="#000000" font-family="Verdana" font-size="13" lengthAdjust="spacing" textLength="177" x="717.5" y="479.6143">invalida_cache_classifica()</text><polygon fill="#000000" points="94.5,510.1431,84.5,514.1431,94.5,518.1431,90.5,514.1431" style="stroke:#000000;stroke-width:1.0;"/><line style="stroke:#000000;stroke-width:1.0;" x1="88.5" x2="709.5" y1="514.1431" y2="514.1431"/><text fill="#000000" font-family="Verdana" font-size="13" lengthAdjust="spacing" textLength="364" x="100.5" y="509.4136">{successo: true, nuovo_livello: 5, punti_totali: 12500}</text><rect fill="#FFFFFF" height="3" style="stroke:#FFFFFF;stroke-width:1.0;" width="1812.5" x="5" y="543.0427"/><line style="stroke:#000000;stroke-width:0.5;" x1="5" x2="1817.5" y1="543.0427" y2="543.0427"/><line style="stroke:#000000;stroke-width:0.5;" x1="5" x2="1817.5" y1="546.0427" y2="546.0427"/><rect fill="#FFFFFF" height="23.7993" style="stroke:#000000;stroke-width:1.0;" width="140" x="841.25" y="532.1431"/><text fill="#000000" font-family="Verdana" font-size="13" font-weight="bold" lengthAdjust="spacing" textLength="122" x="847.25" y="549.2129">Ottieni Classifica</text><polygon fill="#000000" points="698.5,583.7417,708.5,587.7417,698.5,591.7417,702.5,587.7417" style="stroke:#000000;stroke-width:1.0;"/><line style="stroke:#000000;stroke-width:1.0;" x1="83.5" x2="704.5" y1="587.7417" y2="587.7417"/><text fill="#000000" font-family="Verdana" font-size="13" lengthAdjust="spacing" textLength="169" x="90.5" y="583.0122">GET /records/leaderboard</text><polygon fill="#000000" points="1747.5,613.541,1757.5,617.541,1747.5,621.541,1751.5,617.541" style="stroke:#000000;stroke-width:1.0;"/><line style="stroke:#000000;stroke-width:1.0;" x1="710.5" x2="1753.5" y1="617.541" y2="617.541"/><text fill="#000000" font-family="Verdana" font-size="13" lengthAdjust="spacing" textLength="170" x="717.5" y="612.8115">ottieni_classifica_cache()</text><path d="M15,632.541 L79,632.541 L79,640.3403 L69,650.3403 L15,650.3403 L15,632.541 " fill="#FFFFFF" style="stroke:#000000;stroke-width:1.0;"/><rect fill="none" height="211.9639" style="stroke:#000000;stroke-width:1.0;" width="1792.5" x="15" y="632.541"/><text fill="#000000" font-family="Verdana" font-size="13" font-weight="bold" lengthAdjust="spacing" textLength="19" x="30" y="646.6108">alt</text><text fill="#000000" font-family="Verdana" font-size="11" font-weight="bold" lengthAdjust="spacing" textLength="73" x="94" y="645.6001">[Cache Hit]</text><polygon fill="#000000" points="721.5,668.1396,711.5,672.1396,721.5,676.1396,717.5,672.1396" style="stroke:#000000;stroke-width:1.0;"/><line style="stroke:#000000;stroke-width:1.0;" x1="715.5" x2="1758.5" y1="672.1396" y2="672.1396"/><text fill="#000000" font-family="Verdana" font-size="13" lengthAdjust="spacing" textLength="93" x="727.5" y="667.4102">dati_classifica</text><polygon fill="#000000" points="94.5,697.939,84.5,701.939,94.5,705.939,90.5,701.939" style="stroke:#000000;stroke-width:1.0;"/><line style="stroke:#000000;stroke-width:1.0;" x1="88.5" x2="709.5" y1="701.939" y2="701.939"/><text fill="#000000" font-family="Verdana" font-size="13" lengthAdjust="spacing" textLength="93" x="100.5" y="697.2095">dati_classifica</text><line style="stroke:#000000;stroke-width:1.0;stroke-dasharray:2.0,2.0;" x1="15" x2="1807.5" y1="710.939" y2="710.939"/><text fill="#000000" font-family="Verdana" font-size="11" font-weight="bold" lengthAdjust="spacing" textLength="83" x="20" y="721.998">[Cache Miss]</text><polygon fill="#000000" points="1649.5,743.1069,1659.5,747.1069,1649.5,751.1069,1653.5,747.1069" style="stroke:#000000;stroke-width:1.0;"/><line style="stroke:#000000;stroke-width:1.0;" x1="710.5" x2="1655.5" y1="747.1069" y2="747.1069"/><text fill="#000000" font-family="Verdana" font-size="13" lengthAdjust="spacing" textLength="266" x="717.5" y="742.3774">SELECT top 10 giocatori per punti_totali</text><polygon fill="#000000" points="721.5,772.9063,711.5,776.9063,721.5,780.9063,717.5,776.9063" style="stroke:#000000;stroke-width:1.0;"/><line style="stroke:#000000;stroke-width:1.0;" x1="715.5" x2="1660.5" y1="776.9063" y2="776.9063"/><text fill="#000000" font-family="Verdana" font-size="13" lengthAdjust="spacing" textLength="93" x="727.5" y="772.1768">dati_classifica</text><polygon fill="#000000" points="1747.5,802.7056,1757.5,806.7056,1747.5,810.7056,1751.5,806.7056" style="stroke:#000000;stroke-width:1.0;"/><line style="stroke:#000000;stroke-width:1.0;" x1="710.5" x2="1753.5" y1="806.7056" y2="806.7056"/><text fill="#000000" font-family="Verdana" font-size="13" lengthAdjust="spacing" textLength="186" x="717.5" y="801.9761">cache_classifica(dati, 300s)</text><polygon fill="#000000" points="94.5,832.5049,84.5,836.5049,94.5,840.5049,90.5,836.5049" style="stroke:#000000;stroke-width:1.0;"/><line style="stroke:#000000;stroke-width:1.0;" x1="88.5" x2="709.5" y1="836.5049" y2="836.5049"/><text fill="#000000" font-family="Verdana" font-size="13" lengthAdjust="spacing" textLength="93" x="100.5" y="831.7754">dati_classifica</text><rect fill="#FFFFFF" height="3" style="stroke:#FFFFFF;stroke-width:1.0;" width="1812.5" x="5" y="872.4045"/><line style="stroke:#000000;stroke-width:0.5;" x1="5" x2="1817.5" y1="872.4045" y2="872.4045"/><line style="stroke:#000000;stroke-width:0.5;" x1="5" x2="1817.5" y1="875.4045" y2="875.4045"/><rect fill="#FFFFFF" height="23.7993" style="stroke:#000000;stroke-width:1.0;" width="202" x="810.25" y="861.5049"/><text fill="#000000" font-family="Verdana" font-size="13" font-weight="bold" lengthAdjust="spacing" textLength="184" x="816.25" y="878.5747">Ottieni Statistiche Utente</text><polygon fill="#000000" points="698.5,913.1035,708.5,917.1035,698.5,921.1035,702.5,917.1035" style="stroke:#000000;stroke-width:1.0;"/><line style="stroke:#000000;stroke-width:1.0;" x1="83.5" x2="704.5" y1="917.1035" y2="917.1035"/><text fill="#000000" font-family="Verdana" font-size="13" lengthAdjust="spacing" textLength="194" x="90.5" y="912.374">GET /records/user?token=xxx</text><line style="stroke:#000000;stroke-width:1.0;" x1="710.5" x2="752.5" y1="946.9028" y2="946.9028"/><line style="stroke:#000000;stroke-width:1.0;" x1="752.5" x2="752.5" y1="946.9028" y2="959.9028"/><line style="stroke:#000000;stroke-width:1.0;" x1="711.5" x2="752.5" y1="959.9028" y2="959.9028"/><polygon fill="#000000" points="721.5,955.9028,711.5,959.9028,721.5,963.9028,717.5,959.9028" style="stroke:#000000;stroke-width:1.0;"/><text fill="#000000" font-family="Verdana" font-size="13" lengthAdjust="spacing" textLength="95" x="717.5" y="942.1733">valida_token()</text><polygon fill="#000000" points="1649.5,985.7021,1659.5,989.7021,1649.5,993.7021,1653.5,989.7021" style="stroke:#000000;stroke-width:1.0;"/><line style="stroke:#000000;stroke-width:1.0;" x1="710.5" x2="1655.5" y1="989.7021" y2="989.7021"/><text fill="#000000" font-family="Verdana" font-size="13" lengthAdjust="spacing" textLength="305" x="717.5" y="984.9727">SELECT * FROM UserStats WHERE user_id = ?</text><polygon fill="#000000" points="721.5,1015.5015,711.5,1019.5015,721.5,1023.5015,717.5,1019.5015" style="stroke:#000000;stroke-width:1.0;"/><line style="stroke:#000000;stroke-width:1.0;" x1="715.5" x2="1660.5" y1="1019.5015" y2="1019.5015"/><text fill="#000000" font-family="Verdana" font-size="13" lengthAdjust="spacing" textLength="122" x="727.5" y="1014.772">statistiche_utente</text><polygon fill="#000000" points="1649.5,1045.3008,1659.5,1049.3008,1649.5,1053.3008,1653.5,1049.3008" style="stroke:#000000;stroke-width:1.0;"/><line style="stroke:#000000;stroke-width:1.0;" x1="710.5" x2="1655.5" y1="1049.3008" y2="1049.3008"/><text fill="#000000" font-family="Verdana" font-size="13" lengthAdjust="spacing" textLength="469" x="717.5" y="1044.5713">SELECT partite recenti FROM GameRecords WHERE user_id = ? LIMIT 5</text><polygon fill="#000000" points="721.5,1075.1001,711.5,1079.1001,721.5,1083.1001,717.5,1079.1001" style="stroke:#000000;stroke-width:1.0;"/><line style="stroke:#000000;stroke-width:1.0;" x1="715.5" x2="1660.5" y1="1079.1001" y2="1079.1001"/><text fill="#000000" font-family="Verdana" font-size="13" lengthAdjust="spacing" textLength="98" x="727.5" y="1074.3706">partite_recenti</text><polygon fill="#000000" points="1156.5,1104.8994,1166.5,1108.8994,1156.5,1112.8994,1160.5,1108.8994" style="stroke:#000000;stroke-width:1.0;"/><line style="stroke:#000000;stroke-width:1.0;" x1="710.5" x2="1162.5" y1="1108.8994" y2="1108.8994"/><text fill="#000000" font-family="Verdana" font-size="13" lengthAdjust="spacing" textLength="155" x="717.5" y="1104.1699">calcolaRanking(user_id)</text><polygon fill="#000000" points="1649.5,1134.6987,1659.5,1138.6987,1649.5,1142.6987,1653.5,1138.6987" style="stroke:#000000;stroke-width:1.0;"/><line style="stroke:#000000;stroke-width:1.0;" x1="1168.5" x2="1655.5" y1="1138.6987" y2="1138.6987"/><text fill="#000000" font-family="Verdana" font-size="13" lengthAdjust="spacing" textLength="469" x="1175.5" y="1133.9692">SELECT COUNT(*) FROM UserStats WHERE punti_totali &gt; punti_utente</text><polygon fill="#000000" points="1179.5,1164.498,1169.5,1168.498,1179.5,1172.498,1175.5,1168.498" style="stroke:#000000;stroke-width:1.0;"/><line style="stroke:#000000;stroke-width:1.0;" x1="1173.5" x2="1660.5" y1="1168.498" y2="1168.498"/><text fill="#000000" font-family="Verdana" font-size="13" lengthAdjust="spacing" textLength="174" x="1185.5" y="1163.7686">conteggio_giocatori_sopra</text><polygon fill="#000000" points="721.5,1194.2974,711.5,1198.2974,721.5,1202.2974,717.5,1198.2974" style="stroke:#000000;stroke-width:1.0;"/><line style="stroke:#000000;stroke-width:1.0;" x1="715.5" x2="1167.5" y1="1198.2974" y2="1198.2974"/><text fill="#000000" font-family="Verdana" font-size="13" lengthAdjust="spacing" textLength="99" x="727.5" y="1193.5679">ranking_utente</text><polygon fill="#000000" points="94.5,1224.0967,84.5,1228.0967,94.5,1232.0967,90.5,1228.0967" style="stroke:#000000;stroke-width:1.0;"/><line style="stroke:#000000;stroke-width:1.0;" x1="88.5" x2="709.5" y1="1228.0967" y2="1228.0967"/><text fill="#000000" font-family="Verdana" font-size="13" lengthAdjust="spacing" textLength="603" x="100.5" y="1223.3672">{statistiche: statistiche_utente, partite_recenti: partite_recenti, ranking: ranking_utente}</text><rect fill="#FFFFFF" height="3" style="stroke:#FFFFFF;stroke-width:1.0;" width="1812.5" x="5" y="1256.9963"/><line style="stroke:#000000;stroke-width:0.5;" x1="5" x2="1817.5" y1="1256.9963" y2="1256.9963"/><line style="stroke:#000000;stroke-width:0.5;" x1="5" x2="1817.5" y1="1259.9963" y2="1259.9963"/><rect fill="#FFFFFF" height="23.7993" style="stroke:#000000;stroke-width:1.0;" width="219" x="801.75" y="1246.0967"/><text fill="#000000" font-family="Verdana" font-size="13" font-weight="bold" lengthAdjust="spacing" textLength="201" x="807.75" y="1263.1665">Genera Report Performance</text><polygon fill="#000000" points="698.5,1297.6953,708.5,1301.6953,698.5,1305.6953,702.5,1301.6953" style="stroke:#000000;stroke-width:1.0;"/><line style="stroke:#000000;stroke-width:1.0;" x1="83.5" x2="704.5" y1="1301.6953" y2="1301.6953"/><text fill="#000000" font-family="Verdana" font-size="13" lengthAdjust="spacing" textLength="320" x="90.5" y="1296.9658">GET /records/report?token=xxx&amp;periodo=mensile</text><line style="stroke:#000000;stroke-width:1.0;" x1="710.5" x2="752.5" y1="1331.4946" y2="1331.4946"/><line style="stroke:#000000;stroke-width:1.0;" x1="752.5" x2="752.5" y1="1331.4946" y2="1344.4946"/><line style="stroke:#000000;stroke-width:1.0;" x1="711.5" x2="752.5" y1="1344.4946" y2="1344.4946"/><polygon fill="#000000" points="721.5,1340.4946,711.5,1344.4946,721.5,1348.4946,717.5,1344.4946" style="stroke:#000000;stroke-width:1.0;"/><text fill="#000000" font-family="Verdana" font-size="13" lengthAdjust="spacing" textLength="95" x="717.5" y="1326.7651">valida_token()</text><polygon fill="#000000" points="1649.5,1370.2939,1659.5,1374.2939,1649.5,1378.2939,1653.5,1374.2939" style="stroke:#000000;stroke-width:1.0;"/><line style="stroke:#000000;stroke-width:1.0;" x1="710.5" x2="1655.5" y1="1374.2939" y2="1374.2939"/><text fill="#000000" font-family="Verdana" font-size="13" lengthAdjust="spacing" textLength="492" x="717.5" y="1369.5645">SELECT partite FROM GameRecords WHERE user_id = ? AND creato_il &gt;= ?</text><polygon fill="#000000" points="721.5,1400.0933,711.5,1404.0933,721.5,1408.0933,717.5,1404.0933" style="stroke:#000000;stroke-width:1.0;"/><line style="stroke:#000000;stroke-width:1.0;" x1="715.5" x2="1660.5" y1="1404.0933" y2="1404.0933"/><text fill="#000000" font-family="Verdana" font-size="13" lengthAdjust="spacing" textLength="77" x="727.5" y="1399.3638">dati_partite</text><polygon fill="#000000" points="1156.5,1429.8926,1166.5,1433.8926,1156.5,1437.8926,1160.5,1433.8926" style="stroke:#000000;stroke-width:1.0;"/><line style="stroke:#000000;stroke-width:1.0;" x1="710.5" x2="1162.5" y1="1433.8926" y2="1433.8926"/><text fill="#000000" font-family="Verdana" font-size="13" lengthAdjust="spacing" textLength="177" x="717.5" y="1429.1631">generaReport(dati_partite)</text><line style="stroke:#000000;stroke-width:1.0;" x1="1168.5" x2="1210.5" y1="1463.6919" y2="1463.6919"/><line style="stroke:#000000;stroke-width:1.0;" x1="1210.5" x2="1210.5" y1="1463.6919" y2="1476.6919"/><line style="stroke:#000000;stroke-width:1.0;" x1="1169.5" x2="1210.5" y1="1476.6919" y2="1476.6919"/><polygon fill="#000000" points="1179.5,1472.6919,1169.5,1476.6919,1179.5,1480.6919,1175.5,1476.6919" style="stroke:#000000;stroke-width:1.0;"/><text fill="#000000" font-family="Verdana" font-size="13" lengthAdjust="spacing" textLength="104" x="1175.5" y="1458.9624">calcolaMediae()</text><line style="stroke:#000000;stroke-width:1.0;" x1="1168.5" x2="1210.5" y1="1506.4912" y2="1506.4912"/><line style="stroke:#000000;stroke-width:1.0;" x1="1210.5" x2="1210.5" y1="1506.4912" y2="1519.4912"/><line style="stroke:#000000;stroke-width:1.0;" x1="1169.5" x2="1210.5" y1="1519.4912" y2="1519.4912"/><polygon fill="#000000" points="1179.5,1515.4912,1169.5,1519.4912,1179.5,1523.4912,1175.5,1519.4912" style="stroke:#000000;stroke-width:1.0;"/><text fill="#000000" font-family="Verdana" font-size="13" lengthAdjust="spacing" textLength="136" x="1175.5" y="1501.7617">identificaTendenze()</text><line style="stroke:#000000;stroke-width:1.0;" x1="1168.5" x2="1210.5" y1="1549.2905" y2="1549.2905"/><line style="stroke:#000000;stroke-width:1.0;" x1="1210.5" x2="1210.5" y1="1549.2905" y2="1562.2905"/><line style="stroke:#000000;stroke-width:1.0;" x1="1169.5" x2="1210.5" y1="1562.2905" y2="1562.2905"/><polygon fill="#000000" points="1179.5,1558.2905,1169.5,1562.2905,1179.5,1566.2905,1175.5,1562.2905" style="stroke:#000000;stroke-width:1.0;"/><text fill="#000000" font-family="Verdana" font-size="13" lengthAdjust="spacing" textLength="109" x="1175.5" y="1544.561">generaInsights()</text><polygon fill="#000000" points="721.5,1588.0898,711.5,1592.0898,721.5,1596.0898,717.5,1592.0898" style="stroke:#000000;stroke-width:1.0;"/><line style="stroke:#000000;stroke-width:1.0;" x1="715.5" x2="1167.5" y1="1592.0898" y2="1592.0898"/><text fill="#000000" font-family="Verdana" font-size="13" lengthAdjust="spacing" textLength="130" x="727.5" y="1587.3604">report_performance</text><polygon fill="#000000" points="94.5,1617.8892,84.5,1621.8892,94.5,1625.8892,90.5,1621.8892" style="stroke:#000000;stroke-width:1.0;"/><line style="stroke:#000000;stroke-width:1.0;" x1="88.5" x2="709.5" y1="1621.8892" y2="1621.8892"/><text fill="#000000" font-family="Verdana" font-size="13" lengthAdjust="spacing" textLength="130" x="100.5" y="1617.1597">report_performance</text><!--SRC=[bLLDJzj04BtxLqmvL0araBRY4YcWuBWX4lbGRDIZDTXB6E5utTrDX43yzwxNwsGT4AMvMFREnvitxss-g0UsPb3cI8NdAL8vWuY9BJqJXoLBkSWaw4yA5Kb5wGE34nWHhWIkrmWPwUW_6rOye-ULA7G4bLWeE0foOlev9fxo8q09uw0TC5nCcWRcNB-t0tOmdEOcCehQWIDKU8UoFXnT7U309YqO1jUXvmq6466-HTiS5bMqGXWCl7409nSLa3uivb4CPwB6ToPno-15yKTM-51k2iLMA-8-RDAK9F62V5XpNSQ7R2Cq6lsAPOa9PQzUDMTJTOivPPYOGfrkSpIwwiDLE9xC85uEPz4mY2VpcNiucKNXCjQFU0vZN3DBcpUwsbMkaUg6JLuKzG4hbA90Xy1g7wYuO9sDP4B7VpXFrukY1iJjOZICGxZLQLKzlOOmDhcavr5wCFWssDSwFJsrkHMG5FEKvpZRy2s_eItBSzvfQXluSeymQL0hvd8GpAVJITnyCRli0nMMqRJQSfBcA2NTKufxSiT17rwa7en9oVkWn8RvK5H0ahn6qeTplpL87xx_EE_rNerMvaff8HC4kze7IXc7Zb1oXXaJTnn5TW2LrtKSZ3LeZTJ3N87HALoJya3_JDAkHQR9SH9DX3FUuJ7B9RFrfYIb6run6OKtOH23uYLyxy7A2eAWPA95Wybp9FO12ZlZcorKAJxyxFLazv-WYwp5jtlZt2fzbR2FUA_4V6biDNXwUlgavomHn_1hEPywmlvz7Iv3iFw00LowHdELkZ6utYbfRY2DMCFJ4LGtS9pxjWNSJBIyuTnjPQiajehhR6ke9HQFLAmQBxjsjKY2-UqixXnttv-nPTyB-sgdge6OPjoQEjc99P6y5EWwMDHG3ZYftRUdx3t-_CD1tqpkDzKFszGM7RE2YUe-B_MT1GicxhbOOv5-g1XXelUQ-QhbJppZWpKh9ENi_pJKBFmJYnxEHf0AfcbCA8UB0taPMzXgxi9NPiPwn8uRr7rxpKvPHiWwxWbb5O-LqM9jDFrttJwkgq_quAi79TjNSqrKKkvfTPVxpkbV]--></g></svg>