<?xml version="1.0" encoding="us-ascii" standalone="no"?><svg xmlns="http://www.w3.org/2000/svg" xmlns:xlink="http://www.w3.org/1999/xlink" contentStyleType="text/css" height="1344px" preserveAspectRatio="none" style="width:1394px;height:1344px;background:#FFFFFF;" version="1.1" viewBox="0 0 1394 1344" width="1394px" zoomAndPan="magnify"><defs/><g><text fill="#000000" font-family="Verdana" font-size="22" font-weight="bold" lengthAdjust="spacing" textLength="724" x="330.5" y="37.1182">Servizio Records e Statistiche - Diagramma dei Casi d'Uso</text><!--cluster Sistema Gestione Records--><g id="cluster_Sistema Gestione Records"><path d="M310.5,781.7373 L511.5,781.7373 A3.75,3.75 0 0 1 514,784.2373 L521,804.752 L1004.5,804.752 A2.5,2.5 0 0 1 1007,807.252 L1007,1277.2373 A2.5,2.5 0 0 1 1004.5,1279.7373 L310.5,1279.7373 A2.5,2.5 0 0 1 308,1277.2373 L308,784.2373 A2.5,2.5 0 0 1 310.5,781.7373 " fill="#FFFFFF" style="stroke:#000000;stroke-width:1.0;"/><line style="stroke:#000000;stroke-width:1.0;" x1="308" x2="521" y1="804.752" y2="804.752"/><text fill="#000000" font-family="Verdana" font-size="14" font-weight="bold" lengthAdjust="spacing" textLength="200" x="312" y="797.8125">Sistema Gestione Records</text></g><!--cluster Sistema Statistiche--><g id="cluster_Sistema Statistiche"><path d="M763.5,398.7373 L909.5,398.7373 A3.75,3.75 0 0 1 912,401.2373 L919,421.752 L1360.5,421.752 A2.5,2.5 0 0 1 1363,424.252 L1363,755.2373 A2.5,2.5 0 0 1 1360.5,757.7373 L763.5,757.7373 A2.5,2.5 0 0 1 761,755.2373 L761,401.2373 A2.5,2.5 0 0 1 763.5,398.7373 " fill="#FFFFFF" style="stroke:#000000;stroke-width:1.0;"/><line style="stroke:#000000;stroke-width:1.0;" x1="761" x2="919" y1="421.752" y2="421.752"/><text fill="#000000" font-family="Verdana" font-size="14" font-weight="bold" lengthAdjust="spacing" textLength="145" x="765" y="414.8125">Sistema Statistiche</text></g><!--cluster Sistema Analytics--><g id="cluster_Sistema Analytics"><path d="M1120.5,58.7373 L1255.5,58.7373 A3.75,3.75 0 0 1 1258,61.2373 L1265,81.752 L1384.5,81.752 A2.5,2.5 0 0 1 1387,84.252 L1387,314.2373 A2.5,2.5 0 0 1 1384.5,316.7373 L1120.5,316.7373 A2.5,2.5 0 0 1 1118,314.2373 L1118,61.2373 A2.5,2.5 0 0 1 1120.5,58.7373 " fill="#FFFFFF" style="stroke:#000000;stroke-width:1.0;"/><line style="stroke:#000000;stroke-width:1.0;" x1="1118" x2="1265" y1="81.752" y2="81.752"/><text fill="#000000" font-family="Verdana" font-size="14" font-weight="bold" lengthAdjust="spacing" textLength="134" x="1122" y="74.8125">Sistema Analytics</text></g><g id="elem_UC1"><ellipse cx="447.3543" cy="926.8082" fill="#FFFFFF" rx="88.3543" ry="20.0709" style="stroke:#000000;stroke-width:1.0;"/><text fill="#000000" font-family="Verdana" font-size="14" lengthAdjust="spacing" textLength="136" x="379.3543" y="930.376">Visualizza Classifica</text></g><g id="elem_UC2"><ellipse cx="447.7409" cy="844.8855" fill="#FFFFFF" rx="123.7409" ry="27.1482" style="stroke:#000000;stroke-width:1.0;"/><text fill="#000000" font-family="Verdana" font-size="14" lengthAdjust="spacing" textLength="214" x="340.7409" y="848.4534">Visualizza Statistiche Personali</text></g><g id="elem_UC3"><ellipse cx="447.3117" cy="1005.5996" fill="#FFFFFF" rx="104.8117" ry="23.3623" style="stroke:#000000;stroke-width:1.0;"/><text fill="#000000" font-family="Verdana" font-size="14" lengthAdjust="spacing" textLength="173" x="360.8117" y="1009.1675">Visualizza Storico Partite</text></g><g id="elem_UC4"><ellipse cx="900.5306" cy="945.7434" fill="#FFFFFF" rx="90.5306" ry="20.5061" style="stroke:#000000;stroke-width:1.0;"/><text fill="#000000" font-family="Verdana" font-size="14" lengthAdjust="spacing" textLength="141" x="830.0306" y="949.3113">Salva Record Partita</text></g><g id="elem_UC5"><ellipse cx="447.2975" cy="1081.4968" fill="#FFFFFF" rx="71.7975" ry="16.7595" style="stroke:#000000;stroke-width:1.0;"/><text fill="#000000" font-family="Verdana" font-size="14" lengthAdjust="spacing" textLength="96" x="397.5767" y="1085.5016">Filtra Records</text></g><g id="elem_UC6"><ellipse cx="447.4897" cy="1155.5352" fill="#FFFFFF" rx="94.4897" ry="21.2979" style="stroke:#000000;stroke-width:1.0;"/><text fill="#000000" font-family="Verdana" font-size="14" lengthAdjust="spacing" textLength="150" x="372.4897" y="1159.1031">Confronta Statistiche</text></g><g id="elem_UC7"><ellipse cx="447.3626" cy="1237.7098" fill="#FFFFFF" rx="115.3626" ry="25.4725" style="stroke:#000000;stroke-width:1.0;"/><text fill="#000000" font-family="Verdana" font-size="14" lengthAdjust="spacing" textLength="196" x="349.3626" y="1241.2777">Visualizza Classifiche Globali</text></g><g id="elem_UC9"><ellipse cx="900.4591" cy="717.8291" fill="#FFFFFF" rx="108.4591" ry="24.0918" style="stroke:#000000;stroke-width:1.0;"/><text fill="#000000" font-family="Verdana" font-size="14" lengthAdjust="spacing" textLength="181" x="809.9591" y="721.397">Calcola Ranking Giocatore</text></g><g id="elem_UC10"><ellipse cx="900.7409" cy="631.8855" fill="#FFFFFF" rx="123.7409" ry="27.1482" style="stroke:#000000;stroke-width:1.0;"/><text fill="#000000" font-family="Verdana" font-size="14" lengthAdjust="spacing" textLength="214" x="793.7409" y="635.4534">Aggiorna Statistiche Giocatore</text></g><g id="elem_UC11"><ellipse cx="900.4168" cy="458.9207" fill="#FFFFFF" rx="108.9168" ry="24.1834" style="stroke:#000000;stroke-width:1.0;"/><text fill="#000000" font-family="Verdana" font-size="14" lengthAdjust="spacing" textLength="182" x="809.4168" y="462.4885">Genera Report Statistiche</text></g><g id="elem_UC12"><ellipse cx="900.3626" cy="543.7098" fill="#FFFFFF" rx="115.3626" ry="25.4725" style="stroke:#000000;stroke-width:1.0;"/><text fill="#000000" font-family="Verdana" font-size="14" lengthAdjust="spacing" textLength="196" x="802.3626" y="547.2777">Traccia Progresso Giocatore</text></g><g id="elem_UC13"><ellipse cx="1252.4897" cy="478.5352" fill="#FFFFFF" rx="94.4897" ry="21.2979" style="stroke:#000000;stroke-width:1.0;"/><text fill="#000000" font-family="Verdana" font-size="14" lengthAdjust="spacing" textLength="150" x="1177.4897" y="482.1031">Calcola Achievements</text></g><g id="elem_UC14"><ellipse cx="1252.2661" cy="276.6905" fill="#FFFFFF" rx="105.2661" ry="23.4532" style="stroke:#000000;stroke-width:1.0;"/><text fill="#000000" font-family="Verdana" font-size="14" lengthAdjust="spacing" textLength="174" x="1165.2661" y="280.2584">Analizza Pattern di Gioco</text></g><g id="elem_UC15"><ellipse cx="1252.6889" cy="112.7751" fill="#FFFFFF" rx="78.1889" ry="18.0378" style="stroke:#000000;stroke-width:1.0;"/><text fill="#000000" font-family="Verdana" font-size="14" lengthAdjust="spacing" textLength="112" x="1196.6889" y="116.3429">Genera Insights</text></g><g id="elem_UC16"><ellipse cx="1252.6097" cy="191.8593" fill="#FFFFFF" rx="118.6097" ry="26.1219" style="stroke:#000000;stroke-width:1.0;"/><text fill="#000000" font-family="Verdana" font-size="14" lengthAdjust="spacing" textLength="203" x="1151.1097" y="195.4271">Traccia Metriche Performance</text></g><!--entity player--><g id="elem_player"><ellipse cx="44.5" cy="1018.7373" fill="#FFFFFF" rx="8" ry="8" style="stroke:#000000;stroke-width:1.0;"/><path d="M44.5,1026.7373 L44.5,1053.7373 M31.5,1034.7373 L57.5,1034.7373 M44.5,1053.7373 L31.5,1068.7373 M44.5,1053.7373 L57.5,1068.7373 " fill="none" style="stroke:#000000;stroke-width:1.0;"/><text fill="#000000" font-family="Verdana" font-size="14" lengthAdjust="spacing" textLength="67" x="11" y="1084.8125">Giocatore</text></g><!--entity system--><g id="elem_system"><ellipse cx="447.5" cy="358.7373" fill="#FFFFFF" rx="8" ry="8" style="stroke:#000000;stroke-width:1.0;"/><path d="M447.5,366.7373 L447.5,393.7373 M434.5,374.7373 L460.5,374.7373 M447.5,393.7373 L434.5,408.7373 M447.5,393.7373 L460.5,408.7373 " fill="none" style="stroke:#000000;stroke-width:1.0;"/><text fill="#000000" font-family="Verdana" font-size="14" lengthAdjust="spacing" textLength="56" x="419.5" y="424.8125">Sistema</text></g><g id="elem_GMN42"><path d="M812.5,1295.7373 L812.5,1337.3359 L988.5,1337.3359 L988.5,1305.7373 L978.5,1295.7373 L812.5,1295.7373 " fill="#FFFFFF" style="stroke:#000000;stroke-width:1.0;"/><path d="M978.5,1295.7373 L978.5,1305.7373 L988.5,1305.7373 L978.5,1295.7373 " fill="#FFFFFF" style="stroke:#000000;stroke-width:1.0;"/><text fill="#000000" font-family="Verdana" font-size="13" lengthAdjust="spacing" textLength="155" x="818.5" y="1313.8071">Mostra top 10 giocatori</text><text fill="#000000" font-family="Verdana" font-size="13" lengthAdjust="spacing" textLength="142" x="818.5" y="1329.6064">basato su punti totali</text></g><g id="elem_GMN45"><path d="M1152.5,924.7373 L1152.5,941.7373 L991.18,945.7373 L1152.5,949.7373 L1152.5,966.3359 A0,0 0 0 0 1152.5,966.3359 L1352.5,966.3359 A0,0 0 0 0 1352.5,966.3359 L1352.5,934.7373 L1342.5,924.7373 L1152.5,924.7373 A0,0 0 0 0 1152.5,924.7373 " fill="#FFFFFF" style="stroke:#000000;stroke-width:1.0;"/><path d="M1342.5,924.7373 L1342.5,934.7373 L1352.5,934.7373 L1342.5,924.7373 " fill="#FFFFFF" style="stroke:#000000;stroke-width:1.0;"/><text fill="#000000" font-family="Verdana" font-size="13" lengthAdjust="spacing" textLength="179" x="1158.5" y="942.8071">Scattata automaticamente</text><text fill="#000000" font-family="Verdana" font-size="13" lengthAdjust="spacing" textLength="113" x="1158.5" y="958.6064">dopo ogni partita</text></g><g id="elem_GMN48"><path d="M1159,773.7373 L1159,815.3359 L1346,815.3359 L1346,783.7373 L1336,773.7373 L1159,773.7373 " fill="#FFFFFF" style="stroke:#000000;stroke-width:1.0;"/><path d="M1336,773.7373 L1336,783.7373 L1346,783.7373 L1336,773.7373 " fill="#FFFFFF" style="stroke:#000000;stroke-width:1.0;"/><text fill="#000000" font-family="Verdana" font-size="13" lengthAdjust="spacing" textLength="166" x="1165" y="791.8071">Aggiorna uccisioni, morti,</text><text fill="#000000" font-family="Verdana" font-size="13" lengthAdjust="spacing" textLength="140" x="1165" y="807.6064">punti, tempo di gioco</text></g><!--link player to UC1--><g id="link_player_UC1"><path d="M78.27,1017.8573 C87.34,1010.6673 97.58,1003.6773 108,998.7373 C190.13,959.8573 285.4343,942.7175 356.1643,934.4375 " fill="none" id="player-to-UC1" style="stroke:#000000;stroke-width:1.0;"/><polygon fill="#000000" points="364.11,933.5073,355.8154,931.4578,356.5131,937.4171,364.11,933.5073" style="stroke:#000000;stroke-width:1.0;"/><text fill="#000000" font-family="Verdana" font-size="13" lengthAdjust="spacing" textLength="173" x="113.5" y="942.8071">visualizza migliori giocatori</text></g><!--link player to UC2--><g id="link_player_UC2"><path d="M54.78,1009.6473 C63.66,980.8173 79.96,942.8873 108,920.7373 C168.96,872.5673 248.4693,854.2392 318.2693,847.3192 " fill="none" id="player-to-UC2" style="stroke:#000000;stroke-width:1.0;"/><polygon fill="#000000" points="324.24,846.7273,314.8893,843.6347,319.2644,847.2206,315.6785,851.5957,324.24,846.7273" style="stroke:#000000;stroke-width:1.0;"/><text fill="#000000" font-family="Verdana" font-size="13" lengthAdjust="spacing" textLength="182" x="109" y="848.8071">controlla proprie statistiche</text></g><!--link player to UC3--><g id="link_player_UC3"><path d="M78.32,1045.2173 C137.52,1038.8673 258.2542,1025.927 346.3842,1016.477 " fill="none" id="player-to-UC3" style="stroke:#000000;stroke-width:1.0;"/><polygon fill="#000000" points="352.35,1015.8373,342.9748,1012.8197,347.3785,1016.3704,343.8278,1020.7741,352.35,1015.8373" style="stroke:#000000;stroke-width:1.0;"/><text fill="#000000" font-family="Verdana" font-size="13" lengthAdjust="spacing" textLength="146" x="127" y="1020.8071">rivede partite passate</text></g><!--link player to UC5--><g id="link_player_UC5"><path d="M78.07,1062.3173 C87.56,1065.6873 98.05,1068.8673 108,1070.7373 C199.89,1087.9773 302.2137,1088.2588 371.1137,1085.8288 " fill="none" id="player-to-UC5" style="stroke:#000000;stroke-width:1.0;"/><polygon fill="#000000" points="377.11,1085.6173,367.9746,1081.937,372.1131,1085.7935,368.2566,1089.932,377.11,1085.6173" style="stroke:#000000;stroke-width:1.0;"/><text fill="#000000" font-family="Verdana" font-size="13" lengthAdjust="spacing" textLength="151" x="124.5" y="1067.8071">filtra per tempo/mappa</text></g><!--link player to UC6--><g id="link_player_UC6"><path d="M76.19,1087.7373 C85.43,1097.0373 96.26,1105.9273 108,1111.7373 C185.02,1149.8373 277.3903,1158.8288 348.2103,1159.5188 " fill="none" id="player-to-UC6" style="stroke:#000000;stroke-width:1.0;"/><polygon fill="#000000" points="354.21,1159.5773,345.2494,1155.4898,349.2102,1159.5286,345.1715,1163.4894,354.21,1159.5773" style="stroke:#000000;stroke-width:1.0;"/><text fill="#000000" font-family="Verdana" font-size="13" lengthAdjust="spacing" textLength="131" x="134.5" y="1108.8071">confronta con amici</text></g><!--link player to UC7--><g id="link_player_UC7"><path d="M53.49,1087.9273 C61.81,1118.3373 77.99,1159.0273 108,1181.7373 C172.72,1230.7073 258.4308,1243.3193 330.0808,1244.4893 " fill="none" id="player-to-UC7" style="stroke:#000000;stroke-width:1.0;"/><polygon fill="#000000" points="336.08,1244.5873,327.1465,1240.4409,331.0807,1244.5057,327.0159,1248.4398,336.08,1244.5873" style="stroke:#000000;stroke-width:1.0;"/><text fill="#000000" font-family="Verdana" font-size="13" lengthAdjust="spacing" textLength="135" x="132.5" y="1178.8071">visualizza classifiche</text></g><!--link system to UC4--><g id="link_system_UC4"><path d="M459.92,428.0073 C493.82,544.3573 592.1,879.7273 601,887.7373 C631.94,915.5973 732.1308,930.5397 809.0508,938.3697 " fill="none" id="system-to-UC4" style="stroke:#000000;stroke-width:1.0;"/><polygon fill="#000000" points="815.02,938.9773,806.4714,934.0864,810.0457,938.471,805.6612,942.0453,815.02,938.9773" style="stroke:#000000;stroke-width:1.0;"/><text fill="#000000" font-family="Verdana" font-size="13" lengthAdjust="spacing" textLength="137" x="604.5" y="884.8071">salva risultati partita</text></g><!--link system to UC10--><g id="link_system_UC10"><path d="M475.58,419.6973 C504.15,450.7873 551.78,498.3173 601,528.7373 C666.75,569.3773 744.8234,594.986 806.9134,611.146 " fill="none" id="system-to-UC10" style="stroke:#000000;stroke-width:1.0;"/><polygon fill="#000000" points="812.72,612.6573,805.0177,606.5194,807.8812,611.3979,803.0027,614.2615,812.72,612.6573" style="stroke:#000000;stroke-width:1.0;"/><text fill="#000000" font-family="Verdana" font-size="13" lengthAdjust="spacing" textLength="142" x="602" y="525.8071">aggiorna dopo partita</text></g><!--link system to UC11--><g id="link_system_UC11"><path d="M475.7,392.9573 C540.64,403.0373 701.131,427.9471 805.061,444.0771 " fill="none" id="system-to-UC11" style="stroke:#000000;stroke-width:1.0;"/><polygon fill="#000000" points="810.99,444.9973,802.7099,439.6643,806.0492,444.2305,801.483,447.5697,810.99,444.9973" style="stroke:#000000;stroke-width:1.0;"/><text fill="#000000" font-family="Verdana" font-size="13" lengthAdjust="spacing" textLength="90" x="628" y="410.8071">genera report</text></g><!--link system to UC12--><g id="link_system_UC12"><path d="M475.76,403.0673 C505.83,418.4873 555.95,443.0373 601,459.7373 C674.07,486.8273 754.1176,508.6884 814.9576,523.8284 " fill="none" id="system-to-UC12" style="stroke:#000000;stroke-width:1.0;"/><polygon fill="#000000" points="820.78,525.2773,813.0123,519.2223,815.928,524.0699,811.0804,526.9856,820.78,525.2773" style="stroke:#000000;stroke-width:1.0;"/><text fill="#000000" font-family="Verdana" font-size="13" lengthAdjust="spacing" textLength="134" x="606" y="456.8071">traccia progressione</text></g><!--link system to UC13--><g id="link_system_UC13"><path d="M475.76,387.4873 C558.86,384.2373 815.97,378.2273 1024,416.7373 C1084.18,427.8773 1145.9267,445.3783 1191.6567,459.4883 " fill="none" id="system-to-UC13" style="stroke:#000000;stroke-width:1.0;"/><polygon fill="#000000" points="1197.39,461.2573,1189.9694,454.7816,1192.6123,459.7831,1187.6107,462.426,1197.39,461.2573" style="stroke:#000000;stroke-width:1.0;"/><text fill="#000000" font-family="Verdana" font-size="13" lengthAdjust="spacing" textLength="142" x="829.5" y="385.8071">calcola achievements</text></g><!--link system to UC14--><g id="link_system_UC14"><path d="M475.7,383.2873 C506.14,377.3073 556.98,367.6173 601,360.7373 C798.59,329.8673 1025.2693,302.5033 1151.8693,287.9333 " fill="none" id="system-to-UC14" style="stroke:#000000;stroke-width:1.0;"/><polygon fill="#000000" points="1157.83,287.2473,1148.4317,284.3025,1152.8628,287.819,1149.3463,292.2501,1157.83,287.2473" style="stroke:#000000;stroke-width:1.0;"/><text fill="#000000" font-family="Verdana" font-size="13" lengthAdjust="spacing" textLength="106" x="847.5" y="301.8071">analizza pattern</text></g><!--link system to UC15--><g id="link_system_UC15"><path d="M475.55,367.5073 C505.45,344.4573 555.42,307.1373 601,278.7373 C665.97,238.2573 680.56,222.4873 753,197.7373 C898.59,147.9873 1072.4925,127.0361 1171.4725,118.4461 " fill="none" id="system-to-UC15" style="stroke:#000000;stroke-width:1.0;"/><polygon fill="#000000" points="1177.45,117.9273,1168.1379,114.7204,1172.4687,118.3596,1168.8295,122.6905,1177.45,117.9273" style="stroke:#000000;stroke-width:1.0;"/><text fill="#000000" font-family="Verdana" font-size="13" lengthAdjust="spacing" textLength="100" x="850.5" y="133.8071">genera insights</text></g><!--link system to UC16--><g id="link_system_UC16"><path d="M475.69,376.2573 C505.92,362.6373 556.38,340.6473 601,324.7373 C787.61,258.1873 1010.9115,221.8321 1141.4315,204.6121 " fill="none" id="system-to-UC16" style="stroke:#000000;stroke-width:1.0;"/><polygon fill="#000000" points="1147.38,203.8273,1137.9341,201.0389,1142.423,204.4813,1138.9805,208.9701,1147.38,203.8273" style="stroke:#000000;stroke-width:1.0;"/><text fill="#000000" font-family="Verdana" font-size="13" lengthAdjust="spacing" textLength="108" x="846.5" y="219.8071">traccia metriche</text></g><!--link UC1 to UC9--><g id="link_UC1_UC9"><path d="M523.49,916.2773 C541.02,910.6273 558.27,901.9773 571,888.7373 C606.72,851.5973 563.37,811.9473 601,776.7373 C652.31,728.7373 724.8743,714.9153 788.5243,712.4953 " fill="none" id="UC1-to-UC9" style="stroke:#000000;stroke-width:1.0;stroke-dasharray:7.0,7.0;"/><polygon fill="#000000" points="794.52,712.2673,785.3745,708.6121,789.5236,712.4573,785.6785,716.6064,794.52,712.2673" style="stroke:#000000;stroke-width:1.0;"/><text fill="#000000" font-family="Verdana" font-size="13" lengthAdjust="spacing" textLength="46" x="650" y="714.8071">include</text></g><!--link UC2 to UC10--><g id="link_UC2_UC10"><path d="M467.33,818.0073 C493.26,783.3473 543.36,723.6773 601,692.7373 C656.57,662.9073 719.1948,648.4362 776.5948,640.6262 " fill="none" id="UC2-to-UC10" style="stroke:#000000;stroke-width:1.0;stroke-dasharray:7.0,7.0;"/><polygon fill="#000000" points="782.54,639.8173,773.0829,637.0672,777.5856,640.4914,774.1615,644.9942,782.54,639.8173" style="stroke:#000000;stroke-width:1.0;"/><text fill="#000000" font-family="Verdana" font-size="13" lengthAdjust="spacing" textLength="46" x="650" y="643.8071">include</text></g><!--link UC3 to UC4--><g id="link_UC3_UC4"><path d="M538.14,993.8073 C621.12,982.7773 737.2624,967.3187 816.1024,956.8287 " fill="none" id="UC3-to-UC4" style="stroke:#000000;stroke-width:1.0;stroke-dasharray:7.0,7.0;"/><polygon fill="#000000" points="822.05,956.0373,812.6011,953.2593,817.0937,956.6968,813.6562,961.1894,822.05,956.0373" style="stroke:#000000;stroke-width:1.0;"/><text fill="#000000" font-family="Verdana" font-size="13" lengthAdjust="spacing" textLength="46" x="650" y="964.8071">include</text></g><!--link UC7 to UC9--><g id="link_UC7_UC9"><path d="M535.67,1221.2373 C549.29,1215.0173 561.86,1206.4773 571,1194.7373 C616.52,1136.2873 557.35,922.5873 601,862.7373 C641.95,806.5773 682.39,831.9273 745,801.7373 C785.15,782.3773 824.5434,760.7416 855.4634,743.1716 " fill="none" id="UC7-to-UC9" style="stroke:#000000;stroke-width:1.0;stroke-dasharray:7.0,7.0;"/><polygon fill="#000000" points="860.68,740.2073,850.8789,741.176,856.3328,742.6775,854.8313,748.1315,860.68,740.2073" style="stroke:#000000;stroke-width:1.0;"/><text fill="#000000" font-family="Verdana" font-size="13" lengthAdjust="spacing" textLength="46" x="650" y="798.8071">include</text></g><!--link UC11 to UC14--><g id="link_UC11_UC14"><path d="M955.53,437.9873 C977.1,429.2473 1002,418.5973 1024,407.7373 C1094.09,373.1473 1167.2693,329.2669 1211.3093,301.9869 " fill="none" id="UC11-to-UC14" style="stroke:#000000;stroke-width:1.0;stroke-dasharray:7.0,7.0;"/><polygon fill="#000000" points="1216.41,298.8273,1206.6526,300.1662,1212.1594,301.4603,1210.8653,306.9671,1216.41,298.8273" style="stroke:#000000;stroke-width:1.0;"/><text fill="#000000" font-family="Verdana" font-size="13" lengthAdjust="spacing" textLength="46" x="1055" y="364.8071">include</text></g><!--link UC12 to UC13--><g id="link_UC12_UC13"><path d="M989.37,527.4173 C1047.79,516.5673 1117.7008,503.5825 1172.7508,493.3625 " fill="none" id="UC12-to-UC13" style="stroke:#000000;stroke-width:1.0;stroke-dasharray:7.0,7.0;"/><polygon fill="#000000" points="1178.65,492.2673,1169.0711,489.9773,1173.734,493.18,1170.5313,497.8429,1178.65,492.2673" style="stroke:#000000;stroke-width:1.0;"/><text fill="#000000" font-family="Verdana" font-size="13" lengthAdjust="spacing" textLength="46" x="1055" y="504.8071">include</text></g><!--link UC1 to GMN42--><g id="link_UC1_GMN42"><path d="M518.38,938.7473 C536.86,944.3873 555.86,952.6473 571,964.7373 C697.35,1065.6273 624,1182.2573 753,1279.7373 C770.16,1292.7073 791.36,1301.1673 812.25,1306.6673 " fill="none" id="UC1-GMN42" style="stroke:#000000;stroke-width:1.0;stroke-dasharray:7.0,7.0;"/></g><!--link UC10 to GMN48--><g id="link_UC10_GMN48"><path d="M976.67,653.1473 C992.87,659.2673 1009.48,666.7773 1024,675.7373 C1068.93,703.4873 1063.87,732.0173 1110,757.7373 C1124.97,766.0873 1141.88,772.6073 1158.67,777.6773 " fill="none" id="UC10-GMN48" style="stroke:#000000;stroke-width:1.0;stroke-dasharray:7.0,7.0;"/></g><!--SRC=[XLLDRzim3BtxLt2zzD9sTVDHR8S2HOO5EnG8cdMdNbX5SOZAeY4f0TfX_tsKBSUnaswzrA0UoSV79-LJsEXIGsMGR9O52aR3KhiTlHF3erRiLXua532G3wGs6YxX6s7Xi2mHLffWXfvWTVxaESkCNWS838wAJO0LEQq2iLH65TZ1sPnOeNpfCq0VkxvfrvujfO4kiJxnR_4xoofKhrZe_I7CjOy5TSlj37vd87zRhnLw0VuYlqL3x-y8CuFUqvfKK_Dfbdy8FPnlePrdAmSfw-OVMUn8CIpGYN8wuKTz_1BD3XFTX6pvZFl8xsI2mswo6ZFfOsPiruvjw55EqEd_bP3nvePVkk5kipydLExL7WWyGwFO24sqhsGBwA_qQVQb3xyl2c9d-n8FS_BhVj9SMrqhKR4B9oRD1vlywL0fGbWuBfpsdeyxt9oUubvjIE_a2jZGAfwFJcfoBvPu4nB7beidjSmB344xAxwl-tDRS7nokX_MnrkoRpivFTE33gxrvPfTYLRjXvf6fkTIITgYt5XBKBI3PytjWilBkxk8XQ-mwnnHKc5aBnsU3l3Hz09NuZF7HbIg75UEDFXk4ttuIE2ETdebJqbp6UI_znW6k8dWretDAmcAi1L_Bh6gi8-RDksJrUKBi2Gru7ZR7qbr9X-AufiTPispajB7akxho-caY8cZ9V83O7ujI6nzlEAAFy15ZOjckQwsxk0yYXhIMgjarVYO3M1HJ9NyYGV-7C0YVsojLpNM6q0c7I5ARXiWfWUKokIqgDwZDersMRJErLK4Vn4iMMMsAvr5XpJHMfqkF4hXSIzwUx94tbRE- -XyNtjq4CyiYwsQNnPU9qi_i8zc2bo14DcR-Tc-eBYFmM-XsbhPRE0WKXtLY8sNaYFR5x6tWKknWSAejtwszQwvi9qnZZZ4wVTlt5PqZ1kb2oXb_NJnRElk5utJuyCGANBs5m00]--></g></svg>