<?xml version="1.0" encoding="us-ascii" standalone="no"?><svg xmlns="http://www.w3.org/2000/svg" xmlns:xlink="http://www.w3.org/1999/xlink" contentStyleType="text/css" height="1647px" preserveAspectRatio="none" style="width:2498px;height:1647px;background:#FFFFFF;" version="1.1" viewBox="0 0 2498 1647" width="2498px" zoomAndPan="magnify"><defs/><g><text fill="#000000" font-family="Verdana" font-size="22" font-weight="bold" lengthAdjust="spacing" textLength="790" x="849.5" y="37.1182">Servizio Negozio - Diagramma di Stato (Stati Sistema Negozio)</text><ellipse cx="1097" cy="68.7373" fill="#FFFFFF" rx="10" ry="10" style="stroke:#000000;stroke-width:1.0;"/><g id="Caricamento"><rect fill="#FFFFFF" height="80.7666" rx="12.5" ry="12.5" style="stroke:#000000;stroke-width:1.0;" width="226" x="984" y="155.7373"/><line style="stroke:#000000;stroke-width:1.0;" x1="984" x2="1210" y1="182.752" y2="182.752"/><text fill="#000000" font-family="Verdana" font-size="14" lengthAdjust="spacing" textLength="87" x="1053.5" y="174.8125">Caricamento</text><text fill="#000000" font-family="Verdana" font-size="12" lengthAdjust="spacing" textLength="195" x="989" y="199.8164">Recupero oggetti dal database</text><text fill="#000000" font-family="Verdana" font-size="12" lengthAdjust="spacing" textLength="180" x="989" y="214.4004">Caricamento saldo giocatore</text><text fill="#000000" font-family="Verdana" font-size="12" lengthAdjust="spacing" textLength="206" x="989" y="228.9844">Preparazione interfaccia negozio</text></g><g id="Disponibile"><rect fill="#FFFFFF" height="80.7666" rx="12.5" ry="12.5" style="stroke:#000000;stroke-width:1.0;" width="255" x="940.5" y="471.7373"/><line style="stroke:#000000;stroke-width:1.0;" x1="940.5" x2="1195.5" y1="498.752" y2="498.752"/><text fill="#000000" font-family="Verdana" font-size="14" lengthAdjust="spacing" textLength="75" x="1030.5" y="490.8125">Disponibile</text><text fill="#000000" font-family="Verdana" font-size="12" lengthAdjust="spacing" textLength="202" x="945.5" y="515.8164">Negozio pronto per navigazione</text><text fill="#000000" font-family="Verdana" font-size="12" lengthAdjust="spacing" textLength="120" x="945.5" y="530.4004">Oggetti visualizzati</text><text fill="#000000" font-family="Verdana" font-size="12" lengthAdjust="spacing" textLength="235" x="945.5" y="544.9844">Giocatore pu&#242; sfogliare e selezionare</text></g><g id="Errore"><rect fill="#FFFFFF" height="80.7666" rx="12.5" ry="12.5" style="stroke:#000000;stroke-width:1.0;" width="173" x="1266.5" y="313.7373"/><line style="stroke:#000000;stroke-width:1.0;" x1="1266.5" x2="1439.5" y1="340.752" y2="340.752"/><text fill="#000000" font-family="Verdana" font-size="14" lengthAdjust="spacing" textLength="44" x="1331" y="332.8125">Errore</text><text fill="#000000" font-family="Verdana" font-size="12" lengthAdjust="spacing" textLength="153" x="1271.5" y="357.8164">Errore sistema verificato</text><text fill="#000000" font-family="Verdana" font-size="12" lengthAdjust="spacing" textLength="150" x="1271.5" y="372.4004">Negozio non disponibile</text><text fill="#000000" font-family="Verdana" font-size="12" lengthAdjust="spacing" textLength="97" x="1271.5" y="386.9844">Problemi tecnici</text></g><g id="Navigazione"><rect fill="#FFFFFF" height="80.7666" rx="12.5" ry="12.5" style="stroke:#000000;stroke-width:1.0;" width="194" x="752" y="629.7373"/><line style="stroke:#000000;stroke-width:1.0;" x1="752" x2="946" y1="656.752" y2="656.752"/><text fill="#000000" font-family="Verdana" font-size="14" lengthAdjust="spacing" textLength="83" x="807.5" y="648.8125">Navigazione</text><text fill="#000000" font-family="Verdana" font-size="12" lengthAdjust="spacing" textLength="174" x="757" y="673.8164">Giocatore visualizza oggetti</text><text fill="#000000" font-family="Verdana" font-size="12" lengthAdjust="spacing" textLength="88" x="757" y="688.4004">Filtro e ricerca</text><text fill="#000000" font-family="Verdana" font-size="12" lengthAdjust="spacing" textLength="158" x="757" y="702.9844">Controllo dettagli oggetti</text></g><ellipse cx="397" cy="1630.7373" fill="none" rx="11" ry="11" style="stroke:#000000;stroke-width:1.0;"/><ellipse cx="397" cy="1630.7373" fill="#FFFFFF" rx="6" ry="6" style="stroke:#000000;stroke-width:1.0;"/><g id="Selezionato"><rect fill="#FFFFFF" height="80.7666" rx="12.5" ry="12.5" style="stroke:#000000;stroke-width:1.0;" width="200" x="748" y="787.7373"/><line style="stroke:#000000;stroke-width:1.0;" x1="748" x2="948" y1="814.752" y2="814.752"/><text fill="#000000" font-family="Verdana" font-size="14" lengthAdjust="spacing" textLength="81" x="807.5" y="806.8125">Selezionato</text><text fill="#000000" font-family="Verdana" font-size="12" lengthAdjust="spacing" textLength="175" x="753" y="831.8164">Oggetto scelto per acquisto</text><text fill="#000000" font-family="Verdana" font-size="12" lengthAdjust="spacing" textLength="176" x="753" y="846.4004">Dettagli oggetto visualizzati</text><text fill="#000000" font-family="Verdana" font-size="12" lengthAdjust="spacing" textLength="180" x="753" y="860.9844">Opzione acquisto disponibile</text></g><g id="Validazione"><rect fill="#FFFFFF" height="95.3506" rx="12.5" ry="12.5" style="stroke:#000000;stroke-width:1.0;" width="214" x="924" y="945.7373"/><line style="stroke:#000000;stroke-width:1.0;" x1="924" x2="1138" y1="972.752" y2="972.752"/><text fill="#000000" font-family="Verdana" font-size="14" lengthAdjust="spacing" textLength="78" x="992" y="964.8125">Validazione</text><text fill="#000000" font-family="Verdana" font-size="12" lengthAdjust="spacing" textLength="163" x="929" y="989.8164">Controllo validit&#224; acquisto</text><text fill="#000000" font-family="Verdana" font-size="12" lengthAdjust="spacing" textLength="80" x="929" y="1004.4004">Verifica fondi</text><text fill="#000000" font-family="Verdana" font-size="12" lengthAdjust="spacing" textLength="169" x="929" y="1018.9844">Controllo spazio inventario</text><text fill="#000000" font-family="Verdana" font-size="12" lengthAdjust="spacing" textLength="194" x="929" y="1033.5684">Conferma disponibilit&#224; oggetto</text></g><g id="Valido"><rect fill="#FFFFFF" height="80.7666" rx="12.5" ry="12.5" style="stroke:#000000;stroke-width:1.0;" width="179" x="828.5" y="1117.7373"/><line style="stroke:#000000;stroke-width:1.0;" x1="828.5" x2="1007.5" y1="1144.752" y2="1144.752"/><text fill="#000000" font-family="Verdana" font-size="14" lengthAdjust="spacing" textLength="42" x="897" y="1136.8125">Valido</text><text fill="#000000" font-family="Verdana" font-size="12" lengthAdjust="spacing" textLength="149" x="833.5" y="1161.8164">Acquisto pu&#242; procedere</text><text fill="#000000" font-family="Verdana" font-size="12" lengthAdjust="spacing" textLength="159" x="833.5" y="1176.4004">Tutti i requisiti soddisfatti</text><text fill="#000000" font-family="Verdana" font-size="12" lengthAdjust="spacing" textLength="146" x="833.5" y="1190.9844">Pronto per transazione</text></g><g id="NonValido"><rect fill="#FFFFFF" height="80.7666" rx="12.5" ry="12.5" style="stroke:#000000;stroke-width:1.0;" width="208" x="1114" y="1117.7373"/><line style="stroke:#000000;stroke-width:1.0;" x1="1114" x2="1322" y1="1144.752" y2="1144.752"/><text fill="#000000" font-family="Verdana" font-size="14" lengthAdjust="spacing" textLength="70" x="1183" y="1136.8125">NonValido</text><text fill="#000000" font-family="Verdana" font-size="12" lengthAdjust="spacing" textLength="177" x="1119" y="1161.8164">Acquisto non pu&#242; procedere</text><text fill="#000000" font-family="Verdana" font-size="12" lengthAdjust="spacing" textLength="114" x="1119" y="1176.4004">Requisiti mancanti</text><text fill="#000000" font-family="Verdana" font-size="12" lengthAdjust="spacing" textLength="188" x="1119" y="1190.9844">Messaggio errore visualizzato</text></g><g id="Processamento"><rect fill="#FFFFFF" height="95.3506" rx="12.5" ry="12.5" style="stroke:#000000;stroke-width:1.0;" width="227" x="720.5" y="1275.7373"/><line style="stroke:#000000;stroke-width:1.0;" x1="720.5" x2="947.5" y1="1302.752" y2="1302.752"/><text fill="#000000" font-family="Verdana" font-size="14" lengthAdjust="spacing" textLength="107" x="780.5" y="1294.8125">Processamento</text><text fill="#000000" font-family="Verdana" font-size="12" lengthAdjust="spacing" textLength="207" x="725.5" y="1319.8164">Esecuzione transazione acquisto</text><text fill="#000000" font-family="Verdana" font-size="12" lengthAdjust="spacing" textLength="104" x="725.5" y="1334.4004">Detrazione fondi</text><text fill="#000000" font-family="Verdana" font-size="12" lengthAdjust="spacing" textLength="194" x="725.5" y="1348.9844">Aggiunta oggetto all'inventario</text><text fill="#000000" font-family="Verdana" font-size="12" lengthAdjust="spacing" textLength="165" x="725.5" y="1363.5684">Creazione record acquisto</text></g><g id="FondiInsufficienti"><rect fill="#FFFFFF" height="50" rx="12.5" ry="12.5" style="stroke:#000000;stroke-width:1.0;" width="138" x="983" y="1298.2373"/><line style="stroke:#000000;stroke-width:1.0;" x1="983" x2="1121" y1="1325.252" y2="1325.252"/><text fill="#000000" font-family="Verdana" font-size="14" lengthAdjust="spacing" textLength="118" x="993" y="1317.3125">FondiInsufficienti</text></g><g id="InventarioPieno"><rect fill="#FFFFFF" height="80.7666" rx="12.5" ry="12.5" style="stroke:#000000;stroke-width:1.0;" width="232" x="1401" y="1282.7373"/><line style="stroke:#000000;stroke-width:1.0;" x1="1401" x2="1633" y1="1309.752" y2="1309.752"/><text fill="#000000" font-family="Verdana" font-size="14" lengthAdjust="spacing" textLength="108" x="1463" y="1301.8125">InventarioPieno</text><text fill="#000000" font-family="Verdana" font-size="12" lengthAdjust="spacing" textLength="212" x="1406" y="1326.8164">Nessuno spazio per nuovi oggetti</text><text fill="#000000" font-family="Verdana" font-size="12" lengthAdjust="spacing" textLength="172" x="1406" y="1341.4004">Opzioni gestione disponibili</text><text fill="#000000" font-family="Verdana" font-size="12" lengthAdjust="spacing" textLength="121" x="1406" y="1355.9844">Pu&#242; liberare spazio</text></g><g id="OggettoNonDisponibile"><rect fill="#FFFFFF" height="80.7666" rx="12.5" ry="12.5" style="stroke:#000000;stroke-width:1.0;" width="264" x="1817" y="1282.7373"/><line style="stroke:#000000;stroke-width:1.0;" x1="1817" x2="2081" y1="1309.752" y2="1309.752"/><text fill="#000000" font-family="Verdana" font-size="14" lengthAdjust="spacing" textLength="161" x="1868.5" y="1301.8125">OggettoNonDisponibile</text><text fill="#000000" font-family="Verdana" font-size="12" lengthAdjust="spacing" textLength="244" x="1822" y="1326.8164">Oggetto selezionato non in magazzino</text><text fill="#000000" font-family="Verdana" font-size="12" lengthAdjust="spacing" textLength="206" x="1822" y="1341.4004">Suggerimenti alternativi mostrati</text><text fill="#000000" font-family="Verdana" font-size="12" lengthAdjust="spacing" textLength="162" x="1822" y="1355.9844">Opzioni notifica disponibili</text></g><g id="Gestione"><rect fill="#FFFFFF" height="80.7666" rx="12.5" ry="12.5" style="stroke:#000000;stroke-width:1.0;" width="248" x="719" y="1454.7373"/><line style="stroke:#000000;stroke-width:1.0;" x1="719" x2="967" y1="1481.752" y2="1481.752"/><text fill="#000000" font-family="Verdana" font-size="14" lengthAdjust="spacing" textLength="62" x="812" y="1473.8125">Gestione</text><text fill="#000000" font-family="Verdana" font-size="12" lengthAdjust="spacing" textLength="183" x="724" y="1498.8164">Giocatore gestisce inventario</text><text fill="#000000" font-family="Verdana" font-size="12" lengthAdjust="spacing" textLength="228" x="724" y="1513.4004">Eliminazione/organizzazione oggetti</text><text fill="#000000" font-family="Verdana" font-size="12" lengthAdjust="spacing" textLength="109" x="724" y="1527.9844">Creazione spazio</text></g><g id="NotificaQuandoDisponibile"><rect fill="#FFFFFF" height="66.1826" rx="12.5" ry="12.5" style="stroke:#000000;stroke-width:1.0;" width="274" x="1909" y="1462.2373"/><line style="stroke:#000000;stroke-width:1.0;" x1="1909" x2="2183" y1="1489.252" y2="1489.252"/><text fill="#000000" font-family="Verdana" font-size="14" lengthAdjust="spacing" textLength="181" x="1955.5" y="1481.3125">NotificaQuandoDisponibile</text><text fill="#000000" font-family="Verdana" font-size="12" lengthAdjust="spacing" textLength="192" x="1914" y="1506.3164">Notifica impostata per oggetto</text><text fill="#000000" font-family="Verdana" font-size="12" lengthAdjust="spacing" textLength="254" x="1914" y="1520.9004">Giocatore sar&#224; avvisato quando rifornito</text></g><g id="Riuscito"><rect fill="#FFFFFF" height="95.3506" rx="12.5" ry="12.5" style="stroke:#000000;stroke-width:1.0;" width="234" x="450" y="1447.7373"/><line style="stroke:#000000;stroke-width:1.0;" x1="450" x2="684" y1="1474.752" y2="1474.752"/><text fill="#000000" font-family="Verdana" font-size="14" lengthAdjust="spacing" textLength="55" x="539.5" y="1466.8125">Riuscito</text><text fill="#000000" font-family="Verdana" font-size="12" lengthAdjust="spacing" textLength="214" x="455" y="1491.8164">Acquisto completato con successo</text><text fill="#000000" font-family="Verdana" font-size="12" lengthAdjust="spacing" textLength="196" x="455" y="1506.4004">Oggetto aggiunto all'inventario</text><text fill="#000000" font-family="Verdana" font-size="12" lengthAdjust="spacing" textLength="108" x="455" y="1520.9844">Saldo aggiornato</text><text fill="#000000" font-family="Verdana" font-size="12" lengthAdjust="spacing" textLength="115" x="455" y="1535.5684">Ricevuta generata</text></g><g id="Fallito"><rect fill="#FFFFFF" height="95.3506" rx="12.5" ry="12.5" style="stroke:#000000;stroke-width:1.0;" width="197" x="1587.5" y="1447.7373"/><line style="stroke:#000000;stroke-width:1.0;" x1="1587.5" x2="1784.5" y1="1474.752" y2="1474.752"/><text fill="#000000" font-family="Verdana" font-size="14" lengthAdjust="spacing" textLength="40" x="1666" y="1466.8125">Fallito</text><text fill="#000000" font-family="Verdana" font-size="12" lengthAdjust="spacing" textLength="115" x="1592.5" y="1491.8164">Transazione fallita</text><text fill="#000000" font-family="Verdana" font-size="12" lengthAdjust="spacing" textLength="177" x="1592.5" y="1506.4004">Nessuna modifica effettuata</text><text fill="#000000" font-family="Verdana" font-size="12" lengthAdjust="spacing" textLength="105" x="1592.5" y="1520.9844">Errore registrato</text><text fill="#000000" font-family="Verdana" font-size="12" lengthAdjust="spacing" textLength="122" x="1592.5" y="1535.5684">Giocatore notificato</text></g><g id="elem_GMN53"><path d="M1245,167.7373 L1245,192.2373 L1210.09,196.2373 L1245,200.2373 L1245,225.1353 A0,0 0 0 0 1245,225.1353 L1479,225.1353 A0,0 0 0 0 1479,225.1353 L1479,177.7373 L1469,167.7373 L1245,167.7373 A0,0 0 0 0 1245,167.7373 " fill="#FFFFFF" style="stroke:#000000;stroke-width:1.0;"/><path d="M1469,167.7373 L1469,177.7373 L1479,177.7373 L1469,167.7373 " fill="#FFFFFF" style="stroke:#000000;stroke-width:1.0;"/><text fill="#000000" font-family="Verdana" font-size="13" lengthAdjust="spacing" textLength="85" x="1251" y="185.8071">Stato iniziale</text><text fill="#000000" font-family="Verdana" font-size="13" lengthAdjust="spacing" textLength="169" x="1251" y="201.6064">Preparazione dati negozio</text><text fill="#000000" font-family="Verdana" font-size="13" lengthAdjust="spacing" textLength="213" x="1251" y="217.4058">Caricamento contesto giocatore</text></g><g id="elem_GMN56"><path d="M1156.5,1294.7373 L1156.5,1352.1353 L1365.5,1352.1353 L1365.5,1304.7373 L1355.5,1294.7373 L1156.5,1294.7373 " fill="#FFFFFF" style="stroke:#000000;stroke-width:1.0;"/><path d="M1355.5,1294.7373 L1355.5,1304.7373 L1365.5,1304.7373 L1355.5,1294.7373 " fill="#FFFFFF" style="stroke:#000000;stroke-width:1.0;"/><text fill="#000000" font-family="Verdana" font-size="13" lengthAdjust="spacing" textLength="83" x="1162.5" y="1312.8071">Stato critico</text><text fill="#000000" font-family="Verdana" font-size="13" lengthAdjust="spacing" textLength="136" x="1162.5" y="1328.6064">Transazione in corso</text><text fill="#000000" font-family="Verdana" font-size="13" lengthAdjust="spacing" textLength="188" x="1162.5" y="1344.4058">Deve completare o annullare</text></g><g id="elem_GMN59"><path d="M1173.5,964.7373 L1173.5,989.2373 L1138.19,993.2373 L1173.5,997.2373 L1173.5,1022.1353 A0,0 0 0 0 1173.5,1022.1353 L1378.5,1022.1353 A0,0 0 0 0 1378.5,1022.1353 L1378.5,974.7373 L1368.5,964.7373 L1173.5,964.7373 A0,0 0 0 0 1173.5,964.7373 " fill="#FFFFFF" style="stroke:#000000;stroke-width:1.0;"/><path d="M1368.5,964.7373 L1368.5,974.7373 L1378.5,974.7373 L1368.5,964.7373 " fill="#FFFFFF" style="stroke:#000000;stroke-width:1.0;"/><text fill="#000000" font-family="Verdana" font-size="13" lengthAdjust="spacing" textLength="162" x="1179.5" y="982.8071">Controlli pre-transazione</text><text fill="#000000" font-family="Verdana" font-size="13" lengthAdjust="spacing" textLength="179" x="1179.5" y="998.6064">Previene acquisti non validi</text><text fill="#000000" font-family="Verdana" font-size="13" lengthAdjust="spacing" textLength="184" x="1179.5" y="1014.4058">Gestione errori user-friendly</text></g><!--link *start* to Caricamento--><g id="link_*start*_Caricamento"><path d="M1097,78.7673 C1097,94.6673 1097,122.5773 1097,149.7273 " fill="none" id="*start*-to-Caricamento" style="stroke:#000000;stroke-width:1.0;"/><polygon fill="#000000" points="1097,155.7273,1101,146.7273,1097,150.7273,1093,146.7273,1097,155.7273" style="stroke:#000000;stroke-width:1.0;"/><text fill="#000000" font-family="Verdana" font-size="13" lengthAdjust="spacing" textLength="117" x="1098" y="122.8071">Inizializza negozio</text></g><!--link Caricamento to Disponibile--><g id="link_Caricamento_Disponibile"><path d="M1093.23,236.8673 C1091.09,259.3973 1088.37,288.1473 1086,313.7373 C1080.93,368.4173 1075.7308,425.6517 1072.1208,465.5417 " fill="none" id="Caricamento-to-Disponibile" style="stroke:#000000;stroke-width:1.0;"/><polygon fill="#000000" points="1071.58,471.5173,1076.3749,462.9145,1072.0307,466.5377,1068.4075,462.1934,1071.58,471.5173" style="stroke:#000000;stroke-width:1.0;"/><text fill="#000000" font-family="Verdana" font-size="13" lengthAdjust="spacing" textLength="161" x="1087" y="359.8071">Caricamento completato</text></g><!--link Caricamento to Errore--><g id="link_Caricamento_Errore"><path d="M1161.93,236.8073 C1200.59,260.3673 1244.3668,287.0343 1283.0168,310.5943 " fill="none" id="Caricamento-to-Errore" style="stroke:#000000;stroke-width:1.0;"/><polygon fill="#000000" points="1288.14,313.7173,1282.5372,305.6174,1283.8707,311.1148,1278.3732,312.4483,1288.14,313.7173" style="stroke:#000000;stroke-width:1.0;"/><text fill="#000000" font-family="Verdana" font-size="13" lengthAdjust="spacing" textLength="123" x="1234" y="280.8071">Caricamento fallito</text></g><!--link Disponibile to Navigazione--><g id="link_Disponibile_Navigazione"><path d="M1057.42,552.9573 C1051.38,569.2373 1042.28,587.1673 1029,599.7373 C1006.01,621.4973 981.1115,634.6421 951.7215,645.1221 " fill="none" id="Disponibile-to-Navigazione" style="stroke:#000000;stroke-width:1.0;"/><polygon fill="#000000" points="946.07,647.1373,955.8907,647.8821,950.7795,645.458,953.2037,640.3468,946.07,647.1373" style="stroke:#000000;stroke-width:1.0;"/><text fill="#000000" font-family="Verdana" font-size="13" lengthAdjust="spacing" textLength="167" x="1044" y="596.8071">Giocatore esplora oggetti</text></g><!--link Navigazione to Disponibile--><g id="link_Navigazione_Disponibile"><path d="M835.07,629.4973 C832.06,613.5873 832.24,595.9473 842,582.7373 C855.02,565.1173 890.6764,551.6299 934.5864,540.1099 " fill="none" id="Navigazione-to-Disponibile" style="stroke:#000000;stroke-width:1.0;"/><polygon fill="#000000" points="940.39,538.5873,930.6695,537.0021,935.5537,539.8561,932.6997,544.7403,940.39,538.5873" style="stroke:#000000;stroke-width:1.0;"/><text fill="#000000" font-family="Verdana" font-size="13" lengthAdjust="spacing" textLength="177" x="843" y="596.8071">Ritorna alla vista principale</text></g><!--link Disponibile to *end*--><g id="link_Disponibile_*end*"><path d="M940.24,518.9573 C658.97,533.2573 11,576.2873 11,669.2373 C11,669.2373 11,669.2373 11,1496.2373 C11,1577.7773 316.6256,1619.8187 379.9056,1627.6687 " fill="none" id="Disponibile-to-*end*" style="stroke:#000000;stroke-width:1.0;"/><polygon fill="#000000" points="385.86,1628.4073,377.4209,1623.3298,380.898,1627.7918,376.436,1631.2689,385.86,1628.4073" style="stroke:#000000;stroke-width:1.0;"/><text fill="#000000" font-family="Verdana" font-size="13" lengthAdjust="spacing" textLength="105" x="12" y="1084.8071">Esci dal negozio</text></g><!--link Navigazione to Selezionato--><g id="link_Navigazione_Selezionato"><path d="M758.61,710.9373 C747.99,719.2673 738.6,729.1373 732,740.7373 C721.44,759.2973 725.8793,771.4682 742.9393,784.2582 " fill="none" id="Navigazione-to-Selezionato" style="stroke:#000000;stroke-width:1.0;"/><polygon fill="#000000" points="747.74,787.8573,742.9384,779.2582,743.7394,784.8581,738.1396,785.6591,747.74,787.8573" style="stroke:#000000;stroke-width:1.0;"/><text fill="#000000" font-family="Verdana" font-size="13" lengthAdjust="spacing" textLength="185" x="733" y="754.8071">Giocatore seleziona oggetto</text></g><!--link Selezionato to Navigazione--><g id="link_Selezionato_Navigazione"><path d="M902.49,787.3473 C910.83,778.5873 918.24,768.6373 923,757.7373 C930.43,740.7173 926.5814,728.8593 913.4814,715.1893 " fill="none" id="Selezionato-to-Navigazione" style="stroke:#000000;stroke-width:1.0;"/><polygon fill="#000000" points="909.33,710.8573,912.669,720.1229,912.7895,714.4673,918.445,714.5877,909.33,710.8573" style="stroke:#000000;stroke-width:1.0;"/><text fill="#000000" font-family="Verdana" font-size="13" lengthAdjust="spacing" textLength="155" x="927" y="754.8071">Ritorna alla navigazione</text></g><!--link Navigazione to *end*--><g id="link_Navigazione_*end*"><path d="M751.73,697.2773 C598.22,744.9373 317,861.7973 317,1078.2373 C317,1078.2373 317,1078.2373 317,1496.2373 C317,1551.8973 364.3593,1600.3925 384.5993,1618.7825 " fill="none" id="Navigazione-to-*end*" style="stroke:#000000;stroke-width:1.0;"/><polygon fill="#000000" points="389.04,1622.8173,385.0688,1613.8046,385.3394,1619.4549,379.689,1619.7255,389.04,1622.8173" style="stroke:#000000;stroke-width:1.0;"/><text fill="#000000" font-family="Verdana" font-size="13" lengthAdjust="spacing" textLength="105" x="318" y="1163.8071">Esci dal negozio</text></g><!--link Selezionato to Validazione--><g id="link_Selezionato_Validazione"><path d="M892.77,869.1073 C918.69,892.2073 946.9799,917.3962 974.0999,941.5562 " fill="none" id="Selezionato-to-Validazione" style="stroke:#000000;stroke-width:1.0;"/><polygon fill="#000000" points="978.58,945.5473,974.5206,936.5739,974.8466,942.2214,969.1991,942.5474,978.58,945.5473" style="stroke:#000000;stroke-width:1.0;"/><text fill="#000000" font-family="Verdana" font-size="13" lengthAdjust="spacing" textLength="95" x="946" y="912.8071">Inizia acquisto</text></g><!--link Selezionato to *end*--><g id="link_Selezionato_*end*"><path d="M785.76,868.9473 C756.94,889.4373 723.69,916.3073 699,945.7373 C536.59,1139.3373 516.13,1209.4473 432,1447.7373 C409.72,1510.8473 401.1064,1585.5741 398.4464,1613.6241 " fill="none" id="Selezionato-to-*end*" style="stroke:#000000;stroke-width:1.0;"/><polygon fill="#000000" points="397.88,1619.5973,402.7118,1611.0151,398.352,1614.6196,394.7475,1610.2599,397.88,1619.5973" style="stroke:#000000;stroke-width:1.0;"/><text fill="#000000" font-family="Verdana" font-size="13" lengthAdjust="spacing" textLength="105" x="514" y="1242.8071">Esci dal negozio</text></g><!--link Validazione to Valido--><g id="link_Validazione_Valido"><path d="M998.62,1040.9473 C981.79,1065.2173 964.8681,1089.6261 948.8281,1112.7661 " fill="none" id="Validazione-to-Valido" style="stroke:#000000;stroke-width:1.0;"/><polygon fill="#000000" points="945.41,1117.6973,953.8246,1112.5793,948.2585,1113.588,947.2498,1108.0218,945.41,1117.6973" style="stroke:#000000;stroke-width:1.0;"/><text fill="#000000" font-family="Verdana" font-size="13" lengthAdjust="spacing" textLength="155" x="979" y="1084.8071">Tutti i controlli superati</text></g><!--link Validazione to NonValido--><g id="link_Validazione_NonValido"><path d="M1105.04,1040.8073 C1118.13,1050.1473 1131.31,1060.3173 1143,1070.7373 C1158.73,1084.7573 1170.4462,1097.3902 1183.2862,1112.7802 " fill="none" id="Validazione-to-NonValido" style="stroke:#000000;stroke-width:1.0;"/><polygon fill="#000000" points="1187.13,1117.3873,1184.4358,1107.9141,1183.9269,1113.548,1178.293,1113.0391,1187.13,1117.3873" style="stroke:#000000;stroke-width:1.0;"/><text fill="#000000" font-family="Verdana" font-size="13" lengthAdjust="spacing" textLength="114" x="1160" y="1084.8071">Validazione fallita</text></g><!--link Valido to Processamento--><g id="link_Valido_Processamento"><path d="M897.45,1199.1073 C885.55,1222.2073 873.2584,1246.0538 860.8084,1270.2138 " fill="none" id="Valido-to-Processamento" style="stroke:#000000;stroke-width:1.0;"/><polygon fill="#000000" points="858.06,1275.5473,865.7383,1269.3793,860.3504,1271.1027,858.627,1265.7148,858.06,1275.5473" style="stroke:#000000;stroke-width:1.0;"/><text fill="#000000" font-family="Verdana" font-size="13" lengthAdjust="spacing" textLength="123" x="883" y="1242.8071">Conferma acquisto</text></g><!--link Valido to Selezionato--><g id="link_Valido_Selezionato"><path d="M851.74,1117.6773 C825.51,1098.1473 798.25,1072.0173 784,1040.7373 C757.83,983.3073 788.5022,917.4215 816.0722,874.0315 " fill="none" id="Valido-to-Selezionato" style="stroke:#000000;stroke-width:1.0;"/><polygon fill="#000000" points="819.29,868.9673,811.0872,874.4184,816.6085,873.1875,817.8395,878.7088,819.29,868.9673" style="stroke:#000000;stroke-width:1.0;"/><text fill="#000000" font-family="Verdana" font-size="13" lengthAdjust="spacing" textLength="120" x="785" y="998.8071">Ritorna all'oggetto</text></g><!--link NonValido to FondiInsufficienti--><g id="link_NonValido_FondiInsufficienti"><path d="M1113.93,1180.3173 C1088.52,1190.6173 1064.27,1205.9373 1049,1228.7373 C1035.35,1249.1073 1037.3691,1272.1629 1042.5291,1292.4229 " fill="none" id="NonValido-to-FondiInsufficienti" style="stroke:#000000;stroke-width:1.0;"/><polygon fill="#000000" points="1044.01,1298.2373,1045.665,1288.5285,1042.776,1293.392,1037.9125,1290.503,1044.01,1298.2373" style="stroke:#000000;stroke-width:1.0;"/><text fill="#000000" font-family="Verdana" font-size="13" lengthAdjust="spacing" textLength="140" x="1050" y="1242.8071">Non abbastanza soldi</text></g><!--link NonValido to InventarioPieno--><g id="link_NonValido_InventarioPieno"><path d="M1214.56,1198.8773 C1215.29,1215.3473 1219.25,1233.4373 1231,1245.7373 C1278.57,1295.5273 1316.53,1257.7373 1383,1275.7373 C1390.84,1277.8573 1393.1547,1278.4448 1401.2247,1280.9248 " fill="none" id="NonValido-to-InventarioPieno" style="stroke:#000000;stroke-width:1.0;"/><polygon fill="#000000" points="1406.96,1282.6873,1399.5321,1276.22,1402.1806,1281.2185,1397.1821,1283.8671,1406.96,1282.6873" style="stroke:#000000;stroke-width:1.0;"/><text fill="#000000" font-family="Verdana" font-size="13" lengthAdjust="spacing" textLength="173" x="1232" y="1242.8071">Nessuno spazio disponibile</text></g><!--link NonValido to OggettoNonDisponibile--><g id="link_NonValido_OggettoNonDisponibile"><path d="M1322.35,1182.5073 C1452.43,1211.5073 1669.0238,1259.8114 1810.9138,1291.4514 " fill="none" id="NonValido-to-OggettoNonDisponibile" style="stroke:#000000;stroke-width:1.0;"/><polygon fill="#000000" points="1816.77,1292.7573,1808.8563,1286.8944,1811.8899,1291.6691,1807.1152,1294.7026,1816.77,1292.7573" style="stroke:#000000;stroke-width:1.0;"/><text fill="#000000" font-family="Verdana" font-size="13" lengthAdjust="spacing" textLength="112" x="1606" y="1242.8071">Oggetto esaurito</text></g><!--link InventarioPieno to Gestione--><g id="link_InventarioPieno_Gestione"><path d="M1410.11,1363.7373 C1401.01,1366.3673 1391.89,1368.7473 1383,1370.7373 C1260,1398.2473 1223.81,1372.3873 1101,1400.7373 C1044.6,1413.7573 989.1977,1433.2662 940.6877,1452.4962 " fill="none" id="InventarioPieno-to-Gestione" style="stroke:#000000;stroke-width:1.0;"/><polygon fill="#000000" points="935.11,1454.7073,944.9507,1455.1092,939.7581,1452.8647,942.0025,1447.6722,935.11,1454.7073" style="stroke:#000000;stroke-width:1.0;"/><text fill="#000000" font-family="Verdana" font-size="13" lengthAdjust="spacing" textLength="134" x="1102" y="1414.8071">Organizza inventario</text></g><!--link InventarioPieno to Selezionato--><g id="link_InventarioPieno_Selezionato"><path d="M1500.28,1282.5373 C1481.25,1236.3273 1450.08,1157.4573 1429,1087.7373 C1410.24,1025.7173 1442.25,991.1173 1396,945.7373 C1333.61,884.5073 1094.6302,852.4244 954.2502,838.3844 " fill="none" id="InventarioPieno-to-Selezionato" style="stroke:#000000;stroke-width:1.0;"/><polygon fill="#000000" points="948.28,837.7873,956.8373,842.6631,953.2552,838.2849,957.6334,834.7028,948.28,837.7873" style="stroke:#000000;stroke-width:1.0;"/><text fill="#000000" font-family="Verdana" font-size="13" lengthAdjust="spacing" textLength="150" x="1430" y="1084.8071">Ritorna senza acquisto</text></g><!--link Gestione to Disponibile--><g id="link_Gestione_Disponibile"><path d="M749.38,1454.5573 C727.55,1443.7873 704.89,1431.3073 685,1417.7373 C591.98,1354.2873 557.67,1341.8373 499,1245.7373 C417.87,1112.8373 405,1063.9473 405,908.2373 C405,669.2373 405,669.2373 405,669.2373 C405,560.4473 741.518,527.7671 934.178,517.8071 " fill="none" id="Gestione-to-Disponibile" style="stroke:#000000;stroke-width:1.0;"/><polygon fill="#000000" points="940.17,517.4973,930.9755,513.9673,935.1767,517.7554,931.3885,521.9566,940.17,517.4973" style="stroke:#000000;stroke-width:1.0;"/><text fill="#000000" font-family="Verdana" font-size="13" lengthAdjust="spacing" textLength="148" x="413" y="998.8071">Inventario organizzato</text></g><!--link Gestione to Selezionato--><g id="link_Gestione_Selezionato"><path d="M779.73,1454.6273 C751.38,1433.3773 720.45,1404.5873 703,1370.7373 C702.16,1369.1173 671.61,1177.6573 685,1117.7373 C708.45,1012.7673 729.42,988.9473 788,898.7373 C794.6,888.5773 798.6983,882.9109 806.6383,873.5109 " fill="none" id="Gestione-to-Selezionato" style="stroke:#000000;stroke-width:1.0;"/><polygon fill="#000000" points="810.51,868.9273,801.6467,873.2216,807.2836,872.747,807.7582,878.3839,810.51,868.9273" style="stroke:#000000;stroke-width:1.0;"/><text fill="#000000" font-family="Verdana" font-size="13" lengthAdjust="spacing" textLength="124" x="686" y="1163.8071">Ritorna all'acquisto</text></g><!--link OggettoNonDisponibile to Disponibile--><g id="link_OggettoNonDisponibile_Disponibile"><path d="M1953.95,1282.4473 C1957.63,1249.4873 1962,1201.3973 1962,1159.2373 C1962,669.2373 1962,669.2373 1962,669.2373 C1962,586.4373 1876.37,606.3273 1797,582.7373 C1687.78,550.2673 1380.0911,529.524 1201.8211,519.804 " fill="none" id="OggettoNonDisponibile-to-Disponibile" style="stroke:#000000;stroke-width:1.0;"/><polygon fill="#000000" points="1195.83,519.4773,1204.5989,523.9614,1200.8226,519.7495,1205.0344,515.9732,1195.83,519.4773" style="stroke:#000000;stroke-width:1.0;"/><text fill="#000000" font-family="Verdana" font-size="13" lengthAdjust="spacing" textLength="120" x="1963" y="912.8071">Sfoglia alternative</text></g><!--link OggettoNonDisponibile to NotificaQuandoDisponibile--><g id="link_OggettoNonDisponibile_NotificaQuandoDisponibile"><path d="M1969.65,1364.1073 C1978.47,1380.7973 1989.01,1400.3373 1999,1417.7373 C2007.46,1432.4773 2014.0628,1443.4313 2022.5028,1457.0113 " fill="none" id="OggettoNonDisponibile-to-NotificaQuandoDisponibile" style="stroke:#000000;stroke-width:1.0;"/><polygon fill="#000000" points="2025.67,1462.1073,2024.3166,1452.3519,2023.0307,1457.8607,2017.5219,1456.5748,2025.67,1462.1073" style="stroke:#000000;stroke-width:1.0;"/><text fill="#000000" font-family="Verdana" font-size="13" lengthAdjust="spacing" textLength="107" x="2000" y="1414.8071">Imposta notifica</text></g><!--link NotificaQuandoDisponibile to Disponibile--><g id="link_NotificaQuandoDisponibile_Disponibile"><path d="M2079.75,1462.1673 C2091.51,1449.3573 2103.79,1433.8373 2112,1417.7373 C2131.39,1379.7073 2134,1366.9273 2134,1324.2373 C2134,669.2373 2134,669.2373 2134,669.2373 C2134,575.3673 1484.4727,533.0838 1201.5227,519.0838 " fill="none" id="NotificaQuandoDisponibile-to-Disponibile" style="stroke:#000000;stroke-width:1.0;"/><polygon fill="#000000" points="1195.53,518.7873,1204.3213,523.2272,1200.5239,519.0344,1204.7167,515.237,1195.53,518.7873" style="stroke:#000000;stroke-width:1.0;"/><text fill="#000000" font-family="Verdana" font-size="13" lengthAdjust="spacing" textLength="140" x="2135" y="998.8071">Continua navigazione</text></g><!--link Processamento to Riuscito--><g id="link_Processamento_Riuscito"><path d="M760.69,1370.9173 C723.17,1394.7973 682.7012,1420.5748 645.2112,1444.4448 " fill="none" id="Processamento-to-Riuscito" style="stroke:#000000;stroke-width:1.0;"/><polygon fill="#000000" points="640.15,1447.6673,649.8901,1446.2077,644.3677,1444.9819,645.5935,1439.4595,640.15,1447.6673" style="stroke:#000000;stroke-width:1.0;"/><text fill="#000000" font-family="Verdana" font-size="13" lengthAdjust="spacing" textLength="158" x="710" y="1414.8071">Transazione completata</text></g><!--link Processamento to Fallito--><g id="link_Processamento_Fallito"><path d="M947.85,1366.4073 C953.61,1367.9873 959.35,1369.4473 965,1370.7373 C1085.29,1398.2273 1119.14,1381.3573 1241,1400.7373 C1360.87,1419.7973 1491.4252,1448.3314 1581.2552,1469.1714 " fill="none" id="Processamento-to-Fallito" style="stroke:#000000;stroke-width:1.0;"/><polygon fill="#000000" points="1587.1,1470.5273,1579.2368,1464.5969,1582.2294,1469.3973,1577.4289,1472.3899,1587.1,1470.5273" style="stroke:#000000;stroke-width:1.0;"/><text fill="#000000" font-family="Verdana" font-size="13" lengthAdjust="spacing" textLength="120" x="1327" y="1414.8071">Transazione fallita</text></g><!--link Riuscito to Disponibile--><g id="link_Riuscito_Disponibile"><path d="M449.75,1471.3073 C323.64,1443.2073 141,1390.9773 141,1324.2373 C141,669.2373 141,669.2373 141,669.2373 C141,589.1673 679.7958,540.6229 934.0958,522.1129 " fill="none" id="Riuscito-to-Disponibile" style="stroke:#000000;stroke-width:1.0;"/><polygon fill="#000000" points="940.08,521.6773,930.8134,518.3412,935.0932,522.0403,931.3941,526.3201,940.08,521.6773" style="stroke:#000000;stroke-width:1.0;"/><text fill="#000000" font-family="Verdana" font-size="13" lengthAdjust="spacing" textLength="121" x="142" y="998.8071">Continua shopping</text></g><!--link Riuscito to *end*--><g id="link_Riuscito_*end*"><path d="M507.54,1542.9273 C469.43,1572.8573 428.4987,1605.0014 410.0487,1619.4914 " fill="none" id="Riuscito-to-*end*" style="stroke:#000000;stroke-width:1.0;"/><polygon fill="#000000" points="405.33,1623.1973,414.8787,1620.7842,409.2623,1620.109,409.9375,1614.4926,405.33,1623.1973" style="stroke:#000000;stroke-width:1.0;"/><text fill="#000000" font-family="Verdana" font-size="13" lengthAdjust="spacing" textLength="105" x="468" y="1586.8071">Esci dal negozio</text></g><!--link Fallito to Selezionato--><g id="link_Fallito_Selezionato"><path d="M1684.08,1447.6773 C1680.82,1393.8673 1672.12,1303.1873 1649,1228.7373 C1644.58,1214.4973 1640.01,1212.3773 1634,1198.7373 C1609.46,1142.9873 1620.43,1120.2873 1585,1070.7373 C1534.52,1000.1473 1506.63,994.7273 1435,945.7373 C1399.37,921.3673 1390.96,912.3673 1350,898.7373 C1215.39,853.9273 1057.181,838.3262 954.071,832.6662 " fill="none" id="Fallito-to-Selezionato" style="stroke:#000000;stroke-width:1.0;"/><polygon fill="#000000" points="948.08,832.3373,956.8472,836.8246,953.0725,832.6114,957.2857,828.8366,948.08,832.3373" style="stroke:#000000;stroke-width:1.0;"/><text fill="#000000" font-family="Verdana" font-size="13" lengthAdjust="spacing" textLength="109" x="1635" y="1163.8071">Riprova acquisto</text></g><!--link Fallito to Disponibile--><g id="link_Fallito_Disponibile"><path d="M1701.99,1447.6873 C1726.61,1371.7373 1771,1215.9773 1771,1080.2373 C1771,669.2373 1771,669.2373 1771,669.2373 C1771,552.7373 1404.3859,523.408 1201.7159,515.948 " fill="none" id="Fallito-to-Disponibile" style="stroke:#000000;stroke-width:1.0;"/><polygon fill="#000000" points="1195.72,515.7273,1204.5668,520.0557,1200.7166,515.9112,1204.861,512.0611,1195.72,515.7273" style="stroke:#000000;stroke-width:1.0;"/><text fill="#000000" font-family="Verdana" font-size="13" lengthAdjust="spacing" textLength="136" x="1772" y="998.8071">Ritorna allo shopping</text></g><!--link Errore to Disponibile--><g id="link_Errore_Disponibile"><path d="M1280.71,394.8073 C1237.67,418.3673 1188.5028,445.2758 1145.4728,468.8358 " fill="none" id="Errore-to-Disponibile" style="stroke:#000000;stroke-width:1.0;"/><polygon fill="#000000" points="1140.21,471.7173,1150.0252,470.9036,1144.5957,469.316,1146.1832,463.8865,1140.21,471.7173" style="stroke:#000000;stroke-width:1.0;"/><text fill="#000000" font-family="Verdana" font-size="13" lengthAdjust="spacing" textLength="158" x="1221" y="438.8071">Riprova dopo correzione</text></g><!--link Errore to *end*--><g id="link_Errore_*end*"><path d="M1439.82,359.7873 C1681.77,373.6173 2346,419.8873 2346,511.2373 C2346,511.2373 2346,511.2373 2346,1496.2373 C2346,1599.9973 570.5294,1627.2926 413.9594,1629.5026 " fill="none" id="Errore-to-*end*" style="stroke:#000000;stroke-width:1.0;"/><polygon fill="#000000" points="407.96,1629.5873,417.0156,1633.4599,412.9595,1629.5167,416.9026,1625.4607,407.96,1629.5873" style="stroke:#000000;stroke-width:1.0;"/><text fill="#000000" font-family="Verdana" font-size="13" lengthAdjust="spacing" textLength="143" x="2347" y="998.8071">Esci a causa di errore</text></g><!--link Processamento to GMN56--><g id="link_Processamento_GMN56"><path d="M899.07,1275.6473 C923.91,1260.2273 953.3,1245.0873 982.5,1237.2373 C1041.73,1221.3273 1061.47,1220.6073 1120.5,1237.2373 C1160.14,1248.4073 1199.64,1274.2173 1226.61,1294.6673 " fill="none" id="Processamento-GMN56" style="stroke:#000000;stroke-width:1.0;stroke-dasharray:7.0,7.0;"/></g><!--SRC=[XLTBZjms4Dth5Cmg7s2GlHS1ZFaOiyXaCcru4sHH8vKq1R19cPG4P4wJC-GAlbYgI96YFjrU6ECMN_shNf4_36zuHjLh85DL0mqQrGdTHEzarHDsLlxUg3k2pi7v3AeXTHfWiEed-SC_o0_8tsViprNrroz_gvkRtzGjEAhXZ8R17zIZOPMWwVqTb8dOgbf3Nh0UUtHMsQx3WNKteFdV0A_WSOCjVtdGZLKTsPhzSblaiyCU7B0zWuhCWAw5kgR5Yn8kVj-HxwsXL-9Kh0tLzjnhbEXtGlVEiUaDlWMjYS7LMcLAQ- -ie3XaPM2YBlgu0Vynvs8YFyRq3RI1V4gHgtxyzf_ohUqq0Vz4vL6ZQELVAo5n-McnkLA2ljVMGQh2Jaxg-q7T-peMA1Vpahx5ywno3NqWFN3LKN7cqDMmERxbB3chjLKD2mF7TgXdNxeNphqpeBWA85uCm2adKrCF6dUofvIgq3MB-pc5irMxaxoKaBN6M4ZkrXhrN7MeluxibjqWxzPXsdNjDrhxw4TInVEPKx22xYk-Ia_PW5knBsoxoM9na8zzlvQDjPQbg9Dyf-7RlulADVGBEcfvfbHhJKCNzVXUFlA4JpnxF8HsZspH1GPB6GfMKrLBT8vQKlnvbFaZdlveYfGNcf9QR6MUhCbYvLaa0fYJ8ASVKxt2o38JrDWW3-dEgaC14l_VsuPTRs58XYExPGuP71W_bt0-5v-UHRVt2tEcFApJRG-6eEYG7rEQgZB678MnPXj9YNl9GPp1r61aT8lZtyM_ZWbSOQJHek5jWHGF7wG97eqVM-u9ufX869NDmoklYG4Cquotkg6Dt6FkYsUMie66lHzDRfnoSDQYy-JonoDgPgSzZ2xm_7UD1AuVxRHGs5uaZZIf3lqGkgTes0FuiwHTqojtfB1LiBE3IHYVaZusuJemWP6BSJcIEUu7ZvBbt3zLeNdXpU0-arrfeW3UQpgJYUtwgqt-n759kIdWjmxdmpd2VBRd_IKGbHKF6udBZRw4zRsw-qA7300PRcycqNSozgBmQUG3H-VGkQ3vEiBon0rnjdu8f7BHxDmNnWwH3yk-E1RQv-OKBmU5PRmY-pIR-dC4qzXDbi-zbPMQt15ck8nEPugYcEnYdeMyKg-85giOdAo9YUb1SlurWFdMq7BnwAgMWtiTyoQPSRtvgYrPtdk-ayQ-A-XrQVqjdbTtkch6RRK5V6IQ6xavyswNbYicPCVMkUyTrjOrbqnBW2yqyjODOfyBP_Ej5Gva7k8LTIEIzrMXCdFzSWkMbSZBi1QTjiIc2O4OxIxA0deAb_V0_jAFgxCNlWzE8oUhGoCB5vR3AmNrRxRloNHhyALhoVK4BAUHo877j8cDZ6tBCOwmGitF08STXMcsnTdInsbaYkCZJk9TEXKqMq8lNdJj4dwLtoJpV_pyL9lc2nNhp93q9X4UApTX1d3hl6eyangmDhnvqycHDz7nnlRI8SvX7Av2e2W6g1f67zwLSVbN5QT7tWBTsw1iMpweAZM_FIa-9f4_h9vtZRn8KsdLvkt6Jpzft-MTYAQHKkmihgOaswnvnLCjlyj6OSxd4BryliDf6JOEbBlQc94lrrTC5PT4yJVVC7k7D-LzBiGvyLhEt4EXLF7opCTvkOKaaXezkflMiKIZ_rdC_my0]--></g></svg>