<?xml version="1.0" encoding="us-ascii" standalone="no"?><svg xmlns="http://www.w3.org/2000/svg" xmlns:xlink="http://www.w3.org/1999/xlink" contentStyleType="text/css" height="1908px" preserveAspectRatio="none" style="width:1749px;height:1908px;background:#FFFFFF;" version="1.1" viewBox="0 0 1749 1908" width="1749px" zoomAndPan="magnify"><defs/><g><text fill="#000000" font-family="Verdana" font-size="22" font-weight="bold" lengthAdjust="spacing" textLength="560" x="590" y="37.1182">Servizio Negozio - Diagramma dei Casi d'Uso</text><!--cluster Sistema Navigazione Negozio--><g id="cluster_Sistema Navigazione Negozio"><path d="M872.5,380.7373 L1098.5,380.7373 A3.75,3.75 0 0 1 1101,383.2373 L1108,403.752 L1143.5,403.752 A2.5,2.5 0 0 1 1146,406.252 L1146,962.2373 A2.5,2.5 0 0 1 1143.5,964.7373 L872.5,964.7373 A2.5,2.5 0 0 1 870,962.2373 L870,383.2373 A2.5,2.5 0 0 1 872.5,380.7373 " fill="#FFFFFF" style="stroke:#000000;stroke-width:1.0;"/><line style="stroke:#000000;stroke-width:1.0;" x1="870" x2="1108" y1="403.752" y2="403.752"/><text fill="#000000" font-family="Verdana" font-size="14" font-weight="bold" lengthAdjust="spacing" textLength="225" x="874" y="396.8125">Sistema Navigazione Negozio</text></g><!--cluster Sistema Acquisto--><g id="cluster_Sistema Acquisto"><path d="M360,1006.7373 L493,1006.7373 A3.75,3.75 0 0 1 495.5,1009.2373 L502.5,1029.752 L1104.5,1029.752 A2.5,2.5 0 0 1 1107,1032.252 L1107,1343.2373 A2.5,2.5 0 0 1 1104.5,1345.7373 L360,1345.7373 A2.5,2.5 0 0 1 357.5,1343.2373 L357.5,1009.2373 A2.5,2.5 0 0 1 360,1006.7373 " fill="#FFFFFF" style="stroke:#000000;stroke-width:1.0;"/><line style="stroke:#000000;stroke-width:1.0;" x1="357.5" x2="502.5" y1="1029.752" y2="1029.752"/><text fill="#000000" font-family="Verdana" font-size="14" font-weight="bold" lengthAdjust="spacing" textLength="132" x="361.5" y="1022.8125">Sistema Acquisto</text></g><!--cluster Sistema Gestione Crediti--><g id="cluster_Sistema Gestione Crediti"><path d="M1233.5,1421.7373 L1422.5,1421.7373 A3.75,3.75 0 0 1 1425,1424.2373 L1432,1444.752 L1501.5,1444.752 A2.5,2.5 0 0 1 1504,1447.252 L1504,1760.2373 A2.5,2.5 0 0 1 1501.5,1762.7373 L1233.5,1762.7373 A2.5,2.5 0 0 1 1231,1760.2373 L1231,1424.2373 A2.5,2.5 0 0 1 1233.5,1421.7373 " fill="#FFFFFF" style="stroke:#000000;stroke-width:1.0;"/><line style="stroke:#000000;stroke-width:1.0;" x1="1231" x2="1432" y1="1444.752" y2="1444.752"/><text fill="#000000" font-family="Verdana" font-size="14" font-weight="bold" lengthAdjust="spacing" textLength="188" x="1235" y="1437.8125">Sistema Gestione Crediti</text></g><!--cluster Sistema Amministrazione Negozio--><g id="cluster_Sistema Amministrazione Negozio"><path d="M370.5,1718.7373 L631.5,1718.7373 A3.75,3.75 0 0 1 634,1721.2373 L641,1741.752 L1123,1741.752 A2.5,2.5 0 0 1 1125.5,1744.252 L1125.5,1899.2373 A2.5,2.5 0 0 1 1123,1901.7373 L370.5,1901.7373 A2.5,2.5 0 0 1 368,1899.2373 L368,1721.2373 A2.5,2.5 0 0 1 370.5,1718.7373 " fill="#FFFFFF" style="stroke:#000000;stroke-width:1.0;"/><line style="stroke:#000000;stroke-width:1.0;" x1="368" x2="641" y1="1741.752" y2="1741.752"/><text fill="#000000" font-family="Verdana" font-size="14" font-weight="bold" lengthAdjust="spacing" textLength="260" x="372" y="1734.8125">Sistema Amministrazione Negozio</text></g><!--cluster Sistema Raccomandazioni--><g id="cluster_Sistema Raccomandazioni"><path d="M324.5,116.7373 L524.5,116.7373 A3.75,3.75 0 0 1 527,119.2373 L534,139.752 L657.5,139.752 A2.5,2.5 0 0 1 660,142.252 L660,395.2373 A2.5,2.5 0 0 1 657.5,397.7373 L324.5,397.7373 A2.5,2.5 0 0 1 322,395.2373 L322,119.2373 A2.5,2.5 0 0 1 324.5,116.7373 " fill="#FFFFFF" style="stroke:#000000;stroke-width:1.0;"/><line style="stroke:#000000;stroke-width:1.0;" x1="322" x2="534" y1="139.752" y2="139.752"/><text fill="#000000" font-family="Verdana" font-size="14" font-weight="bold" lengthAdjust="spacing" textLength="199" x="326" y="132.8125">Sistema Raccomandazioni</text></g><g id="elem_UC1"><ellipse cx="1008.2211" cy="525.7815" fill="#FFFFFF" rx="105.7211" ry="23.5442" style="stroke:#000000;stroke-width:1.0;"/><text fill="#000000" font-family="Verdana" font-size="14" lengthAdjust="spacing" textLength="175" x="920.7211" y="529.3494">Sfoglia Catalogo Negozio</text></g><g id="elem_UC2"><ellipse cx="1008.0528" cy="609.7479" fill="#FFFFFF" rx="113.0528" ry="25.0106" style="stroke:#000000;stroke-width:1.0;"/><text fill="#000000" font-family="Verdana" font-size="14" lengthAdjust="spacing" textLength="191" x="912.5528" y="613.3157">Filtra Oggetti per Categoria</text></g><g id="elem_UC3"><ellipse cx="1007.904" cy="692.9181" fill="#FFFFFF" rx="103.904" ry="23.1808" style="stroke:#000000;stroke-width:1.0;"/><text fill="#000000" font-family="Verdana" font-size="14" lengthAdjust="spacing" textLength="171" x="922.404" y="696.486">Filtra Oggetti per Prezzo</text></g><g id="elem_UC4"><ellipse cx="1007.7975" cy="767.4968" fill="#FFFFFF" rx="71.7975" ry="16.7595" style="stroke:#000000;stroke-width:1.0;"/><text fill="#000000" font-family="Verdana" font-size="14" lengthAdjust="spacing" textLength="96" x="958.0767" y="771.5016">Cerca Oggetti</text></g><g id="elem_UC5"><ellipse cx="1008.0918" cy="441.6557" fill="#FFFFFF" rx="112.5918" ry="24.9184" style="stroke:#000000;stroke-width:1.0;"/><text fill="#000000" font-family="Verdana" font-size="14" lengthAdjust="spacing" textLength="190" x="913.0918" y="445.2235">Visualizza Dettagli Oggetto</text></g><g id="elem_UC6"><ellipse cx="1007.9107" cy="839.6194" fill="#FFFFFF" rx="84.9107" ry="19.3821" style="stroke:#000000;stroke-width:1.0;"/><text fill="#000000" font-family="Verdana" font-size="14" lengthAdjust="spacing" textLength="128" x="943.9107" y="843.1873">Confronta Oggetti</text></g><g id="elem_UC7"><ellipse cx="1007.8712" cy="921.5115" fill="#FFFFFF" rx="121.8712" ry="26.7742" style="stroke:#000000;stroke-width:1.0;"/><text fill="#000000" font-family="Verdana" font-size="14" lengthAdjust="spacing" textLength="210" x="902.8712" y="925.0794">Visualizza Recensioni Oggetto</text></g><g id="elem_UC8"><ellipse cx="490.7889" cy="1303.8951" fill="#FFFFFF" rx="116.2889" ry="25.6578" style="stroke:#000000;stroke-width:1.0;"/><text fill="#000000" font-family="Verdana" font-size="14" lengthAdjust="spacing" textLength="198" x="391.7889" y="1307.4629">Aggiungi Oggetto al Carrello</text></g><g id="elem_UC9"><ellipse cx="491.1805" cy="1068.6734" fill="#FFFFFF" rx="117.6805" ry="25.9361" style="stroke:#000000;stroke-width:1.0;"/><text fill="#000000" font-family="Verdana" font-size="14" lengthAdjust="spacing" textLength="201" x="390.6805" y="1072.2413">Rimuovi Oggetto dal Carrello</text></g><g id="elem_UC10"><ellipse cx="491.0578" cy="1148.9489" fill="#FFFFFF" rx="84.0578" ry="19.2116" style="stroke:#000000;stroke-width:1.0;"/><text fill="#000000" font-family="Verdana" font-size="14" lengthAdjust="spacing" textLength="126" x="428.0578" y="1152.5167">Visualizza Carrello</text></g><g id="elem_UC11"><ellipse cx="1007.7848" cy="1310.6943" fill="#FFFFFF" rx="82.7848" ry="18.957" style="stroke:#000000;stroke-width:1.0;"/><text fill="#000000" font-family="Verdana" font-size="14" lengthAdjust="spacing" textLength="123" x="946.2848" y="1314.2621">Acquista Oggetto</text></g><g id="elem_UC12"><ellipse cx="490.9888" cy="1222.6351" fill="#FFFFFF" rx="87.4888" ry="19.8978" style="stroke:#000000;stroke-width:1.0;"/><text fill="#000000" font-family="Verdana" font-size="14" lengthAdjust="spacing" textLength="134" x="423.9888" y="1226.2029">Conferma Acquisto</text></g><g id="elem_UC15"><ellipse cx="1367.342" cy="1480.6057" fill="#FFFFFF" rx="99.842" ry="22.3684" style="stroke:#000000;stroke-width:1.0;"/><text fill="#000000" font-family="Verdana" font-size="14" lengthAdjust="spacing" textLength="162" x="1286.342" y="1484.1736">Visualizza Saldo Crediti</text></g><g id="elem_UC17"><ellipse cx="1367.4718" cy="1564.7317" fill="#FFFFFF" rx="120.4718" ry="26.4944" style="stroke:#000000;stroke-width:1.0;"/><text fill="#000000" font-family="Verdana" font-size="14" lengthAdjust="spacing" textLength="207" x="1263.9718" y="1568.2995">Guadagna Crediti dalle Partite</text></g><g id="elem_UC18"><ellipse cx="1367.3117" cy="1649.5996" fill="#FFFFFF" rx="104.8117" ry="23.3623" style="stroke:#000000;stroke-width:1.0;"/><text fill="#000000" font-family="Verdana" font-size="14" lengthAdjust="spacing" textLength="173" x="1280.8117" y="1653.1675">Visualizza Storico Crediti</text></g><g id="elem_UC19"><ellipse cx="1367.4406" cy="1727.5254" fill="#FFFFFF" rx="81.9406" ry="18.7881" style="stroke:#000000;stroke-width:1.0;"/><text fill="#000000" font-family="Verdana" font-size="14" lengthAdjust="spacing" textLength="121" x="1306.9406" y="1731.0933">Trasferisci Crediti</text></g><g id="elem_UC20"><ellipse cx="491.0883" cy="1861.555" fill="#FFFFFF" rx="107.0883" ry="23.8177" style="stroke:#000000;stroke-width:1.0;"/><text fill="#000000" font-family="Verdana" font-size="14" lengthAdjust="spacing" textLength="178" x="402.0883" y="1865.1228">Gestisci Catalogo Oggetti</text></g><g id="elem_UC21"><ellipse cx="1008.1426" cy="1850.9658" fill="#FFFFFF" rx="101.6426" ry="22.7285" style="stroke:#000000;stroke-width:1.0;"/><text fill="#000000" font-family="Verdana" font-size="14" lengthAdjust="spacing" textLength="166" x="925.1426" y="1854.5337">Aggiorna Prezzi Oggetti</text></g><g id="elem_UC24"><ellipse cx="491.2211" cy="1778.7815" fill="#FFFFFF" rx="105.7211" ry="23.5442" style="stroke:#000000;stroke-width:1.0;"/><text fill="#000000" font-family="Verdana" font-size="14" lengthAdjust="spacing" textLength="175" x="403.7211" y="1782.3494">Gestisci Stock Inventario</text></g><g id="elem_UC25"><ellipse cx="491.1511" cy="185.7675" fill="#FFFFFF" rx="153.1511" ry="33.0302" style="stroke:#000000;stroke-width:1.0;"/><text fill="#000000" font-family="Verdana" font-size="14" lengthAdjust="spacing" textLength="276" x="353.1511" y="189.3354">Ottieni Raccomandazioni Personalizzate</text></g><g id="elem_UC26"><ellipse cx="490.7922" cy="278.6957" fill="#FFFFFF" rx="110.2922" ry="24.4584" style="stroke:#000000;stroke-width:1.0;"/><text fill="#000000" font-family="Verdana" font-size="14" lengthAdjust="spacing" textLength="185" x="398.2922" y="282.2636">Visualizza Oggetti Popolari</text></g><g id="elem_UC27"><ellipse cx="490.8203" cy="359.8014" fill="#FFFFFF" rx="95.8203" ry="21.5641" style="stroke:#000000;stroke-width:1.0;"/><text fill="#000000" font-family="Verdana" font-size="14" lengthAdjust="spacing" textLength="153" x="414.3203" y="363.3692">Visualizza Nuovi Arrivi</text></g><!--entity player--><g id="elem_player"><ellipse cx="44.5" cy="838.7373" fill="#FFFFFF" rx="8" ry="8" style="stroke:#000000;stroke-width:1.0;"/><path d="M44.5,846.7373 L44.5,873.7373 M31.5,854.7373 L57.5,854.7373 M44.5,873.7373 L31.5,888.7373 M44.5,873.7373 L57.5,888.7373 " fill="none" style="stroke:#000000;stroke-width:1.0;"/><text fill="#000000" font-family="Verdana" font-size="14" lengthAdjust="spacing" textLength="67" x="11" y="904.8125">Giocatore</text></g><!--entity inventory--><g id="elem_inventory"><ellipse cx="491" cy="1540.7373" fill="#FFFFFF" rx="8" ry="8" style="stroke:#000000;stroke-width:1.0;"/><path d="M491,1548.7373 L491,1575.7373 M478,1556.7373 L504,1556.7373 M491,1575.7373 L478,1590.7373 M491,1575.7373 L504,1590.7373 " fill="none" style="stroke:#000000;stroke-width:1.0;"/><text fill="#000000" font-family="Verdana" font-size="14" lengthAdjust="spacing" textLength="132" x="425" y="1606.8125">Sistema Inventario</text></g><g id="elem_GMN55"><path d="M1551,1543.7373 L1551,1560.7373 L1488.39,1564.7373 L1551,1568.7373 L1551,1585.3359 A0,0 0 0 0 1551,1585.3359 L1742,1585.3359 A0,0 0 0 0 1742,1585.3359 L1742,1553.7373 L1732,1543.7373 L1551,1543.7373 A0,0 0 0 0 1551,1543.7373 " fill="#FFFFFF" style="stroke:#000000;stroke-width:1.0;"/><path d="M1732,1543.7373 L1732,1553.7373 L1742,1553.7373 L1732,1543.7373 " fill="#FFFFFF" style="stroke:#000000;stroke-width:1.0;"/><text fill="#000000" font-family="Verdana" font-size="13" lengthAdjust="spacing" textLength="170" x="1557" y="1561.8071">"Crediti guadagnati basati</text><text fill="#000000" font-family="Verdana" font-size="13" lengthAdjust="spacing" textLength="166" x="1557" y="1577.6064">sulle prestazioni di gioco"</text></g><g id="elem_GMN58"><path d="M377.5,58.7373 L377.5,100.3359 A0,0 0 0 0 377.5,100.3359 L487,100.3359 L491,152.6173 L495,100.3359 L604.5,100.3359 A0,0 0 0 0 604.5,100.3359 L604.5,68.7373 L594.5,58.7373 L377.5,58.7373 A0,0 0 0 0 377.5,58.7373 " fill="#FFFFFF" style="stroke:#000000;stroke-width:1.0;"/><path d="M594.5,58.7373 L594.5,68.7373 L604.5,68.7373 L594.5,58.7373 " fill="#FFFFFF" style="stroke:#000000;stroke-width:1.0;"/><text fill="#000000" font-family="Verdana" font-size="13" lengthAdjust="spacing" textLength="206" x="383.5" y="76.8071">"Raccomandazioni basate su AI</text><text fill="#000000" font-family="Verdana" font-size="13" lengthAdjust="spacing" textLength="159" x="383.5" y="92.6064">secondi lo stile di gioco"</text></g><!--link player to UC1--><g id="link_player_UC1"><path d="M49.22,829.4373 C55.07,788.5573 70.03,725.1473 108,685.7373 C176.04,615.1273 218.78,630.1673 314,606.7373 C519.55,556.1573 761.3982,537.2005 898.0082,530.0605 " fill="none" id="player-to-UC1" style="stroke:#000000;stroke-width:1.0;"/><polygon fill="#000000" points="904,529.7473,894.8035,526.2225,899.0068,530.0083,895.221,534.2116,904,529.7473" style="stroke:#000000;stroke-width:1.0;"/><text fill="#000000" font-family="Verdana" font-size="13" lengthAdjust="spacing" textLength="162" x="410" y="546.8071">naviga oggetti disponibili</text></g><!--link player to UC2--><g id="link_player_UC2"><path d="M55.61,829.6273 C64.83,801.4173 81.19,764.4573 108,741.7373 C180.95,679.9273 220.23,698.4073 314,679.7373 C517.39,639.2473 753.2983,621.9027 890.8183,614.6627 " fill="none" id="player-to-UC2" style="stroke:#000000;stroke-width:1.0;"/><polygon fill="#000000" points="896.81,614.3473,887.6122,610.826,891.8169,614.6102,888.0327,618.8149,896.81,614.3473" style="stroke:#000000;stroke-width:1.0;"/><text fill="#000000" font-family="Verdana" font-size="13" lengthAdjust="spacing" textLength="158" x="412" y="628.8071">filtra per tipo arma/tank</text></g><!--link player to UC3--><g id="link_player_UC3"><path d="M70.16,829.4473 C80.37,816.0273 93.28,802.0673 108,792.7373 C187.76,742.1873 220.75,755.6173 314,740.7373 C521.67,707.6073 761.9616,697.4776 897.9116,694.2976 " fill="none" id="player-to-UC3" style="stroke:#000000;stroke-width:1.0;"/><polygon fill="#000000" points="903.91,694.1573,894.8189,690.3689,898.9114,694.2742,895.006,698.3667,903.91,694.1573" style="stroke:#000000;stroke-width:1.0;"/><text fill="#000000" font-family="Verdana" font-size="13" lengthAdjust="spacing" textLength="148" x="417" y="701.8071">filtra per fascia prezzo</text></g><!--link player to UC4--><g id="link_player_UC4"><path d="M78.03,850.3373 C87.43,845.7973 97.89,841.4573 108,838.7373 C408.27,757.8373 777.7831,759.5452 931.0231,764.4552 " fill="none" id="player-to-UC4" style="stroke:#000000;stroke-width:1.0;"/><polygon fill="#000000" points="937.02,764.6473,928.1527,760.3611,932.0226,764.4872,927.8965,768.357,937.02,764.6473" style="stroke:#000000;stroke-width:1.0;"/><text fill="#000000" font-family="Verdana" font-size="13" lengthAdjust="spacing" textLength="147" x="417.5" y="762.8071">cerca oggetti specifici</text></g><!--link player to UC5--><g id="link_player_UC5"><path d="M45.47,829.4973 C47.45,776.5673 58.35,681.9873 108,621.7373 C172.36,543.6473 216.73,552.6673 314,524.7373 C513.88,467.3373 751.2346,449.8333 889.9246,444.3733 " fill="none" id="player-to-UC5" style="stroke:#000000;stroke-width:1.0;"/><polygon fill="#000000" points="895.92,444.1373,886.7696,440.4944,890.9239,444.334,887.0843,448.4882,895.92,444.1373" style="stroke:#000000;stroke-width:1.0;"/><text fill="#000000" font-family="Verdana" font-size="13" lengthAdjust="spacing" textLength="181" x="400.5" y="457.8071">esamina specifiche oggetto</text></g><!--link player to UC6--><g id="link_player_UC6"><path d="M78.04,867.7573 C211.72,863.7273 715.0627,848.5381 917.4127,842.4381 " fill="none" id="player-to-UC6" style="stroke:#000000;stroke-width:1.0;"/><polygon fill="#000000" points="923.41,842.2573,914.2936,838.5303,918.4123,842.408,914.5346,846.5267,923.41,842.2573" style="stroke:#000000;stroke-width:1.0;"/><text fill="#000000" font-family="Verdana" font-size="13" lengthAdjust="spacing" textLength="151" x="415.5" y="847.8071">confronta oggetti simili</text></g><!--link player to UC7--><g id="link_player_UC7"><path d="M78.23,872.7773 C87.81,873.8573 98.31,874.9473 108,875.7373 C386.43,898.4273 708.3437,911.6474 880.8837,917.6874 " fill="none" id="player-to-UC7" style="stroke:#000000;stroke-width:1.0;"/><polygon fill="#000000" points="886.88,917.8973,878.0254,913.5849,881.8831,917.7224,877.7456,921.58,886.88,917.8973" style="stroke:#000000;stroke-width:1.0;"/><text fill="#000000" font-family="Verdana" font-size="13" lengthAdjust="spacing" textLength="150" x="416" y="888.8071">legge recensioni utenti</text></g><!--link player to UC8--><g id="link_player_UC8"><path d="M45.65,907.8873 C46.9,999.4973 55.38,1223.7973 108,1272.7373 C189.12,1348.1873 320.4102,1339.6993 406.4202,1323.7793 " fill="none" id="player-to-UC8" style="stroke:#000000;stroke-width:1.0;"/><polygon fill="#000000" points="412.32,1322.6873,402.7423,1320.3921,407.4035,1323.5973,404.1983,1328.2585,412.32,1322.6873" style="stroke:#000000;stroke-width:1.0;"/><text fill="#000000" font-family="Verdana" font-size="13" lengthAdjust="spacing" textLength="180" x="117" y="1269.8071">aggiunge oggetti desiderati</text></g><!--link player to UC9--><g id="link_player_UC9"><path d="M54.1,907.8273 C62.7,937.3873 78.94,976.5573 108,998.7373 C184.24,1056.9273 287.7017,1071.9243 369.9217,1073.8843 " fill="none" id="player-to-UC9" style="stroke:#000000;stroke-width:1.0;"/><polygon fill="#000000" points="375.92,1074.0273,367.0179,1069.814,370.9214,1073.9081,366.8272,1077.8117,375.92,1074.0273" style="stroke:#000000;stroke-width:1.0;"/><text fill="#000000" font-family="Verdana" font-size="13" lengthAdjust="spacing" textLength="183" x="115.5" y="995.8071">rimuove oggetti indesiderati</text></g><!--link player to UC10--><g id="link_player_UC10"><path d="M51.24,907.9773 C60.47,965.4773 80.43,1068.4573 108,1092.7373 C194.26,1168.7173 330.4218,1168.6445 414.8418,1159.9145 " fill="none" id="player-to-UC10" style="stroke:#000000;stroke-width:1.0;"/><polygon fill="#000000" points="420.81,1159.2973,411.4463,1156.2443,415.8365,1159.8116,412.2692,1164.2019,420.81,1159.2973" style="stroke:#000000;stroke-width:1.0;"/><text fill="#000000" font-family="Verdana" font-size="13" lengthAdjust="spacing" textLength="166" x="124" y="1089.8071">rivede contenuto carrello</text></g><!--link player to UC11--><g id="link_player_UC11"><path d="M44.74,907.8773 C43.65,1010.2173 46.7,1281.9473 108,1341.7373 C226.37,1457.1873 758.1092,1361.6271 940.4392,1324.7371 " fill="none" id="player-to-UC11" style="stroke:#000000;stroke-width:1.0;"/><polygon fill="#000000" points="946.32,1323.5473,936.7055,1321.4115,941.4193,1324.5388,938.292,1329.2526,946.32,1323.5473" style="stroke:#000000;stroke-width:1.0;"/><text fill="#000000" font-family="Verdana" font-size="13" lengthAdjust="spacing" textLength="96" x="443" y="1367.8071">avvia acquisto</text></g><!--link player to UC12--><g id="link_player_UC12"><path d="M47.55,907.8973 C52.42,984.3073 67.48,1149.0073 108,1185.7373 C195.5,1265.0473 339.0586,1253.3505 422.7386,1237.9905 " fill="none" id="player-to-UC12" style="stroke:#000000;stroke-width:1.0;"/><polygon fill="#000000" points="428.64,1236.9073,419.0657,1234.5979,423.7222,1237.81,420.5101,1242.4664,428.64,1236.9073" style="stroke:#000000;stroke-width:1.0;"/><text fill="#000000" font-family="Verdana" font-size="13" lengthAdjust="spacing" textLength="142" x="136" y="1182.8071">conferma transazione</text></g><!--link player to UC15--><g id="link_player_UC15"><path d="M47.24,908.0373 C52.83,1025.6473 72.12,1368.7673 108,1402.7373 C191.48,1481.7773 979.3201,1483.6573 1261.5401,1481.7773 " fill="none" id="player-to-UC15" style="stroke:#000000;stroke-width:1.0;"/><polygon fill="#000000" points="1267.54,1481.7373,1258.5136,1477.7973,1262.5401,1481.7706,1258.5668,1485.7972,1267.54,1481.7373" style="stroke:#000000;stroke-width:1.0;"/><text fill="#000000" font-family="Verdana" font-size="13" lengthAdjust="spacing" textLength="170" x="680" y="1471.8071">controlla crediti disponibili</text></g><!--link player to UC18--><g id="link_player_UC18"><path d="M45.83,907.7373 C47.38,1023.4973 56.35,1362.9773 108,1458.7373 C164.22,1562.9673 202.92,1586.6873 314,1627.7373 C657.51,1754.6773 1102.1792,1697.4082 1281.7592,1666.0882 " fill="none" id="player-to-UC18" style="stroke:#000000;stroke-width:1.0;"/><polygon fill="#000000" points="1287.67,1665.0573,1278.1166,1662.6631,1282.7444,1665.9164,1279.4911,1670.5441,1287.67,1665.0573" style="stroke:#000000;stroke-width:1.0;"/><text fill="#000000" font-family="Verdana" font-size="13" lengthAdjust="spacing" textLength="133" x="698.5" y="1697.8071">rivede storico spese</text></g><!--link player to UC25--><g id="link_player_UC25"><path d="M46.89,829.4373 C51.76,701.7973 69.87,304.7273 108,262.7373 C166.67,198.1273 257.2141,179.3084 338.5641,176.3084 " fill="none" id="player-to-UC25" style="stroke:#000000;stroke-width:1.0;"/><polygon fill="#000000" points="344.56,176.0873,335.4187,172.4217,339.5634,176.2716,335.7135,180.4163,344.56,176.0873" style="stroke:#000000;stroke-width:1.0;"/><text fill="#000000" font-family="Verdana" font-size="13" lengthAdjust="spacing" textLength="187" x="113.5" y="176.8071">ottiene suggerimenti oggetti</text></g><!--link player to UC26--><g id="link_player_UC26"><path d="M47.42,829.3873 C53.49,712.4573 73.93,373.0673 108,337.7373 C144.75,299.6373 275.267,286.3862 374.637,281.5962 " fill="none" id="player-to-UC26" style="stroke:#000000;stroke-width:1.0;"/><polygon fill="#000000" points="380.63,281.3073,371.4478,277.7453,375.6358,281.548,371.833,285.736,380.63,281.3073" style="stroke:#000000;stroke-width:1.0;"/><text fill="#000000" font-family="Verdana" font-size="13" lengthAdjust="spacing" textLength="196" x="109" y="284.8071">visualizza oggetti di tendenza</text></g><!--link player to UC27--><g id="link_player_UC27"><path d="M44.96,829.5473 C44.44,729.1073 48.89,466.2773 108,407.7373 C147.24,368.8773 288.9905,360.2642 388.8205,358.9842 " fill="none" id="player-to-UC27" style="stroke:#000000;stroke-width:1.0;"/><polygon fill="#000000" points="394.82,358.9073,385.7695,355.023,389.8204,358.9714,385.872,363.0224,394.82,358.9073" style="stroke:#000000;stroke-width:1.0;"/><text fill="#000000" font-family="Verdana" font-size="13" lengthAdjust="spacing" textLength="163" x="125.5" y="359.8071">controlla ultime aggiunte</text></g><!--link inventory to UC11--><g id="link_inventory_UC11"><path d="M557.34,1569.2773 C647.75,1566.2073 805.34,1556.7373 854,1527.7373 C933.59,1480.3073 980.3042,1379.1532 997.6542,1335.4932 " fill="none" id="inventory-to-UC11" style="stroke:#000000;stroke-width:1.0;"/><polygon fill="#000000" points="999.87,1329.9173,992.8291,1336.8039,998.0235,1334.5639,1000.2636,1339.7583,999.87,1329.9173" style="stroke:#000000;stroke-width:1.0;"/><text fill="#000000" font-family="Verdana" font-size="13" lengthAdjust="spacing" textLength="176" x="677" y="1524.8071">aggiorna oggetti posseduti</text></g><!--link inventory to UC17--><g id="link_inventory_UC17"><path d="M557.02,1570.2873 C703.18,1569.2873 1053.5401,1566.8886 1240.9001,1565.5986 " fill="none" id="inventory-to-UC17" style="stroke:#000000;stroke-width:1.0;"/><polygon fill="#000000" points="1246.9,1565.5573,1237.8727,1561.6194,1241.9001,1565.5917,1237.9278,1569.6192,1246.9,1565.5573" style="stroke:#000000;stroke-width:1.0;"/><text fill="#000000" font-family="Verdana" font-size="13" lengthAdjust="spacing" textLength="149" x="933.5" y="1562.8071">assegna crediti partita</text></g><!--link UC20 to UC21--><g id="link_UC20_UC21"><path d="M597.77,1859.4773 C688.29,1857.5473 811.6914,1854.9055 900.6214,1853.0055 " fill="none" id="UC20-to-UC21" style="stroke:#000000;stroke-width:1.0;"/><polygon fill="#000000" points="906.62,1852.8773,897.5366,1849.0705,901.6211,1852.9841,897.7075,1857.0686,906.62,1852.8773" style="stroke:#000000;stroke-width:1.0;"/><text fill="#000000" font-family="Verdana" font-size="13" lengthAdjust="spacing" textLength="46" x="742" y="1850.8071">include</text></g><!--link UC24 to UC11--><g id="link_UC24_UC11"><path d="M572.65,1793.6773 C656.25,1803.9973 784.25,1804.3573 854,1727.7373 C866.95,1713.5073 856.48,1573.1673 862,1554.7373 C889.73,1462.2173 956.2211,1373.0059 987.6411,1334.0859 " fill="none" id="UC24-to-UC11" style="stroke:#000000;stroke-width:1.0;"/><polygon fill="#000000" points="991.41,1329.4173,982.6443,1333.9075,988.2692,1333.3078,988.869,1338.9327,991.41,1329.4173" style="stroke:#000000;stroke-width:1.0;"/><text fill="#000000" font-family="Verdana" font-size="13" lengthAdjust="spacing" textLength="145" x="692.5" y="1724.8071">valida disponibilit&#224; per</text></g><!--link UC11 to UC15--><g id="link_UC11_UC15"><path d="M1044.92,1327.8173 C1111.23,1359.3473 1247.1615,1423.9906 1318.3015,1457.8206 " fill="none" id="UC11-to-UC15" style="stroke:#000000;stroke-width:1.0;stroke-dasharray:7.0,7.0;"/><polygon fill="#000000" points="1323.72,1460.3973,1317.31,1452.9199,1319.2046,1458.25,1313.8744,1460.1446,1323.72,1460.3973" style="stroke:#000000;stroke-width:1.0;"/><text fill="#000000" font-family="Verdana" font-size="13" lengthAdjust="spacing" textLength="51" x="1163" y="1381.8071">richiede</text></g><!--link UC12 to UC11--><g id="link_UC12_UC11"><path d="M561.46,1234.6073 C661.12,1251.6373 837.5057,1281.7766 935.1657,1298.4666 " fill="none" id="UC12-to-UC11" style="stroke:#000000;stroke-width:1.0;stroke-dasharray:7.0,7.0;"/><polygon fill="#000000" points="941.08,1299.4773,932.8824,1294.0184,936.1515,1298.635,931.5348,1301.904,941.08,1299.4773" style="stroke:#000000;stroke-width:1.0;"/><text fill="#000000" font-family="Verdana" font-size="13" lengthAdjust="spacing" textLength="61" x="734.5" y="1252.8071">conferma</text></g><!--link UC25 to UC5--><g id="link_UC25_UC5"><path d="M593.66,210.2873 C618.44,217.6073 644.54,226.4573 668,236.7373 C787.06,288.9073 910.212,372.2977 969.072,414.1977 " fill="none" id="UC25-to-UC5" style="stroke:#000000;stroke-width:1.0;stroke-dasharray:7.0,7.0;"/><polygon fill="#000000" points="973.96,417.6773,968.9477,409.1993,969.8867,414.7777,964.3083,415.7166,973.96,417.6773" style="stroke:#000000;stroke-width:1.0;"/><text fill="#000000" font-family="Verdana" font-size="13" lengthAdjust="spacing" textLength="65" x="732.5" y="238.8071">basato su</text></g><!--SRC=[XLR1Kjmu4BtxAxHpuKJ2J2103gcYe4BbGYX8zhINHkunNSYILv9TbKdjl-o_x8zjIxPiBEFANCRWrq_ThxkVvW__Z3MAHW7fel3a5Of7j1qTo8Wxh4puFXOt19M5kWPH8ebhS2JAen_E58N2lHVU24lLinSbMPIU37E1zCQApIqP2Vo46m4kdFCJRNhtICuZStxL7MeFbam4KVpJs9z5qO1yWGedw1rqL04dfJ6bjn6_2i6Vrg445x1xKoa2JjE3CfMPW4p-utexHtyXvIs8RrM5tfDeq8P0Zh04GyJkjn7t5W-7TC27EVmQhHpH0-Hq3lcJN0kA3WSGDum2Jdy8I9nd6QVHUsjOiuptuohl0qhKZdNBcS-BVzxG-Kh-tVBZKjohgg9MLoEB0CLwMOjA9SQBUSG3rQtffe1o6N6vcdO6t9vasVHfGbRJThkK2-sih1wtUxFuMtG-JjYrnPA2kBzM4tm4LPe9sDDctRfjeOHAGu852NZFxi7omc4AEby_WvU1vEAKJEVl5XnNIKvIZhnykyTrJPgVxM_sASeHMTD2pOTkTx8S4MEvtBWLbAEtA-nSfNp9lO3nfsyc_m1IcXfq6PDVjkWRduWyx1bEtADrHlV2ZjhlpbQrJrj-RngZEAqKiRvfTt7QhwobRaJ79JlYuZpQ8P7H68lU5CNnyUVGA_59w6XomWn7b-GQZdWYHNFiZh7xteo22NbgU1rvpDzxq2zpw8SvT0-iE3z6sveZJnafesMbyrs3alOaizFF68WEU8PWX3pZ49MHVWoaesUDn5GlQZfdf48623ivLkjv9ZBW1GEXDoESf4979KkSWoyPRACFJLZIQ-ZjIOHtM6B8cWzlsRVaO4KPDZGCkexLXC5SCi1kg3qQ43T0ktxVCjXP3_FMA0L29gTOw_tsOihH3Vx0NN0PxIxGchWBZ6kvT9OXY9baoE2XKTqqozC82bQXH7s0BE1ybdQhFDCFVV5Ov4E_lF6ByRQV2Pei92NG6EUmR3dV1Jva0Fms66oIhOdM2Yl75y6pKW7XED9IjIM6_v- -JgDZ6KfutGJ_txzXWGBn0wgUjeZeT-_6Dd8pdWaZ7tT_UB5zDGP5R4p_8WGyWMChuFuKXJOUXnzJPf_AswIBenfk4dwCCVINTcsuItYJ-Hhig-HciNhIR7go9sw_gNksE0wRt1CZLHWFSVML2P7JP0x52NbYxedlVm00]--></g></svg>