<?xml version="1.0" encoding="us-ascii" standalone="no"?><svg xmlns="http://www.w3.org/2000/svg" xmlns:xlink="http://www.w3.org/1999/xlink" contentStyleType="text/css" height="1815px" preserveAspectRatio="none" style="width:2172px;height:1815px;background:#FFFFFF;" version="1.1" viewBox="0 0 2172 1815" width="2172px" zoomAndPan="magnify"><defs/><g><text fill="#000000" font-family="Verdana" font-size="22" font-weight="bold" lengthAdjust="spacing" textLength="538" x="815.75" y="37.1182">Servizio Negozio - Diagramma di Sequenza</text><rect fill="#FFFFFF" height="360.9604" style="stroke:#000000;stroke-width:1.0;" width="2140.5" x="15" y="944.5342"/><rect fill="#FFFFFF" height="74.9673" style="stroke:none;stroke-width:1.0;" width="2140.5" x="15" y="1230.5273"/><line style="stroke:#000000;stroke-width:1.0;" x1="97" x2="97" y1="84.752" y2="1779.6851"/><line style="stroke:#000000;stroke-width:1.0;" x1="806.5" x2="806.5" y1="84.752" y2="1779.6851"/><line style="stroke:#000000;stroke-width:1.0;" x1="1122.5" x2="1122.5" y1="84.752" y2="1779.6851"/><line style="stroke:#000000;stroke-width:1.0;" x1="1463" x2="1463" y1="84.752" y2="1779.6851"/><line style="stroke:#000000;stroke-width:1.0;" x1="1626" x2="1626" y1="84.752" y2="1779.6851"/><line style="stroke:#000000;stroke-width:1.0;" x1="2095.5" x2="2095.5" y1="84.752" y2="1779.6851"/><rect fill="#FFFFFF" height="31.0146" rx="2.5" ry="2.5" style="stroke:#000000;stroke-width:1.0;" width="125" x="35" y="52.7373"/><text fill="#000000" font-family="Verdana" font-size="14" lengthAdjust="spacing" textLength="111" x="42" y="73.8125">Client Giocatore</text><rect fill="#FFFFFF" height="31.0146" rx="2.5" ry="2.5" style="stroke:#000000;stroke-width:1.0;" width="125" x="35" y="1778.6851"/><text fill="#000000" font-family="Verdana" font-size="14" lengthAdjust="spacing" textLength="111" x="42" y="1799.7603">Client Giocatore</text><rect fill="#FFFFFF" height="31.0146" rx="2.5" ry="2.5" style="stroke:#000000;stroke-width:1.0;" width="98" x="757.5" y="52.7373"/><text fill="#000000" font-family="Verdana" font-size="14" lengthAdjust="spacing" textLength="84" x="764.5" y="73.8125">API Negozio</text><rect fill="#FFFFFF" height="31.0146" rx="2.5" ry="2.5" style="stroke:#000000;stroke-width:1.0;" width="98" x="757.5" y="1778.6851"/><text fill="#000000" font-family="Verdana" font-size="14" lengthAdjust="spacing" textLength="84" x="764.5" y="1799.7603">API Negozio</text><rect fill="#FFFFFF" height="31.0146" rx="2.5" ry="2.5" style="stroke:#000000;stroke-width:1.0;" width="130" x="1057.5" y="52.7373"/><text fill="#000000" font-family="Verdana" font-size="14" lengthAdjust="spacing" textLength="116" x="1064.5" y="73.8125">Servizio Negozio</text><rect fill="#FFFFFF" height="31.0146" rx="2.5" ry="2.5" style="stroke:#000000;stroke-width:1.0;" width="130" x="1057.5" y="1778.6851"/><text fill="#000000" font-family="Verdana" font-size="14" lengthAdjust="spacing" textLength="116" x="1064.5" y="1799.7603">Servizio Negozio</text><rect fill="#FFFFFF" height="31.0146" rx="2.5" ry="2.5" style="stroke:#000000;stroke-width:1.0;" width="145" x="1391" y="52.7373"/><text fill="#000000" font-family="Verdana" font-size="14" lengthAdjust="spacing" textLength="131" x="1398" y="73.8125">Servizio Inventario</text><rect fill="#FFFFFF" height="31.0146" rx="2.5" ry="2.5" style="stroke:#000000;stroke-width:1.0;" width="145" x="1391" y="1778.6851"/><text fill="#000000" font-family="Verdana" font-size="14" lengthAdjust="spacing" textLength="131" x="1398" y="1799.7603">Servizio Inventario</text><rect fill="#FFFFFF" height="31.0146" rx="2.5" ry="2.5" style="stroke:#000000;stroke-width:1.0;" width="121" x="1566" y="52.7373"/><text fill="#000000" font-family="Verdana" font-size="14" lengthAdjust="spacing" textLength="107" x="1573" y="73.8125">Servizio Utente</text><rect fill="#FFFFFF" height="31.0146" rx="2.5" ry="2.5" style="stroke:#000000;stroke-width:1.0;" width="121" x="1566" y="1778.6851"/><text fill="#000000" font-family="Verdana" font-size="14" lengthAdjust="spacing" textLength="107" x="1573" y="1799.7603">Servizio Utente</text><rect fill="#FFFFFF" height="31.0146" rx="2.5" ry="2.5" style="stroke:#000000;stroke-width:1.0;" width="80" x="2055.5" y="52.7373"/><text fill="#000000" font-family="Verdana" font-size="14" lengthAdjust="spacing" textLength="66" x="2062.5" y="73.8125">Database</text><rect fill="#FFFFFF" height="31.0146" rx="2.5" ry="2.5" style="stroke:#000000;stroke-width:1.0;" width="80" x="2055.5" y="1778.6851"/><text fill="#000000" font-family="Verdana" font-size="14" lengthAdjust="spacing" textLength="66" x="2062.5" y="1799.7603">Database</text><rect fill="#FFFFFF" height="3" style="stroke:#FFFFFF;stroke-width:1.0;" width="2160.5" x="5" y="115.6516"/><line style="stroke:#000000;stroke-width:0.5;" x1="5" x2="2165.5" y1="115.6516" y2="115.6516"/><line style="stroke:#000000;stroke-width:0.5;" x1="5" x2="2165.5" y1="118.6516" y2="118.6516"/><rect fill="#FFFFFF" height="23.7993" style="stroke:#000000;stroke-width:1.0;" width="172" x="999.25" y="104.752"/><text fill="#000000" font-family="Verdana" font-size="13" font-weight="bold" lengthAdjust="spacing" textLength="154" x="1005.25" y="121.8218">Browse Shop Catalog</text><polygon fill="#000000" points="794.5,156.3506,804.5,160.3506,794.5,164.3506,798.5,160.3506" style="stroke:#000000;stroke-width:1.0;"/><line style="stroke:#000000;stroke-width:1.0;" x1="97.5" x2="800.5" y1="160.3506" y2="160.3506"/><text fill="#000000" font-family="Verdana" font-size="13" lengthAdjust="spacing" textLength="256" x="104.5" y="155.6211">GET /shop/catalog?category=weapons</text><polygon fill="#000000" points="1110.5,186.1499,1120.5,190.1499,1110.5,194.1499,1114.5,190.1499" style="stroke:#000000;stroke-width:1.0;"/><line style="stroke:#000000;stroke-width:1.0;" x1="806.5" x2="1116.5" y1="190.1499" y2="190.1499"/><text fill="#000000" font-family="Verdana" font-size="13" lengthAdjust="spacing" textLength="189" x="813.5" y="185.4204">getCatalogItems("weapons")</text><polygon fill="#000000" points="2083.5,215.9492,2093.5,219.9492,2083.5,223.9492,2087.5,219.9492" style="stroke:#000000;stroke-width:1.0;"/><line style="stroke:#000000;stroke-width:1.0;" x1="1122.5" x2="2089.5" y1="219.9492" y2="219.9492"/><text fill="#000000" font-family="Verdana" font-size="13" lengthAdjust="spacing" textLength="469" x="1129.5" y="215.2197">SELECT * FROM TankWeapons WHERE available = true ORDER BY price</text><polygon fill="#000000" points="1133.5,245.7485,1123.5,249.7485,1133.5,253.7485,1129.5,249.7485" style="stroke:#000000;stroke-width:1.0;"/><line style="stroke:#000000;stroke-width:1.0;" x1="1127.5" x2="2094.5" y1="249.7485" y2="249.7485"/><text fill="#000000" font-family="Verdana" font-size="13" lengthAdjust="spacing" textLength="78" x="1139.5" y="245.019">weapon_list</text><line style="stroke:#000000;stroke-width:1.0;" x1="1122.5" x2="1164.5" y1="279.5479" y2="279.5479"/><line style="stroke:#000000;stroke-width:1.0;" x1="1164.5" x2="1164.5" y1="279.5479" y2="292.5479"/><line style="stroke:#000000;stroke-width:1.0;" x1="1123.5" x2="1164.5" y1="292.5479" y2="292.5479"/><polygon fill="#000000" points="1133.5,288.5479,1123.5,292.5479,1133.5,296.5479,1129.5,292.5479" style="stroke:#000000;stroke-width:1.0;"/><text fill="#000000" font-family="Verdana" font-size="13" lengthAdjust="spacing" textLength="296" x="1129.5" y="274.8184">addRecommendationFlags(user_id, weapons)</text><polygon fill="#000000" points="817.5,318.3472,807.5,322.3472,817.5,326.3472,813.5,322.3472" style="stroke:#000000;stroke-width:1.0;"/><line style="stroke:#000000;stroke-width:1.0;" x1="811.5" x2="1121.5" y1="322.3472" y2="322.3472"/><text fill="#000000" font-family="Verdana" font-size="13" lengthAdjust="spacing" textLength="87" x="823.5" y="317.6177">catalog_data</text><polygon fill="#000000" points="108.5,348.1465,98.5,352.1465,108.5,356.1465,104.5,352.1465" style="stroke:#000000;stroke-width:1.0;"/><line style="stroke:#000000;stroke-width:1.0;" x1="102.5" x2="805.5" y1="352.1465" y2="352.1465"/><text fill="#000000" font-family="Verdana" font-size="13" lengthAdjust="spacing" textLength="503" x="114.5" y="347.417">[{id: 3, name: "Heavy Machine Gun", price: 1500, recommended: true}, ...]</text><rect fill="#FFFFFF" height="3" style="stroke:#FFFFFF;stroke-width:1.0;" width="2160.5" x="5" y="381.0461"/><line style="stroke:#000000;stroke-width:0.5;" x1="5" x2="2165.5" y1="381.0461" y2="381.0461"/><line style="stroke:#000000;stroke-width:0.5;" x1="5" x2="2165.5" y1="384.0461" y2="384.0461"/><rect fill="#FFFFFF" height="23.7993" style="stroke:#000000;stroke-width:1.0;" width="146" x="1012.25" y="370.1465"/><text fill="#000000" font-family="Verdana" font-size="13" font-weight="bold" lengthAdjust="spacing" textLength="128" x="1018.25" y="387.2163">View Item Details</text><polygon fill="#000000" points="794.5,421.7451,804.5,425.7451,794.5,429.7451,798.5,425.7451" style="stroke:#000000;stroke-width:1.0;"/><line style="stroke:#000000;stroke-width:1.0;" x1="97.5" x2="800.5" y1="425.7451" y2="425.7451"/><text fill="#000000" font-family="Verdana" font-size="13" lengthAdjust="spacing" textLength="116" x="104.5" y="421.0156">GET /shop/item/3</text><polygon fill="#000000" points="1110.5,451.5444,1120.5,455.5444,1110.5,459.5444,1114.5,455.5444" style="stroke:#000000;stroke-width:1.0;"/><line style="stroke:#000000;stroke-width:1.0;" x1="806.5" x2="1116.5" y1="455.5444" y2="455.5444"/><text fill="#000000" font-family="Verdana" font-size="13" lengthAdjust="spacing" textLength="116" x="813.5" y="450.8149">getItemDetails(3)</text><polygon fill="#000000" points="2083.5,481.3438,2093.5,485.3438,2083.5,489.3438,2087.5,485.3438" style="stroke:#000000;stroke-width:1.0;"/><line style="stroke:#000000;stroke-width:1.0;" x1="1122.5" x2="2089.5" y1="485.3438" y2="485.3438"/><text fill="#000000" font-family="Verdana" font-size="13" lengthAdjust="spacing" textLength="297" x="1129.5" y="480.6143">SELECT * FROM TankWeapons WHERE id = 3</text><polygon fill="#000000" points="1133.5,511.1431,1123.5,515.1431,1133.5,519.1431,1129.5,515.1431" style="stroke:#000000;stroke-width:1.0;"/><line style="stroke:#000000;stroke-width:1.0;" x1="1127.5" x2="2094.5" y1="515.1431" y2="515.1431"/><text fill="#000000" font-family="Verdana" font-size="13" lengthAdjust="spacing" textLength="102" x="1139.5" y="510.4136">weapon_details</text><polygon fill="#000000" points="1451.5,540.9424,1461.5,544.9424,1451.5,548.9424,1455.5,544.9424" style="stroke:#000000;stroke-width:1.0;"/><line style="stroke:#000000;stroke-width:1.0;" x1="1122.5" x2="1457.5" y1="544.9424" y2="544.9424"/><text fill="#000000" font-family="Verdana" font-size="13" lengthAdjust="spacing" textLength="184" x="1129.5" y="540.2129">checkOwnership(user_id, 3)</text><polygon fill="#000000" points="817.5,570.7417,807.5,574.7417,817.5,578.7417,813.5,574.7417" style="stroke:#000000;stroke-width:1.0;"/><line style="stroke:#000000;stroke-width:1.0;" x1="811.5" x2="1462.5" y1="574.7417" y2="574.7417"/><text fill="#000000" font-family="Verdana" font-size="13" lengthAdjust="spacing" textLength="166" x="823.5" y="570.0122">ownership_status = false</text><polygon fill="#000000" points="817.5,600.541,807.5,604.541,817.5,608.541,813.5,604.541" style="stroke:#000000;stroke-width:1.0;"/><line style="stroke:#000000;stroke-width:1.0;" x1="811.5" x2="1121.5" y1="604.541" y2="604.541"/><text fill="#000000" font-family="Verdana" font-size="13" lengthAdjust="spacing" textLength="79" x="823.5" y="599.8115">item_details</text><polygon fill="#000000" points="108.5,630.3403,98.5,634.3403,108.5,638.3403,104.5,634.3403" style="stroke:#000000;stroke-width:1.0;"/><line style="stroke:#000000;stroke-width:1.0;" x1="102.5" x2="805.5" y1="634.3403" y2="634.3403"/><text fill="#000000" font-family="Verdana" font-size="13" lengthAdjust="spacing" textLength="685" x="114.5" y="629.6108">{id: 3, name: "Heavy Machine Gun", price: 1500, damage: 40, rating: 4.2, reviews: 156, owned: false}</text><rect fill="#FFFFFF" height="3" style="stroke:#FFFFFF;stroke-width:1.0;" width="2160.5" x="5" y="663.24"/><line style="stroke:#000000;stroke-width:0.5;" x1="5" x2="2165.5" y1="663.24" y2="663.24"/><line style="stroke:#000000;stroke-width:0.5;" x1="5" x2="2165.5" y1="666.24" y2="666.24"/><rect fill="#FFFFFF" height="23.7993" style="stroke:#000000;stroke-width:1.0;" width="215" x="977.75" y="652.3403"/><text fill="#000000" font-family="Verdana" font-size="13" font-weight="bold" lengthAdjust="spacing" textLength="197" x="983.75" y="669.4102">Purchase Item with Credits</text><polygon fill="#000000" points="794.5,703.939,804.5,707.939,794.5,711.939,798.5,707.939" style="stroke:#000000;stroke-width:1.0;"/><line style="stroke:#000000;stroke-width:1.0;" x1="97.5" x2="800.5" y1="707.939" y2="707.939"/><text fill="#000000" font-family="Verdana" font-size="13" lengthAdjust="spacing" textLength="426" x="104.5" y="703.2095">POST /shop/purchase {token, item_id: 3, item_type: "weapon"}</text><line style="stroke:#000000;stroke-width:1.0;" x1="806.5" x2="848.5" y1="737.7383" y2="737.7383"/><line style="stroke:#000000;stroke-width:1.0;" x1="848.5" x2="848.5" y1="737.7383" y2="750.7383"/><line style="stroke:#000000;stroke-width:1.0;" x1="807.5" x2="848.5" y1="750.7383" y2="750.7383"/><polygon fill="#000000" points="817.5,746.7383,807.5,750.7383,817.5,754.7383,813.5,750.7383" style="stroke:#000000;stroke-width:1.0;"/><text fill="#000000" font-family="Verdana" font-size="13" lengthAdjust="spacing" textLength="109" x="813.5" y="733.0088">validate_token()</text><polygon fill="#000000" points="1110.5,776.5376,1120.5,780.5376,1110.5,784.5376,1114.5,780.5376" style="stroke:#000000;stroke-width:1.0;"/><line style="stroke:#000000;stroke-width:1.0;" x1="806.5" x2="1116.5" y1="780.5376" y2="780.5376"/><text fill="#000000" font-family="Verdana" font-size="13" lengthAdjust="spacing" textLength="292" x="813.5" y="775.8081">initiatePurchase(user_id, item_id, "weapon")</text><polygon fill="#000000" points="2083.5,806.3369,2093.5,810.3369,2083.5,814.3369,2087.5,810.3369" style="stroke:#000000;stroke-width:1.0;"/><line style="stroke:#000000;stroke-width:1.0;" x1="1122.5" x2="2089.5" y1="810.3369" y2="810.3369"/><text fill="#000000" font-family="Verdana" font-size="13" lengthAdjust="spacing" textLength="297" x="1129.5" y="805.6074">SELECT * FROM TankWeapons WHERE id = 3</text><polygon fill="#000000" points="1133.5,836.1362,1123.5,840.1362,1133.5,844.1362,1129.5,840.1362" style="stroke:#000000;stroke-width:1.0;"/><line style="stroke:#000000;stroke-width:1.0;" x1="1127.5" x2="2094.5" y1="840.1362" y2="840.1362"/><text fill="#000000" font-family="Verdana" font-size="13" lengthAdjust="spacing" textLength="185" x="1139.5" y="835.4067">weapon_data {price: 1500}</text><polygon fill="#000000" points="1614.5,865.9355,1624.5,869.9355,1614.5,873.9355,1618.5,869.9355" style="stroke:#000000;stroke-width:1.0;"/><line style="stroke:#000000;stroke-width:1.0;" x1="1122.5" x2="1620.5" y1="869.9355" y2="869.9355"/><text fill="#000000" font-family="Verdana" font-size="13" lengthAdjust="spacing" textLength="156" x="1129.5" y="865.2061">getUserCredits(user_id)</text><polygon fill="#000000" points="2083.5,895.7349,2093.5,899.7349,2083.5,903.7349,2087.5,899.7349" style="stroke:#000000;stroke-width:1.0;"/><line style="stroke:#000000;stroke-width:1.0;" x1="1626.5" x2="2089.5" y1="899.7349" y2="899.7349"/><text fill="#000000" font-family="Verdana" font-size="13" lengthAdjust="spacing" textLength="341" x="1633.5" y="895.0054">SELECT credits FROM UserStats WHERE user_id = ?</text><polygon fill="#000000" points="1637.5,925.5342,1627.5,929.5342,1637.5,933.5342,1633.5,929.5342" style="stroke:#000000;stroke-width:1.0;"/><line style="stroke:#000000;stroke-width:1.0;" x1="1631.5" x2="2094.5" y1="929.5342" y2="929.5342"/><text fill="#000000" font-family="Verdana" font-size="13" lengthAdjust="spacing" textLength="132" x="1643.5" y="924.8047">user_credits = 2000</text><path d="M15,944.5342 L79,944.5342 L79,952.3335 L69,962.3335 L15,962.3335 L15,944.5342 " fill="#FFFFFF" style="stroke:#000000;stroke-width:1.0;"/><rect fill="none" height="360.9604" style="stroke:#000000;stroke-width:1.0;" width="2140.5" x="15" y="944.5342"/><text fill="#000000" font-family="Verdana" font-size="13" font-weight="bold" lengthAdjust="spacing" textLength="19" x="30" y="958.604">alt</text><text fill="#000000" font-family="Verdana" font-size="11" font-weight="bold" lengthAdjust="spacing" textLength="124" x="94" y="957.5933">[Sufficient Credits]</text><polygon fill="#000000" points="2083.5,980.1328,2093.5,984.1328,2083.5,988.1328,2087.5,984.1328" style="stroke:#000000;stroke-width:1.0;"/><line style="stroke:#000000;stroke-width:1.0;" x1="1122.5" x2="2089.5" y1="984.1328" y2="984.1328"/><text fill="#000000" font-family="Verdana" font-size="13" lengthAdjust="spacing" textLength="139" x="1129.5" y="979.4033">BEGIN TRANSACTION</text><polygon fill="#000000" points="1614.5,1009.9321,1624.5,1013.9321,1614.5,1017.9321,1618.5,1013.9321" style="stroke:#000000;stroke-width:1.0;"/><line style="stroke:#000000;stroke-width:1.0;" x1="1122.5" x2="1620.5" y1="1013.9321" y2="1013.9321"/><text fill="#000000" font-family="Verdana" font-size="13" lengthAdjust="spacing" textLength="193" x="1129.5" y="1009.2026">deductCredits(user_id, 1500)</text><polygon fill="#000000" points="2083.5,1039.7314,2093.5,1043.7314,2083.5,1047.7314,2087.5,1043.7314" style="stroke:#000000;stroke-width:1.0;"/><line style="stroke:#000000;stroke-width:1.0;" x1="1626.5" x2="2089.5" y1="1043.7314" y2="1043.7314"/><text fill="#000000" font-family="Verdana" font-size="13" lengthAdjust="spacing" textLength="445" x="1633.5" y="1039.002">UPDATE UserStats SET credits = credits - 1500 WHERE user_id = ?</text><polygon fill="#000000" points="1451.5,1069.5308,1461.5,1073.5308,1451.5,1077.5308,1455.5,1073.5308" style="stroke:#000000;stroke-width:1.0;"/><line style="stroke:#000000;stroke-width:1.0;" x1="1122.5" x2="1457.5" y1="1073.5308" y2="1073.5308"/><text fill="#000000" font-family="Verdana" font-size="13" lengthAdjust="spacing" textLength="315" x="1129.5" y="1068.8013">addToInventory(user_id, weapon_id, "weapon")</text><polygon fill="#000000" points="2083.5,1099.3301,2093.5,1103.3301,2083.5,1107.3301,2087.5,1103.3301" style="stroke:#000000;stroke-width:1.0;"/><line style="stroke:#000000;stroke-width:1.0;" x1="1463.5" x2="2089.5" y1="1103.3301" y2="1103.3301"/><text fill="#000000" font-family="Verdana" font-size="13" lengthAdjust="spacing" textLength="580" x="1470.5" y="1098.6006">INSERT INTO UserTankCustomizations (user_id, tank_id=0, weapon_id, slot_position=0)</text><polygon fill="#000000" points="2083.5,1129.1294,2093.5,1133.1294,2083.5,1137.1294,2087.5,1133.1294" style="stroke:#000000;stroke-width:1.0;"/><line style="stroke:#000000;stroke-width:1.0;" x1="1122.5" x2="2089.5" y1="1133.1294" y2="1133.1294"/><text fill="#000000" font-family="Verdana" font-size="13" lengthAdjust="spacing" textLength="579" x="1129.5" y="1128.3999">INSERT INTO PurchaseHistory (user_id, item_id, item_type, price_paid, purchase_date)</text><polygon fill="#000000" points="2083.5,1158.9287,2093.5,1162.9287,2083.5,1166.9287,2087.5,1162.9287" style="stroke:#000000;stroke-width:1.0;"/><line style="stroke:#000000;stroke-width:1.0;" x1="1122.5" x2="2089.5" y1="1162.9287" y2="1162.9287"/><text fill="#000000" font-family="Verdana" font-size="13" lengthAdjust="spacing" textLength="55" x="1129.5" y="1158.1992">COMMIT</text><polygon fill="#000000" points="817.5,1188.728,807.5,1192.728,817.5,1196.728,813.5,1192.728" style="stroke:#000000;stroke-width:1.0;"/><line style="stroke:#000000;stroke-width:1.0;" x1="811.5" x2="1121.5" y1="1192.728" y2="1192.728"/><text fill="#000000" font-family="Verdana" font-size="13" lengthAdjust="spacing" textLength="121" x="823.5" y="1187.9985">purchase_success</text><polygon fill="#000000" points="108.5,1218.5273,98.5,1222.5273,108.5,1226.5273,104.5,1222.5273" style="stroke:#000000;stroke-width:1.0;"/><line style="stroke:#000000;stroke-width:1.0;" x1="102.5" x2="805.5" y1="1222.5273" y2="1222.5273"/><text fill="#000000" font-family="Verdana" font-size="13" lengthAdjust="spacing" textLength="504" x="114.5" y="1217.7979">{success: true, item_added: "Heavy Machine Gun", remaining_credits: 500}</text><line style="stroke:#000000;stroke-width:1.0;stroke-dasharray:2.0,2.0;" x1="15" x2="2155.5" y1="1231.5273" y2="1231.5273"/><text fill="#000000" font-family="Verdana" font-size="11" font-weight="bold" lengthAdjust="spacing" textLength="137" x="20" y="1242.5864">[Insufficient Credits]</text><polygon fill="#000000" points="817.5,1263.6953,807.5,1267.6953,817.5,1271.6953,813.5,1267.6953" style="stroke:#000000;stroke-width:1.0;"/><line style="stroke:#000000;stroke-width:1.0;" x1="811.5" x2="1121.5" y1="1267.6953" y2="1267.6953"/><text fill="#000000" font-family="Verdana" font-size="13" lengthAdjust="spacing" textLength="103" x="823.5" y="1262.9658">purchase_failed</text><polygon fill="#000000" points="108.5,1293.4946,98.5,1297.4946,108.5,1301.4946,104.5,1297.4946" style="stroke:#000000;stroke-width:1.0;"/><line style="stroke:#000000;stroke-width:1.0;" x1="102.5" x2="805.5" y1="1297.4946" y2="1297.4946"/><text fill="#000000" font-family="Verdana" font-size="13" lengthAdjust="spacing" textLength="408" x="114.5" y="1292.7651">{error: "Insufficient credits", required: 1500, available: 2000}</text><rect fill="#FFFFFF" height="3" style="stroke:#FFFFFF;stroke-width:1.0;" width="2160.5" x="5" y="1333.3943"/><line style="stroke:#000000;stroke-width:0.5;" x1="5" x2="2165.5" y1="1333.3943" y2="1333.3943"/><line style="stroke:#000000;stroke-width:0.5;" x1="5" x2="2165.5" y1="1336.3943" y2="1336.3943"/><rect fill="#FFFFFF" height="23.7993" style="stroke:#000000;stroke-width:1.0;" width="279" x="945.75" y="1322.4946"/><text fill="#000000" font-family="Verdana" font-size="13" font-weight="bold" lengthAdjust="spacing" textLength="261" x="951.75" y="1339.5645">Get Personalized Recommendations</text><polygon fill="#000000" points="794.5,1374.0933,804.5,1378.0933,794.5,1382.0933,798.5,1378.0933" style="stroke:#000000;stroke-width:1.0;"/><line style="stroke:#000000;stroke-width:1.0;" x1="97.5" x2="800.5" y1="1378.0933" y2="1378.0933"/><text fill="#000000" font-family="Verdana" font-size="13" lengthAdjust="spacing" textLength="315" x="104.5" y="1373.3638">GET /shop/recommendations?token=user_token</text><line style="stroke:#000000;stroke-width:1.0;" x1="806.5" x2="848.5" y1="1407.8926" y2="1407.8926"/><line style="stroke:#000000;stroke-width:1.0;" x1="848.5" x2="848.5" y1="1407.8926" y2="1420.8926"/><line style="stroke:#000000;stroke-width:1.0;" x1="807.5" x2="848.5" y1="1420.8926" y2="1420.8926"/><polygon fill="#000000" points="817.5,1416.8926,807.5,1420.8926,817.5,1424.8926,813.5,1420.8926" style="stroke:#000000;stroke-width:1.0;"/><text fill="#000000" font-family="Verdana" font-size="13" lengthAdjust="spacing" textLength="109" x="813.5" y="1403.1631">validate_token()</text><polygon fill="#000000" points="1110.5,1446.6919,1120.5,1450.6919,1110.5,1454.6919,1114.5,1450.6919" style="stroke:#000000;stroke-width:1.0;"/><line style="stroke:#000000;stroke-width:1.0;" x1="806.5" x2="1116.5" y1="1450.6919" y2="1450.6919"/><text fill="#000000" font-family="Verdana" font-size="13" lengthAdjust="spacing" textLength="280" x="813.5" y="1445.9624">getPersonalizedRecommendations(user_id)</text><polygon fill="#000000" points="1451.5,1476.4912,1461.5,1480.4912,1451.5,1484.4912,1455.5,1480.4912" style="stroke:#000000;stroke-width:1.0;"/><line style="stroke:#000000;stroke-width:1.0;" x1="1122.5" x2="1457.5" y1="1480.4912" y2="1480.4912"/><text fill="#000000" font-family="Verdana" font-size="13" lengthAdjust="spacing" textLength="174" x="1129.5" y="1475.7617">getUserInventory(user_id)</text><polygon fill="#000000" points="2083.5,1506.2905,2093.5,1510.2905,2083.5,1514.2905,2087.5,1510.2905" style="stroke:#000000;stroke-width:1.0;"/><line style="stroke:#000000;stroke-width:1.0;" x1="1463.5" x2="2089.5" y1="1510.2905" y2="1510.2905"/><text fill="#000000" font-family="Verdana" font-size="13" lengthAdjust="spacing" textLength="573" x="1470.5" y="1505.561">SELECT weapon_id FROM UserTankCustomizations WHERE user_id = ? AND tank_id = 0</text><polygon fill="#000000" points="1474.5,1536.0898,1464.5,1540.0898,1474.5,1544.0898,1470.5,1540.0898" style="stroke:#000000;stroke-width:1.0;"/><line style="stroke:#000000;stroke-width:1.0;" x1="1468.5" x2="2094.5" y1="1540.0898" y2="1540.0898"/><text fill="#000000" font-family="Verdana" font-size="13" lengthAdjust="spacing" textLength="184" x="1480.5" y="1535.3604">owned_weapons = [1, 2, 5]</text><polygon fill="#000000" points="2083.5,1565.8892,2093.5,1569.8892,2083.5,1573.8892,2087.5,1569.8892" style="stroke:#000000;stroke-width:1.0;"/><line style="stroke:#000000;stroke-width:1.0;" x1="1122.5" x2="2089.5" y1="1569.8892" y2="1569.8892"/><text fill="#000000" font-family="Verdana" font-size="13" lengthAdjust="spacing" textLength="305" x="1129.5" y="1565.1597">SELECT * FROM UserStats WHERE user_id = ?</text><polygon fill="#000000" points="1133.5,1595.6885,1123.5,1599.6885,1133.5,1603.6885,1129.5,1599.6885" style="stroke:#000000;stroke-width:1.0;"/><line style="stroke:#000000;stroke-width:1.0;" x1="1127.5" x2="2094.5" y1="1599.6885" y2="1599.6885"/><text fill="#000000" font-family="Verdana" font-size="13" lengthAdjust="spacing" textLength="374" x="1139.5" y="1594.959">user_stats {preferred_playstyle, most_used_tank_type}</text><line style="stroke:#000000;stroke-width:1.0;" x1="1122.5" x2="1164.5" y1="1629.4878" y2="1629.4878"/><line style="stroke:#000000;stroke-width:1.0;" x1="1164.5" x2="1164.5" y1="1629.4878" y2="1642.4878"/><line style="stroke:#000000;stroke-width:1.0;" x1="1123.5" x2="1164.5" y1="1642.4878" y2="1642.4878"/><polygon fill="#000000" points="1133.5,1638.4878,1123.5,1642.4878,1133.5,1646.4878,1129.5,1642.4878" style="stroke:#000000;stroke-width:1.0;"/><text fill="#000000" font-family="Verdana" font-size="13" lengthAdjust="spacing" textLength="327" x="1129.5" y="1624.7583">analyzePlayPattern(user_stats, owned_weapons)</text><polygon fill="#000000" points="2083.5,1668.2871,2093.5,1672.2871,2083.5,1676.2871,2087.5,1672.2871" style="stroke:#000000;stroke-width:1.0;"/><line style="stroke:#000000;stroke-width:1.0;" x1="1122.5" x2="2089.5" y1="1672.2871" y2="1672.2871"/><text fill="#000000" font-family="Verdana" font-size="13" lengthAdjust="spacing" textLength="763" x="1129.5" y="1667.5576">SELECT * FROM TankWeapons WHERE id NOT IN (1,2,5) AND type = ? ORDER BY compatibility_score DESC LIMIT 5</text><polygon fill="#000000" points="1133.5,1698.0864,1123.5,1702.0864,1133.5,1706.0864,1129.5,1702.0864" style="stroke:#000000;stroke-width:1.0;"/><line style="stroke:#000000;stroke-width:1.0;" x1="1127.5" x2="2094.5" y1="1702.0864" y2="1702.0864"/><text fill="#000000" font-family="Verdana" font-size="13" lengthAdjust="spacing" textLength="134" x="1139.5" y="1697.3569">recommended_items</text><polygon fill="#000000" points="817.5,1727.8857,807.5,1731.8857,817.5,1735.8857,813.5,1731.8857" style="stroke:#000000;stroke-width:1.0;"/><line style="stroke:#000000;stroke-width:1.0;" x1="811.5" x2="1121.5" y1="1731.8857" y2="1731.8857"/><text fill="#000000" font-family="Verdana" font-size="13" lengthAdjust="spacing" textLength="115" x="823.5" y="1727.1563">recommendations</text><polygon fill="#000000" points="108.5,1757.6851,98.5,1761.6851,108.5,1765.6851,104.5,1761.6851" style="stroke:#000000;stroke-width:1.0;"/><line style="stroke:#000000;stroke-width:1.0;" x1="102.5" x2="805.5" y1="1761.6851" y2="1761.6851"/><text fill="#000000" font-family="Verdana" font-size="13" lengthAdjust="spacing" textLength="685" x="114.5" y="1756.9556">[{id: 8, name: "Sniper Cannon", reason: "Great for your long-range playstyle", compatibility: 0.92}, ...]</text><!--SRC=[hLRRRkCs47tNLqpzv1HAuYHDqHfmW_YoZe2DRLXs5yLY8J0IRHChargISk04-VSEASgIbQHjWFf5iZYNCuSpX_n9R-YMGfOInZrFCvrI2AdSiIScO4BNmZnFOSZ8MfBjba32SFr7JlaJyRoCICrYbX6keJL86SNdc8cOQ25f2uY2sU3Ow7OMb67jElu_DcWcjrPX-8vHm7UOaqXd5xndjzHeLY1QDco6H9C7eeh5OT_pUZteI_6ea8YDo620wwbOGw_dpGPm-eU1t8NnQ07d2jVFusBz1f-8MEvxZvHaWYlFb8hcOTY5DTKkJA3fLhLRpgPrueMXCHhskn2EFey62_WPFisdzx0W_FkNmWg-t8tc8o0xmbBoW1lK0orp2jFvS3I7_b-GIHPJRzWlqnNHevGfxUARhoH9vZGMsotb2T5Cy4yfMQjshgYCME8xBrL2icMwuY9q86L1iq4NlZwpf0jNFd2ofLretL6osyCzYJUCKnZdlEKNgBfmSTtf-23Bp1Jz3FeN7yxEphvPklzaz14CCp2a6ejKxvBDqEZyga6jyNIExQkFCCeIfFBgDN594Sn52d0Xtj3u-_IHKwasBAiumtH1nPOe3IAbYSwn35YHLD4wewQ2Gu8QenybD25RiiP_lnXoSJlv6j_FBWtJEwHJ6RjVVGi90riOBvRiMIxZ3VPxGVWZqniOI9emtMHzDWrBshFIvrcBxvJxHHKEiNtN-yp0BWXilPILsK0xaZ9i81fPv_P9VViOPvhXMecgejQby0z1_vUTnJw6vngHBoxeicYb9MPtR9H8JhnbCsti-BB9ZKk8srscTcwO_yRbDx7jrzAl1vUTJiVpIAeXp5Shr2AZd2wn1_YhIksFni445lFRINWxM0JJIMtTHCQ9ocFT0EtRuawiQGL_EHlUBaOrnE6eAgPtU3krpc-KKoKE2ZrPY4A0KVQQEjBOEkCQ7804at0qN-1ZCRLep0OESgN5bZrPQL9GnTEuY2-zpb5ebGeTPK8nOzvpfOPlPYXxwmxr49726prsw64tPL56pEUoxqtVq6QAmVJ-FbZKFjfcFxYeF8wfAdQpFkVkUw62BZDIQQRqpQcNT8jdCyvtsJvTi7rBKpF3NFrJ_nmZMg7cqEGL82gba9ZyA9RBPVF_o9aqy0hXEHn3NTl528GdLbZ6LCCCzKzmdFSdci3nQVE-gCjZknih4psxIVRrFui93d0TG2D_DT1L3xkHVzN5fQpNXlxGUzNOlz6shuO6RYV3ieNnVyTfWabkjJbonowkVRtm0GNy-jkxGlVlMXEMMgEi6KeTNU46OnwyuksLtgVOSrkXT8HMIMI1cRv_gLyKaB_z4vsXmuneJILlLo7zOzWV5EN9rCmaj2_yI__wfE06irkY3jSPtBKCwNnWATFxICLubuJXA1p0vm073gvhfTQk5P6P95K_QXjzzVh-yjlXk0qvowZ4knxdeXWwWcs42sDyqx0I4lOYbv0AlZwLXA_jbRdW4ysF47UXS_RxPNc_-Hi0]--></g></svg>