<?xml version="1.0" encoding="us-ascii" standalone="no"?><svg xmlns="http://www.w3.org/2000/svg" xmlns:xlink="http://www.w3.org/1999/xlink" contentStyleType="text/css" height="1541px" preserveAspectRatio="none" style="width:838px;height:1541px;background:#FFFFFF;" version="1.1" viewBox="0 0 838 1541" width="838px" zoomAndPan="magnify"><defs/><g><text fill="#000000" font-family="Verdana" font-size="22" font-weight="bold" lengthAdjust="spacing" textLength="805" x="15" y="37.1182">Servizio Negozio - Diagramma delle Attivit&#224; (Processo Acquisto)</text><ellipse cx="495.75" cy="62.7373" fill="#FFFFFF" rx="10" ry="10" style="stroke:#000000;stroke-width:1.0;"/><rect fill="#FFFFFF" height="34.584" rx="12.5" ry="12.5" style="stroke:#000000;stroke-width:1.0;" width="197" x="397.25" y="92.7373"/><text fill="#000000" font-family="Verdana" font-size="12" lengthAdjust="spacing" textLength="177" x="407.25" y="114.8018">Giocatore accede al negozio</text><rect fill="#FFFFFF" height="34.584" rx="12.5" ry="12.5" style="stroke:#000000;stroke-width:1.0;" width="261" x="365.25" y="147.3213"/><text fill="#000000" font-family="Verdana" font-size="12" lengthAdjust="spacing" textLength="241" x="375.25" y="169.3857">Carica oggetti disponibili dal database</text><rect fill="#FFFFFF" height="34.584" rx="12.5" ry="12.5" style="stroke:#000000;stroke-width:1.0;" width="204" x="393.75" y="201.9053"/><text fill="#000000" font-family="Verdana" font-size="12" lengthAdjust="spacing" textLength="184" x="403.75" y="223.9697">Visualizza interfaccia negozio</text><rect fill="#000000" height="6" rx="2.5" ry="2.5" style="stroke:#000000;stroke-width:1.0;" width="280" x="355.75" y="256.4893"/><rect fill="#FFFFFF" height="34.584" rx="12.5" ry="12.5" style="stroke:#000000;stroke-width:1.0;" width="93" x="369.75" y="282.4893"/><text fill="#000000" font-family="Verdana" font-size="12" lengthAdjust="spacing" textLength="73" x="379.75" y="304.5537">Sfoglia armi</text><rect fill="#FFFFFF" height="34.584" rx="12.5" ry="12.5" style="stroke:#000000;stroke-width:1.0;" width="131" x="490.75" y="282.4893"/><text fill="#000000" font-family="Verdana" font-size="12" lengthAdjust="spacing" textLength="111" x="500.75" y="304.5537">Sfoglia parti carro</text><rect fill="#000000" height="6" rx="2.5" ry="2.5" style="stroke:#000000;stroke-width:1.0;" width="280" x="355.75" y="337.0732"/><rect fill="#FFFFFF" height="34.584" rx="12.5" ry="12.5" style="stroke:#000000;stroke-width:1.0;" width="217" x="387.25" y="363.0732"/><text fill="#000000" font-family="Verdana" font-size="12" lengthAdjust="spacing" textLength="197" x="397.25" y="385.1377">Seleziona oggetto per acquisto</text><rect fill="#FFFFFF" height="34.584" rx="12.5" ry="12.5" style="stroke:#000000;stroke-width:1.0;" width="183" x="404.25" y="417.6572"/><text fill="#000000" font-family="Verdana" font-size="12" lengthAdjust="spacing" textLength="163" x="414.25" y="439.7217">Controlla dettagli oggetto</text><rect fill="#FFFFFF" height="34.584" rx="12.5" ry="12.5" style="stroke:#000000;stroke-width:1.0;" width="163" x="414.25" y="472.2412"/><text fill="#000000" font-family="Verdana" font-size="12" lengthAdjust="spacing" textLength="143" x="424.25" y="494.3057">Ottieni saldo giocatore</text><rect fill="#FFFFFF" height="34.584" rx="12.5" ry="12.5" style="stroke:#000000;stroke-width:1.0;" width="189" x="401.25" y="526.8252"/><text fill="#000000" font-family="Verdana" font-size="12" lengthAdjust="spacing" textLength="169" x="411.25" y="548.8896">Controlla spazio inventario</text><polygon fill="#FFFFFF" points="441.75,581.4092,549.75,581.4092,561.75,593.4092,549.75,605.4092,441.75,605.4092,429.75,593.4092,441.75,581.4092" style="stroke:#000000;stroke-width:1.0;"/><text fill="#000000" font-family="Verdana" font-size="11" lengthAdjust="spacing" textLength="108" x="441.75" y="597.7839">Spazio disponibile?</text><text fill="#000000" font-family="Verdana" font-size="11" lengthAdjust="spacing" textLength="9" x="420.75" y="591.0996">s&#236;</text><text fill="#000000" font-family="Verdana" font-size="11" lengthAdjust="spacing" textLength="14" x="561.75" y="591.0996">no</text><rect fill="#FFFFFF" height="34.584" rx="12.5" ry="12.5" style="stroke:#000000;stroke-width:1.0;" width="218" x="198.5" y="615.4092"/><text fill="#000000" font-family="Verdana" font-size="12" lengthAdjust="spacing" textLength="198" x="208.5" y="637.4736">Inizializza transazione acquisto</text><rect fill="#FFFFFF" height="523.0259" style="stroke:#000000;stroke-width:1.0;" width="510" x="33.5" y="669.9932"/><path d="M240.5,669.9932 L240.5,680.0078 L230.5,690.0078 L33.5,690.0078 " fill="none" style="stroke:#000000;stroke-width:1.0;"/><text fill="#000000" font-family="Verdana" font-size="14" lengthAdjust="spacing" textLength="197" x="36.5" y="685.0684">Processamento Transazione</text><rect fill="#FFFFFF" height="34.584" rx="12.5" ry="12.5" style="stroke:#000000;stroke-width:1.0;" width="175" x="220" y="707.0078"/><text fill="#000000" font-family="Verdana" font-size="12" lengthAdjust="spacing" textLength="155" x="230" y="729.0723">Blocca account giocatore</text><rect fill="#FFFFFF" height="34.584" rx="12.5" ry="12.5" style="stroke:#000000;stroke-width:1.0;" width="198" x="208.5" y="773.2615"/><text fill="#000000" font-family="Verdana" font-size="12" lengthAdjust="spacing" textLength="178" x="218.5" y="795.3259">Valida acquisto nuovamente</text><polygon fill="#FFFFFF" points="265.5,839.5151,349.5,839.5151,361.5,851.5151,349.5,863.5151,265.5,863.5151,253.5,851.5151,265.5,839.5151" style="stroke:#000000;stroke-width:1.0;"/><text fill="#000000" font-family="Verdana" font-size="11" lengthAdjust="spacing" textLength="84" x="265.5" y="855.8899">Ancora valido?</text><text fill="#000000" font-family="Verdana" font-size="11" lengthAdjust="spacing" textLength="9" x="244.5" y="849.2056">s&#236;</text><text fill="#000000" font-family="Verdana" font-size="11" lengthAdjust="spacing" textLength="14" x="361.5" y="849.2056">no</text><rect fill="#FFFFFF" height="34.584" rx="12.5" ry="12.5" style="stroke:#000000;stroke-width:1.0;" width="220" x="73" y="873.5151"/><text fill="#000000" font-family="Verdana" font-size="12" lengthAdjust="spacing" textLength="200" x="83" y="895.5796">Deduce costo oggetto dal saldo</text><rect fill="#FFFFFF" height="34.584" rx="12.5" ry="12.5" style="stroke:#000000;stroke-width:1.0;" width="275" x="45.5" y="928.0991"/><text fill="#000000" font-family="Verdana" font-size="12" lengthAdjust="spacing" textLength="255" x="55.5" y="950.1636">Aggiungi oggetto all'inventario giocatore</text><rect fill="#FFFFFF" height="34.584" rx="12.5" ry="12.5" style="stroke:#000000;stroke-width:1.0;" width="151" x="107.5" y="982.6831"/><text fill="#000000" font-family="Verdana" font-size="12" lengthAdjust="spacing" textLength="131" x="117.5" y="1004.7476">Crea record acquisto</text><rect fill="#FFFFFF" height="34.584" rx="12.5" ry="12.5" style="stroke:#000000;stroke-width:1.0;" width="160" x="103" y="1037.2671"/><text fill="#000000" font-family="Verdana" font-size="12" lengthAdjust="spacing" textLength="140" x="113" y="1059.3315">Conferma transazione</text><rect fill="#FFFFFF" height="34.584" rx="12.5" ry="12.5" style="stroke:#000000;stroke-width:1.0;" width="183" x="91.5" y="1091.8511"/><text fill="#000000" font-family="Verdana" font-size="12" lengthAdjust="spacing" textLength="163" x="101.5" y="1113.9155">Sblocca account giocatore</text><rect fill="#FFFFFF" height="34.584" rx="12.5" ry="12.5" style="stroke:#000000;stroke-width:1.0;" width="200" x="83" y="1146.4351"/><text fill="#000000" font-family="Verdana" font-size="12" lengthAdjust="spacing" textLength="180" x="93" y="1168.4995">Visualizza successo acquisto</text><rect fill="#FFFFFF" height="34.584" rx="12.5" ry="12.5" style="stroke:#000000;stroke-width:1.0;" width="145" x="359.5" y="873.5151"/><text fill="#000000" font-family="Verdana" font-size="12" lengthAdjust="spacing" textLength="125" x="369.5" y="895.5796">Annulla transazione</text><rect fill="#FFFFFF" height="34.584" rx="12.5" ry="12.5" style="stroke:#000000;stroke-width:1.0;" width="183" x="340.5" y="928.0991"/><text fill="#000000" font-family="Verdana" font-size="12" lengthAdjust="spacing" textLength="163" x="350.5" y="950.1636">Sblocca account giocatore</text><rect fill="#FFFFFF" height="34.584" rx="12.5" ry="12.5" style="stroke:#000000;stroke-width:1.0;" width="178" x="343" y="982.6831"/><text fill="#000000" font-family="Verdana" font-size="12" lengthAdjust="spacing" textLength="158" x="353" y="1004.7476">Mostra messaggio errore</text><ellipse cx="432" cy="1048.2671" fill="none" rx="11" ry="11" style="stroke:#000000;stroke-width:1.0;"/><ellipse cx="432" cy="1048.2671" fill="#FFFFFF" rx="6" ry="6" style="stroke:#000000;stroke-width:1.0;"/><rect fill="#FFFFFF" height="34.584" rx="12.5" ry="12.5" style="stroke:#000000;stroke-width:1.0;" width="201" x="207" y="1213.019"/><text fill="#000000" font-family="Verdana" font-size="12" lengthAdjust="spacing" textLength="181" x="217" y="1235.0835">Aggiorna UI con nuovo saldo</text><rect fill="#FFFFFF" height="34.584" rx="12.5" ry="12.5" style="stroke:#000000;stroke-width:1.0;" width="242" x="186.5" y="1267.603"/><text fill="#000000" font-family="Verdana" font-size="12" lengthAdjust="spacing" textLength="222" x="196.5" y="1289.6675">Aggiorna visualizzazione inventario</text><polygon fill="#FFFFFF" points="240,1322.187,375,1322.187,387,1334.187,375,1346.187,240,1346.187,228,1334.187,240,1322.187" style="stroke:#000000;stroke-width:1.0;"/><text fill="#000000" font-family="Verdana" font-size="11" lengthAdjust="spacing" textLength="135" x="240" y="1338.5618">Acquistare altri oggetti?</text><text fill="#000000" font-family="Verdana" font-size="11" lengthAdjust="spacing" textLength="9" x="219" y="1331.8774">s&#236;</text><text fill="#000000" font-family="Verdana" font-size="11" lengthAdjust="spacing" textLength="14" x="387" y="1331.8774">no</text><rect fill="#FFFFFF" height="34.584" rx="12.5" ry="12.5" style="stroke:#000000;stroke-width:1.0;" width="176" x="130" y="1356.187"/><text fill="#000000" font-family="Verdana" font-size="12" lengthAdjust="spacing" textLength="156" x="140" y="1378.2515">Ritorna a sfoglia negozio</text><rect fill="#FFFFFF" height="34.584" rx="12.5" ry="12.5" style="stroke:#000000;stroke-width:1.0;" width="121" x="336.5" y="1356.187"/><text fill="#000000" font-family="Verdana" font-size="12" lengthAdjust="spacing" textLength="101" x="346.5" y="1378.2515">Esci dal negozio</text><ellipse cx="397" cy="1421.771" fill="none" rx="11" ry="11" style="stroke:#000000;stroke-width:1.0;"/><ellipse cx="397" cy="1421.771" fill="#FFFFFF" rx="6" ry="6" style="stroke:#000000;stroke-width:1.0;"/><rect fill="#FFFFFF" height="34.584" rx="12.5" ry="12.5" style="stroke:#000000;stroke-width:1.0;" width="241" x="563.5" y="615.4092"/><text fill="#000000" font-family="Verdana" font-size="12" lengthAdjust="spacing" textLength="221" x="573.5" y="637.4736">Mostra messaggio inventario pieno</text><rect fill="#FFFFFF" height="34.584" rx="12.5" ry="12.5" style="stroke:#000000;stroke-width:1.0;" width="170" x="599" y="718.6775"/><text fill="#000000" font-family="Verdana" font-size="12" lengthAdjust="spacing" textLength="150" x="609" y="740.7419">Apri gestione inventario</text><rect fill="#FFFFFF" height="34.584" rx="12.5" ry="12.5" style="stroke:#000000;stroke-width:1.0;" width="180" x="594" y="784.9312"/><text fill="#000000" font-family="Verdana" font-size="12" lengthAdjust="spacing" textLength="160" x="604" y="806.9956">Elimina/organizza oggetti</text><rect fill="#FFFFFF" height="34.584" rx="12.5" ry="12.5" style="stroke:#000000;stroke-width:1.0;" width="139" x="614.5" y="851.1848"/><text fill="#000000" font-family="Verdana" font-size="12" lengthAdjust="spacing" textLength="119" x="624.5" y="873.2493">Ritorna all'acquisto</text><polygon fill="#FFFFFF" points="630,669.9932,738,669.9932,750,681.9932,738,693.9932,630,693.9932,618,681.9932,630,669.9932" style="stroke:#000000;stroke-width:1.0;"/><text fill="#000000" font-family="Verdana" font-size="11" lengthAdjust="spacing" textLength="9" x="688" y="705.0522">s&#236;</text><text fill="#000000" font-family="Verdana" font-size="11" lengthAdjust="spacing" textLength="108" x="630" y="686.3679">Gestire inventario?</text><text fill="#000000" font-family="Verdana" font-size="11" lengthAdjust="spacing" textLength="14" x="750" y="679.6836">no</text><ellipse cx="786" cy="681.9932" fill="none" rx="11" ry="11" style="stroke:#000000;stroke-width:1.0;"/><ellipse cx="786" cy="681.9932" fill="#FFFFFF" rx="6" ry="6" style="stroke:#000000;stroke-width:1.0;"/><polygon fill="#FFFFFF" points="495.75,1442.771,507.75,1454.771,495.75,1466.771,483.75,1454.771,495.75,1442.771" style="stroke:#000000;stroke-width:1.0;"/><path d="M526.75,1476.771 L526.75,1501.47 L506.75,1505.47 L526.75,1509.47 L526.75,1534.1689 A0,0 0 0 0 526.75,1534.1689 L766.75,1534.1689 A0,0 0 0 0 766.75,1534.1689 L766.75,1486.771 L756.75,1476.771 L526.75,1476.771 A0,0 0 0 0 526.75,1476.771 " fill="#FFFFFF" style="stroke:#000000;stroke-width:1.0;"/><path d="M756.75,1476.771 L756.75,1486.771 L766.75,1486.771 L756.75,1476.771 " fill="#FFFFFF" style="stroke:#000000;stroke-width:1.0;"/><text fill="#000000" font-family="Verdana" font-size="13" lengthAdjust="spacing" textLength="184" x="532.75" y="1494.8408">Il processo acquisto include</text><text fill="#000000" font-family="Verdana" font-size="13" lengthAdjust="spacing" textLength="219" x="532.75" y="1510.6401">validazione, sicurezza transazioni</text><text fill="#000000" font-family="Verdana" font-size="13" lengthAdjust="spacing" textLength="139" x="532.75" y="1526.4395">e gestione inventario</text><ellipse cx="495.75" cy="1505.47" fill="none" rx="11" ry="11" style="stroke:#000000;stroke-width:1.0;"/><ellipse cx="495.75" cy="1505.47" fill="#FFFFFF" rx="6" ry="6" style="stroke:#000000;stroke-width:1.0;"/><line style="stroke:#000000;stroke-width:1.0;" x1="495.75" x2="495.75" y1="72.7373" y2="92.7373"/><polygon fill="#000000" points="491.75,82.7373,495.75,92.7373,499.75,82.7373,495.75,86.7373" style="stroke:#000000;stroke-width:1.0;"/><line style="stroke:#000000;stroke-width:1.0;" x1="495.75" x2="495.75" y1="127.3213" y2="147.3213"/><polygon fill="#000000" points="491.75,137.3213,495.75,147.3213,499.75,137.3213,495.75,141.3213" style="stroke:#000000;stroke-width:1.0;"/><line style="stroke:#000000;stroke-width:1.0;" x1="495.75" x2="495.75" y1="181.9053" y2="201.9053"/><polygon fill="#000000" points="491.75,191.9053,495.75,201.9053,499.75,191.9053,495.75,195.9053" style="stroke:#000000;stroke-width:1.0;"/><line style="stroke:#000000;stroke-width:1.0;" x1="416.25" x2="416.25" y1="262.4893" y2="282.4893"/><polygon fill="#000000" points="412.25,272.4893,416.25,282.4893,420.25,272.4893,416.25,276.4893" style="stroke:#000000;stroke-width:1.0;"/><line style="stroke:#000000;stroke-width:1.0;" x1="556.25" x2="556.25" y1="262.4893" y2="282.4893"/><polygon fill="#000000" points="552.25,272.4893,556.25,282.4893,560.25,272.4893,556.25,276.4893" style="stroke:#000000;stroke-width:1.0;"/><line style="stroke:#000000;stroke-width:1.0;" x1="416.25" x2="416.25" y1="317.0732" y2="337.0732"/><polygon fill="#000000" points="412.25,327.0732,416.25,337.0732,420.25,327.0732,416.25,331.0732" style="stroke:#000000;stroke-width:1.0;"/><line style="stroke:#000000;stroke-width:1.0;" x1="556.25" x2="556.25" y1="317.0732" y2="337.0732"/><polygon fill="#000000" points="552.25,327.0732,556.25,337.0732,560.25,327.0732,556.25,331.0732" style="stroke:#000000;stroke-width:1.0;"/><line style="stroke:#000000;stroke-width:1.0;" x1="495.75" x2="495.75" y1="236.4893" y2="256.4893"/><polygon fill="#000000" points="491.75,246.4893,495.75,256.4893,499.75,246.4893,495.75,250.4893" style="stroke:#000000;stroke-width:1.0;"/><line style="stroke:#000000;stroke-width:1.0;" x1="495.75" x2="495.75" y1="343.0732" y2="363.0732"/><polygon fill="#000000" points="491.75,353.0732,495.75,363.0732,499.75,353.0732,495.75,357.0732" style="stroke:#000000;stroke-width:1.0;"/><line style="stroke:#000000;stroke-width:1.0;" x1="495.75" x2="495.75" y1="397.6572" y2="417.6572"/><polygon fill="#000000" points="491.75,407.6572,495.75,417.6572,499.75,407.6572,495.75,411.6572" style="stroke:#000000;stroke-width:1.0;"/><line style="stroke:#000000;stroke-width:1.0;" x1="495.75" x2="495.75" y1="452.2412" y2="472.2412"/><polygon fill="#000000" points="491.75,462.2412,495.75,472.2412,499.75,462.2412,495.75,466.2412" style="stroke:#000000;stroke-width:1.0;"/><line style="stroke:#000000;stroke-width:1.0;" x1="495.75" x2="495.75" y1="506.8252" y2="526.8252"/><polygon fill="#000000" points="491.75,516.8252,495.75,526.8252,499.75,516.8252,495.75,520.8252" style="stroke:#000000;stroke-width:1.0;"/><line style="stroke:#000000;stroke-width:1.0;" x1="307.5" x2="307.5" y1="741.5918" y2="773.2615"/><polygon fill="#000000" points="303.5,763.2615,307.5,773.2615,311.5,763.2615,307.5,767.2615" style="stroke:#000000;stroke-width:1.0;"/><line style="stroke:#000000;stroke-width:1.0;" x1="183" x2="183" y1="908.0991" y2="928.0991"/><polygon fill="#000000" points="179,918.0991,183,928.0991,187,918.0991,183,922.0991" style="stroke:#000000;stroke-width:1.0;"/><line style="stroke:#000000;stroke-width:1.0;" x1="183" x2="183" y1="962.6831" y2="982.6831"/><polygon fill="#000000" points="179,972.6831,183,982.6831,187,972.6831,183,976.6831" style="stroke:#000000;stroke-width:1.0;"/><line style="stroke:#000000;stroke-width:1.0;" x1="183" x2="183" y1="1017.2671" y2="1037.2671"/><polygon fill="#000000" points="179,1027.2671,183,1037.2671,187,1027.2671,183,1031.2671" style="stroke:#000000;stroke-width:1.0;"/><line style="stroke:#000000;stroke-width:1.0;" x1="183" x2="183" y1="1071.8511" y2="1091.8511"/><polygon fill="#000000" points="179,1081.8511,183,1091.8511,187,1081.8511,183,1085.8511" style="stroke:#000000;stroke-width:1.0;"/><line style="stroke:#000000;stroke-width:1.0;" x1="183" x2="183" y1="1126.4351" y2="1146.4351"/><polygon fill="#000000" points="179,1136.4351,183,1146.4351,187,1136.4351,183,1140.4351" style="stroke:#000000;stroke-width:1.0;"/><line style="stroke:#000000;stroke-width:1.0;" x1="432" x2="432" y1="908.0991" y2="928.0991"/><polygon fill="#000000" points="428,918.0991,432,928.0991,436,918.0991,432,922.0991" style="stroke:#000000;stroke-width:1.0;"/><line style="stroke:#000000;stroke-width:1.0;" x1="432" x2="432" y1="962.6831" y2="982.6831"/><polygon fill="#000000" points="428,972.6831,432,982.6831,436,972.6831,432,976.6831" style="stroke:#000000;stroke-width:1.0;"/><line style="stroke:#000000;stroke-width:1.0;" x1="432" x2="432" y1="1017.2671" y2="1037.2671"/><polygon fill="#000000" points="428,1027.2671,432,1037.2671,436,1027.2671,432,1031.2671" style="stroke:#000000;stroke-width:1.0;"/><line style="stroke:#000000;stroke-width:1.0;" x1="253.5" x2="183" y1="851.5151" y2="851.5151"/><line style="stroke:#000000;stroke-width:1.0;" x1="183" x2="183" y1="851.5151" y2="873.5151"/><polygon fill="#000000" points="179,863.5151,183,873.5151,187,863.5151,183,867.5151" style="stroke:#000000;stroke-width:1.0;"/><line style="stroke:#000000;stroke-width:1.0;" x1="361.5" x2="432" y1="851.5151" y2="851.5151"/><line style="stroke:#000000;stroke-width:1.0;" x1="432" x2="432" y1="851.5151" y2="873.5151"/><polygon fill="#000000" points="428,863.5151,432,873.5151,436,863.5151,432,867.5151" style="stroke:#000000;stroke-width:1.0;"/><line style="stroke:#000000;stroke-width:1.0;" x1="183" x2="183" y1="1181.019" y2="1186.019"/><line style="stroke:#000000;stroke-width:1.0;" x1="183" x2="307.5" y1="1186.019" y2="1186.019"/><line style="stroke:#000000;stroke-width:1.0;" x1="307.5" x2="307.5" y1="1186.019" y2="1213.019"/><polygon fill="#000000" points="303.5,1203.019,307.5,1213.019,311.5,1203.019,307.5,1207.019" style="stroke:#000000;stroke-width:1.0;"/><line style="stroke:#000000;stroke-width:1.0;" x1="307.5" x2="307.5" y1="807.8455" y2="839.5151"/><polygon fill="#000000" points="303.5,829.5151,307.5,839.5151,311.5,829.5151,307.5,833.5151" style="stroke:#000000;stroke-width:1.0;"/><line style="stroke:#000000;stroke-width:1.0;" x1="307.5" x2="307.5" y1="649.9932" y2="707.0078"/><polygon fill="#000000" points="303.5,697.0078,307.5,707.0078,311.5,697.0078,307.5,701.0078" style="stroke:#000000;stroke-width:1.0;"/><line style="stroke:#000000;stroke-width:1.0;" x1="307.5" x2="307.5" y1="1247.603" y2="1267.603"/><polygon fill="#000000" points="303.5,1257.603,307.5,1267.603,311.5,1257.603,307.5,1261.603" style="stroke:#000000;stroke-width:1.0;"/><line style="stroke:#000000;stroke-width:1.0;" x1="397" x2="397" y1="1390.771" y2="1410.771"/><polygon fill="#000000" points="393,1400.771,397,1410.771,401,1400.771,397,1404.771" style="stroke:#000000;stroke-width:1.0;"/><line style="stroke:#000000;stroke-width:1.0;" x1="228" x2="218" y1="1334.187" y2="1334.187"/><line style="stroke:#000000;stroke-width:1.0;" x1="218" x2="218" y1="1334.187" y2="1356.187"/><polygon fill="#000000" points="214,1346.187,218,1356.187,222,1346.187,218,1350.187" style="stroke:#000000;stroke-width:1.0;"/><line style="stroke:#000000;stroke-width:1.0;" x1="387" x2="397" y1="1334.187" y2="1334.187"/><line style="stroke:#000000;stroke-width:1.0;" x1="397" x2="397" y1="1334.187" y2="1356.187"/><polygon fill="#000000" points="393,1346.187,397,1356.187,401,1346.187,397,1350.187" style="stroke:#000000;stroke-width:1.0;"/><line style="stroke:#000000;stroke-width:1.0;" x1="218" x2="218" y1="1390.771" y2="1454.771"/><line style="stroke:#000000;stroke-width:1.0;" x1="218" x2="483.75" y1="1454.771" y2="1454.771"/><polygon fill="#000000" points="473.75,1450.771,483.75,1454.771,473.75,1458.771,477.75,1454.771" style="stroke:#000000;stroke-width:1.0;"/><line style="stroke:#000000;stroke-width:1.0;" x1="307.5" x2="307.5" y1="1302.187" y2="1322.187"/><polygon fill="#000000" points="303.5,1312.187,307.5,1322.187,311.5,1312.187,307.5,1316.187" style="stroke:#000000;stroke-width:1.0;"/><line style="stroke:#000000;stroke-width:1.0;" x1="684" x2="684" y1="753.2615" y2="784.9312"/><polygon fill="#000000" points="680,774.9312,684,784.9312,688,774.9312,684,778.9312" style="stroke:#000000;stroke-width:1.0;"/><line style="stroke:#000000;stroke-width:1.0;" x1="684" x2="684" y1="819.5151" y2="851.1848"/><polygon fill="#000000" points="680,841.1848,684,851.1848,688,841.1848,684,845.1848" style="stroke:#000000;stroke-width:1.0;"/><line style="stroke:#000000;stroke-width:1.0;" x1="684" x2="684" y1="693.9932" y2="718.6775"/><polygon fill="#000000" points="680,708.6775,684,718.6775,688,708.6775,684,712.6775" style="stroke:#000000;stroke-width:1.0;"/><line style="stroke:#000000;stroke-width:1.0;" x1="750" x2="775" y1="681.9932" y2="681.9932"/><polygon fill="#000000" points="765,677.9932,775,681.9932,765,685.9932,769,681.9932" style="stroke:#000000;stroke-width:1.0;"/><line style="stroke:#000000;stroke-width:1.0;" x1="684" x2="684" y1="885.7688" y2="1454.771"/><line style="stroke:#000000;stroke-width:1.0;" x1="684" x2="507.75" y1="1454.771" y2="1454.771"/><polygon fill="#000000" points="517.75,1450.771,507.75,1454.771,517.75,1458.771,513.75,1454.771" style="stroke:#000000;stroke-width:1.0;"/><line style="stroke:#000000;stroke-width:1.0;" x1="684" x2="684" y1="649.9932" y2="669.9932"/><polygon fill="#000000" points="680,659.9932,684,669.9932,688,659.9932,684,663.9932" style="stroke:#000000;stroke-width:1.0;"/><line style="stroke:#000000;stroke-width:1.0;" x1="429.75" x2="307.5" y1="593.4092" y2="593.4092"/><line style="stroke:#000000;stroke-width:1.0;" x1="307.5" x2="307.5" y1="593.4092" y2="615.4092"/><polygon fill="#000000" points="303.5,605.4092,307.5,615.4092,311.5,605.4092,307.5,609.4092" style="stroke:#000000;stroke-width:1.0;"/><line style="stroke:#000000;stroke-width:1.0;" x1="561.75" x2="684" y1="593.4092" y2="593.4092"/><line style="stroke:#000000;stroke-width:1.0;" x1="684" x2="684" y1="593.4092" y2="615.4092"/><polygon fill="#000000" points="680,605.4092,684,615.4092,688,605.4092,684,609.4092" style="stroke:#000000;stroke-width:1.0;"/><line style="stroke:#000000;stroke-width:1.0;" x1="495.75" x2="495.75" y1="561.4092" y2="581.4092"/><polygon fill="#000000" points="491.75,571.4092,495.75,581.4092,499.75,571.4092,495.75,575.4092" style="stroke:#000000;stroke-width:1.0;"/><line style="stroke:#000000;stroke-width:1.0;" x1="495.75" x2="495.75" y1="1466.771" y2="1494.47"/><polygon fill="#000000" points="491.75,1484.47,495.75,1494.47,499.75,1484.47,495.75,1488.47" style="stroke:#000000;stroke-width:1.0;"/><!--SRC=[dLJBRXGn4BpFLpIvi950t2S7j2Geoe67MCWfbyvCxwI5ftkmFNi8ub_u0FuYFqRRi_DOTX4IU_5ekzokgYxxMNoWbg1po58KaQCZs93VyIChlAT6q_eIhXWRZssBK9Cpo3f6td5y-WchZruh2a5XNNthEKGzBueGqSUYAAzPAupg2R2ggBR5WGnDBuho4ZrN2DeqPEsWvj2fy3qx-pPWZH7lCP0XRpdqwFZn4O4bajzQEyQvLR5L_xK0A3TRRPnLqBTyaVy5R9AqHQqpRWmLUcyxIMh8cujoGuwicuoC53hoHdnGbVYgHA_E9HDYH6is8er1-S4qa304TBL2Coe_s1SwJ7wox4ZCeaGTWBUmsWo5sG9wVGus6e5LUFfrRYWJS2CsbRqDqQE4j4TeGH7oBozPPRGwdEqdXAqTgl1vtda6t_TRoZTEAvk5-Qgzn2NzFU3M3gvnEWkarrtkE46IZhLKwX5s2Qp74dAdAwhxYg3Ir6QqEWqyEtSn0zTDmxqqaykM7lTyzkwOfEsvz8JWoLZKHxwaiigMV7lWtwAykV-73Sc8EOkXhuRe_taIkK2m4bseNelqAGB_V_0xCyoyRTCepHa5iWGl4KQW6mb8pTly_MCPYcofUelubniRWEGfwjBu6R6RT0ufEmpjr39FVP2FwPwxwCU1yQa0b9yuvlvct_v2JjVub7Nbsr0Dxy41RA5srhgdTDJYoBb5Y3gxjBgCy3M5o7wfzoyvNdUcj4deq_OaxevR5dobla79aTaxiy1CVbYu_vsZ4pCUrY9N2j58uBbvY2NSEEZ6ntcwjooLwskwatn7Xzc-WC1Lx-dmOU4xatL2N_4R]--></g></svg>