<?xml version="1.0" encoding="us-ascii" standalone="no"?><svg xmlns="http://www.w3.org/2000/svg" xmlns:xlink="http://www.w3.org/1999/xlink" contentStyleType="text/css" height="1662px" preserveAspectRatio="none" style="width:1189px;height:1662px;background:#FFFFFF;" version="1.1" viewBox="0 0 1189 1662" width="1189px" zoomAndPan="magnify"><defs/><g><text fill="#000000" font-family="Verdana" font-size="22" font-weight="bold" lengthAdjust="spacing" textLength="1156" x="15" y="37.1182">Servizio Personalizzazione Carri - Diagramma delle Attivit&#224; (Processo Configurazione Carro)</text><ellipse cx="596.5" cy="62.7373" fill="#FFFFFF" rx="10" ry="10" style="stroke:#000000;stroke-width:1.0;"/><rect fill="#FFFFFF" height="34.584" rx="12.5" ry="12.5" style="stroke:#000000;stroke-width:1.0;" width="298" x="447.5" y="92.7373"/><text fill="#000000" font-family="Verdana" font-size="12" lengthAdjust="spacing" textLength="278" x="457.5" y="114.8018">Giocatore entra nel menu personalizzazione</text><rect fill="#FFFFFF" height="34.584" rx="12.5" ry="12.5" style="stroke:#000000;stroke-width:1.0;" width="344" x="424.5" y="147.3213"/><text fill="#000000" font-family="Verdana" font-size="12" lengthAdjust="spacing" textLength="324" x="434.5" y="169.3857">Carica inventario giocatore e configurazioni correnti</text><rect fill="#FFFFFF" height="34.584" rx="12.5" ry="12.5" style="stroke:#000000;stroke-width:1.0;" width="223" x="485" y="201.9053"/><text fill="#000000" font-family="Verdana" font-size="12" lengthAdjust="spacing" textLength="203" x="495" y="223.9697">Visualizza carri armati disponibili</text><rect fill="#FFFFFF" height="34.584" rx="12.5" ry="12.5" style="stroke:#000000;stroke-width:1.0;" width="297" x="448" y="256.4893"/><text fill="#000000" font-family="Verdana" font-size="12" lengthAdjust="spacing" textLength="277" x="458" y="278.5537">Giocatore seleziona carro da personalizzare</text><rect fill="#FFFFFF" height="34.584" rx="12.5" ry="12.5" style="stroke:#000000;stroke-width:1.0;" width="248" x="472.5" y="311.0732"/><text fill="#000000" font-family="Verdana" font-size="12" lengthAdjust="spacing" textLength="228" x="482.5" y="333.1377">Carica configurazione carro corrente</text><rect fill="#FFFFFF" height="34.584" rx="12.5" ry="12.5" style="stroke:#000000;stroke-width:1.0;" width="255" x="469" y="365.6572"/><text fill="#000000" font-family="Verdana" font-size="12" lengthAdjust="spacing" textLength="235" x="479" y="387.7217">Visualizza slot armi (3 slot disponibili)</text><rect fill="#FFFFFF" height="812.8296" style="stroke:#000000;stroke-width:1.0;" width="821" x="184" y="410.2412"/><path d="M373,410.2412 L373,420.2559 L363,430.2559 L184,430.2559 " fill="none" style="stroke:#000000;stroke-width:1.0;"/><text fill="#000000" font-family="Verdana" font-size="14" lengthAdjust="spacing" textLength="179" x="187" y="425.3164">Ciclo Configurazione Armi</text><rect fill="#FFFFFF" height="34.584" rx="12.5" ry="12.5" style="stroke:#000000;stroke-width:1.0;" width="295" x="449" y="491.2559"/><text fill="#000000" font-family="Verdana" font-size="12" lengthAdjust="spacing" textLength="275" x="459" y="513.3203">Giocatore seleziona slot arma da modificare</text><polygon fill="#FFFFFF" points="528.5,545.8398,664.5,545.8398,676.5,557.8398,664.5,569.8398,528.5,569.8398,516.5,557.8398,528.5,545.8398" style="stroke:#000000;stroke-width:1.0;"/><text fill="#000000" font-family="Verdana" font-size="11" lengthAdjust="spacing" textLength="136" x="528.5" y="562.2146">Slot attualmente vuoto?</text><text fill="#000000" font-family="Verdana" font-size="11" lengthAdjust="spacing" textLength="9" x="507.5" y="555.5303">s&#236;</text><text fill="#000000" font-family="Verdana" font-size="11" lengthAdjust="spacing" textLength="14" x="676.5" y="555.5303">no</text><rect fill="#FFFFFF" height="34.584" rx="12.5" ry="12.5" style="stroke:#000000;stroke-width:1.0;" width="252" x="323.5" y="579.8398"/><text fill="#000000" font-family="Verdana" font-size="12" lengthAdjust="spacing" textLength="232" x="333.5" y="601.9043">Mostra armi disponibili dall'inventario</text><rect fill="#FFFFFF" height="34.584" rx="12.5" ry="12.5" style="stroke:#000000;stroke-width:1.0;" width="208" x="639.5" y="579.8398"/><text fill="#000000" font-family="Verdana" font-size="12" lengthAdjust="spacing" textLength="188" x="649.5" y="601.9043">Mostra dettagli arma corrente</text><rect fill="#FFFFFF" height="34.584" rx="12.5" ry="12.5" style="stroke:#000000;stroke-width:1.0;" width="296" x="595.5" y="634.4238"/><text fill="#000000" font-family="Verdana" font-size="12" lengthAdjust="spacing" textLength="276" x="605.5" y="656.4883">Offri opzioni: Sostituisci, Rimuovi, o Mantieni</text><polygon fill="#FFFFFF" points="596.5,675.0078,608.5,687.0078,596.5,699.0078,584.5,687.0078,596.5,675.0078" style="stroke:#000000;stroke-width:1.0;"/><polygon fill="#FFFFFF" points="300.75,719.0078,577.75,719.0078,589.75,731.0078,577.75,743.0078,300.75,743.0078,288.75,731.0078,300.75,719.0078" style="stroke:#000000;stroke-width:1.0;"/><text fill="#000000" font-family="Verdana" font-size="11" lengthAdjust="spacing" textLength="9" x="443.25" y="754.0669">s&#236;</text><text fill="#000000" font-family="Verdana" font-size="11" lengthAdjust="spacing" textLength="277" x="300.75" y="735.3826">Giocatore sceglie di aggiungere/sostituire arma?</text><rect fill="#FFFFFF" height="34.584" rx="12.5" ry="12.5" style="stroke:#000000;stroke-width:1.0;" width="152" x="363.25" y="775.5669"/><text fill="#000000" font-family="Verdana" font-size="12" lengthAdjust="spacing" textLength="132" x="373.25" y="797.6313">Filtra armi compatibili</text><rect fill="#FFFFFF" height="34.584" rx="12.5" ry="12.5" style="stroke:#000000;stroke-width:1.0;" width="207" x="335.75" y="830.1509"/><text fill="#000000" font-family="Verdana" font-size="12" lengthAdjust="spacing" textLength="187" x="345.75" y="852.2153">Visualizza lista selezione armi</text><rect fill="#FFFFFF" height="34.584" rx="12.5" ry="12.5" style="stroke:#000000;stroke-width:1.0;" width="223" x="327.75" y="884.7349"/><text fill="#000000" font-family="Verdana" font-size="12" lengthAdjust="spacing" textLength="203" x="337.75" y="906.7993">Giocatore seleziona nuova arma</text><rect fill="#FFFFFF" height="34.584" rx="12.5" ry="12.5" style="stroke:#000000;stroke-width:1.0;" width="273" x="302.75" y="939.3188"/><text fill="#000000" font-family="Verdana" font-size="12" lengthAdjust="spacing" textLength="253" x="312.75" y="961.3833">Calcola nuove statistiche configurazione</text><polygon fill="#FFFFFF" points="360.75,993.9028,517.75,993.9028,529.75,1005.9028,517.75,1017.9028,360.75,1017.9028,348.75,1005.9028,360.75,993.9028" style="stroke:#000000;stroke-width:1.0;"/><text fill="#000000" font-family="Verdana" font-size="11" lengthAdjust="spacing" textLength="157" x="360.75" y="1010.2776">Peso totale supera il limite?</text><text fill="#000000" font-family="Verdana" font-size="11" lengthAdjust="spacing" textLength="9" x="339.75" y="1003.5933">s&#236;</text><text fill="#000000" font-family="Verdana" font-size="11" lengthAdjust="spacing" textLength="14" x="529.75" y="1003.5933">no</text><rect fill="#FFFFFF" height="34.584" rx="12.5" ry="12.5" style="stroke:#000000;stroke-width:1.0;" width="179" x="222" y="1027.9028"/><text fill="#000000" font-family="Verdana" font-size="12" lengthAdjust="spacing" textLength="159" x="232" y="1049.9673">Mostra avviso limite peso</text><rect fill="#FFFFFF" height="34.584" rx="12.5" ry="12.5" style="stroke:#000000;stroke-width:1.0;" width="231" x="196" y="1082.4868"/><text fill="#000000" font-family="Verdana" font-size="12" lengthAdjust="spacing" textLength="211" x="206" y="1104.5513">Suggerisci alternative pi&#249; leggere</text><rect fill="#FFFFFF" height="34.584" rx="12.5" ry="12.5" style="stroke:#000000;stroke-width:1.0;" width="187" x="473.5" y="1027.9028"/><text fill="#000000" font-family="Verdana" font-size="12" lengthAdjust="spacing" textLength="167" x="483.5" y="1049.9673">Equipaggia arma nello slot</text><rect fill="#FFFFFF" height="34.584" rx="12.5" ry="12.5" style="stroke:#000000;stroke-width:1.0;" width="240" x="447" y="1082.4868"/><text fill="#000000" font-family="Verdana" font-size="12" lengthAdjust="spacing" textLength="220" x="457" y="1104.5513">Aggiorna anteprima configurazione</text><polygon fill="#FFFFFF" points="439.25,1123.0708,451.25,1135.0708,439.25,1147.0708,427.25,1135.0708,439.25,1123.0708" style="stroke:#000000;stroke-width:1.0;"/><polygon fill="#FFFFFF" points="729.5,719.0078,944.5,719.0078,956.5,731.0078,944.5,743.0078,729.5,743.0078,717.5,731.0078,729.5,719.0078" style="stroke:#000000;stroke-width:1.0;"/><text fill="#000000" font-family="Verdana" font-size="11" lengthAdjust="spacing" textLength="9" x="841" y="754.0669">s&#236;</text><text fill="#000000" font-family="Verdana" font-size="11" lengthAdjust="spacing" textLength="215" x="729.5" y="735.3826">Giocatore sceglie di rimuovere arma?</text><rect fill="#FFFFFF" height="34.584" rx="12.5" ry="12.5" style="stroke:#000000;stroke-width:1.0;" width="165" x="754.5" y="775.5669"/><text fill="#000000" font-family="Verdana" font-size="12" lengthAdjust="spacing" textLength="145" x="764.5" y="797.6313">Rimuovi arma dallo slot</text><rect fill="#FFFFFF" height="34.584" rx="12.5" ry="12.5" style="stroke:#000000;stroke-width:1.0;" width="203" x="735.5" y="830.1509"/><text fill="#000000" font-family="Verdana" font-size="12" lengthAdjust="spacing" textLength="183" x="745.5" y="852.2153">Restituisci arma all'inventario</text><rect fill="#FFFFFF" height="34.584" rx="12.5" ry="12.5" style="stroke:#000000;stroke-width:1.0;" width="240" x="717" y="884.7349"/><text fill="#000000" font-family="Verdana" font-size="12" lengthAdjust="spacing" textLength="220" x="727" y="906.7993">Aggiorna anteprima configurazione</text><polygon fill="#FFFFFF" points="596.5,447.2559,608.5,459.2559,596.5,471.2559,584.5,459.2559,596.5,447.2559" style="stroke:#000000;stroke-width:1.0;"/><polygon fill="#FFFFFF" points="494.5,1187.0708,698.5,1187.0708,710.5,1199.0708,698.5,1211.0708,494.5,1211.0708,482.5,1199.0708,494.5,1187.0708" style="stroke:#000000;stroke-width:1.0;"/><text fill="#000000" font-family="Verdana" font-size="11" lengthAdjust="spacing" textLength="204" x="494.5" y="1203.4456">Giocatore vuole modificare altri slot</text><rect fill="#FFFFFF" height="34.584" rx="12.5" ry="12.5" style="stroke:#000000;stroke-width:1.0;" width="274" x="459.5" y="1243.0708"/><text fill="#000000" font-family="Verdana" font-size="12" lengthAdjust="spacing" textLength="254" x="469.5" y="1265.1353">Visualizza riepilogo configurazione finale</text><rect fill="#FFFFFF" height="34.584" rx="12.5" ry="12.5" style="stroke:#000000;stroke-width:1.0;" width="342" x="425.5" y="1297.6548"/><text fill="#000000" font-family="Verdana" font-size="12" lengthAdjust="spacing" textLength="322" x="435.5" y="1319.7192">Mostra peso totale, danno e statistiche prestazioni</text><polygon fill="#FFFFFF" points="475,1352.2388,718,1352.2388,730,1364.2388,718,1376.2388,475,1376.2388,463,1364.2388,475,1352.2388" style="stroke:#000000;stroke-width:1.0;"/><text fill="#000000" font-family="Verdana" font-size="11" lengthAdjust="spacing" textLength="243" x="475" y="1368.6135">Giocatore vuole salvare la configurazione?</text><text fill="#000000" font-family="Verdana" font-size="11" lengthAdjust="spacing" textLength="9" x="454" y="1361.9292">s&#236;</text><text fill="#000000" font-family="Verdana" font-size="11" lengthAdjust="spacing" textLength="14" x="730" y="1361.9292">no</text><rect fill="#FFFFFF" height="34.584" rx="12.5" ry="12.5" style="stroke:#000000;stroke-width:1.0;" width="237" x="325.25" y="1386.2388"/><text fill="#000000" font-family="Verdana" font-size="12" lengthAdjust="spacing" textLength="217" x="335.25" y="1408.3032">Salva configurazione nel database</text><rect fill="#FFFFFF" height="34.584" rx="12.5" ry="12.5" style="stroke:#000000;stroke-width:1.0;" width="321" x="283.25" y="1440.8228"/><text fill="#000000" font-family="Verdana" font-size="12" lengthAdjust="spacing" textLength="301" x="293.25" y="1462.8872">Imposta come configurazione attiva se richiesto</text><rect fill="#FFFFFF" height="34.584" rx="12.5" ry="12.5" style="stroke:#000000;stroke-width:1.0;" width="196" x="345.75" y="1495.4067"/><text fill="#000000" font-family="Verdana" font-size="12" lengthAdjust="spacing" textLength="176" x="355.75" y="1517.4712">Mostra messaggio successo</text><rect fill="#FFFFFF" height="34.584" rx="12.5" ry="12.5" style="stroke:#000000;stroke-width:1.0;" width="123" x="687.75" y="1386.2388"/><text fill="#000000" font-family="Verdana" font-size="12" lengthAdjust="spacing" textLength="103" x="697.75" y="1408.3032">Scarta modifiche</text><rect fill="#FFFFFF" height="34.584" rx="12.5" ry="12.5" style="stroke:#000000;stroke-width:1.0;" width="250" x="624.25" y="1440.8228"/><text fill="#000000" font-family="Verdana" font-size="12" lengthAdjust="spacing" textLength="230" x="634.25" y="1462.8872">Ripristina configurazione precedente</text><polygon fill="#FFFFFF" points="596.5,1535.9907,608.5,1547.9907,596.5,1559.9907,584.5,1547.9907,596.5,1535.9907" style="stroke:#000000;stroke-width:1.0;"/><rect fill="#FFFFFF" height="34.584" rx="12.5" ry="12.5" style="stroke:#000000;stroke-width:1.0;" width="301" x="446" y="1579.9907"/><text fill="#000000" font-family="Verdana" font-size="12" lengthAdjust="spacing" textLength="281" x="456" y="1602.0552">Ritorna al menu personalizzazione principale</text><ellipse cx="596.5" cy="1645.5747" fill="none" rx="11" ry="11" style="stroke:#000000;stroke-width:1.0;"/><ellipse cx="596.5" cy="1645.5747" fill="#FFFFFF" rx="6" ry="6" style="stroke:#000000;stroke-width:1.0;"/><line style="stroke:#000000;stroke-width:1.0;" x1="596.5" x2="596.5" y1="72.7373" y2="92.7373"/><polygon fill="#000000" points="592.5,82.7373,596.5,92.7373,600.5,82.7373,596.5,86.7373" style="stroke:#000000;stroke-width:1.0;"/><line style="stroke:#000000;stroke-width:1.0;" x1="596.5" x2="596.5" y1="127.3213" y2="147.3213"/><polygon fill="#000000" points="592.5,137.3213,596.5,147.3213,600.5,137.3213,596.5,141.3213" style="stroke:#000000;stroke-width:1.0;"/><line style="stroke:#000000;stroke-width:1.0;" x1="596.5" x2="596.5" y1="181.9053" y2="201.9053"/><polygon fill="#000000" points="592.5,191.9053,596.5,201.9053,600.5,191.9053,596.5,195.9053" style="stroke:#000000;stroke-width:1.0;"/><line style="stroke:#000000;stroke-width:1.0;" x1="596.5" x2="596.5" y1="236.4893" y2="256.4893"/><polygon fill="#000000" points="592.5,246.4893,596.5,256.4893,600.5,246.4893,596.5,250.4893" style="stroke:#000000;stroke-width:1.0;"/><line style="stroke:#000000;stroke-width:1.0;" x1="596.5" x2="596.5" y1="291.0732" y2="311.0732"/><polygon fill="#000000" points="592.5,301.0732,596.5,311.0732,600.5,301.0732,596.5,305.0732" style="stroke:#000000;stroke-width:1.0;"/><line style="stroke:#000000;stroke-width:1.0;" x1="596.5" x2="596.5" y1="345.6572" y2="365.6572"/><polygon fill="#000000" points="592.5,355.6572,596.5,365.6572,600.5,355.6572,596.5,359.6572" style="stroke:#000000;stroke-width:1.0;"/><line style="stroke:#000000;stroke-width:1.0;" x1="743.5" x2="743.5" y1="614.4238" y2="634.4238"/><polygon fill="#000000" points="739.5,624.4238,743.5,634.4238,747.5,624.4238,743.5,628.4238" style="stroke:#000000;stroke-width:1.0;"/><line style="stroke:#000000;stroke-width:1.0;" x1="516.5" x2="449.5" y1="557.8398" y2="557.8398"/><line style="stroke:#000000;stroke-width:1.0;" x1="449.5" x2="449.5" y1="557.8398" y2="579.8398"/><polygon fill="#000000" points="445.5,569.8398,449.5,579.8398,453.5,569.8398,449.5,573.8398" style="stroke:#000000;stroke-width:1.0;"/><line style="stroke:#000000;stroke-width:1.0;" x1="676.5" x2="743.5" y1="557.8398" y2="557.8398"/><line style="stroke:#000000;stroke-width:1.0;" x1="743.5" x2="743.5" y1="557.8398" y2="579.8398"/><polygon fill="#000000" points="739.5,569.8398,743.5,579.8398,747.5,569.8398,743.5,573.8398" style="stroke:#000000;stroke-width:1.0;"/><line style="stroke:#000000;stroke-width:1.0;" x1="449.5" x2="449.5" y1="614.4238" y2="687.0078"/><line style="stroke:#000000;stroke-width:1.0;" x1="449.5" x2="584.5" y1="687.0078" y2="687.0078"/><polygon fill="#000000" points="574.5,683.0078,584.5,687.0078,574.5,691.0078,578.5,687.0078" style="stroke:#000000;stroke-width:1.0;"/><line style="stroke:#000000;stroke-width:1.0;" x1="743.5" x2="743.5" y1="669.0078" y2="687.0078"/><line style="stroke:#000000;stroke-width:1.0;" x1="743.5" x2="608.5" y1="687.0078" y2="687.0078"/><polygon fill="#000000" points="618.5,683.0078,608.5,687.0078,618.5,691.0078,614.5,687.0078" style="stroke:#000000;stroke-width:1.0;"/><line style="stroke:#000000;stroke-width:1.0;" x1="596.5" x2="596.5" y1="525.8398" y2="545.8398"/><polygon fill="#000000" points="592.5,535.8398,596.5,545.8398,600.5,535.8398,596.5,539.8398" style="stroke:#000000;stroke-width:1.0;"/><line style="stroke:#000000;stroke-width:1.0;" x1="439.25" x2="439.25" y1="810.1509" y2="830.1509"/><polygon fill="#000000" points="435.25,820.1509,439.25,830.1509,443.25,820.1509,439.25,824.1509" style="stroke:#000000;stroke-width:1.0;"/><line style="stroke:#000000;stroke-width:1.0;" x1="439.25" x2="439.25" y1="864.7349" y2="884.7349"/><polygon fill="#000000" points="435.25,874.7349,439.25,884.7349,443.25,874.7349,439.25,878.7349" style="stroke:#000000;stroke-width:1.0;"/><line style="stroke:#000000;stroke-width:1.0;" x1="439.25" x2="439.25" y1="919.3188" y2="939.3188"/><polygon fill="#000000" points="435.25,929.3188,439.25,939.3188,443.25,929.3188,439.25,933.3188" style="stroke:#000000;stroke-width:1.0;"/><line style="stroke:#000000;stroke-width:1.0;" x1="311.5" x2="311.5" y1="1062.4868" y2="1082.4868"/><polygon fill="#000000" points="307.5,1072.4868,311.5,1082.4868,315.5,1072.4868,311.5,1076.4868" style="stroke:#000000;stroke-width:1.0;"/><line style="stroke:#000000;stroke-width:1.0;" x1="567" x2="567" y1="1062.4868" y2="1082.4868"/><polygon fill="#000000" points="563,1072.4868,567,1082.4868,571,1072.4868,567,1076.4868" style="stroke:#000000;stroke-width:1.0;"/><line style="stroke:#000000;stroke-width:1.0;" x1="348.75" x2="311.5" y1="1005.9028" y2="1005.9028"/><line style="stroke:#000000;stroke-width:1.0;" x1="311.5" x2="311.5" y1="1005.9028" y2="1027.9028"/><polygon fill="#000000" points="307.5,1017.9028,311.5,1027.9028,315.5,1017.9028,311.5,1021.9028" style="stroke:#000000;stroke-width:1.0;"/><line style="stroke:#000000;stroke-width:1.0;" x1="529.75" x2="567" y1="1005.9028" y2="1005.9028"/><line style="stroke:#000000;stroke-width:1.0;" x1="567" x2="567" y1="1005.9028" y2="1027.9028"/><polygon fill="#000000" points="563,1017.9028,567,1027.9028,571,1017.9028,567,1021.9028" style="stroke:#000000;stroke-width:1.0;"/><line style="stroke:#000000;stroke-width:1.0;" x1="311.5" x2="311.5" y1="1117.0708" y2="1135.0708"/><line style="stroke:#000000;stroke-width:1.0;" x1="311.5" x2="427.25" y1="1135.0708" y2="1135.0708"/><polygon fill="#000000" points="417.25,1131.0708,427.25,1135.0708,417.25,1139.0708,421.25,1135.0708" style="stroke:#000000;stroke-width:1.0;"/><line style="stroke:#000000;stroke-width:1.0;" x1="567" x2="567" y1="1117.0708" y2="1135.0708"/><line style="stroke:#000000;stroke-width:1.0;" x1="567" x2="451.25" y1="1135.0708" y2="1135.0708"/><polygon fill="#000000" points="461.25,1131.0708,451.25,1135.0708,461.25,1139.0708,457.25,1135.0708" style="stroke:#000000;stroke-width:1.0;"/><line style="stroke:#000000;stroke-width:1.0;" x1="439.25" x2="439.25" y1="973.9028" y2="993.9028"/><polygon fill="#000000" points="435.25,983.9028,439.25,993.9028,443.25,983.9028,439.25,987.9028" style="stroke:#000000;stroke-width:1.0;"/><line style="stroke:#000000;stroke-width:1.0;" x1="837" x2="837" y1="810.1509" y2="830.1509"/><polygon fill="#000000" points="833,820.1509,837,830.1509,841,820.1509,837,824.1509" style="stroke:#000000;stroke-width:1.0;"/><line style="stroke:#000000;stroke-width:1.0;" x1="837" x2="837" y1="864.7349" y2="884.7349"/><polygon fill="#000000" points="833,874.7349,837,884.7349,841,874.7349,837,878.7349" style="stroke:#000000;stroke-width:1.0;"/><line style="stroke:#000000;stroke-width:1.0;" x1="439.25" x2="439.25" y1="743.0078" y2="775.5669"/><polygon fill="#000000" points="435.25,765.5669,439.25,775.5669,443.25,765.5669,439.25,769.5669" style="stroke:#000000;stroke-width:1.0;"/><line style="stroke:#000000;stroke-width:1.0;" x1="439.25" x2="439.25" y1="1147.0708" y2="1167.0708"/><polygon fill="#000000" points="435.25,1157.0708,439.25,1167.0708,443.25,1157.0708,439.25,1161.0708" style="stroke:#000000;stroke-width:1.0;"/><line style="stroke:#000000;stroke-width:1.0;" x1="837" x2="837" y1="743.0078" y2="775.5669"/><polygon fill="#000000" points="833,765.5669,837,775.5669,841,765.5669,837,769.5669" style="stroke:#000000;stroke-width:1.0;"/><line style="stroke:#000000;stroke-width:1.0;" x1="837" x2="837" y1="919.3188" y2="1167.0708"/><polygon fill="#000000" points="833,1157.0708,837,1167.0708,841,1157.0708,837,1161.0708" style="stroke:#000000;stroke-width:1.0;"/><line style="stroke:#000000;stroke-width:1.0;" x1="589.75" x2="717.5" y1="731.0078" y2="731.0078"/><polygon fill="#000000" points="707.5,727.0078,717.5,731.0078,707.5,735.0078,711.5,731.0078" style="stroke:#000000;stroke-width:1.0;"/><line style="stroke:#000000;stroke-width:1.0;" x1="596.5" x2="596.5" y1="699.0078" y2="704.0078"/><line style="stroke:#000000;stroke-width:1.0;" x1="596.5" x2="439.25" y1="704.0078" y2="704.0078"/><line style="stroke:#000000;stroke-width:1.0;" x1="439.25" x2="439.25" y1="704.0078" y2="719.0078"/><polygon fill="#000000" points="435.25,709.0078,439.25,719.0078,443.25,709.0078,439.25,713.0078" style="stroke:#000000;stroke-width:1.0;"/><line style="stroke:#000000;stroke-width:1.0;" x1="956.5" x2="971" y1="731.0078" y2="731.0078"/><line style="stroke:#000000;stroke-width:1.0;" x1="971" x2="971" y1="731.0078" y2="1167.0708"/><polygon fill="#000000" points="967,1157.0708,971,1167.0708,975,1157.0708,971,1161.0708" style="stroke:#000000;stroke-width:1.0;"/><line style="stroke:#000000;stroke-width:1.0;" x1="439.25" x2="971" y1="1167.0708" y2="1167.0708"/><line style="stroke:#000000;stroke-width:1.0;" x1="596.5" x2="596.5" y1="471.2559" y2="491.2559"/><polygon fill="#000000" points="592.5,481.2559,596.5,491.2559,600.5,481.2559,596.5,485.2559" style="stroke:#000000;stroke-width:1.0;"/><line style="stroke:#000000;stroke-width:1.0;" x1="710.5" x2="989" y1="1199.0708" y2="1199.0708"/><polygon fill="#000000" points="985,853.7585,989,843.7585,993,853.7585,989,849.7585" style="stroke:#000000;stroke-width:1.0;"/><line style="stroke:#000000;stroke-width:1.0;" x1="989" x2="989" y1="459.2559" y2="1199.0708"/><line style="stroke:#000000;stroke-width:1.0;" x1="989" x2="608.5" y1="459.2559" y2="459.2559"/><polygon fill="#000000" points="618.5,455.2559,608.5,459.2559,618.5,463.2559,614.5,459.2559" style="stroke:#000000;stroke-width:1.0;"/><line style="stroke:#000000;stroke-width:1.0;" x1="596.5" x2="596.5" y1="1167.0708" y2="1187.0708"/><polygon fill="#000000" points="592.5,1177.0708,596.5,1187.0708,600.5,1177.0708,596.5,1181.0708" style="stroke:#000000;stroke-width:1.0;"/><line style="stroke:#000000;stroke-width:1.0;" x1="596.5" x2="596.5" y1="400.2412" y2="447.2559"/><polygon fill="#000000" points="592.5,437.2559,596.5,447.2559,600.5,437.2559,596.5,441.2559" style="stroke:#000000;stroke-width:1.0;"/><line style="stroke:#000000;stroke-width:1.0;" x1="596.5" x2="596.5" y1="1211.0708" y2="1243.0708"/><polygon fill="#000000" points="592.5,1233.0708,596.5,1243.0708,600.5,1233.0708,596.5,1237.0708" style="stroke:#000000;stroke-width:1.0;"/><line style="stroke:#000000;stroke-width:1.0;" x1="596.5" x2="596.5" y1="1277.6548" y2="1297.6548"/><polygon fill="#000000" points="592.5,1287.6548,596.5,1297.6548,600.5,1287.6548,596.5,1291.6548" style="stroke:#000000;stroke-width:1.0;"/><line style="stroke:#000000;stroke-width:1.0;" x1="443.75" x2="443.75" y1="1420.8228" y2="1440.8228"/><polygon fill="#000000" points="439.75,1430.8228,443.75,1440.8228,447.75,1430.8228,443.75,1434.8228" style="stroke:#000000;stroke-width:1.0;"/><line style="stroke:#000000;stroke-width:1.0;" x1="443.75" x2="443.75" y1="1475.4067" y2="1495.4067"/><polygon fill="#000000" points="439.75,1485.4067,443.75,1495.4067,447.75,1485.4067,443.75,1489.4067" style="stroke:#000000;stroke-width:1.0;"/><line style="stroke:#000000;stroke-width:1.0;" x1="749.25" x2="749.25" y1="1420.8228" y2="1440.8228"/><polygon fill="#000000" points="745.25,1430.8228,749.25,1440.8228,753.25,1430.8228,749.25,1434.8228" style="stroke:#000000;stroke-width:1.0;"/><line style="stroke:#000000;stroke-width:1.0;" x1="463" x2="443.75" y1="1364.2388" y2="1364.2388"/><line style="stroke:#000000;stroke-width:1.0;" x1="443.75" x2="443.75" y1="1364.2388" y2="1386.2388"/><polygon fill="#000000" points="439.75,1376.2388,443.75,1386.2388,447.75,1376.2388,443.75,1380.2388" style="stroke:#000000;stroke-width:1.0;"/><line style="stroke:#000000;stroke-width:1.0;" x1="730" x2="749.25" y1="1364.2388" y2="1364.2388"/><line style="stroke:#000000;stroke-width:1.0;" x1="749.25" x2="749.25" y1="1364.2388" y2="1386.2388"/><polygon fill="#000000" points="745.25,1376.2388,749.25,1386.2388,753.25,1376.2388,749.25,1380.2388" style="stroke:#000000;stroke-width:1.0;"/><line style="stroke:#000000;stroke-width:1.0;" x1="443.75" x2="443.75" y1="1529.9907" y2="1547.9907"/><line style="stroke:#000000;stroke-width:1.0;" x1="443.75" x2="584.5" y1="1547.9907" y2="1547.9907"/><polygon fill="#000000" points="574.5,1543.9907,584.5,1547.9907,574.5,1551.9907,578.5,1547.9907" style="stroke:#000000;stroke-width:1.0;"/><line style="stroke:#000000;stroke-width:1.0;" x1="749.25" x2="749.25" y1="1475.4067" y2="1547.9907"/><line style="stroke:#000000;stroke-width:1.0;" x1="749.25" x2="608.5" y1="1547.9907" y2="1547.9907"/><polygon fill="#000000" points="618.5,1543.9907,608.5,1547.9907,618.5,1551.9907,614.5,1547.9907" style="stroke:#000000;stroke-width:1.0;"/><line style="stroke:#000000;stroke-width:1.0;" x1="596.5" x2="596.5" y1="1332.2388" y2="1352.2388"/><polygon fill="#000000" points="592.5,1342.2388,596.5,1352.2388,600.5,1342.2388,596.5,1346.2388" style="stroke:#000000;stroke-width:1.0;"/><line style="stroke:#000000;stroke-width:1.0;" x1="596.5" x2="596.5" y1="1559.9907" y2="1579.9907"/><polygon fill="#000000" points="592.5,1569.9907,596.5,1579.9907,600.5,1569.9907,596.5,1573.9907" style="stroke:#000000;stroke-width:1.0;"/><line style="stroke:#000000;stroke-width:1.0;" x1="596.5" x2="596.5" y1="1614.5747" y2="1634.5747"/><polygon fill="#000000" points="592.5,1624.5747,596.5,1634.5747,600.5,1624.5747,596.5,1628.5747" style="stroke:#000000;stroke-width:1.0;"/><!--SRC=[bLNBRjim4BphAxQvr0PIzD2RVIY2z84UWWOnq3jBh-K5A58bAHL8qN_f1_G7UiwFTIWwDgN83QgJPCzoPsTtbY_YdXkcrYYnLHKb6gOD-rxknT4j- -2iCd9_h_1jcQwLzqAlw9sesgkcKRHbWv2h6AMN-F2B5hVUQGx1qRMpEwaxNuIwPLM5g7oigjL7SLf5vvdOHg_8ig66RKVjDEkwMY5Oj2AnFS1uTrIVmacNcGIVtWCcwmfflaZeybca1_BADoeARIMq07yL0rn19h3XT4o6Ezgg4I5ViD7Z0ZF-a3p1YjJ1k9Wo2otUv8yY_n94MuWY4UVGnRLeyqIzAyHUq8-Ay7XkMSNXDJspv1yJgbH0uxQo0-D4_Z7g-28xMcm6T8oWsoJor7SkkhTBmdHOMeI7tyiZVaXvuqBgsL1HKGcI6VForALJEZQ1QM7T_3bRZb7L9ZUda724_RpReNsk7PgyeWr29NOIj5pIdJITw_7Yw4QXzMobo6rH_dpXXNIQGO1H3QcwbixMxFbrE2G1857xXo8Vn1mLqQvfCMDvjaQeOYICm0d7ZWtdJz5pZRMeSqYZ9k1hPRGp6O2020BWhlSJUqnK7IbIAdFBi71qKS7TeOC5u3u3qer4FY_3am7fUy4vEGn62cuzZzzqDGHFpIHb8diB-YYZbOS_P3ZzDqDyVgYEPxx_racRcfdrIXi6nahEE4FY2bY7r8GHujPBevxLRZnR0w6pS-M78UNdP-ampO_-dMUzkkEZ0JBodFV-jxOPl-ILGz_tWd4egiEUm0-d_PAQ1vCcjilgvtZzUk5MZAlTT77k1CirBSp3qBIdqRj4-TOw6Wzqwr5wNlPOdMEzCwEWJ9_ec6cLywglDWa_vPLkfAsAwgiAXJghJqthadNXygctqWwLFhaQrUgzW6RHXyVw6boFQIpHrKuFT-MwUZhAgmq4ZSVblIyft0aw237i4ywGHlCsRy_Snmhec3j_xe95b5WDhwGku89sRVKN]--></g></svg>