<?xml version="1.0" encoding="us-ascii" standalone="no"?><svg xmlns="http://www.w3.org/2000/svg" xmlns:xlink="http://www.w3.org/1999/xlink" contentStyleType="text/css" height="1810px" preserveAspectRatio="none" style="width:2701px;height:1810px;background:#FFFFFF;" version="1.1" viewBox="0 0 2701 1810" width="2701px" zoomAndPan="magnify"><defs/><g><text fill="#000000" font-family="Verdana" font-size="22" font-weight="bold" lengthAdjust="spacing" textLength="732" x="983" y="37.1182">Servizio Personalizzazione Carri - Diagramma di Sequenza</text><rect fill="#FFFFFF" height="241.7632" style="stroke:#000000;stroke-width:1.0;" width="2669" x="15" y="500.3438"/><rect fill="#FFFFFF" height="45.168" style="stroke:none;stroke-width:1.0;" width="2669" x="15" y="696.939"/><rect fill="#FFFFFF" height="152.3652" style="stroke:#000000;stroke-width:1.0;" width="2669" x="15" y="1078.3008"/><rect fill="#FFFFFF" height="74.9673" style="stroke:none;stroke-width:1.0;" width="2669" x="15" y="1155.6987"/><line style="stroke:#000000;stroke-width:1.0;" x1="97" x2="97" y1="84.752" y2="1774.6558"/><line style="stroke:#000000;stroke-width:1.0;" x1="1343" x2="1343" y1="84.752" y2="1774.6558"/><line style="stroke:#000000;stroke-width:1.0;" x1="1852.5" x2="1852.5" y1="84.752" y2="1774.6558"/><line style="stroke:#000000;stroke-width:1.0;" x1="2019.5" x2="2019.5" y1="84.752" y2="1774.6558"/><line style="stroke:#000000;stroke-width:1.0;" x1="2624" x2="2624" y1="84.752" y2="1774.6558"/><rect fill="#FFFFFF" height="31.0146" rx="2.5" ry="2.5" style="stroke:#000000;stroke-width:1.0;" width="125" x="35" y="52.7373"/><text fill="#000000" font-family="Verdana" font-size="14" lengthAdjust="spacing" textLength="111" x="42" y="73.8125">Client Giocatore</text><rect fill="#FFFFFF" height="31.0146" rx="2.5" ry="2.5" style="stroke:#000000;stroke-width:1.0;" width="125" x="35" y="1773.6558"/><text fill="#000000" font-family="Verdana" font-size="14" lengthAdjust="spacing" textLength="111" x="42" y="1794.731">Client Giocatore</text><rect fill="#FFFFFF" height="31.0146" rx="2.5" ry="2.5" style="stroke:#000000;stroke-width:1.0;" width="165" x="1261" y="52.7373"/><text fill="#000000" font-family="Verdana" font-size="14" lengthAdjust="spacing" textLength="151" x="1268" y="73.8125">API Personalizzazione</text><rect fill="#FFFFFF" height="31.0146" rx="2.5" ry="2.5" style="stroke:#000000;stroke-width:1.0;" width="165" x="1261" y="1773.6558"/><text fill="#000000" font-family="Verdana" font-size="14" lengthAdjust="spacing" textLength="151" x="1268" y="1794.731">API Personalizzazione</text><rect fill="#FFFFFF" height="31.0146" rx="2.5" ry="2.5" style="stroke:#000000;stroke-width:1.0;" width="130" x="1787.5" y="52.7373"/><text fill="#000000" font-family="Verdana" font-size="14" lengthAdjust="spacing" textLength="116" x="1794.5" y="73.8125">Servizio Negozio</text><rect fill="#FFFFFF" height="31.0146" rx="2.5" ry="2.5" style="stroke:#000000;stroke-width:1.0;" width="130" x="1787.5" y="1773.6558"/><text fill="#000000" font-family="Verdana" font-size="14" lengthAdjust="spacing" textLength="116" x="1794.5" y="1794.731">Servizio Negozio</text><rect fill="#FFFFFF" height="31.0146" rx="2.5" ry="2.5" style="stroke:#000000;stroke-width:1.0;" width="145" x="1947.5" y="52.7373"/><text fill="#000000" font-family="Verdana" font-size="14" lengthAdjust="spacing" textLength="131" x="1954.5" y="73.8125">Servizio Inventario</text><rect fill="#FFFFFF" height="31.0146" rx="2.5" ry="2.5" style="stroke:#000000;stroke-width:1.0;" width="145" x="1947.5" y="1773.6558"/><text fill="#000000" font-family="Verdana" font-size="14" lengthAdjust="spacing" textLength="131" x="1954.5" y="1794.731">Servizio Inventario</text><rect fill="#FFFFFF" height="31.0146" rx="2.5" ry="2.5" style="stroke:#000000;stroke-width:1.0;" width="80" x="2584" y="52.7373"/><text fill="#000000" font-family="Verdana" font-size="14" lengthAdjust="spacing" textLength="66" x="2591" y="73.8125">Database</text><rect fill="#FFFFFF" height="31.0146" rx="2.5" ry="2.5" style="stroke:#000000;stroke-width:1.0;" width="80" x="2584" y="1773.6558"/><text fill="#000000" font-family="Verdana" font-size="14" lengthAdjust="spacing" textLength="66" x="2591" y="1794.731">Database</text><rect fill="#FFFFFF" height="3" style="stroke:#FFFFFF;stroke-width:1.0;" width="2689" x="5" y="115.6516"/><line style="stroke:#000000;stroke-width:0.5;" x1="5" x2="2694" y1="115.6516" y2="115.6516"/><line style="stroke:#000000;stroke-width:0.5;" x1="5" x2="2694" y1="118.6516" y2="118.6516"/><rect fill="#FFFFFF" height="23.7993" style="stroke:#000000;stroke-width:1.0;" width="207" x="1246" y="104.752"/><text fill="#000000" font-family="Verdana" font-size="13" font-weight="bold" lengthAdjust="spacing" textLength="189" x="1252" y="121.8218">Visualizza Armi Disponibili</text><polygon fill="#000000" points="1331.5,156.3506,1341.5,160.3506,1331.5,164.3506,1335.5,160.3506" style="stroke:#000000;stroke-width:1.0;"/><line style="stroke:#000000;stroke-width:1.0;" x1="97.5" x2="1337.5" y1="160.3506" y2="160.3506"/><text fill="#000000" font-family="Verdana" font-size="13" lengthAdjust="spacing" textLength="95" x="104.5" y="155.6211">GET /weapons</text><polygon fill="#000000" points="2612,186.1499,2622,190.1499,2612,194.1499,2616,190.1499" style="stroke:#000000;stroke-width:1.0;"/><line style="stroke:#000000;stroke-width:1.0;" x1="1343.5" x2="2618" y1="190.1499" y2="190.1499"/><text fill="#000000" font-family="Verdana" font-size="13" lengthAdjust="spacing" textLength="342" x="1350.5" y="185.4204">SELECT * FROM TankWeapons ORDER BY price ASC</text><polygon fill="#000000" points="1354.5,215.9492,1344.5,219.9492,1354.5,223.9492,1350.5,219.9492" style="stroke:#000000;stroke-width:1.0;"/><line style="stroke:#000000;stroke-width:1.0;" x1="1348.5" x2="2623" y1="219.9492" y2="219.9492"/><text fill="#000000" font-family="Verdana" font-size="13" lengthAdjust="spacing" textLength="62" x="1360.5" y="215.2197">lista_armi</text><polygon fill="#000000" points="108.5,245.7485,98.5,249.7485,108.5,253.7485,104.5,249.7485" style="stroke:#000000;stroke-width:1.0;"/><line style="stroke:#000000;stroke-width:1.0;" x1="102.5" x2="1342.5" y1="249.7485" y2="249.7485"/><text fill="#000000" font-family="Verdana" font-size="13" lengthAdjust="spacing" textLength="508" x="114.5" y="245.019">[{id: 1, name: "Cannone Base", type: "cannon", damage: 100, price: 0}, ...]</text><rect fill="#FFFFFF" height="3" style="stroke:#FFFFFF;stroke-width:1.0;" width="2689" x="5" y="278.6482"/><line style="stroke:#000000;stroke-width:0.5;" x1="5" x2="2694" y1="278.6482" y2="278.6482"/><line style="stroke:#000000;stroke-width:0.5;" x1="5" x2="2694" y1="281.6482" y2="281.6482"/><rect fill="#FFFFFF" height="23.7993" style="stroke:#000000;stroke-width:1.0;" width="124" x="1287.5" y="267.7485"/><text fill="#000000" font-family="Verdana" font-size="13" font-weight="bold" lengthAdjust="spacing" textLength="106" x="1293.5" y="284.8184">Acquista Arma</text><polygon fill="#000000" points="1331.5,319.3472,1341.5,323.3472,1331.5,327.3472,1335.5,323.3472" style="stroke:#000000;stroke-width:1.0;"/><line style="stroke:#000000;stroke-width:1.0;" x1="97.5" x2="1337.5" y1="323.3472" y2="323.3472"/><text fill="#000000" font-family="Verdana" font-size="13" lengthAdjust="spacing" textLength="286" x="104.5" y="318.6177">POST /buy-weapon {token, weapon_id: 3}</text><line style="stroke:#000000;stroke-width:1.0;" x1="1343.5" x2="1385.5" y1="353.1465" y2="353.1465"/><line style="stroke:#000000;stroke-width:1.0;" x1="1385.5" x2="1385.5" y1="353.1465" y2="366.1465"/><line style="stroke:#000000;stroke-width:1.0;" x1="1344.5" x2="1385.5" y1="366.1465" y2="366.1465"/><polygon fill="#000000" points="1354.5,362.1465,1344.5,366.1465,1354.5,370.1465,1350.5,366.1465" style="stroke:#000000;stroke-width:1.0;"/><text fill="#000000" font-family="Verdana" font-size="13" lengthAdjust="spacing" textLength="95" x="1350.5" y="348.417">valida_token()</text><polygon fill="#000000" points="2612,391.9458,2622,395.9458,2612,399.9458,2616,395.9458" style="stroke:#000000;stroke-width:1.0;"/><line style="stroke:#000000;stroke-width:1.0;" x1="1343.5" x2="2618" y1="395.9458" y2="395.9458"/><text fill="#000000" font-family="Verdana" font-size="13" lengthAdjust="spacing" textLength="297" x="1350.5" y="391.2163">SELECT * FROM TankWeapons WHERE id = 3</text><polygon fill="#000000" points="1354.5,421.7451,1344.5,425.7451,1354.5,429.7451,1350.5,425.7451" style="stroke:#000000;stroke-width:1.0;"/><line style="stroke:#000000;stroke-width:1.0;" x1="1348.5" x2="2623" y1="425.7451" y2="425.7451"/><text fill="#000000" font-family="Verdana" font-size="13" lengthAdjust="spacing" textLength="370" x="1360.5" y="421.0156">dati_arma {name: "Mitragliatrice Pesante", price: 1500}</text><polygon fill="#000000" points="2612,451.5444,2622,455.5444,2612,459.5444,2616,455.5444" style="stroke:#000000;stroke-width:1.0;"/><line style="stroke:#000000;stroke-width:1.0;" x1="1343.5" x2="2618" y1="455.5444" y2="455.5444"/><text fill="#000000" font-family="Verdana" font-size="13" lengthAdjust="spacing" textLength="341" x="1350.5" y="450.8149">SELECT credits FROM UserStats WHERE user_id = ?</text><polygon fill="#000000" points="1354.5,481.3438,1344.5,485.3438,1354.5,489.3438,1350.5,485.3438" style="stroke:#000000;stroke-width:1.0;"/><line style="stroke:#000000;stroke-width:1.0;" x1="1348.5" x2="2623" y1="485.3438" y2="485.3438"/><text fill="#000000" font-family="Verdana" font-size="13" lengthAdjust="spacing" textLength="144" x="1360.5" y="480.6143">crediti_utente = 2000</text><path d="M15,500.3438 L79,500.3438 L79,508.1431 L69,518.1431 L15,518.1431 L15,500.3438 " fill="#FFFFFF" style="stroke:#000000;stroke-width:1.0;"/><rect fill="none" height="241.7632" style="stroke:#000000;stroke-width:1.0;" width="2669" x="15" y="500.3438"/><text fill="#000000" font-family="Verdana" font-size="13" font-weight="bold" lengthAdjust="spacing" textLength="19" x="30" y="514.4136">alt</text><text fill="#000000" font-family="Verdana" font-size="11" font-weight="bold" lengthAdjust="spacing" textLength="125" x="94" y="513.4028">[Crediti Sufficienti]</text><polygon fill="#000000" points="2612,535.9424,2622,539.9424,2612,543.9424,2616,539.9424" style="stroke:#000000;stroke-width:1.0;"/><line style="stroke:#000000;stroke-width:1.0;" x1="1343.5" x2="2618" y1="539.9424" y2="539.9424"/><text fill="#000000" font-family="Verdana" font-size="13" lengthAdjust="spacing" textLength="139" x="1350.5" y="535.2129">BEGIN TRANSACTION</text><polygon fill="#000000" points="2612,565.7417,2622,569.7417,2612,573.7417,2616,569.7417" style="stroke:#000000;stroke-width:1.0;"/><line style="stroke:#000000;stroke-width:1.0;" x1="1343.5" x2="2618" y1="569.7417" y2="569.7417"/><text fill="#000000" font-family="Verdana" font-size="13" lengthAdjust="spacing" textLength="316" x="1350.5" y="565.0122">UPDATE UserStats SET credits = credits - 1500</text><polygon fill="#000000" points="2008,595.541,2018,599.541,2008,603.541,2012,599.541" style="stroke:#000000;stroke-width:1.0;"/><line style="stroke:#000000;stroke-width:1.0;" x1="1343.5" x2="2014" y1="599.541" y2="599.541"/><text fill="#000000" font-family="Verdana" font-size="13" lengthAdjust="spacing" textLength="275" x="1350.5" y="594.8115">aggiungiAllInventario(user_id, weapon_id)</text><polygon fill="#000000" points="2612,625.3403,2622,629.3403,2612,633.3403,2616,629.3403" style="stroke:#000000;stroke-width:1.0;"/><line style="stroke:#000000;stroke-width:1.0;" x1="2020" x2="2618" y1="629.3403" y2="629.3403"/><text fill="#000000" font-family="Verdana" font-size="13" lengthAdjust="spacing" textLength="580" x="2027" y="624.6108">INSERT INTO UserTankCustomizations (user_id, tank_id=0, weapon_id, slot_position=0)</text><polygon fill="#000000" points="2612,655.1396,2622,659.1396,2612,663.1396,2616,659.1396" style="stroke:#000000;stroke-width:1.0;"/><line style="stroke:#000000;stroke-width:1.0;" x1="1343.5" x2="2618" y1="659.1396" y2="659.1396"/><text fill="#000000" font-family="Verdana" font-size="13" lengthAdjust="spacing" textLength="55" x="1350.5" y="654.4102">COMMIT</text><polygon fill="#000000" points="108.5,684.939,98.5,688.939,108.5,692.939,104.5,688.939" style="stroke:#000000;stroke-width:1.0;"/><line style="stroke:#000000;stroke-width:1.0;" x1="102.5" x2="1342.5" y1="688.939" y2="688.939"/><text fill="#000000" font-family="Verdana" font-size="13" lengthAdjust="spacing" textLength="476" x="114.5" y="684.2095">{successo: true, crediti_rimanenti: 500, messaggio: "Arma acquistata"}</text><line style="stroke:#000000;stroke-width:1.0;stroke-dasharray:2.0,2.0;" x1="15" x2="2684" y1="697.939" y2="697.939"/><text fill="#000000" font-family="Verdana" font-size="11" font-weight="bold" lengthAdjust="spacing" textLength="138" x="20" y="708.998">[Crediti Insufficienti]</text><polygon fill="#000000" points="108.5,730.1069,98.5,734.1069,108.5,738.1069,104.5,734.1069" style="stroke:#000000;stroke-width:1.0;"/><line style="stroke:#000000;stroke-width:1.0;" x1="102.5" x2="1342.5" y1="734.1069" y2="734.1069"/><text fill="#000000" font-family="Verdana" font-size="13" lengthAdjust="spacing" textLength="417" x="114.5" y="729.3774">{errore: "Crediti insufficienti", richiesti: 1500, disponibili: 2000}</text><rect fill="#FFFFFF" height="3" style="stroke:#FFFFFF;stroke-width:1.0;" width="2689" x="5" y="770.0066"/><line style="stroke:#000000;stroke-width:0.5;" x1="5" x2="2694" y1="770.0066" y2="770.0066"/><line style="stroke:#000000;stroke-width:0.5;" x1="5" x2="2694" y1="773.0066" y2="773.0066"/><rect fill="#FFFFFF" height="23.7993" style="stroke:#000000;stroke-width:1.0;" width="245" x="1227" y="759.1069"/><text fill="#000000" font-family="Verdana" font-size="13" font-weight="bold" lengthAdjust="spacing" textLength="227" x="1233" y="776.1768">Visualizza Inventario Giocatore</text><polygon fill="#000000" points="1331.5,810.7056,1341.5,814.7056,1331.5,818.7056,1335.5,814.7056" style="stroke:#000000;stroke-width:1.0;"/><line style="stroke:#000000;stroke-width:1.0;" x1="97.5" x2="1337.5" y1="814.7056" y2="814.7056"/><text fill="#000000" font-family="Verdana" font-size="13" lengthAdjust="spacing" textLength="268" x="104.5" y="809.9761">GET /user-weapons?token=player_token</text><line style="stroke:#000000;stroke-width:1.0;" x1="1343.5" x2="1385.5" y1="844.5049" y2="844.5049"/><line style="stroke:#000000;stroke-width:1.0;" x1="1385.5" x2="1385.5" y1="844.5049" y2="857.5049"/><line style="stroke:#000000;stroke-width:1.0;" x1="1344.5" x2="1385.5" y1="857.5049" y2="857.5049"/><polygon fill="#000000" points="1354.5,853.5049,1344.5,857.5049,1354.5,861.5049,1350.5,857.5049" style="stroke:#000000;stroke-width:1.0;"/><text fill="#000000" font-family="Verdana" font-size="13" lengthAdjust="spacing" textLength="95" x="1350.5" y="839.7754">valida_token()</text><polygon fill="#000000" points="2612,883.3042,2622,887.3042,2612,891.3042,2616,887.3042" style="stroke:#000000;stroke-width:1.0;"/><line style="stroke:#000000;stroke-width:1.0;" x1="1343.5" x2="2618" y1="887.3042" y2="887.3042"/><text fill="#000000" font-family="Verdana" font-size="13" lengthAdjust="spacing" textLength="1031" x="1350.5" y="882.5747">SELECT tw.*, utc.tank_id, utc.slot_position FROM TankWeapons tw LEFT JOIN UserTankCustomizations utc ON tw.id = utc.weapon_id AND utc.user_id = ?</text><polygon fill="#000000" points="1354.5,913.1035,1344.5,917.1035,1354.5,921.1035,1350.5,917.1035" style="stroke:#000000;stroke-width:1.0;"/><line style="stroke:#000000;stroke-width:1.0;" x1="1348.5" x2="2623" y1="917.1035" y2="917.1035"/><text fill="#000000" font-family="Verdana" font-size="13" lengthAdjust="spacing" textLength="100" x="1360.5" y="912.374">inventario_armi</text><polygon fill="#000000" points="108.5,942.9028,98.5,946.9028,108.5,950.9028,104.5,946.9028" style="stroke:#000000;stroke-width:1.0;"/><line style="stroke:#000000;stroke-width:1.0;" x1="102.5" x2="1342.5" y1="946.9028" y2="946.9028"/><text fill="#000000" font-family="Verdana" font-size="13" lengthAdjust="spacing" textLength="1069" x="114.5" y="942.1733">{armi: [{id: 1, name: "Cannone Base", posseduta: true, equipaggiata_su: [1,2]}, {id: 3, name: "Mitragliatrice Pesante", posseduta: true, equipaggiata_su: []}]}</text><rect fill="#FFFFFF" height="3" style="stroke:#FFFFFF;stroke-width:1.0;" width="2689" x="5" y="975.8025"/><line style="stroke:#000000;stroke-width:0.5;" x1="5" x2="2694" y1="975.8025" y2="975.8025"/><line style="stroke:#000000;stroke-width:0.5;" x1="5" x2="2694" y1="978.8025" y2="978.8025"/><rect fill="#FFFFFF" height="23.7993" style="stroke:#000000;stroke-width:1.0;" width="217" x="1241" y="964.9028"/><text fill="#000000" font-family="Verdana" font-size="13" font-weight="bold" lengthAdjust="spacing" textLength="199" x="1247" y="981.9727">Personalizza Loadout Carro</text><polygon fill="#000000" points="1331.5,1016.5015,1341.5,1020.5015,1331.5,1024.5015,1335.5,1020.5015" style="stroke:#000000;stroke-width:1.0;"/><line style="stroke:#000000;stroke-width:1.0;" x1="97.5" x2="1337.5" y1="1020.5015" y2="1020.5015"/><text fill="#000000" font-family="Verdana" font-size="13" lengthAdjust="spacing" textLength="459" x="104.5" y="1015.772">POST /customize {token, tank_id: 1, weapon_id: 3, slot_position: 2}</text><line style="stroke:#000000;stroke-width:1.0;" x1="1343.5" x2="1385.5" y1="1050.3008" y2="1050.3008"/><line style="stroke:#000000;stroke-width:1.0;" x1="1385.5" x2="1385.5" y1="1050.3008" y2="1063.3008"/><line style="stroke:#000000;stroke-width:1.0;" x1="1344.5" x2="1385.5" y1="1063.3008" y2="1063.3008"/><polygon fill="#000000" points="1354.5,1059.3008,1344.5,1063.3008,1354.5,1067.3008,1350.5,1063.3008" style="stroke:#000000;stroke-width:1.0;"/><text fill="#000000" font-family="Verdana" font-size="13" lengthAdjust="spacing" textLength="95" x="1350.5" y="1045.5713">valida_token()</text><path d="M15,1078.3008 L79,1078.3008 L79,1086.1001 L69,1096.1001 L15,1096.1001 L15,1078.3008 " fill="#FFFFFF" style="stroke:#000000;stroke-width:1.0;"/><rect fill="none" height="152.3652" style="stroke:#000000;stroke-width:1.0;" width="2669" x="15" y="1078.3008"/><text fill="#000000" font-family="Verdana" font-size="13" font-weight="bold" lengthAdjust="spacing" textLength="19" x="30" y="1092.3706">alt</text><text fill="#000000" font-family="Verdana" font-size="11" font-weight="bold" lengthAdjust="spacing" textLength="113" x="94" y="1091.3599">[Slot Disponibile]</text><polygon fill="#000000" points="2612,1113.8994,2622,1117.8994,2612,1121.8994,2616,1117.8994" style="stroke:#000000;stroke-width:1.0;"/><line style="stroke:#000000;stroke-width:1.0;" x1="1343.5" x2="2618" y1="1117.8994" y2="1117.8994"/><text fill="#000000" font-family="Verdana" font-size="13" lengthAdjust="spacing" textLength="962" x="1350.5" y="1113.1699">INSERT INTO UserTankCustomizations (user_id, tank_id, weapon_id, slot_position) ON DUPLICATE KEY UPDATE weapon_id = VALUES(weapon_id)</text><polygon fill="#000000" points="108.5,1143.6987,98.5,1147.6987,108.5,1151.6987,104.5,1147.6987" style="stroke:#000000;stroke-width:1.0;"/><line style="stroke:#000000;stroke-width:1.0;" x1="102.5" x2="1342.5" y1="1147.6987" y2="1147.6987"/><text fill="#000000" font-family="Verdana" font-size="13" lengthAdjust="spacing" textLength="413" x="114.5" y="1142.9692">{successo: true, messaggio: "Arma equipaggiata nello slot 2"}</text><line style="stroke:#000000;stroke-width:1.0;stroke-dasharray:2.0,2.0;" x1="15" x2="2684" y1="1156.6987" y2="1156.6987"/><text fill="#000000" font-family="Verdana" font-size="11" font-weight="bold" lengthAdjust="spacing" textLength="101" x="20" y="1167.7578">[Slot Occupato]</text><polygon fill="#000000" points="2612,1188.8667,2622,1192.8667,2612,1196.8667,2616,1192.8667" style="stroke:#000000;stroke-width:1.0;"/><line style="stroke:#000000;stroke-width:1.0;" x1="1343.5" x2="2618" y1="1192.8667" y2="1192.8667"/><text fill="#000000" font-family="Verdana" font-size="13" lengthAdjust="spacing" textLength="735" x="1350.5" y="1188.1372">UPDATE UserTankCustomizations SET weapon_id = ? WHERE user_id = ? AND tank_id = ? AND slot_position = ?</text><polygon fill="#000000" points="108.5,1218.666,98.5,1222.666,108.5,1226.666,104.5,1222.666" style="stroke:#000000;stroke-width:1.0;"/><line style="stroke:#000000;stroke-width:1.0;" x1="102.5" x2="1342.5" y1="1222.666" y2="1222.666"/><text fill="#000000" font-family="Verdana" font-size="13" lengthAdjust="spacing" textLength="391" x="114.5" y="1217.9365">{successo: true, messaggio: "Arma sostituita nello slot 2"}</text><rect fill="#FFFFFF" height="3" style="stroke:#FFFFFF;stroke-width:1.0;" width="2689" x="5" y="1258.5657"/><line style="stroke:#000000;stroke-width:0.5;" x1="5" x2="2694" y1="1258.5657" y2="1258.5657"/><line style="stroke:#000000;stroke-width:0.5;" x1="5" x2="2694" y1="1261.5657" y2="1261.5657"/><rect fill="#FFFFFF" height="23.7993" style="stroke:#000000;stroke-width:1.0;" width="221" x="1239" y="1247.666"/><text fill="#000000" font-family="Verdana" font-size="13" font-weight="bold" lengthAdjust="spacing" textLength="203" x="1245" y="1264.7358">Carica Configurazione Carro</text><polygon fill="#000000" points="1331.5,1299.2646,1341.5,1303.2646,1331.5,1307.2646,1335.5,1303.2646" style="stroke:#000000;stroke-width:1.0;"/><line style="stroke:#000000;stroke-width:1.0;" x1="97.5" x2="1337.5" y1="1303.2646" y2="1303.2646"/><text fill="#000000" font-family="Verdana" font-size="13" lengthAdjust="spacing" textLength="334" x="104.5" y="1298.5352">GET /tank-loadout?token=player_token&amp;tank_id=1</text><line style="stroke:#000000;stroke-width:1.0;" x1="1343.5" x2="1385.5" y1="1333.064" y2="1333.064"/><line style="stroke:#000000;stroke-width:1.0;" x1="1385.5" x2="1385.5" y1="1333.064" y2="1346.064"/><line style="stroke:#000000;stroke-width:1.0;" x1="1344.5" x2="1385.5" y1="1346.064" y2="1346.064"/><polygon fill="#000000" points="1354.5,1342.064,1344.5,1346.064,1354.5,1350.064,1350.5,1346.064" style="stroke:#000000;stroke-width:1.0;"/><text fill="#000000" font-family="Verdana" font-size="13" lengthAdjust="spacing" textLength="95" x="1350.5" y="1328.3345">valida_token()</text><polygon fill="#000000" points="2612,1371.8633,2622,1375.8633,2612,1379.8633,2616,1375.8633" style="stroke:#000000;stroke-width:1.0;"/><line style="stroke:#000000;stroke-width:1.0;" x1="1343.5" x2="2618" y1="1375.8633" y2="1375.8633"/><text fill="#000000" font-family="Verdana" font-size="13" lengthAdjust="spacing" textLength="1240" x="1350.5" y="1371.1338">SELECT utc.slot_position, tw.* FROM UserTankCustomizations utc JOIN TankWeapons tw ON utc.weapon_id = tw.id WHERE utc.user_id = ? AND utc.tank_id = ? AND utc.slot_position &gt; 0</text><polygon fill="#000000" points="1354.5,1401.6626,1344.5,1405.6626,1354.5,1409.6626,1350.5,1405.6626" style="stroke:#000000;stroke-width:1.0;"/><line style="stroke:#000000;stroke-width:1.0;" x1="1348.5" x2="2623" y1="1405.6626" y2="1405.6626"/><text fill="#000000" font-family="Verdana" font-size="13" lengthAdjust="spacing" textLength="91" x="1360.5" y="1400.9331">loadout_carro</text><polygon fill="#000000" points="108.5,1431.4619,98.5,1435.4619,108.5,1439.4619,104.5,1435.4619" style="stroke:#000000;stroke-width:1.0;"/><line style="stroke:#000000;stroke-width:1.0;" x1="102.5" x2="1342.5" y1="1435.4619" y2="1435.4619"/><text fill="#000000" font-family="Verdana" font-size="13" lengthAdjust="spacing" textLength="1222" x="114.5" y="1430.7324">{loadout: [{slot: 1, arma: {id: 1, name: "Cannone Base", type: "cannon", damage: 100}}, {slot: 2, arma: {id: 3, name: "Mitragliatrice Pesante", type: "machine_gun", damage: 40}}]}</text><rect fill="#FFFFFF" height="3" style="stroke:#FFFFFF;stroke-width:1.0;" width="2689" x="5" y="1464.3616"/><line style="stroke:#000000;stroke-width:0.5;" x1="5" x2="2694" y1="1464.3616" y2="1464.3616"/><line style="stroke:#000000;stroke-width:0.5;" x1="5" x2="2694" y1="1467.3616" y2="1467.3616"/><rect fill="#FFFFFF" height="23.7993" style="stroke:#000000;stroke-width:1.0;" width="194" x="1252.5" y="1453.4619"/><text fill="#000000" font-family="Verdana" font-size="13" font-weight="bold" lengthAdjust="spacing" textLength="176" x="1258.5" y="1470.5317">Setup Rapido per Partita</text><polygon fill="#000000" points="1331.5,1505.0605,1341.5,1509.0605,1331.5,1513.0605,1335.5,1509.0605" style="stroke:#000000;stroke-width:1.0;"/><line style="stroke:#000000;stroke-width:1.0;" x1="97.5" x2="1337.5" y1="1509.0605" y2="1509.0605"/><text fill="#000000" font-family="Verdana" font-size="13" lengthAdjust="spacing" textLength="469" x="104.5" y="1504.3311">POST /quick-setup {token, tank_id: 1, match_type: "desert_combat"}</text><line style="stroke:#000000;stroke-width:1.0;" x1="1343.5" x2="1385.5" y1="1538.8599" y2="1538.8599"/><line style="stroke:#000000;stroke-width:1.0;" x1="1385.5" x2="1385.5" y1="1538.8599" y2="1551.8599"/><line style="stroke:#000000;stroke-width:1.0;" x1="1344.5" x2="1385.5" y1="1551.8599" y2="1551.8599"/><polygon fill="#000000" points="1354.5,1547.8599,1344.5,1551.8599,1354.5,1555.8599,1350.5,1551.8599" style="stroke:#000000;stroke-width:1.0;"/><text fill="#000000" font-family="Verdana" font-size="13" lengthAdjust="spacing" textLength="95" x="1350.5" y="1534.1304">valida_token()</text><line style="stroke:#000000;stroke-width:1.0;" x1="1343.5" x2="1385.5" y1="1581.6592" y2="1581.6592"/><line style="stroke:#000000;stroke-width:1.0;" x1="1385.5" x2="1385.5" y1="1581.6592" y2="1594.6592"/><line style="stroke:#000000;stroke-width:1.0;" x1="1344.5" x2="1385.5" y1="1594.6592" y2="1594.6592"/><polygon fill="#000000" points="1354.5,1590.6592,1344.5,1594.6592,1354.5,1598.6592,1350.5,1594.6592" style="stroke:#000000;stroke-width:1.0;"/><text fill="#000000" font-family="Verdana" font-size="13" lengthAdjust="spacing" textLength="371" x="1350.5" y="1576.9297">ottieniLoadoutRaccomandato(tank_id, "desert_combat")</text><polygon fill="#000000" points="2612,1620.4585,2622,1624.4585,2612,1628.4585,2616,1624.4585" style="stroke:#000000;stroke-width:1.0;"/><line style="stroke:#000000;stroke-width:1.0;" x1="1343.5" x2="2618" y1="1624.4585" y2="1624.4585"/><text fill="#000000" font-family="Verdana" font-size="13" lengthAdjust="spacing" textLength="370" x="1350.5" y="1619.729">SELECT recommended weapons based on match type...</text><polygon fill="#000000" points="1354.5,1650.2578,1344.5,1654.2578,1354.5,1658.2578,1350.5,1654.2578" style="stroke:#000000;stroke-width:1.0;"/><line style="stroke:#000000;stroke-width:1.0;" x1="1348.5" x2="2623" y1="1654.2578" y2="1654.2578"/><text fill="#000000" font-family="Verdana" font-size="13" lengthAdjust="spacing" textLength="129" x="1360.5" y="1649.5283">armi_raccomandate</text><line style="stroke:#000000;stroke-width:1.0;" x1="1343.5" x2="1385.5" y1="1684.0571" y2="1684.0571"/><line style="stroke:#000000;stroke-width:1.0;" x1="1385.5" x2="1385.5" y1="1684.0571" y2="1697.0571"/><line style="stroke:#000000;stroke-width:1.0;" x1="1344.5" x2="1385.5" y1="1697.0571" y2="1697.0571"/><polygon fill="#000000" points="1354.5,1693.0571,1344.5,1697.0571,1354.5,1701.0571,1350.5,1697.0571" style="stroke:#000000;stroke-width:1.0;"/><text fill="#000000" font-family="Verdana" font-size="13" lengthAdjust="spacing" textLength="495" x="1350.5" y="1679.3276">applicaConfigurazioneRaccomandata(user_id, tank_id, armi_raccomandate)</text><polygon fill="#000000" points="2612,1722.8564,2622,1726.8564,2612,1730.8564,2616,1726.8564" style="stroke:#000000;stroke-width:1.0;"/><line style="stroke:#000000;stroke-width:1.0;" x1="1343.5" x2="2618" y1="1726.8564" y2="1726.8564"/><text fill="#000000" font-family="Verdana" font-size="13" lengthAdjust="spacing" textLength="735" x="1350.5" y="1722.127">UPDATE UserTankCustomizations SET weapon_id = ? WHERE user_id = ? AND tank_id = ? AND slot_position = ?</text><polygon fill="#000000" points="108.5,1752.6558,98.5,1756.6558,108.5,1760.6558,104.5,1756.6558" style="stroke:#000000;stroke-width:1.0;"/><line style="stroke:#000000;stroke-width:1.0;" x1="102.5" x2="1342.5" y1="1756.6558" y2="1756.6558"/><text fill="#000000" font-family="Verdana" font-size="13" lengthAdjust="spacing" textLength="1102" x="114.5" y="1751.9263">{successo: true, configurazione: "Loadout Combattimento Desertico", armi_equipaggiate: ["Cannone Lungo Raggio", "Cannone Anti-Fanteria", "Lanciatore Fumogeni"]}</text><!--SRC=[lLRVR-8u47xFNp77mwbTGG_QsnSajeAGzhYZW0YzrMfLeMdYKgj9d8sTLct5_tvZ9uG4GhVTX-Cbs1xFZszcFizlwfw53E80UMHPYgk0WSkIH_x21SnO8aM40NzvGLf736nC4Wuj679S9HY623ud-HyfYrxGic9C5FTuZ962XXrmHjzBBZnK8c4DG0apkohKdutspHX9VG9LuSAn2Li9-XevrpqWD8eUoJuckTneHsw82czHPiQ60ylgzU1VBjFC3-Wd8QSmPImYVii33hsUDREXzKKxreLBPm5_F36aOsbfL-bWEEY2wumTUm6Vu68-lO85HWzVCo6OpeVE70RV84wunw3lsjPmKEWBk5IuH3AwqJQpk_3zbVjTw3GXmf1r2LAC8fs6WVQx2UevrhkUsQMrZo6kQAVJRZSpCrrehvjmSd9oO-BhUpzIRKX7XpiHpQOkXNIRFhUoiE1LYGSMDI5RBhKdP-kDT-RA8s7buzB87Hs_3uQlVpbp1xWFFJWh0-2ZuZf-XDSys2kk4bm579K1RCOavKs7dKVM-TnkhskCUWdpkPAPwMl94bUXsXXEQRqqri_BrhCxV9agAXb6fwVjTjkoC51WPqVWfdTtL3nqpYsWNydmmBaSJM0nxq_SlhqOJIUx0jUpON_Xb9nndQsVlU9VoyHKlZnoku2h5K-Z5Uy7mRQaZ_90IkavDXT7xiReQE8wymLz5bDZMMV1JgKI8NyXi7KojbeK7TAVNhkai0ao46eP2ycrUAzzl1kNFRsw6YtAkxfgNsNgUKnAqGMLfAnPe9lm42CDO1S-wn8DIKX7Hu8DKv6OrwV2njfYWMG5-gD8rkDl3B8a8OBH3PAByx8ubGnLp3rdKblk6DF-jhEx9jbaB_9tIM2BzvR6weX0mvYtZJmtxT0ZHdqcRCtYOqsZdau-DI5LtacUb6nHoSL-Nwad63iN2_XxIgLu8Dsa1gOJRS1qWDPQ91lwaw7PET0Xl81YZwLUzSPFoOfSbynF5MwgWbuDec9AFwLxALDIq6cUtX1T6JrdXPx3FF1pZJVhcxL9QlcDWR50NwJAl6QYbWQz73XMi62U2nDWcH5tceIAwKsED9JYqetIsy9ss-fNElTmtnxhd0-lP-EHhKde7-VRXe-soQUgxu-l7VTeXqtUwkgzxYt33n4B0c4SWTDDCvkufvwNnjH9Rt1aJRoQCClkdk_pkQdW78rYNUqQNTCV3aiAuWsLyfgWSiQWEk8UWYsYExvAazAi9EhOGllO2h8Qh66BtpTStFaOR-oHHDDGoVOTFC08XZ5sg8GgfieElPmrSjIhF55mnoxw-xpr1TgLiIT3OUbfh2gSafzeMj4QJD_fyQ0BlpmJhJMtPCfEAyhUmJMvsX3f7OdOSfMMTVz9gdEUSPbAOvXZp7q1CKjWfcTELJziKRzu3orfhjJnJ8ZAkr_cfdr6W1DI8hn5rNZF86QEX5Bq2FASykReaGACQDeIHmLpxEYkAww4qM581S_yl0ybwEdP1qggyTD0H9DcERtwOLWcMvkiuXh6SK1zKssRaeTOGt9x6YlE_bySykQmKmc74bUyDWPTnGb59M1e8EUUQEH1bTYJRdqlwdfCiv-WYjAKHBB5VfycczQ5Bi-4epuOO-JnR4IvI4Enegmtg2h_0m00]--></g></svg>