<?xml version="1.0" encoding="us-ascii" standalone="no"?><svg xmlns="http://www.w3.org/2000/svg" xmlns:xlink="http://www.w3.org/1999/xlink" contentStyleType="text/css" height="1712px" preserveAspectRatio="none" style="width:3636px;height:1712px;background:#FFFFFF;" version="1.1" viewBox="0 0 3636 1712" width="3636px" zoomAndPan="magnify"><defs/><g><text fill="#000000" font-family="Verdana" font-size="22" font-weight="bold" lengthAdjust="spacing" textLength="982" x="1322.75" y="37.1182">Sistema di Gestione Utenti - Diagramma di Comunicazione (Processo di Login)</text><!--class UC--><g id="elem_UC"><rect codeLine="12" fill="#ADD8E6" height="44" id="UC" rx="2.5" ry="2.5" style="stroke:#000000;stroke-width:1.0;" width="200" x="389" y="696.7973"/><ellipse cx="443.25" cy="710.7973" fill="#FFFFFF" rx="9" ry="9" style="stroke:#000000;stroke-width:1.0;"/><path d="M446.0156,706.6723 Q446.1719,706.4536 446.3594,706.3442 Q446.5469,706.2348 446.7656,706.2348 Q447.1406,706.2348 447.375,706.5004 Q447.6094,706.7504 447.6094,707.3598 L447.6094,708.8129 Q447.6094,709.4223 447.375,709.6879 Q447.1406,709.9536 446.7656,709.9536 Q446.4219,709.9536 446.2188,709.7504 Q446.0156,709.5629 445.9063,709.0473 Q445.8594,708.6879 445.6719,708.5004 Q445.3438,708.1254 444.7344,707.9067 Q444.125,707.6879 443.5,707.6879 Q442.7344,707.6879 442.0938,708.0161 Q441.4688,708.3442 440.9688,709.0942 Q440.4844,709.8442 440.4844,710.8754 L440.4844,711.9692 Q440.4844,713.2036 441.375,714.0317 Q442.2656,714.8442 443.8594,714.8442 Q444.7969,714.8442 445.4531,714.5942 Q445.8438,714.4379 446.2656,714.0004 Q446.5313,713.7348 446.6719,713.6567 Q446.8281,713.5786 447.0313,713.5786 Q447.3594,713.5786 447.6094,713.8442 Q447.875,714.0942 447.875,714.4379 Q447.875,714.7817 447.5313,715.1879 Q447.0313,715.7661 446.2344,716.0942 Q445.1563,716.5473 443.8594,716.5473 Q442.3438,716.5473 441.1406,715.9223 Q440.1563,715.4223 439.4688,714.3598 Q438.7813,713.2817 438.7813,712.0004 L438.7813,710.8442 Q438.7813,709.5161 439.3906,708.3754 Q440.0156,707.2192 441.1094,706.6098 Q442.2031,705.9848 443.4375,705.9848 Q444.1719,705.9848 444.8125,706.1567 Q445.4688,706.3129 446.0156,706.6723 Z " fill="#000000"/><text fill="#000000" font-family="Verdana" font-size="12" lengthAdjust="spacing" textLength="84" x="460.75" y="715.5698">:ClientUtente</text><line style="stroke:#000000;stroke-width:1.0;" x1="390" x2="588" y1="724.7973" y2="724.7973"/><line style="stroke:#000000;stroke-width:1.0;" x1="390" x2="588" y1="732.7973" y2="732.7973"/></g><!--class LC--><g id="elem_LC"><rect codeLine="13" fill="#D3D3D3" height="44" id="LC" rx="2.5" ry="2.5" style="stroke:#000000;stroke-width:1.0;" width="200" x="927" y="696.7973"/><ellipse cx="972.75" cy="710.7973" fill="#FFFFFF" rx="9" ry="9" style="stroke:#000000;stroke-width:1.0;"/><path d="M975.5156,706.6723 Q975.6719,706.4536 975.8594,706.3442 Q976.0469,706.2348 976.2656,706.2348 Q976.6406,706.2348 976.875,706.5004 Q977.1094,706.7504 977.1094,707.3598 L977.1094,708.8129 Q977.1094,709.4223 976.875,709.6879 Q976.6406,709.9536 976.2656,709.9536 Q975.9219,709.9536 975.7188,709.7504 Q975.5156,709.5629 975.4063,709.0473 Q975.3594,708.6879 975.1719,708.5004 Q974.8438,708.1254 974.2344,707.9067 Q973.625,707.6879 973,707.6879 Q972.2344,707.6879 971.5938,708.0161 Q970.9688,708.3442 970.4688,709.0942 Q969.9844,709.8442 969.9844,710.8754 L969.9844,711.9692 Q969.9844,713.2036 970.875,714.0317 Q971.7656,714.8442 973.3594,714.8442 Q974.2969,714.8442 974.9531,714.5942 Q975.3438,714.4379 975.7656,714.0004 Q976.0313,713.7348 976.1719,713.6567 Q976.3281,713.5786 976.5313,713.5786 Q976.8594,713.5786 977.1094,713.8442 Q977.375,714.0942 977.375,714.4379 Q977.375,714.7817 977.0313,715.1879 Q976.5313,715.7661 975.7344,716.0942 Q974.6563,716.5473 973.3594,716.5473 Q971.8438,716.5473 970.6406,715.9223 Q969.6563,715.4223 968.9688,714.3598 Q968.2813,713.2817 968.2813,712.0004 L968.2813,710.8442 Q968.2813,709.5161 968.8906,708.3754 Q969.5156,707.2192 970.6094,706.6098 Q971.7031,705.9848 972.9375,705.9848 Q973.6719,705.9848 974.3125,706.1567 Q974.9688,706.3129 975.5156,706.6723 Z " fill="#000000"/><text fill="#000000" font-family="Verdana" font-size="12" lengthAdjust="spacing" textLength="101" x="990.25" y="715.5698">:ControllerLogin</text><line style="stroke:#000000;stroke-width:1.0;" x1="928" x2="1126" y1="724.7973" y2="724.7973"/><line style="stroke:#000000;stroke-width:1.0;" x1="928" x2="1126" y1="732.7973" y2="732.7973"/></g><!--class AS--><g id="elem_AS"><rect codeLine="14" fill="#90EE90" height="44" id="AS" rx="2.5" ry="2.5" style="stroke:#000000;stroke-width:1.0;" width="200" x="1463" y="696.7973"/><ellipse cx="1487.25" cy="710.7973" fill="#FFFFFF" rx="9" ry="9" style="stroke:#000000;stroke-width:1.0;"/><path d="M1490.0156,706.6723 Q1490.1719,706.4536 1490.3594,706.3442 Q1490.5469,706.2348 1490.7656,706.2348 Q1491.1406,706.2348 1491.375,706.5004 Q1491.6094,706.7504 1491.6094,707.3598 L1491.6094,708.8129 Q1491.6094,709.4223 1491.375,709.6879 Q1491.1406,709.9536 1490.7656,709.9536 Q1490.4219,709.9536 1490.2188,709.7504 Q1490.0156,709.5629 1489.9063,709.0473 Q1489.8594,708.6879 1489.6719,708.5004 Q1489.3438,708.1254 1488.7344,707.9067 Q1488.125,707.6879 1487.5,707.6879 Q1486.7344,707.6879 1486.0938,708.0161 Q1485.4688,708.3442 1484.9688,709.0942 Q1484.4844,709.8442 1484.4844,710.8754 L1484.4844,711.9692 Q1484.4844,713.2036 1485.375,714.0317 Q1486.2656,714.8442 1487.8594,714.8442 Q1488.7969,714.8442 1489.4531,714.5942 Q1489.8438,714.4379 1490.2656,714.0004 Q1490.5313,713.7348 1490.6719,713.6567 Q1490.8281,713.5786 1491.0313,713.5786 Q1491.3594,713.5786 1491.6094,713.8442 Q1491.875,714.0942 1491.875,714.4379 Q1491.875,714.7817 1491.5313,715.1879 Q1491.0313,715.7661 1490.2344,716.0942 Q1489.1563,716.5473 1487.8594,716.5473 Q1486.3438,716.5473 1485.1406,715.9223 Q1484.1563,715.4223 1483.4688,714.3598 Q1482.7813,713.2817 1482.7813,712.0004 L1482.7813,710.8442 Q1482.7813,709.5161 1483.3906,708.3754 Q1484.0156,707.2192 1485.1094,706.6098 Q1486.2031,705.9848 1487.4375,705.9848 Q1488.1719,705.9848 1488.8125,706.1567 Q1489.4688,706.3129 1490.0156,706.6723 Z " fill="#000000"/><text fill="#000000" font-family="Verdana" font-size="12" lengthAdjust="spacing" textLength="147" x="1501.75" y="715.5698">:ServizioAutenticazione</text><line style="stroke:#000000;stroke-width:1.0;" x1="1464" x2="1662" y1="724.7973" y2="724.7973"/><line style="stroke:#000000;stroke-width:1.0;" x1="1464" x2="1662" y1="732.7973" y2="732.7973"/></g><!--class UR--><g id="elem_UR"><rect codeLine="15" fill="#E0FFFF" height="44" id="UR" rx="2.5" ry="2.5" style="stroke:#000000;stroke-width:1.0;" width="200" x="3108" y="696.7973"/><ellipse cx="3146.75" cy="710.7973" fill="#FFFFFF" rx="9" ry="9" style="stroke:#000000;stroke-width:1.0;"/><path d="M3149.5156,706.6723 Q3149.6719,706.4536 3149.8594,706.3442 Q3150.0469,706.2348 3150.2656,706.2348 Q3150.6406,706.2348 3150.875,706.5004 Q3151.1094,706.7504 3151.1094,707.3598 L3151.1094,708.8129 Q3151.1094,709.4223 3150.875,709.6879 Q3150.6406,709.9536 3150.2656,709.9536 Q3149.9219,709.9536 3149.7188,709.7504 Q3149.5156,709.5629 3149.4063,709.0473 Q3149.3594,708.6879 3149.1719,708.5004 Q3148.8438,708.1254 3148.2344,707.9067 Q3147.625,707.6879 3147,707.6879 Q3146.2344,707.6879 3145.5938,708.0161 Q3144.9688,708.3442 3144.4688,709.0942 Q3143.9844,709.8442 3143.9844,710.8754 L3143.9844,711.9692 Q3143.9844,713.2036 3144.875,714.0317 Q3145.7656,714.8442 3147.3594,714.8442 Q3148.2969,714.8442 3148.9531,714.5942 Q3149.3438,714.4379 3149.7656,714.0004 Q3150.0313,713.7348 3150.1719,713.6567 Q3150.3281,713.5786 3150.5313,713.5786 Q3150.8594,713.5786 3151.1094,713.8442 Q3151.375,714.0942 3151.375,714.4379 Q3151.375,714.7817 3151.0313,715.1879 Q3150.5313,715.7661 3149.7344,716.0942 Q3148.6563,716.5473 3147.3594,716.5473 Q3145.8438,716.5473 3144.6406,715.9223 Q3143.6563,715.4223 3142.9688,714.3598 Q3142.2813,713.2817 3142.2813,712.0004 L3142.2813,710.8442 Q3142.2813,709.5161 3142.8906,708.3754 Q3143.5156,707.2192 3144.6094,706.6098 Q3145.7031,705.9848 3146.9375,705.9848 Q3147.6719,705.9848 3148.3125,706.1567 Q3148.9688,706.3129 3149.5156,706.6723 Z " fill="#000000"/><text fill="#000000" font-family="Verdana" font-size="12" lengthAdjust="spacing" textLength="115" x="3164.25" y="715.5698">:RepositoryUtente</text><line style="stroke:#000000;stroke-width:1.0;" x1="3109" x2="3307" y1="724.7973" y2="724.7973"/><line style="stroke:#000000;stroke-width:1.0;" x1="3109" x2="3307" y1="732.7973" y2="732.7973"/></g><!--class SM--><g id="elem_SM"><rect codeLine="16" fill="#FFFF00" height="44" id="SM" rx="2.5" ry="2.5" style="stroke:#000000;stroke-width:1.0;" width="200" x="2075" y="696.7973"/><ellipse cx="2115.25" cy="710.7973" fill="#FFFFFF" rx="9" ry="9" style="stroke:#000000;stroke-width:1.0;"/><path d="M2118.0156,706.6723 Q2118.1719,706.4536 2118.3594,706.3442 Q2118.5469,706.2348 2118.7656,706.2348 Q2119.1406,706.2348 2119.375,706.5004 Q2119.6094,706.7504 2119.6094,707.3598 L2119.6094,708.8129 Q2119.6094,709.4223 2119.375,709.6879 Q2119.1406,709.9536 2118.7656,709.9536 Q2118.4219,709.9536 2118.2188,709.7504 Q2118.0156,709.5629 2117.9063,709.0473 Q2117.8594,708.6879 2117.6719,708.5004 Q2117.3438,708.1254 2116.7344,707.9067 Q2116.125,707.6879 2115.5,707.6879 Q2114.7344,707.6879 2114.0938,708.0161 Q2113.4688,708.3442 2112.9688,709.0942 Q2112.4844,709.8442 2112.4844,710.8754 L2112.4844,711.9692 Q2112.4844,713.2036 2113.375,714.0317 Q2114.2656,714.8442 2115.8594,714.8442 Q2116.7969,714.8442 2117.4531,714.5942 Q2117.8438,714.4379 2118.2656,714.0004 Q2118.5313,713.7348 2118.6719,713.6567 Q2118.8281,713.5786 2119.0313,713.5786 Q2119.3594,713.5786 2119.6094,713.8442 Q2119.875,714.0942 2119.875,714.4379 Q2119.875,714.7817 2119.5313,715.1879 Q2119.0313,715.7661 2118.2344,716.0942 Q2117.1563,716.5473 2115.8594,716.5473 Q2114.3438,716.5473 2113.1406,715.9223 Q2112.1563,715.4223 2111.4688,714.3598 Q2110.7813,713.2817 2110.7813,712.0004 L2110.7813,710.8442 Q2110.7813,709.5161 2111.3906,708.3754 Q2112.0156,707.2192 2113.1094,706.6098 Q2114.2031,705.9848 2115.4375,705.9848 Q2116.1719,705.9848 2116.8125,706.1567 Q2117.4688,706.3129 2118.0156,706.6723 Z " fill="#000000"/><text fill="#000000" font-family="Verdana" font-size="12" lengthAdjust="spacing" textLength="112" x="2132.75" y="715.5698">:GestoreSessione</text><line style="stroke:#000000;stroke-width:1.0;" x1="2076" x2="2274" y1="724.7973" y2="724.7973"/><line style="stroke:#000000;stroke-width:1.0;" x1="2076" x2="2274" y1="732.7973" y2="732.7973"/></g><!--class DB--><g id="elem_DB"><rect codeLine="17" fill="#F08080" height="44" id="DB" rx="2.5" ry="2.5" style="stroke:#000000;stroke-width:1.0;" width="200" x="2726" y="696.7973"/><ellipse cx="2789.25" cy="710.7973" fill="#FFFFFF" rx="9" ry="9" style="stroke:#000000;stroke-width:1.0;"/><path d="M2792.0156,706.6723 Q2792.1719,706.4536 2792.3594,706.3442 Q2792.5469,706.2348 2792.7656,706.2348 Q2793.1406,706.2348 2793.375,706.5004 Q2793.6094,706.7504 2793.6094,707.3598 L2793.6094,708.8129 Q2793.6094,709.4223 2793.375,709.6879 Q2793.1406,709.9536 2792.7656,709.9536 Q2792.4219,709.9536 2792.2188,709.7504 Q2792.0156,709.5629 2791.9063,709.0473 Q2791.8594,708.6879 2791.6719,708.5004 Q2791.3438,708.1254 2790.7344,707.9067 Q2790.125,707.6879 2789.5,707.6879 Q2788.7344,707.6879 2788.0938,708.0161 Q2787.4688,708.3442 2786.9688,709.0942 Q2786.4844,709.8442 2786.4844,710.8754 L2786.4844,711.9692 Q2786.4844,713.2036 2787.375,714.0317 Q2788.2656,714.8442 2789.8594,714.8442 Q2790.7969,714.8442 2791.4531,714.5942 Q2791.8438,714.4379 2792.2656,714.0004 Q2792.5313,713.7348 2792.6719,713.6567 Q2792.8281,713.5786 2793.0313,713.5786 Q2793.3594,713.5786 2793.6094,713.8442 Q2793.875,714.0942 2793.875,714.4379 Q2793.875,714.7817 2793.5313,715.1879 Q2793.0313,715.7661 2792.2344,716.0942 Q2791.1563,716.5473 2789.8594,716.5473 Q2788.3438,716.5473 2787.1406,715.9223 Q2786.1563,715.4223 2785.4688,714.3598 Q2784.7813,713.2817 2784.7813,712.0004 L2784.7813,710.8442 Q2784.7813,709.5161 2785.3906,708.3754 Q2786.0156,707.2192 2787.1094,706.6098 Q2788.2031,705.9848 2789.4375,705.9848 Q2790.1719,705.9848 2790.8125,706.1567 Q2791.4688,706.3129 2792.0156,706.6723 Z " fill="#000000"/><text fill="#000000" font-family="Verdana" font-size="12" lengthAdjust="spacing" textLength="66" x="2806.75" y="715.5698">:Database</text><line style="stroke:#000000;stroke-width:1.0;" x1="2727" x2="2925" y1="724.7973" y2="724.7973"/><line style="stroke:#000000;stroke-width:1.0;" x1="2727" x2="2925" y1="732.7973" y2="732.7973"/></g><g id="elem_GMN24"><path d="M11,666.2973 L11,771.0932 A0,0 0 0 0 11,771.0932 L289,771.0932 A0,0 0 0 0 289,771.0932 L289,722.7973 L388.63,718.7973 L289,714.7973 L289,676.2973 L279,666.2973 L11,666.2973 A0,0 0 0 0 11,666.2973 " fill="#FFFFFF" style="stroke:#000000;stroke-width:1.0;"/><path d="M279,666.2973 L279,676.2973 L289,676.2973 L279,666.2973 " fill="#FFFFFF" style="stroke:#000000;stroke-width:1.0;"/><text fill="#000000" font-family="Verdana" font-size="13" font-weight="bold" lengthAdjust="spacing" textLength="182" x="17" y="684.3671">Flusso di Autenticazione:</text><text fill="#000000" font-family="Verdana" font-size="13" lengthAdjust="spacing" textLength="177" x="17" y="700.1664">1-2: Richiesta login utente</text><text fill="#000000" font-family="Verdana" font-size="13" lengthAdjust="spacing" textLength="221" x="17" y="715.9658">3-6: Ricerca e validazione utente</text><text fill="#000000" font-family="Verdana" font-size="13" lengthAdjust="spacing" textLength="135" x="17" y="731.7651">7: Verifica password</text><text fill="#000000" font-family="Verdana" font-size="13" lengthAdjust="spacing" textLength="257" x="17" y="747.5644">8-14: Generazione e salvataggio token</text><text fill="#000000" font-family="Verdana" font-size="13" lengthAdjust="spacing" textLength="209" x="17" y="763.3637">15-16: Risposta con token JWT</text></g><g id="elem_GMN27"><path d="M3408.5,682.2973 L3408.5,755.4946 L3629.5,755.4946 L3629.5,692.2973 L3619.5,682.2973 L3408.5,682.2973 " fill="#FFFFFF" style="stroke:#000000;stroke-width:1.0;"/><path d="M3619.5,682.2973 L3619.5,692.2973 L3629.5,692.2973 L3619.5,682.2973 " fill="#FFFFFF" style="stroke:#000000;stroke-width:1.0;"/><text fill="#000000" font-family="Verdana" font-size="13" font-weight="bold" lengthAdjust="spacing" textLength="116" x="3414.5" y="700.3671">Gestione Token:</text><text fill="#000000" font-family="Verdana" font-size="13" lengthAdjust="spacing" textLength="129" x="3414.5" y="716.1664">- Token JWT sicuro</text><text fill="#000000" font-family="Verdana" font-size="13" lengthAdjust="spacing" textLength="115" x="3414.5" y="731.9658">- Scadenza 1 ora</text><text fill="#000000" font-family="Verdana" font-size="13" lengthAdjust="spacing" textLength="143" x="3414.5" y="747.7651">- Cleanup automatico</text></g><g id="elem_GMN30"><path d="M2715.5,1632.2973 L2715.5,1705.4946 A0,0 0 0 0 2715.5,1705.4946 L2936.5,1705.4946 A0,0 0 0 0 2936.5,1705.4946 L2936.5,1642.2973 L2926.5,1632.2973 L2830,1632.2973 L2826,740.9273 L2822,1632.2973 L2715.5,1632.2973 A0,0 0 0 0 2715.5,1632.2973 " fill="#FFFFFF" style="stroke:#000000;stroke-width:1.0;"/><path d="M2926.5,1632.2973 L2926.5,1642.2973 L2936.5,1642.2973 L2926.5,1632.2973 " fill="#FFFFFF" style="stroke:#000000;stroke-width:1.0;"/><text fill="#000000" font-family="Verdana" font-size="13" font-weight="bold" lengthAdjust="spacing" textLength="158" x="2721.5" y="1650.3671">Database Operations:</text><text fill="#000000" font-family="Verdana" font-size="13" lengthAdjust="spacing" textLength="194" x="2721.5" y="1666.1664">- Query utente per username</text><text fill="#000000" font-family="Verdana" font-size="13" lengthAdjust="spacing" textLength="150" x="2721.5" y="1681.9658">- Gestione token attivi</text><text fill="#000000" font-family="Verdana" font-size="13" lengthAdjust="spacing" textLength="164" x="2721.5" y="1697.7651">- Operazioni CRUD sicure</text></g><!--link UC to LC--><g id="link_UC_LC"><path codeLine="19" d="M589.31,730.7573 C614.47,733.2673 641.44,735.5273 666.5,736.7973 C747.73,740.9073 768.27,740.9073 849.5,736.7973 C874.56,735.5273 895.5596,733.8629 920.7196,731.3529 " fill="none" id="UC-to-LC" style="stroke:#000000;stroke-width:1.0;"/><polygon fill="#000000" points="926.69,730.7573,917.3374,727.6705,921.7147,731.2536,918.1315,735.631,926.69,730.7573" style="stroke:#000000;stroke-width:1.0;"/><text fill="#000000" font-family="Verdana" font-size="11" font-weight="bold" lengthAdjust="spacing" textLength="12" x="667.5" y="733.8564">1:</text><text fill="#000000" font-family="Verdana" font-size="11" lengthAdjust="spacing" textLength="165" x="683.5" y="733.8564">accedi(username, password)</text></g><!--link LC to UC--><g id="link_LC_UC"><path codeLine="34" d="M926.81,718.7973 C830.46,718.7973 691.62,718.7973 595.25,718.7973 " fill="none" id="LC-to-UC" style="stroke:#000000;stroke-width:1.0;"/><polygon fill="#000000" points="589.25,718.7973,598.25,722.7973,594.25,718.7973,598.25,714.7973,589.25,718.7973" style="stroke:#000000;stroke-width:1.0;"/><text fill="#000000" font-family="Verdana" font-size="11" font-weight="bold" lengthAdjust="spacing" textLength="20" x="640" y="712.8564">16:</text><text fill="#000000" font-family="Verdana" font-size="11" lengthAdjust="spacing" textLength="212" x="664" y="712.8564">{successo: true, token: "jwt_token"}</text></g><!--link LC to AS--><g id="link_LC_AS"><path codeLine="20" d="M1127.19,718.7973 C1223.09,718.7973 1360.96,718.7973 1456.85,718.7973 " fill="none" id="LC-to-AS" style="stroke:#000000;stroke-width:1.0;"/><polygon fill="#000000" points="1462.85,718.7973,1453.85,714.7973,1457.85,718.7973,1453.85,722.7973,1462.85,718.7973" style="stroke:#000000;stroke-width:1.0;"/><text fill="#000000" font-family="Verdana" font-size="11" font-weight="bold" lengthAdjust="spacing" textLength="12" x="1178" y="712.8564">2:</text><text fill="#000000" font-family="Verdana" font-size="11" lengthAdjust="spacing" textLength="218" x="1194" y="712.8564">autenticaUtente(username, password)</text></g><!--link AS to LC--><g id="link_AS_LC"><path codeLine="33" d="M1462.9,730.1973 C1434.68,732.9173 1403.92,735.4373 1375.5,736.7973 C1304.03,740.2173 1285.97,740.2173 1214.5,736.7973 C1186.08,735.4373 1161.2923,733.493 1133.0723,730.773 " fill="none" id="AS-to-LC" style="stroke:#000000;stroke-width:1.0;"/><polygon fill="#000000" points="1127.1,730.1973,1135.6747,735.0423,1132.0769,730.677,1136.4422,727.0792,1127.1,730.1973" style="stroke:#000000;stroke-width:1.0;"/><text fill="#000000" font-family="Verdana" font-size="11" font-weight="bold" lengthAdjust="spacing" textLength="20" x="1215.5" y="733.8564">15:</text><text fill="#000000" font-family="Verdana" font-size="11" lengthAdjust="spacing" textLength="135" x="1239.5" y="733.8564">risultato_autenticazione</text></g><!--link AS to UR--><g id="link_AS_UR"><path codeLine="21" d="M1587.2,696.6573 C1716.79,580.8873 2340.6,58.7373 2822,277.2973 C3022.48,368.3173 3157.0237,615.2223 3194.8037,691.3823 " fill="none" id="AS-to-UR" style="stroke:#000000;stroke-width:1.0;"/><polygon fill="#000000" points="3197.47,696.7573,3197.0538,686.9172,3195.2481,692.2781,3189.8872,690.4723,3197.47,696.7573" style="stroke:#000000;stroke-width:1.0;"/><text fill="#000000" font-family="Verdana" font-size="11" lengthAdjust="spacing" textLength="4" x="2722" y="206.3564">&#160;</text><text fill="#000000" font-family="Verdana" font-size="11" lengthAdjust="spacing" textLength="4" x="2722" y="219.725">&#160;</text><text fill="#000000" font-family="Verdana" font-size="11" lengthAdjust="spacing" textLength="4" x="2627" y="233.0937">&#160;</text><text fill="#000000" font-family="Verdana" font-size="11" font-weight="bold" lengthAdjust="spacing" textLength="12" x="2631" y="233.0937">3:</text><text fill="#000000" font-family="Verdana" font-size="11" lengthAdjust="spacing" textLength="174" x="2647" y="233.0937">trovaPerUsername(username)</text></g><!--link UR to AS--><g id="link_UR_AS"><path codeLine="24" d="M3197.47,696.7573 C3159.69,620.5973 3022.48,368.3173 2822,277.2973 C2340.6,58.7373 1721.2645,576.89 1591.6745,692.66 " fill="none" id="UR-to-AS" style="stroke:#000000;stroke-width:1.0;"/><polygon fill="#000000" points="1587.2,696.6573,1596.5767,693.6443,1590.9288,693.3262,1591.2469,687.6783,1587.2,696.6573" style="stroke:#000000;stroke-width:1.0;"/><text fill="#000000" font-family="Verdana" font-size="11" font-weight="bold" lengthAdjust="spacing" textLength="12" x="2674" y="219.8564">6:</text><text fill="#000000" font-family="Verdana" font-size="11" lengthAdjust="spacing" textLength="84" x="2690" y="219.8564">oggetto Utente</text></g><!--link UR to DB--><g id="link_UR_DB"><path codeLine="22" d="M3107.97,718.7973 C3051.99,718.7973 2988.4,718.7973 2932.37,718.7973 " fill="none" id="UR-to-DB" style="stroke:#000000;stroke-width:1.0;"/><polygon fill="#000000" points="2926.37,718.7973,2935.37,722.7973,2931.37,718.7973,2935.37,714.7973,2926.37,718.7973" style="stroke:#000000;stroke-width:1.0;"/><text fill="#000000" font-family="Verdana" font-size="11" font-weight="bold" lengthAdjust="spacing" textLength="12" x="2881" y="712.8564">4:</text><text fill="#000000" font-family="Verdana" font-size="11" lengthAdjust="spacing" textLength="256" x="2897" y="712.8564">SELECT * FROM Users WHERE username = ?</text></g><!--link DB to UR--><g id="link_DB_UR"><path codeLine="23" d="M2926.3,732.5173 C2942.88,734.2973 2959.9,735.8373 2976,736.7973 C3012.38,738.9673 3021.62,738.9673 3058,736.7973 C3074.1,735.8373 3085.1543,734.9378 3101.7343,733.1578 " fill="none" id="DB-to-UR" style="stroke:#000000;stroke-width:1.0;"/><polygon fill="#000000" points="3107.7,732.5173,3098.3244,729.5009,3102.7286,733.051,3099.1784,737.4552,3107.7,732.5173" style="stroke:#000000;stroke-width:1.0;"/><text fill="#000000" font-family="Verdana" font-size="11" font-weight="bold" lengthAdjust="spacing" textLength="12" x="2977" y="733.8564">5:</text><text fill="#000000" font-family="Verdana" font-size="11" lengthAdjust="spacing" textLength="64" x="2993" y="733.8564">dati_utente</text></g><!--link AS to AS--><g id="link_AS_AS"><path codeLine="25" d="M1576.89,696.6873 C1646.54,598.8173 1763,606.1773 1763,718.7973 C1763,831.4173 1650.0189,843.6658 1580.3689,745.7958 " fill="none" id="AS-to-AS" style="stroke:#000000;stroke-width:1.0;"/><polygon fill="#000000" points="1576.89,740.9073,1578.8494,750.5593,1579.7891,744.981,1585.3674,745.9207,1576.89,740.9073" style="stroke:#000000;stroke-width:1.0;"/><text fill="#000000" font-family="Verdana" font-size="11" font-weight="bold" lengthAdjust="spacing" textLength="12" x="1769" y="723.3564">7:</text><text fill="#000000" font-family="Verdana" font-size="11" lengthAdjust="spacing" textLength="113" x="1785" y="723.3564">verifica_password()</text></g><!--link AS to SM--><g id="link_AS_SM"><path codeLine="26" d="M1663.03,718.7973 C1776.74,718.7973 1955.26,718.7973 2068.96,718.7973 " fill="none" id="AS-to-SM" style="stroke:#000000;stroke-width:1.0;"/><polygon fill="#000000" points="2074.96,718.7973,2065.96,714.7973,2069.96,718.7973,2065.96,722.7973,2074.96,718.7973" style="stroke:#000000;stroke-width:1.0;"/><text fill="#000000" font-family="Verdana" font-size="11" font-weight="bold" lengthAdjust="spacing" textLength="12" x="1793.5" y="712.8564">8:</text><text fill="#000000" font-family="Verdana" font-size="11" lengthAdjust="spacing" textLength="135" x="1809.5" y="712.8564">generaToken(utente.id)</text></g><!--link SM to AS--><g id="link_SM_AS"><path codeLine="32" d="M2074.84,727.5973 C2028.65,731.2373 1973.08,735.0073 1923,736.7973 C1835.13,739.9273 1741.2607,734.6884 1669.0407,728.8784 " fill="none" id="SM-to-AS" style="stroke:#000000;stroke-width:1.0;"/><polygon fill="#000000" points="1663.06,728.3973,1671.7103,733.1061,1668.0439,728.7983,1672.3518,725.1319,1663.06,728.3973" style="stroke:#000000;stroke-width:1.0;"/><text fill="#000000" font-family="Verdana" font-size="11" font-weight="bold" lengthAdjust="spacing" textLength="20" x="1816" y="733.8564">14:</text><text fill="#000000" font-family="Verdana" font-size="11" lengthAdjust="spacing" textLength="82" x="1840" y="733.8564">oggetto Token</text></g><!--link SM to DB--><g id="link_SM_DB"><path codeLine="27" d="M2275.29,718.7973 C2397.72,718.7973 2597.51,718.7973 2719.86,718.7973 " fill="none" id="SM-to-DB" style="stroke:#000000;stroke-width:1.0;"/><polygon fill="#000000" points="2725.86,718.7973,2716.86,714.7973,2720.86,718.7973,2716.86,722.7973,2725.86,718.7973" style="stroke:#000000;stroke-width:1.0;"/><text fill="#000000" font-family="Verdana" font-size="11" font-weight="bold" lengthAdjust="spacing" textLength="12" x="2406" y="712.8564">9:</text><text fill="#000000" font-family="Verdana" font-size="11" lengthAdjust="spacing" textLength="173" x="2422" y="712.8564">eliminaVecchiToken(utente.id)</text></g><!--link DB to SM--><g id="link_DB_SM"><path codeLine="28" d="M2725.94,727.7173 C2680.78,731.3173 2626.75,735.0273 2578,736.7973 C2509.16,739.2973 2491.84,739.2973 2423,736.7973 C2374.25,735.0273 2326.201,731.7941 2281.041,728.1941 " fill="none" id="DB-to-SM" style="stroke:#000000;stroke-width:1.0;"/><polygon fill="#000000" points="2275.06,727.7173,2283.7137,732.4198,2280.0442,728.1146,2284.3494,724.4451,2275.06,727.7173" style="stroke:#000000;stroke-width:1.0;"/><text fill="#000000" font-family="Verdana" font-size="11" font-weight="bold" lengthAdjust="spacing" textLength="20" x="2424" y="733.8564">10:</text><text fill="#000000" font-family="Verdana" font-size="11" lengthAdjust="spacing" textLength="129" x="2448" y="733.8564">conferma eliminazione</text></g><!--link SM to DB--><g id="link_SM_DB"><path codeLine="30" d="M2275.03,738.1673 C2320.06,745.9473 2374.01,753.9673 2423,757.7973 C2491.68,763.1673 2509.32,763.1673 2578,757.7973 C2626.99,753.9673 2675.0276,746.9688 2720.0576,739.1888 " fill="none" id="SM-to-DB-1" style="stroke:#000000;stroke-width:1.0;"/><polygon fill="#000000" points="2725.97,738.1673,2716.4204,735.758,2721.043,739.0186,2717.7824,743.6412,2725.97,738.1673" style="stroke:#000000;stroke-width:1.0;"/><text fill="#000000" font-family="Verdana" font-size="11" font-weight="bold" lengthAdjust="spacing" textLength="20" x="2435" y="754.8564">12:</text><text fill="#000000" font-family="Verdana" font-size="11" lengthAdjust="spacing" textLength="107" x="2459" y="754.8564">salvaToken(token)</text></g><!--link DB to SM--><g id="link_DB_SM"><path codeLine="31" d="M2725.91,709.2573 C2685.59,705.8573 2638.62,702.4673 2596,700.7973 C2511.18,697.4873 2489.82,697.4873 2405,700.7973 C2362.38,702.4673 2321.3888,705.3531 2281.0688,708.7531 " fill="none" id="DB-to-SM-1" style="stroke:#000000;stroke-width:1.0;"/><polygon fill="#000000" points="2275.09,709.2573,2284.3943,712.4869,2280.0723,708.8372,2283.7221,704.5152,2275.09,709.2573" style="stroke:#000000;stroke-width:1.0;"/><text fill="#000000" font-family="Verdana" font-size="11" font-weight="bold" lengthAdjust="spacing" textLength="20" x="2427" y="691.8564">13:</text><text fill="#000000" font-family="Verdana" font-size="11" lengthAdjust="spacing" textLength="123" x="2451" y="691.8564">conferma salvataggio</text></g><!--link SM to SM--><g id="link_SM_SM"><path codeLine="29" d="M2188.89,696.6873 C2258.54,598.8173 2375,606.1773 2375,718.7973 C2375,831.4173 2262.0189,843.6658 2192.3689,745.7958 " fill="none" id="SM-to-SM" style="stroke:#000000;stroke-width:1.0;"/><polygon fill="#000000" points="2188.89,740.9073,2190.8494,750.5593,2191.7891,744.981,2197.3674,745.9207,2188.89,740.9073" style="stroke:#000000;stroke-width:1.0;"/><text fill="#000000" font-family="Verdana" font-size="11" font-weight="bold" lengthAdjust="spacing" textLength="20" x="2381" y="723.3564">11:</text><text fill="#000000" font-family="Verdana" font-size="11" lengthAdjust="spacing" textLength="106" x="2405" y="723.3564">creaNuovoToken()</text></g><!--link SM to GMN27--><g id="link_SM_GMN27"><path d="M2206.89,696.7973 C2288.57,641.9473 2513.81,500.0773 2726,451.2973 C2978.09,393.3373 3075.25,338.4473 3308,451.2973 C3407.79,499.6873 3474.59,620.6873 3503.2,681.9873 " fill="none" id="SM-GMN27" style="stroke:#000000;stroke-width:1.0;stroke-dasharray:7.0,7.0;"/></g><!--SRC=[RLJRRXen47ttLqoJbsHLgYov5gcj4Y2fAd8f6vANIiZP7S2DiP7j9I9L_xrZhnVOf192AyyvC-UCP_p1pN2Ei91SAFQXm8bG2CD-z_xyvchGXrnoQncppq8jkE5pc0lLzMUFed0pQ1ySRCK2-58hbubNXBIz5UB6w9TDADqAALsWnGMaZLo6gsT_UdPom9WJJY9amZgSSoW4NA5rGfFIaKFb1BIW9_YKU5Mug-Ub4Zb_3PYzEwDpj5Rxq41FXTfdR6DnfzELWhA4LBW3tCAe2xjIJ6VkIPROX985ewL44n85zA16au0LG0EVeLaAad5U1g5HKg2TPsiQecgmXhZGLZXjLjkYXX6VhtWJxhkX3MRaSPqzkuRT5KgfNnhG7dVyYTiAqxkeCsh39MDak_NLs-b0agIT906UvrY8lTAYKNoE7s51D_oYJR7F1W5C9Zou7S2rnqhq_rZK7M8GZynqu9VoloGvz6ngwvBVeHb5rfg-pmXC55BhInrvSDOVa2b8u79uUmsUOk7nUt_OXve5N-0R8qghBfOanvvPS2V6GIY6l1iF9pwifrDqJbTpXL5i19nwm1ADc937SUrfRp-YgECUTUPHKrHe-Br-HhLN5Viag6S4sHZvx84e1MqKVy0ydubt-AW_PauFF2FNQeA6vZnImq35p3Kmt5rkaD-KUgchj6-gf-7AB9VBADFv_tSb3nib0zpnwLJea6tJc_HektiXOsZBrZo5zXjXI-cuqsFUs8WmJlwg8ZXSnXzRvc5nEpGT9SrHqDY1dTylRXo-T_uofhH3a3Xne2V4PqboASkuxSsrevmiRRKxC1JKRLeQ3j9lCSHvE6oTX1YQdDeBIov54T-G2a7ZUzg1XpW2wx5cPotoJu-Il_GAZzkzgdIpzBYLXWAMjfjgKrkh2Fnul6Ue2l1MeY7Zzz8xogx9qVgz2vtrFbhLfwU25NbfD1rbEIzGlN98WJQQ3heIkIeNVZNrd2O_rs_hF6cwiBalrBkWGlNx0BSByk9hsghQpnBDgcu3nTQBHh6rkieDTqui1Ps77BuVz28FHxrA9suK_0C0]--></g></svg>