<?xml version="1.0" encoding="us-ascii" standalone="no"?><svg xmlns="http://www.w3.org/2000/svg" xmlns:xlink="http://www.w3.org/1999/xlink" contentStyleType="text/css" height="789px" preserveAspectRatio="none" style="width:791px;height:789px;background:#FFFFFF;" version="1.1" viewBox="0 0 791 789" width="791px" zoomAndPan="magnify"><defs/><g><text fill="#000000" font-family="sans-serif" font-size="14" font-weight="bold" lengthAdjust="spacing" textLength="364" x="206.5" y="24.5332">Servizio Gestione Utenti - Diagramma dei Casi d'Uso</text><!--cluster Sistema Gestione Utenti--><g id="cluster_Sistema Gestione Utenti"><path d="M251.5,136.1094 L403.5,136.1094 A3.75,3.75 0 0 1 406,138.6094 L413,159.7188 L491.5,159.7188 A2.5,2.5 0 0 1 494,162.2188 L494,722.6094 A2.5,2.5 0 0 1 491.5,725.1094 L251.5,725.1094 A2.5,2.5 0 0 1 249,722.6094 L249,138.6094 A2.5,2.5 0 0 1 251.5,136.1094 " fill="none" style="stroke:#000000;stroke-width:1.5;"/><line style="stroke:#000000;stroke-width:1.5;" x1="249" x2="413" y1="159.7188" y2="159.7188"/><text fill="#000000" font-family="sans-serif" font-size="14" lengthAdjust="spacing" textLength="151" x="253" y="152.6426">Sistema Gestione Utenti</text></g><!--cluster Sistema Autenticazione--><g id="cluster_Sistema Autenticazione"><path d="M593,221.1094 L740,221.1094 A3.75,3.75 0 0 1 742.5,223.6094 L749.5,244.7188 L773,244.7188 A2.5,2.5 0 0 1 775.5,247.2188 L775.5,441.6094 A2.5,2.5 0 0 1 773,444.1094 L593,444.1094 A2.5,2.5 0 0 1 590.5,441.6094 L590.5,223.6094 A2.5,2.5 0 0 1 593,221.1094 " fill="none" style="stroke:#000000;stroke-width:1.5;"/><line style="stroke:#000000;stroke-width:1.5;" x1="590.5" x2="749.5" y1="244.7188" y2="244.7188"/><text fill="#000000" font-family="sans-serif" font-size="14" lengthAdjust="spacing" textLength="146" x="594.5" y="237.6426">Sistema Autenticazione</text></g><g id="elem_UC1"><ellipse cx="371.5069" cy="190.0108" fill="#F1F1F1" rx="77.5069" ry="17.9014" style="stroke:#181818;stroke-width:0.5;"/><text fill="#000000" font-family="sans-serif" font-size="14" lengthAdjust="spacing" textLength="53" x="315.3567" y="194.3254">Registra</text><text fill="#000000" font-family="sans-serif" font-size="14" lengthAdjust="spacing" textLength="4" x="368.3567" y="194.3254">&#160;</text><text fill="#000000" font-family="sans-serif" font-size="14" lengthAdjust="spacing" textLength="51" x="372.3567" y="194.3254">Account</text></g><g id="elem_UC2"><ellipse cx="371.6838" cy="259.0611" fill="#F1F1F1" rx="41.1838" ry="15.4517" style="stroke:#181818;stroke-width:0.5;"/><text fill="#000000" font-family="sans-serif" font-size="14" lengthAdjust="spacing" textLength="42" x="350.6838" y="262.7896">Accedi</text></g><g id="elem_UC3"><ellipse cx="371.6463" cy="325.2036" fill="#F1F1F1" rx="61.6463" ry="15.5942" style="stroke:#181818;stroke-width:0.5;"/><text fill="#000000" font-family="sans-serif" font-size="14" lengthAdjust="spacing" textLength="70" x="333.6463" y="329.7202">Disconnetti</text></g><g id="elem_UC4"><ellipse cx="371.355" cy="393.2804" fill="#F1F1F1" rx="76.355" ry="17.671" style="stroke:#181818;stroke-width:0.5;"/><text fill="#000000" font-family="sans-serif" font-size="14" lengthAdjust="spacing" textLength="61" x="316.1233" y="397.7349">Visualizza</text><text fill="#000000" font-family="sans-serif" font-size="14" lengthAdjust="spacing" textLength="4" x="377.1233" y="397.7349">&#160;</text><text fill="#000000" font-family="sans-serif" font-size="14" lengthAdjust="spacing" textLength="40" x="381.1233" y="397.7349">Profilo</text></g><g id="elem_UC5"><ellipse cx="371.3525" cy="462.9799" fill="#F1F1F1" rx="74.8525" ry="17.3705" style="stroke:#181818;stroke-width:0.5;"/><text fill="#000000" font-family="sans-serif" font-size="14" lengthAdjust="spacing" textLength="57" x="317.8525" y="467.4965">Aggiorna</text><text fill="#000000" font-family="sans-serif" font-size="14" lengthAdjust="spacing" textLength="4" x="374.8525" y="467.4965">&#160;</text><text fill="#000000" font-family="sans-serif" font-size="14" lengthAdjust="spacing" textLength="40" x="378.8525" y="467.4965">Profilo</text></g><g id="elem_UC6"><ellipse cx="371.3456" cy="539.2785" fill="#F1F1F1" rx="106.3456" ry="23.6691" style="stroke:#181818;stroke-width:0.5;"/><text fill="#000000" font-family="sans-serif" font-size="14" lengthAdjust="spacing" textLength="61" x="283.8456" y="543.007">Visualizza</text><text fill="#000000" font-family="sans-serif" font-size="14" lengthAdjust="spacing" textLength="4" x="344.8456" y="543.007">&#160;</text><text fill="#000000" font-family="sans-serif" font-size="14" lengthAdjust="spacing" textLength="65" x="348.8456" y="543.007">Statistiche</text><text fill="#000000" font-family="sans-serif" font-size="14" lengthAdjust="spacing" textLength="4" x="413.8456" y="543.007">&#160;</text><text fill="#000000" font-family="sans-serif" font-size="14" lengthAdjust="spacing" textLength="41" x="417.8456" y="543.007">Utente</text></g><g id="elem_UC7"><ellipse cx="371.3923" cy="617.9878" fill="#F1F1F1" rx="87.3923" ry="19.8785" style="stroke:#181818;stroke-width:0.5;"/><text fill="#000000" font-family="sans-serif" font-size="14" lengthAdjust="spacing" textLength="67" x="305.3923" y="621.7164">Reimposta</text><text fill="#000000" font-family="sans-serif" font-size="14" lengthAdjust="spacing" textLength="4" x="372.3923" y="621.7164">&#160;</text><text fill="#000000" font-family="sans-serif" font-size="14" lengthAdjust="spacing" textLength="61" x="376.3923" y="621.7164">Password</text></g><g id="elem_UC8"><ellipse cx="371.481" cy="690.9056" fill="#F1F1F1" rx="74.481" ry="17.2962" style="stroke:#181818;stroke-width:0.5;"/><text fill="#000000" font-family="sans-serif" font-size="14" lengthAdjust="spacing" textLength="45" x="318.481" y="695.4222">Elimina</text><text fill="#000000" font-family="sans-serif" font-size="14" lengthAdjust="spacing" textLength="4" x="363.481" y="695.4222">&#160;</text><text fill="#000000" font-family="sans-serif" font-size="14" lengthAdjust="spacing" textLength="51" x="367.481" y="695.4222">Account</text></g><g id="elem_UC9"><ellipse cx="683.0677" cy="274.3229" fill="#F1F1F1" rx="71.5677" ry="16.7135" style="stroke:#181818;stroke-width:0.5;"/><text fill="#000000" font-family="sans-serif" font-size="14" lengthAdjust="spacing" textLength="48" x="634.0677" y="278.8395">Genera</text><text fill="#000000" font-family="sans-serif" font-size="14" lengthAdjust="spacing" textLength="4" x="682.0677" y="278.8395">&#160;</text><text fill="#000000" font-family="sans-serif" font-size="14" lengthAdjust="spacing" textLength="40" x="686.0677" y="278.8395">Token</text></g><g id="elem_UC10"><ellipse cx="682.9277" cy="412.1949" fill="#F1F1F1" rx="68.4277" ry="16.0855" style="stroke:#181818;stroke-width:0.5;"/><text fill="#000000" font-family="sans-serif" font-size="14" lengthAdjust="spacing" textLength="39" x="638.4277" y="416.7115">Valida</text><text fill="#000000" font-family="sans-serif" font-size="14" lengthAdjust="spacing" textLength="4" x="677.4277" y="416.7115">&#160;</text><text fill="#000000" font-family="sans-serif" font-size="14" lengthAdjust="spacing" textLength="40" x="681.4277" y="416.7115">Token</text></g><g id="elem_UC11"><ellipse cx="683.2363" cy="343.3566" fill="#F1F1F1" rx="76.7363" ry="17.7473" style="stroke:#181818;stroke-width:0.5;"/><text fill="#000000" font-family="sans-serif" font-size="14" lengthAdjust="spacing" textLength="62" x="627.7006" y="347.7648">Scadenza</text><text fill="#000000" font-family="sans-serif" font-size="14" lengthAdjust="spacing" textLength="4" x="689.7006" y="347.7648">&#160;</text><text fill="#000000" font-family="sans-serif" font-size="14" lengthAdjust="spacing" textLength="40" x="693.7006" y="347.7648">Token</text></g><!--entity player--><g id="elem_player"><ellipse cx="37" cy="427.1094" fill="#F1F1F1" rx="16" ry="16" style="stroke:#181818;stroke-width:0.5;"/><path d="M37,447.1094 C41,447.1094 44,447.1094 48,443.1094 C56,443.1094 64,451.1094 64,459.1094 L64,463.1094 C64,467.1094 60,471.1094 56,471.1094 L18,471.1094 C14,471.1094 10,467.1094 10,463.1094 L10,459.1094 C10,451.1094 18,443.1094 26,443.1094 C30,447.1094 33,447.1094 37,447.1094 " fill="#F1F1F1" style="stroke:#181818;stroke-width:0.5;"/><text fill="#000000" font-family="sans-serif" font-size="14" lengthAdjust="spacing" textLength="62" x="6" y="486.1426">Giocatore</text></g><!--entity guest--><g id="elem_guest"><ellipse cx="37" cy="683.1094" fill="#F1F1F1" rx="16" ry="16" style="stroke:#181818;stroke-width:0.5;"/><path d="M37,703.1094 C41,703.1094 44,703.1094 48,699.1094 C56,699.1094 64,707.1094 64,715.1094 L64,719.1094 C64,723.1094 60,727.1094 56,727.1094 L18,727.1094 C14,727.1094 10,723.1094 10,719.1094 L10,715.1094 C10,707.1094 18,699.1094 26,699.1094 C30,703.1094 33,703.1094 37,703.1094 " fill="#F1F1F1" style="stroke:#181818;stroke-width:0.5;"/><text fill="#000000" font-family="sans-serif" font-size="14" lengthAdjust="spacing" textLength="41" x="16.5" y="742.1426">Ospite</text></g><g id="elem_GMN33"><path d="M609,44.6094 L609,87.3125 L757,87.3125 L757,54.6094 L747,44.6094 L609,44.6094 " fill="#FEFFDD" style="stroke:#181818;stroke-width:0.5;"/><path d="M747,44.6094 L747,54.6094 L757,54.6094 L747,44.6094 " fill="#FEFFDD" style="stroke:#181818;stroke-width:1.0;"/><text fill="#000000" font-family="sans-serif" font-size="13" lengthAdjust="spacing" textLength="50" x="620" y="63.1045">Richiede</text><text fill="#000000" font-family="sans-serif" font-size="13" lengthAdjust="spacing" textLength="4" x="670" y="63.1045">&#160;</text><text fill="#000000" font-family="sans-serif" font-size="13" lengthAdjust="spacing" textLength="63" x="674" y="63.1045">validazione</text><text fill="#000000" font-family="sans-serif" font-size="13" lengthAdjust="spacing" textLength="57" x="615" y="79.4561">username</text><text fill="#000000" font-family="sans-serif" font-size="13" lengthAdjust="spacing" textLength="4" x="672" y="79.4561">&#160;</text><text fill="#000000" font-family="sans-serif" font-size="13" lengthAdjust="spacing" textLength="7" x="676" y="79.4561">e</text><text fill="#000000" font-family="sans-serif" font-size="13" lengthAdjust="spacing" textLength="4" x="683" y="79.4561">&#160;</text><text fill="#000000" font-family="sans-serif" font-size="13" lengthAdjust="spacing" textLength="55" x="687" y="79.4561">password</text></g><g id="elem_GMN36"><path d="M603,122.6094 L603,165.3125 L763,165.3125 L763,132.6094 L753,122.6094 L603,122.6094 " fill="#FEFFDD" style="stroke:#181818;stroke-width:0.5;"/><path d="M753,122.6094 L753,132.6094 L763,132.6094 L753,122.6094 " fill="#FEFFDD" style="stroke:#181818;stroke-width:1.0;"/><text fill="#000000" font-family="sans-serif" font-size="13" lengthAdjust="spacing" textLength="65" x="613" y="141.1045">Restituisce</text><text fill="#000000" font-family="sans-serif" font-size="13" lengthAdjust="spacing" textLength="4" x="678" y="141.1045">&#160;</text><text fill="#000000" font-family="sans-serif" font-size="13" lengthAdjust="spacing" textLength="32" x="682" y="141.1045">token</text><text fill="#000000" font-family="sans-serif" font-size="13" lengthAdjust="spacing" textLength="4" x="714" y="141.1045">&#160;</text><text fill="#000000" font-family="sans-serif" font-size="13" lengthAdjust="spacing" textLength="26" x="718" y="141.1045">JWT</text><text fill="#000000" font-family="sans-serif" font-size="13" lengthAdjust="spacing" textLength="18" x="609" y="157.4561">per</text><text fill="#000000" font-family="sans-serif" font-size="13" lengthAdjust="spacing" textLength="4" x="627" y="157.4561">&#160;</text><text fill="#000000" font-family="sans-serif" font-size="13" lengthAdjust="spacing" textLength="49" x="631" y="157.4561">richieste</text><text fill="#000000" font-family="sans-serif" font-size="13" lengthAdjust="spacing" textLength="4" x="680" y="157.4561">&#160;</text><text fill="#000000" font-family="sans-serif" font-size="13" lengthAdjust="spacing" textLength="64" x="684" y="157.4561">successive</text></g><g id="elem_GMN39"><path d="M582,562.6094 L582,605.3125 L784,605.3125 L784,572.6094 L774,562.6094 L582,562.6094 " fill="#FEFFDD" style="stroke:#181818;stroke-width:0.5;"/><path d="M774,562.6094 L774,572.6094 L784,572.6094 L774,562.6094 " fill="#FEFFDD" style="stroke:#181818;stroke-width:1.0;"/><text fill="#000000" font-family="sans-serif" font-size="13" lengthAdjust="spacing" textLength="40" x="621" y="581.1045">Mostra</text><text fill="#000000" font-family="sans-serif" font-size="13" lengthAdjust="spacing" textLength="4" x="661" y="581.1045">&#160;</text><text fill="#000000" font-family="sans-serif" font-size="13" lengthAdjust="spacing" textLength="35" x="665" y="581.1045">livello,</text><text fill="#000000" font-family="sans-serif" font-size="13" lengthAdjust="spacing" textLength="4" x="700" y="581.1045">&#160;</text><text fill="#000000" font-family="sans-serif" font-size="13" lengthAdjust="spacing" textLength="32" x="704" y="581.1045">punti,</text><text fill="#000000" font-family="sans-serif" font-size="13" lengthAdjust="spacing" textLength="55" x="588" y="597.4561">uccisioni,</text><text fill="#000000" font-family="sans-serif" font-size="13" lengthAdjust="spacing" textLength="4" x="643" y="597.4561">&#160;</text><text fill="#000000" font-family="sans-serif" font-size="13" lengthAdjust="spacing" textLength="33" x="647" y="597.4561">morti,</text><text fill="#000000" font-family="sans-serif" font-size="13" lengthAdjust="spacing" textLength="4" x="680" y="597.4561">&#160;</text><text fill="#000000" font-family="sans-serif" font-size="13" lengthAdjust="spacing" textLength="36" x="684" y="597.4561">tempo</text><text fill="#000000" font-family="sans-serif" font-size="13" lengthAdjust="spacing" textLength="4" x="720" y="597.4561">&#160;</text><text fill="#000000" font-family="sans-serif" font-size="13" lengthAdjust="spacing" textLength="10" x="724" y="597.4561">di</text><text fill="#000000" font-family="sans-serif" font-size="13" lengthAdjust="spacing" textLength="4" x="734" y="597.4561">&#160;</text><text fill="#000000" font-family="sans-serif" font-size="13" lengthAdjust="spacing" textLength="31" x="738" y="597.4561">gioco</text></g><!--link guest to UC1--><g id="link_guest_UC1"><path d="M64.72,707.2194 C112.82,708.5794 211.05,708.2394 233,684.1094 C250.12,665.2794 225.43,246.2294 241,226.1094 C254.28,208.9394 269.1674,200.9069 290.1774,195.8369 " fill="none" id="guest-to-UC1" style="stroke:#666666;stroke-width:1.0;"/><polygon fill="#666666" points="296.01,194.4294,286.3228,192.6522,291.1495,195.6023,288.1995,200.429,296.01,194.4294" style="stroke:#666666;stroke-width:1.0;"/><text fill="#666666" font-family="sans-serif" font-size="12" lengthAdjust="spacing" textLength="42" x="103.5" y="680.5664">registra</text><text fill="#666666" font-family="sans-serif" font-size="12" lengthAdjust="spacing" textLength="3" x="145.5" y="680.5664">&#160;</text><text fill="#666666" font-family="sans-serif" font-size="12" lengthAdjust="spacing" textLength="33" x="148.5" y="680.5664">nuovo</text><text fill="#666666" font-family="sans-serif" font-size="12" lengthAdjust="spacing" textLength="3" x="181.5" y="680.5664">&#160;</text><text fill="#666666" font-family="sans-serif" font-size="12" lengthAdjust="spacing" textLength="43" x="184.5" y="680.5664">account</text></g><!--link guest to UC2--><g id="link_guest_UC2"><path d="M64.57,722.5794 C106.49,746.2594 187.84,782.4594 233,738.1094 C250.68,720.7394 225.62,311.5394 241,292.1094 C261.95,265.6394 294.9245,258.8312 324.6645,257.6812 " fill="none" id="guest-to-UC2" style="stroke:#666666;stroke-width:1.0;"/><polygon fill="#666666" points="330.66,257.4494,321.5122,253.8001,325.6637,257.6426,321.8213,261.7941,330.66,257.4494" style="stroke:#666666;stroke-width:1.0;"/><text fill="#666666" font-family="sans-serif" font-size="12" lengthAdjust="spacing" textLength="40" x="103" y="734.5664">accede</text><text fill="#666666" font-family="sans-serif" font-size="12" lengthAdjust="spacing" textLength="3" x="143" y="734.5664">&#160;</text><text fill="#666666" font-family="sans-serif" font-size="12" lengthAdjust="spacing" textLength="20" x="146" y="734.5664">con</text><text fill="#666666" font-family="sans-serif" font-size="12" lengthAdjust="spacing" textLength="3" x="166" y="734.5664">&#160;</text><text fill="#666666" font-family="sans-serif" font-size="12" lengthAdjust="spacing" textLength="59" x="169" y="734.5664">credenziali</text></g><!--link player to UC2--><g id="link_player_UC2"><path d="M45.39,410.3794 C53.2,379.7494 68.63,338.7394 98,315.1094 C165.73,260.5994 266.9321,254.9024 324.6221,256.4124 " fill="none" id="player-to-UC2" style="stroke:#666666;stroke-width:1.0;"/><polygon fill="#666666" points="330.62,256.5694,321.7277,252.3353,325.6217,256.4385,321.5184,260.3325,330.62,256.5694" style="stroke:#666666;stroke-width:1.0;"/><text fill="#666666" font-family="sans-serif" font-size="12" lengthAdjust="spacing" textLength="40" x="145.5" y="259.5664">accede</text></g><!--link player to UC3--><g id="link_player_UC3"><path d="M66.66,410.5894 C75.66,400.6094 86.33,390.8394 98,384.1094 C164.36,345.8394 246.83,332.8293 304.69,328.0893 " fill="none" id="player-to-UC3" style="stroke:#666666;stroke-width:1.0;"/><polygon fill="#666666" points="310.67,327.5994,301.3735,324.3476,305.6867,328.0076,302.0266,332.3209,310.67,327.5994" style="stroke:#666666;stroke-width:1.0;"/><text fill="#666666" font-family="sans-serif" font-size="12" lengthAdjust="spacing" textLength="10" x="127" y="336.5664">si</text><text fill="#666666" font-family="sans-serif" font-size="12" lengthAdjust="spacing" textLength="3" x="137" y="336.5664">&#160;</text><text fill="#666666" font-family="sans-serif" font-size="12" lengthAdjust="spacing" textLength="64" x="140" y="336.5664">disconnette</text></g><!--link player to UC4--><g id="link_player_UC4"><path d="M68.29,440.0594 C77.73,437.1894 88.23,434.2594 98,432.1094 C166.37,417.0394 239.7686,407.1286 295.1486,400.8186 " fill="none" id="player-to-UC4" style="stroke:#666666;stroke-width:1.0;"/><polygon fill="#666666" points="301.11,400.1394,291.715,397.184,296.1421,400.7054,292.6207,405.1325,301.11,400.1394" style="stroke:#666666;stroke-width:1.0;"/><text fill="#666666" font-family="sans-serif" font-size="12" lengthAdjust="spacing" textLength="52" x="100" y="405.5664">visualizza</text><text fill="#666666" font-family="sans-serif" font-size="12" lengthAdjust="spacing" textLength="3" x="152" y="405.5664">&#160;</text><text fill="#666666" font-family="sans-serif" font-size="12" lengthAdjust="spacing" textLength="39" x="155" y="405.5664">proprio</text><text fill="#666666" font-family="sans-serif" font-size="12" lengthAdjust="spacing" textLength="3" x="194" y="405.5664">&#160;</text><text fill="#666666" font-family="sans-serif" font-size="12" lengthAdjust="spacing" textLength="34" x="197" y="405.5664">profilo</text></g><!--link player to UC5--><g id="link_player_UC5"><path d="M68.21,451.6894 C77.74,452.1694 88.31,452.6894 98,453.1094 C165.4,456.0294 236.2035,458.5838 291.0535,460.4638 " fill="none" id="player-to-UC5" style="stroke:#666666;stroke-width:1.0;"/><polygon fill="#666666" points="297.05,460.6694,288.1923,456.3634,292.0529,460.4981,287.9183,464.3587,297.05,460.6694" style="stroke:#666666;stroke-width:1.0;"/><text fill="#666666" font-family="sans-serif" font-size="12" lengthAdjust="spacing" textLength="49" x="111" y="449.5664">aggiorna</text><text fill="#666666" font-family="sans-serif" font-size="12" lengthAdjust="spacing" textLength="3" x="160" y="449.5664">&#160;</text><text fill="#666666" font-family="sans-serif" font-size="12" lengthAdjust="spacing" textLength="20" x="163" y="449.5664">dati</text><text fill="#666666" font-family="sans-serif" font-size="12" lengthAdjust="spacing" textLength="3" x="183" y="449.5664">&#160;</text><text fill="#666666" font-family="sans-serif" font-size="12" lengthAdjust="spacing" textLength="34" x="186" y="449.5664">profilo</text></g><!--link player to UC6--><g id="link_player_UC6"><path d="M68.23,469.6994 C77.49,475.0094 87.91,480.3394 98,484.1094 C155.99,505.7594 218.3411,518.5986 272.0411,526.9386 " fill="none" id="player-to-UC6" style="stroke:#666666;stroke-width:1.0;"/><polygon fill="#666666" points="277.97,527.8594,269.6905,522.5256,273.0292,527.092,268.4627,530.4308,277.97,527.8594" style="stroke:#666666;stroke-width:1.0;"/><text fill="#666666" font-family="sans-serif" font-size="12" lengthAdjust="spacing" textLength="47" x="112.5" y="480.5664">controlla</text><text fill="#666666" font-family="sans-serif" font-size="12" lengthAdjust="spacing" textLength="3" x="159.5" y="480.5664">&#160;</text><text fill="#666666" font-family="sans-serif" font-size="12" lengthAdjust="spacing" textLength="56" x="162.5" y="480.5664">statistiche</text></g><!--link player to UC7--><g id="link_player_UC7"><path d="M54.6,489.8194 C64.55,509.1194 78.99,531.1094 98,545.1094 C153.51,585.9694 224.4153,603.1566 282.3453,611.0766 " fill="none" id="player-to-UC7" style="stroke:#666666;stroke-width:1.0;"/><polygon fill="#666666" points="288.29,611.8894,279.9148,606.7071,283.3361,611.2121,278.8311,614.6334,288.29,611.8894" style="stroke:#666666;stroke-width:1.0;"/><text fill="#666666" font-family="sans-serif" font-size="12" lengthAdjust="spacing" textLength="44" x="99" y="541.5664">richiede</text><text fill="#666666" font-family="sans-serif" font-size="12" lengthAdjust="spacing" textLength="3" x="143" y="541.5664">&#160;</text><text fill="#666666" font-family="sans-serif" font-size="12" lengthAdjust="spacing" textLength="28" x="146" y="541.5664">reset</text><text fill="#666666" font-family="sans-serif" font-size="12" lengthAdjust="spacing" textLength="3" x="174" y="541.5664">&#160;</text><text fill="#666666" font-family="sans-serif" font-size="12" lengthAdjust="spacing" textLength="55" x="177" y="541.5664">password</text></g><!--link player to UC8--><g id="link_player_UC8"><path d="M40.59,489.8794 C45.4,530.2694 59.09,591.7694 98,627.1094 C100.06,628.9794 232.9516,659.6193 311.6416,677.6493 " fill="none" id="player-to-UC8" style="stroke:#666666;stroke-width:1.0;"/><polygon fill="#666666" points="317.49,678.9894,309.6107,673.0804,312.6163,677.8727,307.824,680.8783,317.49,678.9894" style="stroke:#666666;stroke-width:1.0;"/><text fill="#666666" font-family="sans-serif" font-size="12" lengthAdjust="spacing" textLength="41" x="122" y="623.5664">elimina</text><text fill="#666666" font-family="sans-serif" font-size="12" lengthAdjust="spacing" textLength="3" x="163" y="623.5664">&#160;</text><text fill="#666666" font-family="sans-serif" font-size="12" lengthAdjust="spacing" textLength="43" x="166" y="623.5664">account</text></g><!--link UC1 to UC9--><g id="link_UC1_UC9"><path d="M422.57,203.6894 C481.59,219.7094 573.0796,244.5374 630.2496,260.0574 " fill="none" id="UC1-to-UC9" style="stroke:#666666;stroke-width:1.0;stroke-dasharray:7.0,7.0;"/><polygon fill="#666666" points="636.04,261.6294,628.4023,255.4112,631.2146,260.3194,626.3064,263.1318,636.04,261.6294" style="stroke:#666666;stroke-width:1.0;"/><text fill="#666666" font-family="sans-serif" font-size="12" lengthAdjust="spacing" textLength="40" x="511" y="226.5664">include</text></g><!--link UC2 to UC9--><g id="link_UC2_UC9"><path d="M412.33,261.0394 C462.94,263.4894 545.127,267.469 606.837,270.459 " fill="none" id="UC2-to-UC9" style="stroke:#666666;stroke-width:1.0;stroke-dasharray:7.0,7.0;"/><polygon fill="#666666" points="612.83,270.7494,604.0341,266.3185,607.8359,270.5074,603.647,274.3091,612.83,270.7494" style="stroke:#666666;stroke-width:1.0;"/><text fill="#666666" font-family="sans-serif" font-size="12" lengthAdjust="spacing" textLength="40" x="511" y="263.5664">include</text></g><!--link UC2 to UC10--><g id="link_UC2_UC10"><path d="M410.53,263.8594 C437.31,268.3494 473.36,276.7894 502,292.1094 C528.36,306.2094 531.96,314.9194 552,337.1094 C567.14,353.8594 563.8,364.7394 582,378.1094 C596.56,388.7994 608.9855,394.5244 625.8155,399.7044 " fill="none" id="UC2-to-UC10" style="stroke:#666666;stroke-width:1.0;stroke-dasharray:7.0,7.0;"/><polygon fill="#666666" points="631.55,401.4694,624.1249,394.9989,626.7712,399.9985,621.7715,402.6449,631.55,401.4694" style="stroke:#666666;stroke-width:1.0;"/><text fill="#666666" font-family="sans-serif" font-size="12" lengthAdjust="spacing" textLength="40" x="511" y="293.5664">include</text></g><!--link UC3 to UC11--><g id="link_UC3_UC11"><path d="M411.17,336.9694 C438.49,344.7094 476.11,354.0994 510,358.1094 C547.66,362.5594 584.1511,359.8034 617.4611,355.0134 " fill="none" id="UC3-to-UC11" style="stroke:#666666;stroke-width:1.0;stroke-dasharray:7.0,7.0;"/><polygon fill="#666666" points="623.4,354.1594,613.9223,351.4811,618.4509,354.8711,615.061,359.3997,623.4,354.1594" style="stroke:#666666;stroke-width:1.0;"/><text fill="#666666" font-family="sans-serif" font-size="12" lengthAdjust="spacing" textLength="40" x="511" y="354.5664">include</text></g><!--link UC4 to UC10--><g id="link_UC4_UC10"><path d="M445.46,397.5794 C497.37,400.7694 560.5312,404.6525 610.6512,407.7225 " fill="none" id="UC4-to-UC10" style="stroke:#666666;stroke-width:1.0;stroke-dasharray:7.0,7.0;"/><polygon fill="#666666" points="616.64,408.0894,607.9014,403.5466,611.6494,407.7837,607.4123,411.5316,616.64,408.0894" style="stroke:#666666;stroke-width:1.0;"/><text fill="#666666" font-family="sans-serif" font-size="12" lengthAdjust="spacing" textLength="40" x="511" y="398.5664">include</text></g><!--link UC5 to UC10--><g id="link_UC5_UC10"><path d="M433.28,453.0894 C489.44,443.8394 566.2498,431.1746 620.6398,422.2146 " fill="none" id="UC5-to-UC10" style="stroke:#666666;stroke-width:1.0;stroke-dasharray:7.0,7.0;"/><polygon fill="#666666" points="626.56,421.2394,617.0295,418.7555,621.6265,422.0521,618.3299,426.6491,626.56,421.2394" style="stroke:#666666;stroke-width:1.0;"/><text fill="#666666" font-family="sans-serif" font-size="12" lengthAdjust="spacing" textLength="40" x="511" y="431.5664">include</text></g><!--link UC6 to UC10--><g id="link_UC6_UC10"><path d="M437.34,520.5194 C458.2,514.0194 481.27,506.2894 502,498.1094 C557.4,476.2194 614.29,447.6938 649.15,429.5138 " fill="none" id="UC6-to-UC10" style="stroke:#666666;stroke-width:1.0;stroke-dasharray:7.0,7.0;"/><polygon fill="#666666" points="654.47,426.7394,644.6404,427.3544,650.0367,429.0514,648.3396,434.4477,654.47,426.7394" style="stroke:#666666;stroke-width:1.0;"/><text fill="#666666" font-family="sans-serif" font-size="12" lengthAdjust="spacing" textLength="40" x="511" y="475.5664">include</text></g><!--link UC1 to GMN33--><g id="link_UC1_GMN33"><path d="M410.67,174.4394 C452.61,157.2594 522.01,128.9694 582,105.1094 C596.37,99.3894 611.94,93.2794 626.41,87.6294 " fill="none" id="UC1-GMN33" style="stroke:#666666;stroke-width:1.0;stroke-dasharray:7.0,7.0;"/></g><!--link UC2 to GMN36--><g id="link_UC2_GMN36"><path d="M412.55,257.8194 C440.65,254.9094 477.44,246.7994 502,225.1094 C509.18,218.7694 503.1,211.7394 510,205.1094 C535.24,180.8494 570.74,166.1594 602.94,157.3094 " fill="none" id="UC2-GMN36" style="stroke:#666666;stroke-width:1.0;stroke-dasharray:7.0,7.0;"/></g><!--link UC6 to GMN39--><g id="link_UC6_GMN39"><path d="M455.67,553.5494 C473.57,556.5094 492.4,559.5094 510,562.1094 C533.23,565.5294 558.27,568.9094 581.86,571.9594 " fill="none" id="UC6-GMN39" style="stroke:#666666;stroke-width:1.0;stroke-dasharray:7.0,7.0;"/></g><!--SRC=[VPHHQnin3CVV_IcqlFGbxPecJTin2YKTOOEnaJJRIs4Odt8LTQp3zcKiezzzykLknPTiUGhIpvBrr__yXfonTO7mVZPvEvlycB6BcXpwMwKYHOkmHB-b7J7CCKHYXx2Aw2B1AToJBhtUR3GKI33JWQ0uMGLMok8wGcJmL3v5ACYZIMULqYQoXy6Ss6ZvXmFG0IghVw7lSbz2HN6VA6lfgLIbpRCk4GPB2X6bNUyg0_YjG7vrGAE3S0iiXVGQxepXsiMcs6esoYb9Oa5jxYBFtLCmx1p6s07Z7FX6eTQMTZiDNpsloNBBJNfDofBOkpvr-SzgowYZN9xCKpiUjaUc_HbfKt68Kbc7y9DzqN9NEVV1qePSNufhzN94rxkwqTFeNLBtGDOvYZ4qFF0pkhREJMyE6QB8YT5vZYoDBj3jUj0etUS4FigulkakLiBI4d1o0wd62N1wUfjWU0U-sx2hUSkWzyDbs8LWEgqOGLO9ncFgItB3mqu4PUj8Kdit7XJ9usE99xl_jKalFv7yzdMfbUVAopTKxKsGivUfHsUJGhP_79iA9isYPsirX5URvDXLKaV2b0Rt6312rHea1wy5nDOSdNuYp0BjNXQLb3uxI-YDeEr3eP8c_ukEphFmk0kFil3aE7rvF3mz5bQE8xOl3AzRNoowoRUD4niVFpendsYxGS1NBVgdqwONwLs9jImLvVKIUyAdxm-FhXBDzfBAPmAX5Z-4G5iyg95Mz9aRNrh9Myj3g4HN6ieTZA6GT1t2Xhs4G3wvYiL2ZVTO_G40]--></g></svg>