<?xml version="1.0" encoding="us-ascii" standalone="no"?><svg xmlns="http://www.w3.org/2000/svg" xmlns:xlink="http://www.w3.org/1999/xlink" contentStyleType="text/css" height="1569px" preserveAspectRatio="none" style="width:1156px;height:1569px;background:#FFFFFF;" version="1.1" viewBox="0 0 1156 1569" width="1156px" zoomAndPan="magnify"><defs/><g><text fill="#000000" font-family="Verdana" font-size="22" font-weight="bold" lengthAdjust="spacing" textLength="1123" x="15" y="37.1182">Servizio Gestione Utenti - Diagramma delle Attivit&#224; (Flusso Registrazione e Login Utente)</text><ellipse cx="574.375" cy="62.7373" fill="#FFFFFF" rx="10" ry="10" style="stroke:#000000;stroke-width:1.0;"/><rect fill="#FFFFFF" height="34.584" rx="12.5" ry="12.5" style="stroke:#000000;stroke-width:1.0;" width="219" x="464.875" y="92.7373"/><text fill="#000000" font-family="Verdana" font-size="12" lengthAdjust="spacing" textLength="199" x="474.875" y="114.8018">L'utente accede all'applicazione</text><polygon fill="#FFFFFF" points="506.875,147.3213,641.875,147.3213,653.875,159.3213,641.875,171.3213,506.875,171.3213,494.875,159.3213,506.875,147.3213" style="stroke:#000000;stroke-width:1.0;"/><text fill="#000000" font-family="Verdana" font-size="11" lengthAdjust="spacing" textLength="135" x="506.875" y="163.696">L'utente ha un account?</text><text fill="#000000" font-family="Verdana" font-size="11" lengthAdjust="spacing" textLength="9" x="485.875" y="157.0117">s&#236;</text><text fill="#000000" font-family="Verdana" font-size="11" lengthAdjust="spacing" textLength="14" x="653.875" y="157.0117">no</text><rect fill="#FFFFFF" height="34.584" rx="12.5" ry="12.5" style="stroke:#000000;stroke-width:1.0;" width="222" x="181.25" y="181.3213"/><text fill="#000000" font-family="Verdana" font-size="12" lengthAdjust="spacing" textLength="202" x="191.25" y="203.3857">Inserisce username e password</text><rect fill="#FFFFFF" height="34.584" rx="12.5" ry="12.5" style="stroke:#000000;stroke-width:1.0;" width="162" x="211.25" y="235.9053"/><text fill="#000000" font-family="Verdana" font-size="12" lengthAdjust="spacing" textLength="142" x="221.25" y="257.9697">Clicca il pulsante Login</text><rect fill="#FFFFFF" height="34.584" rx="12.5" ry="12.5" style="stroke:#000000;stroke-width:1.0;" width="182" x="201.25" y="290.4893"/><text fill="#000000" font-family="Verdana" font-size="12" lengthAdjust="spacing" textLength="162" x="211.25" y="312.5537">Valida il formato dell'input</text><rect fill="#FFFFFF" height="34.584" rx="12.5" ry="12.5" style="stroke:#000000;stroke-width:1.0;" width="196" x="194.25" y="393.7576"/><text fill="#000000" font-family="Verdana" font-size="12" lengthAdjust="spacing" textLength="176" x="204.25" y="415.822">Mostra errore di validazione</text><ellipse cx="292.25" cy="474.3416" fill="none" rx="11" ry="11" style="stroke:#000000;stroke-width:1.0;"/><ellipse cx="292.25" cy="474.3416" fill="#FFFFFF" rx="6" ry="6" style="stroke:#000000;stroke-width:1.0;"/><polygon fill="#FFFFFF" points="255.25,345.0732,329.25,345.0732,341.25,357.0732,329.25,369.0732,255.25,369.0732,243.25,357.0732,255.25,345.0732" style="stroke:#000000;stroke-width:1.0;"/><text fill="#000000" font-family="Verdana" font-size="11" lengthAdjust="spacing" textLength="14" x="296.25" y="380.1323">no</text><text fill="#000000" font-family="Verdana" font-size="11" lengthAdjust="spacing" textLength="74" x="255.25" y="361.448">Input valido?</text><rect fill="#FFFFFF" height="34.584" rx="12.5" ry="12.5" style="stroke:#000000;stroke-width:1.0;" width="216" x="184.25" y="551.0259"/><text fill="#000000" font-family="Verdana" font-size="12" lengthAdjust="spacing" textLength="196" x="194.25" y="573.0903">Invia richiesta di login al server</text><rect fill="#FFFFFF" height="34.584" rx="12.5" ry="12.5" style="stroke:#000000;stroke-width:1.0;" width="296" x="144.25" y="605.6099"/><text fill="#000000" font-family="Verdana" font-size="12" lengthAdjust="spacing" textLength="276" x="154.25" y="627.6743">Controlla le credenziali utente nel database</text><polygon fill="#FFFFFF" points="238.25,675.1938,346.25,675.1938,358.25,687.1938,346.25,699.1938,238.25,699.1938,226.25,687.1938,238.25,675.1938" style="stroke:#000000;stroke-width:1.0;"/><text fill="#000000" font-family="Verdana" font-size="11" lengthAdjust="spacing" textLength="108" x="238.25" y="691.5686">Credenziali valide?</text><text fill="#000000" font-family="Verdana" font-size="11" lengthAdjust="spacing" textLength="9" x="217.25" y="684.8843">s&#236;</text><text fill="#000000" font-family="Verdana" font-size="11" lengthAdjust="spacing" textLength="14" x="358.25" y="684.8843">no</text><rect fill="#FFFFFF" height="34.584" rx="12.5" ry="12.5" style="stroke:#000000;stroke-width:1.0;" width="135" x="98" y="709.1938"/><text fill="#000000" font-family="Verdana" font-size="12" lengthAdjust="spacing" textLength="115" x="108" y="731.2583">Genera token JWT</text><rect fill="#FFFFFF" height="34.584" rx="12.5" ry="12.5" style="stroke:#000000;stroke-width:1.0;" width="191" x="70" y="770.0935"/><text fill="#000000" font-family="Verdana" font-size="12" lengthAdjust="spacing" textLength="171" x="80" y="792.158">Salva il token nel database</text><rect fill="#FFFFFF" height="34.584" rx="12.5" ry="12.5" style="stroke:#000000;stroke-width:1.0;" width="190" x="70.5" y="839.6775"/><text fill="#000000" font-family="Verdana" font-size="12" lengthAdjust="spacing" textLength="170" x="80.5" y="861.7419">Restituisce il token al client</text><rect fill="#FFFFFF" height="34.584" rx="12.5" ry="12.5" style="stroke:#000000;stroke-width:1.0;" width="103" x="114" y="909.2615"/><text fill="#000000" font-family="Verdana" font-size="12" lengthAdjust="spacing" textLength="83" x="124" y="931.3259">Login riuscito</text><rect fill="#FFFFFF" height="34.584" rx="12.5" ry="12.5" style="stroke:#000000;stroke-width:1.0;" width="206" x="62.5" y="970.8601"/><text fill="#000000" font-family="Verdana" font-size="12" lengthAdjust="spacing" textLength="186" x="72.5" y="992.9246">Reindirizza al menu principale</text><ellipse cx="165.5" cy="1051.4441" fill="none" rx="11" ry="11" style="stroke:#000000;stroke-width:1.0;"/><ellipse cx="165.5" cy="1051.4441" fill="#FFFFFF" rx="6" ry="6" style="stroke:#000000;stroke-width:1.0;"/><rect fill="#FFFFFF" height="34.584" rx="12.5" ry="12.5" style="stroke:#000000;stroke-width:1.0;" width="261" x="288.5" y="709.1938"/><text fill="#000000" font-family="Verdana" font-size="12" lengthAdjust="spacing" textLength="241" x="298.5" y="731.2583">Mostra errore "Credenziali non valide"</text><ellipse cx="419" cy="781.0935" fill="none" rx="11" ry="11" style="stroke:#000000;stroke-width:1.0;"/><ellipse cx="419" cy="781.0935" fill="#FFFFFF" rx="6" ry="6" style="stroke:#000000;stroke-width:1.0;"/><rect fill="#FFFFFF" height="34.584" rx="12.5" ry="12.5" style="stroke:#000000;stroke-width:1.0;" width="188" x="762.5" y="181.3213"/><text fill="#000000" font-family="Verdana" font-size="12" lengthAdjust="spacing" textLength="168" x="772.5" y="203.3857">Clicca il pulsante Registrati</text><rect fill="#FFFFFF" height="34.584" rx="12.5" ry="12.5" style="stroke:#000000;stroke-width:1.0;" width="222" x="745.5" y="235.9053"/><text fill="#000000" font-family="Verdana" font-size="12" lengthAdjust="spacing" textLength="202" x="755.5" y="257.9697">Inserisce username e password</text><rect fill="#FFFFFF" height="34.584" rx="12.5" ry="12.5" style="stroke:#000000;stroke-width:1.0;" width="162" x="775.5" y="290.4893"/><text fill="#000000" font-family="Verdana" font-size="12" lengthAdjust="spacing" textLength="142" x="785.5" y="312.5537">Conferma la password</text><rect fill="#FFFFFF" height="34.584" rx="12.5" ry="12.5" style="stroke:#000000;stroke-width:1.0;" width="182" x="765.5" y="345.0732"/><text fill="#000000" font-family="Verdana" font-size="12" lengthAdjust="spacing" textLength="162" x="775.5" y="367.1377">Valida il formato dell'input</text><rect fill="#FFFFFF" height="34.584" rx="12.5" ry="12.5" style="stroke:#000000;stroke-width:1.0;" width="196" x="758.5" y="463.3416"/><text fill="#000000" font-family="Verdana" font-size="12" lengthAdjust="spacing" textLength="176" x="768.5" y="485.406">Mostra errore di validazione</text><ellipse cx="856.5" cy="543.9255" fill="none" rx="11" ry="11" style="stroke:#000000;stroke-width:1.0;"/><ellipse cx="856.5" cy="543.9255" fill="#FFFFFF" rx="6" ry="6" style="stroke:#000000;stroke-width:1.0;"/><polygon fill="#FFFFFF" points="819.5,414.6572,893.5,414.6572,905.5,426.6572,893.5,438.6572,819.5,438.6572,807.5,426.6572,819.5,414.6572" style="stroke:#000000;stroke-width:1.0;"/><text fill="#000000" font-family="Verdana" font-size="11" lengthAdjust="spacing" textLength="14" x="860.5" y="449.7163">no</text><text fill="#000000" font-family="Verdana" font-size="11" lengthAdjust="spacing" textLength="74" x="819.5" y="431.032">Input valido?</text><rect fill="#FFFFFF" height="34.584" rx="12.5" ry="12.5" style="stroke:#000000;stroke-width:1.0;" width="301" x="706" y="654.2942"/><text fill="#000000" font-family="Verdana" font-size="12" lengthAdjust="spacing" textLength="281" x="716" y="676.3586">Mostra errore "Le password non coincidono"</text><ellipse cx="856.5" cy="734.8782" fill="none" rx="11" ry="11" style="stroke:#000000;stroke-width:1.0;"/><ellipse cx="856.5" cy="734.8782" fill="#FFFFFF" rx="6" ry="6" style="stroke:#000000;stroke-width:1.0;"/><polygon fill="#FFFFFF" points="786,605.6099,927,605.6099,939,617.6099,927,629.6099,786,629.6099,774,617.6099,786,605.6099" style="stroke:#000000;stroke-width:1.0;"/><text fill="#000000" font-family="Verdana" font-size="11" lengthAdjust="spacing" textLength="14" x="860.5" y="640.6689">no</text><text fill="#000000" font-family="Verdana" font-size="11" lengthAdjust="spacing" textLength="141" x="786" y="621.9846">Le password coincidono?</text><rect fill="#FFFFFF" height="34.584" rx="12.5" ry="12.5" style="stroke:#000000;stroke-width:1.0;" width="266" x="723.5" y="851.5625"/><text fill="#000000" font-family="Verdana" font-size="12" lengthAdjust="spacing" textLength="246" x="733.5" y="873.627">Mostra errore "Password troppo corta"</text><ellipse cx="856.5" cy="932.1465" fill="none" rx="11" ry="11" style="stroke:#000000;stroke-width:1.0;"/><ellipse cx="856.5" cy="932.1465" fill="#FFFFFF" rx="6" ry="6" style="stroke:#000000;stroke-width:1.0;"/><polygon fill="#FFFFFF" points="778,802.8782,935,802.8782,947,814.8782,935,826.8782,778,826.8782,766,814.8782,778,802.8782" style="stroke:#000000;stroke-width:1.0;"/><text fill="#000000" font-family="Verdana" font-size="11" lengthAdjust="spacing" textLength="14" x="860.5" y="837.9373">no</text><text fill="#000000" font-family="Verdana" font-size="11" lengthAdjust="spacing" textLength="157" x="778" y="819.2529">Lunghezza password &gt;= 6?</text><rect fill="#FFFFFF" height="34.584" rx="12.5" ry="12.5" style="stroke:#000000;stroke-width:1.0;" width="220" x="746.5" y="1000.8455"/><text fill="#000000" font-family="Verdana" font-size="12" lengthAdjust="spacing" textLength="200" x="756.5" y="1022.9099">Controlla se lo username esiste</text><polygon fill="#FFFFFF" points="792.5,1070.4294,920.5,1070.4294,932.5,1082.4294,920.5,1094.4294,792.5,1094.4294,780.5,1082.4294,792.5,1070.4294" style="stroke:#000000;stroke-width:1.0;"/><text fill="#000000" font-family="Verdana" font-size="11" lengthAdjust="spacing" textLength="128" x="792.5" y="1086.8042">Username disponibile?</text><text fill="#000000" font-family="Verdana" font-size="11" lengthAdjust="spacing" textLength="14" x="766.5" y="1080.1199">no</text><text fill="#000000" font-family="Verdana" font-size="11" lengthAdjust="spacing" textLength="9" x="932.5" y="1080.1199">s&#236;</text><rect fill="#FFFFFF" height="34.584" rx="12.5" ry="12.5" style="stroke:#000000;stroke-width:1.0;" width="272" x="589.5" y="1104.4294"/><text fill="#000000" font-family="Verdana" font-size="12" lengthAdjust="spacing" textLength="252" x="599.5" y="1126.4939">Mostra errore "Username gi&#224; esistente"</text><ellipse cx="725.5" cy="1170.0134" fill="none" rx="11" ry="11" style="stroke:#000000;stroke-width:1.0;"/><ellipse cx="725.5" cy="1170.0134" fill="#FFFFFF" rx="6" ry="6" style="stroke:#000000;stroke-width:1.0;"/><rect fill="#FFFFFF" height="34.584" rx="12.5" ry="12.5" style="stroke:#000000;stroke-width:1.0;" width="139" x="918" y="1104.4294"/><text fill="#000000" font-family="Verdana" font-size="12" lengthAdjust="spacing" textLength="119" x="928" y="1126.4939">Cripta la password</text><rect fill="#FFFFFF" height="34.584" rx="12.5" ry="12.5" style="stroke:#000000;stroke-width:1.0;" width="140" x="917.5" y="1159.0134"/><text fill="#000000" font-family="Verdana" font-size="12" lengthAdjust="spacing" textLength="120" x="927.5" y="1181.0779">Crea record utente</text><rect fill="#FFFFFF" height="34.584" rx="12.5" ry="12.5" style="stroke:#000000;stroke-width:1.0;" width="135" x="920" y="1213.5974"/><text fill="#000000" font-family="Verdana" font-size="12" lengthAdjust="spacing" textLength="115" x="930" y="1235.6619">Genera token JWT</text><rect fill="#FFFFFF" height="34.584" rx="12.5" ry="12.5" style="stroke:#000000;stroke-width:1.0;" width="191" x="892" y="1268.1814"/><text fill="#000000" font-family="Verdana" font-size="12" lengthAdjust="spacing" textLength="171" x="902" y="1290.2458">Salva il token nel database</text><rect fill="#FFFFFF" height="34.584" rx="12.5" ry="12.5" style="stroke:#000000;stroke-width:1.0;" width="212" x="881.5" y="1322.7654"/><text fill="#000000" font-family="Verdana" font-size="12" lengthAdjust="spacing" textLength="192" x="891.5" y="1344.8298">Inizializza le statistiche utente</text><rect fill="#FFFFFF" height="34.584" rx="12.5" ry="12.5" style="stroke:#000000;stroke-width:1.0;" width="190" x="892.5" y="1377.3494"/><text fill="#000000" font-family="Verdana" font-size="12" lengthAdjust="spacing" textLength="170" x="902.5" y="1399.4138">Restituisce il token al client</text><rect fill="#FFFFFF" height="34.584" rx="12.5" ry="12.5" style="stroke:#000000;stroke-width:1.0;" width="155" x="910" y="1431.9333"/><text fill="#000000" font-family="Verdana" font-size="12" lengthAdjust="spacing" textLength="135" x="920" y="1453.9978">Registrazione riuscita</text><rect fill="#FFFFFF" height="34.584" rx="12.5" ry="12.5" style="stroke:#000000;stroke-width:1.0;" width="206" x="884.5" y="1486.5173"/><text fill="#000000" font-family="Verdana" font-size="12" lengthAdjust="spacing" textLength="186" x="894.5" y="1508.5818">Reindirizza al menu principale</text><ellipse cx="987.5" cy="1552.1013" fill="none" rx="11" ry="11" style="stroke:#000000;stroke-width:1.0;"/><ellipse cx="987.5" cy="1552.1013" fill="#FFFFFF" rx="6" ry="6" style="stroke:#000000;stroke-width:1.0;"/><line style="stroke:#000000;stroke-width:1.0;" x1="574.375" x2="574.375" y1="72.7373" y2="92.7373"/><polygon fill="#000000" points="570.375,82.7373,574.375,92.7373,578.375,82.7373,574.375,86.7373" style="stroke:#000000;stroke-width:1.0;"/><line style="stroke:#000000;stroke-width:1.0;" x1="292.25" x2="292.25" y1="215.9053" y2="235.9053"/><polygon fill="#000000" points="288.25,225.9053,292.25,235.9053,296.25,225.9053,292.25,229.9053" style="stroke:#000000;stroke-width:1.0;"/><line style="stroke:#000000;stroke-width:1.0;" x1="292.25" x2="292.25" y1="270.4893" y2="290.4893"/><polygon fill="#000000" points="288.25,280.4893,292.25,290.4893,296.25,280.4893,292.25,284.4893" style="stroke:#000000;stroke-width:1.0;"/><line style="stroke:#000000;stroke-width:1.0;" x1="292.25" x2="292.25" y1="428.3416" y2="463.3416"/><polygon fill="#000000" points="288.25,453.3416,292.25,463.3416,296.25,453.3416,292.25,457.3416" style="stroke:#000000;stroke-width:1.0;"/><line style="stroke:#000000;stroke-width:1.0;" x1="292.25" x2="292.25" y1="369.0732" y2="393.7576"/><polygon fill="#000000" points="288.25,383.7576,292.25,393.7576,296.25,383.7576,292.25,387.7576" style="stroke:#000000;stroke-width:1.0;"/><line style="stroke:#000000;stroke-width:1.0;" x1="341.25" x2="400.25" y1="357.0732" y2="357.0732"/><polygon fill="#000000" points="396.25,426.5496,400.25,436.5496,404.25,426.5496,400.25,430.5496" style="stroke:#000000;stroke-width:1.0;"/><line style="stroke:#000000;stroke-width:1.0;" x1="400.25" x2="400.25" y1="357.0732" y2="516.0259"/><line style="stroke:#000000;stroke-width:1.0;" x1="400.25" x2="292.25" y1="516.0259" y2="516.0259"/><line style="stroke:#000000;stroke-width:1.0;" x1="292.25" x2="292.25" y1="516.0259" y2="551.0259"/><polygon fill="#000000" points="288.25,541.0259,292.25,551.0259,296.25,541.0259,292.25,545.0259" style="stroke:#000000;stroke-width:1.0;"/><line style="stroke:#000000;stroke-width:1.0;" x1="292.25" x2="292.25" y1="325.0732" y2="345.0732"/><polygon fill="#000000" points="288.25,335.0732,292.25,345.0732,296.25,335.0732,292.25,339.0732" style="stroke:#000000;stroke-width:1.0;"/><line style="stroke:#000000;stroke-width:1.0;" x1="292.25" x2="292.25" y1="585.6099" y2="605.6099"/><polygon fill="#000000" points="288.25,595.6099,292.25,605.6099,296.25,595.6099,292.25,599.6099" style="stroke:#000000;stroke-width:1.0;"/><line style="stroke:#000000;stroke-width:1.0;" x1="165.5" x2="165.5" y1="743.7778" y2="770.0935"/><polygon fill="#000000" points="161.5,760.0935,165.5,770.0935,169.5,760.0935,165.5,764.0935" style="stroke:#000000;stroke-width:1.0;"/><line style="stroke:#000000;stroke-width:1.0;" x1="165.5" x2="165.5" y1="804.6775" y2="839.6775"/><polygon fill="#000000" points="161.5,829.6775,165.5,839.6775,169.5,829.6775,165.5,833.6775" style="stroke:#000000;stroke-width:1.0;"/><line style="stroke:#000000;stroke-width:1.0;" x1="165.5" x2="165.5" y1="874.2615" y2="909.2615"/><polygon fill="#000000" points="161.5,899.2615,165.5,909.2615,169.5,899.2615,165.5,903.2615" style="stroke:#000000;stroke-width:1.0;"/><line style="stroke:#000000;stroke-width:1.0;" x1="165.5" x2="165.5" y1="943.8455" y2="970.8601"/><polygon fill="#000000" points="161.5,960.8601,165.5,970.8601,169.5,960.8601,165.5,964.8601" style="stroke:#000000;stroke-width:1.0;"/><line style="stroke:#000000;stroke-width:1.0;" x1="165.5" x2="165.5" y1="1005.4441" y2="1040.4441"/><polygon fill="#000000" points="161.5,1030.4441,165.5,1040.4441,169.5,1030.4441,165.5,1034.4441" style="stroke:#000000;stroke-width:1.0;"/><line style="stroke:#000000;stroke-width:1.0;" x1="419" x2="419" y1="743.7778" y2="770.0935"/><polygon fill="#000000" points="415,760.0935,419,770.0935,423,760.0935,419,764.0935" style="stroke:#000000;stroke-width:1.0;"/><line style="stroke:#000000;stroke-width:1.0;" x1="226.25" x2="165.5" y1="687.1938" y2="687.1938"/><line style="stroke:#000000;stroke-width:1.0;" x1="165.5" x2="165.5" y1="687.1938" y2="709.1938"/><polygon fill="#000000" points="161.5,699.1938,165.5,709.1938,169.5,699.1938,165.5,703.1938" style="stroke:#000000;stroke-width:1.0;"/><line style="stroke:#000000;stroke-width:1.0;" x1="358.25" x2="419" y1="687.1938" y2="687.1938"/><line style="stroke:#000000;stroke-width:1.0;" x1="419" x2="419" y1="687.1938" y2="709.1938"/><polygon fill="#000000" points="415,699.1938,419,709.1938,423,699.1938,419,703.1938" style="stroke:#000000;stroke-width:1.0;"/><line style="stroke:#000000;stroke-width:1.0;" x1="292.25" x2="292.25" y1="640.1938" y2="675.1938"/><polygon fill="#000000" points="288.25,665.1938,292.25,675.1938,296.25,665.1938,292.25,669.1938" style="stroke:#000000;stroke-width:1.0;"/><line style="stroke:#000000;stroke-width:1.0;" x1="856.5" x2="856.5" y1="215.9053" y2="235.9053"/><polygon fill="#000000" points="852.5,225.9053,856.5,235.9053,860.5,225.9053,856.5,229.9053" style="stroke:#000000;stroke-width:1.0;"/><line style="stroke:#000000;stroke-width:1.0;" x1="856.5" x2="856.5" y1="270.4893" y2="290.4893"/><polygon fill="#000000" points="852.5,280.4893,856.5,290.4893,860.5,280.4893,856.5,284.4893" style="stroke:#000000;stroke-width:1.0;"/><line style="stroke:#000000;stroke-width:1.0;" x1="856.5" x2="856.5" y1="325.0732" y2="345.0732"/><polygon fill="#000000" points="852.5,335.0732,856.5,345.0732,860.5,335.0732,856.5,339.0732" style="stroke:#000000;stroke-width:1.0;"/><line style="stroke:#000000;stroke-width:1.0;" x1="856.5" x2="856.5" y1="497.9255" y2="532.9255"/><polygon fill="#000000" points="852.5,522.9255,856.5,532.9255,860.5,522.9255,856.5,526.9255" style="stroke:#000000;stroke-width:1.0;"/><line style="stroke:#000000;stroke-width:1.0;" x1="856.5" x2="856.5" y1="438.6572" y2="463.3416"/><polygon fill="#000000" points="852.5,453.3416,856.5,463.3416,860.5,453.3416,856.5,457.3416" style="stroke:#000000;stroke-width:1.0;"/><line style="stroke:#000000;stroke-width:1.0;" x1="905.5" x2="964.5" y1="426.6572" y2="426.6572"/><polygon fill="#000000" points="960.5,496.1335,964.5,506.1335,968.5,496.1335,964.5,500.1335" style="stroke:#000000;stroke-width:1.0;"/><line style="stroke:#000000;stroke-width:1.0;" x1="964.5" x2="964.5" y1="426.6572" y2="585.6099"/><line style="stroke:#000000;stroke-width:1.0;" x1="964.5" x2="856.5" y1="585.6099" y2="585.6099"/><line style="stroke:#000000;stroke-width:1.0;" x1="856.5" x2="856.5" y1="585.6099" y2="605.6099"/><polygon fill="#000000" points="852.5,595.6099,856.5,605.6099,860.5,595.6099,856.5,599.6099" style="stroke:#000000;stroke-width:1.0;"/><line style="stroke:#000000;stroke-width:1.0;" x1="856.5" x2="856.5" y1="379.6572" y2="414.6572"/><polygon fill="#000000" points="852.5,404.6572,856.5,414.6572,860.5,404.6572,856.5,408.6572" style="stroke:#000000;stroke-width:1.0;"/><line style="stroke:#000000;stroke-width:1.0;" x1="856.5" x2="856.5" y1="688.8782" y2="723.8782"/><polygon fill="#000000" points="852.5,713.8782,856.5,723.8782,860.5,713.8782,856.5,717.8782" style="stroke:#000000;stroke-width:1.0;"/><line style="stroke:#000000;stroke-width:1.0;" x1="856.5" x2="856.5" y1="629.6099" y2="654.2942"/><polygon fill="#000000" points="852.5,644.2942,856.5,654.2942,860.5,644.2942,856.5,648.2942" style="stroke:#000000;stroke-width:1.0;"/><line style="stroke:#000000;stroke-width:1.0;" x1="939" x2="1017" y1="617.6099" y2="617.6099"/><polygon fill="#000000" points="1013,687.0862,1017,697.0862,1021,687.0862,1017,691.0862" style="stroke:#000000;stroke-width:1.0;"/><line style="stroke:#000000;stroke-width:1.0;" x1="1017" x2="1017" y1="617.6099" y2="767.8782"/><line style="stroke:#000000;stroke-width:1.0;" x1="1017" x2="856.5" y1="767.8782" y2="767.8782"/><line style="stroke:#000000;stroke-width:1.0;" x1="856.5" x2="856.5" y1="767.8782" y2="802.8782"/><polygon fill="#000000" points="852.5,792.8782,856.5,802.8782,860.5,792.8782,856.5,796.8782" style="stroke:#000000;stroke-width:1.0;"/><line style="stroke:#000000;stroke-width:1.0;" x1="856.5" x2="856.5" y1="886.1465" y2="921.1465"/><polygon fill="#000000" points="852.5,911.1465,856.5,921.1465,860.5,911.1465,856.5,915.1465" style="stroke:#000000;stroke-width:1.0;"/><line style="stroke:#000000;stroke-width:1.0;" x1="856.5" x2="856.5" y1="826.8782" y2="851.5625"/><polygon fill="#000000" points="852.5,841.5625,856.5,851.5625,860.5,841.5625,856.5,845.5625" style="stroke:#000000;stroke-width:1.0;"/><line style="stroke:#000000;stroke-width:1.0;" x1="947" x2="999.5" y1="814.8782" y2="814.8782"/><polygon fill="#000000" points="995.5,884.3545,999.5,894.3545,1003.5,884.3545,999.5,888.3545" style="stroke:#000000;stroke-width:1.0;"/><line style="stroke:#000000;stroke-width:1.0;" x1="999.5" x2="999.5" y1="814.8782" y2="965.8455"/><line style="stroke:#000000;stroke-width:1.0;" x1="999.5" x2="856.5" y1="965.8455" y2="965.8455"/><line style="stroke:#000000;stroke-width:1.0;" x1="856.5" x2="856.5" y1="965.8455" y2="1000.8455"/><polygon fill="#000000" points="852.5,990.8455,856.5,1000.8455,860.5,990.8455,856.5,994.8455" style="stroke:#000000;stroke-width:1.0;"/><line style="stroke:#000000;stroke-width:1.0;" x1="725.5" x2="725.5" y1="1139.0134" y2="1159.0134"/><polygon fill="#000000" points="721.5,1149.0134,725.5,1159.0134,729.5,1149.0134,725.5,1153.0134" style="stroke:#000000;stroke-width:1.0;"/><line style="stroke:#000000;stroke-width:1.0;" x1="987.5" x2="987.5" y1="1139.0134" y2="1159.0134"/><polygon fill="#000000" points="983.5,1149.0134,987.5,1159.0134,991.5,1149.0134,987.5,1153.0134" style="stroke:#000000;stroke-width:1.0;"/><line style="stroke:#000000;stroke-width:1.0;" x1="987.5" x2="987.5" y1="1193.5974" y2="1213.5974"/><polygon fill="#000000" points="983.5,1203.5974,987.5,1213.5974,991.5,1203.5974,987.5,1207.5974" style="stroke:#000000;stroke-width:1.0;"/><line style="stroke:#000000;stroke-width:1.0;" x1="987.5" x2="987.5" y1="1248.1814" y2="1268.1814"/><polygon fill="#000000" points="983.5,1258.1814,987.5,1268.1814,991.5,1258.1814,987.5,1262.1814" style="stroke:#000000;stroke-width:1.0;"/><line style="stroke:#000000;stroke-width:1.0;" x1="987.5" x2="987.5" y1="1302.7654" y2="1322.7654"/><polygon fill="#000000" points="983.5,1312.7654,987.5,1322.7654,991.5,1312.7654,987.5,1316.7654" style="stroke:#000000;stroke-width:1.0;"/><line style="stroke:#000000;stroke-width:1.0;" x1="987.5" x2="987.5" y1="1357.3494" y2="1377.3494"/><polygon fill="#000000" points="983.5,1367.3494,987.5,1377.3494,991.5,1367.3494,987.5,1371.3494" style="stroke:#000000;stroke-width:1.0;"/><line style="stroke:#000000;stroke-width:1.0;" x1="987.5" x2="987.5" y1="1411.9333" y2="1431.9333"/><polygon fill="#000000" points="983.5,1421.9333,987.5,1431.9333,991.5,1421.9333,987.5,1425.9333" style="stroke:#000000;stroke-width:1.0;"/><line style="stroke:#000000;stroke-width:1.0;" x1="987.5" x2="987.5" y1="1466.5173" y2="1486.5173"/><polygon fill="#000000" points="983.5,1476.5173,987.5,1486.5173,991.5,1476.5173,987.5,1480.5173" style="stroke:#000000;stroke-width:1.0;"/><line style="stroke:#000000;stroke-width:1.0;" x1="987.5" x2="987.5" y1="1521.1013" y2="1541.1013"/><polygon fill="#000000" points="983.5,1531.1013,987.5,1541.1013,991.5,1531.1013,987.5,1535.1013" style="stroke:#000000;stroke-width:1.0;"/><line style="stroke:#000000;stroke-width:1.0;" x1="780.5" x2="725.5" y1="1082.4294" y2="1082.4294"/><line style="stroke:#000000;stroke-width:1.0;" x1="725.5" x2="725.5" y1="1082.4294" y2="1104.4294"/><polygon fill="#000000" points="721.5,1094.4294,725.5,1104.4294,729.5,1094.4294,725.5,1098.4294" style="stroke:#000000;stroke-width:1.0;"/><line style="stroke:#000000;stroke-width:1.0;" x1="932.5" x2="987.5" y1="1082.4294" y2="1082.4294"/><line style="stroke:#000000;stroke-width:1.0;" x1="987.5" x2="987.5" y1="1082.4294" y2="1104.4294"/><polygon fill="#000000" points="983.5,1094.4294,987.5,1104.4294,991.5,1094.4294,987.5,1098.4294" style="stroke:#000000;stroke-width:1.0;"/><line style="stroke:#000000;stroke-width:1.0;" x1="856.5" x2="856.5" y1="1035.4294" y2="1070.4294"/><polygon fill="#000000" points="852.5,1060.4294,856.5,1070.4294,860.5,1060.4294,856.5,1064.4294" style="stroke:#000000;stroke-width:1.0;"/><line style="stroke:#000000;stroke-width:1.0;" x1="494.875" x2="292.25" y1="159.3213" y2="159.3213"/><line style="stroke:#000000;stroke-width:1.0;" x1="292.25" x2="292.25" y1="159.3213" y2="181.3213"/><polygon fill="#000000" points="288.25,171.3213,292.25,181.3213,296.25,171.3213,292.25,175.3213" style="stroke:#000000;stroke-width:1.0;"/><line style="stroke:#000000;stroke-width:1.0;" x1="653.875" x2="856.5" y1="159.3213" y2="159.3213"/><line style="stroke:#000000;stroke-width:1.0;" x1="856.5" x2="856.5" y1="159.3213" y2="181.3213"/><polygon fill="#000000" points="852.5,171.3213,856.5,181.3213,860.5,171.3213,856.5,175.3213" style="stroke:#000000;stroke-width:1.0;"/><line style="stroke:#000000;stroke-width:1.0;" x1="574.375" x2="574.375" y1="127.3213" y2="147.3213"/><polygon fill="#000000" points="570.375,137.3213,574.375,147.3213,578.375,137.3213,574.375,141.3213" style="stroke:#000000;stroke-width:1.0;"/><!--SRC=[pLLBZXD13DttAKmsaopOiaW420Kn2XeaDCF0sjFj91OLLwdA7QISXWDmYxaOhkfyEfemQWaMP96aKy_sytikvuMkQKCG7B9KbR8wWZkAMzwnXsjAobu8xfL46Lx2UyPLnCq6eI5dq7Ugl6Lz_0dZ3wvDoSCjhJXfn5q99BZnAvOk0KsgAYb6hQhfpLLRVWAiQshimxah3C5ntKNEgegNC3x2rWYjPB1lHTzEm6WBZDFZhqa5zfek957aL1EqzaLmasi7JEc7ZysiO3hWt4hK2EmWj2vXpbqeTfZfLtJSbEEbZnjKNngzOWcjTf1CQv4VOPkn_aX6VCUbvFdaimX0CVf8q707FlHsW2NreJoGDBpiiLp8bX4Yrsis3p0dS4L8T63zRIdk-SwzQFJE8PWRTJGfPSTM2lQw2JbeKF414_Lao4tCU-Z2ZfxgMcfSav3relwxdNtyzkN4Vtg7RblKwWwVLYkespn7sXPxZbZhf7Pi97l0RbWYjwbczMSPs1IAlDjX3joGj10YIyq1tKL1NQ9dBHdrsnSlUmb6pvjpdlRIC1tcNtasU3ApYqkoSGFpyTBG_XzJMIxaYJlKFXlGU1bKRTGFpOAVmaS3QxUoMbCUWMEUDw_XrQ3YdmyHTbj2y5OyAWwesxjWvhppFHEJ-KmdzUyF1msdu8KVsD4WQiV05TiUxTBQ98t-EDNdjtCUEUY5oTaVagqHgdFdtKQO_SDxlH0kzoTROkl75fKQULjQzBJOu1rm_WUotmNuLxkWMDgz_mO0]--></g></svg>