<?xml version="1.0" encoding="us-ascii" standalone="no"?><svg xmlns="http://www.w3.org/2000/svg" xmlns:xlink="http://www.w3.org/1999/xlink" contentStyleType="text/css" height="1163px" preserveAspectRatio="none" style="width:1069px;height:1163px;background:#FFFFFF;" version="1.1" viewBox="0 0 1069 1163" width="1069px" zoomAndPan="magnify"><defs/><g><text fill="#000000" font-family="Verdana" font-size="22" font-weight="bold" lengthAdjust="spacing" textLength="851" x="107.75" y="37.1182">Servizio Gestione Utenti - Diagramma di Sequenza (Flusso di Login)</text><rect fill="#FFFFFF" height="211.9639" style="stroke:#000000;stroke-width:1.0;" width="1037.5" x="15" y="658.541"/><rect fill="#FFFFFF" height="45.168" style="stroke:none;stroke-width:1.0;" width="1037.5" x="15" y="825.3369"/><rect fill="#FFFFFF" height="92.7666" style="stroke:#000000;stroke-width:1.0;" width="426.5" x="15" y="1017.7021"/><rect fill="#FFFFFF" height="45.168" style="stroke:none;stroke-width:1.0;" width="426.5" x="15" y="1065.3008"/><line style="stroke:#000000;stroke-width:1.0;" x1="61" x2="61" y1="84.752" y2="1127.4688"/><line style="stroke:#000000;stroke-width:1.0;" x1="381.5" x2="381.5" y1="84.752" y2="1127.4688"/><line style="stroke:#000000;stroke-width:1.0;" x1="844.5" x2="844.5" y1="84.752" y2="1127.4688"/><line style="stroke:#000000;stroke-width:1.0;" x1="973.5" x2="973.5" y1="84.752" y2="1127.4688"/><rect fill="#FFFFFF" height="31.0146" rx="2.5" ry="2.5" style="stroke:#000000;stroke-width:1.0;" width="53" x="35" y="52.7373"/><text fill="#000000" font-family="Verdana" font-size="14" lengthAdjust="spacing" textLength="39" x="42" y="73.8125">Client</text><rect fill="#FFFFFF" height="31.0146" rx="2.5" ry="2.5" style="stroke:#000000;stroke-width:1.0;" width="53" x="35" y="1126.4688"/><text fill="#000000" font-family="Verdana" font-size="14" lengthAdjust="spacing" textLength="39" x="42" y="1147.5439">Client</text><rect fill="#FFFFFF" height="31.0146" rx="2.5" ry="2.5" style="stroke:#000000;stroke-width:1.0;" width="80" x="341.5" y="52.7373"/><text fill="#000000" font-family="Verdana" font-size="14" lengthAdjust="spacing" textLength="66" x="348.5" y="73.8125">API Login</text><rect fill="#FFFFFF" height="31.0146" rx="2.5" ry="2.5" style="stroke:#000000;stroke-width:1.0;" width="80" x="341.5" y="1126.4688"/><text fill="#000000" font-family="Verdana" font-size="14" lengthAdjust="spacing" textLength="66" x="348.5" y="1147.5439">API Login</text><rect fill="#FFFFFF" height="31.0146" rx="2.5" ry="2.5" style="stroke:#000000;stroke-width:1.0;" width="80" x="804.5" y="52.7373"/><text fill="#000000" font-family="Verdana" font-size="14" lengthAdjust="spacing" textLength="66" x="811.5" y="73.8125">Database</text><rect fill="#FFFFFF" height="31.0146" rx="2.5" ry="2.5" style="stroke:#000000;stroke-width:1.0;" width="80" x="804.5" y="1126.4688"/><text fill="#000000" font-family="Verdana" font-size="14" lengthAdjust="spacing" textLength="66" x="811.5" y="1147.5439">Database</text><rect fill="#FFFFFF" height="31.0146" rx="2.5" ry="2.5" style="stroke:#000000;stroke-width:1.0;" width="118" x="914.5" y="52.7373"/><text fill="#000000" font-family="Verdana" font-size="14" lengthAdjust="spacing" textLength="104" x="921.5" y="73.8125">Gestore Token</text><rect fill="#FFFFFF" height="31.0146" rx="2.5" ry="2.5" style="stroke:#000000;stroke-width:1.0;" width="118" x="914.5" y="1126.4688"/><text fill="#000000" font-family="Verdana" font-size="14" lengthAdjust="spacing" textLength="104" x="921.5" y="1147.5439">Gestore Token</text><rect fill="#FFFFFF" height="3" style="stroke:#FFFFFF;stroke-width:1.0;" width="1057.5" x="5" y="115.6516"/><line style="stroke:#000000;stroke-width:0.5;" x1="5" x2="1062.5" y1="115.6516" y2="115.6516"/><line style="stroke:#000000;stroke-width:0.5;" x1="5" x2="1062.5" y1="118.6516" y2="118.6516"/><rect fill="#FFFFFF" height="23.7993" style="stroke:#000000;stroke-width:1.0;" width="170" x="448.75" y="104.752"/><text fill="#000000" font-family="Verdana" font-size="13" font-weight="bold" lengthAdjust="spacing" textLength="152" x="454.75" y="121.8218">Registrazione Utente</text><polygon fill="#000000" points="369.5,156.3506,379.5,160.3506,369.5,164.3506,373.5,160.3506" style="stroke:#000000;stroke-width:1.0;"/><line style="stroke:#000000;stroke-width:1.0;" x1="61.5" x2="375.5" y1="160.3506" y2="160.3506"/><text fill="#000000" font-family="Verdana" font-size="13" lengthAdjust="spacing" textLength="253" x="68.5" y="155.6211">POST /register {username, password}</text><line style="stroke:#000000;stroke-width:1.0;" x1="381.5" x2="423.5" y1="190.1499" y2="190.1499"/><line style="stroke:#000000;stroke-width:1.0;" x1="423.5" x2="423.5" y1="190.1499" y2="203.1499"/><line style="stroke:#000000;stroke-width:1.0;" x1="382.5" x2="423.5" y1="203.1499" y2="203.1499"/><polygon fill="#000000" points="392.5,199.1499,382.5,203.1499,392.5,207.1499,388.5,203.1499" style="stroke:#000000;stroke-width:1.0;"/><text fill="#000000" font-family="Verdana" font-size="13" lengthAdjust="spacing" textLength="91" x="388.5" y="185.4204">valida_input()</text><line style="stroke:#000000;stroke-width:1.0;" x1="381.5" x2="423.5" y1="232.9492" y2="232.9492"/><line style="stroke:#000000;stroke-width:1.0;" x1="423.5" x2="423.5" y1="232.9492" y2="245.9492"/><line style="stroke:#000000;stroke-width:1.0;" x1="382.5" x2="423.5" y1="245.9492" y2="245.9492"/><polygon fill="#000000" points="392.5,241.9492,382.5,245.9492,392.5,249.9492,388.5,245.9492" style="stroke:#000000;stroke-width:1.0;"/><text fill="#000000" font-family="Verdana" font-size="13" lengthAdjust="spacing" textLength="120" x="388.5" y="228.2197">cripta_password()</text><polygon fill="#000000" points="832.5,271.7485,842.5,275.7485,832.5,279.7485,836.5,275.7485" style="stroke:#000000;stroke-width:1.0;"/><line style="stroke:#000000;stroke-width:1.0;" x1="381.5" x2="838.5" y1="275.7485" y2="275.7485"/><text fill="#000000" font-family="Verdana" font-size="13" lengthAdjust="spacing" textLength="127" x="388.5" y="271.019">INSERT INTO Users</text><polygon fill="#000000" points="392.5,301.5479,382.5,305.5479,392.5,309.5479,388.5,305.5479" style="stroke:#000000;stroke-width:1.0;"/><line style="stroke:#000000;stroke-width:1.0;" x1="386.5" x2="843.5" y1="305.5479" y2="305.5479"/><text fill="#000000" font-family="Verdana" font-size="13" lengthAdjust="spacing" textLength="47" x="398.5" y="300.8184">user_id</text><polygon fill="#000000" points="961.5,331.3472,971.5,335.3472,961.5,339.3472,965.5,335.3472" style="stroke:#000000;stroke-width:1.0;"/><line style="stroke:#000000;stroke-width:1.0;" x1="381.5" x2="967.5" y1="335.3472" y2="335.3472"/><text fill="#000000" font-family="Verdana" font-size="13" lengthAdjust="spacing" textLength="149" x="388.5" y="330.6177">genera_token(user_id)</text><polygon fill="#000000" points="392.5,361.1465,382.5,365.1465,392.5,369.1465,388.5,365.1465" style="stroke:#000000;stroke-width:1.0;"/><line style="stroke:#000000;stroke-width:1.0;" x1="386.5" x2="972.5" y1="365.1465" y2="365.1465"/><text fill="#000000" font-family="Verdana" font-size="13" lengthAdjust="spacing" textLength="37" x="398.5" y="360.417">token</text><polygon fill="#000000" points="832.5,390.9458,842.5,394.9458,832.5,398.9458,836.5,394.9458" style="stroke:#000000;stroke-width:1.0;"/><line style="stroke:#000000;stroke-width:1.0;" x1="381.5" x2="838.5" y1="394.9458" y2="394.9458"/><text fill="#000000" font-family="Verdana" font-size="13" lengthAdjust="spacing" textLength="138" x="388.5" y="390.2163">INSERT INTO Tokens</text><polygon fill="#000000" points="72.5,420.7451,62.5,424.7451,72.5,428.7451,68.5,424.7451" style="stroke:#000000;stroke-width:1.0;"/><line style="stroke:#000000;stroke-width:1.0;" x1="66.5" x2="380.5" y1="424.7451" y2="424.7451"/><text fill="#000000" font-family="Verdana" font-size="13" lengthAdjust="spacing" textLength="296" x="78.5" y="420.0156">{successo: true, token: "xxx", user_id: 123}</text><rect fill="#FFFFFF" height="3" style="stroke:#FFFFFF;stroke-width:1.0;" width="1057.5" x="5" y="453.6448"/><line style="stroke:#000000;stroke-width:0.5;" x1="5" x2="1062.5" y1="453.6448" y2="453.6448"/><line style="stroke:#000000;stroke-width:0.5;" x1="5" x2="1062.5" y1="456.6448" y2="456.6448"/><rect fill="#FFFFFF" height="23.7993" style="stroke:#000000;stroke-width:1.0;" width="110" x="478.75" y="442.7451"/><text fill="#000000" font-family="Verdana" font-size="13" font-weight="bold" lengthAdjust="spacing" textLength="92" x="484.75" y="459.8149">Login Utente</text><polygon fill="#000000" points="369.5,494.3438,379.5,498.3438,369.5,502.3438,373.5,498.3438" style="stroke:#000000;stroke-width:1.0;"/><line style="stroke:#000000;stroke-width:1.0;" x1="61.5" x2="375.5" y1="498.3438" y2="498.3438"/><text fill="#000000" font-family="Verdana" font-size="13" lengthAdjust="spacing" textLength="233" x="68.5" y="493.6143">POST /login {username, password}</text><line style="stroke:#000000;stroke-width:1.0;" x1="381.5" x2="423.5" y1="528.1431" y2="528.1431"/><line style="stroke:#000000;stroke-width:1.0;" x1="423.5" x2="423.5" y1="528.1431" y2="541.1431"/><line style="stroke:#000000;stroke-width:1.0;" x1="382.5" x2="423.5" y1="541.1431" y2="541.1431"/><polygon fill="#000000" points="392.5,537.1431,382.5,541.1431,392.5,545.1431,388.5,541.1431" style="stroke:#000000;stroke-width:1.0;"/><text fill="#000000" font-family="Verdana" font-size="13" lengthAdjust="spacing" textLength="91" x="388.5" y="523.4136">valida_input()</text><polygon fill="#000000" points="832.5,566.9424,842.5,570.9424,832.5,574.9424,836.5,570.9424" style="stroke:#000000;stroke-width:1.0;"/><line style="stroke:#000000;stroke-width:1.0;" x1="381.5" x2="838.5" y1="570.9424" y2="570.9424"/><text fill="#000000" font-family="Verdana" font-size="13" lengthAdjust="spacing" textLength="292" x="388.5" y="566.2129">SELECT * FROM Users WHERE username = ?</text><polygon fill="#000000" points="392.5,596.7417,382.5,600.7417,392.5,604.7417,388.5,600.7417" style="stroke:#000000;stroke-width:1.0;"/><line style="stroke:#000000;stroke-width:1.0;" x1="386.5" x2="843.5" y1="600.7417" y2="600.7417"/><text fill="#000000" font-family="Verdana" font-size="13" lengthAdjust="spacing" textLength="77" x="398.5" y="596.0122">dati_utente</text><line style="stroke:#000000;stroke-width:1.0;" x1="381.5" x2="423.5" y1="630.541" y2="630.541"/><line style="stroke:#000000;stroke-width:1.0;" x1="423.5" x2="423.5" y1="630.541" y2="643.541"/><line style="stroke:#000000;stroke-width:1.0;" x1="382.5" x2="423.5" y1="643.541" y2="643.541"/><polygon fill="#000000" points="392.5,639.541,382.5,643.541,392.5,647.541,388.5,643.541" style="stroke:#000000;stroke-width:1.0;"/><text fill="#000000" font-family="Verdana" font-size="13" lengthAdjust="spacing" textLength="130" x="388.5" y="625.8115">verifica_password()</text><path d="M15,658.541 L79,658.541 L79,666.3403 L69,676.3403 L15,676.3403 L15,658.541 " fill="#FFFFFF" style="stroke:#000000;stroke-width:1.0;"/><rect fill="none" height="211.9639" style="stroke:#000000;stroke-width:1.0;" width="1037.5" x="15" y="658.541"/><text fill="#000000" font-family="Verdana" font-size="13" font-weight="bold" lengthAdjust="spacing" textLength="19" x="30" y="672.6108">alt</text><text fill="#000000" font-family="Verdana" font-size="11" font-weight="bold" lengthAdjust="spacing" textLength="118" x="94" y="671.6001">[Password Valida]</text><polygon fill="#000000" points="961.5,694.1396,971.5,698.1396,961.5,702.1396,965.5,698.1396" style="stroke:#000000;stroke-width:1.0;"/><line style="stroke:#000000;stroke-width:1.0;" x1="381.5" x2="967.5" y1="698.1396" y2="698.1396"/><text fill="#000000" font-family="Verdana" font-size="13" lengthAdjust="spacing" textLength="149" x="388.5" y="693.4102">genera_token(user_id)</text><polygon fill="#000000" points="392.5,723.939,382.5,727.939,392.5,731.939,388.5,727.939" style="stroke:#000000;stroke-width:1.0;"/><line style="stroke:#000000;stroke-width:1.0;" x1="386.5" x2="972.5" y1="727.939" y2="727.939"/><text fill="#000000" font-family="Verdana" font-size="13" lengthAdjust="spacing" textLength="85" x="398.5" y="723.2095">nuovo_token</text><polygon fill="#000000" points="832.5,753.7383,842.5,757.7383,832.5,761.7383,836.5,757.7383" style="stroke:#000000;stroke-width:1.0;"/><line style="stroke:#000000;stroke-width:1.0;" x1="381.5" x2="838.5" y1="757.7383" y2="757.7383"/><text fill="#000000" font-family="Verdana" font-size="13" lengthAdjust="spacing" textLength="214" x="388.5" y="753.0088">DELETE token vecchi per utente</text><polygon fill="#000000" points="832.5,783.5376,842.5,787.5376,832.5,791.5376,836.5,787.5376" style="stroke:#000000;stroke-width:1.0;"/><line style="stroke:#000000;stroke-width:1.0;" x1="381.5" x2="838.5" y1="787.5376" y2="787.5376"/><text fill="#000000" font-family="Verdana" font-size="13" lengthAdjust="spacing" textLength="135" x="388.5" y="782.8081">INSERT nuovo token</text><polygon fill="#000000" points="72.5,813.3369,62.5,817.3369,72.5,821.3369,68.5,817.3369" style="stroke:#000000;stroke-width:1.0;"/><line style="stroke:#000000;stroke-width:1.0;" x1="66.5" x2="380.5" y1="817.3369" y2="817.3369"/><text fill="#000000" font-family="Verdana" font-size="13" lengthAdjust="spacing" textLength="268" x="78.5" y="812.6074">{successo: true, token: "nuovo_token"}</text><line style="stroke:#000000;stroke-width:1.0;stroke-dasharray:2.0,2.0;" x1="15" x2="1052.5" y1="826.3369" y2="826.3369"/><text fill="#000000" font-family="Verdana" font-size="11" font-weight="bold" lengthAdjust="spacing" textLength="147" x="20" y="837.396">[Password Non Valida]</text><polygon fill="#000000" points="72.5,858.5049,62.5,862.5049,72.5,866.5049,68.5,862.5049" style="stroke:#000000;stroke-width:1.0;"/><line style="stroke:#000000;stroke-width:1.0;" x1="66.5" x2="380.5" y1="862.5049" y2="862.5049"/><text fill="#000000" font-family="Verdana" font-size="13" lengthAdjust="spacing" textLength="218" x="78.5" y="857.7754">{errore: "Credenziali non valide"}</text><rect fill="#FFFFFF" height="3" style="stroke:#FFFFFF;stroke-width:1.0;" width="1057.5" x="5" y="898.4045"/><line style="stroke:#000000;stroke-width:0.5;" x1="5" x2="1062.5" y1="898.4045" y2="898.4045"/><line style="stroke:#000000;stroke-width:0.5;" x1="5" x2="1062.5" y1="901.4045" y2="901.4045"/><rect fill="#FFFFFF" height="23.7993" style="stroke:#000000;stroke-width:1.0;" width="149" x="459.25" y="887.5049"/><text fill="#000000" font-family="Verdana" font-size="13" font-weight="bold" lengthAdjust="spacing" textLength="131" x="465.25" y="904.5747">Validazione Token</text><polygon fill="#000000" points="369.5,939.1035,379.5,943.1035,369.5,947.1035,373.5,943.1035" style="stroke:#000000;stroke-width:1.0;"/><line style="stroke:#000000;stroke-width:1.0;" x1="61.5" x2="375.5" y1="943.1035" y2="943.1035"/><text fill="#000000" font-family="Verdana" font-size="13" lengthAdjust="spacing" textLength="217" x="68.5" y="938.374">GET /risorsa_protetta?token=xxx</text><polygon fill="#000000" points="832.5,968.9028,842.5,972.9028,832.5,976.9028,836.5,972.9028" style="stroke:#000000;stroke-width:1.0;"/><line style="stroke:#000000;stroke-width:1.0;" x1="381.5" x2="838.5" y1="972.9028" y2="972.9028"/><text fill="#000000" font-family="Verdana" font-size="13" lengthAdjust="spacing" textLength="439" x="388.5" y="968.1733">SELECT * FROM Tokens WHERE token = ? AND scadenza &gt; NOW()</text><polygon fill="#000000" points="392.5,998.7021,382.5,1002.7021,392.5,1006.7021,388.5,1002.7021" style="stroke:#000000;stroke-width:1.0;"/><line style="stroke:#000000;stroke-width:1.0;" x1="386.5" x2="843.5" y1="1002.7021" y2="1002.7021"/><text fill="#000000" font-family="Verdana" font-size="13" lengthAdjust="spacing" textLength="70" x="398.5" y="997.9727">dati_token</text><path d="M15,1017.7021 L79,1017.7021 L79,1025.5015 L69,1035.5015 L15,1035.5015 L15,1017.7021 " fill="#FFFFFF" style="stroke:#000000;stroke-width:1.0;"/><rect fill="none" height="92.7666" style="stroke:#000000;stroke-width:1.0;" width="426.5" x="15" y="1017.7021"/><text fill="#000000" font-family="Verdana" font-size="13" font-weight="bold" lengthAdjust="spacing" textLength="19" x="30" y="1031.772">alt</text><text fill="#000000" font-family="Verdana" font-size="11" font-weight="bold" lengthAdjust="spacing" textLength="96" x="94" y="1030.7612">[Token Valido]</text><polygon fill="#000000" points="72.5,1053.3008,62.5,1057.3008,72.5,1061.3008,68.5,1057.3008" style="stroke:#000000;stroke-width:1.0;"/><line style="stroke:#000000;stroke-width:1.0;" x1="66.5" x2="380.5" y1="1057.3008" y2="1057.3008"/><text fill="#000000" font-family="Verdana" font-size="13" lengthAdjust="spacing" textLength="186" x="78.5" y="1052.5713">{successo: true, dati: "..."}</text><line style="stroke:#000000;stroke-width:1.0;stroke-dasharray:2.0,2.0;" x1="15" x2="441.5" y1="1066.3008" y2="1066.3008"/><text fill="#000000" font-family="Verdana" font-size="11" font-weight="bold" lengthAdjust="spacing" textLength="185" x="20" y="1077.3599">[Token Non Valido/Scaduto]</text><polygon fill="#000000" points="72.5,1098.4688,62.5,1102.4688,72.5,1106.4688,68.5,1102.4688" style="stroke:#000000;stroke-width:1.0;"/><line style="stroke:#000000;stroke-width:1.0;" x1="66.5" x2="380.5" y1="1102.4688" y2="1102.4688"/><text fill="#000000" font-family="Verdana" font-size="13" lengthAdjust="spacing" textLength="180" x="78.5" y="1097.7393">{errore: "Non autorizzato"}</text><!--SRC=[dLJBRjim4BppAxO-sKNYeErDW1B4af86Y1-mbUPeRAMjGrGcLP9o0mV-zvAKP5jfdG3LHP1dPtTsXlG7yqHhWh90BXWpt1G42r8RlkKIRaaRBWN1Wo5XE9n3p76bSBr6oBcj-rMHs2BqRufAQ-b-kvShBWQCbQWCptY9ma0lAhZbzm0rH5taUdPNKpnelxfmZ0Q_eoQFngCkwDH9HP3AdrJpqp5ZOGXpMd5j56uFsWd2a4LmVkbc132RBbAuKBwE5BnKcfJ0DPr1YLh_bYhVCIUjhTzWmNDSSb5MfZ_eG9dYfS5bopkWyIY0kyaYcQVsbKxXmSxGB1xjcMxeakTjVJeEO4M252wDswZVu0EMZlSSZvoQu8tGBHe5yAAhB2ERZ2MgocxdwG7qdf-VUsUjW00-VVwoyyxvADvmhF3uVzhbv2wI-oHAuIFSpAVZsX9u_9hC4sXxGWXNnoxbQFYoyegwCqZn7pphEC-mC31hlk6RLy70FkzQx8gER1QLtCYwvfZlDeZj1cbIEsb5PDaJXzAUeKRYg-ec7jyF_khtLaH74dexHeMcmsOJAVwndUj6IjahOUcHejpUJMwhGDXo7mcvJYBtKTVy-ehuWzFD-pPn5uHhgRIrM4b3nk2LbnFQqtCwq_eGDg7MBjb4uNeIWyumz_yNbp2PFjgyNiTS6-HJh2LvaV8zonpNhZmS3bkdQlRU9dcniACh8q_QvKhH5YY-tQAHZKz_0000]--></g></svg>