<?xml version="1.0" encoding="us-ascii" standalone="no"?><svg xmlns="http://www.w3.org/2000/svg" xmlns:xlink="http://www.w3.org/1999/xlink" contentStyleType="text/css" height="910px" preserveAspectRatio="none" style="width:1394px;height:910px;background:#FFFFFF;" version="1.1" viewBox="0 0 1394 910" width="1394px" zoomAndPan="magnify"><defs/><g><text fill="#000000" font-family="Verdana" font-size="22" font-weight="bold" lengthAdjust="spacing" textLength="887" x="249.25" y="37.1182">Servizio Gestione Utenti - Diagramma di Stato (Stato Sessione Utente)</text><ellipse cx="295.5" cy="442.7373" fill="#FFFFFF" rx="10" ry="10" style="stroke:#000000;stroke-width:1.0;"/><g id="Ospite"><rect fill="#FFFFFF" height="66.1826" rx="12.5" ry="12.5" style="stroke:#000000;stroke-width:1.0;" width="276" x="392.5" y="552.7373"/><line style="stroke:#000000;stroke-width:1.0;" x1="392.5" x2="668.5" y1="579.752" y2="579.752"/><text fill="#000000" font-family="Verdana" font-size="14" lengthAdjust="spacing" textLength="45" x="508" y="571.8125">Ospite</text><text fill="#000000" font-family="Verdana" font-size="12" lengthAdjust="spacing" textLength="147" x="397.5" y="596.8164">Utente non autenticato</text><text fill="#000000" font-family="Verdana" font-size="12" lengthAdjust="spacing" textLength="256" x="397.5" y="611.4004">Nessun accesso alle funzionalit&#224; di gioco</text></g><g id="Registrazione"><rect fill="#FFFFFF" height="66.1826" rx="12.5" ry="12.5" style="stroke:#000000;stroke-width:1.0;" width="211" x="12" y="695.7373"/><line style="stroke:#000000;stroke-width:1.0;" x1="12" x2="223" y1="722.752" y2="722.752"/><text fill="#000000" font-family="Verdana" font-size="14" lengthAdjust="spacing" textLength="95" x="70" y="714.8125">Registrazione</text><text fill="#000000" font-family="Verdana" font-size="12" lengthAdjust="spacing" textLength="191" x="17" y="739.8164">Inserimento dati registrazione</text><text fill="#000000" font-family="Verdana" font-size="12" lengthAdjust="spacing" textLength="108" x="17" y="754.4004">Validazione input</text></g><g id="AccessoInCorso"><rect fill="#FFFFFF" height="66.1826" rx="12.5" ry="12.5" style="stroke:#000000;stroke-width:1.0;" width="221" x="692" y="695.7373"/><line style="stroke:#000000;stroke-width:1.0;" x1="692" x2="913" y1="722.752" y2="722.752"/><text fill="#000000" font-family="Verdana" font-size="14" lengthAdjust="spacing" textLength="113" x="746" y="714.8125">AccessoInCorso</text><text fill="#000000" font-family="Verdana" font-size="12" lengthAdjust="spacing" textLength="201" x="697" y="739.8164">Inserimento credenziali accesso</text><text fill="#000000" font-family="Verdana" font-size="12" lengthAdjust="spacing" textLength="143" x="697" y="754.4004">Validazione credenziali</text></g><g id="Autenticato"><rect fill="#FFFFFF" height="80.7666" rx="12.5" ry="12.5" style="stroke:#000000;stroke-width:1.0;" width="209" x="323" y="59.7373"/><line style="stroke:#000000;stroke-width:1.0;" x1="323" x2="532" y1="86.752" y2="86.752"/><text fill="#000000" font-family="Verdana" font-size="14" lengthAdjust="spacing" textLength="81" x="387" y="78.8125">Autenticato</text><text fill="#000000" font-family="Verdana" font-size="12" lengthAdjust="spacing" textLength="104" x="328" y="103.8164">Utente collegato</text><text fill="#000000" font-family="Verdana" font-size="12" lengthAdjust="spacing" textLength="107" x="328" y="118.4004">Token JWT attivo</text><text fill="#000000" font-family="Verdana" font-size="12" lengthAdjust="spacing" textLength="189" x="328" y="132.9844">Accesso a tutte le funzionalit&#224;</text></g><g id="ErroreRegistrazione"><rect fill="#FFFFFF" height="66.1826" rx="12.5" ry="12.5" style="stroke:#000000;stroke-width:1.0;" width="251" x="100" y="838.7373"/><line style="stroke:#000000;stroke-width:1.0;" x1="100" x2="351" y1="865.752" y2="865.752"/><text fill="#000000" font-family="Verdana" font-size="14" lengthAdjust="spacing" textLength="139" x="156" y="857.8125">ErroreRegistrazione</text><text fill="#000000" font-family="Verdana" font-size="12" lengthAdjust="spacing" textLength="177" x="105" y="882.8164">Visualizza messaggio errore</text><text fill="#000000" font-family="Verdana" font-size="12" lengthAdjust="spacing" textLength="231" x="105" y="897.4004">Username esistente o dati non validi</text></g><g id="ErroreAccesso"><rect fill="#FFFFFF" height="66.1826" rx="12.5" ry="12.5" style="stroke:#000000;stroke-width:1.0;" width="197" x="579" y="838.7373"/><line style="stroke:#000000;stroke-width:1.0;" x1="579" x2="776" y1="865.752" y2="865.752"/><text fill="#000000" font-family="Verdana" font-size="14" lengthAdjust="spacing" textLength="101" x="627" y="857.8125">ErroreAccesso</text><text fill="#000000" font-family="Verdana" font-size="12" lengthAdjust="spacing" textLength="177" x="584" y="882.8164">Visualizza messaggio errore</text><text fill="#000000" font-family="Verdana" font-size="12" lengthAdjust="spacing" textLength="139" x="584" y="897.4004">Credenziali non valide</text></g><g id="TokenScaduto"><rect fill="#FFFFFF" height="66.1826" rx="12.5" ry="12.5" style="stroke:#000000;stroke-width:1.0;" width="199" x="341" y="409.7373"/><line style="stroke:#000000;stroke-width:1.0;" x1="341" x2="540" y1="436.752" y2="436.752"/><text fill="#000000" font-family="Verdana" font-size="14" lengthAdjust="spacing" textLength="101" x="390" y="428.8125">TokenScaduto</text><text fill="#000000" font-family="Verdana" font-size="12" lengthAdjust="spacing" textLength="111" x="346" y="453.8164">Sessione scaduta</text><text fill="#000000" font-family="Verdana" font-size="12" lengthAdjust="spacing" textLength="179" x="346" y="468.4004">Necessaria ri-autenticazione</text></g><g id="DisconnessioneInCorso"><rect fill="#FFFFFF" height="66.1826" rx="12.5" ry="12.5" style="stroke:#000000;stroke-width:1.0;" width="185" x="737" y="313.7373"/><line style="stroke:#000000;stroke-width:1.0;" x1="737" x2="922" y1="340.752" y2="340.752"/><text fill="#000000" font-family="Verdana" font-size="14" lengthAdjust="spacing" textLength="165" x="747" y="332.8125">DisconnessioneInCorso</text><text fill="#000000" font-family="Verdana" font-size="12" lengthAdjust="spacing" textLength="124" x="742" y="357.8164">Invalidazione token</text><text fill="#000000" font-family="Verdana" font-size="12" lengthAdjust="spacing" textLength="128" x="742" y="372.4004">Pulizia dati sessione</text></g><g id="Disconnesso"><rect fill="#FFFFFF" height="66.1826" rx="12.5" ry="12.5" style="stroke:#000000;stroke-width:1.0;" width="170" x="442.5" y="217.7373"/><line style="stroke:#000000;stroke-width:1.0;" x1="442.5" x2="612.5" y1="244.752" y2="244.752"/><text fill="#000000" font-family="Verdana" font-size="14" lengthAdjust="spacing" textLength="89" x="483" y="236.8125">Disconnesso</text><text fill="#000000" font-family="Verdana" font-size="12" lengthAdjust="spacing" textLength="122" x="447.5" y="261.8164">Connessione persa</text><text fill="#000000" font-family="Verdana" font-size="12" lengthAdjust="spacing" textLength="150" x="447.5" y="276.4004">Tentativo riconnessione</text></g><g id="elem_GMN34"><path d="M567,71.7373 L567,96.2373 L532.12,100.2373 L567,104.2373 L567,129.1353 A0,0 0 0 0 567,129.1353 L846,129.1353 A0,0 0 0 0 846,129.1353 L846,81.7373 L836,71.7373 L567,71.7373 A0,0 0 0 0 567,71.7373 " fill="#FFFFFF" style="stroke:#000000;stroke-width:1.0;"/><path d="M836,71.7373 L836,81.7373 L846,81.7373 L836,71.7373 " fill="#FFFFFF" style="stroke:#000000;stroke-width:1.0;"/><text fill="#000000" font-family="Verdana" font-size="13" lengthAdjust="spacing" textLength="148" x="573" y="89.8071">Token valido per 1 ora</text><text fill="#000000" font-family="Verdana" font-size="13" lengthAdjust="spacing" textLength="201" x="573" y="105.6064">Refresh automatico su attivit&#224;</text><text fill="#000000" font-family="Verdana" font-size="13" lengthAdjust="spacing" textLength="258" x="573" y="121.4058">Accesso completo alle funzioni di gioco</text></g><g id="elem_GMN37"><path d="M997.5,557.2373 L997.5,614.6353 L1245.5,614.6353 L1245.5,567.2373 L1235.5,557.2373 L997.5,557.2373 " fill="#FFFFFF" style="stroke:#000000;stroke-width:1.0;"/><path d="M1235.5,557.2373 L1235.5,567.2373 L1245.5,567.2373 L1235.5,557.2373 " fill="#FFFFFF" style="stroke:#000000;stroke-width:1.0;"/><text fill="#000000" font-family="Verdana" font-size="13" lengthAdjust="spacing" textLength="131" x="1003.5" y="575.3071">Funzionalit&#224; limitata</text><text fill="#000000" font-family="Verdana" font-size="13" lengthAdjust="spacing" textLength="227" x="1003.5" y="591.1064">Pu&#242; vedere solo contenuti pubblici</text><text fill="#000000" font-family="Verdana" font-size="13" lengthAdjust="spacing" textLength="195" x="1003.5" y="606.9058">Deve autenticarsi per giocare</text></g><!--link *start* to Ospite--><g id="link_*start*_Ospite"><path d="M296.61,452.7373 C299.1,469.0673 306.65,503.6573 327.5,522.7373 C345.85,539.5273 363.018,549.6547 386.628,558.5847 " fill="none" id="*start*-to-Ospite" style="stroke:#000000;stroke-width:1.0;"/><polygon fill="#000000" points="392.24,560.7073,385.2371,553.782,387.5633,558.9385,382.4069,561.2647,392.24,560.7073" style="stroke:#000000;stroke-width:1.0;"/><text fill="#000000" font-family="Verdana" font-size="13" lengthAdjust="spacing" textLength="122" x="328.5" y="519.8071">Avvio Applicazione</text></g><!--link Ospite to Registrazione--><g id="link_Ospite_Registrazione"><path d="M392.38,588.5573 C285.57,593.2373 150.08,607.4673 114.5,648.7373 C103.66,661.3173 102.5776,673.769 105.6776,689.609 " fill="none" id="Ospite-to-Registrazione" style="stroke:#000000;stroke-width:1.0;"/><polygon fill="#000000" points="106.83,695.4973,109.027,685.8966,105.8697,690.5904,101.1759,687.4331,106.83,695.4973" style="stroke:#000000;stroke-width:1.0;"/><text fill="#000000" font-family="Verdana" font-size="13" lengthAdjust="spacing" textLength="110" x="115.5" y="662.8071">Clic su Registrati</text></g><!--link Registrazione to Ospite--><g id="link_Registrazione_Ospite"><path d="M176.45,695.5573 C213.87,675.2973 256.97,652.3173 266.5,648.7373 C306.39,633.7673 345.222,622.9691 386.322,613.5391 " fill="none" id="Registrazione-to-Ospite" style="stroke:#000000;stroke-width:1.0;"/><polygon fill="#000000" points="392.17,612.1973,382.5034,610.3113,387.2966,613.3155,384.2925,618.1087,392.17,612.1973" style="stroke:#000000;stroke-width:1.0;"/><text fill="#000000" font-family="Verdana" font-size="13" lengthAdjust="spacing" textLength="152" x="267.5" y="662.8071">Registrazione annullata</text></g><!--link Ospite to AccessoInCorso--><g id="link_Ospite_AccessoInCorso"><path d="M546.07,618.8773 C555.43,635.0773 568.78,653.7873 585.5,665.7373 C595.06,672.5673 637.5438,685.0669 686.1438,698.0669 " fill="none" id="Ospite-to-AccessoInCorso" style="stroke:#000000;stroke-width:1.0;"/><polygon fill="#000000" points="691.94,699.6173,684.2793,693.4275,687.1098,698.3253,682.2121,701.1558,691.94,699.6173" style="stroke:#000000;stroke-width:1.0;"/><text fill="#000000" font-family="Verdana" font-size="13" lengthAdjust="spacing" textLength="92" x="586.5" y="662.8071">Clic su Accedi</text></g><!--link AccessoInCorso to Ospite--><g id="link_AccessoInCorso_Ospite"><path d="M758.88,695.7173 C736.92,680.3973 709.49,662.4473 683.5,648.7373 C662.97,637.9073 645.663,629.9898 624.013,621.1298 " fill="none" id="AccessoInCorso-to-Ospite" style="stroke:#000000;stroke-width:1.0;"/><polygon fill="#000000" points="618.46,618.8573,625.2745,625.968,623.0875,620.7511,628.3045,618.5641,618.46,618.8573" style="stroke:#000000;stroke-width:1.0;"/><text fill="#000000" font-family="Verdana" font-size="13" lengthAdjust="spacing" textLength="99" x="711.5" y="662.8071">Login annullato</text></g><!--link Registrazione to Autenticato--><g id="link_Registrazione_Autenticato"><path d="M95.9,695.6573 C79.41,668.0273 59.5,626.4373 59.5,586.7373 C59.5,249.7373 59.5,249.7373 59.5,249.7373 C59.5,192.6373 207.9215,148.5672 316.6915,123.6472 " fill="none" id="Registrazione-to-Autenticato" style="stroke:#000000;stroke-width:1.0;"/><polygon fill="#000000" points="322.54,122.3073,312.874,120.4182,317.6663,123.4239,314.6606,128.2162,322.54,122.3073" style="stroke:#000000;stroke-width:1.0;"/><text fill="#000000" font-family="Verdana" font-size="13" lengthAdjust="spacing" textLength="140" x="60.5" y="448.3071">Registrazione riuscita</text></g><!--link Registrazione to ErroreRegistrazione--><g id="link_Registrazione_ErroreRegistrazione"><path d="M158.38,761.8173 C168.33,770.8273 178.42,781.0873 186.5,791.7373 C197.22,805.8773 203.7942,817.934 210.4442,832.904 " fill="none" id="Registrazione-to-ErroreRegistrazione" style="stroke:#000000;stroke-width:1.0;"/><polygon fill="#000000" points="212.88,838.3873,212.8818,828.5384,210.8502,833.8179,205.5707,831.7862,212.88,838.3873" style="stroke:#000000;stroke-width:1.0;"/><text fill="#000000" font-family="Verdana" font-size="13" lengthAdjust="spacing" textLength="114" x="198.5" y="805.8071">Validazione fallita</text></g><!--link ErroreRegistrazione to Registrazione--><g id="link_ErroreRegistrazione_Registrazione"><path d="M99.95,852.4573 C76.28,843.1573 54.33,829.3073 39.5,808.7373 C27.44,792.0073 34.337,779.1191 51.977,765.5291 " fill="none" id="ErroreRegistrazione-to-Registrazione" style="stroke:#000000;stroke-width:1.0;"/><polygon fill="#000000" points="56.73,761.8673,47.1593,764.1913,52.7691,764.9188,52.0416,770.5287,56.73,761.8673" style="stroke:#000000;stroke-width:1.0;"/><text fill="#000000" font-family="Verdana" font-size="13" lengthAdjust="spacing" textLength="137" x="40.5" y="805.8071">Riprova registrazione</text></g><!--link ErroreRegistrazione to Ospite--><g id="link_ErroreRegistrazione_Ospite"><path d="M281.39,838.6973 C295.1,829.7673 309.32,819.5273 321.5,808.7373 C370.39,765.4073 370.83,743.3973 415.5,695.7373 C440.8,668.7373 466.828,644.0717 490.038,622.8917 " fill="none" id="ErroreRegistrazione-to-Ospite" style="stroke:#000000;stroke-width:1.0;"/><polygon fill="#000000" points="494.47,618.8473,485.1257,621.9592,490.7766,622.2176,490.5182,627.8686,494.47,618.8473" style="stroke:#000000;stroke-width:1.0;"/><text fill="#000000" font-family="Verdana" font-size="13" lengthAdjust="spacing" textLength="136" x="416.5" y="734.3071">Annulla registrazione</text></g><!--link AccessoInCorso to Autenticato--><g id="link_AccessoInCorso_Autenticato"><path d="M913.19,718.5673 C1059.38,703.3573 1298.5,666.2973 1298.5,586.7373 C1298.5,249.7373 1298.5,249.7373 1298.5,249.7373 C1298.5,81.5373 714.48,173.4873 549.5,140.7373 C543.82,139.6073 543.8638,139.7507 538.0538,138.3107 " fill="none" id="AccessoInCorso-to-Autenticato" style="stroke:#000000;stroke-width:1.0;"/><polygon fill="#000000" points="532.23,136.8673,540.0034,142.915,537.0832,138.0702,541.928,135.1499,532.23,136.8673" style="stroke:#000000;stroke-width:1.0;"/><text fill="#000000" font-family="Verdana" font-size="13" lengthAdjust="spacing" textLength="87" x="1299.5" y="448.3071">Login riuscito</text></g><!--link AccessoInCorso to ErroreAccesso--><g id="link_AccessoInCorso_ErroreAccesso"><path d="M790.88,761.8473 C784.36,777.0973 775.16,794.9573 763.5,808.7373 C754.11,819.8373 747.1429,826.4181 735.3329,835.1581 " fill="none" id="AccessoInCorso-to-ErroreAccesso" style="stroke:#000000;stroke-width:1.0;"/><polygon fill="#000000" points="730.51,838.7273,740.1239,836.5888,734.5291,835.753,735.3649,830.1582,730.51,838.7273" style="stroke:#000000;stroke-width:1.0;"/><text fill="#000000" font-family="Verdana" font-size="13" lengthAdjust="spacing" textLength="139" x="775.5" y="805.8071">Autenticazione fallita</text></g><!--link ErroreAccesso to AccessoInCorso--><g id="link_ErroreAccesso_AccessoInCorso"><path d="M666,838.5773 C662.6,823.3073 661.79,805.4573 670.5,791.7373 C678.24,779.5573 684.043,773.0029 696.213,765.0729 " fill="none" id="ErroreAccesso-to-AccessoInCorso" style="stroke:#000000;stroke-width:1.0;"/><polygon fill="#000000" points="701.24,761.7973,691.5158,763.3594,697.0509,764.527,695.8833,770.062,701.24,761.7973" style="stroke:#000000;stroke-width:1.0;"/><text fill="#000000" font-family="Verdana" font-size="13" lengthAdjust="spacing" textLength="83" x="671.5" y="805.8071">Riprova login</text></g><!--link ErroreAccesso to Ospite--><g id="link_ErroreAccesso_Ospite"><path d="M646.86,838.5073 C628.53,817.8573 605.88,789.7573 590.5,761.7373 C564.77,714.8573 548.6075,660.7425 539.4175,624.5725 " fill="none" id="ErroreAccesso-to-Ospite" style="stroke:#000000;stroke-width:1.0;"/><polygon fill="#000000" points="537.94,618.7573,536.2795,628.4652,539.1713,623.6033,544.0331,626.4951,537.94,618.7573" style="stroke:#000000;stroke-width:1.0;"/><text fill="#000000" font-family="Verdana" font-size="13" lengthAdjust="spacing" textLength="82" x="591.5" y="734.3071">Annulla login</text></g><!--link Autenticato to TokenScaduto--><g id="link_Autenticato_TokenScaduto"><path d="M354.56,140.9773 C327.72,160.1173 300.87,185.8873 288.5,217.7373 C277.88,245.0773 284.07,254.7373 288.5,283.7373 C295.24,327.9273 289.64,345.5973 318.5,379.7373 C328.55,391.6173 336.2814,398.4232 349.9014,406.5132 " fill="none" id="Autenticato-to-TokenScaduto" style="stroke:#000000;stroke-width:1.0;"/><polygon fill="#000000" points="355.06,409.5773,349.3648,401.5421,350.7612,407.0239,345.2793,408.4202,355.06,409.5773" style="stroke:#000000;stroke-width:1.0;"/><text fill="#000000" font-family="Verdana" font-size="13" lengthAdjust="spacing" textLength="135" x="289.5" y="256.3071">Token scade (1 ora)</text></g><!--link Autenticato to DisconnessioneInCorso--><g id="link_Autenticato_DisconnessioneInCorso"><path d="M532.3,136.5373 C538.09,138.0573 543.85,139.4773 549.5,140.7373 C600.88,152.2273 745.03,135.9073 784.5,170.7373 C825.07,206.5473 831.4286,267.5574 831.2386,307.4574 " fill="none" id="Autenticato-to-DisconnessioneInCorso" style="stroke:#000000;stroke-width:1.0;"/><polygon fill="#000000" points="831.21,313.4573,835.2528,304.4765,831.2338,308.4574,827.2529,304.4384,831.21,313.4573" style="stroke:#000000;stroke-width:1.0;"/><text fill="#000000" font-family="Verdana" font-size="13" lengthAdjust="spacing" textLength="122" x="798.5" y="184.8071">Clic su Disconnetti</text></g><!--link Autenticato to Disconnesso--><g id="link_Autenticato_Disconnesso"><path d="M357.6,140.9073 C341.8,154.9373 332.74,171.3273 344.5,187.7373 C350.83,196.5673 391.8338,210.6006 436.4938,224.0206 " fill="none" id="Autenticato-to-Disconnesso" style="stroke:#000000;stroke-width:1.0;"/><polygon fill="#000000" points="442.24,225.7473,434.7719,219.3265,437.4515,224.3084,432.4696,226.9881,442.24,225.7473" style="stroke:#000000;stroke-width:1.0;"/><text fill="#000000" font-family="Verdana" font-size="13" lengthAdjust="spacing" textLength="118" x="345.5" y="184.8071">Errore rete/server</text></g><!--link Disconnesso to Autenticato--><g id="link_Disconnesso_Autenticato"><path d="M505.68,217.3373 C490.58,194.9073 473.7313,169.8942 457.6513,146.0142 " fill="none" id="Disconnesso-to-Autenticato" style="stroke:#000000;stroke-width:1.0;"/><polygon fill="#000000" points="454.3,141.0373,456.009,150.7368,457.0927,145.1847,462.6448,146.2684,454.3,141.0373" style="stroke:#000000;stroke-width:1.0;"/><text fill="#000000" font-family="Verdana" font-size="13" lengthAdjust="spacing" textLength="292" x="483.5" y="184.8071">Riconnessione riuscita (token ancora valido)</text></g><!--link TokenScaduto to AccessoInCorso--><g id="link_TokenScaduto_AccessoInCorso"><path d="M540.05,464.3573 C633.09,489.7473 765.51,543.1773 819.5,648.7373 C826.91,663.2273 826.1253,675.1523 820.8453,690.0423 " fill="none" id="TokenScaduto-to-AccessoInCorso" style="stroke:#000000;stroke-width:1.0;"/><polygon fill="#000000" points="818.84,695.6973,825.6179,688.5517,820.5111,690.9848,818.0779,685.878,818.84,695.6973" style="stroke:#000000;stroke-width:1.0;"/><text fill="#000000" font-family="Verdana" font-size="13" lengthAdjust="spacing" textLength="114" x="799.5" y="591.3071">Re-login richiesto</text></g><!--link TokenScaduto to Ospite--><g id="link_TokenScaduto_Ospite"><path d="M448.38,475.9673 C452.9,490.9073 459.49,508.4673 468.5,522.7373 C475.24,533.4173 479.904,539.4381 488.834,548.4381 " fill="none" id="TokenScaduto-to-Ospite" style="stroke:#000000;stroke-width:1.0;"/><polygon fill="#000000" points="493.06,552.6973,489.5604,543.4912,489.5383,549.148,483.8815,549.1259,493.06,552.6973" style="stroke:#000000;stroke-width:1.0;"/><text fill="#000000" font-family="Verdana" font-size="13" lengthAdjust="spacing" textLength="114" x="469.5" y="519.8071">Timeout sessione</text></g><!--link DisconnessioneInCorso to Ospite--><g id="link_DisconnessioneInCorso_Ospite"><path d="M813.96,379.7473 C799.03,407.8673 774.23,448.4473 743.5,475.7373 C706.54,508.5573 663.3998,531.9962 621.9498,550.2762 " fill="none" id="DisconnessioneInCorso-to-Ospite" style="stroke:#000000;stroke-width:1.0;"/><polygon fill="#000000" points="616.46,552.6973,626.3088,552.7256,621.0349,550.6797,623.0807,545.4058,616.46,552.6973" style="stroke:#000000;stroke-width:1.0;"/><text fill="#000000" font-family="Verdana" font-size="13" lengthAdjust="spacing" textLength="179" x="796.5" y="448.3071">Disconnessione completata</text></g><!--link Disconnesso to TokenScaduto--><g id="link_Disconnesso_TokenScaduto"><path d="M442.32,277.1073 C393.39,292.0773 340.93,309.0073 337.5,313.7373 C320.27,337.4773 323.07,354.1973 337.5,379.7373 C344.23,391.6373 349.3882,397.9912 360.5882,406.0912 " fill="none" id="Disconnesso-to-TokenScaduto" style="stroke:#000000;stroke-width:1.0;"/><polygon fill="#000000" points="365.45,409.6073,360.5014,401.0919,361.3985,406.6772,355.8132,407.5743,365.45,409.6073" style="stroke:#000000;stroke-width:1.0;"/><text fill="#000000" font-family="Verdana" font-size="13" lengthAdjust="spacing" textLength="245" x="338.5" y="352.3071">Riconnessione fallita (token scaduto)</text></g><!--link Disconnesso to Ospite--><g id="link_Disconnesso_Ospite"><path d="M568.18,283.8373 C576.44,292.5673 583.98,302.6973 588.5,313.7373 C606.1,356.7173 605.56,479.5373 588.5,522.7373 C584.17,533.7073 580.9102,539.4324 572.9402,548.2224 " fill="none" id="Disconnesso-to-Ospite" style="stroke:#000000;stroke-width:1.0;"/><polygon fill="#000000" points="568.91,552.6673,577.9186,548.6868,572.2685,548.9632,571.9921,543.3131,568.91,552.6673" style="stroke:#000000;stroke-width:1.0;"/><text fill="#000000" font-family="Verdana" font-size="13" lengthAdjust="spacing" textLength="123" x="601.5" y="448.3071">Connessione fallita</text></g><!--link Ospite to GMN37--><g id="link_Ospite_GMN37"><path d="M616.18,552.6973 C701.75,524.0573 836.91,490.6273 953,514.2373 C993.79,522.5373 1036.96,541.0673 1069.39,557.1773 " fill="none" id="Ospite-GMN37" style="stroke:#000000;stroke-width:1.0;stroke-dasharray:7.0,7.0;"/></g><!--SRC=[XLPBZjD04DttAOfTWXGXjYoGeWoW83IWIGOMY4LFk-AKiBkj_dYHqt06hZ0NezfsRBVj3AiahlUgdrzzEg_y6Kk4gf2aXV3a2uG3sfekPE0JEaz68pnwr9vW0tSaSolBKa96SF3I6rYr7mTqRi3YMeYVht_1PlCUlhgAFC8xsDOr9zrMLK5ANY9OY3xOqa0R3J8qnobEEyJlEN_Wc5BynO0iMEWfw9X65kIV_qH5EHdLS-BP3vYJyxOzZRFi-6XmeN_kQOpUjidtUcSidp70Oo0Z8QRfzjgXfPBL6iWu6TWnO0R_pagpxXVfAlW98d4h3KcjGr58BnSesy6l6SzIS8eMQH-iDHPVqdXYboDNt82I2uo-N2IKx9lCsNx01dg3ySXsQSdzXewVDmNlZ8jrh-FHj4XTgkK3LTRKSkBvBVRGXQsJ4vgOrNvSMsKnG-ur5dZjm3bXxDo8C0KcOhwOd7HVNBE4JQlR4hggBk9R0xf0VDyhVx6c0-x_rHomkv4VVUMciCM9kXQjYE-nG9YLgGMAr8LkMIZ3Mo1lV4l2H_CRDNp-SGJfFTNJyFKy2JvuJZFT90ayYcho7PJCmYYzuzy8gxTWh5pFA7VabD6wMuhpZNADixuNk97HUiJjwl4DTsIDLeY9e7xtkkQHdCRlCRwmjCHTJnkPD4IANQuPRegkxTIP-4umSr9VjoEFZ0aUNAT9Y5jMx7KzcXWVCzx4VWlScIo_sHLzwcLq8YU5SCUKLO4-xb6HshmReIgqJaxYH_PCncQABWpO1BMmZCVOVXd3gdbRddl5pTDEZrdFKasgcERgvlYQggtyGfBUYTsSB8GsFihApnxCQQnTGDVchRXe2JIjpe47F5bqvtXFcv8zKIPsT3DgpVX0Fs6TtUbrJSDDZJg3A64gf1NDYJucDtn19JMr0sw8vxzGynRYqN2cY4VnHj21swCAJqyyPSIeEwnn-3jX7JNl4S-MlDNwq_y1]--></g></svg>